%TF.GenerationSoftware,KiCad,Pcbnew,6.0.2-1.fc35*%
%TF.CreationDate,2022-04-22T15:47:53+02:00*%
%TF.ProjectId,LEDnode,4c45446e-6f64-4652-9e6b-696361645f70,rev?*%
%TF.SameCoordinates,Original*%
%TF.FileFunction,Copper,L1,Top*%
%TF.FilePolarity,Positive*%
%FSLAX46Y46*%
G04 Gerber Fmt 4.6, Leading zero omitted, Abs format (unit mm)*
G04 Created by KiCad (PCBNEW 6.0.2-1.fc35) date 2022-04-22 15:47:53*
%MOMM*%
%LPD*%
G01*
G04 APERTURE LIST*
G04 Aperture macros list*
%AMRoundRect*
0 Rectangle with rounded corners*
0 $1 Rounding radius*
0 $2 $3 $4 $5 $6 $7 $8 $9 X,Y pos of 4 corners*
0 Add a 4 corners polygon primitive as box body*
4,1,4,$2,$3,$4,$5,$6,$7,$8,$9,$2,$3,0*
0 Add four circle primitives for the rounded corners*
1,1,$1+$1,$2,$3*
1,1,$1+$1,$4,$5*
1,1,$1+$1,$6,$7*
1,1,$1+$1,$8,$9*
0 Add four rect primitives between the rounded corners*
20,1,$1+$1,$2,$3,$4,$5,0*
20,1,$1+$1,$4,$5,$6,$7,0*
20,1,$1+$1,$6,$7,$8,$9,0*
20,1,$1+$1,$8,$9,$2,$3,0*%
G04 Aperture macros list end*
%TA.AperFunction,ComponentPad*%
%ADD10C,2.800000*%
%TD*%
%TA.AperFunction,WasherPad*%
%ADD11C,1.100000*%
%TD*%
%TA.AperFunction,SMDPad,CuDef*%
%ADD12R,2.500000X3.500000*%
%TD*%
%TA.AperFunction,WasherPad*%
%ADD13C,1.300000*%
%TD*%
%TA.AperFunction,SMDPad,CuDef*%
%ADD14R,1.500000X2.000000*%
%TD*%
%TA.AperFunction,SMDPad,CuDef*%
%ADD15R,2.000000X2.000000*%
%TD*%
%TA.AperFunction,ComponentPad*%
%ADD16RoundRect,1.500000X0.000000X-1.000000X0.000000X-1.000000X0.000000X1.000000X0.000000X1.000000X0*%
%TD*%
%TA.AperFunction,SMDPad,CuDef*%
%ADD17RoundRect,0.250000X1.250000X0.550000X-1.250000X0.550000X-1.250000X-0.550000X1.250000X-0.550000X0*%
%TD*%
%TA.AperFunction,ComponentPad*%
%ADD18R,1.700000X1.700000*%
%TD*%
%TA.AperFunction,ComponentPad*%
%ADD19O,1.700000X1.700000*%
%TD*%
%TA.AperFunction,ComponentPad*%
%ADD20C,1.700000*%
%TD*%
%TA.AperFunction,SMDPad,CuDef*%
%ADD21R,2.750000X1.000000*%
%TD*%
%TA.AperFunction,SMDPad,CuDef*%
%ADD22R,1.500000X2.500000*%
%TD*%
%TA.AperFunction,ComponentPad*%
%ADD23C,1.000000*%
%TD*%
%TA.AperFunction,ComponentPad*%
%ADD24R,1.000000X1.000000*%
%TD*%
%TA.AperFunction,ComponentPad*%
%ADD25O,1.000000X1.000000*%
%TD*%
%TA.AperFunction,SMDPad,CuDef*%
%ADD26RoundRect,0.218750X0.256250X-0.218750X0.256250X0.218750X-0.256250X0.218750X-0.256250X-0.218750X0*%
%TD*%
%TA.AperFunction,SMDPad,CuDef*%
%ADD27R,0.350000X0.500000*%
%TD*%
%TA.AperFunction,ViaPad*%
%ADD28C,0.800000*%
%TD*%
%TA.AperFunction,Conductor*%
%ADD29C,0.500000*%
%TD*%
%TA.AperFunction,Conductor*%
%ADD30C,0.250000*%
%TD*%
G04 APERTURE END LIST*
D10*
%TO.P,J1,1,Pin_1*%
%TO.N,/INPUT*%
X82700000Y-74250000D03*
X88900000Y-74250000D03*
%TO.P,J1,2,Pin_2*%
%TO.N,Net-(D1-Pad1)*%
X119100000Y-74250000D03*
X125300000Y-74250000D03*
%TD*%
D11*
%TO.P,SW1,*%
%TO.N,*%
X120500000Y-89000000D03*
D12*
X116250000Y-89000000D03*
D13*
X125000000Y-89000000D03*
D12*
X129750000Y-89000000D03*
D14*
%TO.P,SW1,A,A*%
%TO.N,Net-(R10-Pad2)*%
X125500000Y-81000000D03*
%TO.P,SW1,B,B*%
%TO.N,Net-(R11-Pad2)*%
X120500000Y-81000000D03*
%TO.P,SW1,C,C*%
%TO.N,Net-(Q6-Pad3)*%
X123000000Y-81000000D03*
D15*
%TO.P,SW1,S1,S1*%
%TO.N,Net-(R14-Pad1)*%
X125500000Y-97000000D03*
%TO.P,SW1,S2,S2*%
%TO.N,GND*%
X120500000Y-97000000D03*
%TD*%
D16*
%TO.P,H4,1,1*%
%TO.N,GND*%
X78200000Y-71200000D03*
%TD*%
D17*
%TO.P,C5,1*%
%TO.N,+3V3*%
X126100000Y-101570000D03*
%TO.P,C5,2*%
%TO.N,GND*%
X121700000Y-101570000D03*
%TD*%
D18*
%TO.P,J3,1,Pin_1*%
%TO.N,+3V3*%
X82300000Y-101900000D03*
D19*
%TO.P,J3,2,Pin_2*%
%TO.N,/Tx*%
X84840000Y-101900000D03*
%TO.P,J3,3,Pin_3*%
%TO.N,/Rx*%
X87380000Y-101900000D03*
%TO.P,J3,4,Pin_4*%
%TO.N,/SDA*%
X89920000Y-101900000D03*
%TO.P,J3,5,Pin_5*%
%TO.N,/SCL*%
X92460000Y-101900000D03*
%TO.P,J3,6,Pin_6*%
%TO.N,/ADC*%
X95000000Y-101900000D03*
%TD*%
D16*
%TO.P,H3,1,1*%
%TO.N,GND*%
X129800000Y-102300000D03*
%TD*%
D20*
%TO.P,SW2,1,A*%
%TO.N,GND*%
X104541964Y-95361429D03*
%TO.P,SW2,2,B*%
%TO.N,Net-(R2-Pad1)*%
X101341964Y-95361429D03*
%TO.P,SW2,3,C*%
%TO.N,unconnected-(SW2-Pad3)*%
X98141964Y-95361429D03*
%TD*%
D17*
%TO.P,C2,1*%
%TO.N,/INPUT*%
X118080000Y-101570000D03*
%TO.P,C2,2*%
%TO.N,GND*%
X113680000Y-101570000D03*
%TD*%
D21*
%TO.P,SW3,1,A*%
%TO.N,GND*%
X108875000Y-96750000D03*
X114625000Y-96750000D03*
%TO.P,SW3,2,B*%
%TO.N,Net-(R6-Pad1)*%
X114625000Y-92750000D03*
X108875000Y-92750000D03*
%TD*%
D16*
%TO.P,H1,1,1*%
%TO.N,GND*%
X129800000Y-71200000D03*
%TD*%
D18*
%TO.P,J4,1,Pin_1*%
%TO.N,/LED2*%
X78300000Y-75900000D03*
D19*
%TO.P,J4,2,Pin_2*%
%TO.N,/DISP_0*%
X78300000Y-78440000D03*
%TO.P,J4,3,Pin_3*%
%TO.N,/DISP_A*%
X78300000Y-80980000D03*
%TO.P,J4,4,Pin_4*%
%TO.N,/DISP_B*%
X78300000Y-83520000D03*
%TO.P,J4,5,Pin_5*%
%TO.N,/DISP_F*%
X78300000Y-86060000D03*
%TO.P,J4,6,Pin_6*%
%TO.N,/MODE*%
X78300000Y-88600000D03*
%TO.P,J4,7,Pin_7*%
%TO.N,GND*%
X78300000Y-91140000D03*
%TO.P,J4,8,Pin_8*%
X78300000Y-93680000D03*
%TD*%
D22*
%TO.P,U2,1,e*%
%TO.N,Net-(U2-Pad1)*%
X92150000Y-90715000D03*
%TO.P,U2,2,d*%
%TO.N,Net-(U2-Pad2)*%
X94690000Y-90715000D03*
%TO.P,U2,3,DPX*%
%TO.N,Net-(U2-Pad3)*%
X97230000Y-90715000D03*
%TO.P,U2,4,c*%
%TO.N,Net-(U2-Pad4)*%
X99770000Y-90715000D03*
%TO.P,U2,5,g*%
%TO.N,Net-(U2-Pad5)*%
X102310000Y-90715000D03*
%TO.P,U2,6,CC4*%
%TO.N,Net-(Q4-Pad3)*%
X104850000Y-90715000D03*
%TO.P,U2,7,b*%
%TO.N,Net-(U2-Pad7)*%
X104850000Y-79285000D03*
%TO.P,U2,8,CC3*%
%TO.N,Net-(Q3-Pad3)*%
X102310000Y-79285000D03*
%TO.P,U2,9,CC2*%
%TO.N,Net-(Q2-Pad3)*%
X99770000Y-79285000D03*
%TO.P,U2,10,f*%
%TO.N,Net-(U2-Pad10)*%
X97230000Y-79285000D03*
%TO.P,U2,11,a*%
%TO.N,Net-(U2-Pad11)*%
X94690000Y-79285000D03*
%TO.P,U2,12,CC1*%
%TO.N,Net-(Q1-Pad3)*%
X92150000Y-79285000D03*
%TD*%
D23*
%TO.P,Y1,1,1*%
%TO.N,Net-(C9-Pad1)*%
X94550000Y-95550000D03*
%TO.P,Y1,2,2*%
%TO.N,Net-(C8-Pad1)*%
X94550000Y-97450000D03*
%TD*%
D24*
%TO.P,J2,1,Pin_1*%
%TO.N,+3V3*%
X83350000Y-91900000D03*
D25*
%TO.P,J2,2,Pin_2*%
%TO.N,/SYS_SWDCLK*%
X84620000Y-91900000D03*
%TO.P,J2,3,Pin_3*%
%TO.N,GND*%
X85890000Y-91900000D03*
%TO.P,J2,4,Pin_4*%
%TO.N,/SYS_SWDIO*%
X87160000Y-91900000D03*
%TO.P,J2,5,Pin_5*%
%TO.N,/SYS_RST*%
X88430000Y-91900000D03*
%TD*%
D26*
%TO.P,D3,1,K*%
%TO.N,Net-(D3-Pad1)*%
X81100000Y-83475000D03*
%TO.P,D3,2,A*%
%TO.N,/ADC*%
X81100000Y-81900000D03*
%TD*%
D27*
%TO.P,U5,1,GND*%
%TO.N,GND*%
X107337011Y-76650000D03*
%TO.P,U5,2,CSB*%
%TO.N,+3V3*%
X107987011Y-76650000D03*
%TO.P,U5,3,SDI*%
%TO.N,/SDA*%
X108637011Y-76650000D03*
%TO.P,U5,4,SCK*%
%TO.N,/SCL*%
X109287011Y-76650000D03*
%TO.P,U5,5,SDO*%
%TO.N,+3V3*%
X109287011Y-78700000D03*
%TO.P,U5,6,VDDIO*%
X108637011Y-78700000D03*
%TO.P,U5,7,GND*%
%TO.N,GND*%
X107987011Y-78700000D03*
%TO.P,U5,8,VDD*%
%TO.N,+3V3*%
X107337011Y-78700000D03*
%TD*%
D16*
%TO.P,H2,1,1*%
%TO.N,GND*%
X78200000Y-102300000D03*
%TD*%
D26*
%TO.P,D2,1,K*%
%TO.N,Net-(D2-Pad1)*%
X81100000Y-86575000D03*
%TO.P,D2,2,A*%
%TO.N,/LED2*%
X81100000Y-85000000D03*
%TD*%
D28*
%TO.N,/INPUT*%
X116860000Y-97710000D03*
%TO.N,GND*%
X82500000Y-98000000D03*
X79000000Y-96500000D03*
X84900000Y-89200000D03*
X98450000Y-101250000D03*
X107412011Y-77475000D03*
X113674500Y-86000000D03*
X119500000Y-86750000D03*
X79651000Y-87500000D03*
X96500000Y-97825500D03*
X101600000Y-103350000D03*
X83500000Y-98000000D03*
X119250000Y-71250000D03*
X88500000Y-98000000D03*
X84500000Y-98000000D03*
X114625000Y-96700500D03*
X113630000Y-101500000D03*
X79651000Y-84500000D03*
X83500000Y-97000000D03*
X83500000Y-96000000D03*
X97700000Y-100700000D03*
X117500000Y-82750000D03*
X83500000Y-95000000D03*
X118250000Y-71250000D03*
X84500000Y-97000000D03*
X119250000Y-69250000D03*
X112225000Y-82875000D03*
X123500000Y-72000000D03*
X84500000Y-96000000D03*
X106500000Y-98000000D03*
X81000000Y-79500000D03*
X118250000Y-69250000D03*
X108000000Y-81000000D03*
X84500000Y-95000000D03*
X85800000Y-89200000D03*
X100750000Y-103350000D03*
X80000000Y-79500000D03*
X99900000Y-103350000D03*
X82500000Y-97000000D03*
X92549694Y-100224194D03*
X82500000Y-95000000D03*
X99050000Y-103350000D03*
X112000000Y-86000000D03*
X114000000Y-83000000D03*
X120250000Y-69250000D03*
X82500000Y-96000000D03*
%TO.N,+3V3*%
X101325000Y-93600000D03*
X93375000Y-94000000D03*
X120400000Y-100100000D03*
X96300000Y-95825000D03*
X109250000Y-90950000D03*
X114125000Y-89500000D03*
X107500000Y-98500000D03*
X109087011Y-78375000D03*
X115470000Y-99880000D03*
X109087011Y-77500000D03*
X117900000Y-100200000D03*
X103500000Y-93500000D03*
X102850000Y-100225980D03*
X90000000Y-91000000D03*
X127770000Y-97740000D03*
%TO.N,/ENC2*%
X100000000Y-96500000D03*
X118565332Y-90065332D03*
X118500000Y-93000000D03*
X120400000Y-84400000D03*
%TO.N,/ENC1*%
X98000000Y-88500000D03*
X125625000Y-84400000D03*
%TO.N,/MODE*%
X99000000Y-98325500D03*
X92456408Y-98431887D03*
%TO.N,Net-(D2-Pad1)*%
X81100000Y-86575000D03*
%TO.N,/SDA*%
X110000000Y-79500000D03*
X115500000Y-84500000D03*
X115500000Y-82000000D03*
X117500000Y-86000000D03*
%TO.N,/LED2*%
X89000000Y-84500000D03*
X88500000Y-82500000D03*
X81500000Y-78500000D03*
%TO.N,/SCL*%
X114500000Y-84500000D03*
X110500000Y-78000000D03*
X99675000Y-93600000D03*
X109500000Y-100000000D03*
X111000000Y-88500000D03*
%TO.N,Net-(D3-Pad1)*%
X81100000Y-83475000D03*
%TO.N,/ADC*%
X80325500Y-93500000D03*
X94500000Y-86500000D03*
%TO.N,/SYS_SWDCLK*%
X107000000Y-94500000D03*
X109500000Y-88000000D03*
X104000000Y-85500000D03*
X105674500Y-85825500D03*
X106500000Y-88500000D03*
X87000000Y-94000000D03*
%TO.N,/SYS_SWDIO*%
X100000000Y-87500000D03*
X90000000Y-89000000D03*
%TO.N,/Tx*%
X86000000Y-94500000D03*
X91000000Y-85500000D03*
X87500000Y-87500000D03*
%TO.N,/Rx*%
X90000000Y-85000000D03*
X81000000Y-99500000D03*
%TO.N,/DISP_0*%
X91000000Y-83000000D03*
X90000000Y-80000000D03*
%TO.N,/BUTTON1*%
X101498758Y-92511079D03*
X123500000Y-94500000D03*
%TO.N,/BUTTON2*%
X97631385Y-86074020D03*
X113500000Y-82000000D03*
%TO.N,/DISP_D*%
X104675000Y-82000000D03*
X101600000Y-83550000D03*
%TO.N,/DISP_1*%
X97000000Y-81500000D03*
X99000000Y-76000000D03*
%TO.N,Net-(Q1-Pad3)*%
X92150000Y-79285000D03*
%TO.N,/DISP_2*%
X101000000Y-81500000D03*
X102250000Y-76362500D03*
%TO.N,Net-(Q2-Pad3)*%
X99770000Y-79285000D03*
%TO.N,Net-(Q3-Pad3)*%
X102310000Y-79285000D03*
%TO.N,/DISP_A*%
X86500000Y-78500000D03*
X84500000Y-80000000D03*
X93250000Y-73750000D03*
X93825000Y-75800000D03*
X90500000Y-82000000D03*
%TO.N,Net-(Q4-Pad3)*%
X104850000Y-90715000D03*
%TO.N,Net-(Q6-Pad3)*%
X118400000Y-78400000D03*
%TO.N,Net-(R6-Pad1)*%
X114625000Y-92750000D03*
%TO.N,Net-(R10-Pad2)*%
X125541408Y-81041407D03*
%TO.N,Net-(R11-Pad2)*%
X120500000Y-81275000D03*
%TO.N,Net-(R14-Pad1)*%
X125408592Y-96908592D03*
%TO.N,/DISP_C*%
X108850000Y-86650000D03*
X102600000Y-84300000D03*
X104850000Y-84100000D03*
X110500000Y-85725000D03*
X107376944Y-85423056D03*
X103800000Y-83050000D03*
%TO.N,/DISP_E*%
X96700000Y-85050000D03*
X89448114Y-88004128D03*
%TO.N,/DISP_DP*%
X99750000Y-86300000D03*
X104000000Y-86900000D03*
%TO.N,/DISP_B*%
X76982906Y-79667094D03*
X105350000Y-77050000D03*
%TO.N,/DISP_F*%
X89500000Y-83000000D03*
X95750000Y-73625000D03*
X95750000Y-77550000D03*
X84000000Y-83000000D03*
%TO.N,Net-(U2-Pad11)*%
X92175000Y-75800000D03*
%TO.N,Net-(U2-Pad7)*%
X104850000Y-79285000D03*
%TO.N,Net-(U2-Pad4)*%
X105650000Y-99250000D03*
X103750000Y-98950000D03*
X108350000Y-99250000D03*
%TO.N,Net-(U2-Pad2)*%
X103100000Y-81750000D03*
X96051944Y-88151944D03*
X96900000Y-83850000D03*
%TO.N,Net-(U2-Pad1)*%
X87125000Y-88850000D03*
%TO.N,Net-(U2-Pad10)*%
X96600000Y-75500000D03*
%TO.N,Net-(U2-Pad5)*%
X102310000Y-90715000D03*
%TO.N,Net-(U2-Pad3)*%
X103000000Y-87650000D03*
%TD*%
D29*
%TO.N,/INPUT*%
X116860000Y-100350000D02*
X118080000Y-101570000D01*
X116860000Y-97710000D02*
X116860000Y-100350000D01*
D30*
%TO.N,GND*%
X113680000Y-101570000D02*
X113680000Y-101550000D01*
X79000000Y-96500000D02*
X78200000Y-97300000D01*
X108875000Y-96750000D02*
X114625000Y-96750000D01*
X78200000Y-97300000D02*
X78200000Y-101300000D01*
X108000000Y-81000000D02*
X113453904Y-81000000D01*
X114924500Y-97000000D02*
X114625000Y-96700500D01*
X107750000Y-96750000D02*
X108875000Y-96750000D01*
X79651000Y-87500000D02*
X79651000Y-84500000D01*
X77175489Y-84175489D02*
X77935489Y-84935489D01*
X107337011Y-77400000D02*
X107412011Y-77475000D01*
X77175489Y-80514211D02*
X77175489Y-84175489D01*
X112350000Y-83000000D02*
X112225000Y-82875000D01*
X79924511Y-103024511D02*
X83475489Y-103024511D01*
X106500000Y-98000000D02*
X107750000Y-96750000D01*
X113453904Y-81000000D02*
X114174511Y-81720607D01*
X107412011Y-77475000D02*
X107987011Y-78050000D01*
X83475489Y-103024511D02*
X83500000Y-103000000D01*
X79215511Y-84935489D02*
X79651000Y-84500000D01*
X114174511Y-81720607D02*
X114174511Y-82825489D01*
X83500000Y-103000000D02*
X83500000Y-98000000D01*
X114174511Y-82825489D02*
X114000000Y-83000000D01*
X107337011Y-76650000D02*
X107337011Y-77400000D01*
X78200000Y-101300000D02*
X79924511Y-103024511D01*
X77935489Y-84935489D02*
X79215511Y-84935489D01*
X112000000Y-86000000D02*
X113674500Y-86000000D01*
X79644511Y-79855489D02*
X77834211Y-79855489D01*
X80000000Y-79500000D02*
X79644511Y-79855489D01*
X107987011Y-78050000D02*
X107987011Y-78700000D01*
X114000000Y-83000000D02*
X112350000Y-83000000D01*
X117250000Y-83000000D02*
X117500000Y-82750000D01*
X90724194Y-100224194D02*
X92549694Y-100224194D01*
X88500000Y-98000000D02*
X90724194Y-100224194D01*
X114000000Y-83000000D02*
X117250000Y-83000000D01*
X77834211Y-79855489D02*
X77175489Y-80514211D01*
X113680000Y-101550000D02*
X113630000Y-101500000D01*
X120500000Y-97000000D02*
X114924500Y-97000000D01*
%TO.N,+3V3*%
X90000000Y-93000000D02*
X90500000Y-93500000D01*
X91000000Y-94000000D02*
X93375000Y-94000000D01*
X82300000Y-101900000D02*
X81825489Y-101425489D01*
X90000000Y-91000000D02*
X90000000Y-93000000D01*
X107987011Y-76974022D02*
X108512989Y-77500000D01*
X112625000Y-91000000D02*
X109300000Y-91000000D01*
X84500000Y-90050000D02*
X83350000Y-91200000D01*
D29*
X120400000Y-100100000D02*
X118000000Y-100100000D01*
D30*
X107361522Y-79224511D02*
X108462500Y-79224511D01*
X88650000Y-91000000D02*
X87700000Y-90050000D01*
X109287011Y-78575000D02*
X109087011Y-78375000D01*
X107337011Y-79200000D02*
X107361522Y-79224511D01*
X101150000Y-100400000D02*
X102675980Y-100400000D01*
X101425000Y-93500000D02*
X101325000Y-93600000D01*
X108637011Y-79050000D02*
X108637011Y-78700000D01*
X107987011Y-76650000D02*
X107987011Y-76974022D01*
X98720607Y-97650989D02*
X99350989Y-97650989D01*
X112625000Y-91000000D02*
X114125000Y-89500000D01*
X98325489Y-98224511D02*
X98325489Y-98046107D01*
X103500000Y-93500000D02*
X101425000Y-93500000D01*
X113500000Y-98500000D02*
X114880000Y-99880000D01*
X114880000Y-99880000D02*
X115470000Y-99880000D01*
X90500000Y-93500000D02*
X90500000Y-94750000D01*
X94475000Y-94000000D02*
X96300000Y-95825000D01*
X90000000Y-91000000D02*
X88650000Y-91000000D01*
X109287011Y-78700000D02*
X108637011Y-78700000D01*
X90500000Y-93500000D02*
X91000000Y-94000000D01*
D29*
X118000000Y-100100000D02*
X117900000Y-100200000D01*
D30*
X100275000Y-99525000D02*
X101150000Y-100400000D01*
X98325489Y-98046107D02*
X98720607Y-97650989D01*
X83350000Y-91200000D02*
X83350000Y-91900000D01*
X81825489Y-93424511D02*
X83350000Y-91900000D01*
X99400989Y-97650989D02*
X100275000Y-98525000D01*
X107500000Y-98500000D02*
X113500000Y-98500000D01*
X109300000Y-91000000D02*
X109250000Y-90950000D01*
X90500000Y-94750000D02*
X94250011Y-98500011D01*
X108512989Y-77500000D02*
X109087011Y-77500000D01*
X93375000Y-94000000D02*
X94475000Y-94000000D01*
X108462500Y-79224511D02*
X108637011Y-79050000D01*
X100275000Y-98525000D02*
X100275000Y-99525000D01*
X87700000Y-90050000D02*
X84500000Y-90050000D01*
X81825489Y-101425489D02*
X81825489Y-93424511D01*
X102675980Y-100400000D02*
X102850000Y-100225980D01*
X126100000Y-99410000D02*
X127770000Y-97740000D01*
X107337011Y-78700000D02*
X107337011Y-79200000D01*
X109287011Y-78700000D02*
X109287011Y-78575000D01*
X99350989Y-97650989D02*
X99400989Y-97650989D01*
X126100000Y-101570000D02*
X126100000Y-99410000D01*
X98049989Y-98500011D02*
X98325489Y-98224511D01*
X94250011Y-98500011D02*
X98049989Y-98500011D01*
%TO.N,/ENC2*%
X100000000Y-96500000D02*
X101793693Y-96500000D01*
X117975489Y-93524511D02*
X118500000Y-93000000D01*
X118565332Y-86234668D02*
X120400000Y-84400000D01*
X101793693Y-96500000D02*
X104769182Y-93524511D01*
X118565332Y-90065332D02*
X118565332Y-86234668D01*
X104769182Y-93524511D02*
X117975489Y-93524511D01*
%TO.N,/ENC1*%
X101300000Y-88500000D02*
X105453904Y-88500000D01*
X110228415Y-83725489D02*
X124950489Y-83725489D01*
X98000000Y-88500000D02*
X98950000Y-88500000D01*
X99500000Y-89050000D02*
X100750000Y-89050000D01*
X100750000Y-89050000D02*
X101300000Y-88500000D01*
X98950000Y-88500000D02*
X99500000Y-89050000D01*
X105453904Y-88500000D02*
X110228415Y-83725489D01*
X124950489Y-83725489D02*
X125625000Y-84400000D01*
%TO.N,/MODE*%
X98325500Y-99000000D02*
X99000000Y-98325500D01*
X98325500Y-99000000D02*
X93500000Y-99000000D01*
X92931887Y-98431887D02*
X92456408Y-98431887D01*
X93500000Y-99000000D02*
X92931887Y-98431887D01*
%TO.N,/SDA*%
X108637011Y-76325978D02*
X108637011Y-76650000D01*
X113500000Y-80000000D02*
X115500000Y-82000000D01*
X109875969Y-79624031D02*
X107124031Y-79624031D01*
X110500000Y-80000000D02*
X110000000Y-79500000D01*
X106737500Y-79237500D02*
X106737500Y-76262500D01*
X106737500Y-76262500D02*
X107000000Y-76000000D01*
X117500000Y-86000000D02*
X116000000Y-84500000D01*
X110500000Y-80000000D02*
X113500000Y-80000000D01*
X107000000Y-76000000D02*
X108311033Y-76000000D01*
X107124031Y-79624031D02*
X106737500Y-79237500D01*
X116000000Y-84500000D02*
X115500000Y-84500000D01*
X108311033Y-76000000D02*
X108637011Y-76325978D01*
X110000000Y-79500000D02*
X109875969Y-79624031D01*
%TO.N,/LED2*%
X81600000Y-84500000D02*
X81100000Y-85000000D01*
X84500000Y-78500000D02*
X88500000Y-82500000D01*
X89000000Y-84500000D02*
X81600000Y-84500000D01*
X81500000Y-78500000D02*
X84500000Y-78500000D01*
%TO.N,/SCL*%
X113000000Y-88000000D02*
X113750000Y-87250000D01*
X110500000Y-78000000D02*
X110500000Y-77862989D01*
X111500000Y-88000000D02*
X113000000Y-88000000D01*
X101285489Y-91748533D02*
X101285489Y-89190489D01*
X108200000Y-101300000D02*
X109500000Y-100000000D01*
X99675000Y-93359022D02*
X101285489Y-91748533D01*
X101475978Y-89000000D02*
X106000000Y-89000000D01*
X110500000Y-77862989D02*
X109287011Y-76650000D01*
X107000000Y-90000000D02*
X109500000Y-90000000D01*
X106000000Y-89000000D02*
X107000000Y-90000000D01*
X98400000Y-100000000D02*
X99700000Y-101300000D01*
X99675000Y-93600000D02*
X99675000Y-93359022D01*
X99700000Y-101300000D02*
X108200000Y-101300000D01*
X114500000Y-87000000D02*
X114500000Y-84500000D01*
X111000000Y-88500000D02*
X111500000Y-88000000D01*
X113750000Y-87250000D02*
X114250000Y-87250000D01*
X92460000Y-101900000D02*
X94360000Y-100000000D01*
X101285489Y-89190489D02*
X101475978Y-89000000D01*
X114250000Y-87250000D02*
X114500000Y-87000000D01*
X94360000Y-100000000D02*
X98400000Y-100000000D01*
X109500000Y-90000000D02*
X111000000Y-88500000D01*
%TO.N,/ADC*%
X81100000Y-81900000D02*
X82874511Y-83674511D01*
X91674511Y-83674511D02*
X94500000Y-86500000D01*
X80325500Y-82674500D02*
X80325500Y-93500000D01*
X82874511Y-83674511D02*
X91674511Y-83674511D01*
X81100000Y-81900000D02*
X80325500Y-82674500D01*
%TO.N,/SYS_SWDCLK*%
X104799520Y-96700480D02*
X107000000Y-94500000D01*
X104000000Y-85500000D02*
X105349000Y-85500000D01*
X109500000Y-88000000D02*
X107000000Y-88000000D01*
X105349000Y-85500000D02*
X105674500Y-85825500D01*
X100000480Y-100900480D02*
X103549520Y-100900480D01*
X103549520Y-100900480D02*
X104799520Y-99650480D01*
X107000000Y-88000000D02*
X106500000Y-88500000D01*
X104799520Y-99650480D02*
X104799520Y-96700480D01*
X92500000Y-99500000D02*
X98600000Y-99500000D01*
X98600000Y-99500000D02*
X100000480Y-100900480D01*
X87000000Y-94000000D02*
X92500000Y-99500000D01*
%TO.N,/SYS_SWDIO*%
X99150000Y-86800000D02*
X99850000Y-87500000D01*
X99850000Y-87500000D02*
X100000000Y-87500000D01*
X96450000Y-86800000D02*
X99150000Y-86800000D01*
X94250000Y-89000000D02*
X96450000Y-86800000D01*
X90000000Y-89000000D02*
X94250000Y-89000000D01*
%TO.N,/Tx*%
X89000000Y-87500000D02*
X91000000Y-85500000D01*
X84840000Y-98660000D02*
X86000000Y-97500000D01*
X87500000Y-87500000D02*
X89000000Y-87500000D01*
X84840000Y-101900000D02*
X84840000Y-98660000D01*
X86000000Y-97500000D02*
X86000000Y-94500000D01*
%TO.N,/Rx*%
X81000000Y-91000000D02*
X81000000Y-99500000D01*
X86000000Y-86000000D02*
X81000000Y-91000000D01*
X89000000Y-86000000D02*
X86000000Y-86000000D01*
X90000000Y-85000000D02*
X89000000Y-86000000D01*
%TO.N,/DISP_0*%
X91174511Y-81174511D02*
X91174511Y-82825489D01*
X93500000Y-77500000D02*
X93500000Y-80500000D01*
X90000000Y-80000000D02*
X91174511Y-81174511D01*
X91000000Y-83000000D02*
X93500000Y-80500000D01*
X79240000Y-77500000D02*
X93500000Y-77500000D01*
X78300000Y-78440000D02*
X79240000Y-77500000D01*
%TO.N,/BUTTON1*%
X120975489Y-91975489D02*
X123500000Y-94500000D01*
X101498758Y-92511079D02*
X106212057Y-92511079D01*
X106747647Y-91975489D02*
X120975489Y-91975489D01*
X106212057Y-92511079D02*
X106747647Y-91975489D01*
%TO.N,/BUTTON2*%
X102453904Y-85500000D02*
X105953904Y-82000000D01*
X97631385Y-86074020D02*
X98205405Y-85500000D01*
X105953904Y-82000000D02*
X113500000Y-82000000D01*
X98205405Y-85500000D02*
X102453904Y-85500000D01*
%TO.N,/DISP_D*%
X103896096Y-82000000D02*
X104675000Y-82000000D01*
X101600000Y-83550000D02*
X102346096Y-83550000D01*
X102346096Y-83550000D02*
X103896096Y-82000000D01*
%TO.N,/DISP_1*%
X98500000Y-78000000D02*
X98500000Y-81000000D01*
X99000000Y-76000000D02*
X99000000Y-77500000D01*
X99000000Y-77500000D02*
X98500000Y-78000000D01*
X98000000Y-81500000D02*
X97000000Y-81500000D01*
X98500000Y-81000000D02*
X98000000Y-81500000D01*
%TO.N,/DISP_2*%
X101000000Y-81500000D02*
X101000000Y-77612500D01*
X101000000Y-77612500D02*
X102250000Y-76362500D01*
%TO.N,/DISP_A*%
X93250000Y-75225000D02*
X93825000Y-75800000D01*
X93250000Y-73750000D02*
X93250000Y-75225000D01*
X83520000Y-80980000D02*
X84500000Y-80000000D01*
X90000000Y-82000000D02*
X90500000Y-82000000D01*
X78300000Y-80980000D02*
X83520000Y-80980000D01*
X86500000Y-78500000D02*
X90000000Y-82000000D01*
%TO.N,Net-(Q6-Pad3)*%
X123000000Y-81000000D02*
X120400000Y-78400000D01*
X120400000Y-78400000D02*
X118400000Y-78400000D01*
%TO.N,Net-(R6-Pad1)*%
X108875000Y-92750000D02*
X114625000Y-92750000D01*
%TO.N,Net-(R11-Pad2)*%
X120500000Y-81000000D02*
X120500000Y-81275000D01*
%TO.N,/DISP_C*%
X102600000Y-84250000D02*
X102600000Y-84300000D01*
X103800000Y-83050000D02*
X102600000Y-84250000D01*
X109575000Y-86650000D02*
X110500000Y-85725000D01*
X104850000Y-84100000D02*
X106053888Y-84100000D01*
X108850000Y-86650000D02*
X109575000Y-86650000D01*
X106053888Y-84100000D02*
X107376944Y-85423056D01*
%TO.N,/DISP_E*%
X95375489Y-87174511D02*
X96700000Y-85850000D01*
X89448114Y-88004128D02*
X90452242Y-87000000D01*
X90452242Y-87000000D02*
X93350000Y-87000000D01*
X93524511Y-87174511D02*
X95375489Y-87174511D01*
X96700000Y-85850000D02*
X96700000Y-85050000D01*
X93350000Y-87000000D02*
X93524511Y-87174511D01*
%TO.N,/DISP_DP*%
X100350000Y-86900000D02*
X99750000Y-86300000D01*
X104000000Y-86900000D02*
X100350000Y-86900000D01*
%TO.N,/DISP_B*%
X76900000Y-75200000D02*
X76900000Y-79584188D01*
X79981883Y-74600000D02*
X77500000Y-74600000D01*
X100600000Y-72300000D02*
X82281883Y-72300000D01*
X76900000Y-79584188D02*
X76982906Y-79667094D01*
X105350000Y-77050000D02*
X100600000Y-72300000D01*
X79981883Y-74600000D02*
X82281883Y-72300000D01*
X77500000Y-74600000D02*
X76900000Y-75200000D01*
%TO.N,/DISP_F*%
X89325489Y-83174511D02*
X89500000Y-83000000D01*
X95750000Y-77550000D02*
X95750000Y-73625000D01*
X84000000Y-83000000D02*
X84174511Y-83174511D01*
X84174511Y-83174511D02*
X89325489Y-83174511D01*
%TO.N,Net-(U2-Pad11)*%
X94690000Y-77940000D02*
X92550000Y-75800000D01*
X92550000Y-75800000D02*
X92175000Y-75800000D01*
X94690000Y-79285000D02*
X94690000Y-77940000D01*
%TO.N,Net-(U2-Pad4)*%
X103750000Y-98900000D02*
X103750000Y-98950000D01*
X99770000Y-90715000D02*
X97017453Y-93467547D01*
X97017453Y-93467547D02*
X97017453Y-95827218D01*
X97017453Y-95827218D02*
X98364746Y-97174511D01*
X102024511Y-97174511D02*
X103750000Y-98900000D01*
X105650000Y-99250000D02*
X108350000Y-99250000D01*
X98364746Y-97174511D02*
X102024511Y-97174511D01*
%TO.N,Net-(U2-Pad2)*%
X100474511Y-82174511D02*
X101279393Y-82174511D01*
X94690000Y-89513888D02*
X96051944Y-88151944D01*
X100350000Y-82050000D02*
X100474511Y-82174511D01*
X96900000Y-83850000D02*
X98700000Y-82050000D01*
X98700000Y-82050000D02*
X100350000Y-82050000D01*
X94690000Y-90715000D02*
X94690000Y-89513888D01*
X101703904Y-81750000D02*
X103100000Y-81750000D01*
X101279393Y-82174511D02*
X101703904Y-81750000D01*
%TO.N,Net-(U2-Pad1)*%
X92150000Y-90715000D02*
X90965000Y-90715000D01*
X90965000Y-90715000D02*
X90050000Y-89800000D01*
X88075000Y-89800000D02*
X87125000Y-88850000D01*
X90050000Y-89800000D02*
X88075000Y-89800000D01*
%TO.N,Net-(U2-Pad10)*%
X97230000Y-76130000D02*
X97230000Y-79285000D01*
X96600000Y-75500000D02*
X97230000Y-76130000D01*
%TO.N,Net-(U2-Pad3)*%
X100803904Y-87650000D02*
X103000000Y-87650000D01*
X97230000Y-90715000D02*
X97230000Y-88316096D01*
X98840495Y-87825489D02*
X99207503Y-88192497D01*
X97230000Y-88316096D02*
X97720607Y-87825489D01*
X97720607Y-87825489D02*
X98840495Y-87825489D01*
X99207503Y-88192497D02*
X100261407Y-88192497D01*
X100261407Y-88192497D02*
X100803904Y-87650000D01*
%TD*%
%TA.AperFunction,Conductor*%
%TO.N,GND*%
G36*
X128015886Y-69028002D02*
G01*
X128062379Y-69081658D01*
X128072483Y-69151932D01*
X128053438Y-69202624D01*
X128041874Y-69220431D01*
X128037613Y-69228118D01*
X127922655Y-69474647D01*
X127919504Y-69482857D01*
X127839978Y-69742977D01*
X127837999Y-69751547D01*
X127795315Y-70021044D01*
X127794601Y-70028128D01*
X127792060Y-70086331D01*
X127792000Y-70089083D01*
X127792000Y-70927885D01*
X127796475Y-70943124D01*
X127797865Y-70944329D01*
X127805548Y-70946000D01*
X129928000Y-70946000D01*
X129996121Y-70966002D01*
X130042614Y-71019658D01*
X130054000Y-71072000D01*
X130054000Y-74174685D01*
X130057886Y-74187921D01*
X130072345Y-74189894D01*
X130248453Y-74162001D01*
X130257023Y-74160022D01*
X130517143Y-74080496D01*
X130525353Y-74077345D01*
X130771882Y-73962387D01*
X130779569Y-73958126D01*
X130797376Y-73946562D01*
X130865401Y-73926236D01*
X130933616Y-73945915D01*
X130980364Y-73999349D01*
X130992000Y-74052235D01*
X130992000Y-86615500D01*
X130971998Y-86683621D01*
X130918342Y-86730114D01*
X130866000Y-86741500D01*
X128451866Y-86741500D01*
X128389684Y-86748255D01*
X128253295Y-86799385D01*
X128136739Y-86886739D01*
X128049385Y-87003295D01*
X127998255Y-87139684D01*
X127991500Y-87201866D01*
X127991500Y-90798134D01*
X127998255Y-90860316D01*
X128049385Y-90996705D01*
X128136739Y-91113261D01*
X128253295Y-91200615D01*
X128389684Y-91251745D01*
X128451866Y-91258500D01*
X130866000Y-91258500D01*
X130934121Y-91278502D01*
X130980614Y-91332158D01*
X130992000Y-91384500D01*
X130992000Y-99447765D01*
X130971998Y-99515886D01*
X130918342Y-99562379D01*
X130848068Y-99572483D01*
X130797376Y-99553438D01*
X130779569Y-99541874D01*
X130771882Y-99537613D01*
X130525353Y-99422655D01*
X130517143Y-99419504D01*
X130257023Y-99339978D01*
X130248453Y-99337999D01*
X130071894Y-99310034D01*
X130058211Y-99311802D01*
X130054000Y-99325774D01*
X130054000Y-102428000D01*
X130033998Y-102496121D01*
X129980342Y-102542614D01*
X129928000Y-102554000D01*
X129672000Y-102554000D01*
X129603879Y-102533998D01*
X129557386Y-102480342D01*
X129546000Y-102428000D01*
X129546000Y-99325315D01*
X129542114Y-99312079D01*
X129527655Y-99310106D01*
X129351547Y-99337999D01*
X129342977Y-99339978D01*
X129082857Y-99419504D01*
X129074647Y-99422655D01*
X128828118Y-99537613D01*
X128820428Y-99541876D01*
X128592300Y-99690024D01*
X128585281Y-99695314D01*
X128379976Y-99873783D01*
X128373783Y-99879976D01*
X128195314Y-100085281D01*
X128190024Y-100092300D01*
X128041876Y-100320428D01*
X128037611Y-100328122D01*
X128015319Y-100375928D01*
X127968403Y-100429213D01*
X127900126Y-100448675D01*
X127832166Y-100428134D01*
X127827111Y-100424496D01*
X127823303Y-100420695D01*
X127803519Y-100408500D01*
X127678968Y-100331725D01*
X127678966Y-100331724D01*
X127672738Y-100327885D01*
X127592995Y-100301436D01*
X127511389Y-100274368D01*
X127511387Y-100274368D01*
X127504861Y-100272203D01*
X127498025Y-100271503D01*
X127498022Y-100271502D01*
X127454969Y-100267091D01*
X127400400Y-100261500D01*
X126859500Y-100261500D01*
X126791379Y-100241498D01*
X126744886Y-100187842D01*
X126733500Y-100135500D01*
X126733500Y-99724594D01*
X126753502Y-99656473D01*
X126770405Y-99635499D01*
X127720499Y-98685405D01*
X127782811Y-98651379D01*
X127809594Y-98648500D01*
X127865487Y-98648500D01*
X127871939Y-98647128D01*
X127871944Y-98647128D01*
X127958888Y-98628647D01*
X128052288Y-98608794D01*
X128058319Y-98606109D01*
X128220722Y-98533803D01*
X128220724Y-98533802D01*
X128226752Y-98531118D01*
X128234452Y-98525524D01*
X128282157Y-98490864D01*
X128381253Y-98418866D01*
X128449678Y-98342872D01*
X128504621Y-98281852D01*
X128504622Y-98281851D01*
X128509040Y-98276944D01*
X128598081Y-98122721D01*
X128601223Y-98117279D01*
X128601224Y-98117278D01*
X128604527Y-98111556D01*
X128663542Y-97929928D01*
X128669282Y-97875321D01*
X128682814Y-97746565D01*
X128683504Y-97740000D01*
X128678957Y-97696734D01*
X128664232Y-97556635D01*
X128664232Y-97556633D01*
X128663542Y-97550072D01*
X128604527Y-97368444D01*
X128587207Y-97338444D01*
X128548911Y-97272115D01*
X128509040Y-97203056D01*
X128487177Y-97178774D01*
X128385675Y-97066045D01*
X128385674Y-97066044D01*
X128381253Y-97061134D01*
X128226752Y-96948882D01*
X128220724Y-96946198D01*
X128220722Y-96946197D01*
X128058319Y-96873891D01*
X128058318Y-96873891D01*
X128052288Y-96871206D01*
X127958888Y-96851353D01*
X127871944Y-96832872D01*
X127871939Y-96832872D01*
X127865487Y-96831500D01*
X127674513Y-96831500D01*
X127668061Y-96832872D01*
X127668056Y-96832872D01*
X127581112Y-96851353D01*
X127487712Y-96871206D01*
X127481682Y-96873891D01*
X127481681Y-96873891D01*
X127319278Y-96946197D01*
X127319276Y-96946198D01*
X127313248Y-96948882D01*
X127229313Y-97009865D01*
X127208561Y-97024942D01*
X127141694Y-97048800D01*
X127072542Y-97032720D01*
X127023062Y-96981806D01*
X127008500Y-96923006D01*
X127008500Y-95951866D01*
X127001745Y-95889684D01*
X126950615Y-95753295D01*
X126863261Y-95636739D01*
X126746705Y-95549385D01*
X126610316Y-95498255D01*
X126548134Y-95491500D01*
X124451866Y-95491500D01*
X124389684Y-95498255D01*
X124253295Y-95549385D01*
X124136739Y-95636739D01*
X124049385Y-95753295D01*
X123998255Y-95889684D01*
X123991500Y-95951866D01*
X123991500Y-98048134D01*
X123998255Y-98110316D01*
X124049385Y-98246705D01*
X124136739Y-98363261D01*
X124253295Y-98450615D01*
X124389684Y-98501745D01*
X124451866Y-98508500D01*
X125801405Y-98508500D01*
X125869526Y-98528502D01*
X125916019Y-98582158D01*
X125926123Y-98652432D01*
X125896629Y-98717012D01*
X125890500Y-98723595D01*
X125707747Y-98906348D01*
X125699461Y-98913888D01*
X125692982Y-98918000D01*
X125687557Y-98923777D01*
X125646357Y-98967651D01*
X125643602Y-98970493D01*
X125623865Y-98990230D01*
X125621385Y-98993427D01*
X125613682Y-99002447D01*
X125583414Y-99034679D01*
X125579595Y-99041625D01*
X125579593Y-99041628D01*
X125573652Y-99052434D01*
X125562801Y-99068953D01*
X125550386Y-99084959D01*
X125547241Y-99092228D01*
X125547238Y-99092232D01*
X125532826Y-99125537D01*
X125527609Y-99136187D01*
X125506305Y-99174940D01*
X125504334Y-99182615D01*
X125504334Y-99182616D01*
X125501267Y-99194562D01*
X125494863Y-99213266D01*
X125486819Y-99231855D01*
X125485580Y-99239678D01*
X125485577Y-99239688D01*
X125479901Y-99275524D01*
X125477495Y-99287144D01*
X125471093Y-99312079D01*
X125466500Y-99329970D01*
X125466500Y-99350224D01*
X125464949Y-99369934D01*
X125461780Y-99389943D01*
X125462526Y-99397835D01*
X125465941Y-99433961D01*
X125466500Y-99445819D01*
X125466500Y-100135500D01*
X125446498Y-100203621D01*
X125392842Y-100250114D01*
X125340500Y-100261500D01*
X124799600Y-100261500D01*
X124796354Y-100261837D01*
X124796350Y-100261837D01*
X124700692Y-100271762D01*
X124700688Y-100271763D01*
X124693834Y-100272474D01*
X124687298Y-100274655D01*
X124687296Y-100274655D01*
X124641518Y-100289928D01*
X124526054Y-100328450D01*
X124375652Y-100421522D01*
X124370479Y-100426704D01*
X124329413Y-100467842D01*
X124250695Y-100546697D01*
X124246855Y-100552927D01*
X124246854Y-100552928D01*
X124162477Y-100689813D01*
X124157885Y-100697262D01*
X124147179Y-100729541D01*
X124104445Y-100858381D01*
X124102203Y-100865139D01*
X124101503Y-100871975D01*
X124101502Y-100871978D01*
X124097927Y-100906870D01*
X124091500Y-100969600D01*
X124091500Y-102170400D01*
X124091837Y-102173646D01*
X124091837Y-102173650D01*
X124101752Y-102269206D01*
X124102474Y-102276166D01*
X124158450Y-102443946D01*
X124251522Y-102594348D01*
X124376697Y-102719305D01*
X124382927Y-102723145D01*
X124382928Y-102723146D01*
X124520288Y-102807816D01*
X124527262Y-102812115D01*
X124558928Y-102822618D01*
X124688611Y-102865632D01*
X124688613Y-102865632D01*
X124695139Y-102867797D01*
X124701975Y-102868497D01*
X124701978Y-102868498D01*
X124745031Y-102872909D01*
X124799600Y-102878500D01*
X127400400Y-102878500D01*
X127403646Y-102878163D01*
X127403650Y-102878163D01*
X127499308Y-102868238D01*
X127499312Y-102868237D01*
X127506166Y-102867526D01*
X127512708Y-102865343D01*
X127512710Y-102865343D01*
X127626124Y-102827505D01*
X127697074Y-102824920D01*
X127758158Y-102861103D01*
X127789983Y-102924567D01*
X127792001Y-102947028D01*
X127792001Y-103410915D01*
X127792061Y-103413672D01*
X127794601Y-103471855D01*
X127795317Y-103478972D01*
X127837999Y-103748453D01*
X127839978Y-103757023D01*
X127919504Y-104017143D01*
X127922655Y-104025353D01*
X128037613Y-104271882D01*
X128041874Y-104279569D01*
X128053438Y-104297376D01*
X128073764Y-104365401D01*
X128054085Y-104433616D01*
X128000651Y-104480364D01*
X127947765Y-104492000D01*
X80052235Y-104492000D01*
X79984114Y-104471998D01*
X79937621Y-104418342D01*
X79927517Y-104348068D01*
X79946562Y-104297376D01*
X79958126Y-104279569D01*
X79962387Y-104271882D01*
X80077345Y-104025353D01*
X80080496Y-104017143D01*
X80160022Y-103757023D01*
X80162001Y-103748453D01*
X80204685Y-103478956D01*
X80205399Y-103471872D01*
X80207940Y-103413669D01*
X80208000Y-103410917D01*
X80208000Y-102572115D01*
X80203525Y-102556876D01*
X80202135Y-102555671D01*
X80194452Y-102554000D01*
X78072000Y-102554000D01*
X78003879Y-102533998D01*
X77957386Y-102480342D01*
X77946000Y-102428000D01*
X77946000Y-102027885D01*
X78454000Y-102027885D01*
X78458475Y-102043124D01*
X78459865Y-102044329D01*
X78467548Y-102046000D01*
X80189884Y-102046000D01*
X80205123Y-102041525D01*
X80206328Y-102040135D01*
X80207999Y-102032452D01*
X80207999Y-101189086D01*
X80207939Y-101186328D01*
X80205399Y-101128145D01*
X80204683Y-101121028D01*
X80162001Y-100851547D01*
X80160022Y-100842977D01*
X80080496Y-100582857D01*
X80077345Y-100574647D01*
X79962387Y-100328118D01*
X79958124Y-100320428D01*
X79809976Y-100092300D01*
X79804686Y-100085281D01*
X79626217Y-99879976D01*
X79620024Y-99873783D01*
X79414719Y-99695314D01*
X79407700Y-99690024D01*
X79179572Y-99541876D01*
X79171882Y-99537613D01*
X78925353Y-99422655D01*
X78917143Y-99419504D01*
X78657023Y-99339978D01*
X78648453Y-99337999D01*
X78471894Y-99310034D01*
X78458211Y-99311802D01*
X78454000Y-99325774D01*
X78454000Y-102027885D01*
X77946000Y-102027885D01*
X77946000Y-99325315D01*
X77942114Y-99312079D01*
X77927655Y-99310106D01*
X77751547Y-99337999D01*
X77742977Y-99339978D01*
X77482857Y-99419504D01*
X77474647Y-99422655D01*
X77228118Y-99537613D01*
X77220431Y-99541874D01*
X77202624Y-99553438D01*
X77134599Y-99573764D01*
X77066384Y-99554085D01*
X77019636Y-99500651D01*
X77008000Y-99447765D01*
X77008000Y-94600588D01*
X77028002Y-94532467D01*
X77081658Y-94485974D01*
X77151932Y-94475870D01*
X77216512Y-94505364D01*
X77229237Y-94518090D01*
X77343218Y-94649673D01*
X77350580Y-94656883D01*
X77514434Y-94792916D01*
X77522881Y-94798831D01*
X77706756Y-94906279D01*
X77716042Y-94910729D01*
X77915001Y-94986703D01*
X77924899Y-94989579D01*
X78028250Y-95010606D01*
X78042299Y-95009410D01*
X78046000Y-94999065D01*
X78046000Y-91012000D01*
X78066002Y-90943879D01*
X78119658Y-90897386D01*
X78172000Y-90886000D01*
X78428000Y-90886000D01*
X78496121Y-90906002D01*
X78542614Y-90959658D01*
X78554000Y-91012000D01*
X78554000Y-94998517D01*
X78558064Y-95012359D01*
X78571478Y-95014393D01*
X78578184Y-95013534D01*
X78588262Y-95011392D01*
X78792255Y-94950191D01*
X78801842Y-94946433D01*
X78993095Y-94852739D01*
X79001945Y-94847464D01*
X79175328Y-94723792D01*
X79183200Y-94717139D01*
X79334052Y-94566812D01*
X79340730Y-94558965D01*
X79465003Y-94386020D01*
X79470310Y-94377188D01*
X79540702Y-94234763D01*
X79588816Y-94182557D01*
X79657517Y-94164650D01*
X79727720Y-94188655D01*
X79863406Y-94287237D01*
X79868748Y-94291118D01*
X79874776Y-94293802D01*
X79874778Y-94293803D01*
X80037181Y-94366109D01*
X80043212Y-94368794D01*
X80124254Y-94386020D01*
X80223556Y-94407128D01*
X80223561Y-94407128D01*
X80230013Y-94408500D01*
X80240500Y-94408500D01*
X80242665Y-94409136D01*
X80243182Y-94409190D01*
X80243172Y-94409285D01*
X80308621Y-94428502D01*
X80355114Y-94482158D01*
X80366500Y-94534500D01*
X80366500Y-98797476D01*
X80346498Y-98865597D01*
X80334142Y-98881779D01*
X80260960Y-98963056D01*
X80204344Y-99061117D01*
X80171505Y-99117997D01*
X80165473Y-99128444D01*
X80106458Y-99310072D01*
X80105768Y-99316633D01*
X80105768Y-99316635D01*
X80090895Y-99458148D01*
X80086496Y-99500000D01*
X80087186Y-99506565D01*
X80103026Y-99657270D01*
X80106458Y-99689928D01*
X80165473Y-99871556D01*
X80168776Y-99877278D01*
X80168777Y-99877279D01*
X80183917Y-99903502D01*
X80260960Y-100036944D01*
X80265378Y-100041851D01*
X80265379Y-100041852D01*
X80352149Y-100138220D01*
X80388747Y-100178866D01*
X80468580Y-100236868D01*
X80521269Y-100275149D01*
X80543248Y-100291118D01*
X80549276Y-100293802D01*
X80549278Y-100293803D01*
X80657558Y-100342012D01*
X80717712Y-100368794D01*
X80808012Y-100387988D01*
X80898056Y-100407128D01*
X80898061Y-100407128D01*
X80904513Y-100408500D01*
X81065989Y-100408500D01*
X81134110Y-100428502D01*
X81180603Y-100482158D01*
X81191989Y-100534500D01*
X81191989Y-100544831D01*
X81171987Y-100612952D01*
X81141557Y-100645655D01*
X81086739Y-100686739D01*
X80999385Y-100803295D01*
X80948255Y-100939684D01*
X80941500Y-101001866D01*
X80941500Y-102798134D01*
X80948255Y-102860316D01*
X80999385Y-102996705D01*
X81086739Y-103113261D01*
X81203295Y-103200615D01*
X81339684Y-103251745D01*
X81401866Y-103258500D01*
X83198134Y-103258500D01*
X83260316Y-103251745D01*
X83396705Y-103200615D01*
X83513261Y-103113261D01*
X83600615Y-102996705D01*
X83622799Y-102937529D01*
X83644598Y-102879382D01*
X83687240Y-102822618D01*
X83753802Y-102797918D01*
X83823150Y-102813126D01*
X83857817Y-102841114D01*
X83886250Y-102873938D01*
X84058126Y-103016632D01*
X84251000Y-103129338D01*
X84459692Y-103209030D01*
X84464760Y-103210061D01*
X84464763Y-103210062D01*
X84572017Y-103231883D01*
X84678597Y-103253567D01*
X84683772Y-103253757D01*
X84683774Y-103253757D01*
X84896673Y-103261564D01*
X84896677Y-103261564D01*
X84901837Y-103261753D01*
X84906957Y-103261097D01*
X84906959Y-103261097D01*
X85118288Y-103234025D01*
X85118289Y-103234025D01*
X85123416Y-103233368D01*
X85128366Y-103231883D01*
X85332429Y-103170661D01*
X85332434Y-103170659D01*
X85337384Y-103169174D01*
X85537994Y-103070896D01*
X85719860Y-102941173D01*
X85878096Y-102783489D01*
X85921741Y-102722751D01*
X86008453Y-102602077D01*
X86009776Y-102603028D01*
X86056645Y-102559857D01*
X86126580Y-102547625D01*
X86192026Y-102575144D01*
X86219875Y-102606994D01*
X86279987Y-102705088D01*
X86426250Y-102873938D01*
X86598126Y-103016632D01*
X86791000Y-103129338D01*
X86999692Y-103209030D01*
X87004760Y-103210061D01*
X87004763Y-103210062D01*
X87112017Y-103231883D01*
X87218597Y-103253567D01*
X87223772Y-103253757D01*
X87223774Y-103253757D01*
X87436673Y-103261564D01*
X87436677Y-103261564D01*
X87441837Y-103261753D01*
X87446957Y-103261097D01*
X87446959Y-103261097D01*
X87658288Y-103234025D01*
X87658289Y-103234025D01*
X87663416Y-103233368D01*
X87668366Y-103231883D01*
X87872429Y-103170661D01*
X87872434Y-103170659D01*
X87877384Y-103169174D01*
X88077994Y-103070896D01*
X88259860Y-102941173D01*
X88418096Y-102783489D01*
X88461741Y-102722751D01*
X88548453Y-102602077D01*
X88549776Y-102603028D01*
X88596645Y-102559857D01*
X88666580Y-102547625D01*
X88732026Y-102575144D01*
X88759875Y-102606994D01*
X88819987Y-102705088D01*
X88966250Y-102873938D01*
X89138126Y-103016632D01*
X89331000Y-103129338D01*
X89539692Y-103209030D01*
X89544760Y-103210061D01*
X89544763Y-103210062D01*
X89652017Y-103231883D01*
X89758597Y-103253567D01*
X89763772Y-103253757D01*
X89763774Y-103253757D01*
X89976673Y-103261564D01*
X89976677Y-103261564D01*
X89981837Y-103261753D01*
X89986957Y-103261097D01*
X89986959Y-103261097D01*
X90198288Y-103234025D01*
X90198289Y-103234025D01*
X90203416Y-103233368D01*
X90208366Y-103231883D01*
X90412429Y-103170661D01*
X90412434Y-103170659D01*
X90417384Y-103169174D01*
X90617994Y-103070896D01*
X90799860Y-102941173D01*
X90958096Y-102783489D01*
X91001741Y-102722751D01*
X91088453Y-102602077D01*
X91089776Y-102603028D01*
X91136645Y-102559857D01*
X91206580Y-102547625D01*
X91272026Y-102575144D01*
X91299875Y-102606994D01*
X91359987Y-102705088D01*
X91506250Y-102873938D01*
X91678126Y-103016632D01*
X91871000Y-103129338D01*
X92079692Y-103209030D01*
X92084760Y-103210061D01*
X92084763Y-103210062D01*
X92192017Y-103231883D01*
X92298597Y-103253567D01*
X92303772Y-103253757D01*
X92303774Y-103253757D01*
X92516673Y-103261564D01*
X92516677Y-103261564D01*
X92521837Y-103261753D01*
X92526957Y-103261097D01*
X92526959Y-103261097D01*
X92738288Y-103234025D01*
X92738289Y-103234025D01*
X92743416Y-103233368D01*
X92748366Y-103231883D01*
X92952429Y-103170661D01*
X92952434Y-103170659D01*
X92957384Y-103169174D01*
X93157994Y-103070896D01*
X93339860Y-102941173D01*
X93498096Y-102783489D01*
X93541741Y-102722751D01*
X93628453Y-102602077D01*
X93629776Y-102603028D01*
X93676645Y-102559857D01*
X93746580Y-102547625D01*
X93812026Y-102575144D01*
X93839875Y-102606994D01*
X93899987Y-102705088D01*
X94046250Y-102873938D01*
X94218126Y-103016632D01*
X94411000Y-103129338D01*
X94619692Y-103209030D01*
X94624760Y-103210061D01*
X94624763Y-103210062D01*
X94732017Y-103231883D01*
X94838597Y-103253567D01*
X94843772Y-103253757D01*
X94843774Y-103253757D01*
X95056673Y-103261564D01*
X95056677Y-103261564D01*
X95061837Y-103261753D01*
X95066957Y-103261097D01*
X95066959Y-103261097D01*
X95278288Y-103234025D01*
X95278289Y-103234025D01*
X95283416Y-103233368D01*
X95288366Y-103231883D01*
X95492429Y-103170661D01*
X95492434Y-103170659D01*
X95497384Y-103169174D01*
X95697994Y-103070896D01*
X95879860Y-102941173D01*
X96038096Y-102783489D01*
X96081741Y-102722751D01*
X96165435Y-102606277D01*
X96168453Y-102602077D01*
X96172790Y-102593303D01*
X96265136Y-102406453D01*
X96265137Y-102406451D01*
X96267430Y-102401811D01*
X96305604Y-102276166D01*
X96330865Y-102193023D01*
X96330865Y-102193021D01*
X96332370Y-102188069D01*
X96335131Y-102167095D01*
X111672001Y-102167095D01*
X111672338Y-102173614D01*
X111682257Y-102269206D01*
X111685149Y-102282600D01*
X111736588Y-102436784D01*
X111742761Y-102449962D01*
X111828063Y-102587807D01*
X111837099Y-102599208D01*
X111951829Y-102713739D01*
X111963240Y-102722751D01*
X112101243Y-102807816D01*
X112114424Y-102813963D01*
X112268710Y-102865138D01*
X112282086Y-102868005D01*
X112376438Y-102877672D01*
X112382854Y-102878000D01*
X113407885Y-102878000D01*
X113423124Y-102873525D01*
X113424329Y-102872135D01*
X113426000Y-102864452D01*
X113426000Y-102859884D01*
X113934000Y-102859884D01*
X113938475Y-102875123D01*
X113939865Y-102876328D01*
X113947548Y-102877999D01*
X114977095Y-102877999D01*
X114983614Y-102877662D01*
X115079206Y-102867743D01*
X115092600Y-102864851D01*
X115246784Y-102813412D01*
X115259962Y-102807239D01*
X115397807Y-102721937D01*
X115409208Y-102712901D01*
X115523739Y-102598171D01*
X115532751Y-102586760D01*
X115617816Y-102448757D01*
X115623963Y-102435576D01*
X115675138Y-102281290D01*
X115678005Y-102267914D01*
X115687672Y-102173562D01*
X115688000Y-102167146D01*
X115688000Y-101842115D01*
X115683525Y-101826876D01*
X115682135Y-101825671D01*
X115674452Y-101824000D01*
X113952115Y-101824000D01*
X113936876Y-101828475D01*
X113935671Y-101829865D01*
X113934000Y-101837548D01*
X113934000Y-102859884D01*
X113426000Y-102859884D01*
X113426000Y-101842115D01*
X113421525Y-101826876D01*
X113420135Y-101825671D01*
X113412452Y-101824000D01*
X111690116Y-101824000D01*
X111674877Y-101828475D01*
X111673672Y-101829865D01*
X111672001Y-101837548D01*
X111672001Y-102167095D01*
X96335131Y-102167095D01*
X96361529Y-101966590D01*
X96362222Y-101938220D01*
X96363074Y-101903365D01*
X96363074Y-101903361D01*
X96363156Y-101900000D01*
X96344852Y-101677361D01*
X96290431Y-101460702D01*
X96201354Y-101255840D01*
X96156385Y-101186328D01*
X96082822Y-101072617D01*
X96082820Y-101072614D01*
X96080014Y-101068277D01*
X95929670Y-100903051D01*
X95897355Y-100877530D01*
X95873109Y-100858381D01*
X95832047Y-100800464D01*
X95828815Y-100729541D01*
X95864441Y-100668130D01*
X95927612Y-100635728D01*
X95951202Y-100633500D01*
X98085406Y-100633500D01*
X98153527Y-100653502D01*
X98174501Y-100670405D01*
X99196343Y-101692247D01*
X99203887Y-101700537D01*
X99208000Y-101707018D01*
X99213777Y-101712443D01*
X99257667Y-101753658D01*
X99260509Y-101756413D01*
X99280231Y-101776135D01*
X99283355Y-101778558D01*
X99283359Y-101778562D01*
X99283424Y-101778612D01*
X99292445Y-101786317D01*
X99324679Y-101816586D01*
X99331627Y-101820405D01*
X99331629Y-101820407D01*
X99342432Y-101826346D01*
X99358959Y-101837202D01*
X99368698Y-101844757D01*
X99368700Y-101844758D01*
X99374960Y-101849614D01*
X99415540Y-101867174D01*
X99426188Y-101872391D01*
X99450976Y-101886018D01*
X99464940Y-101893695D01*
X99472616Y-101895666D01*
X99472619Y-101895667D01*
X99484562Y-101898733D01*
X99503267Y-101905137D01*
X99521855Y-101913181D01*
X99529678Y-101914420D01*
X99529688Y-101914423D01*
X99565524Y-101920099D01*
X99577144Y-101922505D01*
X99608959Y-101930673D01*
X99619970Y-101933500D01*
X99640224Y-101933500D01*
X99659934Y-101935051D01*
X99679943Y-101938220D01*
X99687835Y-101937474D01*
X99706580Y-101935702D01*
X99723962Y-101934059D01*
X99735819Y-101933500D01*
X108121233Y-101933500D01*
X108132416Y-101934027D01*
X108139909Y-101935702D01*
X108147835Y-101935453D01*
X108147836Y-101935453D01*
X108207986Y-101933562D01*
X108211945Y-101933500D01*
X108239856Y-101933500D01*
X108243791Y-101933003D01*
X108243856Y-101932995D01*
X108255693Y-101932062D01*
X108287951Y-101931048D01*
X108291970Y-101930922D01*
X108299889Y-101930673D01*
X108319343Y-101925021D01*
X108338700Y-101921013D01*
X108350930Y-101919468D01*
X108350931Y-101919468D01*
X108358797Y-101918474D01*
X108366168Y-101915555D01*
X108366170Y-101915555D01*
X108399912Y-101902196D01*
X108411142Y-101898351D01*
X108445983Y-101888229D01*
X108445984Y-101888229D01*
X108453593Y-101886018D01*
X108460412Y-101881985D01*
X108460417Y-101881983D01*
X108471028Y-101875707D01*
X108488776Y-101867012D01*
X108507617Y-101859552D01*
X108543387Y-101833564D01*
X108553307Y-101827048D01*
X108584535Y-101808580D01*
X108584538Y-101808578D01*
X108591362Y-101804542D01*
X108605683Y-101790221D01*
X108620717Y-101777380D01*
X108622431Y-101776135D01*
X108637107Y-101765472D01*
X108665298Y-101731395D01*
X108673288Y-101722616D01*
X109098019Y-101297885D01*
X111672000Y-101297885D01*
X111676475Y-101313124D01*
X111677865Y-101314329D01*
X111685548Y-101316000D01*
X113407885Y-101316000D01*
X113423124Y-101311525D01*
X113424329Y-101310135D01*
X113426000Y-101302452D01*
X113426000Y-100280116D01*
X113421525Y-100264877D01*
X113420135Y-100263672D01*
X113412452Y-100262001D01*
X112382905Y-100262001D01*
X112376386Y-100262338D01*
X112280794Y-100272257D01*
X112267400Y-100275149D01*
X112113216Y-100326588D01*
X112100038Y-100332761D01*
X111962193Y-100418063D01*
X111950792Y-100427099D01*
X111836261Y-100541829D01*
X111827249Y-100553240D01*
X111742184Y-100691243D01*
X111736037Y-100704424D01*
X111684862Y-100858710D01*
X111681995Y-100872086D01*
X111672328Y-100966438D01*
X111672000Y-100972855D01*
X111672000Y-101297885D01*
X109098019Y-101297885D01*
X109450499Y-100945405D01*
X109512811Y-100911379D01*
X109539594Y-100908500D01*
X109595487Y-100908500D01*
X109601939Y-100907128D01*
X109601944Y-100907128D01*
X109688887Y-100888647D01*
X109782288Y-100868794D01*
X109788319Y-100866109D01*
X109950722Y-100793803D01*
X109950724Y-100793802D01*
X109956752Y-100791118D01*
X109973616Y-100778866D01*
X110015103Y-100748723D01*
X110111253Y-100678866D01*
X110120920Y-100668130D01*
X110234621Y-100541852D01*
X110234622Y-100541851D01*
X110239040Y-100536944D01*
X110313197Y-100408500D01*
X110331223Y-100377279D01*
X110331224Y-100377278D01*
X110334527Y-100371556D01*
X110393542Y-100189928D01*
X110396990Y-100157128D01*
X110412814Y-100006565D01*
X110413504Y-100000000D01*
X110405079Y-99919843D01*
X110394232Y-99816635D01*
X110394232Y-99816633D01*
X110393542Y-99810072D01*
X110334527Y-99628444D01*
X110239040Y-99463056D01*
X110212843Y-99433961D01*
X110131671Y-99343810D01*
X110100953Y-99279803D01*
X110109718Y-99209349D01*
X110155181Y-99154818D01*
X110225307Y-99133500D01*
X113185406Y-99133500D01*
X113253527Y-99153502D01*
X113274501Y-99170405D01*
X114151001Y-100046905D01*
X114185027Y-100109217D01*
X114179962Y-100180032D01*
X114137415Y-100236868D01*
X114070895Y-100261679D01*
X114061906Y-100262000D01*
X113952115Y-100262000D01*
X113936876Y-100266475D01*
X113935671Y-100267865D01*
X113934000Y-100275548D01*
X113934000Y-101297885D01*
X113938475Y-101313124D01*
X113939865Y-101314329D01*
X113947548Y-101316000D01*
X115669884Y-101316000D01*
X115685123Y-101311525D01*
X115686328Y-101310135D01*
X115687999Y-101302452D01*
X115687999Y-100972905D01*
X115687662Y-100966386D01*
X115678370Y-100876833D01*
X115691235Y-100807012D01*
X115739806Y-100755230D01*
X115752448Y-100748723D01*
X115923967Y-100672358D01*
X115994334Y-100662924D01*
X116058631Y-100693030D01*
X116096445Y-100753119D01*
X116094809Y-100827131D01*
X116084369Y-100858608D01*
X116082203Y-100865139D01*
X116081503Y-100871975D01*
X116081502Y-100871978D01*
X116077927Y-100906870D01*
X116071500Y-100969600D01*
X116071500Y-102170400D01*
X116071837Y-102173646D01*
X116071837Y-102173650D01*
X116081752Y-102269206D01*
X116082474Y-102276166D01*
X116138450Y-102443946D01*
X116231522Y-102594348D01*
X116356697Y-102719305D01*
X116362927Y-102723145D01*
X116362928Y-102723146D01*
X116500288Y-102807816D01*
X116507262Y-102812115D01*
X116538928Y-102822618D01*
X116668611Y-102865632D01*
X116668613Y-102865632D01*
X116675139Y-102867797D01*
X116681975Y-102868497D01*
X116681978Y-102868498D01*
X116725031Y-102872909D01*
X116779600Y-102878500D01*
X119380400Y-102878500D01*
X119383646Y-102878163D01*
X119383650Y-102878163D01*
X119479308Y-102868238D01*
X119479312Y-102868237D01*
X119486166Y-102867526D01*
X119492702Y-102865345D01*
X119492704Y-102865345D01*
X119624806Y-102821272D01*
X119653946Y-102811550D01*
X119804348Y-102718478D01*
X119809520Y-102713297D01*
X119812128Y-102711230D01*
X119877939Y-102684595D01*
X119947703Y-102697767D01*
X119968481Y-102711095D01*
X119983240Y-102722751D01*
X120121243Y-102807816D01*
X120134424Y-102813963D01*
X120288710Y-102865138D01*
X120302086Y-102868005D01*
X120396438Y-102877672D01*
X120402854Y-102878000D01*
X121427885Y-102878000D01*
X121443124Y-102873525D01*
X121444329Y-102872135D01*
X121446000Y-102864452D01*
X121446000Y-102859884D01*
X121954000Y-102859884D01*
X121958475Y-102875123D01*
X121959865Y-102876328D01*
X121967548Y-102877999D01*
X122997095Y-102877999D01*
X123003614Y-102877662D01*
X123099206Y-102867743D01*
X123112600Y-102864851D01*
X123266784Y-102813412D01*
X123279962Y-102807239D01*
X123417807Y-102721937D01*
X123429208Y-102712901D01*
X123543739Y-102598171D01*
X123552751Y-102586760D01*
X123637816Y-102448757D01*
X123643963Y-102435576D01*
X123695138Y-102281290D01*
X123698005Y-102267914D01*
X123707672Y-102173562D01*
X123708000Y-102167146D01*
X123708000Y-101842115D01*
X123703525Y-101826876D01*
X123702135Y-101825671D01*
X123694452Y-101824000D01*
X121972115Y-101824000D01*
X121956876Y-101828475D01*
X121955671Y-101829865D01*
X121954000Y-101837548D01*
X121954000Y-102859884D01*
X121446000Y-102859884D01*
X121446000Y-101297885D01*
X121954000Y-101297885D01*
X121958475Y-101313124D01*
X121959865Y-101314329D01*
X121967548Y-101316000D01*
X123689884Y-101316000D01*
X123705123Y-101311525D01*
X123706328Y-101310135D01*
X123707999Y-101302452D01*
X123707999Y-100972905D01*
X123707662Y-100966386D01*
X123697743Y-100870794D01*
X123694851Y-100857400D01*
X123643412Y-100703216D01*
X123637239Y-100690038D01*
X123551937Y-100552193D01*
X123542901Y-100540792D01*
X123428171Y-100426261D01*
X123416760Y-100417249D01*
X123278757Y-100332184D01*
X123265576Y-100326037D01*
X123111290Y-100274862D01*
X123097914Y-100271995D01*
X123003562Y-100262328D01*
X122997145Y-100262000D01*
X121972115Y-100262000D01*
X121956876Y-100266475D01*
X121955671Y-100267865D01*
X121954000Y-100275548D01*
X121954000Y-101297885D01*
X121446000Y-101297885D01*
X121446000Y-100280116D01*
X121441525Y-100264877D01*
X121440135Y-100263672D01*
X121419217Y-100259122D01*
X121419661Y-100257082D01*
X121368293Y-100241999D01*
X121321800Y-100188343D01*
X121311105Y-100122828D01*
X121312814Y-100106571D01*
X121312814Y-100106565D01*
X121313504Y-100100000D01*
X121307598Y-100043803D01*
X121294232Y-99916635D01*
X121294232Y-99916633D01*
X121293542Y-99910072D01*
X121234527Y-99728444D01*
X121139040Y-99563056D01*
X121130963Y-99554085D01*
X121015675Y-99426045D01*
X121015674Y-99426044D01*
X121011253Y-99421134D01*
X120887478Y-99331206D01*
X120862094Y-99312763D01*
X120862093Y-99312762D01*
X120856752Y-99308882D01*
X120850724Y-99306198D01*
X120850722Y-99306197D01*
X120688319Y-99233891D01*
X120688318Y-99233891D01*
X120682288Y-99231206D01*
X120584423Y-99210404D01*
X120501944Y-99192872D01*
X120501939Y-99192872D01*
X120495487Y-99191500D01*
X120304513Y-99191500D01*
X120298061Y-99192872D01*
X120298056Y-99192872D01*
X120215577Y-99210404D01*
X120117712Y-99231206D01*
X120111682Y-99233891D01*
X120111681Y-99233891D01*
X119949278Y-99306197D01*
X119949276Y-99306198D01*
X119943248Y-99308882D01*
X119937909Y-99312761D01*
X119937902Y-99312765D01*
X119931472Y-99317437D01*
X119857413Y-99341500D01*
X118231693Y-99341500D01*
X118192756Y-99335333D01*
X118188319Y-99333891D01*
X118182288Y-99331206D01*
X118175836Y-99329834D01*
X118175831Y-99329833D01*
X118001944Y-99292872D01*
X118001939Y-99292872D01*
X117995487Y-99291500D01*
X117804513Y-99291500D01*
X117798058Y-99292872D01*
X117798049Y-99292873D01*
X117770698Y-99298687D01*
X117699907Y-99293286D01*
X117643274Y-99250470D01*
X117618780Y-99183832D01*
X117618500Y-99175441D01*
X117618500Y-98246999D01*
X117635381Y-98183999D01*
X117641281Y-98173781D01*
X117672728Y-98119313D01*
X117691223Y-98087279D01*
X117691224Y-98087278D01*
X117694527Y-98081556D01*
X117706512Y-98044669D01*
X118992001Y-98044669D01*
X118992371Y-98051490D01*
X118997895Y-98102352D01*
X119001521Y-98117604D01*
X119046676Y-98238054D01*
X119055214Y-98253649D01*
X119131715Y-98355724D01*
X119144276Y-98368285D01*
X119246351Y-98444786D01*
X119261946Y-98453324D01*
X119382394Y-98498478D01*
X119397649Y-98502105D01*
X119448514Y-98507631D01*
X119455328Y-98508000D01*
X120227885Y-98508000D01*
X120243124Y-98503525D01*
X120244329Y-98502135D01*
X120246000Y-98494452D01*
X120246000Y-98489884D01*
X120754000Y-98489884D01*
X120758475Y-98505123D01*
X120759865Y-98506328D01*
X120767548Y-98507999D01*
X121544669Y-98507999D01*
X121551490Y-98507629D01*
X121602352Y-98502105D01*
X121617604Y-98498479D01*
X121738054Y-98453324D01*
X121753649Y-98444786D01*
X121855724Y-98368285D01*
X121868285Y-98355724D01*
X121944786Y-98253649D01*
X121953324Y-98238054D01*
X121998478Y-98117606D01*
X122002105Y-98102351D01*
X122007631Y-98051486D01*
X122008000Y-98044672D01*
X122008000Y-97272115D01*
X122003525Y-97256876D01*
X122002135Y-97255671D01*
X121994452Y-97254000D01*
X120772115Y-97254000D01*
X120756876Y-97258475D01*
X120755671Y-97259865D01*
X120754000Y-97267548D01*
X120754000Y-98489884D01*
X120246000Y-98489884D01*
X120246000Y-97272115D01*
X120241525Y-97256876D01*
X120240135Y-97255671D01*
X120232452Y-97254000D01*
X119010116Y-97254000D01*
X118994877Y-97258475D01*
X118993672Y-97259865D01*
X118992001Y-97267548D01*
X118992001Y-98044669D01*
X117706512Y-98044669D01*
X117753542Y-97899928D01*
X117755745Y-97878973D01*
X117772814Y-97716565D01*
X117773504Y-97710000D01*
X117769774Y-97674513D01*
X117754232Y-97526635D01*
X117754232Y-97526633D01*
X117753542Y-97520072D01*
X117694527Y-97338444D01*
X117669254Y-97294669D01*
X117619662Y-97208774D01*
X117599040Y-97173056D01*
X117500694Y-97063831D01*
X117475675Y-97036045D01*
X117475674Y-97036044D01*
X117471253Y-97031134D01*
X117316752Y-96918882D01*
X117310724Y-96916198D01*
X117310722Y-96916197D01*
X117148319Y-96843891D01*
X117148318Y-96843891D01*
X117142288Y-96841206D01*
X117048888Y-96821353D01*
X116961944Y-96802872D01*
X116961939Y-96802872D01*
X116955487Y-96801500D01*
X116764513Y-96801500D01*
X116758061Y-96802872D01*
X116758056Y-96802872D01*
X116671113Y-96821353D01*
X116577712Y-96841206D01*
X116571682Y-96843891D01*
X116571681Y-96843891D01*
X116409278Y-96916197D01*
X116409276Y-96916198D01*
X116403248Y-96918882D01*
X116397907Y-96922762D01*
X116397906Y-96922763D01*
X116319215Y-96979936D01*
X116252348Y-97003794D01*
X116245154Y-97004000D01*
X114897115Y-97004000D01*
X114881876Y-97008475D01*
X114880671Y-97009865D01*
X114879000Y-97017548D01*
X114879000Y-97739884D01*
X114883475Y-97755123D01*
X114884865Y-97756328D01*
X114892548Y-97757999D01*
X115838090Y-97757999D01*
X115906211Y-97778001D01*
X115952704Y-97831657D01*
X115963400Y-97870828D01*
X115966458Y-97899928D01*
X116025473Y-98081556D01*
X116028776Y-98087278D01*
X116028777Y-98087279D01*
X116047272Y-98119313D01*
X116078720Y-98173781D01*
X116084619Y-98183999D01*
X116101500Y-98246999D01*
X116101500Y-98972661D01*
X116081498Y-99040782D01*
X116027842Y-99087275D01*
X115957568Y-99097379D01*
X115924252Y-99087768D01*
X115758323Y-99013892D01*
X115758315Y-99013889D01*
X115752288Y-99011206D01*
X115640413Y-98987426D01*
X115571944Y-98972872D01*
X115571939Y-98972872D01*
X115565487Y-98971500D01*
X115374513Y-98971500D01*
X115368061Y-98972872D01*
X115368056Y-98972872D01*
X115299587Y-98987426D01*
X115187712Y-99011206D01*
X115181685Y-99013889D01*
X115181677Y-99013892D01*
X115072663Y-99062428D01*
X115002296Y-99071862D01*
X114937999Y-99041755D01*
X114932337Y-99036433D01*
X114003641Y-98107736D01*
X113996112Y-98099462D01*
X113992000Y-98092982D01*
X113979833Y-98081556D01*
X113942349Y-98046357D01*
X113939507Y-98043602D01*
X113919770Y-98023865D01*
X113916573Y-98021385D01*
X113907551Y-98013680D01*
X113897877Y-98004595D01*
X113875321Y-97983414D01*
X113875036Y-97983257D01*
X113833747Y-97929709D01*
X113827675Y-97858972D01*
X113860809Y-97796182D01*
X113922631Y-97761273D01*
X113951164Y-97758000D01*
X114352885Y-97758000D01*
X114368124Y-97753525D01*
X114369329Y-97752135D01*
X114371000Y-97744452D01*
X114371000Y-97022115D01*
X114366525Y-97006876D01*
X114365135Y-97005671D01*
X114357452Y-97004000D01*
X112760116Y-97004000D01*
X112744877Y-97008475D01*
X112743672Y-97009865D01*
X112742001Y-97017548D01*
X112742001Y-97294669D01*
X112742371Y-97301490D01*
X112747895Y-97352352D01*
X112751521Y-97367604D01*
X112796676Y-97488054D01*
X112805214Y-97503649D01*
X112881715Y-97605724D01*
X112894277Y-97618286D01*
X112922815Y-97639674D01*
X112965330Y-97696533D01*
X112970356Y-97767352D01*
X112936296Y-97829645D01*
X112873965Y-97863635D01*
X112847250Y-97866500D01*
X110652750Y-97866500D01*
X110584629Y-97846498D01*
X110538136Y-97792842D01*
X110528032Y-97722568D01*
X110557526Y-97657988D01*
X110577185Y-97639674D01*
X110605723Y-97618286D01*
X110618285Y-97605724D01*
X110694786Y-97503649D01*
X110703324Y-97488054D01*
X110748478Y-97367606D01*
X110752105Y-97352351D01*
X110757631Y-97301486D01*
X110758000Y-97294672D01*
X110758000Y-97022115D01*
X110753525Y-97006876D01*
X110752135Y-97005671D01*
X110744452Y-97004000D01*
X107010116Y-97004000D01*
X106994877Y-97008475D01*
X106993672Y-97009865D01*
X106992001Y-97017548D01*
X106992001Y-97294669D01*
X106992371Y-97301490D01*
X106997895Y-97352352D01*
X107001521Y-97367604D01*
X107046676Y-97488054D01*
X107055212Y-97503644D01*
X107074191Y-97528968D01*
X107099039Y-97595475D01*
X107083987Y-97664857D01*
X107042297Y-97707573D01*
X107043248Y-97708882D01*
X106888747Y-97821134D01*
X106884326Y-97826044D01*
X106884325Y-97826045D01*
X106779605Y-97942349D01*
X106760960Y-97963056D01*
X106726839Y-98022155D01*
X106691803Y-98082840D01*
X106665473Y-98128444D01*
X106606458Y-98310072D01*
X106605768Y-98316633D01*
X106605768Y-98316635D01*
X106591402Y-98453324D01*
X106586496Y-98500000D01*
X106584459Y-98499786D01*
X106567184Y-98558621D01*
X106513528Y-98605114D01*
X106461186Y-98616500D01*
X106358200Y-98616500D01*
X106290079Y-98596498D01*
X106270853Y-98580157D01*
X106270580Y-98580460D01*
X106265668Y-98576037D01*
X106261253Y-98571134D01*
X106214470Y-98537144D01*
X106112094Y-98462763D01*
X106112093Y-98462762D01*
X106106752Y-98458882D01*
X106100724Y-98456198D01*
X106100722Y-98456197D01*
X105938319Y-98383891D01*
X105938318Y-98383891D01*
X105932288Y-98381206D01*
X105838888Y-98361353D01*
X105751944Y-98342872D01*
X105751939Y-98342872D01*
X105745487Y-98341500D01*
X105559020Y-98341500D01*
X105490899Y-98321498D01*
X105444406Y-98267842D01*
X105433020Y-98215500D01*
X105433020Y-97015074D01*
X105453022Y-96946953D01*
X105469925Y-96925979D01*
X105668019Y-96727885D01*
X118992000Y-96727885D01*
X118996475Y-96743124D01*
X118997865Y-96744329D01*
X119005548Y-96746000D01*
X120227885Y-96746000D01*
X120243124Y-96741525D01*
X120244329Y-96740135D01*
X120246000Y-96732452D01*
X120246000Y-96727885D01*
X120754000Y-96727885D01*
X120758475Y-96743124D01*
X120759865Y-96744329D01*
X120767548Y-96746000D01*
X121989884Y-96746000D01*
X122005123Y-96741525D01*
X122006328Y-96740135D01*
X122007999Y-96732452D01*
X122007999Y-95955331D01*
X122007629Y-95948510D01*
X122002105Y-95897648D01*
X121998479Y-95882396D01*
X121953324Y-95761946D01*
X121944786Y-95746351D01*
X121868285Y-95644276D01*
X121855724Y-95631715D01*
X121753649Y-95555214D01*
X121738054Y-95546676D01*
X121617606Y-95501522D01*
X121602351Y-95497895D01*
X121551486Y-95492369D01*
X121544672Y-95492000D01*
X120772115Y-95492000D01*
X120756876Y-95496475D01*
X120755671Y-95497865D01*
X120754000Y-95505548D01*
X120754000Y-96727885D01*
X120246000Y-96727885D01*
X120246000Y-95510116D01*
X120241525Y-95494877D01*
X120240135Y-95493672D01*
X120232452Y-95492001D01*
X119455331Y-95492001D01*
X119448510Y-95492371D01*
X119397648Y-95497895D01*
X119382396Y-95501521D01*
X119261946Y-95546676D01*
X119246351Y-95555214D01*
X119144276Y-95631715D01*
X119131715Y-95644276D01*
X119055214Y-95746351D01*
X119046676Y-95761946D01*
X119001522Y-95882394D01*
X118997895Y-95897649D01*
X118992369Y-95948514D01*
X118992000Y-95955328D01*
X118992000Y-96727885D01*
X105668019Y-96727885D01*
X105918019Y-96477885D01*
X106992000Y-96477885D01*
X106996475Y-96493124D01*
X106997865Y-96494329D01*
X107005548Y-96496000D01*
X108602885Y-96496000D01*
X108618124Y-96491525D01*
X108619329Y-96490135D01*
X108621000Y-96482452D01*
X108621000Y-96477885D01*
X109129000Y-96477885D01*
X109133475Y-96493124D01*
X109134865Y-96494329D01*
X109142548Y-96496000D01*
X110739884Y-96496000D01*
X110755123Y-96491525D01*
X110756328Y-96490135D01*
X110757999Y-96482452D01*
X110757999Y-96477885D01*
X112742000Y-96477885D01*
X112746475Y-96493124D01*
X112747865Y-96494329D01*
X112755548Y-96496000D01*
X114352885Y-96496000D01*
X114368124Y-96491525D01*
X114369329Y-96490135D01*
X114371000Y-96482452D01*
X114371000Y-96477885D01*
X114879000Y-96477885D01*
X114883475Y-96493124D01*
X114884865Y-96494329D01*
X114892548Y-96496000D01*
X116489884Y-96496000D01*
X116505123Y-96491525D01*
X116506328Y-96490135D01*
X116507999Y-96482452D01*
X116507999Y-96205331D01*
X116507629Y-96198510D01*
X116502105Y-96147648D01*
X116498479Y-96132396D01*
X116453324Y-96011946D01*
X116444786Y-95996351D01*
X116368285Y-95894276D01*
X116355724Y-95881715D01*
X116253649Y-95805214D01*
X116238054Y-95796676D01*
X116117606Y-95751522D01*
X116102351Y-95747895D01*
X116051486Y-95742369D01*
X116044672Y-95742000D01*
X114897115Y-95742000D01*
X114881876Y-95746475D01*
X114880671Y-95747865D01*
X114879000Y-95755548D01*
X114879000Y-96477885D01*
X114371000Y-96477885D01*
X114371000Y-95760116D01*
X114366525Y-95744877D01*
X114365135Y-95743672D01*
X114357452Y-95742001D01*
X113205331Y-95742001D01*
X113198510Y-95742371D01*
X113147648Y-95747895D01*
X113132396Y-95751521D01*
X113011946Y-95796676D01*
X112996351Y-95805214D01*
X112894276Y-95881715D01*
X112881715Y-95894276D01*
X112805214Y-95996351D01*
X112796676Y-96011946D01*
X112751522Y-96132394D01*
X112747895Y-96147649D01*
X112742369Y-96198514D01*
X112742000Y-96205328D01*
X112742000Y-96477885D01*
X110757999Y-96477885D01*
X110757999Y-96205331D01*
X110757629Y-96198510D01*
X110752105Y-96147648D01*
X110748479Y-96132396D01*
X110703324Y-96011946D01*
X110694786Y-95996351D01*
X110618285Y-95894276D01*
X110605724Y-95881715D01*
X110503649Y-95805214D01*
X110488054Y-95796676D01*
X110367606Y-95751522D01*
X110352351Y-95747895D01*
X110301486Y-95742369D01*
X110294672Y-95742000D01*
X109147115Y-95742000D01*
X109131876Y-95746475D01*
X109130671Y-95747865D01*
X109129000Y-95755548D01*
X109129000Y-96477885D01*
X108621000Y-96477885D01*
X108621000Y-95760116D01*
X108616525Y-95744877D01*
X108615135Y-95743672D01*
X108607452Y-95742001D01*
X107455331Y-95742001D01*
X107448510Y-95742371D01*
X107397648Y-95747895D01*
X107382396Y-95751521D01*
X107261946Y-95796676D01*
X107246351Y-95805214D01*
X107144276Y-95881715D01*
X107131715Y-95894276D01*
X107055214Y-95996351D01*
X107046676Y-96011946D01*
X107001522Y-96132394D01*
X106997895Y-96147649D01*
X106992369Y-96198514D01*
X106992000Y-96205328D01*
X106992000Y-96477885D01*
X105918019Y-96477885D01*
X106950499Y-95445405D01*
X107012811Y-95411379D01*
X107039594Y-95408500D01*
X107095487Y-95408500D01*
X107101939Y-95407128D01*
X107101944Y-95407128D01*
X107188888Y-95388647D01*
X107282288Y-95368794D01*
X107288319Y-95366109D01*
X107450722Y-95293803D01*
X107450724Y-95293802D01*
X107456752Y-95291118D01*
X107611253Y-95178866D01*
X107615675Y-95173955D01*
X107734621Y-95041852D01*
X107734625Y-95041847D01*
X107739040Y-95036944D01*
X107813861Y-94907350D01*
X107831223Y-94877279D01*
X107831224Y-94877278D01*
X107834527Y-94871556D01*
X107893542Y-94689928D01*
X107894261Y-94683093D01*
X107912814Y-94506565D01*
X107913504Y-94500000D01*
X107893542Y-94310072D01*
X107893002Y-94308410D01*
X107898267Y-94239416D01*
X107941084Y-94182784D01*
X108007722Y-94158291D01*
X108016112Y-94158011D01*
X117896722Y-94158011D01*
X117907905Y-94158538D01*
X117915398Y-94160213D01*
X117923324Y-94159964D01*
X117923325Y-94159964D01*
X117983475Y-94158073D01*
X117987434Y-94158011D01*
X118015345Y-94158011D01*
X118019280Y-94157514D01*
X118019345Y-94157506D01*
X118031182Y-94156573D01*
X118063440Y-94155559D01*
X118067459Y-94155433D01*
X118075378Y-94155184D01*
X118094832Y-94149532D01*
X118114189Y-94145524D01*
X118126419Y-94143979D01*
X118126420Y-94143979D01*
X118134286Y-94142985D01*
X118141657Y-94140066D01*
X118141659Y-94140066D01*
X118175401Y-94126707D01*
X118186631Y-94122862D01*
X118221472Y-94112740D01*
X118221473Y-94112740D01*
X118229082Y-94110529D01*
X118235901Y-94106496D01*
X118235906Y-94106494D01*
X118246517Y-94100218D01*
X118264265Y-94091523D01*
X118283106Y-94084063D01*
X118318876Y-94058075D01*
X118328796Y-94051559D01*
X118360024Y-94033091D01*
X118360027Y-94033089D01*
X118366851Y-94029053D01*
X118381172Y-94014732D01*
X118396206Y-94001891D01*
X118406183Y-93994642D01*
X118412596Y-93989983D01*
X118440787Y-93955906D01*
X118448777Y-93947127D01*
X118450499Y-93945405D01*
X118512811Y-93911379D01*
X118539594Y-93908500D01*
X118595487Y-93908500D01*
X118601939Y-93907128D01*
X118601944Y-93907128D01*
X118688887Y-93888647D01*
X118782288Y-93868794D01*
X118788319Y-93866109D01*
X118950722Y-93793803D01*
X118950724Y-93793802D01*
X118956752Y-93791118D01*
X119111253Y-93678866D01*
X119161806Y-93622721D01*
X119234621Y-93541852D01*
X119234622Y-93541851D01*
X119239040Y-93536944D01*
X119310774Y-93412697D01*
X119331223Y-93377279D01*
X119331224Y-93377278D01*
X119334527Y-93371556D01*
X119393542Y-93189928D01*
X119394262Y-93183084D01*
X119412814Y-93006565D01*
X119413504Y-93000000D01*
X119401715Y-92887835D01*
X119394232Y-92816635D01*
X119394232Y-92816633D01*
X119393542Y-92810072D01*
X119381797Y-92773925D01*
X119379769Y-92702958D01*
X119416432Y-92642160D01*
X119480144Y-92610834D01*
X119501630Y-92608989D01*
X120660895Y-92608989D01*
X120729016Y-92628991D01*
X120749990Y-92645894D01*
X122552878Y-94448782D01*
X122586904Y-94511094D01*
X122589092Y-94524703D01*
X122593518Y-94566812D01*
X122605740Y-94683093D01*
X122606458Y-94689928D01*
X122665473Y-94871556D01*
X122668776Y-94877278D01*
X122668777Y-94877279D01*
X122686139Y-94907350D01*
X122760960Y-95036944D01*
X122765375Y-95041847D01*
X122765379Y-95041852D01*
X122884325Y-95173955D01*
X122888747Y-95178866D01*
X123043248Y-95291118D01*
X123049276Y-95293802D01*
X123049278Y-95293803D01*
X123211681Y-95366109D01*
X123217712Y-95368794D01*
X123311113Y-95388647D01*
X123398056Y-95407128D01*
X123398061Y-95407128D01*
X123404513Y-95408500D01*
X123595487Y-95408500D01*
X123601939Y-95407128D01*
X123601944Y-95407128D01*
X123688888Y-95388647D01*
X123782288Y-95368794D01*
X123788319Y-95366109D01*
X123950722Y-95293803D01*
X123950724Y-95293802D01*
X123956752Y-95291118D01*
X124111253Y-95178866D01*
X124115675Y-95173955D01*
X124234621Y-95041852D01*
X124234625Y-95041847D01*
X124239040Y-95036944D01*
X124313861Y-94907350D01*
X124331223Y-94877279D01*
X124331224Y-94877278D01*
X124334527Y-94871556D01*
X124393542Y-94689928D01*
X124394261Y-94683093D01*
X124412814Y-94506565D01*
X124413504Y-94500000D01*
X124399432Y-94366109D01*
X124394232Y-94316635D01*
X124394232Y-94316633D01*
X124393542Y-94310072D01*
X124334527Y-94128444D01*
X124239040Y-93963056D01*
X124227311Y-93950029D01*
X124115675Y-93826045D01*
X124115674Y-93826044D01*
X124111253Y-93821134D01*
X123956752Y-93708882D01*
X123950724Y-93706198D01*
X123950722Y-93706197D01*
X123788319Y-93633891D01*
X123788318Y-93633891D01*
X123782288Y-93631206D01*
X123688887Y-93611353D01*
X123601944Y-93592872D01*
X123601939Y-93592872D01*
X123595487Y-93591500D01*
X123539594Y-93591500D01*
X123471473Y-93571498D01*
X123450499Y-93554595D01*
X122472417Y-92576512D01*
X121479141Y-91583236D01*
X121471601Y-91574950D01*
X121467489Y-91568471D01*
X121417837Y-91521845D01*
X121414996Y-91519091D01*
X121395259Y-91499354D01*
X121392062Y-91496874D01*
X121383040Y-91489169D01*
X121375652Y-91482231D01*
X121350810Y-91458903D01*
X121343864Y-91455084D01*
X121343861Y-91455082D01*
X121333055Y-91449141D01*
X121316536Y-91438290D01*
X121316072Y-91437930D01*
X121300530Y-91425875D01*
X121293261Y-91422730D01*
X121293257Y-91422727D01*
X121259952Y-91408315D01*
X121249302Y-91403098D01*
X121210549Y-91381794D01*
X121190926Y-91376756D01*
X121172223Y-91370352D01*
X121160909Y-91365456D01*
X121160908Y-91365456D01*
X121153634Y-91362308D01*
X121145811Y-91361069D01*
X121145801Y-91361066D01*
X121109965Y-91355390D01*
X121098345Y-91352984D01*
X121063200Y-91343961D01*
X121063199Y-91343961D01*
X121055519Y-91341989D01*
X121035265Y-91341989D01*
X121015554Y-91340438D01*
X121013692Y-91340143D01*
X120995546Y-91337269D01*
X120965143Y-91340143D01*
X120951528Y-91341430D01*
X120939670Y-91341989D01*
X117936288Y-91341989D01*
X117868167Y-91321987D01*
X117821674Y-91268331D01*
X117811570Y-91198057D01*
X117841064Y-91133477D01*
X117849944Y-91125205D01*
X117849731Y-91124992D01*
X117856081Y-91118642D01*
X117863261Y-91113261D01*
X117950615Y-90996705D01*
X117962883Y-90963980D01*
X117971292Y-90941550D01*
X118013933Y-90884785D01*
X118080495Y-90860085D01*
X118140523Y-90870672D01*
X118274617Y-90930374D01*
X118283044Y-90934126D01*
X118354832Y-90949385D01*
X118463388Y-90972460D01*
X118463393Y-90972460D01*
X118469845Y-90973832D01*
X118660819Y-90973832D01*
X118667271Y-90972460D01*
X118667276Y-90972460D01*
X118775832Y-90949385D01*
X118847620Y-90934126D01*
X118853651Y-90931441D01*
X119016054Y-90859135D01*
X119016056Y-90859134D01*
X119022084Y-90856450D01*
X119050376Y-90835895D01*
X119126991Y-90780230D01*
X119176585Y-90744198D01*
X119272680Y-90637474D01*
X119299953Y-90607184D01*
X119299954Y-90607183D01*
X119304372Y-90602276D01*
X119375770Y-90478612D01*
X119396555Y-90442611D01*
X119396556Y-90442610D01*
X119399859Y-90436888D01*
X119458874Y-90255260D01*
X119469545Y-90153736D01*
X119478146Y-90071897D01*
X119478836Y-90065332D01*
X119468991Y-89971658D01*
X119459564Y-89881967D01*
X119459564Y-89881965D01*
X119458874Y-89875404D01*
X119408309Y-89719782D01*
X119406281Y-89648816D01*
X119442944Y-89588018D01*
X119506656Y-89556693D01*
X119577190Y-89564785D01*
X119626886Y-89602581D01*
X119734894Y-89738854D01*
X119739581Y-89742843D01*
X119739584Y-89742846D01*
X119865366Y-89849894D01*
X119892976Y-89873392D01*
X120074180Y-89974664D01*
X120271603Y-90038810D01*
X120477725Y-90063389D01*
X120483860Y-90062917D01*
X120483862Y-90062917D01*
X120678555Y-90047936D01*
X120678560Y-90047935D01*
X120684696Y-90047463D01*
X120690626Y-90045807D01*
X120690628Y-90045807D01*
X120785704Y-90019261D01*
X120884632Y-89991640D01*
X120898676Y-89984546D01*
X121064416Y-89900825D01*
X121064418Y-89900824D01*
X121069917Y-89898046D01*
X121233495Y-89770245D01*
X121348052Y-89637529D01*
X121365109Y-89617768D01*
X121365109Y-89617767D01*
X121369133Y-89613106D01*
X121375112Y-89602582D01*
X121410124Y-89540949D01*
X121471667Y-89432614D01*
X121537190Y-89235644D01*
X121563207Y-89029698D01*
X121563622Y-89000000D01*
X121560636Y-88969544D01*
X123836936Y-88969544D01*
X123850861Y-89182006D01*
X123852282Y-89187602D01*
X123852283Y-89187607D01*
X123896986Y-89363621D01*
X123903272Y-89388372D01*
X123905689Y-89393615D01*
X123942389Y-89473223D01*
X123992411Y-89581731D01*
X124115296Y-89755609D01*
X124130320Y-89770245D01*
X124257615Y-89894250D01*
X124267809Y-89904181D01*
X124272605Y-89907386D01*
X124272608Y-89907388D01*
X124376144Y-89976568D01*
X124444843Y-90022471D01*
X124450146Y-90024749D01*
X124450149Y-90024751D01*
X124559885Y-90071897D01*
X124640470Y-90106519D01*
X124716316Y-90123681D01*
X124842501Y-90152234D01*
X124842506Y-90152235D01*
X124848138Y-90153509D01*
X124853909Y-90153736D01*
X124853911Y-90153736D01*
X124915252Y-90156146D01*
X125060891Y-90161869D01*
X125066600Y-90161041D01*
X125066604Y-90161041D01*
X125265890Y-90132145D01*
X125265894Y-90132144D01*
X125271605Y-90131316D01*
X125473223Y-90062876D01*
X125658993Y-89958840D01*
X125822693Y-89822693D01*
X125958840Y-89658993D01*
X126062876Y-89473223D01*
X126131316Y-89271605D01*
X126133198Y-89258630D01*
X126161337Y-89064561D01*
X126161337Y-89064559D01*
X126161869Y-89060891D01*
X126163463Y-89000000D01*
X126151160Y-88866109D01*
X126144510Y-88793730D01*
X126144509Y-88793727D01*
X126143981Y-88787976D01*
X126133998Y-88752579D01*
X126087754Y-88588611D01*
X126087753Y-88588609D01*
X126086186Y-88583052D01*
X126082511Y-88575598D01*
X125994570Y-88397273D01*
X125992015Y-88392092D01*
X125975070Y-88369399D01*
X125868074Y-88226114D01*
X125864622Y-88221491D01*
X125708271Y-88076963D01*
X125528201Y-87963347D01*
X125330441Y-87884449D01*
X125324781Y-87883323D01*
X125324777Y-87883322D01*
X125127282Y-87844038D01*
X125127280Y-87844038D01*
X125121615Y-87842911D01*
X125115840Y-87842835D01*
X125115836Y-87842835D01*
X125009161Y-87841439D01*
X124908716Y-87840124D01*
X124903019Y-87841103D01*
X124903018Y-87841103D01*
X124704564Y-87875203D01*
X124704561Y-87875204D01*
X124698874Y-87876181D01*
X124499116Y-87949875D01*
X124316134Y-88058739D01*
X124156054Y-88199125D01*
X124024238Y-88366333D01*
X124021549Y-88371444D01*
X124021547Y-88371447D01*
X124007004Y-88399089D01*
X123925100Y-88554762D01*
X123923386Y-88560283D01*
X123923384Y-88560287D01*
X123885360Y-88682745D01*
X123861961Y-88758102D01*
X123836936Y-88969544D01*
X121560636Y-88969544D01*
X121552647Y-88888069D01*
X121543966Y-88799534D01*
X121543965Y-88799531D01*
X121543365Y-88793408D01*
X121495752Y-88635702D01*
X121485152Y-88600593D01*
X121485151Y-88600590D01*
X121483368Y-88594685D01*
X121480472Y-88589238D01*
X121388809Y-88416847D01*
X121388808Y-88416845D01*
X121385913Y-88411401D01*
X121312293Y-88321134D01*
X121258610Y-88255311D01*
X121258607Y-88255308D01*
X121254715Y-88250536D01*
X121247770Y-88244790D01*
X121099518Y-88122145D01*
X121099519Y-88122145D01*
X121094770Y-88118217D01*
X121089353Y-88115288D01*
X121089350Y-88115286D01*
X120917590Y-88022416D01*
X120917585Y-88022414D01*
X120912170Y-88019486D01*
X120713871Y-87958102D01*
X120707746Y-87957458D01*
X120707745Y-87957458D01*
X120513554Y-87937048D01*
X120513552Y-87937048D01*
X120507425Y-87936404D01*
X120421515Y-87944223D01*
X120306836Y-87954659D01*
X120306833Y-87954660D01*
X120300697Y-87955218D01*
X120294791Y-87956956D01*
X120294787Y-87956957D01*
X120146932Y-88000473D01*
X120101560Y-88013827D01*
X119917600Y-88109999D01*
X119755823Y-88240071D01*
X119751865Y-88244788D01*
X119751863Y-88244790D01*
X119694581Y-88313056D01*
X119622391Y-88399089D01*
X119619427Y-88404481D01*
X119619424Y-88404485D01*
X119528069Y-88570659D01*
X119522387Y-88580995D01*
X119459621Y-88778861D01*
X119458935Y-88784978D01*
X119458934Y-88784982D01*
X119450047Y-88864215D01*
X119422576Y-88929682D01*
X119364072Y-88969904D01*
X119293110Y-88972111D01*
X119232219Y-88935603D01*
X119200732Y-88871971D01*
X119198832Y-88850170D01*
X119198832Y-86549262D01*
X119218834Y-86481141D01*
X119235737Y-86460167D01*
X120350499Y-85345405D01*
X120412811Y-85311379D01*
X120439594Y-85308500D01*
X120495487Y-85308500D01*
X120501939Y-85307128D01*
X120501944Y-85307128D01*
X120611700Y-85283798D01*
X120682288Y-85268794D01*
X120688319Y-85266109D01*
X120850722Y-85193803D01*
X120850724Y-85193802D01*
X120856752Y-85191118D01*
X120873616Y-85178866D01*
X120920385Y-85144886D01*
X121011253Y-85078866D01*
X121067144Y-85016793D01*
X121134621Y-84941852D01*
X121134622Y-84941851D01*
X121139040Y-84936944D01*
X121234527Y-84771556D01*
X121293542Y-84589928D01*
X121296947Y-84557529D01*
X121305956Y-84471818D01*
X121332969Y-84406161D01*
X121391191Y-84365532D01*
X121431266Y-84358989D01*
X124593734Y-84358989D01*
X124661855Y-84378991D01*
X124708348Y-84432647D01*
X124719044Y-84471818D01*
X124728053Y-84557529D01*
X124731458Y-84589928D01*
X124790473Y-84771556D01*
X124885960Y-84936944D01*
X124890378Y-84941851D01*
X124890379Y-84941852D01*
X124957856Y-85016793D01*
X125013747Y-85078866D01*
X125104615Y-85144886D01*
X125151385Y-85178866D01*
X125168248Y-85191118D01*
X125174276Y-85193802D01*
X125174278Y-85193803D01*
X125336681Y-85266109D01*
X125342712Y-85268794D01*
X125413300Y-85283798D01*
X125523056Y-85307128D01*
X125523061Y-85307128D01*
X125529513Y-85308500D01*
X125720487Y-85308500D01*
X125726939Y-85307128D01*
X125726944Y-85307128D01*
X125836700Y-85283798D01*
X125907288Y-85268794D01*
X125913319Y-85266109D01*
X126075722Y-85193803D01*
X126075724Y-85193802D01*
X126081752Y-85191118D01*
X126098616Y-85178866D01*
X126145385Y-85144886D01*
X126236253Y-85078866D01*
X126292144Y-85016793D01*
X126359621Y-84941852D01*
X126359622Y-84941851D01*
X126364040Y-84936944D01*
X126459527Y-84771556D01*
X126518542Y-84589928D01*
X126522009Y-84556947D01*
X126537814Y-84406565D01*
X126538504Y-84400000D01*
X126522651Y-84249163D01*
X126519232Y-84216635D01*
X126519232Y-84216633D01*
X126518542Y-84210072D01*
X126459527Y-84028444D01*
X126455698Y-84021811D01*
X126394186Y-83915271D01*
X126364040Y-83863056D01*
X126358196Y-83856565D01*
X126240675Y-83726045D01*
X126240674Y-83726044D01*
X126236253Y-83721134D01*
X126099038Y-83621441D01*
X126087094Y-83612763D01*
X126087093Y-83612762D01*
X126081752Y-83608882D01*
X126075724Y-83606198D01*
X126075722Y-83606197D01*
X125913319Y-83533891D01*
X125913318Y-83533891D01*
X125907288Y-83531206D01*
X125813887Y-83511353D01*
X125726944Y-83492872D01*
X125726939Y-83492872D01*
X125720487Y-83491500D01*
X125664595Y-83491500D01*
X125596474Y-83471498D01*
X125575500Y-83454595D01*
X125454141Y-83333236D01*
X125446601Y-83324950D01*
X125442489Y-83318471D01*
X125392837Y-83271845D01*
X125389996Y-83269091D01*
X125370259Y-83249354D01*
X125367062Y-83246874D01*
X125358040Y-83239169D01*
X125344605Y-83226553D01*
X125325810Y-83208903D01*
X125318864Y-83205084D01*
X125318861Y-83205082D01*
X125308055Y-83199141D01*
X125291536Y-83188290D01*
X125286945Y-83184729D01*
X125275530Y-83175875D01*
X125268261Y-83172730D01*
X125268257Y-83172727D01*
X125234952Y-83158315D01*
X125224302Y-83153098D01*
X125185549Y-83131794D01*
X125165926Y-83126756D01*
X125147223Y-83120352D01*
X125135909Y-83115456D01*
X125135908Y-83115456D01*
X125128634Y-83112308D01*
X125120811Y-83111069D01*
X125120801Y-83111066D01*
X125084965Y-83105390D01*
X125073345Y-83102984D01*
X125038200Y-83093961D01*
X125038199Y-83093961D01*
X125030519Y-83091989D01*
X125010265Y-83091989D01*
X124990554Y-83090438D01*
X124978375Y-83088509D01*
X124970546Y-83087269D01*
X124941275Y-83090036D01*
X124926528Y-83091430D01*
X124914670Y-83091989D01*
X115873768Y-83091989D01*
X115805647Y-83071987D01*
X115759154Y-83018331D01*
X115749050Y-82948057D01*
X115778544Y-82883477D01*
X115822519Y-82850882D01*
X115950722Y-82793803D01*
X115950724Y-82793802D01*
X115956752Y-82791118D01*
X115965801Y-82784544D01*
X116048961Y-82724124D01*
X116111253Y-82678866D01*
X116115675Y-82673955D01*
X116234621Y-82541852D01*
X116234622Y-82541851D01*
X116239040Y-82536944D01*
X116313581Y-82407835D01*
X116331223Y-82377279D01*
X116331224Y-82377278D01*
X116334527Y-82371556D01*
X116393542Y-82189928D01*
X116395548Y-82170848D01*
X116412814Y-82006565D01*
X116413504Y-82000000D01*
X116393542Y-81810072D01*
X116334527Y-81628444D01*
X116327171Y-81615702D01*
X116264439Y-81507048D01*
X116239040Y-81463056D01*
X116222882Y-81445110D01*
X116115675Y-81326045D01*
X116115674Y-81326044D01*
X116111253Y-81321134D01*
X115992783Y-81235060D01*
X115962094Y-81212763D01*
X115962093Y-81212762D01*
X115956752Y-81208882D01*
X115950724Y-81206198D01*
X115950722Y-81206197D01*
X115788319Y-81133891D01*
X115788318Y-81133891D01*
X115782288Y-81131206D01*
X115688888Y-81111353D01*
X115601944Y-81092872D01*
X115601939Y-81092872D01*
X115595487Y-81091500D01*
X115539594Y-81091500D01*
X115471473Y-81071498D01*
X115450499Y-81054595D01*
X114742405Y-80346500D01*
X114003652Y-79607747D01*
X113996112Y-79599461D01*
X113992000Y-79592982D01*
X113942348Y-79546356D01*
X113939507Y-79543602D01*
X113919770Y-79523865D01*
X113916573Y-79521385D01*
X113907551Y-79513680D01*
X113881100Y-79488841D01*
X113875321Y-79483414D01*
X113868375Y-79479595D01*
X113868372Y-79479593D01*
X113857566Y-79473652D01*
X113841047Y-79462801D01*
X113835048Y-79458148D01*
X113825041Y-79450386D01*
X113817772Y-79447241D01*
X113817768Y-79447238D01*
X113784463Y-79432826D01*
X113773813Y-79427609D01*
X113735060Y-79406305D01*
X113715437Y-79401267D01*
X113696734Y-79394863D01*
X113685420Y-79389967D01*
X113685419Y-79389967D01*
X113678145Y-79386819D01*
X113670322Y-79385580D01*
X113670312Y-79385577D01*
X113634476Y-79379901D01*
X113622856Y-79377495D01*
X113587711Y-79368472D01*
X113587710Y-79368472D01*
X113580030Y-79366500D01*
X113559776Y-79366500D01*
X113540065Y-79364949D01*
X113527886Y-79363020D01*
X113520057Y-79361780D01*
X113512165Y-79362526D01*
X113476039Y-79365941D01*
X113464181Y-79366500D01*
X111003421Y-79366500D01*
X110935300Y-79346498D01*
X110888807Y-79292842D01*
X110883588Y-79279437D01*
X110850910Y-79178866D01*
X110834527Y-79128444D01*
X110813990Y-79092872D01*
X110784533Y-79041852D01*
X110774559Y-79024576D01*
X110757821Y-78955582D01*
X110781041Y-78888490D01*
X110832429Y-78846470D01*
X110950722Y-78793803D01*
X110950724Y-78793802D01*
X110956752Y-78791118D01*
X111111253Y-78678866D01*
X111191333Y-78589928D01*
X111234621Y-78541852D01*
X111234622Y-78541851D01*
X111239040Y-78536944D01*
X111318105Y-78400000D01*
X117486496Y-78400000D01*
X117487186Y-78406565D01*
X117498976Y-78518737D01*
X117506458Y-78589928D01*
X117565473Y-78771556D01*
X117660960Y-78936944D01*
X117788747Y-79078866D01*
X117875749Y-79142077D01*
X117931724Y-79182745D01*
X117943248Y-79191118D01*
X117949276Y-79193802D01*
X117949278Y-79193803D01*
X118111681Y-79266109D01*
X118117712Y-79268794D01*
X118204479Y-79287237D01*
X118298056Y-79307128D01*
X118298061Y-79307128D01*
X118304513Y-79308500D01*
X118495487Y-79308500D01*
X118501939Y-79307128D01*
X118501944Y-79307128D01*
X118595521Y-79287237D01*
X118682288Y-79268794D01*
X118688319Y-79266109D01*
X118850722Y-79193803D01*
X118850724Y-79193802D01*
X118856752Y-79191118D01*
X118868277Y-79182745D01*
X118993864Y-79091500D01*
X119011253Y-79078866D01*
X119015668Y-79073963D01*
X119020580Y-79069540D01*
X119021705Y-79070789D01*
X119075014Y-79037949D01*
X119108200Y-79033500D01*
X120085406Y-79033500D01*
X120153527Y-79053502D01*
X120174501Y-79070405D01*
X120380501Y-79276405D01*
X120414527Y-79338717D01*
X120409462Y-79409532D01*
X120366915Y-79466368D01*
X120300395Y-79491179D01*
X120291406Y-79491500D01*
X119701866Y-79491500D01*
X119639684Y-79498255D01*
X119503295Y-79549385D01*
X119386739Y-79636739D01*
X119299385Y-79753295D01*
X119248255Y-79889684D01*
X119241500Y-79951866D01*
X119241500Y-82048134D01*
X119248255Y-82110316D01*
X119299385Y-82246705D01*
X119386739Y-82363261D01*
X119503295Y-82450615D01*
X119639684Y-82501745D01*
X119701866Y-82508500D01*
X121298134Y-82508500D01*
X121360316Y-82501745D01*
X121496705Y-82450615D01*
X121613261Y-82363261D01*
X121649176Y-82315340D01*
X121706033Y-82272827D01*
X121776851Y-82267801D01*
X121839145Y-82301861D01*
X121850817Y-82315330D01*
X121886739Y-82363261D01*
X122003295Y-82450615D01*
X122139684Y-82501745D01*
X122201866Y-82508500D01*
X123798134Y-82508500D01*
X123860316Y-82501745D01*
X123996705Y-82450615D01*
X124113261Y-82363261D01*
X124149176Y-82315340D01*
X124206033Y-82272827D01*
X124276851Y-82267801D01*
X124339145Y-82301861D01*
X124350817Y-82315330D01*
X124386739Y-82363261D01*
X124503295Y-82450615D01*
X124639684Y-82501745D01*
X124701866Y-82508500D01*
X126298134Y-82508500D01*
X126360316Y-82501745D01*
X126496705Y-82450615D01*
X126613261Y-82363261D01*
X126700615Y-82246705D01*
X126751745Y-82110316D01*
X126758500Y-82048134D01*
X126758500Y-79951866D01*
X126751745Y-79889684D01*
X126700615Y-79753295D01*
X126613261Y-79636739D01*
X126496705Y-79549385D01*
X126360316Y-79498255D01*
X126298134Y-79491500D01*
X124701866Y-79491500D01*
X124639684Y-79498255D01*
X124503295Y-79549385D01*
X124386739Y-79636739D01*
X124350824Y-79684660D01*
X124293967Y-79727173D01*
X124223149Y-79732199D01*
X124160855Y-79698139D01*
X124149183Y-79684670D01*
X124113261Y-79636739D01*
X123996705Y-79549385D01*
X123860316Y-79498255D01*
X123798134Y-79491500D01*
X122439595Y-79491500D01*
X122371474Y-79471498D01*
X122350500Y-79454595D01*
X120903652Y-78007747D01*
X120896112Y-77999461D01*
X120892000Y-77992982D01*
X120842348Y-77946356D01*
X120839507Y-77943602D01*
X120819770Y-77923865D01*
X120816573Y-77921385D01*
X120807551Y-77913680D01*
X120781100Y-77888841D01*
X120775321Y-77883414D01*
X120768375Y-77879595D01*
X120768372Y-77879593D01*
X120757566Y-77873652D01*
X120741047Y-77862801D01*
X120740583Y-77862441D01*
X120725041Y-77850386D01*
X120717772Y-77847241D01*
X120717768Y-77847238D01*
X120684463Y-77832826D01*
X120673813Y-77827609D01*
X120635060Y-77806305D01*
X120625281Y-77803794D01*
X120615438Y-77801267D01*
X120596734Y-77794863D01*
X120585420Y-77789967D01*
X120585419Y-77789967D01*
X120578145Y-77786819D01*
X120570322Y-77785580D01*
X120570312Y-77785577D01*
X120534476Y-77779901D01*
X120522856Y-77777495D01*
X120487711Y-77768472D01*
X120487710Y-77768472D01*
X120480030Y-77766500D01*
X120459776Y-77766500D01*
X120440065Y-77764949D01*
X120427886Y-77763020D01*
X120420057Y-77761780D01*
X120412165Y-77762526D01*
X120376039Y-77765941D01*
X120364181Y-77766500D01*
X119108200Y-77766500D01*
X119040079Y-77746498D01*
X119020853Y-77730157D01*
X119020580Y-77730460D01*
X119015668Y-77726037D01*
X119011253Y-77721134D01*
X118856752Y-77608882D01*
X118850724Y-77606198D01*
X118850722Y-77606197D01*
X118688319Y-77533891D01*
X118688318Y-77533891D01*
X118682288Y-77531206D01*
X118566047Y-77506498D01*
X118501944Y-77492872D01*
X118501939Y-77492872D01*
X118495487Y-77491500D01*
X118304513Y-77491500D01*
X118298061Y-77492872D01*
X118298056Y-77492872D01*
X118233953Y-77506498D01*
X118117712Y-77531206D01*
X118111682Y-77533891D01*
X118111681Y-77533891D01*
X117949278Y-77606197D01*
X117949276Y-77606198D01*
X117943248Y-77608882D01*
X117788747Y-77721134D01*
X117784326Y-77726044D01*
X117784325Y-77726045D01*
X117675203Y-77847238D01*
X117660960Y-77863056D01*
X117565473Y-78028444D01*
X117506458Y-78210072D01*
X117486496Y-78400000D01*
X111318105Y-78400000D01*
X111334527Y-78371556D01*
X111393542Y-78189928D01*
X111397371Y-78153502D01*
X111412814Y-78006565D01*
X111413504Y-78000000D01*
X111408463Y-77952034D01*
X111394232Y-77816635D01*
X111394232Y-77816633D01*
X111393542Y-77810072D01*
X111334527Y-77628444D01*
X111309090Y-77584385D01*
X111279077Y-77532402D01*
X111239040Y-77463056D01*
X111182715Y-77400500D01*
X111115675Y-77326045D01*
X111115674Y-77326044D01*
X111111253Y-77321134D01*
X110956752Y-77208882D01*
X110950724Y-77206198D01*
X110950722Y-77206197D01*
X110788319Y-77133891D01*
X110788318Y-77133891D01*
X110782288Y-77131206D01*
X110668730Y-77107068D01*
X110605833Y-77072917D01*
X110007416Y-76474500D01*
X109973390Y-76412188D01*
X109970511Y-76385405D01*
X109970511Y-76351866D01*
X109963756Y-76289684D01*
X109912626Y-76153295D01*
X109825272Y-76036739D01*
X109708716Y-75949385D01*
X109572327Y-75898255D01*
X109510145Y-75891500D01*
X109151024Y-75891500D01*
X109082903Y-75871498D01*
X109070716Y-75862590D01*
X109068425Y-75860695D01*
X109059637Y-75852700D01*
X108814680Y-75607742D01*
X108807146Y-75599463D01*
X108803033Y-75592982D01*
X108753380Y-75546355D01*
X108750539Y-75543601D01*
X108730803Y-75523865D01*
X108727606Y-75521385D01*
X108718584Y-75513680D01*
X108700071Y-75496295D01*
X108686354Y-75483414D01*
X108679408Y-75479595D01*
X108679405Y-75479593D01*
X108668599Y-75473652D01*
X108652080Y-75462801D01*
X108642502Y-75455372D01*
X108636074Y-75450386D01*
X108628805Y-75447241D01*
X108628801Y-75447238D01*
X108595496Y-75432826D01*
X108584846Y-75427609D01*
X108546093Y-75406305D01*
X108526470Y-75401267D01*
X108507767Y-75394863D01*
X108496453Y-75389967D01*
X108496452Y-75389967D01*
X108489178Y-75386819D01*
X108481355Y-75385580D01*
X108481345Y-75385577D01*
X108445509Y-75379901D01*
X108433889Y-75377495D01*
X108398744Y-75368472D01*
X108398743Y-75368472D01*
X108391063Y-75366500D01*
X108370809Y-75366500D01*
X108351098Y-75364949D01*
X108338919Y-75363020D01*
X108331090Y-75361780D01*
X108301819Y-75364547D01*
X108287072Y-75365941D01*
X108275214Y-75366500D01*
X107078767Y-75366500D01*
X107067584Y-75365973D01*
X107060091Y-75364298D01*
X107052165Y-75364547D01*
X107052164Y-75364547D01*
X106992014Y-75366438D01*
X106988055Y-75366500D01*
X106960144Y-75366500D01*
X106956210Y-75366997D01*
X106956209Y-75366997D01*
X106956144Y-75367005D01*
X106944307Y-75367938D01*
X106912049Y-75368952D01*
X106908030Y-75369078D01*
X106900111Y-75369327D01*
X106880657Y-75374979D01*
X106861300Y-75378987D01*
X106849070Y-75380532D01*
X106849069Y-75380532D01*
X106841203Y-75381526D01*
X106833832Y-75384445D01*
X106833830Y-75384445D01*
X106800088Y-75397804D01*
X106788858Y-75401649D01*
X106754017Y-75411771D01*
X106754016Y-75411771D01*
X106746407Y-75413982D01*
X106739588Y-75418015D01*
X106739583Y-75418017D01*
X106728972Y-75424293D01*
X106711224Y-75432988D01*
X106692383Y-75440448D01*
X106685967Y-75445110D01*
X106685966Y-75445110D01*
X106656613Y-75466436D01*
X106646693Y-75472952D01*
X106615465Y-75491420D01*
X106615462Y-75491422D01*
X106608638Y-75495458D01*
X106594314Y-75509782D01*
X106579287Y-75522617D01*
X106562893Y-75534528D01*
X106557840Y-75540636D01*
X106534711Y-75568594D01*
X106526722Y-75577372D01*
X106345242Y-75758852D01*
X106336962Y-75766387D01*
X106330482Y-75770500D01*
X106315352Y-75786612D01*
X106283856Y-75820152D01*
X106281101Y-75822994D01*
X106261365Y-75842730D01*
X106258885Y-75845927D01*
X106251182Y-75854947D01*
X106220914Y-75887179D01*
X106217095Y-75894125D01*
X106217093Y-75894128D01*
X106211152Y-75904934D01*
X106200301Y-75921453D01*
X106187886Y-75937459D01*
X106184741Y-75944728D01*
X106184738Y-75944732D01*
X106170326Y-75978037D01*
X106165109Y-75988687D01*
X106143805Y-76027440D01*
X106141834Y-76035115D01*
X106141834Y-76035116D01*
X106138767Y-76047062D01*
X106132363Y-76065766D01*
X106124319Y-76084355D01*
X106123080Y-76092178D01*
X106123077Y-76092188D01*
X106117401Y-76128024D01*
X106114995Y-76139644D01*
X106111271Y-76154151D01*
X106104000Y-76182470D01*
X106104000Y-76202724D01*
X106102449Y-76222434D01*
X106099280Y-76242443D01*
X106096474Y-76241999D01*
X106078574Y-76296594D01*
X106023494Y-76341389D01*
X105952939Y-76349295D01*
X105900693Y-76327134D01*
X105812094Y-76262763D01*
X105812093Y-76262762D01*
X105806752Y-76258882D01*
X105800724Y-76256198D01*
X105800722Y-76256197D01*
X105638319Y-76183891D01*
X105638318Y-76183891D01*
X105632288Y-76181206D01*
X105508943Y-76154988D01*
X105451944Y-76142872D01*
X105451939Y-76142872D01*
X105445487Y-76141500D01*
X105389595Y-76141500D01*
X105321474Y-76121498D01*
X105300500Y-76104595D01*
X103385804Y-74189899D01*
X117187569Y-74189899D01*
X117198180Y-74459963D01*
X117246737Y-74725837D01*
X117248146Y-74730060D01*
X117316505Y-74934956D01*
X117332272Y-74982217D01*
X117356845Y-75031395D01*
X117448865Y-75215555D01*
X117453078Y-75223987D01*
X117455607Y-75227646D01*
X117595785Y-75430467D01*
X117606744Y-75446324D01*
X117699213Y-75546356D01*
X117780905Y-75634729D01*
X117790205Y-75644790D01*
X117999799Y-75815427D01*
X118003617Y-75817726D01*
X118003619Y-75817727D01*
X118135959Y-75897402D01*
X118231346Y-75954830D01*
X118235441Y-75956564D01*
X118235443Y-75956565D01*
X118476124Y-76058480D01*
X118476131Y-76058482D01*
X118480225Y-76060216D01*
X118501157Y-76065766D01*
X118737172Y-76128345D01*
X118737177Y-76128346D01*
X118741469Y-76129484D01*
X118745878Y-76130006D01*
X118745884Y-76130007D01*
X118881933Y-76146109D01*
X119009868Y-76161251D01*
X119280064Y-76154883D01*
X119284459Y-76154151D01*
X119284464Y-76154151D01*
X119542267Y-76111241D01*
X119542271Y-76111240D01*
X119546669Y-76110508D01*
X119747283Y-76047062D01*
X119800114Y-76030354D01*
X119800116Y-76030353D01*
X119804360Y-76029011D01*
X119808371Y-76027085D01*
X119808376Y-76027083D01*
X120043979Y-75913948D01*
X120043980Y-75913947D01*
X120047998Y-75912018D01*
X120225470Y-75793435D01*
X120269013Y-75764341D01*
X120269017Y-75764338D01*
X120272721Y-75761863D01*
X120276038Y-75758892D01*
X120276042Y-75758889D01*
X120454594Y-75598964D01*
X120474045Y-75581542D01*
X120647953Y-75374654D01*
X120651431Y-75369078D01*
X120788614Y-75149111D01*
X120788615Y-75149109D01*
X120790975Y-75145325D01*
X120795660Y-75134729D01*
X120854298Y-75002091D01*
X120900258Y-74898133D01*
X120973620Y-74638008D01*
X120979867Y-74591500D01*
X121009172Y-74373324D01*
X121009173Y-74373316D01*
X121009599Y-74370142D01*
X121009700Y-74366931D01*
X121013274Y-74253222D01*
X121013274Y-74253217D01*
X121013375Y-74250000D01*
X121012895Y-74243213D01*
X121009120Y-74189899D01*
X123387569Y-74189899D01*
X123398180Y-74459963D01*
X123446737Y-74725837D01*
X123448146Y-74730060D01*
X123516505Y-74934956D01*
X123532272Y-74982217D01*
X123556845Y-75031395D01*
X123648865Y-75215555D01*
X123653078Y-75223987D01*
X123655607Y-75227646D01*
X123795785Y-75430467D01*
X123806744Y-75446324D01*
X123899213Y-75546356D01*
X123980905Y-75634729D01*
X123990205Y-75644790D01*
X124199799Y-75815427D01*
X124203617Y-75817726D01*
X124203619Y-75817727D01*
X124335959Y-75897402D01*
X124431346Y-75954830D01*
X124435441Y-75956564D01*
X124435443Y-75956565D01*
X124676124Y-76058480D01*
X124676131Y-76058482D01*
X124680225Y-76060216D01*
X124701157Y-76065766D01*
X124937172Y-76128345D01*
X124937177Y-76128346D01*
X124941469Y-76129484D01*
X124945878Y-76130006D01*
X124945884Y-76130007D01*
X125081933Y-76146109D01*
X125209868Y-76161251D01*
X125480064Y-76154883D01*
X125484459Y-76154151D01*
X125484464Y-76154151D01*
X125742267Y-76111241D01*
X125742271Y-76111240D01*
X125746669Y-76110508D01*
X125947283Y-76047062D01*
X126000114Y-76030354D01*
X126000116Y-76030353D01*
X126004360Y-76029011D01*
X126008371Y-76027085D01*
X126008376Y-76027083D01*
X126243979Y-75913948D01*
X126243980Y-75913947D01*
X126247998Y-75912018D01*
X126425470Y-75793435D01*
X126469013Y-75764341D01*
X126469017Y-75764338D01*
X126472721Y-75761863D01*
X126476038Y-75758892D01*
X126476042Y-75758889D01*
X126654594Y-75598964D01*
X126674045Y-75581542D01*
X126847953Y-75374654D01*
X126851431Y-75369078D01*
X126988614Y-75149111D01*
X126988615Y-75149109D01*
X126990975Y-75145325D01*
X126995660Y-75134729D01*
X127054298Y-75002091D01*
X127100258Y-74898133D01*
X127173620Y-74638008D01*
X127179867Y-74591500D01*
X127209172Y-74373324D01*
X127209173Y-74373316D01*
X127209599Y-74370142D01*
X127209700Y-74366931D01*
X127213274Y-74253222D01*
X127213274Y-74253217D01*
X127213375Y-74250000D01*
X127212895Y-74243213D01*
X127194602Y-73984852D01*
X127194287Y-73980403D01*
X127137402Y-73716185D01*
X127117801Y-73663053D01*
X127045397Y-73466796D01*
X127043856Y-73462619D01*
X127014510Y-73408231D01*
X126917629Y-73228678D01*
X126917629Y-73228677D01*
X126915516Y-73224762D01*
X126754942Y-73007362D01*
X126701922Y-72953502D01*
X126568469Y-72817937D01*
X126565338Y-72814756D01*
X126488556Y-72756158D01*
X126354028Y-72653489D01*
X126354024Y-72653487D01*
X126350487Y-72650787D01*
X126114675Y-72518727D01*
X125862609Y-72421210D01*
X125858284Y-72420207D01*
X125858279Y-72420206D01*
X125752748Y-72395746D01*
X125599318Y-72360182D01*
X125330054Y-72336861D01*
X125325619Y-72337105D01*
X125325615Y-72337105D01*
X125064634Y-72351468D01*
X125064627Y-72351469D01*
X125060191Y-72351713D01*
X124958844Y-72371872D01*
X124799484Y-72403570D01*
X124799479Y-72403571D01*
X124795112Y-72404440D01*
X124790909Y-72405916D01*
X124544315Y-72492513D01*
X124544312Y-72492514D01*
X124540107Y-72493991D01*
X124536154Y-72496044D01*
X124536148Y-72496047D01*
X124492488Y-72518727D01*
X124300264Y-72618580D01*
X124296649Y-72621163D01*
X124296643Y-72621167D01*
X124083990Y-72773131D01*
X124083986Y-72773134D01*
X124080369Y-72775719D01*
X124077149Y-72778791D01*
X123888365Y-72958882D01*
X123884808Y-72962275D01*
X123801713Y-73067681D01*
X123746668Y-73137506D01*
X123717485Y-73174524D01*
X123715253Y-73178366D01*
X123715250Y-73178371D01*
X123583974Y-73404377D01*
X123583971Y-73404384D01*
X123581736Y-73408231D01*
X123480272Y-73658735D01*
X123479201Y-73663048D01*
X123479199Y-73663053D01*
X123439575Y-73822568D01*
X123415116Y-73921035D01*
X123414662Y-73925463D01*
X123414662Y-73925465D01*
X123408022Y-73990271D01*
X123387569Y-74189899D01*
X121009120Y-74189899D01*
X120994602Y-73984852D01*
X120994287Y-73980403D01*
X120937402Y-73716185D01*
X120917801Y-73663053D01*
X120845397Y-73466796D01*
X120843856Y-73462619D01*
X120814510Y-73408231D01*
X120717629Y-73228678D01*
X120717629Y-73228677D01*
X120715516Y-73224762D01*
X120554942Y-73007362D01*
X120501922Y-72953502D01*
X120368469Y-72817937D01*
X120365338Y-72814756D01*
X120288556Y-72756158D01*
X120154028Y-72653489D01*
X120154024Y-72653487D01*
X120150487Y-72650787D01*
X119914675Y-72518727D01*
X119662609Y-72421210D01*
X119658284Y-72420207D01*
X119658279Y-72420206D01*
X119552748Y-72395746D01*
X119399318Y-72360182D01*
X119130054Y-72336861D01*
X119125619Y-72337105D01*
X119125615Y-72337105D01*
X118864634Y-72351468D01*
X118864627Y-72351469D01*
X118860191Y-72351713D01*
X118758844Y-72371872D01*
X118599484Y-72403570D01*
X118599479Y-72403571D01*
X118595112Y-72404440D01*
X118590909Y-72405916D01*
X118344315Y-72492513D01*
X118344312Y-72492514D01*
X118340107Y-72493991D01*
X118336154Y-72496044D01*
X118336148Y-72496047D01*
X118292488Y-72518727D01*
X118100264Y-72618580D01*
X118096649Y-72621163D01*
X118096643Y-72621167D01*
X117883990Y-72773131D01*
X117883986Y-72773134D01*
X117880369Y-72775719D01*
X117877149Y-72778791D01*
X117688365Y-72958882D01*
X117684808Y-72962275D01*
X117601713Y-73067681D01*
X117546668Y-73137506D01*
X117517485Y-73174524D01*
X117515253Y-73178366D01*
X117515250Y-73178371D01*
X117383974Y-73404377D01*
X117383971Y-73404384D01*
X117381736Y-73408231D01*
X117280272Y-73658735D01*
X117279201Y-73663048D01*
X117279199Y-73663053D01*
X117239575Y-73822568D01*
X117215116Y-73921035D01*
X117214662Y-73925463D01*
X117214662Y-73925465D01*
X117208022Y-73990271D01*
X117187569Y-74189899D01*
X103385804Y-74189899D01*
X101506820Y-72310915D01*
X127792001Y-72310915D01*
X127792061Y-72313672D01*
X127794601Y-72371855D01*
X127795317Y-72378972D01*
X127837999Y-72648453D01*
X127839978Y-72657023D01*
X127919504Y-72917143D01*
X127922655Y-72925353D01*
X128037613Y-73171882D01*
X128041876Y-73179572D01*
X128190024Y-73407700D01*
X128195314Y-73414719D01*
X128373783Y-73620024D01*
X128379976Y-73626217D01*
X128585281Y-73804686D01*
X128592300Y-73809976D01*
X128820428Y-73958124D01*
X128828118Y-73962387D01*
X129074647Y-74077345D01*
X129082857Y-74080496D01*
X129342977Y-74160022D01*
X129351547Y-74162001D01*
X129528106Y-74189966D01*
X129541789Y-74188198D01*
X129546000Y-74174226D01*
X129546000Y-71472115D01*
X129541525Y-71456876D01*
X129540135Y-71455671D01*
X129532452Y-71454000D01*
X127810116Y-71454000D01*
X127794877Y-71458475D01*
X127793672Y-71459865D01*
X127792001Y-71467548D01*
X127792001Y-72310915D01*
X101506820Y-72310915D01*
X101103652Y-71907747D01*
X101096112Y-71899461D01*
X101092000Y-71892982D01*
X101042348Y-71846356D01*
X101039507Y-71843602D01*
X101019770Y-71823865D01*
X101016573Y-71821385D01*
X101007551Y-71813680D01*
X100994116Y-71801064D01*
X100975321Y-71783414D01*
X100968375Y-71779595D01*
X100968372Y-71779593D01*
X100957566Y-71773652D01*
X100941047Y-71762801D01*
X100940583Y-71762441D01*
X100925041Y-71750386D01*
X100917772Y-71747241D01*
X100917768Y-71747238D01*
X100884463Y-71732826D01*
X100873813Y-71727609D01*
X100835060Y-71706305D01*
X100815437Y-71701267D01*
X100796734Y-71694863D01*
X100785420Y-71689967D01*
X100785419Y-71689967D01*
X100778145Y-71686819D01*
X100770322Y-71685580D01*
X100770312Y-71685577D01*
X100734476Y-71679901D01*
X100722856Y-71677495D01*
X100687711Y-71668472D01*
X100687710Y-71668472D01*
X100680030Y-71666500D01*
X100659776Y-71666500D01*
X100640065Y-71664949D01*
X100627886Y-71663020D01*
X100620057Y-71661780D01*
X100590786Y-71664547D01*
X100576039Y-71665941D01*
X100564181Y-71666500D01*
X82360650Y-71666500D01*
X82349467Y-71665973D01*
X82341974Y-71664298D01*
X82334048Y-71664547D01*
X82334047Y-71664547D01*
X82273897Y-71666438D01*
X82269938Y-71666500D01*
X82242027Y-71666500D01*
X82238093Y-71666997D01*
X82238092Y-71666997D01*
X82238027Y-71667005D01*
X82226190Y-71667938D01*
X82194373Y-71668938D01*
X82189912Y-71669078D01*
X82181993Y-71669327D01*
X82164337Y-71674456D01*
X82162541Y-71674978D01*
X82143189Y-71678986D01*
X82136118Y-71679880D01*
X82123086Y-71681526D01*
X82115717Y-71684443D01*
X82115715Y-71684444D01*
X82081980Y-71697800D01*
X82070752Y-71701645D01*
X82028290Y-71713982D01*
X82021468Y-71718016D01*
X82021462Y-71718019D01*
X82010851Y-71724294D01*
X81993101Y-71732990D01*
X81981639Y-71737528D01*
X81981634Y-71737531D01*
X81974266Y-71740448D01*
X81956853Y-71753099D01*
X81938508Y-71766427D01*
X81928590Y-71772943D01*
X81917346Y-71779593D01*
X81890520Y-71795458D01*
X81876196Y-71809782D01*
X81861164Y-71822621D01*
X81844776Y-71834528D01*
X81816595Y-71868593D01*
X81808605Y-71877373D01*
X79756383Y-73929595D01*
X79694071Y-73963621D01*
X79667288Y-73966500D01*
X79565576Y-73966500D01*
X79497455Y-73946498D01*
X79450962Y-73892842D01*
X79440858Y-73822568D01*
X79470352Y-73757988D01*
X79482912Y-73745407D01*
X79620024Y-73626217D01*
X79626217Y-73620024D01*
X79804686Y-73414719D01*
X79809976Y-73407700D01*
X79958124Y-73179572D01*
X79962387Y-73171882D01*
X80077345Y-72925353D01*
X80080496Y-72917143D01*
X80160022Y-72657023D01*
X80162001Y-72648453D01*
X80204685Y-72378956D01*
X80205399Y-72371872D01*
X80207940Y-72313669D01*
X80208000Y-72310917D01*
X80208000Y-71472115D01*
X80203525Y-71456876D01*
X80202135Y-71455671D01*
X80194452Y-71454000D01*
X78072000Y-71454000D01*
X78003879Y-71433998D01*
X77957386Y-71380342D01*
X77946000Y-71328000D01*
X77946000Y-71072000D01*
X77966002Y-71003879D01*
X78019658Y-70957386D01*
X78072000Y-70946000D01*
X80189884Y-70946000D01*
X80205123Y-70941525D01*
X80206328Y-70940135D01*
X80207999Y-70932452D01*
X80207999Y-70089086D01*
X80207939Y-70086328D01*
X80205399Y-70028145D01*
X80204683Y-70021028D01*
X80162001Y-69751547D01*
X80160022Y-69742977D01*
X80080496Y-69482857D01*
X80077345Y-69474647D01*
X79962387Y-69228118D01*
X79958126Y-69220431D01*
X79946562Y-69202624D01*
X79926236Y-69134599D01*
X79945915Y-69066384D01*
X79999349Y-69019636D01*
X80052235Y-69008000D01*
X127947765Y-69008000D01*
X128015886Y-69028002D01*
G37*
%TD.AperFunction*%
%TA.AperFunction,Conductor*%
G36*
X86904513Y-94908500D02*
G01*
X86960406Y-94908500D01*
X87028527Y-94928502D01*
X87049501Y-94945405D01*
X91996343Y-99892247D01*
X92003887Y-99900537D01*
X92008000Y-99907018D01*
X92013777Y-99912443D01*
X92057667Y-99953658D01*
X92060509Y-99956413D01*
X92080231Y-99976135D01*
X92083355Y-99978558D01*
X92083359Y-99978562D01*
X92083424Y-99978612D01*
X92092445Y-99986317D01*
X92124679Y-100016586D01*
X92131627Y-100020405D01*
X92131629Y-100020407D01*
X92142432Y-100026346D01*
X92158959Y-100037202D01*
X92168698Y-100044757D01*
X92168700Y-100044758D01*
X92174960Y-100049614D01*
X92215540Y-100067174D01*
X92226188Y-100072391D01*
X92264940Y-100093695D01*
X92272616Y-100095666D01*
X92272619Y-100095667D01*
X92284562Y-100098733D01*
X92303266Y-100105137D01*
X92312695Y-100109217D01*
X92321855Y-100113181D01*
X92329678Y-100114420D01*
X92329688Y-100114423D01*
X92365524Y-100120099D01*
X92377144Y-100122505D01*
X92412289Y-100131528D01*
X92419970Y-100133500D01*
X92440224Y-100133500D01*
X92459934Y-100135051D01*
X92479943Y-100138220D01*
X92487835Y-100137474D01*
X92523961Y-100134059D01*
X92535819Y-100133500D01*
X93026405Y-100133500D01*
X93094526Y-100153502D01*
X93141019Y-100207158D01*
X93151123Y-100277432D01*
X93121629Y-100342012D01*
X93115506Y-100348589D01*
X92917344Y-100546751D01*
X92855032Y-100580776D01*
X92806153Y-100581702D01*
X92593373Y-100543800D01*
X92593367Y-100543799D01*
X92588284Y-100542894D01*
X92514452Y-100541992D01*
X92370081Y-100540228D01*
X92370079Y-100540228D01*
X92364911Y-100540165D01*
X92144091Y-100573955D01*
X91931756Y-100643357D01*
X91904353Y-100657622D01*
X91757975Y-100733822D01*
X91733607Y-100746507D01*
X91729474Y-100749610D01*
X91729471Y-100749612D01*
X91559100Y-100877530D01*
X91554965Y-100880635D01*
X91551393Y-100884373D01*
X91443729Y-100997037D01*
X91400629Y-101042138D01*
X91293201Y-101199621D01*
X91238293Y-101244621D01*
X91167768Y-101252792D01*
X91104021Y-101221538D01*
X91083324Y-101197054D01*
X91002822Y-101072617D01*
X91002820Y-101072614D01*
X91000014Y-101068277D01*
X90849670Y-100903051D01*
X90845619Y-100899852D01*
X90845615Y-100899848D01*
X90678414Y-100767800D01*
X90678410Y-100767798D01*
X90674359Y-100764598D01*
X90669831Y-100762098D01*
X90610853Y-100729541D01*
X90478789Y-100656638D01*
X90473920Y-100654914D01*
X90473916Y-100654912D01*
X90273087Y-100583795D01*
X90273083Y-100583794D01*
X90268212Y-100582069D01*
X90263119Y-100581162D01*
X90263116Y-100581161D01*
X90053373Y-100543800D01*
X90053367Y-100543799D01*
X90048284Y-100542894D01*
X89974452Y-100541992D01*
X89830081Y-100540228D01*
X89830079Y-100540228D01*
X89824911Y-100540165D01*
X89604091Y-100573955D01*
X89391756Y-100643357D01*
X89364353Y-100657622D01*
X89217975Y-100733822D01*
X89193607Y-100746507D01*
X89189474Y-100749610D01*
X89189471Y-100749612D01*
X89019100Y-100877530D01*
X89014965Y-100880635D01*
X89011393Y-100884373D01*
X88903729Y-100997037D01*
X88860629Y-101042138D01*
X88753201Y-101199621D01*
X88698293Y-101244621D01*
X88627768Y-101252792D01*
X88564021Y-101221538D01*
X88543324Y-101197054D01*
X88462822Y-101072617D01*
X88462820Y-101072614D01*
X88460014Y-101068277D01*
X88309670Y-100903051D01*
X88305619Y-100899852D01*
X88305615Y-100899848D01*
X88138414Y-100767800D01*
X88138410Y-100767798D01*
X88134359Y-100764598D01*
X88129831Y-100762098D01*
X88070853Y-100729541D01*
X87938789Y-100656638D01*
X87933920Y-100654914D01*
X87933916Y-100654912D01*
X87733087Y-100583795D01*
X87733083Y-100583794D01*
X87728212Y-100582069D01*
X87723119Y-100581162D01*
X87723116Y-100581161D01*
X87513373Y-100543800D01*
X87513367Y-100543799D01*
X87508284Y-100542894D01*
X87434452Y-100541992D01*
X87290081Y-100540228D01*
X87290079Y-100540228D01*
X87284911Y-100540165D01*
X87064091Y-100573955D01*
X86851756Y-100643357D01*
X86824353Y-100657622D01*
X86677975Y-100733822D01*
X86653607Y-100746507D01*
X86649474Y-100749610D01*
X86649471Y-100749612D01*
X86479100Y-100877530D01*
X86474965Y-100880635D01*
X86471393Y-100884373D01*
X86363729Y-100997037D01*
X86320629Y-101042138D01*
X86213201Y-101199621D01*
X86158293Y-101244621D01*
X86087768Y-101252792D01*
X86024021Y-101221538D01*
X86003324Y-101197054D01*
X85922822Y-101072617D01*
X85922820Y-101072614D01*
X85920014Y-101068277D01*
X85769670Y-100903051D01*
X85765619Y-100899852D01*
X85765615Y-100899848D01*
X85598414Y-100767800D01*
X85598410Y-100767798D01*
X85594359Y-100764598D01*
X85589835Y-100762101D01*
X85589831Y-100762098D01*
X85538608Y-100733822D01*
X85488636Y-100683390D01*
X85473500Y-100623513D01*
X85473500Y-98974595D01*
X85493502Y-98906474D01*
X85510405Y-98885499D01*
X85937023Y-98458882D01*
X86392258Y-98003647D01*
X86400537Y-97996113D01*
X86407018Y-97992000D01*
X86453644Y-97942348D01*
X86456398Y-97939507D01*
X86476135Y-97919770D01*
X86478615Y-97916573D01*
X86486320Y-97907551D01*
X86487583Y-97906206D01*
X86516586Y-97875321D01*
X86520405Y-97868375D01*
X86520407Y-97868372D01*
X86526348Y-97857566D01*
X86537199Y-97841047D01*
X86537799Y-97840273D01*
X86549614Y-97825041D01*
X86552759Y-97817772D01*
X86552762Y-97817768D01*
X86567174Y-97784463D01*
X86572391Y-97773813D01*
X86593695Y-97735060D01*
X86598733Y-97715437D01*
X86605137Y-97696734D01*
X86610033Y-97685420D01*
X86610033Y-97685419D01*
X86613181Y-97678145D01*
X86614420Y-97670322D01*
X86614423Y-97670312D01*
X86620099Y-97634476D01*
X86622505Y-97622856D01*
X86631528Y-97587711D01*
X86631528Y-97587710D01*
X86633500Y-97580030D01*
X86633500Y-97559776D01*
X86635051Y-97540065D01*
X86636980Y-97527886D01*
X86638220Y-97520057D01*
X86634059Y-97476038D01*
X86633500Y-97464181D01*
X86633500Y-95202524D01*
X86653502Y-95134403D01*
X86665858Y-95118221D01*
X86739040Y-95036944D01*
X86777888Y-94969658D01*
X86829270Y-94920666D01*
X86899606Y-94907457D01*
X86904513Y-94908500D01*
G37*
%TD.AperFunction*%
%TA.AperFunction,Conductor*%
G36*
X86086121Y-91666002D02*
G01*
X86132614Y-91719658D01*
X86144000Y-91772000D01*
X86144000Y-92857564D01*
X86147973Y-92871095D01*
X86156188Y-92872276D01*
X86250337Y-92845989D01*
X86261787Y-92841548D01*
X86427226Y-92757979D01*
X86437588Y-92751403D01*
X86446074Y-92744773D01*
X86512068Y-92718595D01*
X86585117Y-92734074D01*
X86754294Y-92828624D01*
X86760154Y-92830528D01*
X86855572Y-92861531D01*
X86914178Y-92901604D01*
X86941815Y-92967001D01*
X86929708Y-93036958D01*
X86881702Y-93089264D01*
X86842835Y-93104610D01*
X86717712Y-93131206D01*
X86711682Y-93133891D01*
X86711681Y-93133891D01*
X86549278Y-93206197D01*
X86549276Y-93206198D01*
X86543248Y-93208882D01*
X86388747Y-93321134D01*
X86384326Y-93326044D01*
X86384325Y-93326045D01*
X86275203Y-93447238D01*
X86260960Y-93463056D01*
X86227251Y-93521441D01*
X86222113Y-93530341D01*
X86170730Y-93579334D01*
X86100394Y-93592543D01*
X86095487Y-93591500D01*
X85904513Y-93591500D01*
X85898061Y-93592872D01*
X85898056Y-93592872D01*
X85811113Y-93611353D01*
X85717712Y-93631206D01*
X85711682Y-93633891D01*
X85711681Y-93633891D01*
X85549278Y-93706197D01*
X85549276Y-93706198D01*
X85543248Y-93708882D01*
X85388747Y-93821134D01*
X85384326Y-93826044D01*
X85384325Y-93826045D01*
X85272690Y-93950029D01*
X85260960Y-93963056D01*
X85165473Y-94128444D01*
X85106458Y-94310072D01*
X85105768Y-94316633D01*
X85105768Y-94316635D01*
X85100568Y-94366109D01*
X85086496Y-94500000D01*
X85087186Y-94506565D01*
X85105740Y-94683093D01*
X85106458Y-94689928D01*
X85165473Y-94871556D01*
X85168776Y-94877278D01*
X85168777Y-94877279D01*
X85186139Y-94907350D01*
X85260960Y-95036944D01*
X85334137Y-95118215D01*
X85364853Y-95182221D01*
X85366500Y-95202524D01*
X85366500Y-97185405D01*
X85346498Y-97253526D01*
X85329595Y-97274501D01*
X84888657Y-97715438D01*
X84447742Y-98156353D01*
X84439463Y-98163887D01*
X84432982Y-98168000D01*
X84392633Y-98210968D01*
X84386357Y-98217651D01*
X84383602Y-98220493D01*
X84363865Y-98240230D01*
X84361385Y-98243427D01*
X84353682Y-98252447D01*
X84323414Y-98284679D01*
X84319595Y-98291625D01*
X84319593Y-98291628D01*
X84313652Y-98302434D01*
X84302801Y-98318953D01*
X84290386Y-98334959D01*
X84287241Y-98342228D01*
X84287238Y-98342232D01*
X84272826Y-98375537D01*
X84267609Y-98386187D01*
X84246305Y-98424940D01*
X84244334Y-98432615D01*
X84244334Y-98432616D01*
X84241267Y-98444562D01*
X84234863Y-98463266D01*
X84232252Y-98469301D01*
X84226819Y-98481855D01*
X84225580Y-98489678D01*
X84225577Y-98489688D01*
X84219901Y-98525524D01*
X84217495Y-98537144D01*
X84208769Y-98571134D01*
X84206500Y-98579970D01*
X84206500Y-98600224D01*
X84204949Y-98619934D01*
X84201780Y-98639943D01*
X84202526Y-98647835D01*
X84205941Y-98683961D01*
X84206500Y-98695819D01*
X84206500Y-100621692D01*
X84186498Y-100689813D01*
X84138683Y-100733453D01*
X84113607Y-100746507D01*
X84109474Y-100749610D01*
X84109471Y-100749612D01*
X83939100Y-100877530D01*
X83934965Y-100880635D01*
X83863787Y-100955119D01*
X83854283Y-100965064D01*
X83792759Y-101000494D01*
X83721846Y-100997037D01*
X83664060Y-100955791D01*
X83645207Y-100922243D01*
X83603767Y-100811703D01*
X83600615Y-100803295D01*
X83513261Y-100686739D01*
X83396705Y-100599385D01*
X83260316Y-100548255D01*
X83198134Y-100541500D01*
X82584989Y-100541500D01*
X82516868Y-100521498D01*
X82470375Y-100467842D01*
X82458989Y-100415500D01*
X82458989Y-93739106D01*
X82478991Y-93670985D01*
X82495894Y-93650010D01*
X83200501Y-92945404D01*
X83262813Y-92911379D01*
X83289596Y-92908500D01*
X83898134Y-92908500D01*
X83960316Y-92901745D01*
X84096705Y-92850615D01*
X84103892Y-92845229D01*
X84111760Y-92840921D01*
X84112975Y-92843141D01*
X84166928Y-92822986D01*
X84214916Y-92828827D01*
X84372187Y-92879926D01*
X84402392Y-92889740D01*
X84598777Y-92913158D01*
X84604912Y-92912686D01*
X84604914Y-92912686D01*
X84789830Y-92898457D01*
X84789834Y-92898456D01*
X84795972Y-92897984D01*
X84986463Y-92844798D01*
X84991967Y-92842018D01*
X84991969Y-92842017D01*
X85157493Y-92758405D01*
X85157495Y-92758404D01*
X85162996Y-92755625D01*
X85167858Y-92751827D01*
X85176973Y-92744705D01*
X85242967Y-92718525D01*
X85316020Y-92734004D01*
X85479121Y-92825159D01*
X85490356Y-92830067D01*
X85618768Y-92871790D01*
X85632867Y-92872193D01*
X85636000Y-92865821D01*
X85636000Y-91772000D01*
X85656002Y-91703879D01*
X85709658Y-91657386D01*
X85762000Y-91646000D01*
X86018000Y-91646000D01*
X86086121Y-91666002D01*
G37*
%TD.AperFunction*%
%TA.AperFunction,Conductor*%
G36*
X106052009Y-94178013D02*
G01*
X106098502Y-94231669D01*
X106108606Y-94301943D01*
X106108008Y-94305301D01*
X106106458Y-94310072D01*
X106095252Y-94416689D01*
X106089093Y-94475293D01*
X106062080Y-94540950D01*
X106052878Y-94551218D01*
X105909548Y-94694548D01*
X105847236Y-94728574D01*
X105776421Y-94723509D01*
X105719585Y-94680962D01*
X105714660Y-94673892D01*
X105675026Y-94612626D01*
X105664341Y-94603424D01*
X105654776Y-94607827D01*
X103788701Y-96473902D01*
X103781941Y-96486282D01*
X103787222Y-96493336D01*
X103948720Y-96587708D01*
X103958007Y-96592158D01*
X104084969Y-96640640D01*
X104141472Y-96683628D01*
X104165765Y-96750339D01*
X104166020Y-96758350D01*
X104166020Y-97954034D01*
X104146018Y-98022155D01*
X104092362Y-98068648D01*
X104022088Y-98078752D01*
X104013823Y-98077281D01*
X103851944Y-98042872D01*
X103851939Y-98042872D01*
X103845487Y-98041500D01*
X103838885Y-98041500D01*
X103832318Y-98040810D01*
X103832465Y-98039407D01*
X103771473Y-98021498D01*
X103750499Y-98004595D01*
X102556847Y-96810942D01*
X102522821Y-96748630D01*
X102527886Y-96677814D01*
X102556847Y-96632752D01*
X103170144Y-96019455D01*
X103232456Y-95985429D01*
X103303271Y-95990494D01*
X103360107Y-96033041D01*
X103366672Y-96042715D01*
X103408424Y-96110849D01*
X103418880Y-96120309D01*
X103427658Y-96116525D01*
X105295353Y-94248830D01*
X105309117Y-94223624D01*
X105359320Y-94173423D01*
X105419704Y-94158011D01*
X105983888Y-94158011D01*
X106052009Y-94178013D01*
G37*
%TD.AperFunction*%
%TA.AperFunction,Conductor*%
G36*
X95483452Y-96232341D02*
G01*
X95497503Y-96252034D01*
X95560960Y-96361944D01*
X95565378Y-96366851D01*
X95565379Y-96366852D01*
X95677635Y-96491525D01*
X95688747Y-96503866D01*
X95843248Y-96616118D01*
X95849276Y-96618802D01*
X95849278Y-96618803D01*
X96011681Y-96691109D01*
X96017712Y-96693794D01*
X96111113Y-96713647D01*
X96198056Y-96732128D01*
X96198061Y-96732128D01*
X96204513Y-96733500D01*
X96395487Y-96733500D01*
X96401939Y-96732128D01*
X96401944Y-96732128D01*
X96488887Y-96713647D01*
X96582288Y-96693794D01*
X96588319Y-96691109D01*
X96750722Y-96618803D01*
X96750724Y-96618802D01*
X96756752Y-96616118D01*
X96762093Y-96612237D01*
X96767811Y-96608936D01*
X96769013Y-96611017D01*
X96825591Y-96590836D01*
X96894741Y-96606923D01*
X96921864Y-96627533D01*
X97799257Y-97504927D01*
X97833281Y-97567237D01*
X97828216Y-97638053D01*
X97812965Y-97666460D01*
X97808903Y-97670786D01*
X97805086Y-97677728D01*
X97805085Y-97677730D01*
X97799141Y-97688541D01*
X97788290Y-97705060D01*
X97775875Y-97721066D01*
X97772730Y-97728335D01*
X97772727Y-97728339D01*
X97758315Y-97761644D01*
X97753094Y-97772303D01*
X97749961Y-97778001D01*
X97737200Y-97801213D01*
X97686855Y-97851271D01*
X97626786Y-97866511D01*
X95649031Y-97866511D01*
X95580910Y-97846509D01*
X95534417Y-97792853D01*
X95524313Y-97722579D01*
X95529472Y-97700740D01*
X95533531Y-97688541D01*
X95538197Y-97674513D01*
X95562985Y-97478295D01*
X95563380Y-97450000D01*
X95544080Y-97253167D01*
X95486916Y-97063831D01*
X95394066Y-96889204D01*
X95322536Y-96801500D01*
X95272960Y-96740713D01*
X95272957Y-96740710D01*
X95269065Y-96735938D01*
X95262317Y-96730355D01*
X95121428Y-96613802D01*
X95116675Y-96609870D01*
X95111249Y-96606936D01*
X95106945Y-96604033D01*
X95061656Y-96549357D01*
X95053116Y-96478876D01*
X95084036Y-96414967D01*
X95099831Y-96400285D01*
X95243991Y-96287655D01*
X95248847Y-96283861D01*
X95293004Y-96232704D01*
X95352656Y-96194207D01*
X95423652Y-96194071D01*
X95483452Y-96232341D01*
G37*
%TD.AperFunction*%
%TA.AperFunction,Conductor*%
G36*
X86842814Y-86653502D02*
G01*
X86889307Y-86707158D01*
X86899411Y-86777432D01*
X86868329Y-86843810D01*
X86773830Y-86948762D01*
X86760960Y-86963056D01*
X86665473Y-87128444D01*
X86606458Y-87310072D01*
X86605768Y-87316633D01*
X86605768Y-87316635D01*
X86592536Y-87442529D01*
X86586496Y-87500000D01*
X86587186Y-87506565D01*
X86602973Y-87656766D01*
X86606458Y-87689928D01*
X86665473Y-87871556D01*
X86668776Y-87877278D01*
X86668777Y-87877279D01*
X86685760Y-87906694D01*
X86702498Y-87975689D01*
X86679278Y-88042781D01*
X86650702Y-88071630D01*
X86513747Y-88171134D01*
X86509326Y-88176044D01*
X86509325Y-88176045D01*
X86391216Y-88307219D01*
X86385960Y-88313056D01*
X86339013Y-88394371D01*
X86295273Y-88470131D01*
X86290473Y-88478444D01*
X86231458Y-88660072D01*
X86230768Y-88666633D01*
X86230768Y-88666635D01*
X86216800Y-88799534D01*
X86211496Y-88850000D01*
X86212186Y-88856565D01*
X86227632Y-89003522D01*
X86231458Y-89039928D01*
X86290473Y-89221556D01*
X86293776Y-89227278D01*
X86293777Y-89227279D01*
X86293903Y-89227497D01*
X86293937Y-89227639D01*
X86296461Y-89233307D01*
X86295425Y-89233768D01*
X86310643Y-89296492D01*
X86287425Y-89363584D01*
X86231619Y-89407473D01*
X86184786Y-89416500D01*
X84578768Y-89416500D01*
X84567585Y-89415973D01*
X84560092Y-89414298D01*
X84552166Y-89414547D01*
X84552165Y-89414547D01*
X84492002Y-89416438D01*
X84488044Y-89416500D01*
X84460144Y-89416500D01*
X84456154Y-89417004D01*
X84444320Y-89417936D01*
X84400111Y-89419326D01*
X84392495Y-89421539D01*
X84392493Y-89421539D01*
X84380652Y-89424979D01*
X84361293Y-89428988D01*
X84359983Y-89429154D01*
X84341203Y-89431526D01*
X84333837Y-89434442D01*
X84333831Y-89434444D01*
X84300098Y-89447800D01*
X84288868Y-89451645D01*
X84254017Y-89461770D01*
X84246407Y-89463981D01*
X84239584Y-89468016D01*
X84228966Y-89474295D01*
X84211213Y-89482992D01*
X84209958Y-89483489D01*
X84192383Y-89490448D01*
X84185968Y-89495109D01*
X84156612Y-89516437D01*
X84146695Y-89522951D01*
X84108638Y-89545458D01*
X84094317Y-89559779D01*
X84079284Y-89572619D01*
X84062893Y-89584528D01*
X84043684Y-89607748D01*
X84034702Y-89618605D01*
X84026712Y-89627384D01*
X82957747Y-90696348D01*
X82949461Y-90703888D01*
X82942982Y-90708000D01*
X82937557Y-90713777D01*
X82896357Y-90757651D01*
X82893602Y-90760493D01*
X82873865Y-90780230D01*
X82871385Y-90783427D01*
X82863682Y-90792447D01*
X82833414Y-90824679D01*
X82829595Y-90831625D01*
X82829593Y-90831628D01*
X82827247Y-90835895D01*
X82776900Y-90885951D01*
X82746715Y-90897491D01*
X82739684Y-90898255D01*
X82603295Y-90949385D01*
X82486739Y-91036739D01*
X82399385Y-91153295D01*
X82348255Y-91289684D01*
X82341500Y-91351866D01*
X82341500Y-91960405D01*
X82321498Y-92028526D01*
X82304595Y-92049501D01*
X81848595Y-92505500D01*
X81786283Y-92539525D01*
X81715467Y-92534460D01*
X81658632Y-92491913D01*
X81633821Y-92425393D01*
X81633500Y-92416404D01*
X81633500Y-91314594D01*
X81653502Y-91246473D01*
X81670405Y-91225499D01*
X86225500Y-86670405D01*
X86287812Y-86636379D01*
X86314595Y-86633500D01*
X86774693Y-86633500D01*
X86842814Y-86653502D01*
G37*
%TD.AperFunction*%
%TA.AperFunction,Conductor*%
G36*
X79653340Y-86751433D02*
G01*
X79688574Y-86813069D01*
X79692000Y-86842250D01*
X79692000Y-87823798D01*
X79671998Y-87891919D01*
X79618342Y-87938412D01*
X79548068Y-87948516D01*
X79483488Y-87919022D01*
X79460208Y-87892238D01*
X79382822Y-87772617D01*
X79382820Y-87772614D01*
X79380014Y-87768277D01*
X79229670Y-87603051D01*
X79225619Y-87599852D01*
X79225615Y-87599848D01*
X79058414Y-87467800D01*
X79058410Y-87467798D01*
X79054359Y-87464598D01*
X79013053Y-87441796D01*
X78963084Y-87391364D01*
X78948312Y-87321921D01*
X78973428Y-87255516D01*
X79000780Y-87228909D01*
X79059613Y-87186944D01*
X79179860Y-87101173D01*
X79184845Y-87096206D01*
X79312722Y-86968774D01*
X79338096Y-86943489D01*
X79359838Y-86913232D01*
X79463677Y-86768724D01*
X79519672Y-86725076D01*
X79590375Y-86718630D01*
X79653340Y-86751433D01*
G37*
%TD.AperFunction*%
%TA.AperFunction,Conductor*%
G36*
X113529500Y-84378991D02*
G01*
X113575993Y-84432647D01*
X113584845Y-84486829D01*
X113587186Y-84486829D01*
X113587186Y-84493435D01*
X113586496Y-84500000D01*
X113587186Y-84506565D01*
X113605129Y-84677279D01*
X113606458Y-84689928D01*
X113665473Y-84871556D01*
X113668776Y-84877278D01*
X113668777Y-84877279D01*
X113682933Y-84901797D01*
X113760960Y-85036944D01*
X113834137Y-85118215D01*
X113864853Y-85182221D01*
X113866500Y-85202524D01*
X113866500Y-86490423D01*
X113846498Y-86558544D01*
X113792842Y-86605037D01*
X113744466Y-86616361D01*
X113742008Y-86616438D01*
X113738055Y-86616500D01*
X113710144Y-86616500D01*
X113706210Y-86616997D01*
X113706209Y-86616997D01*
X113706144Y-86617005D01*
X113694307Y-86617938D01*
X113662490Y-86618938D01*
X113658029Y-86619078D01*
X113650110Y-86619327D01*
X113632454Y-86624456D01*
X113630658Y-86624978D01*
X113611306Y-86628986D01*
X113604235Y-86629880D01*
X113591203Y-86631526D01*
X113583834Y-86634443D01*
X113583832Y-86634444D01*
X113550097Y-86647800D01*
X113538869Y-86651645D01*
X113496407Y-86663982D01*
X113489585Y-86668016D01*
X113489579Y-86668019D01*
X113478968Y-86674294D01*
X113461218Y-86682990D01*
X113449756Y-86687528D01*
X113449751Y-86687531D01*
X113442383Y-86690448D01*
X113435968Y-86695109D01*
X113406625Y-86716427D01*
X113396707Y-86722943D01*
X113384582Y-86730114D01*
X113358637Y-86745458D01*
X113344313Y-86759782D01*
X113329281Y-86772621D01*
X113312893Y-86784528D01*
X113298263Y-86802213D01*
X113284712Y-86818593D01*
X113276722Y-86827373D01*
X112774500Y-87329595D01*
X112712188Y-87363621D01*
X112685405Y-87366500D01*
X111578768Y-87366500D01*
X111567585Y-87365973D01*
X111560092Y-87364298D01*
X111552166Y-87364547D01*
X111552165Y-87364547D01*
X111492002Y-87366438D01*
X111488044Y-87366500D01*
X111460144Y-87366500D01*
X111456154Y-87367004D01*
X111444320Y-87367936D01*
X111400111Y-87369326D01*
X111392497Y-87371538D01*
X111392492Y-87371539D01*
X111380659Y-87374977D01*
X111361296Y-87378988D01*
X111341203Y-87381526D01*
X111333836Y-87384443D01*
X111333831Y-87384444D01*
X111300092Y-87397802D01*
X111288865Y-87401646D01*
X111246407Y-87413982D01*
X111239581Y-87418019D01*
X111228972Y-87424293D01*
X111211224Y-87432988D01*
X111192383Y-87440448D01*
X111185967Y-87445110D01*
X111185966Y-87445110D01*
X111156613Y-87466436D01*
X111146693Y-87472952D01*
X111115465Y-87491420D01*
X111115462Y-87491422D01*
X111108638Y-87495458D01*
X111094317Y-87509779D01*
X111079284Y-87522619D01*
X111062893Y-87534528D01*
X111057840Y-87540636D01*
X111057838Y-87540638D01*
X111053557Y-87545813D01*
X110994725Y-87585553D01*
X110956471Y-87591500D01*
X110904513Y-87591500D01*
X110898061Y-87592872D01*
X110898056Y-87592872D01*
X110832203Y-87606870D01*
X110717712Y-87631206D01*
X110711682Y-87633891D01*
X110711681Y-87633891D01*
X110549278Y-87706197D01*
X110549276Y-87706198D01*
X110543248Y-87708882D01*
X110535842Y-87714263D01*
X110534445Y-87714762D01*
X110532189Y-87716064D01*
X110531951Y-87715652D01*
X110468976Y-87738125D01*
X110399823Y-87722048D01*
X110350341Y-87671137D01*
X110341943Y-87651269D01*
X110341741Y-87650646D01*
X110334527Y-87628444D01*
X110313990Y-87592872D01*
X110270065Y-87516793D01*
X110239040Y-87463056D01*
X110222882Y-87445110D01*
X110115675Y-87326045D01*
X110115674Y-87326044D01*
X110111253Y-87321134D01*
X110051612Y-87277802D01*
X110008258Y-87221579D01*
X110002183Y-87150843D01*
X110028588Y-87095551D01*
X110040298Y-87081396D01*
X110048288Y-87072616D01*
X110450499Y-86670405D01*
X110512811Y-86636379D01*
X110539594Y-86633500D01*
X110595487Y-86633500D01*
X110601939Y-86632128D01*
X110601944Y-86632128D01*
X110693169Y-86612737D01*
X110782288Y-86593794D01*
X110819467Y-86577241D01*
X110950722Y-86518803D01*
X110950724Y-86518802D01*
X110956752Y-86516118D01*
X110968840Y-86507336D01*
X111033762Y-86460167D01*
X111111253Y-86403866D01*
X111140345Y-86371556D01*
X111234621Y-86266852D01*
X111234622Y-86266851D01*
X111239040Y-86261944D01*
X111314830Y-86130673D01*
X111331223Y-86102279D01*
X111331224Y-86102278D01*
X111334527Y-86096556D01*
X111393542Y-85914928D01*
X111394306Y-85907665D01*
X111412814Y-85731565D01*
X111413504Y-85725000D01*
X111397547Y-85573173D01*
X111394232Y-85541635D01*
X111394232Y-85541633D01*
X111393542Y-85535072D01*
X111334527Y-85353444D01*
X111239040Y-85188056D01*
X111207928Y-85153502D01*
X111115675Y-85051045D01*
X111115674Y-85051044D01*
X111111253Y-85046134D01*
X111010527Y-84972952D01*
X110962094Y-84937763D01*
X110962093Y-84937762D01*
X110956752Y-84933882D01*
X110950724Y-84931198D01*
X110950722Y-84931197D01*
X110788319Y-84858891D01*
X110788318Y-84858891D01*
X110782288Y-84856206D01*
X110685350Y-84835601D01*
X110601944Y-84817872D01*
X110601939Y-84817872D01*
X110595487Y-84816500D01*
X110404513Y-84816500D01*
X110398053Y-84817873D01*
X110398054Y-84817873D01*
X110349180Y-84828261D01*
X110278390Y-84822859D01*
X110221757Y-84780042D01*
X110197264Y-84713404D01*
X110212685Y-84644103D01*
X110233889Y-84615919D01*
X110453914Y-84395894D01*
X110516226Y-84361868D01*
X110543009Y-84358989D01*
X113461379Y-84358989D01*
X113529500Y-84378991D01*
G37*
%TD.AperFunction*%
%TA.AperFunction,Conductor*%
G36*
X79653340Y-84211433D02*
G01*
X79688574Y-84273069D01*
X79692000Y-84302250D01*
X79692000Y-85283798D01*
X79671998Y-85351919D01*
X79618342Y-85398412D01*
X79548068Y-85408516D01*
X79483488Y-85379022D01*
X79460208Y-85352238D01*
X79382822Y-85232617D01*
X79382820Y-85232614D01*
X79380014Y-85228277D01*
X79229670Y-85063051D01*
X79225619Y-85059852D01*
X79225615Y-85059848D01*
X79058414Y-84927800D01*
X79058410Y-84927798D01*
X79054359Y-84924598D01*
X79013053Y-84901796D01*
X78963084Y-84851364D01*
X78948312Y-84781921D01*
X78973428Y-84715516D01*
X79000780Y-84688909D01*
X79063596Y-84644103D01*
X79179860Y-84561173D01*
X79222408Y-84518774D01*
X79313482Y-84428017D01*
X79338096Y-84403489D01*
X79343554Y-84395894D01*
X79463677Y-84228724D01*
X79519672Y-84185076D01*
X79590375Y-84178630D01*
X79653340Y-84211433D01*
G37*
%TD.AperFunction*%
%TA.AperFunction,Conductor*%
G36*
X112859921Y-82653502D02*
G01*
X112879147Y-82669843D01*
X112879420Y-82669540D01*
X112884332Y-82673963D01*
X112888747Y-82678866D01*
X112895125Y-82683500D01*
X113034200Y-82784544D01*
X113043248Y-82791118D01*
X113049276Y-82793802D01*
X113049278Y-82793803D01*
X113177481Y-82850882D01*
X113231576Y-82896862D01*
X113252226Y-82964789D01*
X113232874Y-83033097D01*
X113179663Y-83080099D01*
X113126232Y-83091989D01*
X110307182Y-83091989D01*
X110295999Y-83091462D01*
X110288506Y-83089787D01*
X110280580Y-83090036D01*
X110280579Y-83090036D01*
X110220429Y-83091927D01*
X110216470Y-83091989D01*
X110188559Y-83091989D01*
X110184625Y-83092486D01*
X110184624Y-83092486D01*
X110184559Y-83092494D01*
X110172722Y-83093427D01*
X110140905Y-83094427D01*
X110136444Y-83094567D01*
X110128525Y-83094816D01*
X110110869Y-83099945D01*
X110109073Y-83100467D01*
X110089721Y-83104475D01*
X110082650Y-83105369D01*
X110069618Y-83107015D01*
X110062249Y-83109932D01*
X110062247Y-83109933D01*
X110028512Y-83123289D01*
X110017284Y-83127134D01*
X109974822Y-83139471D01*
X109968000Y-83143505D01*
X109967994Y-83143508D01*
X109957383Y-83149783D01*
X109939633Y-83158479D01*
X109928171Y-83163017D01*
X109928166Y-83163020D01*
X109920798Y-83165937D01*
X109903583Y-83178444D01*
X109885040Y-83191916D01*
X109875122Y-83198432D01*
X109870476Y-83201180D01*
X109837052Y-83220947D01*
X109822728Y-83235271D01*
X109807696Y-83248110D01*
X109791308Y-83260017D01*
X109778075Y-83276013D01*
X109763127Y-83294082D01*
X109755137Y-83302862D01*
X108236357Y-84821642D01*
X108174045Y-84855668D01*
X108103230Y-84850603D01*
X108053629Y-84816860D01*
X107988197Y-84744190D01*
X107833696Y-84631938D01*
X107827668Y-84629254D01*
X107827666Y-84629253D01*
X107665263Y-84556947D01*
X107665262Y-84556947D01*
X107659232Y-84554262D01*
X107565832Y-84534409D01*
X107478888Y-84515928D01*
X107478883Y-84515928D01*
X107472431Y-84514556D01*
X107416539Y-84514556D01*
X107348418Y-84494554D01*
X107327443Y-84477651D01*
X106557535Y-83707742D01*
X106550001Y-83699463D01*
X106545888Y-83692982D01*
X106496236Y-83646356D01*
X106493395Y-83643602D01*
X106473658Y-83623865D01*
X106470461Y-83621385D01*
X106461439Y-83613680D01*
X106429209Y-83583414D01*
X106422263Y-83579595D01*
X106422260Y-83579593D01*
X106411454Y-83573652D01*
X106394935Y-83562801D01*
X106386895Y-83556565D01*
X106378929Y-83550386D01*
X106371660Y-83547241D01*
X106371656Y-83547238D01*
X106338351Y-83532826D01*
X106327701Y-83527609D01*
X106288948Y-83506305D01*
X106269325Y-83501267D01*
X106250622Y-83494863D01*
X106239308Y-83489967D01*
X106239307Y-83489967D01*
X106232033Y-83486819D01*
X106224210Y-83485580D01*
X106224200Y-83485577D01*
X106188364Y-83479901D01*
X106176744Y-83477495D01*
X106141599Y-83468472D01*
X106141598Y-83468472D01*
X106133918Y-83466500D01*
X106113664Y-83466500D01*
X106093953Y-83464949D01*
X106081774Y-83463020D01*
X106073945Y-83461780D01*
X106066053Y-83462526D01*
X106029927Y-83465941D01*
X106018069Y-83466500D01*
X105687498Y-83466500D01*
X105619377Y-83446498D01*
X105572884Y-83392842D01*
X105562780Y-83322568D01*
X105592274Y-83257988D01*
X105598403Y-83251405D01*
X106179403Y-82670405D01*
X106241715Y-82636379D01*
X106268498Y-82633500D01*
X112791800Y-82633500D01*
X112859921Y-82653502D01*
G37*
%TD.AperFunction*%
%TA.AperFunction,Conductor*%
G36*
X114555594Y-82156956D02*
G01*
X114607900Y-82204962D01*
X114619832Y-82231089D01*
X114665473Y-82371556D01*
X114668776Y-82377278D01*
X114668777Y-82377279D01*
X114686419Y-82407835D01*
X114760960Y-82536944D01*
X114765378Y-82541851D01*
X114765379Y-82541852D01*
X114884325Y-82673955D01*
X114888747Y-82678866D01*
X114951039Y-82724124D01*
X115034200Y-82784544D01*
X115043248Y-82791118D01*
X115049276Y-82793802D01*
X115049278Y-82793803D01*
X115177481Y-82850882D01*
X115231576Y-82896862D01*
X115252226Y-82964789D01*
X115232874Y-83033097D01*
X115179663Y-83080099D01*
X115126232Y-83091989D01*
X113873768Y-83091989D01*
X113805647Y-83071987D01*
X113759154Y-83018331D01*
X113749050Y-82948057D01*
X113778544Y-82883477D01*
X113822519Y-82850882D01*
X113950722Y-82793803D01*
X113950724Y-82793802D01*
X113956752Y-82791118D01*
X113965801Y-82784544D01*
X114048961Y-82724124D01*
X114111253Y-82678866D01*
X114115675Y-82673955D01*
X114234621Y-82541852D01*
X114234622Y-82541851D01*
X114239040Y-82536944D01*
X114313581Y-82407835D01*
X114331223Y-82377279D01*
X114331224Y-82377278D01*
X114334527Y-82371556D01*
X114380167Y-82231090D01*
X114420241Y-82172486D01*
X114485637Y-82144849D01*
X114555594Y-82156956D01*
G37*
%TD.AperFunction*%
%TA.AperFunction,Conductor*%
G36*
X106317012Y-79713370D02*
G01*
X106323595Y-79719499D01*
X106620374Y-80016278D01*
X106627918Y-80024568D01*
X106632031Y-80031049D01*
X106637808Y-80036474D01*
X106681698Y-80077689D01*
X106684540Y-80080444D01*
X106704261Y-80100165D01*
X106707456Y-80102643D01*
X106716478Y-80110349D01*
X106748710Y-80140617D01*
X106755659Y-80144437D01*
X106766463Y-80150377D01*
X106782987Y-80161230D01*
X106798990Y-80173644D01*
X106839574Y-80191207D01*
X106850204Y-80196414D01*
X106888971Y-80217726D01*
X106896648Y-80219697D01*
X106896653Y-80219699D01*
X106908589Y-80222763D01*
X106927297Y-80229168D01*
X106945886Y-80237212D01*
X106953711Y-80238451D01*
X106953713Y-80238452D01*
X106989550Y-80244128D01*
X107001171Y-80246535D01*
X107036320Y-80255559D01*
X107044001Y-80257531D01*
X107064262Y-80257531D01*
X107083971Y-80259082D01*
X107103974Y-80262250D01*
X107111866Y-80261504D01*
X107117093Y-80261010D01*
X107147985Y-80258090D01*
X107159842Y-80257531D01*
X109456079Y-80257531D01*
X109524200Y-80277533D01*
X109530141Y-80281596D01*
X109537904Y-80287236D01*
X109537909Y-80287239D01*
X109543248Y-80291118D01*
X109549275Y-80293801D01*
X109549276Y-80293802D01*
X109702147Y-80361864D01*
X109717712Y-80368794D01*
X109811113Y-80388647D01*
X109898056Y-80407128D01*
X109898061Y-80407128D01*
X109904513Y-80408500D01*
X109959691Y-80408500D01*
X110027812Y-80428502D01*
X110045942Y-80442648D01*
X110057651Y-80453643D01*
X110060495Y-80456400D01*
X110080230Y-80476135D01*
X110083427Y-80478615D01*
X110092447Y-80486318D01*
X110124679Y-80516586D01*
X110131625Y-80520405D01*
X110131628Y-80520407D01*
X110142434Y-80526348D01*
X110158953Y-80537199D01*
X110174959Y-80549614D01*
X110182228Y-80552759D01*
X110182232Y-80552762D01*
X110215537Y-80567174D01*
X110226187Y-80572391D01*
X110264940Y-80593695D01*
X110272615Y-80595666D01*
X110272616Y-80595666D01*
X110284562Y-80598733D01*
X110303267Y-80605137D01*
X110321855Y-80613181D01*
X110329678Y-80614420D01*
X110329688Y-80614423D01*
X110365524Y-80620099D01*
X110377144Y-80622505D01*
X110412289Y-80631528D01*
X110419970Y-80633500D01*
X110440224Y-80633500D01*
X110459934Y-80635051D01*
X110479943Y-80638220D01*
X110487835Y-80637474D01*
X110523961Y-80634059D01*
X110535819Y-80633500D01*
X113185405Y-80633500D01*
X113253526Y-80653502D01*
X113274501Y-80670405D01*
X113481747Y-80877652D01*
X113515772Y-80939964D01*
X113510707Y-81010780D01*
X113468160Y-81067615D01*
X113407237Y-81091500D01*
X113404513Y-81091500D01*
X113217712Y-81131206D01*
X113211682Y-81133891D01*
X113211681Y-81133891D01*
X113049278Y-81206197D01*
X113049276Y-81206198D01*
X113043248Y-81208882D01*
X113037907Y-81212762D01*
X113037906Y-81212763D01*
X113007217Y-81235060D01*
X112888747Y-81321134D01*
X112884332Y-81326037D01*
X112879420Y-81330460D01*
X112878295Y-81329211D01*
X112824986Y-81362051D01*
X112791800Y-81366500D01*
X106032667Y-81366500D01*
X106021483Y-81365973D01*
X106013995Y-81364299D01*
X106006072Y-81364548D01*
X105945937Y-81366438D01*
X105941979Y-81366500D01*
X105914048Y-81366500D01*
X105910133Y-81366995D01*
X105910129Y-81366995D01*
X105910071Y-81367003D01*
X105910042Y-81367006D01*
X105898200Y-81367939D01*
X105854014Y-81369327D01*
X105836648Y-81374372D01*
X105834562Y-81374978D01*
X105815210Y-81378986D01*
X105802972Y-81380532D01*
X105802970Y-81380533D01*
X105795107Y-81381526D01*
X105753990Y-81397806D01*
X105742789Y-81401641D01*
X105700310Y-81413982D01*
X105693491Y-81418015D01*
X105693486Y-81418017D01*
X105682875Y-81424293D01*
X105665125Y-81432990D01*
X105646287Y-81440448D01*
X105639871Y-81445109D01*
X105639870Y-81445110D01*
X105610529Y-81466428D01*
X105600604Y-81472948D01*
X105573222Y-81489141D01*
X105504406Y-81506599D01*
X105437075Y-81484081D01*
X105414869Y-81462310D01*
X105414040Y-81463056D01*
X105290675Y-81326045D01*
X105290674Y-81326044D01*
X105286253Y-81321134D01*
X105217850Y-81271436D01*
X105174496Y-81215213D01*
X105168421Y-81144477D01*
X105201553Y-81081686D01*
X105263373Y-81046774D01*
X105291911Y-81043500D01*
X105648134Y-81043500D01*
X105710316Y-81036745D01*
X105846705Y-80985615D01*
X105963261Y-80898261D01*
X106050615Y-80781705D01*
X106101745Y-80645316D01*
X106108500Y-80583134D01*
X106108500Y-79808594D01*
X106128502Y-79740473D01*
X106182158Y-79693980D01*
X106252432Y-79683876D01*
X106317012Y-79713370D01*
G37*
%TD.AperFunction*%
%TA.AperFunction,Conductor*%
G36*
X80558527Y-78153502D02*
G01*
X80605020Y-78207158D01*
X80615124Y-78277432D01*
X80610238Y-78298438D01*
X80608498Y-78303792D01*
X80608497Y-78303797D01*
X80606458Y-78310072D01*
X80605768Y-78316633D01*
X80605768Y-78316635D01*
X80589093Y-78475292D01*
X80586496Y-78500000D01*
X80587186Y-78506565D01*
X80596608Y-78596206D01*
X80606458Y-78689928D01*
X80665473Y-78871556D01*
X80760960Y-79036944D01*
X80765378Y-79041851D01*
X80765379Y-79041852D01*
X80791088Y-79070405D01*
X80888747Y-79178866D01*
X80935402Y-79212763D01*
X81027171Y-79279437D01*
X81043248Y-79291118D01*
X81049276Y-79293802D01*
X81049278Y-79293803D01*
X81204743Y-79363020D01*
X81217712Y-79368794D01*
X81310186Y-79388450D01*
X81398056Y-79407128D01*
X81398061Y-79407128D01*
X81404513Y-79408500D01*
X81595487Y-79408500D01*
X81601939Y-79407128D01*
X81601944Y-79407128D01*
X81689814Y-79388450D01*
X81782288Y-79368794D01*
X81795257Y-79363020D01*
X81950722Y-79293803D01*
X81950724Y-79293802D01*
X81956752Y-79291118D01*
X81972830Y-79279437D01*
X82099731Y-79187237D01*
X82111253Y-79178866D01*
X82115668Y-79173963D01*
X82120580Y-79169540D01*
X82121705Y-79170789D01*
X82175014Y-79137949D01*
X82208200Y-79133500D01*
X83774693Y-79133500D01*
X83842814Y-79153502D01*
X83889307Y-79207158D01*
X83899411Y-79277432D01*
X83868329Y-79343810D01*
X83772368Y-79450386D01*
X83760960Y-79463056D01*
X83748769Y-79484171D01*
X83676752Y-79608909D01*
X83665473Y-79628444D01*
X83606458Y-79810072D01*
X83605768Y-79816633D01*
X83605768Y-79816635D01*
X83589093Y-79975292D01*
X83562080Y-80040949D01*
X83552878Y-80051217D01*
X83294500Y-80309595D01*
X83232188Y-80343621D01*
X83205405Y-80346500D01*
X79576805Y-80346500D01*
X79508684Y-80326498D01*
X79471013Y-80288940D01*
X79382822Y-80152617D01*
X79382820Y-80152614D01*
X79380014Y-80148277D01*
X79229670Y-79983051D01*
X79225619Y-79979852D01*
X79225615Y-79979848D01*
X79058414Y-79847800D01*
X79058410Y-79847798D01*
X79054359Y-79844598D01*
X79013053Y-79821796D01*
X78963084Y-79771364D01*
X78948312Y-79701921D01*
X78973428Y-79635516D01*
X79000780Y-79608909D01*
X79076679Y-79554771D01*
X79179860Y-79481173D01*
X79187408Y-79473652D01*
X79279905Y-79381477D01*
X79338096Y-79323489D01*
X79342579Y-79317251D01*
X79465435Y-79146277D01*
X79468453Y-79142077D01*
X79478020Y-79122721D01*
X79565136Y-78946453D01*
X79565137Y-78946451D01*
X79567430Y-78941811D01*
X79632370Y-78728069D01*
X79661529Y-78506590D01*
X79661690Y-78500000D01*
X79663074Y-78443365D01*
X79663074Y-78443361D01*
X79663156Y-78440000D01*
X79649165Y-78269823D01*
X79663518Y-78200294D01*
X79713183Y-78149561D01*
X79774741Y-78133500D01*
X80490406Y-78133500D01*
X80558527Y-78153502D01*
G37*
%TD.AperFunction*%
%TA.AperFunction,Conductor*%
G36*
X107579512Y-77462881D02*
G01*
X107586095Y-77469010D01*
X107844455Y-77727370D01*
X107878481Y-77789682D01*
X107873416Y-77860497D01*
X107830869Y-77917333D01*
X107763886Y-77941659D01*
X107763923Y-77942001D01*
X107762525Y-77942153D01*
X107762172Y-77942281D01*
X107760523Y-77942370D01*
X107709662Y-77947895D01*
X107692247Y-77952035D01*
X107633953Y-77952034D01*
X107629727Y-77951029D01*
X107622327Y-77948255D01*
X107560145Y-77941500D01*
X107497000Y-77941500D01*
X107428879Y-77921498D01*
X107382386Y-77867842D01*
X107371000Y-77815500D01*
X107371000Y-77558105D01*
X107391002Y-77489984D01*
X107444658Y-77443491D01*
X107514932Y-77433387D01*
X107579512Y-77462881D01*
G37*
%TD.AperFunction*%
%TD*%
M02*
