%TF.GenerationSoftware,KiCad,Pcbnew,6.0.2-1.fc35*%
%TF.CreationDate,2022-04-22T15:47:55+02:00*%
%TF.ProjectId,LEDnode,4c45446e-6f64-4652-9e6b-696361645f70,rev?*%
%TF.SameCoordinates,Original*%
%TF.FileFunction,Soldermask,Top*%
%TF.FilePolarity,Negative*%
%FSLAX46Y46*%
G04 Gerber Fmt 4.6, Leading zero omitted, Abs format (unit mm)*
G04 Created by KiCad (PCBNEW 6.0.2-1.fc35) date 2022-04-22 15:47:55*
%MOMM*%
%LPD*%
G01*
G04 APERTURE LIST*
G04 Aperture macros list*
%AMRoundRect*
0 Rectangle with rounded corners*
0 $1 Rounding radius*
0 $2 $3 $4 $5 $6 $7 $8 $9 X,Y pos of 4 corners*
0 Add a 4 corners polygon primitive as box body*
4,1,4,$2,$3,$4,$5,$6,$7,$8,$9,$2,$3,0*
0 Add four circle primitives for the rounded corners*
1,1,$1+$1,$2,$3*
1,1,$1+$1,$4,$5*
1,1,$1+$1,$6,$7*
1,1,$1+$1,$8,$9*
0 Add four rect primitives between the rounded corners*
20,1,$1+$1,$2,$3,$4,$5,0*
20,1,$1+$1,$4,$5,$6,$7,0*
20,1,$1+$1,$6,$7,$8,$9,0*
20,1,$1+$1,$8,$9,$2,$3,0*%
G04 Aperture macros list end*
%ADD10C,2.800000*%
%ADD11C,1.100000*%
%ADD12R,2.500000X3.500000*%
%ADD13C,1.300000*%
%ADD14R,1.500000X2.000000*%
%ADD15R,2.000000X2.000000*%
%ADD16RoundRect,1.500000X0.000000X-1.000000X0.000000X-1.000000X0.000000X1.000000X0.000000X1.000000X0*%
%ADD17RoundRect,0.250000X1.250000X0.550000X-1.250000X0.550000X-1.250000X-0.550000X1.250000X-0.550000X0*%
%ADD18R,1.700000X1.700000*%
%ADD19O,1.700000X1.700000*%
%ADD20C,1.700000*%
%ADD21R,2.750000X1.000000*%
%ADD22R,1.500000X2.500000*%
%ADD23C,1.000000*%
%ADD24R,1.000000X1.000000*%
%ADD25O,1.000000X1.000000*%
%ADD26RoundRect,0.218750X0.256250X-0.218750X0.256250X0.218750X-0.256250X0.218750X-0.256250X-0.218750X0*%
%ADD27R,0.350000X0.500000*%
G04 APERTURE END LIST*
D10*
%TO.C,J1*%
X82700000Y-74250000D03*
X88900000Y-74250000D03*
X119100000Y-74250000D03*
X125300000Y-74250000D03*
%TD*%
D11*
%TO.C,SW1*%
X120500000Y-89000000D03*
D12*
X116250000Y-89000000D03*
D13*
X125000000Y-89000000D03*
D12*
X129750000Y-89000000D03*
D14*
X125500000Y-81000000D03*
X120500000Y-81000000D03*
X123000000Y-81000000D03*
D15*
X125500000Y-97000000D03*
X120500000Y-97000000D03*
%TD*%
D16*
%TO.C,H4*%
X78200000Y-71200000D03*
%TD*%
D17*
%TO.C,C5*%
X126100000Y-101570000D03*
X121700000Y-101570000D03*
%TD*%
D18*
%TO.C,J3*%
X82300000Y-101900000D03*
D19*
X84840000Y-101900000D03*
X87380000Y-101900000D03*
X89920000Y-101900000D03*
X92460000Y-101900000D03*
X95000000Y-101900000D03*
%TD*%
D16*
%TO.C,H3*%
X129800000Y-102300000D03*
%TD*%
D20*
%TO.C,SW2*%
X104541964Y-95361429D03*
X101341964Y-95361429D03*
X98141964Y-95361429D03*
%TD*%
D17*
%TO.C,C2*%
X118080000Y-101570000D03*
X113680000Y-101570000D03*
%TD*%
D21*
%TO.C,SW3*%
X108875000Y-96750000D03*
X114625000Y-96750000D03*
X114625000Y-92750000D03*
X108875000Y-92750000D03*
%TD*%
D16*
%TO.C,H1*%
X129800000Y-71200000D03*
%TD*%
D18*
%TO.C,J4*%
X78300000Y-75900000D03*
D19*
X78300000Y-78440000D03*
X78300000Y-80980000D03*
X78300000Y-83520000D03*
X78300000Y-86060000D03*
X78300000Y-88600000D03*
X78300000Y-91140000D03*
X78300000Y-93680000D03*
%TD*%
D22*
%TO.C,U2*%
X92150000Y-90715000D03*
X94690000Y-90715000D03*
X97230000Y-90715000D03*
X99770000Y-90715000D03*
X102310000Y-90715000D03*
X104850000Y-90715000D03*
X104850000Y-79285000D03*
X102310000Y-79285000D03*
X99770000Y-79285000D03*
X97230000Y-79285000D03*
X94690000Y-79285000D03*
X92150000Y-79285000D03*
%TD*%
D23*
%TO.C,Y1*%
X94550000Y-95550000D03*
X94550000Y-97450000D03*
%TD*%
D24*
%TO.C,J2*%
X83350000Y-91900000D03*
D25*
X84620000Y-91900000D03*
X85890000Y-91900000D03*
X87160000Y-91900000D03*
X88430000Y-91900000D03*
%TD*%
D26*
%TO.C,D3*%
X81100000Y-83475000D03*
X81100000Y-81900000D03*
%TD*%
D27*
%TO.C,U5*%
X107337011Y-76650000D03*
X107987011Y-76650000D03*
X108637011Y-76650000D03*
X109287011Y-76650000D03*
X109287011Y-78700000D03*
X108637011Y-78700000D03*
X107987011Y-78700000D03*
X107337011Y-78700000D03*
%TD*%
D16*
%TO.C,H2*%
X78200000Y-102300000D03*
%TD*%
D26*
%TO.C,D2*%
X81100000Y-86575000D03*
X81100000Y-85000000D03*
%TD*%
M02*
