M48
; DRILL file {KiCad 6.0.2-1.fc35} date Fri 22 Apr 2022 15:47:58 CEST
; FORMAT={-:-/ absolute / inch / decimal}
; #@! TF.CreationDate,2022-04-22T15:47:58+02:00
; #@! TF.GenerationSoftware,Kicad,Pcbnew,6.0.2-1.fc35
; #@! TF.FileFunction,Plated,1,2,PTH
FMAT,2
INCH
; #@! TA.AperFunction,Plated,PTH,ViaDrill
T1C0.0157
; #@! TA.AperFunction,Plated,PTH,ComponentDrill
T2C0.0197
; #@! TA.AperFunction,Plated,PTH,ComponentDrill
T3C0.0256
; #@! TA.AperFunction,Plated,PTH,ComponentDrill
T4C0.0394
; #@! TA.AperFunction,Plated,PTH,ComponentDrill
T5C0.0709
; #@! TA.AperFunction,Plated,PTH,ComponentDrill
T6C0.0984
%
G90
G05
T1
X3.0308Y-3.1365
X3.1102Y-3.7992
X3.1359Y-3.3268
X3.1359Y-3.4449
X3.1496Y-3.1299
X3.1624Y-3.6811
X3.189Y-3.1299
X3.189Y-3.9173
X3.1929Y-3.2864
X3.1929Y-3.4085
X3.2087Y-3.0906
X3.248Y-3.7402
X3.248Y-3.7795
X3.248Y-3.8189
X3.248Y-3.8583
X3.2874Y-3.7402
X3.2874Y-3.7795
X3.2874Y-3.8189
X3.2874Y-3.8583
X3.3071Y-3.2677
X3.3268Y-3.1496
X3.3268Y-3.7402
X3.3268Y-3.7795
X3.3268Y-3.8189
X3.3268Y-3.8583
X3.3425Y-3.5118
X3.378Y-3.5118
X3.3858Y-3.7205
X3.4055Y-3.0906
X3.4252Y-3.7008
X3.4301Y-3.498
X3.4449Y-3.4449
X3.4843Y-3.248
X3.4843Y-3.8583
X3.5039Y-3.3268
X3.5216Y-3.4647
X3.5236Y-3.2677
X3.5433Y-3.1496
X3.5433Y-3.3465
X3.5433Y-3.5039
X3.5433Y-3.5827
X3.563Y-3.2283
X3.5827Y-3.2677
X3.5827Y-3.3661
X3.628Y-3.1215
X3.6289Y-2.9843
X3.64Y-3.8753
X3.6437Y-3.9458
X3.6713Y-2.9035
X3.6762Y-3.7008
X3.6939Y-2.9843
X3.7205Y-3.4055
X3.7697Y-2.8986
X3.7697Y-3.0531
X3.7816Y-3.4705
X3.7913Y-3.7726
X3.7992Y-3.8514
X3.8031Y-2.9724
X3.8071Y-3.3484
X3.815Y-3.3012
X3.8189Y-3.2087
X3.8438Y-3.3887
X3.8465Y-3.9646
X3.8583Y-3.4843
X3.876Y-3.9862
X3.8976Y-2.9921
X3.8976Y-3.8711
X3.8996Y-4.0689
X3.9242Y-3.685
X3.9272Y-3.3976
X3.928Y-3.1215
X3.9331Y-4.0689
X3.937Y-3.4449
X3.937Y-3.7992
X3.9665Y-4.0689
X3.9764Y-3.2087
X3.9892Y-3.685
X3.996Y-3.6422
X4.0Y-3.2894
X4.0Y-4.0689
X4.0256Y-3.0064
X4.028Y-3.1215
X4.028Y-3.5715
X4.0394Y-3.3189
X4.0492Y-3.9459
X4.0551Y-3.4508
X4.0591Y-3.2185
X4.0748Y-3.6811
X4.0846Y-3.8957
X4.0866Y-3.2697
X4.0945Y-3.3661
X4.0945Y-3.4213
X4.1211Y-3.2283
X4.128Y-3.1215
X4.128Y-3.311
X4.128Y-3.5715
X4.1476Y-3.0335
X4.1594Y-3.9075
X4.1604Y-3.379
X4.1929Y-3.4843
X4.1929Y-3.8583
X4.2126Y-3.7205
X4.2274Y-3.3631
X4.2288Y-3.0502
X4.2323Y-3.878
X4.252Y-3.189
X4.2657Y-3.9075
X4.2854Y-3.4114
X4.2948Y-3.0512
X4.2948Y-3.0856
X4.3012Y-3.5807
X4.311Y-3.4646
X4.311Y-3.937
X4.3307Y-3.1299
X4.3504Y-3.0709
X4.3504Y-3.375
X4.3701Y-3.4843
X4.4094Y-3.3858
X4.4183Y-3.2628
X4.4685Y-3.2283
X4.4736Y-3.9961
X4.4754Y-3.3858
X4.4882Y-3.2677
X4.4931Y-3.5236
X4.5079Y-3.3268
X4.5128Y-3.6516
X4.5128Y-3.8071
X4.5461Y-3.9323
X4.5472Y-3.2283
X4.5472Y-3.3268
X4.6008Y-3.8469
X4.626Y-3.2579
X4.626Y-3.3858
X4.6417Y-3.9449
X4.6555Y-2.7264
X4.6555Y-2.8051
X4.6614Y-3.0866
X4.6654Y-3.6614
X4.6679Y-3.5459
X4.6949Y-2.7264
X4.6949Y-2.8051
X4.7047Y-3.4154
X4.7343Y-2.7264
X4.7402Y-3.3228
X4.7402Y-3.9409
X4.7441Y-3.1998
X4.8622Y-2.8346
X4.8622Y-3.7205
X4.9373Y-3.8153
X4.9426Y-3.1906
X4.9459Y-3.3228
X5.0303Y-3.848
T2
X3.7224Y-3.7618
X3.7224Y-3.8366
T3
X3.2815Y-3.6181
X3.3315Y-3.6181
X3.3815Y-3.6181
X3.4315Y-3.6181
X3.4815Y-3.6181
T4
X3.0827Y-2.9882
X3.0827Y-3.0882
X3.0827Y-3.1882
X3.0827Y-3.2882
X3.0827Y-3.3882
X3.0827Y-3.4882
X3.0827Y-3.5882
X3.0827Y-3.6882
X3.2402Y-4.0118
X3.3402Y-4.0118
X3.4402Y-4.0118
X3.5402Y-4.0118
X3.6402Y-4.0118
X3.7402Y-4.0118
X3.8639Y-3.7544
X3.9898Y-3.7544
X4.1158Y-3.7544
T5
X3.2559Y-2.9232
X3.5Y-2.9232
X4.689Y-2.9232
X4.9331Y-2.9232
T6
X3.0787Y-2.8031
X3.0787Y-4.0276
X5.1102Y-2.8031
X5.1102Y-4.0276
T0
M30
