%TF.GenerationSoftware,KiCad,Pcbnew,6.0.2-1.fc35*%
%TF.CreationDate,2022-04-22T15:47:54+02:00*%
%TF.ProjectId,LEDnode,4c45446e-6f64-4652-9e6b-696361645f70,rev?*%
%TF.SameCoordinates,Original*%
%TF.FileFunction,Copper,L2,Bot*%
%TF.FilePolarity,Positive*%
%FSLAX46Y46*%
G04 Gerber Fmt 4.6, Leading zero omitted, Abs format (unit mm)*
G04 Created by KiCad (PCBNEW 6.0.2-1.fc35) date 2022-04-22 15:47:54*
%MOMM*%
%LPD*%
G01*
G04 APERTURE LIST*
G04 Aperture macros list*
%AMRoundRect*
0 Rectangle with rounded corners*
0 $1 Rounding radius*
0 $2 $3 $4 $5 $6 $7 $8 $9 X,Y pos of 4 corners*
0 Add a 4 corners polygon primitive as box body*
4,1,4,$2,$3,$4,$5,$6,$7,$8,$9,$2,$3,0*
0 Add four circle primitives for the rounded corners*
1,1,$1+$1,$2,$3*
1,1,$1+$1,$4,$5*
1,1,$1+$1,$6,$7*
1,1,$1+$1,$8,$9*
0 Add four rect primitives between the rounded corners*
20,1,$1+$1,$2,$3,$4,$5,0*
20,1,$1+$1,$4,$5,$6,$7,0*
20,1,$1+$1,$6,$7,$8,$9,0*
20,1,$1+$1,$8,$9,$2,$3,0*%
G04 Aperture macros list end*
%TA.AperFunction,ComponentPad*%
%ADD10C,2.800000*%
%TD*%
%TA.AperFunction,WasherPad*%
%ADD11C,1.100000*%
%TD*%
%TA.AperFunction,WasherPad*%
%ADD12C,1.300000*%
%TD*%
%TA.AperFunction,ComponentPad*%
%ADD13RoundRect,1.500000X0.000000X-1.000000X0.000000X-1.000000X0.000000X1.000000X0.000000X1.000000X0*%
%TD*%
%TA.AperFunction,ComponentPad*%
%ADD14R,1.700000X1.700000*%
%TD*%
%TA.AperFunction,ComponentPad*%
%ADD15O,1.700000X1.700000*%
%TD*%
%TA.AperFunction,ComponentPad*%
%ADD16C,1.700000*%
%TD*%
%TA.AperFunction,ComponentPad*%
%ADD17C,1.000000*%
%TD*%
%TA.AperFunction,ComponentPad*%
%ADD18R,1.000000X1.000000*%
%TD*%
%TA.AperFunction,ComponentPad*%
%ADD19O,1.000000X1.000000*%
%TD*%
%TA.AperFunction,SMDPad,CuDef*%
%ADD20RoundRect,0.200000X0.275000X-0.200000X0.275000X0.200000X-0.275000X0.200000X-0.275000X-0.200000X0*%
%TD*%
%TA.AperFunction,SMDPad,CuDef*%
%ADD21RoundRect,0.225000X0.225000X0.250000X-0.225000X0.250000X-0.225000X-0.250000X0.225000X-0.250000X0*%
%TD*%
%TA.AperFunction,SMDPad,CuDef*%
%ADD22RoundRect,0.150000X0.587500X0.150000X-0.587500X0.150000X-0.587500X-0.150000X0.587500X-0.150000X0*%
%TD*%
%TA.AperFunction,SMDPad,CuDef*%
%ADD23RoundRect,0.150000X-0.587500X-0.150000X0.587500X-0.150000X0.587500X0.150000X-0.587500X0.150000X0*%
%TD*%
%TA.AperFunction,SMDPad,CuDef*%
%ADD24RoundRect,0.225000X-0.225000X-0.250000X0.225000X-0.250000X0.225000X0.250000X-0.225000X0.250000X0*%
%TD*%
%TA.AperFunction,SMDPad,CuDef*%
%ADD25RoundRect,0.150000X-0.150000X0.587500X-0.150000X-0.587500X0.150000X-0.587500X0.150000X0.587500X0*%
%TD*%
%TA.AperFunction,SMDPad,CuDef*%
%ADD26RoundRect,0.200000X0.200000X0.275000X-0.200000X0.275000X-0.200000X-0.275000X0.200000X-0.275000X0*%
%TD*%
%TA.AperFunction,SMDPad,CuDef*%
%ADD27RoundRect,0.225000X0.250000X-0.225000X0.250000X0.225000X-0.250000X0.225000X-0.250000X-0.225000X0*%
%TD*%
%TA.AperFunction,SMDPad,CuDef*%
%ADD28RoundRect,0.200000X-0.200000X-0.275000X0.200000X-0.275000X0.200000X0.275000X-0.200000X0.275000X0*%
%TD*%
%TA.AperFunction,SMDPad,CuDef*%
%ADD29RoundRect,0.225000X-0.250000X0.225000X-0.250000X-0.225000X0.250000X-0.225000X0.250000X0.225000X0*%
%TD*%
%TA.AperFunction,SMDPad,CuDef*%
%ADD30RoundRect,0.150000X0.512500X0.150000X-0.512500X0.150000X-0.512500X-0.150000X0.512500X-0.150000X0*%
%TD*%
%TA.AperFunction,SMDPad,CuDef*%
%ADD31RoundRect,0.200000X-0.275000X0.200000X-0.275000X-0.200000X0.275000X-0.200000X0.275000X0.200000X0*%
%TD*%
%TA.AperFunction,SMDPad,CuDef*%
%ADD32R,0.375000X0.350000*%
%TD*%
%TA.AperFunction,SMDPad,CuDef*%
%ADD33R,0.350000X0.375000*%
%TD*%
%TA.AperFunction,SMDPad,CuDef*%
%ADD34R,0.900000X1.200000*%
%TD*%
%TA.AperFunction,SMDPad,CuDef*%
%ADD35R,1.000000X2.750000*%
%TD*%
%TA.AperFunction,SMDPad,CuDef*%
%ADD36RoundRect,0.125000X-0.353553X-0.530330X0.530330X0.353553X0.353553X0.530330X-0.530330X-0.353553X0*%
%TD*%
%TA.AperFunction,SMDPad,CuDef*%
%ADD37RoundRect,0.125000X0.353553X-0.530330X0.530330X-0.353553X-0.353553X0.530330X-0.530330X0.353553X0*%
%TD*%
%TA.AperFunction,ViaPad*%
%ADD38C,0.800000*%
%TD*%
%TA.AperFunction,Conductor*%
%ADD39C,0.500000*%
%TD*%
%TA.AperFunction,Conductor*%
%ADD40C,0.250000*%
%TD*%
G04 APERTURE END LIST*
D10*
%TO.P,J1,1,Pin_1*%
%TO.N,/INPUT*%
X82700000Y-74250000D03*
X88900000Y-74250000D03*
%TO.P,J1,2,Pin_2*%
%TO.N,Net-(D1-Pad1)*%
X119100000Y-74250000D03*
X125300000Y-74250000D03*
%TD*%
D11*
%TO.P,SW1,*%
%TO.N,*%
X120500000Y-89000000D03*
D12*
X125000000Y-89000000D03*
%TD*%
D13*
%TO.P,H4,1,1*%
%TO.N,GND*%
X78200000Y-71200000D03*
%TD*%
D14*
%TO.P,J3,1,Pin_1*%
%TO.N,+3V3*%
X82300000Y-101900000D03*
D15*
%TO.P,J3,2,Pin_2*%
%TO.N,/Tx*%
X84840000Y-101900000D03*
%TO.P,J3,3,Pin_3*%
%TO.N,/Rx*%
X87380000Y-101900000D03*
%TO.P,J3,4,Pin_4*%
%TO.N,/SDA*%
X89920000Y-101900000D03*
%TO.P,J3,5,Pin_5*%
%TO.N,/SCL*%
X92460000Y-101900000D03*
%TO.P,J3,6,Pin_6*%
%TO.N,/ADC*%
X95000000Y-101900000D03*
%TD*%
D13*
%TO.P,H3,1,1*%
%TO.N,GND*%
X129800000Y-102300000D03*
%TD*%
D16*
%TO.P,SW2,1,A*%
%TO.N,GND*%
X104541964Y-95361429D03*
%TO.P,SW2,2,B*%
%TO.N,Net-(R2-Pad1)*%
X101341964Y-95361429D03*
%TO.P,SW2,3,C*%
%TO.N,unconnected-(SW2-Pad3)*%
X98141964Y-95361429D03*
%TD*%
D13*
%TO.P,H1,1,1*%
%TO.N,GND*%
X129800000Y-71200000D03*
%TD*%
D14*
%TO.P,J4,1,Pin_1*%
%TO.N,/LED2*%
X78300000Y-75900000D03*
D15*
%TO.P,J4,2,Pin_2*%
%TO.N,/DISP_0*%
X78300000Y-78440000D03*
%TO.P,J4,3,Pin_3*%
%TO.N,/DISP_A*%
X78300000Y-80980000D03*
%TO.P,J4,4,Pin_4*%
%TO.N,/DISP_B*%
X78300000Y-83520000D03*
%TO.P,J4,5,Pin_5*%
%TO.N,/DISP_F*%
X78300000Y-86060000D03*
%TO.P,J4,6,Pin_6*%
%TO.N,/MODE*%
X78300000Y-88600000D03*
%TO.P,J4,7,Pin_7*%
%TO.N,GND*%
X78300000Y-91140000D03*
%TO.P,J4,8,Pin_8*%
X78300000Y-93680000D03*
%TD*%
D17*
%TO.P,Y1,1,1*%
%TO.N,Net-(C9-Pad1)*%
X94550000Y-95550000D03*
%TO.P,Y1,2,2*%
%TO.N,Net-(C8-Pad1)*%
X94550000Y-97450000D03*
%TD*%
D18*
%TO.P,J2,1,Pin_1*%
%TO.N,+3V3*%
X83350000Y-91900000D03*
D19*
%TO.P,J2,2,Pin_2*%
%TO.N,/SYS_SWDCLK*%
X84620000Y-91900000D03*
%TO.P,J2,3,Pin_3*%
%TO.N,GND*%
X85890000Y-91900000D03*
%TO.P,J2,4,Pin_4*%
%TO.N,/SYS_SWDIO*%
X87160000Y-91900000D03*
%TO.P,J2,5,Pin_5*%
%TO.N,/SYS_RST*%
X88430000Y-91900000D03*
%TD*%
D13*
%TO.P,H2,1,1*%
%TO.N,GND*%
X78200000Y-102300000D03*
%TD*%
D20*
%TO.P,R10,1*%
%TO.N,/ENC1*%
X125500000Y-82925000D03*
%TO.P,R10,2*%
%TO.N,Net-(R10-Pad2)*%
X125500000Y-81275000D03*
%TD*%
D21*
%TO.P,C7,1*%
%TO.N,+3V3*%
X93375000Y-94000000D03*
%TO.P,C7,2*%
%TO.N,GND*%
X91825000Y-94000000D03*
%TD*%
%TO.P,C8,1*%
%TO.N,Net-(C8-Pad1)*%
X93075000Y-97200000D03*
%TO.P,C8,2*%
%TO.N,GND*%
X91525000Y-97200000D03*
%TD*%
D22*
%TO.P,Q5,1,G*%
%TO.N,/INPUT*%
X123300000Y-70000000D03*
%TO.P,Q5,2,S*%
%TO.N,GND*%
X123300000Y-71900000D03*
%TO.P,Q5,3,D*%
%TO.N,Net-(D1-Pad1)*%
X121425000Y-70950000D03*
%TD*%
D21*
%TO.P,C6,1*%
%TO.N,+3V3*%
X93375000Y-92500000D03*
%TO.P,C6,2*%
%TO.N,GND*%
X91825000Y-92500000D03*
%TD*%
D23*
%TO.P,Q1,1,B*%
%TO.N,/DISP_0*%
X89662500Y-80250000D03*
%TO.P,Q1,2,E*%
%TO.N,+3V3*%
X89662500Y-78350000D03*
%TO.P,Q1,3,C*%
%TO.N,Net-(Q1-Pad3)*%
X91537500Y-79300000D03*
%TD*%
D24*
%TO.P,C17,1*%
%TO.N,/ENC1*%
X127025000Y-82800000D03*
%TO.P,C17,2*%
%TO.N,GND*%
X128575000Y-82800000D03*
%TD*%
D25*
%TO.P,Q2,1,B*%
%TO.N,/DISP_1*%
X98750000Y-76362500D03*
%TO.P,Q2,2,E*%
%TO.N,+3V3*%
X100650000Y-76362500D03*
%TO.P,Q2,3,C*%
%TO.N,Net-(Q2-Pad3)*%
X99700000Y-78237500D03*
%TD*%
D26*
%TO.P,R18,1*%
%TO.N,/DISP_A*%
X93825000Y-75800000D03*
%TO.P,R18,2*%
%TO.N,Net-(U2-Pad11)*%
X92175000Y-75800000D03*
%TD*%
D21*
%TO.P,C15,1*%
%TO.N,+3V3*%
X120975000Y-86700000D03*
%TO.P,C15,2*%
%TO.N,GND*%
X119425000Y-86700000D03*
%TD*%
D27*
%TO.P,C3,1*%
%TO.N,Net-(C3-Pad1)*%
X122100000Y-102175000D03*
%TO.P,C3,2*%
%TO.N,GND*%
X122100000Y-100625000D03*
%TD*%
D28*
%TO.P,R17,1*%
%TO.N,Net-(D3-Pad1)*%
X81075000Y-83500000D03*
%TO.P,R17,2*%
%TO.N,GND*%
X82725000Y-83500000D03*
%TD*%
D29*
%TO.P,C14,1*%
%TO.N,+3V3*%
X108025000Y-82875000D03*
%TO.P,C14,2*%
%TO.N,GND*%
X108025000Y-84425000D03*
%TD*%
D20*
%TO.P,R11,1*%
%TO.N,/ENC2*%
X120500000Y-82925000D03*
%TO.P,R11,2*%
%TO.N,Net-(R11-Pad2)*%
X120500000Y-81275000D03*
%TD*%
D24*
%TO.P,C19,1*%
%TO.N,/BUTTON2*%
X112525000Y-88000000D03*
%TO.P,C19,2*%
%TO.N,GND*%
X114075000Y-88000000D03*
%TD*%
D26*
%TO.P,R1,1*%
%TO.N,+3V3*%
X122050000Y-84400000D03*
%TO.P,R1,2*%
%TO.N,/ENC2*%
X120400000Y-84400000D03*
%TD*%
D20*
%TO.P,R15,1*%
%TO.N,+3V3*%
X127000000Y-96725000D03*
%TO.P,R15,2*%
%TO.N,/BUTTON1*%
X127000000Y-95075000D03*
%TD*%
D22*
%TO.P,Q4,1,B*%
%TO.N,/DISP_3*%
X107375000Y-89650000D03*
%TO.P,Q4,2,E*%
%TO.N,+3V3*%
X107375000Y-91550000D03*
%TO.P,Q4,3,C*%
%TO.N,Net-(Q4-Pad3)*%
X105500000Y-90600000D03*
%TD*%
D29*
%TO.P,C13,1*%
%TO.N,+3V3*%
X106525000Y-82875000D03*
%TO.P,C13,2*%
%TO.N,GND*%
X106525000Y-84425000D03*
%TD*%
D24*
%TO.P,C16,1*%
%TO.N,GND*%
X117450000Y-82800000D03*
%TO.P,C16,2*%
%TO.N,/ENC2*%
X119000000Y-82800000D03*
%TD*%
D26*
%TO.P,R6,1*%
%TO.N,Net-(R6-Pad1)*%
X114125000Y-91100000D03*
%TO.P,R6,2*%
%TO.N,/BUTTON2*%
X112475000Y-91100000D03*
%TD*%
D21*
%TO.P,C1,1*%
%TO.N,/INPUT*%
X116100000Y-94700000D03*
%TO.P,C1,2*%
%TO.N,GND*%
X114550000Y-94700000D03*
%TD*%
D30*
%TO.P,U4,1,FB*%
%TO.N,+3V3*%
X120175000Y-100200000D03*
%TO.P,U4,2,GND*%
%TO.N,GND*%
X120175000Y-101150000D03*
%TO.P,U4,3,REF*%
%TO.N,Net-(C3-Pad1)*%
X120175000Y-102100000D03*
%TO.P,U4,4,LX*%
%TO.N,Net-(L1-Pad2)*%
X117900000Y-102100000D03*
%TO.P,U4,5,OUT*%
%TO.N,+3V3*%
X117900000Y-101150000D03*
%TO.P,U4,6,SHDN*%
X117900000Y-100200000D03*
%TD*%
D28*
%TO.P,R7,1*%
%TO.N,+3V3*%
X123975000Y-84400000D03*
%TO.P,R7,2*%
%TO.N,/ENC1*%
X125625000Y-84400000D03*
%TD*%
D26*
%TO.P,R21,1*%
%TO.N,/DISP_D*%
X104675000Y-82050000D03*
%TO.P,R21,2*%
%TO.N,Net-(U2-Pad2)*%
X103025000Y-82050000D03*
%TD*%
D21*
%TO.P,C9,1*%
%TO.N,Net-(C9-Pad1)*%
X93075000Y-95600000D03*
%TO.P,C9,2*%
%TO.N,GND*%
X91525000Y-95600000D03*
%TD*%
%TO.P,C11,1*%
%TO.N,+3V3*%
X109087011Y-76875000D03*
%TO.P,C11,2*%
%TO.N,GND*%
X107537011Y-76875000D03*
%TD*%
D28*
%TO.P,R16,1*%
%TO.N,Net-(D2-Pad1)*%
X81075000Y-86600000D03*
%TO.P,R16,2*%
%TO.N,GND*%
X82725000Y-86600000D03*
%TD*%
D31*
%TO.P,R25,1*%
%TO.N,/DISP_DP*%
X103900000Y-86525000D03*
%TO.P,R25,2*%
%TO.N,Net-(U2-Pad3)*%
X103900000Y-88175000D03*
%TD*%
D23*
%TO.P,Q6,1,G*%
%TO.N,Net-(Q6-Pad1)*%
X116525000Y-79350000D03*
%TO.P,Q6,2,S*%
%TO.N,GND*%
X116525000Y-77450000D03*
%TO.P,Q6,3,D*%
%TO.N,Net-(Q6-Pad3)*%
X118400000Y-78400000D03*
%TD*%
D32*
%TO.P,U6,1,SCL/SPC*%
%TO.N,/SCL*%
X110887500Y-82900000D03*
%TO.P,U6,2,RES*%
%TO.N,GND*%
X110887500Y-83400000D03*
%TO.P,U6,3,GND*%
X110887500Y-83900000D03*
%TO.P,U6,4,C1*%
%TO.N,Net-(C12-Pad1)*%
X110887500Y-84400000D03*
D33*
%TO.P,U6,5,Vdd*%
%TO.N,+3V3*%
X110375000Y-84412500D03*
%TO.P,U6,6,Vdd_IO*%
X109875000Y-84412500D03*
D32*
%TO.P,U6,7,INT*%
%TO.N,unconnected-(U6-Pad7)*%
X109362500Y-84400000D03*
%TO.P,U6,8,DRDY*%
%TO.N,unconnected-(U6-Pad8)*%
X109362500Y-83900000D03*
%TO.P,U6,9,SDO/SA1*%
%TO.N,GND*%
X109362500Y-83400000D03*
%TO.P,U6,10,CS*%
%TO.N,+3V3*%
X109362500Y-82900000D03*
D33*
%TO.P,U6,11,SDA/SDI/SDO*%
%TO.N,/SDA*%
X109875000Y-82887500D03*
%TO.P,U6,12,RES*%
%TO.N,GND*%
X110375000Y-82887500D03*
%TD*%
D21*
%TO.P,C20,1*%
%TO.N,/BUTTON1*%
X126975000Y-93600000D03*
%TO.P,C20,2*%
%TO.N,GND*%
X125425000Y-93600000D03*
%TD*%
D24*
%TO.P,C4,1*%
%TO.N,+3V3*%
X120250000Y-98600000D03*
%TO.P,C4,2*%
%TO.N,GND*%
X121800000Y-98600000D03*
%TD*%
D21*
%TO.P,C18,1*%
%TO.N,/MODE*%
X99075000Y-97500000D03*
%TO.P,C18,2*%
%TO.N,GND*%
X97525000Y-97500000D03*
%TD*%
D31*
%TO.P,R20,1*%
%TO.N,/DISP_C*%
X110500000Y-85725000D03*
%TO.P,R20,2*%
%TO.N,Net-(U2-Pad4)*%
X110500000Y-87375000D03*
%TD*%
D26*
%TO.P,R5,1*%
%TO.N,+3V3*%
X101325000Y-93600000D03*
%TO.P,R5,2*%
%TO.N,/SCL*%
X99675000Y-93600000D03*
%TD*%
D34*
%TO.P,D1,1,K*%
%TO.N,Net-(D1-Pad1)*%
X123750000Y-77300000D03*
%TO.P,D1,2,A*%
%TO.N,GND*%
X120450000Y-77300000D03*
%TD*%
D26*
%TO.P,R22,1*%
%TO.N,/DISP_E*%
X88775000Y-88850000D03*
%TO.P,R22,2*%
%TO.N,Net-(U2-Pad1)*%
X87125000Y-88850000D03*
%TD*%
D20*
%TO.P,R3,1*%
%TO.N,+3V3*%
X96300000Y-95825000D03*
%TO.P,R3,2*%
%TO.N,/SDA*%
X96300000Y-94175000D03*
%TD*%
D21*
%TO.P,C10,1*%
%TO.N,+3V3*%
X109087011Y-78375000D03*
%TO.P,C10,2*%
%TO.N,GND*%
X107537011Y-78375000D03*
%TD*%
D20*
%TO.P,R14,1*%
%TO.N,Net-(R14-Pad1)*%
X125400000Y-96725000D03*
%TO.P,R14,2*%
%TO.N,/BUTTON1*%
X125400000Y-95075000D03*
%TD*%
D25*
%TO.P,Q3,1,B*%
%TO.N,/DISP_2*%
X102250000Y-76362500D03*
%TO.P,Q3,2,E*%
%TO.N,+3V3*%
X104150000Y-76362500D03*
%TO.P,Q3,3,C*%
%TO.N,Net-(Q3-Pad3)*%
X103200000Y-78237500D03*
%TD*%
D27*
%TO.P,C12,1*%
%TO.N,Net-(C12-Pad1)*%
X112225000Y-84425000D03*
%TO.P,C12,2*%
%TO.N,GND*%
X112225000Y-82875000D03*
%TD*%
D28*
%TO.P,R4,1*%
%TO.N,+3V3*%
X90250000Y-91000000D03*
%TO.P,R4,2*%
%TO.N,/SYS_RST*%
X91900000Y-91000000D03*
%TD*%
%TO.P,R19,1*%
%TO.N,/DISP_B*%
X103025000Y-80550000D03*
%TO.P,R19,2*%
%TO.N,Net-(U2-Pad7)*%
X104675000Y-80550000D03*
%TD*%
D26*
%TO.P,R12,1*%
%TO.N,+3V3*%
X114125000Y-89500000D03*
%TO.P,R12,2*%
%TO.N,/BUTTON2*%
X112475000Y-89500000D03*
%TD*%
D20*
%TO.P,R13,1*%
%TO.N,Net-(Q6-Pad3)*%
X114600000Y-79025000D03*
%TO.P,R13,2*%
%TO.N,GND*%
X114600000Y-77375000D03*
%TD*%
D26*
%TO.P,R9,1*%
%TO.N,+3V3*%
X105425000Y-97500000D03*
%TO.P,R9,2*%
%TO.N,/MODE*%
X103775000Y-97500000D03*
%TD*%
D31*
%TO.P,R23,1*%
%TO.N,/DISP_F*%
X95750000Y-73625000D03*
%TO.P,R23,2*%
%TO.N,Net-(U2-Pad10)*%
X95750000Y-75275000D03*
%TD*%
D28*
%TO.P,R2,1*%
%TO.N,Net-(R2-Pad1)*%
X100700000Y-97500000D03*
%TO.P,R2,2*%
%TO.N,/MODE*%
X102350000Y-97500000D03*
%TD*%
D35*
%TO.P,L1,1,1*%
%TO.N,/INPUT*%
X116250000Y-97500000D03*
%TO.P,L1,2,2*%
%TO.N,Net-(L1-Pad2)*%
X118550000Y-97500000D03*
%TD*%
D36*
%TO.P,U1,1,PB9*%
%TO.N,/SDA*%
X96127728Y-92232070D03*
%TO.P,U1,2,OSC32_IN/PC14*%
%TO.N,Net-(C8-Pad1)*%
X95562043Y-91666384D03*
%TO.P,U1,3,OSC32_OUT/PC15*%
%TO.N,Net-(C9-Pad1)*%
X94996357Y-91100699D03*
%TO.P,U1,4,VDD/VDDA*%
%TO.N,+3V3*%
X94430672Y-90535014D03*
%TO.P,U1,5,VSS/VSSA*%
%TO.N,GND*%
X93864986Y-89969328D03*
%TO.P,U1,6,~{RST}/PF2*%
%TO.N,/SYS_RST*%
X93299301Y-89403643D03*
%TO.P,U1,7,PA0*%
%TO.N,/INPUT*%
X92733616Y-88837957D03*
%TO.P,U1,8,PA1*%
%TO.N,/ENCODER_ACTIVE*%
X92167930Y-88272272D03*
D37*
%TO.P,U1,9,PA2*%
%TO.N,/Tx*%
X92167930Y-86327728D03*
%TO.P,U1,10,PA3*%
%TO.N,/Rx*%
X92733616Y-85762043D03*
%TO.P,U1,11,PA4*%
%TO.N,/ADC*%
X93299301Y-85196357D03*
%TO.P,U1,12,PA5*%
%TO.N,/LED2*%
X93864986Y-84630672D03*
%TO.P,U1,13,PA6*%
%TO.N,/DISP_0*%
X94430672Y-84064986D03*
%TO.P,U1,14,PA7*%
%TO.N,/DISP_A*%
X94996357Y-83499301D03*
%TO.P,U1,15,PB0*%
%TO.N,/DISP_F*%
X95562043Y-82933616D03*
%TO.P,U1,16,PB1*%
%TO.N,/DISP_1*%
X96127728Y-82367930D03*
D36*
%TO.P,U1,17,PB2*%
%TO.N,/DISP_2*%
X98072272Y-82367930D03*
%TO.P,U1,18,PA8*%
%TO.N,/DISP_B*%
X98637957Y-82933616D03*
%TO.P,U1,19,PA9*%
%TO.N,/DISP_3*%
X99203643Y-83499301D03*
%TO.P,U1,20,PC6*%
%TO.N,/DISP_E*%
X99769328Y-84064986D03*
%TO.P,U1,21,PA10*%
%TO.N,/DISP_D*%
X100335014Y-84630672D03*
%TO.P,U1,22,PA11_[PA9]*%
%TO.N,/DISP_DP*%
X100900699Y-85196357D03*
%TO.P,U1,23,PA12_[PA10]*%
%TO.N,/DISP_C*%
X101466384Y-85762043D03*
%TO.P,U1,24,PA13*%
%TO.N,/SYS_SWDIO*%
X102032070Y-86327728D03*
D37*
%TO.P,U1,25,PA14/BOOT0*%
%TO.N,/SYS_SWDCLK*%
X102032070Y-88272272D03*
%TO.P,U1,26,PA15*%
%TO.N,/DISP_G*%
X101466384Y-88837957D03*
%TO.P,U1,27,PB3*%
%TO.N,/MODE*%
X100900699Y-89403643D03*
%TO.P,U1,28,PB4*%
%TO.N,/BUTTON2*%
X100335014Y-89969328D03*
%TO.P,U1,29,PB5*%
%TO.N,/BUTTON1*%
X99769328Y-90535014D03*
%TO.P,U1,30,PB6*%
%TO.N,/ENC2*%
X99203643Y-91100699D03*
%TO.P,U1,31,PB7*%
%TO.N,/ENC1*%
X98637957Y-91666384D03*
%TO.P,U1,32,PB8*%
%TO.N,/SCL*%
X98072272Y-92232070D03*
%TD*%
D31*
%TO.P,R24,1*%
%TO.N,/DISP_G*%
X103500000Y-89875000D03*
%TO.P,R24,2*%
%TO.N,Net-(U2-Pad5)*%
X103500000Y-91525000D03*
%TD*%
D28*
%TO.P,R8,1*%
%TO.N,/ENCODER_ACTIVE*%
X114850000Y-81000000D03*
%TO.P,R8,2*%
%TO.N,Net-(Q6-Pad1)*%
X116500000Y-81000000D03*
%TD*%
D38*
%TO.N,/INPUT*%
X116860000Y-97710000D03*
%TO.N,GND*%
X82500000Y-98000000D03*
X79000000Y-96500000D03*
X84900000Y-89200000D03*
X98450000Y-101250000D03*
X107412011Y-77475000D03*
X113674500Y-86000000D03*
X119500000Y-86750000D03*
X79651000Y-87500000D03*
X96500000Y-97825500D03*
X101600000Y-103350000D03*
X83500000Y-98000000D03*
X119250000Y-71250000D03*
X88500000Y-98000000D03*
X84500000Y-98000000D03*
X114625000Y-96700500D03*
X113630000Y-101500000D03*
X79651000Y-84500000D03*
X83500000Y-97000000D03*
X83500000Y-96000000D03*
X97700000Y-100700000D03*
X117500000Y-82750000D03*
X83500000Y-95000000D03*
X118250000Y-71250000D03*
X84500000Y-97000000D03*
X119250000Y-69250000D03*
X112225000Y-82875000D03*
X123500000Y-72000000D03*
X84500000Y-96000000D03*
X106500000Y-98000000D03*
X81000000Y-79500000D03*
X118250000Y-69250000D03*
X108000000Y-81000000D03*
X84500000Y-95000000D03*
X85800000Y-89200000D03*
X100750000Y-103350000D03*
X80000000Y-79500000D03*
X99900000Y-103350000D03*
X82500000Y-97000000D03*
X92549694Y-100224194D03*
X82500000Y-95000000D03*
X99050000Y-103350000D03*
X112000000Y-86000000D03*
X114000000Y-83000000D03*
X120250000Y-69250000D03*
X82500000Y-96000000D03*
%TO.N,+3V3*%
X101325000Y-93600000D03*
X93375000Y-94000000D03*
X120400000Y-100100000D03*
X96300000Y-95825000D03*
X109250000Y-90950000D03*
X114125000Y-89500000D03*
X107500000Y-98500000D03*
X109087011Y-78375000D03*
X115470000Y-99880000D03*
X109087011Y-77500000D03*
X117900000Y-100200000D03*
X103500000Y-93500000D03*
X102850000Y-100225980D03*
X90000000Y-91000000D03*
X127770000Y-97740000D03*
%TO.N,/ENC2*%
X100000000Y-96500000D03*
X118565332Y-90065332D03*
X118500000Y-93000000D03*
X120400000Y-84400000D03*
%TO.N,/ENC1*%
X98000000Y-88500000D03*
X125625000Y-84400000D03*
%TO.N,/MODE*%
X99000000Y-98325500D03*
X92456408Y-98431887D03*
%TO.N,Net-(D2-Pad1)*%
X81100000Y-86575000D03*
%TO.N,/SDA*%
X110000000Y-79500000D03*
X115500000Y-84500000D03*
X115500000Y-82000000D03*
X117500000Y-86000000D03*
%TO.N,/LED2*%
X89000000Y-84500000D03*
X88500000Y-82500000D03*
X81500000Y-78500000D03*
%TO.N,/SCL*%
X114500000Y-84500000D03*
X110500000Y-78000000D03*
X99675000Y-93600000D03*
X109500000Y-100000000D03*
X111000000Y-88500000D03*
%TO.N,Net-(D3-Pad1)*%
X81100000Y-83475000D03*
%TO.N,/ADC*%
X80325500Y-93500000D03*
X94500000Y-86500000D03*
%TO.N,/SYS_SWDCLK*%
X107000000Y-94500000D03*
X109500000Y-88000000D03*
X104000000Y-85500000D03*
X105674500Y-85825500D03*
X106500000Y-88500000D03*
X87000000Y-94000000D03*
%TO.N,/SYS_SWDIO*%
X100000000Y-87500000D03*
X90000000Y-89000000D03*
%TO.N,/Tx*%
X86000000Y-94500000D03*
X91000000Y-85500000D03*
X87500000Y-87500000D03*
%TO.N,/Rx*%
X90000000Y-85000000D03*
X81000000Y-99500000D03*
%TO.N,/DISP_0*%
X91000000Y-83000000D03*
X90000000Y-80000000D03*
%TO.N,/BUTTON1*%
X101498758Y-92511079D03*
X123500000Y-94500000D03*
%TO.N,/BUTTON2*%
X97631385Y-86074020D03*
X113500000Y-82000000D03*
%TO.N,/DISP_D*%
X104675000Y-82000000D03*
X101600000Y-83550000D03*
%TO.N,/DISP_1*%
X97000000Y-81500000D03*
X99000000Y-76000000D03*
%TO.N,Net-(Q1-Pad3)*%
X92150000Y-79285000D03*
%TO.N,/DISP_2*%
X101000000Y-81500000D03*
X102250000Y-76362500D03*
%TO.N,Net-(Q2-Pad3)*%
X99770000Y-79285000D03*
%TO.N,Net-(Q3-Pad3)*%
X102310000Y-79285000D03*
%TO.N,/DISP_A*%
X86500000Y-78500000D03*
X84500000Y-80000000D03*
X93250000Y-73750000D03*
X93825000Y-75800000D03*
X90500000Y-82000000D03*
%TO.N,Net-(Q4-Pad3)*%
X104850000Y-90715000D03*
%TO.N,Net-(Q6-Pad3)*%
X118400000Y-78400000D03*
%TO.N,Net-(R6-Pad1)*%
X114625000Y-92750000D03*
%TO.N,Net-(R10-Pad2)*%
X125541408Y-81041407D03*
%TO.N,Net-(R11-Pad2)*%
X120500000Y-81275000D03*
%TO.N,Net-(R14-Pad1)*%
X125408592Y-96908592D03*
%TO.N,/DISP_C*%
X108850000Y-86650000D03*
X102600000Y-84300000D03*
X104850000Y-84100000D03*
X110500000Y-85725000D03*
X107376944Y-85423056D03*
X103800000Y-83050000D03*
%TO.N,/DISP_E*%
X96700000Y-85050000D03*
X89448114Y-88004128D03*
%TO.N,/DISP_DP*%
X99750000Y-86300000D03*
X104000000Y-86900000D03*
%TO.N,/DISP_B*%
X76982906Y-79667094D03*
X105350000Y-77050000D03*
%TO.N,/DISP_F*%
X89500000Y-83000000D03*
X95750000Y-73625000D03*
X95750000Y-77550000D03*
X84000000Y-83000000D03*
%TO.N,Net-(U2-Pad11)*%
X92175000Y-75800000D03*
%TO.N,Net-(U2-Pad7)*%
X104850000Y-79285000D03*
%TO.N,Net-(U2-Pad4)*%
X105650000Y-99250000D03*
X103750000Y-98950000D03*
X108350000Y-99250000D03*
%TO.N,Net-(U2-Pad2)*%
X103100000Y-81750000D03*
X96051944Y-88151944D03*
X96900000Y-83850000D03*
%TO.N,Net-(U2-Pad1)*%
X87125000Y-88850000D03*
%TO.N,Net-(U2-Pad10)*%
X96600000Y-75500000D03*
%TO.N,Net-(U2-Pad5)*%
X102310000Y-90715000D03*
%TO.N,Net-(U2-Pad3)*%
X103000000Y-87650000D03*
%TD*%
D39*
%TO.N,/INPUT*%
X123049520Y-70250480D02*
X123300000Y-70000000D01*
D40*
X88948384Y-86501616D02*
X82700000Y-80253231D01*
X89482706Y-86501616D02*
X91140545Y-88159455D01*
X88948384Y-86501616D02*
X89482706Y-86501616D01*
X91140545Y-88159455D02*
X91140545Y-88559455D01*
D39*
X117250000Y-94250000D02*
X117250000Y-90250000D01*
X124500000Y-83602151D02*
X124500000Y-80952150D01*
X82700000Y-74250000D02*
X88900000Y-74250000D01*
X116800000Y-94700000D02*
X117250000Y-94250000D01*
X127099511Y-73504617D02*
X123594894Y-70000000D01*
X119499521Y-88000479D02*
X121697370Y-88000479D01*
X92899520Y-70250480D02*
X123049520Y-70250480D01*
X124500000Y-80952150D02*
X127099511Y-78352640D01*
X127099511Y-78352640D02*
X127099511Y-73504617D01*
X117250000Y-90250000D02*
X119499521Y-88000479D01*
D40*
X91140545Y-88559455D02*
X91073384Y-88626616D01*
D39*
X88900000Y-74250000D02*
X92899520Y-70250480D01*
X116100000Y-94700000D02*
X116800000Y-94700000D01*
D40*
X92369452Y-89202121D02*
X91648890Y-89202121D01*
D39*
X116250000Y-97500000D02*
X116650000Y-97500000D01*
X116650000Y-97500000D02*
X116860000Y-97710000D01*
X121697370Y-88000479D02*
X124774520Y-84923329D01*
X116100000Y-97350000D02*
X116250000Y-97500000D01*
X124774520Y-83876671D02*
X124500000Y-83602151D01*
D40*
X82700000Y-80253231D02*
X82700000Y-74250000D01*
D39*
X124774520Y-84923329D02*
X124774520Y-83876671D01*
X116100000Y-94700000D02*
X116100000Y-97350000D01*
D40*
X92733616Y-88837957D02*
X92369452Y-89202121D01*
X91648890Y-89202121D02*
X91073384Y-88626616D01*
D39*
X123594894Y-70000000D02*
X123300000Y-70000000D01*
D40*
%TO.N,GND*%
X77000000Y-72400000D02*
X78200000Y-71200000D01*
X110375000Y-83299022D02*
X110375000Y-82887500D01*
X110274022Y-83400000D02*
X110375000Y-83299022D01*
X80000000Y-79500000D02*
X79935489Y-79564511D01*
X123400000Y-71900000D02*
X123500000Y-72000000D01*
X107537011Y-76875000D02*
X107537011Y-77350000D01*
X113630000Y-97695500D02*
X114625000Y-96700500D01*
X90725000Y-98000000D02*
X88500000Y-98000000D01*
X123300000Y-71900000D02*
X123400000Y-71900000D01*
X113630000Y-101500000D02*
X113630000Y-97695500D01*
X110887500Y-83400000D02*
X111700000Y-83400000D01*
X107412011Y-80224520D02*
X108000000Y-80812509D01*
X114550000Y-94700000D02*
X114550000Y-96625500D01*
X107412011Y-77475000D02*
X107412011Y-80224520D01*
X91525000Y-97200000D02*
X90725000Y-98000000D01*
X114550000Y-96625500D02*
X114625000Y-96700500D01*
X105278928Y-98500000D02*
X106000000Y-98500000D01*
X110887500Y-83400000D02*
X110274022Y-83400000D01*
X106000000Y-98500000D02*
X106500000Y-98000000D01*
X111700000Y-83400000D02*
X112225000Y-82875000D01*
X97525000Y-97500000D02*
X96825500Y-97500000D01*
X113500000Y-85825500D02*
X113500000Y-83500000D01*
X113500000Y-83500000D02*
X114000000Y-83000000D01*
X104541964Y-97763036D02*
X105278928Y-98500000D01*
X107537011Y-77600000D02*
X107412011Y-77475000D01*
X78300000Y-95800000D02*
X79000000Y-96500000D01*
X82725000Y-86600000D02*
X81825000Y-87500000D01*
X77000000Y-78730300D02*
X77000000Y-72400000D01*
X108025000Y-84539028D02*
X109885492Y-86399520D01*
X96825500Y-97500000D02*
X96500000Y-97825500D01*
X92975481Y-90858833D02*
X92975481Y-91349519D01*
X110887500Y-83900000D02*
X110887500Y-83400000D01*
X108025000Y-84425000D02*
X108025000Y-84539028D01*
X108000000Y-80812509D02*
X108000000Y-81000000D01*
X104541964Y-95361429D02*
X104541964Y-97763036D01*
X109362500Y-83400000D02*
X110274022Y-83400000D01*
X113674500Y-86000000D02*
X113500000Y-85825500D01*
D39*
X121575000Y-101150000D02*
X122100000Y-100625000D01*
D40*
X107537011Y-77350000D02*
X107412011Y-77475000D01*
X79935489Y-79564511D02*
X77834211Y-79564511D01*
X77834211Y-79564511D02*
X77000000Y-78730300D01*
X109885492Y-86399520D02*
X111600480Y-86399520D01*
X92975481Y-91349519D02*
X91825000Y-92500000D01*
D39*
X120175000Y-101150000D02*
X121575000Y-101150000D01*
D40*
X81825000Y-87500000D02*
X79651000Y-87500000D01*
X111600480Y-86399520D02*
X112000000Y-86000000D01*
X107537011Y-78375000D02*
X107537011Y-77600000D01*
X93864986Y-89969328D02*
X92975481Y-90858833D01*
X78300000Y-93680000D02*
X78300000Y-95800000D01*
D39*
%TO.N,Net-(C3-Pad1)*%
X120175000Y-102100000D02*
X122025000Y-102100000D01*
X122025000Y-102100000D02*
X122100000Y-102175000D01*
D40*
%TO.N,+3V3*%
X107375000Y-91550000D02*
X105450000Y-91550000D01*
X102725119Y-77374520D02*
X103737139Y-76362500D01*
X105774020Y-100225980D02*
X107500000Y-98500000D01*
X97600969Y-76825489D02*
X98249639Y-77474159D01*
X104150000Y-76362500D02*
X104387020Y-76125480D01*
X103737139Y-76362500D02*
X104150000Y-76362500D01*
X127000000Y-96725000D02*
X126546072Y-96725000D01*
X90250000Y-91000000D02*
X90000000Y-91000000D01*
D39*
X120250000Y-100125000D02*
X120175000Y-100200000D01*
D40*
X108500000Y-90425000D02*
X107375000Y-91550000D01*
X116850480Y-85149520D02*
X121300480Y-85149520D01*
X115470000Y-99880000D02*
X115790000Y-100200000D01*
X115500000Y-86500000D02*
X116850480Y-85149520D01*
X91187011Y-76825489D02*
X97600969Y-76825489D01*
X105666475Y-97258525D02*
X105666475Y-95833525D01*
X106525000Y-82875000D02*
X108025000Y-82875000D01*
X115790000Y-100200000D02*
X117900000Y-100200000D01*
X109362500Y-82900000D02*
X108050000Y-82900000D01*
D39*
X120175000Y-100200000D02*
X120300000Y-100200000D01*
D40*
X105775480Y-84856907D02*
X106068093Y-85149520D01*
X109824511Y-84849511D02*
X108900489Y-84849511D01*
X120999520Y-97850480D02*
X120250000Y-98600000D01*
X109875000Y-84412500D02*
X109875000Y-84799022D01*
X120975000Y-85475000D02*
X122050000Y-84400000D01*
X102850000Y-100225980D02*
X105774020Y-100225980D01*
X100650000Y-76362500D02*
X101662020Y-77374520D01*
X125420592Y-97850480D02*
X120999520Y-97850480D01*
X109875000Y-84799022D02*
X109824511Y-84849511D01*
X105450000Y-91550000D02*
X103500000Y-93500000D01*
X108025000Y-82875000D02*
X108900489Y-83750489D01*
X108500000Y-87500000D02*
X108500000Y-90425000D01*
X126546072Y-96725000D02*
X125420592Y-97850480D01*
X105666475Y-94895640D02*
X104270835Y-93500000D01*
X106149520Y-85149520D02*
X108500000Y-87500000D01*
X108900489Y-84849511D02*
X108900489Y-83750489D01*
X120975000Y-86700000D02*
X120975000Y-85475000D01*
X109087011Y-81812989D02*
X109087011Y-78375000D01*
X93375000Y-92500000D02*
X93375000Y-94000000D01*
X98249639Y-77474159D02*
X99125480Y-77474159D01*
D39*
X120250000Y-98600000D02*
X120250000Y-100125000D01*
D40*
X93375000Y-91590686D02*
X94430672Y-90535014D01*
X106068093Y-85149520D02*
X106149520Y-85149520D01*
X105775480Y-83624520D02*
X105775480Y-84856907D01*
X104270835Y-93500000D02*
X103500000Y-93500000D01*
X105666475Y-95833525D02*
X105666475Y-94895640D01*
X127770000Y-97740000D02*
X127770000Y-97495000D01*
X107375000Y-91550000D02*
X108650000Y-91550000D01*
X105425000Y-97500000D02*
X105666475Y-97258525D01*
X123975000Y-84400000D02*
X122050000Y-84400000D01*
X93375000Y-92500000D02*
X93375000Y-91590686D01*
X127770000Y-97495000D02*
X127000000Y-96725000D01*
X114125000Y-89500000D02*
X115500000Y-88125000D01*
X101662020Y-77374520D02*
X102725119Y-77374520D01*
X107500000Y-97667050D02*
X107500000Y-98500000D01*
X109875000Y-84412500D02*
X110375000Y-84412500D01*
X115500000Y-88125000D02*
X115500000Y-86500000D01*
X108025000Y-82875000D02*
X109087011Y-81812989D01*
D39*
X120300000Y-100200000D02*
X120400000Y-100100000D01*
X117900000Y-100200000D02*
X117900000Y-101150000D01*
D40*
X106525000Y-82875000D02*
X105775480Y-83624520D01*
X105666475Y-95833525D02*
X107500000Y-97667050D01*
X108337491Y-76125480D02*
X109087011Y-76875000D01*
X99125480Y-77474159D02*
X100237139Y-76362500D01*
X100237139Y-76362500D02*
X100650000Y-76362500D01*
X89662500Y-78350000D02*
X91187011Y-76825489D01*
X109087011Y-76875000D02*
X109087011Y-77500000D01*
X108650000Y-91550000D02*
X109250000Y-90950000D01*
X104387020Y-76125480D02*
X108337491Y-76125480D01*
X109087011Y-77500000D02*
X109087011Y-78375000D01*
%TO.N,Net-(C8-Pad1)*%
X94550000Y-97450000D02*
X95500000Y-96500000D01*
X95500000Y-93053231D02*
X95197879Y-92751110D01*
X93075000Y-97200000D02*
X94300000Y-97200000D01*
X95197879Y-92030548D02*
X95562043Y-91666384D01*
X95500000Y-96500000D02*
X95500000Y-93053231D01*
X95197879Y-92751110D02*
X95197879Y-92030548D01*
X94300000Y-97200000D02*
X94550000Y-97450000D01*
%TO.N,Net-(C9-Pad1)*%
X95100480Y-93600480D02*
X95100480Y-94999520D01*
X94550000Y-91547056D02*
X94550000Y-93050000D01*
X95100480Y-94999520D02*
X94550000Y-95550000D01*
X94550000Y-93050000D02*
X95100480Y-93600480D01*
X93075000Y-95600000D02*
X94500000Y-95600000D01*
X94996357Y-91100699D02*
X94550000Y-91547056D01*
X94500000Y-95600000D02*
X94550000Y-95550000D01*
%TO.N,Net-(C12-Pad1)*%
X110887500Y-84400000D02*
X112200000Y-84400000D01*
X112200000Y-84400000D02*
X112225000Y-84425000D01*
D39*
%TO.N,Net-(L1-Pad2)*%
X118962020Y-101637980D02*
X118500000Y-102100000D01*
X118550000Y-98375000D02*
X118962020Y-98787020D01*
X118962020Y-98787020D02*
X118962020Y-101637980D01*
X118550000Y-97500000D02*
X118550000Y-98375000D01*
X118500000Y-102100000D02*
X117900000Y-102100000D01*
D40*
%TO.N,/ENC2*%
X99203643Y-91100699D02*
X100349520Y-92246576D01*
X120400000Y-83025000D02*
X120500000Y-82925000D01*
X100349520Y-92246576D02*
X100349520Y-94650480D01*
X118500000Y-90130664D02*
X118565332Y-90065332D01*
X120400000Y-84400000D02*
X120400000Y-83025000D01*
X118500000Y-93000000D02*
X118500000Y-90130664D01*
X120375000Y-82800000D02*
X120500000Y-82925000D01*
X100000000Y-95000000D02*
X100000000Y-96500000D01*
X119000000Y-82800000D02*
X120375000Y-82800000D01*
X100349520Y-94650480D02*
X100000000Y-95000000D01*
%TO.N,/ENC1*%
X98273794Y-91273794D02*
X97000000Y-90000000D01*
X97500000Y-88500000D02*
X98000000Y-88500000D01*
X125625000Y-82800000D02*
X125500000Y-82925000D01*
X98637957Y-91666384D02*
X98273794Y-91302221D01*
X97000000Y-89000000D02*
X97000000Y-90000000D01*
X97000000Y-89000000D02*
X97500000Y-88500000D01*
X98273794Y-91302221D02*
X98273794Y-91273794D01*
X125625000Y-83050000D02*
X125500000Y-82925000D01*
X125625000Y-84400000D02*
X125625000Y-83050000D01*
X127025000Y-82800000D02*
X125625000Y-82800000D01*
%TO.N,/MODE*%
X100249520Y-98249520D02*
X101600480Y-98249520D01*
X92213784Y-98674511D02*
X81899531Y-98674511D01*
X100173540Y-98325500D02*
X100249520Y-98249520D01*
X81000011Y-97774991D02*
X81000011Y-91300011D01*
X81899531Y-98674511D02*
X81000011Y-97774991D01*
X99000000Y-98325500D02*
X100173540Y-98325500D01*
X102466475Y-97383525D02*
X102350000Y-97500000D01*
X102173269Y-91740319D02*
X102173269Y-94240319D01*
X101500000Y-90002944D02*
X101500000Y-91067050D01*
X81000011Y-91300011D02*
X78300000Y-88600000D01*
X101600480Y-98249520D02*
X102350000Y-97500000D01*
X102466475Y-94533525D02*
X102466475Y-97383525D01*
X100900699Y-89403643D02*
X101500000Y-90002944D01*
X102350000Y-97500000D02*
X103775000Y-97500000D01*
X92456408Y-98431887D02*
X92213784Y-98674511D01*
X102173269Y-94240319D02*
X102466475Y-94533525D01*
X101500000Y-91067050D02*
X102173269Y-91740319D01*
D39*
%TO.N,Net-(D1-Pad1)*%
X125300000Y-74250000D02*
X125300000Y-75750000D01*
X121425000Y-71925000D02*
X119100000Y-74250000D01*
X125300000Y-74250000D02*
X119100000Y-74250000D01*
X121425000Y-70950000D02*
X121425000Y-71925000D01*
X125300000Y-75750000D02*
X123750000Y-77300000D01*
D40*
%TO.N,Net-(D2-Pad1)*%
X81075000Y-86600000D02*
X81100000Y-86575000D01*
%TO.N,/SDA*%
X95500000Y-99500000D02*
X98000000Y-102000000D01*
X114644062Y-93424511D02*
X114904393Y-93424511D01*
X116500000Y-89000000D02*
X117000000Y-88500000D01*
X95324511Y-98675489D02*
X95324511Y-97675489D01*
X89920000Y-101900000D02*
X92820000Y-99000000D01*
X95324511Y-97675489D02*
X96078214Y-96921786D01*
X110500000Y-97568573D02*
X114644062Y-93424511D01*
X99266475Y-95827218D02*
X99266475Y-94766475D01*
X96300000Y-94175000D02*
X96300000Y-92404342D01*
X117000000Y-88500000D02*
X117000000Y-86500000D01*
X99266475Y-94766475D02*
X98675000Y-94175000D01*
X109875000Y-79625000D02*
X110000000Y-79500000D01*
X96921786Y-96921786D02*
X97357633Y-96485940D01*
X109875000Y-82887500D02*
X109875000Y-79625000D01*
X96078214Y-96921786D02*
X96921786Y-96921786D01*
X117000000Y-86500000D02*
X117500000Y-86000000D01*
X110500000Y-100500000D02*
X110500000Y-97568573D01*
X92820000Y-99000000D02*
X95000000Y-99000000D01*
X92320000Y-99500000D02*
X95500000Y-99500000D01*
X114904393Y-93424511D02*
X116500000Y-91828904D01*
X98675000Y-94175000D02*
X96300000Y-94175000D01*
X115500000Y-82000000D02*
X115500000Y-84500000D01*
X98607753Y-96485940D02*
X99266475Y-95827218D01*
X98000000Y-102000000D02*
X109000000Y-102000000D01*
X96300000Y-92404342D02*
X96127728Y-92232070D01*
X97357633Y-96485940D02*
X98607753Y-96485940D01*
X116500000Y-91828904D02*
X116500000Y-89000000D01*
X109000000Y-102000000D02*
X110500000Y-100500000D01*
X95000000Y-99000000D02*
X95324511Y-98675489D01*
%TO.N,/LED2*%
X88500000Y-84000000D02*
X89000000Y-84500000D01*
X80900000Y-78500000D02*
X81500000Y-78500000D01*
X78300000Y-75900000D02*
X80900000Y-78500000D01*
X89233492Y-84266508D02*
X89000000Y-84500000D01*
X93500822Y-84266508D02*
X89233492Y-84266508D01*
X88500000Y-82500000D02*
X88500000Y-84000000D01*
X93864986Y-84630672D02*
X93500822Y-84266508D01*
%TO.N,/SCL*%
X111500000Y-89000000D02*
X111000000Y-88500000D01*
X115000000Y-84000000D02*
X114500000Y-84500000D01*
X110887500Y-80612500D02*
X113066404Y-80612500D01*
X111500000Y-96000000D02*
X111500000Y-89000000D01*
X115000000Y-82546096D02*
X115000000Y-84000000D01*
X109500000Y-98000000D02*
X111500000Y-96000000D01*
X110887500Y-82900000D02*
X110887500Y-78387500D01*
X113066404Y-80612500D02*
X115000000Y-82546096D01*
X98072272Y-92232070D02*
X98307070Y-92232070D01*
X98307070Y-92232070D02*
X99675000Y-93600000D01*
X110887500Y-78387500D02*
X110500000Y-78000000D01*
X109500000Y-100000000D02*
X109500000Y-98000000D01*
%TO.N,Net-(D3-Pad1)*%
X81075000Y-83500000D02*
X81100000Y-83475000D01*
%TO.N,/ADC*%
X87389700Y-103500000D02*
X93400000Y-103500000D01*
X93400000Y-103500000D02*
X95000000Y-101900000D01*
X80325500Y-99925500D02*
X81175489Y-100775489D01*
X94500000Y-86500000D02*
X94500000Y-86397056D01*
X94500000Y-86397056D02*
X93299301Y-85196357D01*
X85596767Y-100775489D02*
X86255489Y-101434211D01*
X80325500Y-93500000D02*
X80325500Y-99925500D01*
X81175489Y-100775489D02*
X85596767Y-100775489D01*
X86255489Y-102365789D02*
X87389700Y-103500000D01*
X86255489Y-101434211D02*
X86255489Y-102365789D01*
%TO.N,/SYS_SWDCLK*%
X102032070Y-87467930D02*
X103100000Y-86400000D01*
X109500000Y-89600000D02*
X109925000Y-90025000D01*
X103100000Y-85800000D02*
X103400000Y-85500000D01*
X86720000Y-94000000D02*
X87000000Y-94000000D01*
X102032070Y-88272272D02*
X102032070Y-87467930D01*
X107453904Y-94500000D02*
X107000000Y-94500000D01*
X105674500Y-85825500D02*
X105674500Y-87674500D01*
X84620000Y-91900000D02*
X86720000Y-94000000D01*
X109925000Y-90025000D02*
X109925000Y-92028904D01*
X109925000Y-92028904D02*
X107453904Y-94500000D01*
X105674500Y-87674500D02*
X106500000Y-88500000D01*
X103100000Y-86400000D02*
X103100000Y-85800000D01*
X103400000Y-85500000D02*
X104000000Y-85500000D01*
X109500000Y-88000000D02*
X109500000Y-89600000D01*
%TO.N,/SYS_SWDIO*%
X87160000Y-91900000D02*
X90000000Y-89060000D01*
X100859798Y-87500000D02*
X102032070Y-86327728D01*
X90000000Y-89060000D02*
X90000000Y-89000000D01*
X100000000Y-87500000D02*
X100859798Y-87500000D01*
%TO.N,/SYS_RST*%
X91000000Y-91900000D02*
X91900000Y-91000000D01*
X93299301Y-89403643D02*
X93299301Y-89600699D01*
X93299301Y-89600699D02*
X91900000Y-91000000D01*
X88430000Y-91900000D02*
X91000000Y-91900000D01*
%TO.N,/Tx*%
X86000000Y-94500000D02*
X85825489Y-94325489D01*
X84226467Y-94325489D02*
X82000000Y-92099022D01*
X91000000Y-85500000D02*
X91340202Y-85500000D01*
X82000000Y-92099022D02*
X82000000Y-91000000D01*
X91340202Y-85500000D02*
X92167930Y-86327728D01*
X85500000Y-87500000D02*
X87500000Y-87500000D01*
X85825489Y-94325489D02*
X84226467Y-94325489D01*
X82000000Y-91000000D02*
X85500000Y-87500000D01*
%TO.N,/Rx*%
X90174511Y-84825489D02*
X90000000Y-85000000D01*
X84980000Y-99500000D02*
X87380000Y-101900000D01*
X91797062Y-84825489D02*
X90174511Y-84825489D01*
X92733616Y-85762043D02*
X91797062Y-84825489D01*
X81000000Y-99500000D02*
X84980000Y-99500000D01*
%TO.N,/DISP_0*%
X89662500Y-80250000D02*
X89750000Y-80250000D01*
X93365686Y-83000000D02*
X94430672Y-84064986D01*
X91000000Y-83000000D02*
X93365686Y-83000000D01*
X89750000Y-80250000D02*
X90000000Y-80000000D01*
%TO.N,/DISP_3*%
X100128913Y-82574031D02*
X102074031Y-82574031D01*
X99203643Y-83499301D02*
X100128913Y-82574031D01*
X102074031Y-82574031D02*
X105000000Y-85500000D01*
X105000000Y-85500000D02*
X105000000Y-88500000D01*
X106150000Y-89650000D02*
X107375000Y-89650000D01*
X105000000Y-88500000D02*
X106150000Y-89650000D01*
%TO.N,/BUTTON1*%
X126975000Y-93600000D02*
X126975000Y-95050000D01*
X124825000Y-94500000D02*
X125400000Y-95075000D01*
X99769328Y-90535014D02*
X99769328Y-90781649D01*
X125400000Y-95075000D02*
X127000000Y-95075000D01*
X123500000Y-94500000D02*
X124825000Y-94500000D01*
X126975000Y-95050000D02*
X127000000Y-95075000D01*
X99769328Y-90781649D02*
X101498758Y-92511079D01*
%TO.N,/BUTTON2*%
X113000000Y-82500000D02*
X113000000Y-87525000D01*
X112525000Y-88000000D02*
X112525000Y-89450000D01*
X98500000Y-88000000D02*
X100335014Y-89835014D01*
X112475000Y-91100000D02*
X112475000Y-89500000D01*
X98500000Y-88000000D02*
X98500000Y-87000000D01*
X113000000Y-87525000D02*
X112525000Y-88000000D01*
X97631385Y-86131385D02*
X97631385Y-86074020D01*
X100335014Y-89969328D02*
X100335014Y-89835014D01*
X113500000Y-82000000D02*
X113000000Y-82500000D01*
X112525000Y-89450000D02*
X112475000Y-89500000D01*
X98500000Y-87000000D02*
X97631385Y-86131385D01*
%TO.N,/DISP_D*%
X100335014Y-84630672D02*
X100519328Y-84630672D01*
X100519328Y-84630672D02*
X101600000Y-83550000D01*
%TO.N,/DISP_G*%
X102475000Y-89875000D02*
X103500000Y-89875000D01*
X101466384Y-88837957D02*
X101466384Y-88866384D01*
X101466384Y-88866384D02*
X102475000Y-89875000D01*
%TO.N,/DISP_1*%
X96995658Y-81500000D02*
X96127728Y-82367930D01*
X98750000Y-76250000D02*
X99000000Y-76000000D01*
X97000000Y-81500000D02*
X96995658Y-81500000D01*
X98750000Y-76362500D02*
X98750000Y-76250000D01*
%TO.N,Net-(Q1-Pad3)*%
X92135000Y-79300000D02*
X92150000Y-79285000D01*
X91537500Y-79300000D02*
X92135000Y-79300000D01*
%TO.N,/DISP_2*%
X98940202Y-81500000D02*
X101000000Y-81500000D01*
X98072272Y-82367930D02*
X98940202Y-81500000D01*
%TO.N,Net-(Q2-Pad3)*%
X99700000Y-78237500D02*
X99700000Y-79215000D01*
X99700000Y-79215000D02*
X99770000Y-79285000D01*
%TO.N,Net-(Q3-Pad3)*%
X103200000Y-78395000D02*
X102310000Y-79285000D01*
X103200000Y-78237500D02*
X103200000Y-78395000D01*
%TO.N,/DISP_A*%
X86000000Y-78500000D02*
X86500000Y-78500000D01*
X87018117Y-78500000D02*
X91768117Y-73750000D01*
X93497056Y-82000000D02*
X94996357Y-83499301D01*
X90500000Y-82000000D02*
X93497056Y-82000000D01*
X86500000Y-78500000D02*
X87018117Y-78500000D01*
X84500000Y-80000000D02*
X86000000Y-78500000D01*
X91768117Y-73750000D02*
X93250000Y-73750000D01*
%TO.N,Net-(Q4-Pad3)*%
X105500000Y-90600000D02*
X104965000Y-90600000D01*
X104965000Y-90600000D02*
X104850000Y-90715000D01*
%TO.N,Net-(Q6-Pad1)*%
X116525000Y-80975000D02*
X116500000Y-81000000D01*
X116525000Y-79350000D02*
X116525000Y-80975000D01*
%TO.N,Net-(Q6-Pad3)*%
X114600000Y-79025000D02*
X115225000Y-78400000D01*
X115225000Y-78400000D02*
X118400000Y-78400000D01*
%TO.N,Net-(R2-Pad1)*%
X101341964Y-96858036D02*
X100700000Y-97500000D01*
X101341964Y-95361429D02*
X101341964Y-96858036D01*
%TO.N,Net-(R6-Pad1)*%
X114125000Y-92250000D02*
X114625000Y-92750000D01*
X114125000Y-91100000D02*
X114125000Y-92250000D01*
%TO.N,/ENCODER_ACTIVE*%
X87000000Y-79500000D02*
X87000000Y-83453904D01*
X114850000Y-81000000D02*
X108350000Y-74500000D01*
X87000000Y-83453904D02*
X91818368Y-88272272D01*
X91818368Y-88272272D02*
X92167930Y-88272272D01*
X108350000Y-74500000D02*
X92000000Y-74500000D01*
X92000000Y-74500000D02*
X87000000Y-79500000D01*
%TO.N,Net-(R10-Pad2)*%
X125500000Y-81275000D02*
X125500000Y-81082815D01*
X125500000Y-81082815D02*
X125541408Y-81041407D01*
%TO.N,Net-(R14-Pad1)*%
X125400000Y-96725000D02*
X125400000Y-96900000D01*
X125400000Y-96900000D02*
X125408592Y-96908592D01*
%TO.N,/DISP_C*%
X102250000Y-84650000D02*
X102600000Y-84300000D01*
X107376944Y-85423056D02*
X107623056Y-85423056D01*
X103800000Y-83050000D02*
X104850000Y-84100000D01*
X101466384Y-85762043D02*
X102250000Y-84978427D01*
X102250000Y-84978427D02*
X102250000Y-84650000D01*
X107623056Y-85423056D02*
X108850000Y-86650000D01*
%TO.N,/DISP_E*%
X88775000Y-88677242D02*
X89448114Y-88004128D01*
X98784314Y-85050000D02*
X99769328Y-84064986D01*
X96700000Y-85050000D02*
X98784314Y-85050000D01*
X88775000Y-88850000D02*
X88775000Y-88677242D01*
%TO.N,/DISP_DP*%
X99797056Y-86300000D02*
X100900699Y-85196357D01*
X99750000Y-86300000D02*
X99797056Y-86300000D01*
X103900000Y-86800000D02*
X104000000Y-86900000D01*
X103900000Y-86525000D02*
X103900000Y-86800000D01*
X104025000Y-86875000D02*
X104000000Y-86900000D01*
%TO.N,/DISP_B*%
X76982906Y-82202906D02*
X78300000Y-83520000D01*
X99397062Y-82174511D02*
X98637957Y-82933616D01*
X103025000Y-80550000D02*
X103774520Y-79800480D01*
X103025000Y-80550000D02*
X101400489Y-82174511D01*
X101400489Y-82174511D02*
X99397062Y-82174511D01*
X76982906Y-79667094D02*
X76982906Y-82202906D01*
X103774520Y-79800480D02*
X103774520Y-78625480D01*
X103774520Y-78625480D02*
X105350000Y-77050000D01*
%TO.N,/DISP_F*%
X95197879Y-78102121D02*
X95750000Y-77550000D01*
X89500000Y-83000000D02*
X89500000Y-82046096D01*
X78860000Y-85500000D02*
X81871072Y-85500000D01*
X93628427Y-81000000D02*
X95562043Y-82933616D01*
X84000000Y-83371072D02*
X84000000Y-83000000D01*
X81871072Y-85500000D02*
X84000000Y-83371072D01*
X95197879Y-82569452D02*
X95197879Y-78102121D01*
X78300000Y-86060000D02*
X78860000Y-85500000D01*
X89500000Y-82046096D02*
X90546096Y-81000000D01*
X90546096Y-81000000D02*
X93628427Y-81000000D01*
%TO.N,Net-(U2-Pad7)*%
X104675000Y-79460000D02*
X104850000Y-79285000D01*
X104675000Y-80550000D02*
X104675000Y-79460000D01*
%TO.N,Net-(U2-Pad4)*%
X110325489Y-88220607D02*
X110325489Y-89375489D01*
X110500000Y-88046096D02*
X110325489Y-88220607D01*
X105350000Y-98950000D02*
X105650000Y-99250000D01*
X110400000Y-94200000D02*
X110400000Y-89450000D01*
X110325489Y-89375489D02*
X110400000Y-89450000D01*
X110500000Y-87375000D02*
X110500000Y-88046096D01*
X103750000Y-98950000D02*
X105350000Y-98950000D01*
X108350000Y-96250000D02*
X110400000Y-94200000D01*
X108350000Y-99250000D02*
X108350000Y-96250000D01*
%TO.N,Net-(U2-Pad2)*%
X95650000Y-85100000D02*
X96900000Y-83850000D01*
X96051944Y-88151944D02*
X95650000Y-87750000D01*
X95650000Y-87750000D02*
X95650000Y-85100000D01*
%TO.N,Net-(U2-Pad10)*%
X95750000Y-75275000D02*
X96375000Y-75275000D01*
X96375000Y-75275000D02*
X96600000Y-75500000D01*
%TO.N,Net-(U2-Pad5)*%
X103500000Y-91525000D02*
X103120000Y-91525000D01*
X103120000Y-91525000D02*
X102310000Y-90715000D01*
%TO.N,Net-(U2-Pad3)*%
X103375000Y-87650000D02*
X103900000Y-88175000D01*
X103000000Y-87650000D02*
X103375000Y-87650000D01*
%TD*%
%TA.AperFunction,Conductor*%
%TO.N,GND*%
G36*
X128015886Y-69028002D02*
G01*
X128062379Y-69081658D01*
X128072483Y-69151932D01*
X128053438Y-69202624D01*
X128041874Y-69220431D01*
X128037613Y-69228118D01*
X127922655Y-69474647D01*
X127919504Y-69482857D01*
X127839978Y-69742977D01*
X127837999Y-69751547D01*
X127795315Y-70021044D01*
X127794601Y-70028128D01*
X127792060Y-70086331D01*
X127792000Y-70089083D01*
X127792000Y-70927885D01*
X127796475Y-70943124D01*
X127797865Y-70944329D01*
X127805548Y-70946000D01*
X129928000Y-70946000D01*
X129996121Y-70966002D01*
X130042614Y-71019658D01*
X130054000Y-71072000D01*
X130054000Y-74174685D01*
X130057886Y-74187921D01*
X130072345Y-74189894D01*
X130248453Y-74162001D01*
X130257023Y-74160022D01*
X130517143Y-74080496D01*
X130525353Y-74077345D01*
X130771882Y-73962387D01*
X130779569Y-73958126D01*
X130797376Y-73946562D01*
X130865401Y-73926236D01*
X130933616Y-73945915D01*
X130980364Y-73999349D01*
X130992000Y-74052235D01*
X130992000Y-99447765D01*
X130971998Y-99515886D01*
X130918342Y-99562379D01*
X130848068Y-99572483D01*
X130797376Y-99553438D01*
X130779569Y-99541874D01*
X130771882Y-99537613D01*
X130525353Y-99422655D01*
X130517143Y-99419504D01*
X130257023Y-99339978D01*
X130248453Y-99337999D01*
X130071894Y-99310034D01*
X130058211Y-99311802D01*
X130054000Y-99325774D01*
X130054000Y-102428000D01*
X130033998Y-102496121D01*
X129980342Y-102542614D01*
X129928000Y-102554000D01*
X127810116Y-102554000D01*
X127794877Y-102558475D01*
X127793672Y-102559865D01*
X127792001Y-102567548D01*
X127792001Y-103410915D01*
X127792061Y-103413672D01*
X127794601Y-103471855D01*
X127795317Y-103478972D01*
X127837999Y-103748453D01*
X127839978Y-103757023D01*
X127919504Y-104017143D01*
X127922655Y-104025353D01*
X128037613Y-104271882D01*
X128041874Y-104279569D01*
X128053438Y-104297376D01*
X128073764Y-104365401D01*
X128054085Y-104433616D01*
X128000651Y-104480364D01*
X127947765Y-104492000D01*
X80052235Y-104492000D01*
X79984114Y-104471998D01*
X79937621Y-104418342D01*
X79927517Y-104348068D01*
X79946562Y-104297376D01*
X79958126Y-104279569D01*
X79962387Y-104271882D01*
X80077345Y-104025353D01*
X80080496Y-104017143D01*
X80160022Y-103757023D01*
X80162001Y-103748453D01*
X80204685Y-103478956D01*
X80205399Y-103471872D01*
X80207940Y-103413669D01*
X80208000Y-103410917D01*
X80208000Y-102572115D01*
X80203525Y-102556876D01*
X80202135Y-102555671D01*
X80194452Y-102554000D01*
X78072000Y-102554000D01*
X78003879Y-102533998D01*
X77957386Y-102480342D01*
X77946000Y-102428000D01*
X77946000Y-99325315D01*
X77942114Y-99312079D01*
X77927655Y-99310106D01*
X77751547Y-99337999D01*
X77742977Y-99339978D01*
X77482857Y-99419504D01*
X77474647Y-99422655D01*
X77228118Y-99537613D01*
X77220431Y-99541874D01*
X77202624Y-99553438D01*
X77134599Y-99573764D01*
X77066384Y-99554085D01*
X77019636Y-99500651D01*
X77008000Y-99447765D01*
X77008000Y-94600588D01*
X77028002Y-94532467D01*
X77081658Y-94485974D01*
X77151932Y-94475870D01*
X77216512Y-94505364D01*
X77229237Y-94518090D01*
X77343218Y-94649673D01*
X77350580Y-94656883D01*
X77514434Y-94792916D01*
X77522881Y-94798831D01*
X77706756Y-94906279D01*
X77716042Y-94910729D01*
X77915001Y-94986703D01*
X77924899Y-94989579D01*
X78028250Y-95010606D01*
X78042299Y-95009410D01*
X78046000Y-94999065D01*
X78046000Y-91012000D01*
X78066002Y-90943879D01*
X78119658Y-90897386D01*
X78172000Y-90886000D01*
X79636459Y-90886000D01*
X79636459Y-90890775D01*
X79673133Y-90890792D01*
X79726673Y-90922577D01*
X80329606Y-91525510D01*
X80363632Y-91587822D01*
X80366511Y-91614605D01*
X80366511Y-92465500D01*
X80346509Y-92533621D01*
X80292853Y-92580114D01*
X80240511Y-92591500D01*
X80230013Y-92591500D01*
X80223561Y-92592872D01*
X80223556Y-92592872D01*
X80156348Y-92607158D01*
X80043212Y-92631206D01*
X80037182Y-92633891D01*
X80037181Y-92633891D01*
X79874778Y-92706197D01*
X79874776Y-92706198D01*
X79868748Y-92708882D01*
X79863407Y-92712762D01*
X79863406Y-92712763D01*
X79832330Y-92735341D01*
X79714247Y-92821134D01*
X79619263Y-92926625D01*
X79558818Y-92963863D01*
X79487834Y-92962511D01*
X79428850Y-92922997D01*
X79419835Y-92910752D01*
X79382424Y-92852923D01*
X79376136Y-92844757D01*
X79232806Y-92687240D01*
X79225273Y-92680215D01*
X79058139Y-92548222D01*
X79049552Y-92542517D01*
X79012116Y-92521851D01*
X78962146Y-92471419D01*
X78947374Y-92401976D01*
X78972490Y-92335571D01*
X78999842Y-92308964D01*
X79175327Y-92183792D01*
X79183200Y-92177139D01*
X79334052Y-92026812D01*
X79340730Y-92018965D01*
X79465003Y-91846020D01*
X79470313Y-91837183D01*
X79564670Y-91646267D01*
X79568469Y-91636672D01*
X79630377Y-91432910D01*
X79632555Y-91422837D01*
X79633986Y-91411962D01*
X79631775Y-91397778D01*
X79618617Y-91394000D01*
X78572115Y-91394000D01*
X78556876Y-91398475D01*
X78555671Y-91399865D01*
X78554000Y-91407548D01*
X78554000Y-94998517D01*
X78558064Y-95012359D01*
X78571478Y-95014393D01*
X78578184Y-95013534D01*
X78588262Y-95011392D01*
X78792255Y-94950191D01*
X78801842Y-94946433D01*
X78993095Y-94852739D01*
X79001945Y-94847464D01*
X79175328Y-94723792D01*
X79183200Y-94717139D01*
X79334052Y-94566812D01*
X79340723Y-94558972D01*
X79463677Y-94387864D01*
X79519672Y-94344216D01*
X79590375Y-94337770D01*
X79653340Y-94370573D01*
X79688574Y-94432209D01*
X79692000Y-94461390D01*
X79692000Y-99659869D01*
X79671998Y-99727990D01*
X79618342Y-99774483D01*
X79548068Y-99784587D01*
X79483336Y-99754962D01*
X79414719Y-99695314D01*
X79407700Y-99690024D01*
X79179572Y-99541876D01*
X79171882Y-99537613D01*
X78925353Y-99422655D01*
X78917143Y-99419504D01*
X78657023Y-99339978D01*
X78648453Y-99337999D01*
X78471894Y-99310034D01*
X78458211Y-99311802D01*
X78454000Y-99325774D01*
X78454000Y-102027885D01*
X78458475Y-102043124D01*
X78459865Y-102044329D01*
X78467548Y-102046000D01*
X80189884Y-102046000D01*
X80205123Y-102041525D01*
X80206328Y-102040135D01*
X80207999Y-102032452D01*
X80207999Y-101189086D01*
X80207939Y-101186328D01*
X80205399Y-101128145D01*
X80204683Y-101121028D01*
X80186223Y-101004478D01*
X80195323Y-100934067D01*
X80241044Y-100879753D01*
X80308873Y-100858780D01*
X80377272Y-100877807D01*
X80399767Y-100895672D01*
X80671837Y-101167742D01*
X80679377Y-101176028D01*
X80683489Y-101182507D01*
X80689266Y-101187932D01*
X80733140Y-101229132D01*
X80735982Y-101231887D01*
X80755719Y-101251624D01*
X80758916Y-101254104D01*
X80767936Y-101261807D01*
X80800168Y-101292075D01*
X80807114Y-101295894D01*
X80807117Y-101295896D01*
X80817923Y-101301837D01*
X80834442Y-101312688D01*
X80850448Y-101325103D01*
X80865540Y-101331634D01*
X80920114Y-101377043D01*
X80941500Y-101447271D01*
X80941500Y-102798134D01*
X80948255Y-102860316D01*
X80999385Y-102996705D01*
X81086739Y-103113261D01*
X81203295Y-103200615D01*
X81339684Y-103251745D01*
X81401866Y-103258500D01*
X83198134Y-103258500D01*
X83260316Y-103251745D01*
X83396705Y-103200615D01*
X83513261Y-103113261D01*
X83600615Y-102996705D01*
X83628341Y-102922746D01*
X83644598Y-102879382D01*
X83687240Y-102822618D01*
X83753802Y-102797918D01*
X83823150Y-102813126D01*
X83857817Y-102841114D01*
X83886250Y-102873938D01*
X84058126Y-103016632D01*
X84251000Y-103129338D01*
X84255825Y-103131180D01*
X84255826Y-103131181D01*
X84261040Y-103133172D01*
X84459692Y-103209030D01*
X84464760Y-103210061D01*
X84464763Y-103210062D01*
X84572017Y-103231883D01*
X84678597Y-103253567D01*
X84683772Y-103253757D01*
X84683774Y-103253757D01*
X84896673Y-103261564D01*
X84896677Y-103261564D01*
X84901837Y-103261753D01*
X84906957Y-103261097D01*
X84906959Y-103261097D01*
X85118288Y-103234025D01*
X85118289Y-103234025D01*
X85123416Y-103233368D01*
X85128366Y-103231883D01*
X85332429Y-103170661D01*
X85332434Y-103170659D01*
X85337384Y-103169174D01*
X85537994Y-103070896D01*
X85719860Y-102941173D01*
X85723517Y-102937529D01*
X85723522Y-102937525D01*
X85738505Y-102922593D01*
X85800875Y-102888675D01*
X85871682Y-102893861D01*
X85916542Y-102922746D01*
X86886043Y-103892247D01*
X86893587Y-103900537D01*
X86897700Y-103907018D01*
X86903477Y-103912443D01*
X86947367Y-103953658D01*
X86950209Y-103956413D01*
X86969931Y-103976135D01*
X86973055Y-103978558D01*
X86973059Y-103978562D01*
X86973124Y-103978612D01*
X86982145Y-103986317D01*
X87014379Y-104016586D01*
X87021327Y-104020405D01*
X87021329Y-104020407D01*
X87032132Y-104026346D01*
X87048659Y-104037202D01*
X87058398Y-104044757D01*
X87058400Y-104044758D01*
X87064660Y-104049614D01*
X87105240Y-104067174D01*
X87115888Y-104072391D01*
X87140676Y-104086018D01*
X87154640Y-104093695D01*
X87162316Y-104095666D01*
X87162319Y-104095667D01*
X87174262Y-104098733D01*
X87192967Y-104105137D01*
X87211555Y-104113181D01*
X87219378Y-104114420D01*
X87219388Y-104114423D01*
X87255224Y-104120099D01*
X87266844Y-104122505D01*
X87298659Y-104130673D01*
X87309670Y-104133500D01*
X87329924Y-104133500D01*
X87349634Y-104135051D01*
X87369643Y-104138220D01*
X87377535Y-104137474D01*
X87396280Y-104135702D01*
X87413662Y-104134059D01*
X87425519Y-104133500D01*
X93321233Y-104133500D01*
X93332416Y-104134027D01*
X93339909Y-104135702D01*
X93347835Y-104135453D01*
X93347836Y-104135453D01*
X93407986Y-104133562D01*
X93411945Y-104133500D01*
X93439856Y-104133500D01*
X93443791Y-104133003D01*
X93443856Y-104132995D01*
X93455693Y-104132062D01*
X93487951Y-104131048D01*
X93491970Y-104130922D01*
X93499889Y-104130673D01*
X93519343Y-104125021D01*
X93538700Y-104121013D01*
X93550930Y-104119468D01*
X93550931Y-104119468D01*
X93558797Y-104118474D01*
X93566168Y-104115555D01*
X93566170Y-104115555D01*
X93599912Y-104102196D01*
X93611142Y-104098351D01*
X93645983Y-104088229D01*
X93645984Y-104088229D01*
X93653593Y-104086018D01*
X93660412Y-104081985D01*
X93660417Y-104081983D01*
X93671028Y-104075707D01*
X93688776Y-104067012D01*
X93707617Y-104059552D01*
X93743387Y-104033564D01*
X93753307Y-104027048D01*
X93784535Y-104008580D01*
X93784538Y-104008578D01*
X93791362Y-104004542D01*
X93805683Y-103990221D01*
X93820717Y-103977380D01*
X93822431Y-103976135D01*
X93837107Y-103965472D01*
X93865298Y-103931395D01*
X93873288Y-103922616D01*
X94544549Y-103251355D01*
X94606861Y-103217329D01*
X94658762Y-103216979D01*
X94838597Y-103253567D01*
X94843772Y-103253757D01*
X94843774Y-103253757D01*
X95056673Y-103261564D01*
X95056677Y-103261564D01*
X95061837Y-103261753D01*
X95066957Y-103261097D01*
X95066959Y-103261097D01*
X95278288Y-103234025D01*
X95278289Y-103234025D01*
X95283416Y-103233368D01*
X95288366Y-103231883D01*
X95492429Y-103170661D01*
X95492434Y-103170659D01*
X95497384Y-103169174D01*
X95697994Y-103070896D01*
X95879860Y-102941173D01*
X95912648Y-102908500D01*
X95986539Y-102834866D01*
X96038096Y-102783489D01*
X96041688Y-102778491D01*
X96165435Y-102606277D01*
X96168453Y-102602077D01*
X96171622Y-102595666D01*
X96265136Y-102406453D01*
X96265137Y-102406451D01*
X96267430Y-102401811D01*
X96332370Y-102188069D01*
X96361529Y-101966590D01*
X96363156Y-101900000D01*
X96344852Y-101677361D01*
X96309458Y-101536452D01*
X96312262Y-101465512D01*
X96352975Y-101407348D01*
X96418670Y-101380429D01*
X96488490Y-101393300D01*
X96520757Y-101416662D01*
X97496348Y-102392253D01*
X97503888Y-102400539D01*
X97508000Y-102407018D01*
X97513777Y-102412443D01*
X97557651Y-102453643D01*
X97560493Y-102456398D01*
X97580230Y-102476135D01*
X97583427Y-102478615D01*
X97592447Y-102486318D01*
X97624679Y-102516586D01*
X97631625Y-102520405D01*
X97631628Y-102520407D01*
X97642434Y-102526348D01*
X97658953Y-102537199D01*
X97674959Y-102549614D01*
X97682228Y-102552759D01*
X97682232Y-102552762D01*
X97715537Y-102567174D01*
X97726187Y-102572391D01*
X97764940Y-102593695D01*
X97772615Y-102595666D01*
X97772616Y-102595666D01*
X97784562Y-102598733D01*
X97803266Y-102605137D01*
X97807558Y-102606994D01*
X97821855Y-102613181D01*
X97829678Y-102614420D01*
X97829688Y-102614423D01*
X97865524Y-102620099D01*
X97877144Y-102622505D01*
X97908959Y-102630673D01*
X97919970Y-102633500D01*
X97940224Y-102633500D01*
X97959934Y-102635051D01*
X97979943Y-102638220D01*
X97987835Y-102637474D01*
X98006580Y-102635702D01*
X98023962Y-102634059D01*
X98035819Y-102633500D01*
X108921233Y-102633500D01*
X108932416Y-102634027D01*
X108939909Y-102635702D01*
X108947835Y-102635453D01*
X108947836Y-102635453D01*
X109007986Y-102633562D01*
X109011945Y-102633500D01*
X109039856Y-102633500D01*
X109043791Y-102633003D01*
X109043856Y-102632995D01*
X109055693Y-102632062D01*
X109087951Y-102631048D01*
X109091970Y-102630922D01*
X109099889Y-102630673D01*
X109119343Y-102625021D01*
X109138700Y-102621013D01*
X109150930Y-102619468D01*
X109150931Y-102619468D01*
X109158797Y-102618474D01*
X109166168Y-102615555D01*
X109166170Y-102615555D01*
X109199912Y-102602196D01*
X109211142Y-102598351D01*
X109245983Y-102588229D01*
X109245984Y-102588229D01*
X109253593Y-102586018D01*
X109260412Y-102581985D01*
X109260417Y-102581983D01*
X109271028Y-102575707D01*
X109288776Y-102567012D01*
X109307617Y-102559552D01*
X109324034Y-102547625D01*
X109343387Y-102533564D01*
X109353307Y-102527048D01*
X109384535Y-102508580D01*
X109384538Y-102508578D01*
X109391362Y-102504542D01*
X109405683Y-102490221D01*
X109420717Y-102477380D01*
X109430694Y-102470131D01*
X109437107Y-102465472D01*
X109465298Y-102431395D01*
X109473288Y-102422616D01*
X110892247Y-101003657D01*
X110900537Y-100996113D01*
X110907018Y-100992000D01*
X110953659Y-100942332D01*
X110956413Y-100939491D01*
X110976134Y-100919770D01*
X110978612Y-100916575D01*
X110986318Y-100907553D01*
X110997618Y-100895520D01*
X111016586Y-100875321D01*
X111024987Y-100860039D01*
X111026346Y-100857568D01*
X111037199Y-100841045D01*
X111044753Y-100831306D01*
X111049613Y-100825041D01*
X111067176Y-100784457D01*
X111072383Y-100773827D01*
X111093695Y-100735060D01*
X111095666Y-100727383D01*
X111095668Y-100727378D01*
X111098732Y-100715442D01*
X111105138Y-100696730D01*
X111110034Y-100685417D01*
X111113181Y-100678145D01*
X111116588Y-100656638D01*
X111120097Y-100634481D01*
X111122504Y-100622860D01*
X111131528Y-100587711D01*
X111131528Y-100587710D01*
X111133500Y-100580030D01*
X111133500Y-100559769D01*
X111135051Y-100540058D01*
X111136979Y-100527885D01*
X111138219Y-100520057D01*
X111134059Y-100476046D01*
X111133500Y-100464189D01*
X111133500Y-97883167D01*
X111153502Y-97815046D01*
X111170405Y-97794072D01*
X113562989Y-95401488D01*
X113625301Y-95367462D01*
X113696116Y-95372527D01*
X113746136Y-95408908D01*
X113746642Y-95408401D01*
X113749874Y-95411627D01*
X113750836Y-95412327D01*
X113751825Y-95413575D01*
X113862429Y-95523986D01*
X113873840Y-95532998D01*
X114006880Y-95615004D01*
X114020061Y-95621151D01*
X114168814Y-95670491D01*
X114182190Y-95673358D01*
X114273097Y-95682672D01*
X114278126Y-95682929D01*
X114293124Y-95678525D01*
X114294329Y-95677135D01*
X114296000Y-95669452D01*
X114296000Y-94720667D01*
X114316002Y-94652546D01*
X114332905Y-94631572D01*
X114481572Y-94482905D01*
X114543884Y-94448879D01*
X114570667Y-94446000D01*
X114678000Y-94446000D01*
X114746121Y-94466002D01*
X114792614Y-94519658D01*
X114804000Y-94572000D01*
X114804000Y-95664885D01*
X114808475Y-95680124D01*
X114809865Y-95681329D01*
X114817548Y-95683000D01*
X114820438Y-95683000D01*
X114826953Y-95682663D01*
X114919057Y-95673106D01*
X114932456Y-95670212D01*
X115081107Y-95620619D01*
X115094285Y-95614445D01*
X115149197Y-95580465D01*
X115217649Y-95561627D01*
X115285418Y-95582788D01*
X115330990Y-95637229D01*
X115341500Y-95687609D01*
X115341500Y-95780126D01*
X115321498Y-95848247D01*
X115316341Y-95855671D01*
X115299385Y-95878295D01*
X115248255Y-96014684D01*
X115241500Y-96076866D01*
X115241500Y-98905432D01*
X115221498Y-98973553D01*
X115166749Y-99020539D01*
X115019278Y-99086197D01*
X115019276Y-99086198D01*
X115013248Y-99088882D01*
X115007907Y-99092762D01*
X115007906Y-99092763D01*
X114979644Y-99113297D01*
X114858747Y-99201134D01*
X114854326Y-99206044D01*
X114854325Y-99206045D01*
X114753349Y-99318191D01*
X114730960Y-99343056D01*
X114635473Y-99508444D01*
X114576458Y-99690072D01*
X114556496Y-99880000D01*
X114557186Y-99886565D01*
X114572898Y-100036052D01*
X114576458Y-100069928D01*
X114635473Y-100251556D01*
X114730960Y-100416944D01*
X114735378Y-100421851D01*
X114735379Y-100421852D01*
X114847838Y-100546750D01*
X114858747Y-100558866D01*
X114957843Y-100630864D01*
X114996758Y-100659137D01*
X115013248Y-100671118D01*
X115019276Y-100673802D01*
X115019278Y-100673803D01*
X115177209Y-100744118D01*
X115187712Y-100748794D01*
X115262064Y-100764598D01*
X115368056Y-100787128D01*
X115368061Y-100787128D01*
X115374513Y-100788500D01*
X115520482Y-100788500D01*
X115554601Y-100795009D01*
X115554938Y-100793695D01*
X115574558Y-100798732D01*
X115593266Y-100805137D01*
X115611855Y-100813181D01*
X115619680Y-100814420D01*
X115619682Y-100814421D01*
X115655519Y-100820097D01*
X115667140Y-100822504D01*
X115702289Y-100831528D01*
X115709970Y-100833500D01*
X115730231Y-100833500D01*
X115749940Y-100835051D01*
X115769943Y-100838219D01*
X115777835Y-100837473D01*
X115783062Y-100836979D01*
X115813954Y-100834059D01*
X115825811Y-100833500D01*
X116603000Y-100833500D01*
X116671121Y-100853502D01*
X116717614Y-100907158D01*
X116729000Y-100959500D01*
X116729000Y-101366502D01*
X116729193Y-101368950D01*
X116729193Y-101368958D01*
X116729830Y-101377043D01*
X116731938Y-101403831D01*
X116778355Y-101563601D01*
X116782387Y-101570419D01*
X116784353Y-101574962D01*
X116793049Y-101645424D01*
X116784353Y-101675038D01*
X116782387Y-101679581D01*
X116778355Y-101686399D01*
X116731938Y-101846169D01*
X116729000Y-101883498D01*
X116729000Y-102316502D01*
X116731938Y-102353831D01*
X116747226Y-102406453D01*
X116773277Y-102496121D01*
X116778355Y-102513601D01*
X116782392Y-102520427D01*
X116859009Y-102649980D01*
X116859011Y-102649983D01*
X116863047Y-102656807D01*
X116980693Y-102774453D01*
X116987517Y-102778489D01*
X116987520Y-102778491D01*
X117093412Y-102841115D01*
X117123899Y-102859145D01*
X117131510Y-102861356D01*
X117131512Y-102861357D01*
X117174817Y-102873938D01*
X117283669Y-102905562D01*
X117290074Y-102906066D01*
X117290079Y-102906067D01*
X117318542Y-102908307D01*
X117318550Y-102908307D01*
X117320998Y-102908500D01*
X118479002Y-102908500D01*
X118481450Y-102908307D01*
X118481458Y-102908307D01*
X118509921Y-102906067D01*
X118509926Y-102906066D01*
X118516331Y-102905562D01*
X118625183Y-102873938D01*
X118668488Y-102861357D01*
X118668490Y-102861356D01*
X118676101Y-102859145D01*
X118717154Y-102834866D01*
X118734593Y-102824553D01*
X118759900Y-102813140D01*
X118795735Y-102801531D01*
X118817899Y-102794351D01*
X118824161Y-102790551D01*
X118829641Y-102788042D01*
X118835055Y-102785331D01*
X118841937Y-102782833D01*
X118902976Y-102742814D01*
X118906680Y-102740477D01*
X118969107Y-102702595D01*
X118977484Y-102695197D01*
X118977507Y-102695224D01*
X118980502Y-102692569D01*
X118983732Y-102689869D01*
X118989852Y-102685856D01*
X118994883Y-102680545D01*
X118997365Y-102678470D01*
X119062455Y-102650121D01*
X119132540Y-102661462D01*
X119167280Y-102686040D01*
X119255693Y-102774453D01*
X119262517Y-102778489D01*
X119262520Y-102778491D01*
X119368412Y-102841115D01*
X119398899Y-102859145D01*
X119406510Y-102861356D01*
X119406512Y-102861357D01*
X119449817Y-102873938D01*
X119558669Y-102905562D01*
X119565074Y-102906066D01*
X119565079Y-102906067D01*
X119593542Y-102908307D01*
X119593550Y-102908307D01*
X119595998Y-102908500D01*
X120754002Y-102908500D01*
X120756450Y-102908307D01*
X120756458Y-102908307D01*
X120784921Y-102906067D01*
X120784926Y-102906066D01*
X120791331Y-102905562D01*
X120797507Y-102903768D01*
X120797511Y-102903767D01*
X120936102Y-102863503D01*
X120971254Y-102858500D01*
X121218908Y-102858500D01*
X121287029Y-102878502D01*
X121307926Y-102895327D01*
X121392298Y-102979552D01*
X121398528Y-102983392D01*
X121398529Y-102983393D01*
X121452453Y-103016632D01*
X121537899Y-103069302D01*
X121700243Y-103123149D01*
X121707080Y-103123849D01*
X121707082Y-103123850D01*
X121748401Y-103128083D01*
X121801268Y-103133500D01*
X122398732Y-103133500D01*
X122401978Y-103133163D01*
X122401982Y-103133163D01*
X122438845Y-103129338D01*
X122501019Y-103122887D01*
X122551392Y-103106081D01*
X122656324Y-103071073D01*
X122656326Y-103071072D01*
X122663268Y-103068756D01*
X122808713Y-102978752D01*
X122846227Y-102941173D01*
X122924381Y-102862882D01*
X122929552Y-102857702D01*
X122936458Y-102846498D01*
X123015462Y-102718331D01*
X123015463Y-102718329D01*
X123019302Y-102712101D01*
X123073149Y-102549757D01*
X123075059Y-102531121D01*
X123078357Y-102498931D01*
X123083500Y-102448732D01*
X123083500Y-102027885D01*
X127792000Y-102027885D01*
X127796475Y-102043124D01*
X127797865Y-102044329D01*
X127805548Y-102046000D01*
X129527885Y-102046000D01*
X129543124Y-102041525D01*
X129544329Y-102040135D01*
X129546000Y-102032452D01*
X129546000Y-99325315D01*
X129542114Y-99312079D01*
X129527655Y-99310106D01*
X129351547Y-99337999D01*
X129342977Y-99339978D01*
X129082857Y-99419504D01*
X129074647Y-99422655D01*
X128828118Y-99537613D01*
X128820428Y-99541876D01*
X128592300Y-99690024D01*
X128585281Y-99695314D01*
X128379976Y-99873783D01*
X128373783Y-99879976D01*
X128195314Y-100085281D01*
X128190024Y-100092300D01*
X128041876Y-100320428D01*
X128037613Y-100328118D01*
X127922655Y-100574647D01*
X127919504Y-100582857D01*
X127839978Y-100842977D01*
X127837999Y-100851547D01*
X127795315Y-101121044D01*
X127794601Y-101128128D01*
X127792060Y-101186331D01*
X127792000Y-101189083D01*
X127792000Y-102027885D01*
X123083500Y-102027885D01*
X123083500Y-101901268D01*
X123083021Y-101896646D01*
X123073598Y-101805837D01*
X123072887Y-101798981D01*
X123037865Y-101694008D01*
X123021073Y-101643676D01*
X123021072Y-101643674D01*
X123018756Y-101636732D01*
X122928752Y-101491287D01*
X122923570Y-101486114D01*
X122919023Y-101480377D01*
X122920830Y-101478945D01*
X122892098Y-101426425D01*
X122897108Y-101355605D01*
X122920499Y-101319147D01*
X122919448Y-101318317D01*
X122932998Y-101301160D01*
X123015004Y-101168120D01*
X123021151Y-101154939D01*
X123070491Y-101006186D01*
X123073358Y-100992810D01*
X123082672Y-100901903D01*
X123082929Y-100896874D01*
X123078525Y-100881876D01*
X123077135Y-100880671D01*
X123069452Y-100879000D01*
X121972000Y-100879000D01*
X121903879Y-100858998D01*
X121857386Y-100805342D01*
X121846000Y-100753000D01*
X121846000Y-100497000D01*
X121866002Y-100428879D01*
X121919658Y-100382386D01*
X121972000Y-100371000D01*
X123064885Y-100371000D01*
X123080124Y-100366525D01*
X123081329Y-100365135D01*
X123083000Y-100357452D01*
X123083000Y-100354562D01*
X123082663Y-100348047D01*
X123073106Y-100255943D01*
X123070212Y-100242544D01*
X123020619Y-100093893D01*
X123014445Y-100080714D01*
X122932212Y-99947827D01*
X122923176Y-99936426D01*
X122812571Y-99826014D01*
X122801160Y-99817002D01*
X122668120Y-99734996D01*
X122654939Y-99728849D01*
X122506182Y-99679508D01*
X122493916Y-99676878D01*
X122431502Y-99643040D01*
X122397291Y-99580829D01*
X122402144Y-99509999D01*
X122444521Y-99453036D01*
X122454030Y-99446533D01*
X122477172Y-99432213D01*
X122488574Y-99423176D01*
X122598986Y-99312571D01*
X122607998Y-99301160D01*
X122690004Y-99168120D01*
X122696151Y-99154939D01*
X122745491Y-99006186D01*
X122748358Y-98992810D01*
X122757672Y-98901903D01*
X122758000Y-98895487D01*
X122758000Y-98872115D01*
X122753525Y-98856876D01*
X122752135Y-98855671D01*
X122744452Y-98854000D01*
X121672000Y-98854000D01*
X121603879Y-98833998D01*
X121557386Y-98780342D01*
X121546000Y-98728000D01*
X121546000Y-98609980D01*
X121566002Y-98541859D01*
X121619658Y-98495366D01*
X121672000Y-98483980D01*
X125341825Y-98483980D01*
X125353008Y-98484507D01*
X125360501Y-98486182D01*
X125368427Y-98485933D01*
X125368428Y-98485933D01*
X125428578Y-98484042D01*
X125432537Y-98483980D01*
X125460448Y-98483980D01*
X125464383Y-98483483D01*
X125464448Y-98483475D01*
X125476285Y-98482542D01*
X125508543Y-98481528D01*
X125512562Y-98481402D01*
X125520481Y-98481153D01*
X125539935Y-98475501D01*
X125559292Y-98471493D01*
X125571522Y-98469948D01*
X125571523Y-98469948D01*
X125579389Y-98468954D01*
X125586760Y-98466035D01*
X125586762Y-98466035D01*
X125620504Y-98452676D01*
X125631734Y-98448831D01*
X125666575Y-98438709D01*
X125666576Y-98438709D01*
X125674185Y-98436498D01*
X125681004Y-98432465D01*
X125681009Y-98432463D01*
X125691620Y-98426187D01*
X125709368Y-98417492D01*
X125728209Y-98410032D01*
X125763979Y-98384044D01*
X125773899Y-98377528D01*
X125805127Y-98359060D01*
X125805130Y-98359058D01*
X125811954Y-98355022D01*
X125826275Y-98340701D01*
X125841309Y-98327860D01*
X125851286Y-98320611D01*
X125857699Y-98315952D01*
X125862749Y-98309848D01*
X125862754Y-98309843D01*
X125885885Y-98281882D01*
X125893875Y-98273101D01*
X126503047Y-97663930D01*
X126565359Y-97629905D01*
X126603668Y-97627555D01*
X126668365Y-97633500D01*
X126731851Y-97633500D01*
X126799972Y-97653502D01*
X126846465Y-97707158D01*
X126857161Y-97746329D01*
X126873845Y-97905062D01*
X126876458Y-97929928D01*
X126935473Y-98111556D01*
X127030960Y-98276944D01*
X127035378Y-98281851D01*
X127035379Y-98281852D01*
X127096549Y-98349788D01*
X127158747Y-98418866D01*
X127238412Y-98476746D01*
X127291653Y-98515428D01*
X127313248Y-98531118D01*
X127319276Y-98533802D01*
X127319278Y-98533803D01*
X127481681Y-98606109D01*
X127487712Y-98608794D01*
X127581112Y-98628647D01*
X127668056Y-98647128D01*
X127668061Y-98647128D01*
X127674513Y-98648500D01*
X127865487Y-98648500D01*
X127871939Y-98647128D01*
X127871944Y-98647128D01*
X127958888Y-98628647D01*
X128052288Y-98608794D01*
X128058319Y-98606109D01*
X128220722Y-98533803D01*
X128220724Y-98533802D01*
X128226752Y-98531118D01*
X128248348Y-98515428D01*
X128301588Y-98476746D01*
X128381253Y-98418866D01*
X128443451Y-98349788D01*
X128504621Y-98281852D01*
X128504622Y-98281851D01*
X128509040Y-98276944D01*
X128604527Y-98111556D01*
X128663542Y-97929928D01*
X128666156Y-97905062D01*
X128682814Y-97746565D01*
X128683504Y-97740000D01*
X128671933Y-97629905D01*
X128664232Y-97556635D01*
X128664232Y-97556633D01*
X128663542Y-97550072D01*
X128604527Y-97368444D01*
X128509040Y-97203056D01*
X128381253Y-97061134D01*
X128226752Y-96948882D01*
X128220724Y-96946198D01*
X128220722Y-96946197D01*
X128058251Y-96873861D01*
X128004156Y-96827881D01*
X127983500Y-96758754D01*
X127983499Y-96471249D01*
X127983499Y-96468366D01*
X127983234Y-96465474D01*
X127977364Y-96401592D01*
X127976753Y-96394938D01*
X127949415Y-96307702D01*
X127927744Y-96238550D01*
X127927743Y-96238548D01*
X127925472Y-96231301D01*
X127836639Y-96084619D01*
X127741115Y-95989095D01*
X127707089Y-95926783D01*
X127712154Y-95855968D01*
X127741115Y-95810905D01*
X127836639Y-95715381D01*
X127925472Y-95568699D01*
X127932676Y-95545713D01*
X127974476Y-95412327D01*
X127976753Y-95405062D01*
X127983500Y-95331635D01*
X127983499Y-94818366D01*
X127982993Y-94812851D01*
X127978535Y-94764337D01*
X127976753Y-94744938D01*
X127974754Y-94738559D01*
X127927744Y-94588550D01*
X127927743Y-94588548D01*
X127925472Y-94581301D01*
X127836639Y-94434619D01*
X127823350Y-94421330D01*
X127789324Y-94359018D01*
X127794389Y-94288203D01*
X127805185Y-94266120D01*
X127865460Y-94168335D01*
X127865462Y-94168330D01*
X127869302Y-94162101D01*
X127923149Y-93999757D01*
X127923914Y-93992298D01*
X127932579Y-93907718D01*
X127933500Y-93898732D01*
X127933500Y-93301268D01*
X127922887Y-93198981D01*
X127899354Y-93128444D01*
X127871073Y-93043676D01*
X127871072Y-93043674D01*
X127868756Y-93036732D01*
X127861798Y-93025487D01*
X127782606Y-92897515D01*
X127778752Y-92891287D01*
X127657702Y-92770448D01*
X127651471Y-92766607D01*
X127518331Y-92684538D01*
X127518329Y-92684537D01*
X127512101Y-92680698D01*
X127349757Y-92626851D01*
X127342920Y-92626151D01*
X127342918Y-92626150D01*
X127301599Y-92621917D01*
X127248732Y-92616500D01*
X126701268Y-92616500D01*
X126698022Y-92616837D01*
X126698018Y-92616837D01*
X126668730Y-92619876D01*
X126598981Y-92627113D01*
X126590963Y-92629788D01*
X126443676Y-92678927D01*
X126443674Y-92678928D01*
X126436732Y-92681244D01*
X126430508Y-92685096D01*
X126430507Y-92685096D01*
X126316336Y-92755747D01*
X126291287Y-92771248D01*
X126286114Y-92776430D01*
X126280377Y-92780977D01*
X126278945Y-92779170D01*
X126226425Y-92807902D01*
X126155605Y-92802892D01*
X126119147Y-92779501D01*
X126118317Y-92780552D01*
X126101160Y-92767002D01*
X125968120Y-92684996D01*
X125954939Y-92678849D01*
X125806186Y-92629509D01*
X125792810Y-92626642D01*
X125701903Y-92617328D01*
X125696874Y-92617071D01*
X125681876Y-92621475D01*
X125680671Y-92622865D01*
X125679000Y-92630548D01*
X125679000Y-93728000D01*
X125658998Y-93796121D01*
X125605342Y-93842614D01*
X125553000Y-93854000D01*
X124485115Y-93854000D01*
X124459927Y-93861396D01*
X124424429Y-93866500D01*
X124208200Y-93866500D01*
X124140079Y-93846498D01*
X124120853Y-93830157D01*
X124120580Y-93830460D01*
X124115668Y-93826037D01*
X124111253Y-93821134D01*
X124035192Y-93765872D01*
X123962094Y-93712763D01*
X123962093Y-93712762D01*
X123956752Y-93708882D01*
X123950724Y-93706198D01*
X123950722Y-93706197D01*
X123788319Y-93633891D01*
X123788318Y-93633891D01*
X123782288Y-93631206D01*
X123682621Y-93610021D01*
X123601944Y-93592872D01*
X123601939Y-93592872D01*
X123595487Y-93591500D01*
X123404513Y-93591500D01*
X123398061Y-93592872D01*
X123398056Y-93592872D01*
X123317379Y-93610021D01*
X123217712Y-93631206D01*
X123211682Y-93633891D01*
X123211681Y-93633891D01*
X123049278Y-93706197D01*
X123049276Y-93706198D01*
X123043248Y-93708882D01*
X123037907Y-93712762D01*
X123037906Y-93712763D01*
X123018516Y-93726851D01*
X122888747Y-93821134D01*
X122884326Y-93826044D01*
X122884325Y-93826045D01*
X122810787Y-93907718D01*
X122760960Y-93963056D01*
X122665473Y-94128444D01*
X122606458Y-94310072D01*
X122605768Y-94316633D01*
X122605768Y-94316635D01*
X122587186Y-94493435D01*
X122586496Y-94500000D01*
X122587186Y-94506565D01*
X122605341Y-94679297D01*
X122606458Y-94689928D01*
X122665473Y-94871556D01*
X122668776Y-94877278D01*
X122668777Y-94877279D01*
X122686139Y-94907350D01*
X122760960Y-95036944D01*
X122765378Y-95041851D01*
X122765379Y-95041852D01*
X122779278Y-95057288D01*
X122888747Y-95178866D01*
X122968680Y-95236941D01*
X123036006Y-95285856D01*
X123043248Y-95291118D01*
X123049276Y-95293802D01*
X123049278Y-95293803D01*
X123201686Y-95361659D01*
X123217712Y-95368794D01*
X123305251Y-95387401D01*
X123398056Y-95407128D01*
X123398061Y-95407128D01*
X123404513Y-95408500D01*
X123595487Y-95408500D01*
X123601939Y-95407128D01*
X123601944Y-95407128D01*
X123694749Y-95387401D01*
X123782288Y-95368794D01*
X123798314Y-95361659D01*
X123950722Y-95293803D01*
X123950724Y-95293802D01*
X123956752Y-95291118D01*
X123963995Y-95285856D01*
X124090679Y-95193814D01*
X124111253Y-95178866D01*
X124115668Y-95173963D01*
X124120580Y-95169540D01*
X124121705Y-95170789D01*
X124175014Y-95137949D01*
X124208200Y-95133500D01*
X124290501Y-95133500D01*
X124358622Y-95153502D01*
X124405115Y-95207158D01*
X124416501Y-95259500D01*
X124416501Y-95331634D01*
X124416764Y-95334492D01*
X124416764Y-95334501D01*
X124417667Y-95344329D01*
X124423247Y-95405062D01*
X124425246Y-95411440D01*
X124425246Y-95411441D01*
X124467325Y-95545713D01*
X124474528Y-95568699D01*
X124563361Y-95715381D01*
X124658885Y-95810905D01*
X124692911Y-95873217D01*
X124687846Y-95944032D01*
X124658885Y-95989095D01*
X124563361Y-96084619D01*
X124474528Y-96231301D01*
X124423247Y-96394938D01*
X124416500Y-96468365D01*
X124416501Y-96981634D01*
X124423247Y-97055062D01*
X124425248Y-97061446D01*
X124426207Y-97066236D01*
X124419971Y-97136959D01*
X124376491Y-97193083D01*
X124302660Y-97216980D01*
X121078283Y-97216980D01*
X121067099Y-97216453D01*
X121059611Y-97214779D01*
X121051688Y-97215028D01*
X120991553Y-97216918D01*
X120987595Y-97216980D01*
X120959664Y-97216980D01*
X120955749Y-97217475D01*
X120955745Y-97217475D01*
X120955687Y-97217483D01*
X120955658Y-97217486D01*
X120943816Y-97218419D01*
X120899630Y-97219807D01*
X120882264Y-97224852D01*
X120880178Y-97225458D01*
X120860826Y-97229466D01*
X120853755Y-97230360D01*
X120840723Y-97232006D01*
X120833354Y-97234923D01*
X120833352Y-97234924D01*
X120799617Y-97248280D01*
X120788389Y-97252125D01*
X120745927Y-97264462D01*
X120739105Y-97268496D01*
X120739099Y-97268499D01*
X120728488Y-97274774D01*
X120710738Y-97283470D01*
X120699276Y-97288008D01*
X120699271Y-97288011D01*
X120691903Y-97290928D01*
X120685488Y-97295589D01*
X120656145Y-97316907D01*
X120646227Y-97323423D01*
X120627539Y-97334475D01*
X120608157Y-97345938D01*
X120593833Y-97360262D01*
X120578801Y-97373101D01*
X120562413Y-97385008D01*
X120534232Y-97419073D01*
X120526242Y-97427853D01*
X120374500Y-97579595D01*
X120312188Y-97613621D01*
X120285405Y-97616500D01*
X119976268Y-97616500D01*
X119973022Y-97616837D01*
X119973018Y-97616837D01*
X119938917Y-97620375D01*
X119873981Y-97627113D01*
X119724375Y-97677026D01*
X119653427Y-97679610D01*
X119592343Y-97643427D01*
X119560518Y-97579962D01*
X119558500Y-97557502D01*
X119558500Y-96076866D01*
X119551745Y-96014684D01*
X119500615Y-95878295D01*
X119413261Y-95761739D01*
X119296705Y-95674385D01*
X119160316Y-95623255D01*
X119098134Y-95616500D01*
X118001866Y-95616500D01*
X117939684Y-95623255D01*
X117803295Y-95674385D01*
X117686739Y-95761739D01*
X117599385Y-95878295D01*
X117548255Y-96014684D01*
X117541500Y-96076866D01*
X117541500Y-96834882D01*
X117521498Y-96903003D01*
X117467842Y-96949496D01*
X117397568Y-96959600D01*
X117341439Y-96936818D01*
X117322094Y-96922763D01*
X117322093Y-96922762D01*
X117316752Y-96918882D01*
X117317346Y-96918064D01*
X117272505Y-96871035D01*
X117258500Y-96813301D01*
X117258500Y-96076866D01*
X117251745Y-96014684D01*
X117200615Y-95878295D01*
X117113261Y-95761739D01*
X116996705Y-95674385D01*
X116988297Y-95671233D01*
X116980425Y-95666923D01*
X116981707Y-95664581D01*
X116936053Y-95630278D01*
X116911360Y-95563714D01*
X116926575Y-95494367D01*
X116976866Y-95444254D01*
X116994061Y-95436510D01*
X117044309Y-95418271D01*
X117048455Y-95416848D01*
X117110936Y-95396607D01*
X117110938Y-95396606D01*
X117117899Y-95394351D01*
X117124154Y-95390555D01*
X117129628Y-95388049D01*
X117135058Y-95385330D01*
X117141937Y-95382833D01*
X117163350Y-95368794D01*
X117202976Y-95342814D01*
X117206680Y-95340477D01*
X117269107Y-95302595D01*
X117277484Y-95295197D01*
X117277508Y-95295224D01*
X117280500Y-95292571D01*
X117283733Y-95289868D01*
X117289852Y-95285856D01*
X117343128Y-95229617D01*
X117345506Y-95227175D01*
X117738911Y-94833770D01*
X117753323Y-94821384D01*
X117764918Y-94812851D01*
X117764923Y-94812846D01*
X117770818Y-94808508D01*
X117775557Y-94802930D01*
X117775560Y-94802927D01*
X117805035Y-94768232D01*
X117811965Y-94760716D01*
X117817660Y-94755021D01*
X117825637Y-94744938D01*
X117835281Y-94732749D01*
X117838072Y-94729345D01*
X117880591Y-94679297D01*
X117880592Y-94679295D01*
X117885333Y-94673715D01*
X117888661Y-94667199D01*
X117892028Y-94662150D01*
X117895195Y-94657021D01*
X117899734Y-94651284D01*
X117930655Y-94585125D01*
X117932561Y-94581225D01*
X117935840Y-94574804D01*
X117965769Y-94516192D01*
X117967508Y-94509084D01*
X117969607Y-94503441D01*
X117971524Y-94497678D01*
X117974622Y-94491050D01*
X117977780Y-94475870D01*
X117989486Y-94419588D01*
X117990457Y-94415299D01*
X118000044Y-94376119D01*
X118007808Y-94344390D01*
X118008500Y-94333236D01*
X118008536Y-94333238D01*
X118008775Y-94329245D01*
X118009149Y-94325053D01*
X118010640Y-94317885D01*
X118008546Y-94240479D01*
X118008500Y-94237072D01*
X118008500Y-93969670D01*
X118028502Y-93901549D01*
X118082158Y-93855056D01*
X118152432Y-93844952D01*
X118185748Y-93854563D01*
X118217712Y-93868794D01*
X118311113Y-93888647D01*
X118398056Y-93907128D01*
X118398061Y-93907128D01*
X118404513Y-93908500D01*
X118595487Y-93908500D01*
X118601939Y-93907128D01*
X118601944Y-93907128D01*
X118688887Y-93888647D01*
X118782288Y-93868794D01*
X118788319Y-93866109D01*
X118950722Y-93793803D01*
X118950724Y-93793802D01*
X118956752Y-93791118D01*
X118970343Y-93781244D01*
X119037498Y-93732452D01*
X119111253Y-93678866D01*
X119132505Y-93655263D01*
X119234621Y-93541852D01*
X119234622Y-93541851D01*
X119239040Y-93536944D01*
X119317787Y-93400551D01*
X119331223Y-93377279D01*
X119331224Y-93377278D01*
X119334527Y-93371556D01*
X119348717Y-93327885D01*
X124467000Y-93327885D01*
X124471475Y-93343124D01*
X124472865Y-93344329D01*
X124480548Y-93346000D01*
X125152885Y-93346000D01*
X125168124Y-93341525D01*
X125169329Y-93340135D01*
X125171000Y-93332452D01*
X125171000Y-92635115D01*
X125166525Y-92619876D01*
X125165135Y-92618671D01*
X125157452Y-92617000D01*
X125154562Y-92617000D01*
X125148047Y-92617337D01*
X125055943Y-92626894D01*
X125042544Y-92629788D01*
X124893893Y-92679381D01*
X124880714Y-92685555D01*
X124747827Y-92767788D01*
X124736426Y-92776824D01*
X124626014Y-92887429D01*
X124617002Y-92898840D01*
X124534996Y-93031880D01*
X124528849Y-93045061D01*
X124479509Y-93193814D01*
X124476642Y-93207190D01*
X124467328Y-93298097D01*
X124467000Y-93304514D01*
X124467000Y-93327885D01*
X119348717Y-93327885D01*
X119393542Y-93189928D01*
X119398988Y-93138117D01*
X119412814Y-93006565D01*
X119413504Y-93000000D01*
X119407190Y-92939928D01*
X119394232Y-92816635D01*
X119394232Y-92816633D01*
X119393542Y-92810072D01*
X119334527Y-92628444D01*
X119330504Y-92621475D01*
X119260375Y-92500010D01*
X119239040Y-92463056D01*
X119165863Y-92381785D01*
X119135147Y-92317779D01*
X119133500Y-92297476D01*
X119133500Y-90838162D01*
X119153502Y-90770041D01*
X119173663Y-90746321D01*
X119176585Y-90744198D01*
X119253353Y-90658938D01*
X119299953Y-90607184D01*
X119299954Y-90607183D01*
X119304372Y-90602276D01*
X119381275Y-90469077D01*
X119396555Y-90442611D01*
X119396556Y-90442610D01*
X119399859Y-90436888D01*
X119458874Y-90255260D01*
X119462031Y-90225229D01*
X119478146Y-90071897D01*
X119478836Y-90065332D01*
X119474331Y-90022471D01*
X119459564Y-89881967D01*
X119459564Y-89881965D01*
X119458874Y-89875404D01*
X119408309Y-89719782D01*
X119406281Y-89648816D01*
X119442944Y-89588018D01*
X119506656Y-89556693D01*
X119577190Y-89564785D01*
X119626886Y-89602581D01*
X119734894Y-89738854D01*
X119739581Y-89742843D01*
X119739584Y-89742846D01*
X119887573Y-89868794D01*
X119892976Y-89873392D01*
X120074180Y-89974664D01*
X120271603Y-90038810D01*
X120477725Y-90063389D01*
X120483860Y-90062917D01*
X120483862Y-90062917D01*
X120678555Y-90047936D01*
X120678560Y-90047935D01*
X120684696Y-90047463D01*
X120690626Y-90045807D01*
X120690628Y-90045807D01*
X120826087Y-90007986D01*
X120884632Y-89991640D01*
X120890132Y-89988862D01*
X121064416Y-89900825D01*
X121064418Y-89900824D01*
X121069917Y-89898046D01*
X121233495Y-89770245D01*
X121369133Y-89613106D01*
X121375112Y-89602582D01*
X121421256Y-89521353D01*
X121471667Y-89432614D01*
X121537190Y-89235644D01*
X121563207Y-89029698D01*
X121563622Y-89000000D01*
X121560636Y-88969544D01*
X123836936Y-88969544D01*
X123850861Y-89182006D01*
X123852282Y-89187602D01*
X123852283Y-89187607D01*
X123889534Y-89334278D01*
X123903272Y-89388372D01*
X123905689Y-89393615D01*
X123945693Y-89480390D01*
X123992411Y-89581731D01*
X124115296Y-89755609D01*
X124150961Y-89790352D01*
X124261874Y-89898399D01*
X124267809Y-89904181D01*
X124272605Y-89907386D01*
X124272608Y-89907388D01*
X124375324Y-89976020D01*
X124444843Y-90022471D01*
X124450146Y-90024749D01*
X124450149Y-90024751D01*
X124572177Y-90077178D01*
X124640470Y-90106519D01*
X124697127Y-90119339D01*
X124842501Y-90152234D01*
X124842506Y-90152235D01*
X124848138Y-90153509D01*
X124853909Y-90153736D01*
X124853911Y-90153736D01*
X124915252Y-90156146D01*
X125060891Y-90161869D01*
X125066600Y-90161041D01*
X125066604Y-90161041D01*
X125265890Y-90132145D01*
X125265894Y-90132144D01*
X125271605Y-90131316D01*
X125473223Y-90062876D01*
X125658993Y-89958840D01*
X125822693Y-89822693D01*
X125958840Y-89658993D01*
X126062876Y-89473223D01*
X126131316Y-89271605D01*
X126133372Y-89257429D01*
X126161337Y-89064561D01*
X126161337Y-89064559D01*
X126161869Y-89060891D01*
X126163463Y-89000000D01*
X126149680Y-88850000D01*
X126144510Y-88793730D01*
X126144509Y-88793727D01*
X126143981Y-88787976D01*
X126134875Y-88755690D01*
X126087754Y-88588611D01*
X126087753Y-88588609D01*
X126086186Y-88583052D01*
X126081983Y-88574528D01*
X125994570Y-88397273D01*
X125992015Y-88392092D01*
X125984089Y-88381477D01*
X125868074Y-88226114D01*
X125864622Y-88221491D01*
X125708271Y-88076963D01*
X125528201Y-87963347D01*
X125330441Y-87884449D01*
X125324781Y-87883323D01*
X125324777Y-87883322D01*
X125127282Y-87844038D01*
X125127280Y-87844038D01*
X125121615Y-87842911D01*
X125115840Y-87842835D01*
X125115836Y-87842835D01*
X125009161Y-87841439D01*
X124908716Y-87840124D01*
X124903019Y-87841103D01*
X124903018Y-87841103D01*
X124704564Y-87875203D01*
X124704561Y-87875204D01*
X124698874Y-87876181D01*
X124499116Y-87949875D01*
X124316134Y-88058739D01*
X124156054Y-88199125D01*
X124024238Y-88366333D01*
X124021549Y-88371444D01*
X124021547Y-88371447D01*
X123986240Y-88438554D01*
X123925100Y-88554762D01*
X123923386Y-88560283D01*
X123923384Y-88560287D01*
X123880907Y-88697086D01*
X123861961Y-88758102D01*
X123836936Y-88969544D01*
X121560636Y-88969544D01*
X121553964Y-88901503D01*
X121567223Y-88831756D01*
X121616086Y-88780249D01*
X121670948Y-88766499D01*
X121670719Y-88763678D01*
X121723388Y-88759394D01*
X121733603Y-88758979D01*
X121741663Y-88758979D01*
X121754953Y-88757430D01*
X121769877Y-88755690D01*
X121774252Y-88755257D01*
X121839709Y-88749933D01*
X121839712Y-88749932D01*
X121847007Y-88749339D01*
X121853971Y-88747083D01*
X121859930Y-88745892D01*
X121865785Y-88744508D01*
X121873051Y-88743661D01*
X121941697Y-88718744D01*
X121945825Y-88717327D01*
X122008306Y-88697086D01*
X122008308Y-88697085D01*
X122015269Y-88694830D01*
X122021524Y-88691034D01*
X122026998Y-88688528D01*
X122032428Y-88685809D01*
X122039307Y-88683312D01*
X122047188Y-88678145D01*
X122100346Y-88643293D01*
X122104050Y-88640956D01*
X122166477Y-88603074D01*
X122174854Y-88595676D01*
X122174878Y-88595703D01*
X122177870Y-88593050D01*
X122181103Y-88590347D01*
X122187222Y-88586335D01*
X122240498Y-88530096D01*
X122242876Y-88527654D01*
X125263431Y-85507099D01*
X125277843Y-85494713D01*
X125289438Y-85486180D01*
X125289443Y-85486175D01*
X125295338Y-85481837D01*
X125300077Y-85476259D01*
X125300080Y-85476256D01*
X125329555Y-85441561D01*
X125336485Y-85434045D01*
X125342180Y-85428350D01*
X125344284Y-85425690D01*
X125404473Y-85388139D01*
X125438348Y-85383500D01*
X125858387Y-85383499D01*
X125881634Y-85383499D01*
X125884492Y-85383236D01*
X125884501Y-85383236D01*
X125920004Y-85379974D01*
X125955062Y-85376753D01*
X125961441Y-85374754D01*
X126111450Y-85327744D01*
X126111452Y-85327743D01*
X126118699Y-85325472D01*
X126265381Y-85236639D01*
X126386639Y-85115381D01*
X126475472Y-84968699D01*
X126526753Y-84805062D01*
X126533500Y-84731635D01*
X126533500Y-84454218D01*
X126534190Y-84441049D01*
X126537814Y-84406566D01*
X126538504Y-84400000D01*
X126535691Y-84373232D01*
X126534189Y-84358947D01*
X126533499Y-84345776D01*
X126533499Y-84068366D01*
X126533234Y-84065474D01*
X126528767Y-84016857D01*
X126526753Y-83994938D01*
X126507701Y-83934143D01*
X126506417Y-83863158D01*
X126543714Y-83802748D01*
X126607750Y-83772091D01*
X126650242Y-83773160D01*
X126650243Y-83773149D01*
X126657080Y-83773849D01*
X126657082Y-83773850D01*
X126698401Y-83778083D01*
X126751268Y-83783500D01*
X127298732Y-83783500D01*
X127301978Y-83783163D01*
X127301982Y-83783163D01*
X127345755Y-83778621D01*
X127401019Y-83772887D01*
X127480116Y-83746498D01*
X127556324Y-83721073D01*
X127556326Y-83721072D01*
X127563268Y-83718756D01*
X127625345Y-83680342D01*
X127702485Y-83632606D01*
X127708713Y-83628752D01*
X127713886Y-83623570D01*
X127719623Y-83619023D01*
X127721055Y-83620830D01*
X127773575Y-83592098D01*
X127844395Y-83597108D01*
X127880853Y-83620499D01*
X127881683Y-83619448D01*
X127898840Y-83632998D01*
X128031880Y-83715004D01*
X128045061Y-83721151D01*
X128193814Y-83770491D01*
X128207190Y-83773358D01*
X128298097Y-83782672D01*
X128303126Y-83782929D01*
X128318124Y-83778525D01*
X128319329Y-83777135D01*
X128321000Y-83769452D01*
X128321000Y-83764885D01*
X128829000Y-83764885D01*
X128833475Y-83780124D01*
X128834865Y-83781329D01*
X128842548Y-83783000D01*
X128845438Y-83783000D01*
X128851953Y-83782663D01*
X128944057Y-83773106D01*
X128957456Y-83770212D01*
X129106107Y-83720619D01*
X129119286Y-83714445D01*
X129252173Y-83632212D01*
X129263574Y-83623176D01*
X129373986Y-83512571D01*
X129382998Y-83501160D01*
X129465004Y-83368120D01*
X129471151Y-83354939D01*
X129520491Y-83206186D01*
X129523358Y-83192810D01*
X129532672Y-83101903D01*
X129533000Y-83095487D01*
X129533000Y-83072115D01*
X129528525Y-83056876D01*
X129527135Y-83055671D01*
X129519452Y-83054000D01*
X128847115Y-83054000D01*
X128831876Y-83058475D01*
X128830671Y-83059865D01*
X128829000Y-83067548D01*
X128829000Y-83764885D01*
X128321000Y-83764885D01*
X128321000Y-82527885D01*
X128829000Y-82527885D01*
X128833475Y-82543124D01*
X128834865Y-82544329D01*
X128842548Y-82546000D01*
X129514885Y-82546000D01*
X129530124Y-82541525D01*
X129531329Y-82540135D01*
X129533000Y-82532452D01*
X129533000Y-82504562D01*
X129532663Y-82498047D01*
X129523106Y-82405943D01*
X129520212Y-82392544D01*
X129470619Y-82243893D01*
X129464445Y-82230714D01*
X129382212Y-82097827D01*
X129373176Y-82086426D01*
X129262571Y-81976014D01*
X129251160Y-81967002D01*
X129118120Y-81884996D01*
X129104939Y-81878849D01*
X128956186Y-81829509D01*
X128942810Y-81826642D01*
X128851903Y-81817328D01*
X128846874Y-81817071D01*
X128831876Y-81821475D01*
X128830671Y-81822865D01*
X128829000Y-81830548D01*
X128829000Y-82527885D01*
X128321000Y-82527885D01*
X128321000Y-81835115D01*
X128316525Y-81819876D01*
X128315135Y-81818671D01*
X128307452Y-81817000D01*
X128304562Y-81817000D01*
X128298047Y-81817337D01*
X128205943Y-81826894D01*
X128192544Y-81829788D01*
X128043893Y-81879381D01*
X128030714Y-81885555D01*
X127897827Y-81967788D01*
X127880689Y-81981371D01*
X127879159Y-81979441D01*
X127827120Y-82007903D01*
X127756301Y-82002887D01*
X127719383Y-81979201D01*
X127718628Y-81980157D01*
X127712882Y-81975619D01*
X127707702Y-81970448D01*
X127678395Y-81952383D01*
X127568331Y-81884538D01*
X127568329Y-81884537D01*
X127562101Y-81880698D01*
X127399757Y-81826851D01*
X127392920Y-81826151D01*
X127392918Y-81826150D01*
X127351599Y-81821917D01*
X127298732Y-81816500D01*
X126751268Y-81816500D01*
X126748022Y-81816837D01*
X126748018Y-81816837D01*
X126718730Y-81819876D01*
X126648981Y-81827113D01*
X126642445Y-81829294D01*
X126642443Y-81829294D01*
X126612752Y-81839200D01*
X126541803Y-81841784D01*
X126480719Y-81805600D01*
X126448895Y-81742135D01*
X126452643Y-81681997D01*
X126462171Y-81651592D01*
X126476753Y-81605062D01*
X126483500Y-81531635D01*
X126483499Y-81018366D01*
X126483234Y-81015474D01*
X126479326Y-80972947D01*
X126476753Y-80944938D01*
X126473010Y-80932994D01*
X126427744Y-80788550D01*
X126427743Y-80788548D01*
X126425472Y-80781301D01*
X126414100Y-80762522D01*
X126404276Y-80746301D01*
X126392219Y-80719967D01*
X126377976Y-80676132D01*
X126377976Y-80676131D01*
X126375935Y-80669851D01*
X126280448Y-80504463D01*
X126275722Y-80499214D01*
X126237230Y-80456464D01*
X126206513Y-80392456D01*
X126215278Y-80322003D01*
X126241772Y-80283059D01*
X126889316Y-79635516D01*
X127588422Y-78936410D01*
X127602834Y-78924024D01*
X127614429Y-78915491D01*
X127614434Y-78915486D01*
X127620329Y-78911148D01*
X127625068Y-78905570D01*
X127625071Y-78905567D01*
X127654546Y-78870872D01*
X127661476Y-78863356D01*
X127667171Y-78857661D01*
X127684792Y-78835389D01*
X127687583Y-78831985D01*
X127730102Y-78781937D01*
X127730103Y-78781935D01*
X127734844Y-78776355D01*
X127738172Y-78769839D01*
X127741539Y-78764790D01*
X127744706Y-78759661D01*
X127749245Y-78753924D01*
X127780166Y-78687765D01*
X127782072Y-78683865D01*
X127815280Y-78618832D01*
X127817019Y-78611724D01*
X127819118Y-78606081D01*
X127821035Y-78600318D01*
X127824133Y-78593690D01*
X127829705Y-78566904D01*
X127838997Y-78522228D01*
X127839968Y-78517939D01*
X127844905Y-78497763D01*
X127857319Y-78447030D01*
X127857738Y-78440285D01*
X127858011Y-78435876D01*
X127858045Y-78435878D01*
X127858287Y-78431877D01*
X127858661Y-78427691D01*
X127860151Y-78420525D01*
X127858102Y-78344786D01*
X127858057Y-78343119D01*
X127858011Y-78339712D01*
X127858011Y-73571687D01*
X127859444Y-73552737D01*
X127859504Y-73552346D01*
X127859535Y-73552139D01*
X127861610Y-73538502D01*
X127861610Y-73538498D01*
X127862710Y-73531268D01*
X127858426Y-73478599D01*
X127858011Y-73468384D01*
X127858011Y-73460324D01*
X127854720Y-73432097D01*
X127854289Y-73427738D01*
X127853484Y-73417842D01*
X127848371Y-73354981D01*
X127846116Y-73348020D01*
X127844929Y-73342080D01*
X127843540Y-73336205D01*
X127842693Y-73328936D01*
X127840195Y-73322054D01*
X127838748Y-73315933D01*
X127842543Y-73245038D01*
X127884065Y-73187449D01*
X127950130Y-73161450D01*
X128019763Y-73175296D01*
X128067041Y-73218323D01*
X128190024Y-73407700D01*
X128195314Y-73414719D01*
X128373783Y-73620024D01*
X128379976Y-73626217D01*
X128585281Y-73804686D01*
X128592300Y-73809976D01*
X128820428Y-73958124D01*
X128828118Y-73962387D01*
X129074647Y-74077345D01*
X129082857Y-74080496D01*
X129342977Y-74160022D01*
X129351547Y-74162001D01*
X129528106Y-74189966D01*
X129541789Y-74188198D01*
X129546000Y-74174226D01*
X129546000Y-71472115D01*
X129541525Y-71456876D01*
X129540135Y-71455671D01*
X129532452Y-71454000D01*
X127810116Y-71454000D01*
X127794877Y-71458475D01*
X127793672Y-71459865D01*
X127792001Y-71467548D01*
X127792001Y-72310915D01*
X127792061Y-72313672D01*
X127794601Y-72371855D01*
X127795317Y-72378972D01*
X127837999Y-72648453D01*
X127839975Y-72657014D01*
X127920271Y-72919652D01*
X127921059Y-72990644D01*
X127883341Y-73050792D01*
X127819091Y-73081001D01*
X127748709Y-73071678D01*
X127702865Y-73034840D01*
X127702106Y-73035510D01*
X127694708Y-73027133D01*
X127694735Y-73027109D01*
X127692082Y-73024117D01*
X127689379Y-73020884D01*
X127685367Y-73014765D01*
X127629128Y-72961489D01*
X127626686Y-72959111D01*
X124582905Y-69915330D01*
X124548879Y-69853018D01*
X124546000Y-69826235D01*
X124546000Y-69783498D01*
X124543062Y-69746169D01*
X124496645Y-69586399D01*
X124449865Y-69507298D01*
X124415991Y-69450020D01*
X124415989Y-69450017D01*
X124411953Y-69443193D01*
X124294307Y-69325547D01*
X124287483Y-69321511D01*
X124287480Y-69321509D01*
X124153803Y-69242453D01*
X124105350Y-69190561D01*
X124092645Y-69120710D01*
X124119720Y-69055079D01*
X124177981Y-69014505D01*
X124217942Y-69008000D01*
X127947765Y-69008000D01*
X128015886Y-69028002D01*
G37*
%TD.AperFunction*%
%TA.AperFunction,Conductor*%
G36*
X97721121Y-97266002D02*
G01*
X97767614Y-97319658D01*
X97779000Y-97372000D01*
X97779000Y-98464885D01*
X97783475Y-98480124D01*
X97784865Y-98481329D01*
X97792548Y-98483000D01*
X97795438Y-98483000D01*
X97801953Y-98482663D01*
X97894057Y-98473106D01*
X97907456Y-98470212D01*
X97953275Y-98454926D01*
X98024225Y-98452342D01*
X98085309Y-98488526D01*
X98112984Y-98535513D01*
X98165473Y-98697056D01*
X98168776Y-98702778D01*
X98168777Y-98702779D01*
X98186068Y-98732727D01*
X98260960Y-98862444D01*
X98265378Y-98867351D01*
X98265379Y-98867352D01*
X98347452Y-98958503D01*
X98388747Y-99004366D01*
X98415585Y-99023865D01*
X98522443Y-99101502D01*
X98543248Y-99116618D01*
X98549276Y-99119302D01*
X98549278Y-99119303D01*
X98711681Y-99191609D01*
X98717712Y-99194294D01*
X98811113Y-99214147D01*
X98898056Y-99232628D01*
X98898061Y-99232628D01*
X98904513Y-99234000D01*
X99095487Y-99234000D01*
X99101939Y-99232628D01*
X99101944Y-99232628D01*
X99188888Y-99214147D01*
X99282288Y-99194294D01*
X99288319Y-99191609D01*
X99450722Y-99119303D01*
X99450724Y-99119302D01*
X99456752Y-99116618D01*
X99477558Y-99101502D01*
X99601839Y-99011206D01*
X99611253Y-99004366D01*
X99615668Y-98999463D01*
X99620580Y-98995040D01*
X99621705Y-98996289D01*
X99675014Y-98963449D01*
X99708200Y-98959000D01*
X100094773Y-98959000D01*
X100105956Y-98959527D01*
X100113449Y-98961202D01*
X100121375Y-98960953D01*
X100121376Y-98960953D01*
X100181526Y-98959062D01*
X100185485Y-98959000D01*
X100213396Y-98959000D01*
X100217331Y-98958503D01*
X100217396Y-98958495D01*
X100229233Y-98957562D01*
X100261491Y-98956548D01*
X100265510Y-98956422D01*
X100273429Y-98956173D01*
X100292883Y-98950521D01*
X100312240Y-98946513D01*
X100324470Y-98944968D01*
X100324471Y-98944968D01*
X100332337Y-98943974D01*
X100339708Y-98941055D01*
X100339710Y-98941055D01*
X100373452Y-98927696D01*
X100384682Y-98923851D01*
X100419523Y-98913729D01*
X100419524Y-98913729D01*
X100427133Y-98911518D01*
X100433952Y-98907485D01*
X100433957Y-98907483D01*
X100444568Y-98901207D01*
X100462316Y-98892512D01*
X100463946Y-98891866D01*
X100510323Y-98883020D01*
X101521713Y-98883020D01*
X101532896Y-98883547D01*
X101540389Y-98885222D01*
X101548315Y-98884973D01*
X101548316Y-98884973D01*
X101608466Y-98883082D01*
X101612425Y-98883020D01*
X101640336Y-98883020D01*
X101644271Y-98882523D01*
X101644336Y-98882515D01*
X101656173Y-98881582D01*
X101688431Y-98880568D01*
X101692450Y-98880442D01*
X101700369Y-98880193D01*
X101719823Y-98874541D01*
X101739180Y-98870533D01*
X101751410Y-98868988D01*
X101751411Y-98868988D01*
X101759277Y-98867994D01*
X101766648Y-98865075D01*
X101766650Y-98865075D01*
X101800392Y-98851716D01*
X101811622Y-98847871D01*
X101846463Y-98837749D01*
X101846464Y-98837749D01*
X101854073Y-98835538D01*
X101860892Y-98831505D01*
X101860897Y-98831503D01*
X101871508Y-98825227D01*
X101889256Y-98816532D01*
X101908097Y-98809072D01*
X101914941Y-98804100D01*
X101943867Y-98783084D01*
X101953787Y-98776568D01*
X101985015Y-98758100D01*
X101985018Y-98758098D01*
X101991842Y-98754062D01*
X102006163Y-98739741D01*
X102021197Y-98726900D01*
X102037587Y-98714992D01*
X102065778Y-98680915D01*
X102073768Y-98672136D01*
X102225499Y-98520405D01*
X102287811Y-98486379D01*
X102314594Y-98483500D01*
X102588614Y-98483499D01*
X102606634Y-98483499D01*
X102609492Y-98483236D01*
X102609501Y-98483236D01*
X102645004Y-98479974D01*
X102680062Y-98476753D01*
X102686444Y-98474753D01*
X102746000Y-98456090D01*
X102816985Y-98454806D01*
X102877395Y-98492103D01*
X102908051Y-98556140D01*
X102903511Y-98615258D01*
X102856458Y-98760072D01*
X102855768Y-98766633D01*
X102855768Y-98766635D01*
X102843322Y-98885052D01*
X102836496Y-98950000D01*
X102837186Y-98956565D01*
X102854543Y-99121705D01*
X102856458Y-99139928D01*
X102858498Y-99146208D01*
X102858500Y-99146215D01*
X102861012Y-99153945D01*
X102863039Y-99224913D01*
X102826377Y-99285711D01*
X102762664Y-99317036D01*
X102759468Y-99317480D01*
X102754513Y-99317480D01*
X102567712Y-99357186D01*
X102561682Y-99359871D01*
X102561681Y-99359871D01*
X102399278Y-99432177D01*
X102399276Y-99432178D01*
X102393248Y-99434862D01*
X102387907Y-99438742D01*
X102387906Y-99438743D01*
X102369738Y-99451943D01*
X102238747Y-99547114D01*
X102110960Y-99689036D01*
X102054747Y-99786399D01*
X102031876Y-99826014D01*
X102015473Y-99854424D01*
X101956458Y-100036052D01*
X101955768Y-100042613D01*
X101955768Y-100042615D01*
X101943692Y-100157515D01*
X101936496Y-100225980D01*
X101937186Y-100232545D01*
X101951122Y-100365135D01*
X101956458Y-100415908D01*
X102015473Y-100597536D01*
X102110960Y-100762924D01*
X102115378Y-100767831D01*
X102115379Y-100767832D01*
X102214401Y-100877807D01*
X102238747Y-100904846D01*
X102337843Y-100976844D01*
X102366149Y-100997409D01*
X102393248Y-101017098D01*
X102399276Y-101019782D01*
X102399278Y-101019783D01*
X102508198Y-101068277D01*
X102567712Y-101094774D01*
X102673467Y-101117253D01*
X102735940Y-101150982D01*
X102770262Y-101213131D01*
X102765534Y-101283970D01*
X102723258Y-101341008D01*
X102656857Y-101366135D01*
X102647270Y-101366500D01*
X98314594Y-101366500D01*
X98246473Y-101346498D01*
X98225499Y-101329595D01*
X97129022Y-100233117D01*
X96003652Y-99107747D01*
X95996112Y-99099461D01*
X95992000Y-99092982D01*
X95984775Y-99086197D01*
X95947195Y-99050907D01*
X95911229Y-98989694D01*
X95916195Y-98914207D01*
X95918206Y-98910549D01*
X95923244Y-98890926D01*
X95929648Y-98872223D01*
X95934544Y-98860909D01*
X95934544Y-98860908D01*
X95937692Y-98853634D01*
X95938931Y-98845811D01*
X95938934Y-98845801D01*
X95944610Y-98809965D01*
X95947016Y-98798345D01*
X95956039Y-98763200D01*
X95956039Y-98763199D01*
X95958011Y-98755519D01*
X95958011Y-98735265D01*
X95959562Y-98715554D01*
X95961491Y-98703375D01*
X95962731Y-98695546D01*
X95958570Y-98651527D01*
X95958011Y-98639670D01*
X95958011Y-97990084D01*
X95978013Y-97921963D01*
X95994916Y-97900988D01*
X96303715Y-97592190D01*
X96366027Y-97558165D01*
X96392810Y-97555286D01*
X96441000Y-97555286D01*
X96509121Y-97575288D01*
X96555614Y-97628944D01*
X96567000Y-97681286D01*
X96567000Y-97795438D01*
X96567337Y-97801953D01*
X96576894Y-97894057D01*
X96579788Y-97907456D01*
X96629381Y-98056107D01*
X96635555Y-98069286D01*
X96717788Y-98202173D01*
X96726824Y-98213574D01*
X96837429Y-98323986D01*
X96848840Y-98332998D01*
X96981880Y-98415004D01*
X96995061Y-98421151D01*
X97143814Y-98470491D01*
X97157190Y-98473358D01*
X97248097Y-98482672D01*
X97253126Y-98482929D01*
X97268124Y-98478525D01*
X97269329Y-98477135D01*
X97271000Y-98469452D01*
X97271000Y-97519490D01*
X97291002Y-97451369D01*
X97313550Y-97426730D01*
X97313148Y-97426328D01*
X97327469Y-97412007D01*
X97342503Y-97399166D01*
X97352479Y-97391918D01*
X97358893Y-97387258D01*
X97387079Y-97353187D01*
X97395068Y-97344408D01*
X97456571Y-97282905D01*
X97518883Y-97248879D01*
X97545666Y-97246000D01*
X97653000Y-97246000D01*
X97721121Y-97266002D01*
G37*
%TD.AperFunction*%
%TA.AperFunction,Conductor*%
G36*
X95253527Y-100153502D02*
G01*
X95274501Y-100170405D01*
X95477913Y-100373817D01*
X95511939Y-100436129D01*
X95506874Y-100506944D01*
X95464327Y-100563780D01*
X95397807Y-100588591D01*
X95356635Y-100584733D01*
X95353092Y-100583797D01*
X95348212Y-100582069D01*
X95239750Y-100562749D01*
X95133373Y-100543800D01*
X95133367Y-100543799D01*
X95128284Y-100542894D01*
X95054452Y-100541992D01*
X94910081Y-100540228D01*
X94910079Y-100540228D01*
X94904911Y-100540165D01*
X94684091Y-100573955D01*
X94471756Y-100643357D01*
X94418428Y-100671118D01*
X94379367Y-100691452D01*
X94273607Y-100746507D01*
X94269474Y-100749610D01*
X94269471Y-100749612D01*
X94099100Y-100877530D01*
X94094965Y-100880635D01*
X94074641Y-100901903D01*
X93968267Y-101013217D01*
X93940629Y-101042138D01*
X93833201Y-101199621D01*
X93778293Y-101244621D01*
X93707768Y-101252792D01*
X93644021Y-101221538D01*
X93623324Y-101197054D01*
X93542822Y-101072617D01*
X93542820Y-101072614D01*
X93540014Y-101068277D01*
X93389670Y-100903051D01*
X93385619Y-100899852D01*
X93385615Y-100899848D01*
X93218414Y-100767800D01*
X93218410Y-100767798D01*
X93214359Y-100764598D01*
X93200969Y-100757206D01*
X93142466Y-100724911D01*
X93018789Y-100656638D01*
X93013920Y-100654914D01*
X93013916Y-100654912D01*
X92813087Y-100583795D01*
X92813083Y-100583794D01*
X92808212Y-100582069D01*
X92803119Y-100581162D01*
X92803116Y-100581161D01*
X92593373Y-100543800D01*
X92593367Y-100543799D01*
X92588284Y-100542894D01*
X92477009Y-100541535D01*
X92409140Y-100520702D01*
X92363306Y-100466483D01*
X92354061Y-100396091D01*
X92384340Y-100331875D01*
X92389455Y-100326449D01*
X92545499Y-100170405D01*
X92607811Y-100136379D01*
X92634594Y-100133500D01*
X95185406Y-100133500D01*
X95253527Y-100153502D01*
G37*
%TD.AperFunction*%
%TA.AperFunction,Conductor*%
G36*
X106542012Y-97605421D02*
G01*
X106548595Y-97611550D01*
X106743911Y-97806866D01*
X106777937Y-97869178D01*
X106772872Y-97939993D01*
X106760603Y-97962850D01*
X106760960Y-97963056D01*
X106678764Y-98105424D01*
X106665473Y-98128444D01*
X106606458Y-98310072D01*
X106605768Y-98316633D01*
X106605768Y-98316635D01*
X106597377Y-98396474D01*
X106589598Y-98470491D01*
X106589093Y-98475292D01*
X106562080Y-98540949D01*
X106552878Y-98551217D01*
X106483874Y-98620221D01*
X106421562Y-98654247D01*
X106350747Y-98649182D01*
X106301144Y-98615438D01*
X106261253Y-98571134D01*
X106209872Y-98533803D01*
X106185265Y-98515925D01*
X106131338Y-98476745D01*
X106087985Y-98420524D01*
X106081910Y-98349788D01*
X106116305Y-98285715D01*
X106186639Y-98215381D01*
X106275472Y-98068699D01*
X106326753Y-97905062D01*
X106333500Y-97831635D01*
X106333500Y-97700645D01*
X106353502Y-97632524D01*
X106407158Y-97586031D01*
X106477432Y-97575927D01*
X106542012Y-97605421D01*
G37*
%TD.AperFunction*%
%TA.AperFunction,Conductor*%
G36*
X92021121Y-92266002D02*
G01*
X92067614Y-92319658D01*
X92079000Y-92372000D01*
X92079000Y-94128000D01*
X92058998Y-94196121D01*
X92005342Y-94242614D01*
X91953000Y-94254000D01*
X90885115Y-94254000D01*
X90869876Y-94258475D01*
X90868671Y-94259865D01*
X90867000Y-94267548D01*
X90867000Y-94295438D01*
X90867337Y-94301953D01*
X90876894Y-94394057D01*
X90879788Y-94407456D01*
X90929384Y-94556116D01*
X90938656Y-94575910D01*
X90936652Y-94576848D01*
X90952620Y-94634880D01*
X90931456Y-94702649D01*
X90892942Y-94739870D01*
X90847824Y-94767790D01*
X90836426Y-94776824D01*
X90726014Y-94887429D01*
X90717002Y-94898840D01*
X90634996Y-95031880D01*
X90628849Y-95045061D01*
X90579509Y-95193814D01*
X90576642Y-95207190D01*
X90567328Y-95298097D01*
X90567000Y-95304514D01*
X90567000Y-95327885D01*
X90571475Y-95343124D01*
X90572865Y-95344329D01*
X90580548Y-95346000D01*
X91653000Y-95346000D01*
X91721121Y-95366002D01*
X91767614Y-95419658D01*
X91779000Y-95472000D01*
X91779000Y-97328000D01*
X91758998Y-97396121D01*
X91705342Y-97442614D01*
X91653000Y-97454000D01*
X90585115Y-97454000D01*
X90569876Y-97458475D01*
X90568671Y-97459865D01*
X90567000Y-97467548D01*
X90567000Y-97495438D01*
X90567337Y-97501953D01*
X90576894Y-97594057D01*
X90579788Y-97607456D01*
X90629381Y-97756107D01*
X90635555Y-97769285D01*
X90684703Y-97848708D01*
X90703541Y-97917160D01*
X90682380Y-97984929D01*
X90627939Y-98030501D01*
X90577559Y-98041011D01*
X82214126Y-98041011D01*
X82146005Y-98021009D01*
X82125031Y-98004106D01*
X81670416Y-97549491D01*
X81636390Y-97487179D01*
X81633511Y-97460396D01*
X81633511Y-96927885D01*
X90567000Y-96927885D01*
X90571475Y-96943124D01*
X90572865Y-96944329D01*
X90580548Y-96946000D01*
X91252885Y-96946000D01*
X91268124Y-96941525D01*
X91269329Y-96940135D01*
X91271000Y-96932452D01*
X91271000Y-95872115D01*
X91266525Y-95856876D01*
X91265135Y-95855671D01*
X91257452Y-95854000D01*
X90585115Y-95854000D01*
X90569876Y-95858475D01*
X90568671Y-95859865D01*
X90567000Y-95867548D01*
X90567000Y-95895438D01*
X90567337Y-95901953D01*
X90576894Y-95994057D01*
X90579788Y-96007456D01*
X90629381Y-96156107D01*
X90635555Y-96169286D01*
X90717788Y-96302173D01*
X90731371Y-96319311D01*
X90729548Y-96320756D01*
X90758249Y-96373195D01*
X90753254Y-96444016D01*
X90729586Y-96480920D01*
X90730552Y-96481683D01*
X90717002Y-96498840D01*
X90634996Y-96631880D01*
X90628849Y-96645061D01*
X90579509Y-96793814D01*
X90576642Y-96807190D01*
X90567328Y-96898097D01*
X90567000Y-96904514D01*
X90567000Y-96927885D01*
X81633511Y-96927885D01*
X81633511Y-92932627D01*
X81653513Y-92864506D01*
X81707169Y-92818013D01*
X81777443Y-92807909D01*
X81842023Y-92837403D01*
X81848605Y-92843531D01*
X82786317Y-93781244D01*
X83722815Y-94717742D01*
X83730355Y-94726028D01*
X83734467Y-94732507D01*
X83740244Y-94737932D01*
X83784118Y-94779132D01*
X83786960Y-94781887D01*
X83806697Y-94801624D01*
X83809894Y-94804104D01*
X83818914Y-94811807D01*
X83851146Y-94842075D01*
X83858092Y-94845894D01*
X83858095Y-94845896D01*
X83868901Y-94851837D01*
X83885420Y-94862688D01*
X83901426Y-94875103D01*
X83908695Y-94878248D01*
X83908699Y-94878251D01*
X83942004Y-94892663D01*
X83952654Y-94897880D01*
X83991407Y-94919184D01*
X83999082Y-94921155D01*
X83999083Y-94921155D01*
X84011029Y-94924222D01*
X84029734Y-94930626D01*
X84048322Y-94938670D01*
X84056145Y-94939909D01*
X84056155Y-94939912D01*
X84091991Y-94945588D01*
X84103611Y-94947994D01*
X84138756Y-94957017D01*
X84146437Y-94958989D01*
X84166691Y-94958989D01*
X84186401Y-94960540D01*
X84206410Y-94963709D01*
X84214302Y-94962963D01*
X84250428Y-94959548D01*
X84262286Y-94958989D01*
X85143207Y-94958989D01*
X85211328Y-94978991D01*
X85252325Y-95021988D01*
X85260960Y-95036944D01*
X85265378Y-95041851D01*
X85265379Y-95041852D01*
X85279278Y-95057288D01*
X85388747Y-95178866D01*
X85468680Y-95236941D01*
X85536006Y-95285856D01*
X85543248Y-95291118D01*
X85549276Y-95293802D01*
X85549278Y-95293803D01*
X85701686Y-95361659D01*
X85717712Y-95368794D01*
X85805251Y-95387401D01*
X85898056Y-95407128D01*
X85898061Y-95407128D01*
X85904513Y-95408500D01*
X86095487Y-95408500D01*
X86101939Y-95407128D01*
X86101944Y-95407128D01*
X86194749Y-95387401D01*
X86282288Y-95368794D01*
X86298314Y-95361659D01*
X86450722Y-95293803D01*
X86450724Y-95293802D01*
X86456752Y-95291118D01*
X86463995Y-95285856D01*
X86531320Y-95236941D01*
X86611253Y-95178866D01*
X86720722Y-95057288D01*
X86734621Y-95041852D01*
X86734622Y-95041851D01*
X86739040Y-95036944D01*
X86777888Y-94969658D01*
X86829270Y-94920666D01*
X86899606Y-94907457D01*
X86904513Y-94908500D01*
X87095487Y-94908500D01*
X87101939Y-94907128D01*
X87101944Y-94907128D01*
X87194618Y-94887429D01*
X87282288Y-94868794D01*
X87290201Y-94865271D01*
X87450722Y-94793803D01*
X87450724Y-94793802D01*
X87456752Y-94791118D01*
X87469458Y-94781887D01*
X87520313Y-94744938D01*
X87611253Y-94678866D01*
X87615891Y-94673715D01*
X87734621Y-94541852D01*
X87734622Y-94541851D01*
X87739040Y-94536944D01*
X87817373Y-94401268D01*
X87831223Y-94377279D01*
X87831224Y-94377278D01*
X87834527Y-94371556D01*
X87893542Y-94189928D01*
X87895812Y-94168335D01*
X87912814Y-94006565D01*
X87913504Y-94000000D01*
X87902868Y-93898801D01*
X87894232Y-93816635D01*
X87894232Y-93816633D01*
X87893542Y-93810072D01*
X87834527Y-93628444D01*
X87823891Y-93610021D01*
X87778398Y-93531226D01*
X87739040Y-93463056D01*
X87704638Y-93424848D01*
X87615675Y-93326045D01*
X87615674Y-93326044D01*
X87611253Y-93321134D01*
X87456752Y-93208882D01*
X87450726Y-93206199D01*
X87450719Y-93206195D01*
X87297811Y-93138117D01*
X87243715Y-93092137D01*
X87223065Y-93024210D01*
X87242417Y-92955902D01*
X87295628Y-92908900D01*
X87327174Y-92898925D01*
X87329830Y-92898457D01*
X87335972Y-92897984D01*
X87341909Y-92896326D01*
X87341911Y-92896326D01*
X87386478Y-92883883D01*
X87526463Y-92844798D01*
X87531967Y-92842018D01*
X87531969Y-92842017D01*
X87697493Y-92758405D01*
X87697495Y-92758404D01*
X87702996Y-92755625D01*
X87707850Y-92751833D01*
X87707859Y-92751827D01*
X87716548Y-92745038D01*
X87782542Y-92718860D01*
X87855592Y-92734339D01*
X88024294Y-92828624D01*
X88212392Y-92889740D01*
X88408777Y-92913158D01*
X88414912Y-92912686D01*
X88414914Y-92912686D01*
X88599830Y-92898457D01*
X88599834Y-92898456D01*
X88605972Y-92897984D01*
X88796463Y-92844798D01*
X88801967Y-92842018D01*
X88801969Y-92842017D01*
X88967495Y-92758404D01*
X88967497Y-92758403D01*
X88972996Y-92755625D01*
X89100916Y-92655683D01*
X89123986Y-92637659D01*
X89123987Y-92637658D01*
X89128847Y-92633861D01*
X89177782Y-92577169D01*
X89237435Y-92538672D01*
X89273164Y-92533500D01*
X90741000Y-92533500D01*
X90809121Y-92553502D01*
X90855614Y-92607158D01*
X90867000Y-92659500D01*
X90867000Y-92795438D01*
X90867337Y-92801953D01*
X90876894Y-92894057D01*
X90879788Y-92907456D01*
X90929381Y-93056107D01*
X90935555Y-93069285D01*
X91006296Y-93183602D01*
X91025134Y-93252054D01*
X91006412Y-93316021D01*
X90934996Y-93431880D01*
X90928849Y-93445061D01*
X90879509Y-93593814D01*
X90876642Y-93607190D01*
X90867328Y-93698097D01*
X90867000Y-93704514D01*
X90867000Y-93727885D01*
X90871475Y-93743124D01*
X90872865Y-93744329D01*
X90880548Y-93746000D01*
X91552885Y-93746000D01*
X91568124Y-93741525D01*
X91569329Y-93740135D01*
X91571000Y-93732452D01*
X91571000Y-92372000D01*
X91591002Y-92303879D01*
X91644658Y-92257386D01*
X91697000Y-92246000D01*
X91953000Y-92246000D01*
X92021121Y-92266002D01*
G37*
%TD.AperFunction*%
%TA.AperFunction,Conductor*%
G36*
X104585996Y-95062353D02*
G01*
X104631059Y-95091314D01*
X104812079Y-95272334D01*
X104846105Y-95334646D01*
X104841040Y-95405461D01*
X104812079Y-95450524D01*
X103783008Y-96479595D01*
X103720696Y-96513621D01*
X103693914Y-96516500D01*
X103522712Y-96516501D01*
X103518366Y-96516501D01*
X103515508Y-96516764D01*
X103515499Y-96516764D01*
X103479996Y-96520026D01*
X103444938Y-96523247D01*
X103281301Y-96574528D01*
X103276825Y-96577238D01*
X103207510Y-96586902D01*
X103143056Y-96557132D01*
X103104928Y-96497242D01*
X103099975Y-96462262D01*
X103099975Y-96054268D01*
X103119977Y-95986147D01*
X103173633Y-95939654D01*
X103243907Y-95929550D01*
X103308487Y-95959044D01*
X103333408Y-95988433D01*
X103408424Y-96110849D01*
X103418880Y-96120309D01*
X103427658Y-96116525D01*
X104452869Y-95091314D01*
X104515181Y-95057288D01*
X104585996Y-95062353D01*
G37*
%TD.AperFunction*%
%TA.AperFunction,Conductor*%
G36*
X86217439Y-88153502D02*
G01*
X86263932Y-88207158D01*
X86274036Y-88277432D01*
X86269552Y-88297179D01*
X86223247Y-88444938D01*
X86216500Y-88518365D01*
X86216500Y-88795782D01*
X86215810Y-88808950D01*
X86211496Y-88850000D01*
X86212186Y-88856564D01*
X86212186Y-88856566D01*
X86215811Y-88891053D01*
X86216501Y-88904224D01*
X86216501Y-89181634D01*
X86216764Y-89184492D01*
X86216764Y-89184501D01*
X86219531Y-89214616D01*
X86223247Y-89255062D01*
X86225246Y-89261440D01*
X86225246Y-89261441D01*
X86271504Y-89409048D01*
X86274528Y-89418699D01*
X86363361Y-89565381D01*
X86484619Y-89686639D01*
X86631301Y-89775472D01*
X86638548Y-89777743D01*
X86638550Y-89777744D01*
X86662049Y-89785108D01*
X86794938Y-89826753D01*
X86868365Y-89833500D01*
X86871263Y-89833500D01*
X87125665Y-89833499D01*
X87381634Y-89833499D01*
X87384492Y-89833236D01*
X87384501Y-89833236D01*
X87420004Y-89829974D01*
X87455062Y-89826753D01*
X87466569Y-89823147D01*
X87611450Y-89777744D01*
X87611452Y-89777743D01*
X87618699Y-89775472D01*
X87765381Y-89686639D01*
X87860905Y-89591115D01*
X87923217Y-89557089D01*
X87994032Y-89562154D01*
X88039095Y-89591115D01*
X88134619Y-89686639D01*
X88193879Y-89722528D01*
X88210692Y-89732710D01*
X88258598Y-89785108D01*
X88270571Y-89855087D01*
X88242810Y-89920431D01*
X88234526Y-89929570D01*
X87309448Y-90854647D01*
X87247138Y-90888671D01*
X87207187Y-90890860D01*
X87173207Y-90887289D01*
X87173202Y-90887289D01*
X87167075Y-90886645D01*
X87084576Y-90894153D01*
X86976251Y-90904011D01*
X86976248Y-90904012D01*
X86970112Y-90904570D01*
X86964206Y-90906308D01*
X86964202Y-90906309D01*
X86887954Y-90928750D01*
X86780381Y-90960410D01*
X86774923Y-90963263D01*
X86774919Y-90963265D01*
X86704653Y-91000000D01*
X86605110Y-91052040D01*
X86600310Y-91055900D01*
X86595153Y-91059274D01*
X86593849Y-91057281D01*
X86537977Y-91080354D01*
X86468122Y-91067674D01*
X86454186Y-91059522D01*
X86450980Y-91057360D01*
X86287924Y-90969196D01*
X86276619Y-90964444D01*
X86161308Y-90928750D01*
X86147205Y-90928544D01*
X86144000Y-90935299D01*
X86144000Y-92028000D01*
X86123998Y-92096121D01*
X86070342Y-92142614D01*
X86018000Y-92154000D01*
X85822095Y-92154000D01*
X85753974Y-92133998D01*
X85733000Y-92117095D01*
X85672905Y-92057000D01*
X85638879Y-91994688D01*
X85636000Y-91967905D01*
X85636000Y-90942076D01*
X85632027Y-90928545D01*
X85624232Y-90927425D01*
X85516479Y-90959138D01*
X85505111Y-90963731D01*
X85340846Y-91049607D01*
X85325426Y-91059697D01*
X85324003Y-91057522D01*
X85268864Y-91080314D01*
X85199005Y-91067657D01*
X85189055Y-91061839D01*
X85186675Y-91059870D01*
X85012701Y-90965802D01*
X84823768Y-90907318D01*
X84817643Y-90906674D01*
X84817642Y-90906674D01*
X84633204Y-90887289D01*
X84633202Y-90887289D01*
X84627075Y-90886645D01*
X84544576Y-90894153D01*
X84436251Y-90904011D01*
X84436248Y-90904012D01*
X84430112Y-90904570D01*
X84424206Y-90906308D01*
X84424202Y-90906309D01*
X84296549Y-90943879D01*
X84240381Y-90960410D01*
X84234797Y-90963329D01*
X84234727Y-90963343D01*
X84229209Y-90965573D01*
X84228785Y-90964524D01*
X84165164Y-90977165D01*
X84112846Y-90957096D01*
X84111760Y-90959079D01*
X84103892Y-90954771D01*
X84096705Y-90949385D01*
X83960316Y-90898255D01*
X83898134Y-90891500D01*
X83308594Y-90891500D01*
X83240473Y-90871498D01*
X83193980Y-90817842D01*
X83183876Y-90747568D01*
X83213370Y-90682988D01*
X83219499Y-90676405D01*
X85725499Y-88170405D01*
X85787811Y-88136379D01*
X85814594Y-88133500D01*
X86149318Y-88133500D01*
X86217439Y-88153502D01*
G37*
%TD.AperFunction*%
%TA.AperFunction,Conductor*%
G36*
X84971604Y-83421998D02*
G01*
X84982810Y-83431945D01*
X88022197Y-86471333D01*
X88056223Y-86533645D01*
X88051158Y-86604461D01*
X88008611Y-86661296D01*
X87942091Y-86686107D01*
X87881853Y-86675535D01*
X87788319Y-86633891D01*
X87788318Y-86633891D01*
X87782288Y-86631206D01*
X87687057Y-86610964D01*
X87601944Y-86592872D01*
X87601939Y-86592872D01*
X87595487Y-86591500D01*
X87404513Y-86591500D01*
X87398061Y-86592872D01*
X87398056Y-86592872D01*
X87312943Y-86610964D01*
X87217712Y-86631206D01*
X87211682Y-86633891D01*
X87211681Y-86633891D01*
X87049278Y-86706197D01*
X87049276Y-86706198D01*
X87043248Y-86708882D01*
X87037907Y-86712762D01*
X87037906Y-86712763D01*
X86964251Y-86766277D01*
X86888747Y-86821134D01*
X86884332Y-86826037D01*
X86879420Y-86830460D01*
X86878295Y-86829211D01*
X86824986Y-86862051D01*
X86791800Y-86866500D01*
X85578763Y-86866500D01*
X85567579Y-86865973D01*
X85560091Y-86864299D01*
X85552168Y-86864548D01*
X85492033Y-86866438D01*
X85488075Y-86866500D01*
X85460144Y-86866500D01*
X85456229Y-86866995D01*
X85456225Y-86866995D01*
X85456167Y-86867003D01*
X85456138Y-86867006D01*
X85444296Y-86867939D01*
X85400110Y-86869327D01*
X85382744Y-86874372D01*
X85380658Y-86874978D01*
X85361306Y-86878986D01*
X85349068Y-86880532D01*
X85349066Y-86880533D01*
X85341203Y-86881526D01*
X85300086Y-86897806D01*
X85288885Y-86901641D01*
X85246406Y-86913982D01*
X85239587Y-86918015D01*
X85239582Y-86918017D01*
X85228971Y-86924293D01*
X85211221Y-86932990D01*
X85192383Y-86940448D01*
X85185967Y-86945109D01*
X85185966Y-86945110D01*
X85156625Y-86966428D01*
X85146701Y-86972947D01*
X85115460Y-86991422D01*
X85115455Y-86991426D01*
X85108637Y-86995458D01*
X85094313Y-87009782D01*
X85079281Y-87022621D01*
X85062893Y-87034528D01*
X85034712Y-87068593D01*
X85026722Y-87077373D01*
X81607747Y-90496348D01*
X81599461Y-90503888D01*
X81592982Y-90508000D01*
X81587557Y-90513777D01*
X81546357Y-90557651D01*
X81543602Y-90560493D01*
X81523865Y-90580230D01*
X81521385Y-90583427D01*
X81513682Y-90592447D01*
X81483414Y-90624679D01*
X81479595Y-90631625D01*
X81479593Y-90631628D01*
X81473652Y-90642434D01*
X81462815Y-90658935D01*
X81459572Y-90663116D01*
X81402026Y-90704691D01*
X81331135Y-90708555D01*
X81270906Y-90675001D01*
X79651218Y-89055313D01*
X79617192Y-88993001D01*
X79619755Y-88929589D01*
X79621759Y-88922995D01*
X79632370Y-88888069D01*
X79661529Y-88666590D01*
X79661952Y-88649275D01*
X79663074Y-88603365D01*
X79663074Y-88603361D01*
X79663156Y-88600000D01*
X79644852Y-88377361D01*
X79590431Y-88160702D01*
X79501354Y-87955840D01*
X79457919Y-87888700D01*
X79382822Y-87772617D01*
X79382820Y-87772614D01*
X79380014Y-87768277D01*
X79229670Y-87603051D01*
X79225619Y-87599852D01*
X79225615Y-87599848D01*
X79058414Y-87467800D01*
X79058410Y-87467798D01*
X79054359Y-87464598D01*
X79013053Y-87441796D01*
X78963084Y-87391364D01*
X78948312Y-87321921D01*
X78973428Y-87255516D01*
X79000780Y-87228909D01*
X79065494Y-87182749D01*
X79179860Y-87101173D01*
X79212363Y-87068784D01*
X79297579Y-86983865D01*
X79338096Y-86943489D01*
X79344555Y-86934501D01*
X79465435Y-86766277D01*
X79468453Y-86762077D01*
X79471077Y-86756769D01*
X79565136Y-86566453D01*
X79565137Y-86566451D01*
X79567430Y-86561811D01*
X79608116Y-86427899D01*
X79630865Y-86353023D01*
X79630865Y-86353021D01*
X79632370Y-86348069D01*
X79646196Y-86243053D01*
X79674919Y-86178126D01*
X79734184Y-86139035D01*
X79771118Y-86133500D01*
X80040907Y-86133500D01*
X80109028Y-86153502D01*
X80155521Y-86207158D01*
X80166774Y-86265279D01*
X80166764Y-86265487D01*
X80166500Y-86268365D01*
X80166501Y-86931634D01*
X80166764Y-86934492D01*
X80166764Y-86934501D01*
X80170019Y-86969924D01*
X80173247Y-87005062D01*
X80175246Y-87011440D01*
X80175246Y-87011441D01*
X80214004Y-87135116D01*
X80224528Y-87168699D01*
X80313361Y-87315381D01*
X80434619Y-87436639D01*
X80581301Y-87525472D01*
X80588548Y-87527743D01*
X80588550Y-87527744D01*
X80638499Y-87543397D01*
X80744938Y-87576753D01*
X80818365Y-87583500D01*
X80821263Y-87583500D01*
X81075665Y-87583499D01*
X81331634Y-87583499D01*
X81334492Y-87583236D01*
X81334501Y-87583236D01*
X81370004Y-87579974D01*
X81405062Y-87576753D01*
X81421831Y-87571498D01*
X81561450Y-87527744D01*
X81561452Y-87527743D01*
X81568699Y-87525472D01*
X81715381Y-87436639D01*
X81811259Y-87340761D01*
X81873571Y-87306735D01*
X81944386Y-87311800D01*
X81989449Y-87340761D01*
X82079557Y-87430869D01*
X82091426Y-87440176D01*
X82225012Y-87521079D01*
X82238757Y-87527285D01*
X82388644Y-87574256D01*
X82401694Y-87576869D01*
X82456586Y-87581913D01*
X82468124Y-87578525D01*
X82469329Y-87577135D01*
X82471000Y-87569452D01*
X82471000Y-87564884D01*
X82979000Y-87564884D01*
X82983475Y-87580123D01*
X82984865Y-87581328D01*
X82989294Y-87582291D01*
X83048315Y-87576868D01*
X83061351Y-87574257D01*
X83211243Y-87527285D01*
X83224988Y-87521079D01*
X83358574Y-87440176D01*
X83370443Y-87430869D01*
X83480869Y-87320443D01*
X83490176Y-87308574D01*
X83571079Y-87174988D01*
X83577285Y-87161243D01*
X83624256Y-87011356D01*
X83626869Y-86998306D01*
X83632734Y-86934479D01*
X83633000Y-86928691D01*
X83633000Y-86872115D01*
X83628525Y-86856876D01*
X83627135Y-86855671D01*
X83619452Y-86854000D01*
X82997115Y-86854000D01*
X82981876Y-86858475D01*
X82980671Y-86859865D01*
X82979000Y-86867548D01*
X82979000Y-87564884D01*
X82471000Y-87564884D01*
X82471000Y-86472000D01*
X82491002Y-86403879D01*
X82544658Y-86357386D01*
X82597000Y-86346000D01*
X83614884Y-86346000D01*
X83630123Y-86341525D01*
X83631328Y-86340135D01*
X83632999Y-86332452D01*
X83632999Y-86271295D01*
X83632736Y-86265546D01*
X83626868Y-86201685D01*
X83624257Y-86188649D01*
X83577285Y-86038757D01*
X83571079Y-86025012D01*
X83490176Y-85891426D01*
X83480869Y-85879557D01*
X83370443Y-85769131D01*
X83358574Y-85759824D01*
X83224988Y-85678921D01*
X83211243Y-85672715D01*
X83061356Y-85625744D01*
X83048306Y-85623131D01*
X82984479Y-85617266D01*
X82978691Y-85617000D01*
X82954167Y-85617000D01*
X82886046Y-85596998D01*
X82839553Y-85543342D01*
X82829449Y-85473068D01*
X82858943Y-85408488D01*
X82865072Y-85401905D01*
X84392253Y-83874724D01*
X84400539Y-83867184D01*
X84407018Y-83863072D01*
X84453644Y-83813420D01*
X84456398Y-83810579D01*
X84476135Y-83790842D01*
X84478615Y-83787645D01*
X84486322Y-83778621D01*
X84504733Y-83759016D01*
X84522520Y-83743335D01*
X84576819Y-83703884D01*
X84611253Y-83678866D01*
X84652906Y-83632606D01*
X84734621Y-83541852D01*
X84734622Y-83541851D01*
X84739040Y-83536944D01*
X84784596Y-83458039D01*
X84835979Y-83409046D01*
X84905693Y-83395611D01*
X84971604Y-83421998D01*
G37*
%TD.AperFunction*%
%TA.AperFunction,Conductor*%
G36*
X118467981Y-86440097D02*
G01*
X118472865Y-86444329D01*
X118480548Y-86446000D01*
X119553000Y-86446000D01*
X119621121Y-86466002D01*
X119667614Y-86519658D01*
X119679000Y-86572000D01*
X119679000Y-86828000D01*
X119658998Y-86896121D01*
X119605342Y-86942614D01*
X119553000Y-86954000D01*
X118485115Y-86954000D01*
X118469876Y-86958475D01*
X118468671Y-86959865D01*
X118467000Y-86967548D01*
X118467000Y-86995438D01*
X118467337Y-87001953D01*
X118476894Y-87094057D01*
X118479788Y-87107456D01*
X118529381Y-87256107D01*
X118535555Y-87269286D01*
X118617788Y-87402173D01*
X118626824Y-87413574D01*
X118731203Y-87517771D01*
X118765282Y-87580053D01*
X118760279Y-87650873D01*
X118731280Y-87696039D01*
X117850793Y-88576526D01*
X117788481Y-88610552D01*
X117717666Y-88605487D01*
X117660830Y-88562940D01*
X117636257Y-88499290D01*
X117634059Y-88476040D01*
X117633500Y-88464181D01*
X117633500Y-87002453D01*
X117653502Y-86934332D01*
X117707158Y-86887839D01*
X117733302Y-86879206D01*
X117782288Y-86868794D01*
X117797433Y-86862051D01*
X117950722Y-86793803D01*
X117950724Y-86793802D01*
X117956752Y-86791118D01*
X118111253Y-86678866D01*
X118177541Y-86605246D01*
X118234621Y-86541852D01*
X118234622Y-86541851D01*
X118239040Y-86536944D01*
X118276350Y-86472321D01*
X118327733Y-86423328D01*
X118397447Y-86409893D01*
X118467981Y-86440097D01*
G37*
%TD.AperFunction*%
%TA.AperFunction,Conductor*%
G36*
X113842012Y-85128402D02*
G01*
X113853136Y-85139316D01*
X113888747Y-85178866D01*
X113968501Y-85236811D01*
X114000000Y-85259696D01*
X114043248Y-85291118D01*
X114049276Y-85293802D01*
X114049278Y-85293803D01*
X114211654Y-85366097D01*
X114217712Y-85368794D01*
X114308723Y-85388139D01*
X114398056Y-85407128D01*
X114398061Y-85407128D01*
X114404513Y-85408500D01*
X114595487Y-85408500D01*
X114601939Y-85407128D01*
X114601944Y-85407128D01*
X114691277Y-85388139D01*
X114782288Y-85368794D01*
X114948752Y-85294680D01*
X115019118Y-85285246D01*
X115051247Y-85294680D01*
X115217712Y-85368794D01*
X115404513Y-85408500D01*
X115407170Y-85408500D01*
X115471474Y-85434952D01*
X115512107Y-85493171D01*
X115514814Y-85564116D01*
X115481747Y-85622348D01*
X115107747Y-85996348D01*
X115099461Y-86003888D01*
X115092982Y-86008000D01*
X115087557Y-86013777D01*
X115046357Y-86057651D01*
X115043602Y-86060493D01*
X115023865Y-86080230D01*
X115021385Y-86083427D01*
X115013682Y-86092447D01*
X114983414Y-86124679D01*
X114979595Y-86131625D01*
X114979593Y-86131628D01*
X114973652Y-86142434D01*
X114962801Y-86158953D01*
X114950386Y-86174959D01*
X114947241Y-86182228D01*
X114947238Y-86182232D01*
X114932826Y-86215537D01*
X114927609Y-86226187D01*
X114906305Y-86264940D01*
X114904334Y-86272615D01*
X114904334Y-86272616D01*
X114901267Y-86284562D01*
X114894863Y-86303266D01*
X114886819Y-86321855D01*
X114885580Y-86329678D01*
X114885577Y-86329688D01*
X114879901Y-86365524D01*
X114877495Y-86377144D01*
X114870631Y-86403879D01*
X114866500Y-86419970D01*
X114866500Y-86440224D01*
X114864949Y-86459934D01*
X114861780Y-86479943D01*
X114862526Y-86487835D01*
X114865941Y-86523961D01*
X114866500Y-86535819D01*
X114866500Y-87012417D01*
X114846498Y-87080538D01*
X114792842Y-87127031D01*
X114722568Y-87137135D01*
X114674384Y-87119677D01*
X114618120Y-87084996D01*
X114604939Y-87078849D01*
X114456186Y-87029509D01*
X114442810Y-87026642D01*
X114351903Y-87017328D01*
X114346874Y-87017071D01*
X114331876Y-87021475D01*
X114330671Y-87022865D01*
X114329000Y-87030548D01*
X114329000Y-88128000D01*
X114308998Y-88196121D01*
X114255342Y-88242614D01*
X114203000Y-88254000D01*
X113947000Y-88254000D01*
X113878879Y-88233998D01*
X113832386Y-88180342D01*
X113821000Y-88128000D01*
X113821000Y-87035115D01*
X113816525Y-87019876D01*
X113815135Y-87018671D01*
X113807452Y-87017000D01*
X113804562Y-87017000D01*
X113798040Y-87017337D01*
X113772502Y-87019987D01*
X113702681Y-87007122D01*
X113650900Y-86958550D01*
X113633500Y-86894660D01*
X113633500Y-85223626D01*
X113653502Y-85155505D01*
X113707158Y-85109012D01*
X113777432Y-85098908D01*
X113842012Y-85128402D01*
G37*
%TD.AperFunction*%
%TA.AperFunction,Conductor*%
G36*
X111658555Y-85316625D02*
G01*
X111662899Y-85319302D01*
X111825243Y-85373149D01*
X111832080Y-85373849D01*
X111832082Y-85373850D01*
X111866381Y-85377364D01*
X111926268Y-85383500D01*
X112240500Y-85383500D01*
X112308621Y-85403502D01*
X112355114Y-85457158D01*
X112366500Y-85509500D01*
X112366500Y-86891057D01*
X112346498Y-86959178D01*
X112292842Y-87005671D01*
X112251202Y-87015866D01*
X112251268Y-87016500D01*
X112148981Y-87027113D01*
X112140235Y-87030031D01*
X111993676Y-87078927D01*
X111993674Y-87078928D01*
X111986732Y-87081244D01*
X111980508Y-87085096D01*
X111980507Y-87085096D01*
X111900301Y-87134729D01*
X111841287Y-87171248D01*
X111720448Y-87292298D01*
X111716607Y-87298529D01*
X111712070Y-87304274D01*
X111711022Y-87303447D01*
X111663981Y-87345778D01*
X111593909Y-87357198D01*
X111528787Y-87328921D01*
X111489290Y-87269925D01*
X111483499Y-87232166D01*
X111483499Y-87118366D01*
X111482071Y-87102815D01*
X111479733Y-87077373D01*
X111476753Y-87044938D01*
X111472456Y-87031226D01*
X111427744Y-86888550D01*
X111427743Y-86888548D01*
X111425472Y-86881301D01*
X111336639Y-86734619D01*
X111241115Y-86639095D01*
X111207089Y-86576783D01*
X111212154Y-86505968D01*
X111241115Y-86460905D01*
X111336639Y-86365381D01*
X111425472Y-86218699D01*
X111432919Y-86194938D01*
X111452172Y-86133500D01*
X111476753Y-86055062D01*
X111483500Y-85981635D01*
X111483499Y-85468366D01*
X111483236Y-85465503D01*
X111483235Y-85465482D01*
X111481139Y-85442673D01*
X111494824Y-85373008D01*
X111544000Y-85321800D01*
X111613055Y-85305309D01*
X111658555Y-85316625D01*
G37*
%TD.AperFunction*%
%TA.AperFunction,Conductor*%
G36*
X79877733Y-78373637D02*
G01*
X80396343Y-78892247D01*
X80403887Y-78900537D01*
X80408000Y-78907018D01*
X80413777Y-78912443D01*
X80457667Y-78953658D01*
X80460509Y-78956413D01*
X80480230Y-78976134D01*
X80483425Y-78978612D01*
X80492447Y-78986318D01*
X80524679Y-79016586D01*
X80531628Y-79020406D01*
X80542432Y-79026346D01*
X80558956Y-79037199D01*
X80574959Y-79049613D01*
X80615543Y-79067176D01*
X80626173Y-79072383D01*
X80664940Y-79093695D01*
X80672617Y-79095666D01*
X80672622Y-79095668D01*
X80684558Y-79098732D01*
X80703266Y-79105137D01*
X80721855Y-79113181D01*
X80729683Y-79114421D01*
X80729690Y-79114423D01*
X80765524Y-79120099D01*
X80777146Y-79122505D01*
X80819451Y-79133367D01*
X80879336Y-79169633D01*
X80879420Y-79169540D01*
X80879909Y-79169980D01*
X80881748Y-79171094D01*
X80884328Y-79173959D01*
X80884332Y-79173962D01*
X80888747Y-79178866D01*
X80894086Y-79182745D01*
X80929535Y-79208500D01*
X81043248Y-79291118D01*
X81049276Y-79293802D01*
X81049278Y-79293803D01*
X81193468Y-79358000D01*
X81217712Y-79368794D01*
X81311113Y-79388647D01*
X81398056Y-79407128D01*
X81398061Y-79407128D01*
X81404513Y-79408500D01*
X81595487Y-79408500D01*
X81601939Y-79407128D01*
X81601944Y-79407128D01*
X81688887Y-79388647D01*
X81782288Y-79368794D01*
X81806692Y-79357929D01*
X81859314Y-79334500D01*
X81889252Y-79321171D01*
X81959618Y-79311737D01*
X82023915Y-79341843D01*
X82061729Y-79401932D01*
X82066500Y-79436278D01*
X82066500Y-80174464D01*
X82065973Y-80185647D01*
X82064298Y-80193140D01*
X82064547Y-80201066D01*
X82064547Y-80201067D01*
X82066438Y-80261217D01*
X82066500Y-80265176D01*
X82066500Y-80293087D01*
X82066997Y-80297021D01*
X82066997Y-80297022D01*
X82067005Y-80297087D01*
X82067938Y-80308924D01*
X82069327Y-80353120D01*
X82074683Y-80371556D01*
X82074978Y-80372570D01*
X82078987Y-80391931D01*
X82081526Y-80412028D01*
X82084445Y-80419399D01*
X82084445Y-80419401D01*
X82097804Y-80453143D01*
X82101649Y-80464373D01*
X82111250Y-80497421D01*
X82113982Y-80506824D01*
X82118015Y-80513643D01*
X82118017Y-80513648D01*
X82124293Y-80524259D01*
X82132988Y-80542007D01*
X82140448Y-80560848D01*
X82145110Y-80567264D01*
X82145110Y-80567265D01*
X82166436Y-80596618D01*
X82172952Y-80606538D01*
X82189129Y-80633891D01*
X82195458Y-80644593D01*
X82209779Y-80658914D01*
X82222619Y-80673947D01*
X82234528Y-80690338D01*
X82253698Y-80706197D01*
X82268605Y-80718529D01*
X82277384Y-80726519D01*
X83564897Y-82014032D01*
X83598923Y-82076344D01*
X83593858Y-82147159D01*
X83551311Y-82203995D01*
X83545260Y-82207986D01*
X83543248Y-82208882D01*
X83388747Y-82321134D01*
X83260960Y-82463056D01*
X83250203Y-82481688D01*
X83198821Y-82530681D01*
X83129108Y-82544118D01*
X83103404Y-82538922D01*
X83061352Y-82525743D01*
X83048306Y-82523131D01*
X82993414Y-82518087D01*
X82981876Y-82521475D01*
X82980671Y-82522865D01*
X82979000Y-82530548D01*
X82979000Y-83443978D01*
X82958998Y-83512099D01*
X82942095Y-83533073D01*
X82758073Y-83717095D01*
X82695761Y-83751121D01*
X82668978Y-83754000D01*
X82597000Y-83754000D01*
X82528879Y-83733998D01*
X82482386Y-83680342D01*
X82471000Y-83628000D01*
X82471000Y-82535116D01*
X82466525Y-82519877D01*
X82465135Y-82518672D01*
X82460706Y-82517709D01*
X82401685Y-82523132D01*
X82388649Y-82525743D01*
X82238757Y-82572715D01*
X82225012Y-82578921D01*
X82091426Y-82659824D01*
X82079557Y-82669131D01*
X81989449Y-82759239D01*
X81927137Y-82793265D01*
X81856322Y-82788200D01*
X81811259Y-82759239D01*
X81715381Y-82663361D01*
X81568699Y-82574528D01*
X81561452Y-82572257D01*
X81561450Y-82572256D01*
X81494186Y-82551177D01*
X81405062Y-82523247D01*
X81331635Y-82516500D01*
X81328737Y-82516500D01*
X81074335Y-82516501D01*
X80818366Y-82516501D01*
X80815508Y-82516764D01*
X80815499Y-82516764D01*
X80781935Y-82519848D01*
X80744938Y-82523247D01*
X80738560Y-82525246D01*
X80738559Y-82525246D01*
X80588550Y-82572256D01*
X80588548Y-82572257D01*
X80581301Y-82574528D01*
X80434619Y-82663361D01*
X80313361Y-82784619D01*
X80224528Y-82931301D01*
X80222257Y-82938548D01*
X80222256Y-82938550D01*
X80206406Y-82989128D01*
X80173247Y-83094938D01*
X80166500Y-83168365D01*
X80166501Y-83831634D01*
X80166764Y-83834492D01*
X80166764Y-83834501D01*
X80169170Y-83860684D01*
X80173247Y-83905062D01*
X80175246Y-83911440D01*
X80175246Y-83911441D01*
X80221063Y-84057641D01*
X80224528Y-84068699D01*
X80313361Y-84215381D01*
X80434619Y-84336639D01*
X80581301Y-84425472D01*
X80588548Y-84427743D01*
X80588550Y-84427744D01*
X80631007Y-84441049D01*
X80744938Y-84476753D01*
X80818365Y-84483500D01*
X80821263Y-84483500D01*
X81075665Y-84483499D01*
X81331634Y-84483499D01*
X81334492Y-84483236D01*
X81334501Y-84483236D01*
X81370004Y-84479974D01*
X81405062Y-84476753D01*
X81476971Y-84454218D01*
X81561450Y-84427744D01*
X81561452Y-84427743D01*
X81568699Y-84425472D01*
X81715381Y-84336639D01*
X81811259Y-84240761D01*
X81873571Y-84206735D01*
X81944386Y-84211800D01*
X81989449Y-84240761D01*
X82022833Y-84274145D01*
X82056859Y-84336457D01*
X82051794Y-84407272D01*
X82022836Y-84452331D01*
X81645570Y-84829597D01*
X81583260Y-84863621D01*
X81556477Y-84866500D01*
X79145431Y-84866500D01*
X79077310Y-84846498D01*
X79030817Y-84792842D01*
X79020713Y-84722568D01*
X79050207Y-84657988D01*
X79072263Y-84637921D01*
X79175656Y-84564172D01*
X79175659Y-84564170D01*
X79179860Y-84561173D01*
X79193762Y-84547320D01*
X79289078Y-84452336D01*
X79338096Y-84403489D01*
X79370103Y-84358947D01*
X79465435Y-84226277D01*
X79468453Y-84222077D01*
X79471763Y-84215381D01*
X79565136Y-84026453D01*
X79565137Y-84026451D01*
X79567430Y-84021811D01*
X79624339Y-83834501D01*
X79630865Y-83813023D01*
X79630865Y-83813021D01*
X79632370Y-83808069D01*
X79661529Y-83586590D01*
X79663156Y-83520000D01*
X79644852Y-83297361D01*
X79590431Y-83080702D01*
X79501354Y-82875840D01*
X79444034Y-82787237D01*
X79382822Y-82692617D01*
X79382820Y-82692614D01*
X79380014Y-82688277D01*
X79229670Y-82523051D01*
X79225619Y-82519852D01*
X79225615Y-82519848D01*
X79058414Y-82387800D01*
X79058410Y-82387798D01*
X79054359Y-82384598D01*
X79013053Y-82361796D01*
X78963084Y-82311364D01*
X78948312Y-82241921D01*
X78973428Y-82175516D01*
X79000780Y-82148909D01*
X79088378Y-82086426D01*
X79179860Y-82021173D01*
X79193177Y-82007903D01*
X79279907Y-81921475D01*
X79338096Y-81863489D01*
X79342717Y-81857059D01*
X79465435Y-81686277D01*
X79468453Y-81682077D01*
X79492268Y-81633892D01*
X79565136Y-81486453D01*
X79565137Y-81486451D01*
X79567430Y-81481811D01*
X79611088Y-81338116D01*
X79630865Y-81273023D01*
X79630865Y-81273021D01*
X79632370Y-81268069D01*
X79661529Y-81046590D01*
X79661611Y-81043240D01*
X79663074Y-80983365D01*
X79663074Y-80983361D01*
X79663156Y-80980000D01*
X79644852Y-80757361D01*
X79590431Y-80540702D01*
X79501354Y-80335840D01*
X79423502Y-80215499D01*
X79382822Y-80152617D01*
X79382820Y-80152614D01*
X79380014Y-80148277D01*
X79229670Y-79983051D01*
X79225619Y-79979852D01*
X79225615Y-79979848D01*
X79058414Y-79847800D01*
X79058410Y-79847798D01*
X79054359Y-79844598D01*
X79013053Y-79821796D01*
X78963084Y-79771364D01*
X78948312Y-79701921D01*
X78973428Y-79635516D01*
X79000780Y-79608909D01*
X79063694Y-79564033D01*
X79179860Y-79481173D01*
X79192303Y-79468774D01*
X79316017Y-79345491D01*
X79338096Y-79323489D01*
X79342579Y-79317251D01*
X79465435Y-79146277D01*
X79468453Y-79142077D01*
X79478857Y-79121027D01*
X79565136Y-78946453D01*
X79565137Y-78946451D01*
X79567430Y-78941811D01*
X79624560Y-78753774D01*
X79630865Y-78733023D01*
X79630865Y-78733021D01*
X79632370Y-78728069D01*
X79661529Y-78506590D01*
X79661802Y-78495411D01*
X79662676Y-78459654D01*
X79684336Y-78392042D01*
X79739111Y-78346874D01*
X79809611Y-78338490D01*
X79877733Y-78373637D01*
G37*
%TD.AperFunction*%
%TA.AperFunction,Conductor*%
G36*
X108209110Y-84191002D02*
G01*
X108255603Y-84244658D01*
X108266989Y-84297000D01*
X108266989Y-84553000D01*
X108246987Y-84621121D01*
X108193331Y-84667614D01*
X108140989Y-84679000D01*
X107939411Y-84679000D01*
X107871290Y-84658998D01*
X107865350Y-84654936D01*
X107839038Y-84635819D01*
X107839037Y-84635818D01*
X107833696Y-84631938D01*
X107827668Y-84629254D01*
X107827666Y-84629253D01*
X107665263Y-84556947D01*
X107665262Y-84556947D01*
X107659232Y-84554262D01*
X107550010Y-84531046D01*
X107478888Y-84515928D01*
X107478883Y-84515928D01*
X107472431Y-84514556D01*
X107281457Y-84514556D01*
X107275005Y-84515928D01*
X107275000Y-84515928D01*
X107203878Y-84531046D01*
X107094656Y-84554262D01*
X107088626Y-84556947D01*
X107088625Y-84556947D01*
X106926222Y-84629253D01*
X106926220Y-84629254D01*
X106920192Y-84631938D01*
X106914851Y-84635818D01*
X106914850Y-84635819D01*
X106888538Y-84654936D01*
X106821670Y-84678795D01*
X106814477Y-84679000D01*
X106623783Y-84679000D01*
X106555662Y-84658998D01*
X106537529Y-84644849D01*
X106530620Y-84638361D01*
X106524841Y-84632934D01*
X106517895Y-84629115D01*
X106517892Y-84629113D01*
X106507086Y-84623172D01*
X106490567Y-84612321D01*
X106480827Y-84604766D01*
X106480826Y-84604765D01*
X106474561Y-84599906D01*
X106469958Y-84597914D01*
X106422389Y-84546970D01*
X106408980Y-84490407D01*
X106408980Y-84297000D01*
X106428982Y-84228879D01*
X106482638Y-84182386D01*
X106534980Y-84171000D01*
X108140989Y-84171000D01*
X108209110Y-84191002D01*
G37*
%TD.AperFunction*%
%TA.AperFunction,Conductor*%
G36*
X120121121Y-71028982D02*
G01*
X120167614Y-71082638D01*
X120179000Y-71134980D01*
X120179000Y-71166502D01*
X120181938Y-71203831D01*
X120228355Y-71363601D01*
X120232392Y-71370427D01*
X120309009Y-71499980D01*
X120309011Y-71499983D01*
X120313047Y-71506807D01*
X120430693Y-71624453D01*
X120437513Y-71628487D01*
X120443596Y-71633205D01*
X120485161Y-71690762D01*
X120489010Y-71761655D01*
X120455462Y-71821857D01*
X119860158Y-72417161D01*
X119797846Y-72451187D01*
X119725602Y-72445579D01*
X119666758Y-72422815D01*
X119666757Y-72422815D01*
X119662609Y-72421210D01*
X119658284Y-72420207D01*
X119658279Y-72420206D01*
X119552748Y-72395746D01*
X119399318Y-72360182D01*
X119130054Y-72336861D01*
X119125619Y-72337105D01*
X119125615Y-72337105D01*
X118864634Y-72351468D01*
X118864627Y-72351469D01*
X118860191Y-72351713D01*
X118758844Y-72371872D01*
X118599484Y-72403570D01*
X118599479Y-72403571D01*
X118595112Y-72404440D01*
X118590909Y-72405916D01*
X118344315Y-72492513D01*
X118344312Y-72492514D01*
X118340107Y-72493991D01*
X118336154Y-72496044D01*
X118336148Y-72496047D01*
X118292488Y-72518727D01*
X118100264Y-72618580D01*
X118096649Y-72621163D01*
X118096643Y-72621167D01*
X117883990Y-72773131D01*
X117883986Y-72773134D01*
X117880369Y-72775719D01*
X117842284Y-72812050D01*
X117688125Y-72959111D01*
X117684808Y-72962275D01*
X117566735Y-73112051D01*
X117522615Y-73168017D01*
X117517485Y-73174524D01*
X117515253Y-73178366D01*
X117515250Y-73178371D01*
X117383974Y-73404377D01*
X117383971Y-73404384D01*
X117381736Y-73408231D01*
X117380062Y-73412364D01*
X117294674Y-73623179D01*
X117280272Y-73658735D01*
X117279201Y-73663048D01*
X117279199Y-73663053D01*
X117218775Y-73906305D01*
X117215116Y-73921035D01*
X117214662Y-73925463D01*
X117214662Y-73925465D01*
X117196626Y-74101502D01*
X117187569Y-74189899D01*
X117198180Y-74459963D01*
X117246737Y-74725837D01*
X117332272Y-74982217D01*
X117355816Y-75029336D01*
X117426305Y-75170405D01*
X117453078Y-75223987D01*
X117455607Y-75227646D01*
X117596277Y-75431179D01*
X117606744Y-75446324D01*
X117685604Y-75531634D01*
X117775095Y-75628444D01*
X117790205Y-75644790D01*
X117793659Y-75647602D01*
X117793660Y-75647603D01*
X117814680Y-75664716D01*
X117999799Y-75815427D01*
X118003617Y-75817726D01*
X118003619Y-75817727D01*
X118172376Y-75919327D01*
X118231346Y-75954830D01*
X118235441Y-75956564D01*
X118235443Y-75956565D01*
X118476124Y-76058480D01*
X118476131Y-76058482D01*
X118480225Y-76060216D01*
X118532913Y-76074186D01*
X118737172Y-76128345D01*
X118737177Y-76128346D01*
X118741469Y-76129484D01*
X118745878Y-76130006D01*
X118745884Y-76130007D01*
X118869682Y-76144659D01*
X119009868Y-76161251D01*
X119280064Y-76154883D01*
X119284459Y-76154151D01*
X119284464Y-76154151D01*
X119541706Y-76111334D01*
X119612186Y-76119880D01*
X119666857Y-76165174D01*
X119688362Y-76232835D01*
X119669873Y-76301382D01*
X119649275Y-76324014D01*
X119650626Y-76325365D01*
X119631715Y-76344276D01*
X119555214Y-76446351D01*
X119546676Y-76461946D01*
X119501522Y-76582394D01*
X119497895Y-76597649D01*
X119492369Y-76648514D01*
X119492000Y-76655328D01*
X119492000Y-77027885D01*
X119496475Y-77043124D01*
X119497865Y-77044329D01*
X119505548Y-77046000D01*
X120177885Y-77046000D01*
X120193124Y-77041525D01*
X120194329Y-77040135D01*
X120196000Y-77032452D01*
X120196000Y-77027885D01*
X120704000Y-77027885D01*
X120708475Y-77043124D01*
X120709865Y-77044329D01*
X120717548Y-77046000D01*
X121389884Y-77046000D01*
X121405123Y-77041525D01*
X121406328Y-77040135D01*
X121407999Y-77032452D01*
X121407999Y-76655331D01*
X121407629Y-76648510D01*
X121402105Y-76597648D01*
X121398479Y-76582396D01*
X121353324Y-76461946D01*
X121344786Y-76446351D01*
X121268285Y-76344276D01*
X121255724Y-76331715D01*
X121153649Y-76255214D01*
X121138054Y-76246676D01*
X121017606Y-76201522D01*
X121002351Y-76197895D01*
X120951486Y-76192369D01*
X120944672Y-76192000D01*
X120722115Y-76192000D01*
X120706876Y-76196475D01*
X120705671Y-76197865D01*
X120704000Y-76205548D01*
X120704000Y-77027885D01*
X120196000Y-77027885D01*
X120196000Y-76210116D01*
X120191525Y-76194877D01*
X120190135Y-76193672D01*
X120182452Y-76192001D01*
X120018407Y-76192001D01*
X119950286Y-76171999D01*
X119903793Y-76118343D01*
X119893689Y-76048069D01*
X119923183Y-75983489D01*
X119963865Y-75952418D01*
X120043979Y-75913948D01*
X120043980Y-75913947D01*
X120047998Y-75912018D01*
X120262314Y-75768817D01*
X120269013Y-75764341D01*
X120269017Y-75764338D01*
X120272721Y-75761863D01*
X120276038Y-75758892D01*
X120276042Y-75758889D01*
X120470729Y-75584512D01*
X120474045Y-75581542D01*
X120647953Y-75374654D01*
X120651983Y-75368193D01*
X120788614Y-75149111D01*
X120788615Y-75149109D01*
X120790975Y-75145325D01*
X120818285Y-75083552D01*
X120864123Y-75029336D01*
X120933525Y-75008500D01*
X123467510Y-75008500D01*
X123535631Y-75028502D01*
X123580222Y-75078180D01*
X123608787Y-75135346D01*
X123626305Y-75170405D01*
X123653078Y-75223987D01*
X123655607Y-75227646D01*
X123796277Y-75431179D01*
X123806744Y-75446324D01*
X123990205Y-75644790D01*
X123993659Y-75647602D01*
X124070669Y-75710298D01*
X124110868Y-75768817D01*
X124113048Y-75839780D01*
X124080214Y-75897105D01*
X123822724Y-76154595D01*
X123760412Y-76188621D01*
X123733629Y-76191500D01*
X123251866Y-76191500D01*
X123248469Y-76191869D01*
X123247263Y-76192000D01*
X123189684Y-76198255D01*
X123053295Y-76249385D01*
X122936739Y-76336739D01*
X122849385Y-76453295D01*
X122798255Y-76589684D01*
X122791500Y-76651866D01*
X122791500Y-77948134D01*
X122798255Y-78010316D01*
X122849385Y-78146705D01*
X122936739Y-78263261D01*
X123053295Y-78350615D01*
X123189684Y-78401745D01*
X123251866Y-78408500D01*
X124248134Y-78408500D01*
X124310316Y-78401745D01*
X124446705Y-78350615D01*
X124563261Y-78263261D01*
X124650615Y-78146705D01*
X124701745Y-78010316D01*
X124708500Y-77948134D01*
X124708500Y-77466371D01*
X124728502Y-77398250D01*
X124745405Y-77377276D01*
X125788911Y-76333770D01*
X125803323Y-76321384D01*
X125814918Y-76312851D01*
X125814923Y-76312846D01*
X125820818Y-76308508D01*
X125825557Y-76302930D01*
X125825560Y-76302927D01*
X125855035Y-76268232D01*
X125861965Y-76260716D01*
X125867660Y-76255021D01*
X125874613Y-76246233D01*
X125885281Y-76232749D01*
X125888072Y-76229345D01*
X125930591Y-76179297D01*
X125930592Y-76179295D01*
X125935333Y-76173715D01*
X125938661Y-76167199D01*
X125942028Y-76162150D01*
X125945195Y-76157021D01*
X125949734Y-76151284D01*
X125980655Y-76085125D01*
X125982563Y-76081221D01*
X125991466Y-76063787D01*
X126040261Y-76012216D01*
X126049139Y-76007509D01*
X126160469Y-75954049D01*
X126230535Y-75942592D01*
X126295672Y-75970835D01*
X126335200Y-76029810D01*
X126341011Y-76067632D01*
X126341011Y-77986269D01*
X126321009Y-78054390D01*
X126304106Y-78075364D01*
X125147311Y-79232158D01*
X124011089Y-80368380D01*
X123996677Y-80380766D01*
X123985082Y-80389299D01*
X123985077Y-80389304D01*
X123979182Y-80393642D01*
X123974443Y-80399220D01*
X123974440Y-80399223D01*
X123944965Y-80433918D01*
X123938035Y-80441434D01*
X123932340Y-80447129D01*
X123930060Y-80450011D01*
X123914719Y-80469401D01*
X123911928Y-80472805D01*
X123870609Y-80521441D01*
X123864667Y-80528435D01*
X123861339Y-80534951D01*
X123857972Y-80540000D01*
X123854805Y-80545129D01*
X123850266Y-80550866D01*
X123819345Y-80617025D01*
X123817442Y-80620919D01*
X123784231Y-80685958D01*
X123782492Y-80693066D01*
X123780393Y-80698709D01*
X123778476Y-80704472D01*
X123775378Y-80711100D01*
X123773888Y-80718262D01*
X123773888Y-80718263D01*
X123760514Y-80782562D01*
X123759544Y-80786846D01*
X123742192Y-80857760D01*
X123741844Y-80863362D01*
X123741844Y-80863365D01*
X123741650Y-80866500D01*
X123741500Y-80868914D01*
X123741464Y-80868912D01*
X123741225Y-80872905D01*
X123740851Y-80877097D01*
X123739360Y-80884265D01*
X123740801Y-80937531D01*
X123741454Y-80961671D01*
X123741500Y-80965078D01*
X123741500Y-83301362D01*
X123721498Y-83369483D01*
X123667842Y-83415976D01*
X123645554Y-83423190D01*
X123644938Y-83423247D01*
X123617183Y-83431945D01*
X123488550Y-83472256D01*
X123488548Y-83472257D01*
X123481301Y-83474528D01*
X123334619Y-83563361D01*
X123213361Y-83684619D01*
X123209424Y-83691120D01*
X123200551Y-83705771D01*
X123148154Y-83753678D01*
X123092775Y-83766500D01*
X122932225Y-83766500D01*
X122864104Y-83746498D01*
X122824449Y-83705771D01*
X122815576Y-83691120D01*
X122811639Y-83684619D01*
X122690381Y-83563361D01*
X122543699Y-83474528D01*
X122536452Y-83472257D01*
X122536450Y-83472256D01*
X122427971Y-83438261D01*
X122380062Y-83423247D01*
X122306635Y-83416500D01*
X122303737Y-83416500D01*
X122049335Y-83416501D01*
X121793366Y-83416501D01*
X121790508Y-83416764D01*
X121790499Y-83416764D01*
X121754996Y-83420026D01*
X121719938Y-83423247D01*
X121621809Y-83453999D01*
X121550826Y-83455284D01*
X121490415Y-83417987D01*
X121459758Y-83353950D01*
X121463897Y-83296086D01*
X121474752Y-83261446D01*
X121476753Y-83255062D01*
X121483500Y-83181635D01*
X121483499Y-82668366D01*
X121483040Y-82663361D01*
X121477364Y-82601592D01*
X121476753Y-82594938D01*
X121460827Y-82544118D01*
X121427744Y-82438550D01*
X121427743Y-82438548D01*
X121425472Y-82431301D01*
X121336639Y-82284619D01*
X121241115Y-82189095D01*
X121207089Y-82126783D01*
X121212154Y-82055968D01*
X121241115Y-82010905D01*
X121336639Y-81915381D01*
X121425472Y-81768699D01*
X121433268Y-81743824D01*
X121462171Y-81651592D01*
X121476753Y-81605062D01*
X121483500Y-81531635D01*
X121483499Y-81018366D01*
X121483234Y-81015474D01*
X121479326Y-80972947D01*
X121476753Y-80944938D01*
X121473010Y-80932994D01*
X121427744Y-80788550D01*
X121427743Y-80788548D01*
X121425472Y-80781301D01*
X121336639Y-80634619D01*
X121215381Y-80513361D01*
X121068699Y-80424528D01*
X121061452Y-80422257D01*
X121061450Y-80422256D01*
X120970142Y-80393642D01*
X120905062Y-80373247D01*
X120831635Y-80366500D01*
X120404513Y-80366500D01*
X120404511Y-80366501D01*
X120168366Y-80366501D01*
X120165508Y-80366764D01*
X120165499Y-80366764D01*
X120129996Y-80370026D01*
X120094938Y-80373247D01*
X120088560Y-80375246D01*
X120088559Y-80375246D01*
X119938550Y-80422256D01*
X119938548Y-80422257D01*
X119931301Y-80424528D01*
X119784619Y-80513361D01*
X119663361Y-80634619D01*
X119574528Y-80781301D01*
X119572257Y-80788548D01*
X119572256Y-80788550D01*
X119560507Y-80826041D01*
X119523247Y-80944938D01*
X119516500Y-81018365D01*
X119516501Y-81531634D01*
X119516764Y-81534492D01*
X119516764Y-81534501D01*
X119519096Y-81559877D01*
X119523247Y-81605062D01*
X119525246Y-81611440D01*
X119525246Y-81611441D01*
X119544487Y-81672839D01*
X119545771Y-81743824D01*
X119508474Y-81804234D01*
X119444437Y-81834891D01*
X119388025Y-81830387D01*
X119388010Y-81830458D01*
X119387470Y-81830342D01*
X119384589Y-81830112D01*
X119374757Y-81826851D01*
X119367920Y-81826151D01*
X119367918Y-81826150D01*
X119326599Y-81821917D01*
X119273732Y-81816500D01*
X118726268Y-81816500D01*
X118723022Y-81816837D01*
X118723018Y-81816837D01*
X118693730Y-81819876D01*
X118623981Y-81827113D01*
X118615963Y-81829788D01*
X118468676Y-81878927D01*
X118468674Y-81878928D01*
X118461732Y-81881244D01*
X118455508Y-81885096D01*
X118455507Y-81885096D01*
X118336164Y-81958948D01*
X118316287Y-81971248D01*
X118311114Y-81976430D01*
X118305377Y-81980977D01*
X118303945Y-81979170D01*
X118251425Y-82007902D01*
X118180605Y-82002892D01*
X118144147Y-81979501D01*
X118143317Y-81980552D01*
X118126160Y-81967002D01*
X117993120Y-81884996D01*
X117979939Y-81878849D01*
X117831186Y-81829509D01*
X117817810Y-81826642D01*
X117726903Y-81817328D01*
X117721874Y-81817071D01*
X117706876Y-81821475D01*
X117705671Y-81822865D01*
X117704000Y-81830548D01*
X117704000Y-83764885D01*
X117708475Y-83780124D01*
X117709865Y-83781329D01*
X117717548Y-83783000D01*
X117720438Y-83783000D01*
X117726953Y-83782663D01*
X117819057Y-83773106D01*
X117832456Y-83770212D01*
X117981107Y-83720619D01*
X117994286Y-83714445D01*
X118127173Y-83632212D01*
X118144311Y-83618629D01*
X118145841Y-83620559D01*
X118197880Y-83592097D01*
X118268699Y-83597113D01*
X118305617Y-83620799D01*
X118306372Y-83619843D01*
X118312118Y-83624381D01*
X118317298Y-83629552D01*
X118323528Y-83633392D01*
X118323529Y-83633393D01*
X118455020Y-83714445D01*
X118462899Y-83719302D01*
X118625243Y-83773149D01*
X118632080Y-83773849D01*
X118632082Y-83773850D01*
X118673401Y-83778083D01*
X118726268Y-83783500D01*
X119273732Y-83783500D01*
X119276978Y-83783163D01*
X119276982Y-83783163D01*
X119335077Y-83777135D01*
X119376019Y-83772887D01*
X119376106Y-83773730D01*
X119441270Y-83778488D01*
X119498042Y-83821120D01*
X119522753Y-83887677D01*
X119517295Y-83934155D01*
X119498247Y-83994938D01*
X119491500Y-84068365D01*
X119491500Y-84345782D01*
X119490810Y-84358947D01*
X119486496Y-84400000D01*
X119484323Y-84399772D01*
X119467184Y-84458141D01*
X119413528Y-84504634D01*
X119361186Y-84516020D01*
X116929247Y-84516020D01*
X116918064Y-84515493D01*
X116910571Y-84513818D01*
X116902645Y-84514067D01*
X116902644Y-84514067D01*
X116842494Y-84515958D01*
X116838535Y-84516020D01*
X116810624Y-84516020D01*
X116806690Y-84516517D01*
X116806689Y-84516517D01*
X116806624Y-84516525D01*
X116794787Y-84517458D01*
X116762970Y-84518458D01*
X116758509Y-84518598D01*
X116750590Y-84518847D01*
X116732934Y-84523976D01*
X116731138Y-84524498D01*
X116711786Y-84528506D01*
X116704715Y-84529400D01*
X116691683Y-84531046D01*
X116684314Y-84533963D01*
X116684312Y-84533964D01*
X116650577Y-84547320D01*
X116639349Y-84551165D01*
X116596887Y-84563502D01*
X116590065Y-84567537D01*
X116585396Y-84569557D01*
X116514935Y-84578254D01*
X116450956Y-84547477D01*
X116413774Y-84486995D01*
X116410045Y-84467090D01*
X116394232Y-84316635D01*
X116394232Y-84316633D01*
X116393542Y-84310072D01*
X116334527Y-84128444D01*
X116318371Y-84100460D01*
X116242341Y-83968774D01*
X116239040Y-83963056D01*
X116165863Y-83881785D01*
X116135147Y-83817779D01*
X116133500Y-83797476D01*
X116133500Y-83095438D01*
X116492000Y-83095438D01*
X116492337Y-83101953D01*
X116501894Y-83194057D01*
X116504788Y-83207456D01*
X116554381Y-83356107D01*
X116560555Y-83369286D01*
X116642788Y-83502173D01*
X116651824Y-83513574D01*
X116762429Y-83623986D01*
X116773840Y-83632998D01*
X116906880Y-83715004D01*
X116920061Y-83721151D01*
X117068814Y-83770491D01*
X117082190Y-83773358D01*
X117173097Y-83782672D01*
X117178126Y-83782929D01*
X117193124Y-83778525D01*
X117194329Y-83777135D01*
X117196000Y-83769452D01*
X117196000Y-83072115D01*
X117191525Y-83056876D01*
X117190135Y-83055671D01*
X117182452Y-83054000D01*
X116510115Y-83054000D01*
X116494876Y-83058475D01*
X116493671Y-83059865D01*
X116492000Y-83067548D01*
X116492000Y-83095438D01*
X116133500Y-83095438D01*
X116133500Y-82702524D01*
X116153502Y-82634403D01*
X116165858Y-82618221D01*
X116239040Y-82536944D01*
X116261366Y-82498274D01*
X116312748Y-82449281D01*
X116382462Y-82435845D01*
X116448373Y-82462231D01*
X116491381Y-82525776D01*
X116496475Y-82543124D01*
X116497865Y-82544329D01*
X116505548Y-82546000D01*
X117177885Y-82546000D01*
X117193124Y-82541525D01*
X117194329Y-82540135D01*
X117196000Y-82532452D01*
X117196000Y-81833210D01*
X117216002Y-81765089D01*
X117232905Y-81744115D01*
X117261639Y-81715381D01*
X117350472Y-81568699D01*
X117355049Y-81554096D01*
X117379897Y-81474804D01*
X117401753Y-81405062D01*
X117408500Y-81331635D01*
X117408499Y-80668366D01*
X117408062Y-80663601D01*
X117402930Y-80607747D01*
X117401753Y-80594938D01*
X117385117Y-80541852D01*
X117352744Y-80438550D01*
X117352743Y-80438548D01*
X117350472Y-80431301D01*
X117273458Y-80304134D01*
X117255279Y-80235505D01*
X117277090Y-80167942D01*
X117331965Y-80122896D01*
X117346080Y-80117867D01*
X117352373Y-80116039D01*
X117376101Y-80109145D01*
X117404911Y-80092107D01*
X117512480Y-80028491D01*
X117512483Y-80028489D01*
X117519307Y-80024453D01*
X117636953Y-79906807D01*
X117640989Y-79899983D01*
X117640991Y-79899980D01*
X117717608Y-79770427D01*
X117721645Y-79763601D01*
X117729479Y-79736638D01*
X117754570Y-79650271D01*
X117768062Y-79603831D01*
X117771000Y-79566502D01*
X117771000Y-79334500D01*
X117791002Y-79266379D01*
X117844658Y-79219886D01*
X117897000Y-79208500D01*
X117955506Y-79208500D01*
X118006755Y-79219393D01*
X118103378Y-79262412D01*
X118117712Y-79268794D01*
X118193955Y-79285000D01*
X118298056Y-79307128D01*
X118298061Y-79307128D01*
X118304513Y-79308500D01*
X118495487Y-79308500D01*
X118501939Y-79307128D01*
X118501944Y-79307128D01*
X118606045Y-79285000D01*
X118682288Y-79268794D01*
X118696623Y-79262412D01*
X118793245Y-79219393D01*
X118844494Y-79208500D01*
X119054002Y-79208500D01*
X119056450Y-79208307D01*
X119056458Y-79208307D01*
X119084921Y-79206067D01*
X119084926Y-79206066D01*
X119091331Y-79205562D01*
X119200110Y-79173959D01*
X119243488Y-79161357D01*
X119243490Y-79161356D01*
X119251101Y-79159145D01*
X119279961Y-79142077D01*
X119387480Y-79078491D01*
X119387483Y-79078489D01*
X119394307Y-79074453D01*
X119511953Y-78956807D01*
X119515989Y-78949983D01*
X119515991Y-78949980D01*
X119592608Y-78820427D01*
X119596645Y-78813601D01*
X119607564Y-78776019D01*
X119634336Y-78683865D01*
X119643062Y-78653831D01*
X119644522Y-78635290D01*
X119645807Y-78618958D01*
X119645807Y-78618950D01*
X119646000Y-78616502D01*
X119646000Y-78491656D01*
X119666002Y-78423535D01*
X119719658Y-78377042D01*
X119789932Y-78366938D01*
X119816230Y-78373674D01*
X119882395Y-78398478D01*
X119897649Y-78402105D01*
X119948514Y-78407631D01*
X119955328Y-78408000D01*
X120177885Y-78408000D01*
X120193124Y-78403525D01*
X120194329Y-78402135D01*
X120196000Y-78394452D01*
X120196000Y-78389884D01*
X120704000Y-78389884D01*
X120708475Y-78405123D01*
X120709865Y-78406328D01*
X120717548Y-78407999D01*
X120944669Y-78407999D01*
X120951490Y-78407629D01*
X121002352Y-78402105D01*
X121017604Y-78398479D01*
X121138054Y-78353324D01*
X121153649Y-78344786D01*
X121255724Y-78268285D01*
X121268285Y-78255724D01*
X121344786Y-78153649D01*
X121353324Y-78138054D01*
X121398478Y-78017606D01*
X121402105Y-78002351D01*
X121407631Y-77951486D01*
X121408000Y-77944672D01*
X121408000Y-77572115D01*
X121403525Y-77556876D01*
X121402135Y-77555671D01*
X121394452Y-77554000D01*
X120722115Y-77554000D01*
X120706876Y-77558475D01*
X120705671Y-77559865D01*
X120704000Y-77567548D01*
X120704000Y-78389884D01*
X120196000Y-78389884D01*
X120196000Y-77572115D01*
X120191525Y-77556876D01*
X120190135Y-77555671D01*
X120182452Y-77554000D01*
X119510116Y-77554000D01*
X119494877Y-77558475D01*
X119493672Y-77559865D01*
X119489122Y-77580783D01*
X119486761Y-77580269D01*
X119471999Y-77630543D01*
X119418343Y-77677036D01*
X119348069Y-77687140D01*
X119301862Y-77670875D01*
X119257927Y-77644892D01*
X119257928Y-77644892D01*
X119251101Y-77640855D01*
X119243490Y-77638644D01*
X119243488Y-77638643D01*
X119178924Y-77619886D01*
X119091331Y-77594438D01*
X119084926Y-77593934D01*
X119084921Y-77593933D01*
X119056458Y-77591693D01*
X119056450Y-77591693D01*
X119054002Y-77591500D01*
X118844494Y-77591500D01*
X118793245Y-77580607D01*
X118688319Y-77533891D01*
X118688318Y-77533891D01*
X118682288Y-77531206D01*
X118588887Y-77511353D01*
X118501944Y-77492872D01*
X118501939Y-77492872D01*
X118495487Y-77491500D01*
X118304513Y-77491500D01*
X118298061Y-77492872D01*
X118298056Y-77492872D01*
X118211113Y-77511353D01*
X118117712Y-77531206D01*
X118111682Y-77533891D01*
X118111681Y-77533891D01*
X118006755Y-77580607D01*
X117955506Y-77591500D01*
X117745998Y-77591500D01*
X117743550Y-77591693D01*
X117743542Y-77591693D01*
X117715079Y-77593933D01*
X117715074Y-77593934D01*
X117708669Y-77594438D01*
X117621076Y-77619886D01*
X117556512Y-77638643D01*
X117556510Y-77638644D01*
X117548899Y-77640855D01*
X117542072Y-77644892D01*
X117542073Y-77644892D01*
X117471797Y-77686453D01*
X117407658Y-77704000D01*
X115350525Y-77704000D01*
X115282404Y-77683998D01*
X115243914Y-77639578D01*
X115233635Y-77630671D01*
X115225952Y-77629000D01*
X113635116Y-77629000D01*
X113619877Y-77633475D01*
X113618672Y-77634865D01*
X113617709Y-77639294D01*
X113623132Y-77698315D01*
X113625743Y-77711351D01*
X113672715Y-77861243D01*
X113678921Y-77874988D01*
X113759824Y-78008574D01*
X113769131Y-78020443D01*
X113859239Y-78110551D01*
X113893265Y-78172863D01*
X113888200Y-78243678D01*
X113859239Y-78288741D01*
X113763361Y-78384619D01*
X113674528Y-78531301D01*
X113642509Y-78633475D01*
X113641940Y-78635290D01*
X113602483Y-78694312D01*
X113537379Y-78722632D01*
X113467299Y-78711259D01*
X113432611Y-78686706D01*
X111852491Y-77106586D01*
X113618087Y-77106586D01*
X113621475Y-77118124D01*
X113622865Y-77119329D01*
X113630548Y-77121000D01*
X114327885Y-77121000D01*
X114343124Y-77116525D01*
X114344329Y-77115135D01*
X114346000Y-77107452D01*
X114346000Y-77102885D01*
X114854000Y-77102885D01*
X114858475Y-77118124D01*
X114859865Y-77119329D01*
X114867548Y-77121000D01*
X115511975Y-77121000D01*
X115580096Y-77141002D01*
X115618586Y-77185422D01*
X115628865Y-77194329D01*
X115636548Y-77196000D01*
X116252885Y-77196000D01*
X116268124Y-77191525D01*
X116269329Y-77190135D01*
X116271000Y-77182452D01*
X116271000Y-77177885D01*
X116779000Y-77177885D01*
X116783475Y-77193124D01*
X116784865Y-77194329D01*
X116792548Y-77196000D01*
X117749378Y-77196000D01*
X117762909Y-77192027D01*
X117764044Y-77184129D01*
X117723393Y-77044210D01*
X117717148Y-77029779D01*
X117640589Y-76900322D01*
X117630949Y-76887896D01*
X117524604Y-76781551D01*
X117512178Y-76771911D01*
X117382721Y-76695352D01*
X117368290Y-76689107D01*
X117222435Y-76646731D01*
X117209833Y-76644430D01*
X117181416Y-76642193D01*
X117176486Y-76642000D01*
X116797115Y-76642000D01*
X116781876Y-76646475D01*
X116780671Y-76647865D01*
X116779000Y-76655548D01*
X116779000Y-77177885D01*
X116271000Y-77177885D01*
X116271000Y-76660116D01*
X116266525Y-76644877D01*
X116265135Y-76643672D01*
X116257452Y-76642001D01*
X115873517Y-76642001D01*
X115868580Y-76642195D01*
X115840164Y-76644430D01*
X115827569Y-76646730D01*
X115681710Y-76689107D01*
X115667275Y-76695354D01*
X115581353Y-76746167D01*
X115512537Y-76763626D01*
X115445206Y-76741109D01*
X115428120Y-76726808D01*
X115320443Y-76619131D01*
X115308574Y-76609824D01*
X115174988Y-76528921D01*
X115161243Y-76522715D01*
X115011356Y-76475744D01*
X114998306Y-76473131D01*
X114934479Y-76467266D01*
X114928691Y-76467000D01*
X114872115Y-76467000D01*
X114856876Y-76471475D01*
X114855671Y-76472865D01*
X114854000Y-76480548D01*
X114854000Y-77102885D01*
X114346000Y-77102885D01*
X114346000Y-76485116D01*
X114341525Y-76469877D01*
X114340135Y-76468672D01*
X114332452Y-76467001D01*
X114271295Y-76467001D01*
X114265546Y-76467264D01*
X114201685Y-76473132D01*
X114188649Y-76475743D01*
X114038757Y-76522715D01*
X114025012Y-76528921D01*
X113891426Y-76609824D01*
X113879557Y-76619131D01*
X113769131Y-76729557D01*
X113759824Y-76741426D01*
X113678921Y-76875012D01*
X113672715Y-76888757D01*
X113625744Y-77038644D01*
X113623131Y-77051694D01*
X113618087Y-77106586D01*
X111852491Y-77106586D01*
X108853652Y-74107747D01*
X108846112Y-74099461D01*
X108842000Y-74092982D01*
X108792348Y-74046356D01*
X108789507Y-74043602D01*
X108769770Y-74023865D01*
X108766573Y-74021385D01*
X108757551Y-74013680D01*
X108731100Y-73988841D01*
X108725321Y-73983414D01*
X108718375Y-73979595D01*
X108718372Y-73979593D01*
X108707566Y-73973652D01*
X108691047Y-73962801D01*
X108690513Y-73962387D01*
X108675041Y-73950386D01*
X108667772Y-73947241D01*
X108667768Y-73947238D01*
X108634463Y-73932826D01*
X108623813Y-73927609D01*
X108585060Y-73906305D01*
X108565437Y-73901267D01*
X108546734Y-73894863D01*
X108535420Y-73889967D01*
X108535419Y-73889967D01*
X108528145Y-73886819D01*
X108520322Y-73885580D01*
X108520312Y-73885577D01*
X108484476Y-73879901D01*
X108472856Y-73877495D01*
X108437711Y-73868472D01*
X108437710Y-73868472D01*
X108430030Y-73866500D01*
X108409776Y-73866500D01*
X108390065Y-73864949D01*
X108377886Y-73863020D01*
X108370057Y-73861780D01*
X108362165Y-73862526D01*
X108326039Y-73865941D01*
X108314181Y-73866500D01*
X96859500Y-73866500D01*
X96791379Y-73846498D01*
X96744886Y-73792842D01*
X96733500Y-73740500D01*
X96733499Y-73371249D01*
X96733499Y-73368366D01*
X96733234Y-73365474D01*
X96727364Y-73301592D01*
X96726753Y-73294938D01*
X96702743Y-73218323D01*
X96677744Y-73138550D01*
X96677743Y-73138548D01*
X96675472Y-73131301D01*
X96586639Y-72984619D01*
X96465381Y-72863361D01*
X96318699Y-72774528D01*
X96311452Y-72772257D01*
X96311450Y-72772256D01*
X96245164Y-72751483D01*
X96155062Y-72723247D01*
X96081635Y-72716500D01*
X95654513Y-72716500D01*
X95654511Y-72716501D01*
X95418366Y-72716501D01*
X95415508Y-72716764D01*
X95415499Y-72716764D01*
X95379996Y-72720026D01*
X95344938Y-72723247D01*
X95338560Y-72725246D01*
X95338559Y-72725246D01*
X95188550Y-72772256D01*
X95188548Y-72772257D01*
X95181301Y-72774528D01*
X95034619Y-72863361D01*
X94913361Y-72984619D01*
X94824528Y-73131301D01*
X94822257Y-73138548D01*
X94822256Y-73138550D01*
X94811055Y-73174293D01*
X94773247Y-73294938D01*
X94766500Y-73368365D01*
X94766501Y-73571687D01*
X94766501Y-73740500D01*
X94746499Y-73808620D01*
X94692844Y-73855113D01*
X94640501Y-73866500D01*
X94288814Y-73866500D01*
X94220693Y-73846498D01*
X94174200Y-73792842D01*
X94164850Y-73749859D01*
X94163504Y-73750000D01*
X94144232Y-73566635D01*
X94144232Y-73566633D01*
X94143542Y-73560072D01*
X94084527Y-73378444D01*
X94078709Y-73368366D01*
X94036315Y-73294938D01*
X93989040Y-73213056D01*
X93972882Y-73195110D01*
X93865675Y-73076045D01*
X93865674Y-73076044D01*
X93861253Y-73071134D01*
X93751124Y-72991120D01*
X93712094Y-72962763D01*
X93712093Y-72962762D01*
X93706752Y-72958882D01*
X93700724Y-72956198D01*
X93700722Y-72956197D01*
X93538319Y-72883891D01*
X93538318Y-72883891D01*
X93532288Y-72881206D01*
X93438887Y-72861353D01*
X93351944Y-72842872D01*
X93351939Y-72842872D01*
X93345487Y-72841500D01*
X93154513Y-72841500D01*
X93148061Y-72842872D01*
X93148056Y-72842872D01*
X93061113Y-72861353D01*
X92967712Y-72881206D01*
X92961682Y-72883891D01*
X92961681Y-72883891D01*
X92799278Y-72956197D01*
X92799276Y-72956198D01*
X92793248Y-72958882D01*
X92787907Y-72962762D01*
X92787906Y-72962763D01*
X92748876Y-72991120D01*
X92638747Y-73071134D01*
X92634332Y-73076037D01*
X92629420Y-73080460D01*
X92628295Y-73079211D01*
X92574986Y-73112051D01*
X92541800Y-73116500D01*
X91846880Y-73116500D01*
X91835696Y-73115973D01*
X91828208Y-73114299D01*
X91820285Y-73114548D01*
X91760150Y-73116438D01*
X91756192Y-73116500D01*
X91728261Y-73116500D01*
X91724346Y-73116995D01*
X91724342Y-73116995D01*
X91724284Y-73117003D01*
X91724255Y-73117006D01*
X91712413Y-73117939D01*
X91668227Y-73119327D01*
X91650861Y-73124372D01*
X91648775Y-73124978D01*
X91629423Y-73128986D01*
X91617185Y-73130532D01*
X91617183Y-73130533D01*
X91609320Y-73131526D01*
X91568203Y-73147806D01*
X91557002Y-73151641D01*
X91514523Y-73163982D01*
X91507704Y-73168015D01*
X91507699Y-73168017D01*
X91497088Y-73174293D01*
X91479338Y-73182990D01*
X91460500Y-73190448D01*
X91454084Y-73195109D01*
X91454083Y-73195110D01*
X91424742Y-73216428D01*
X91414818Y-73222947D01*
X91383577Y-73241422D01*
X91383572Y-73241426D01*
X91376754Y-73245458D01*
X91362430Y-73259782D01*
X91347398Y-73272621D01*
X91331010Y-73284528D01*
X91302829Y-73318593D01*
X91294839Y-73327373D01*
X90922026Y-73700186D01*
X90859714Y-73734212D01*
X90788899Y-73729147D01*
X90732063Y-73686600D01*
X90714719Y-73654701D01*
X90703090Y-73623179D01*
X90698278Y-73552346D01*
X90732207Y-73490474D01*
X93176796Y-71045885D01*
X93239108Y-71011859D01*
X93265891Y-71008980D01*
X120053000Y-71008980D01*
X120121121Y-71028982D01*
G37*
%TD.AperFunction*%
%TA.AperFunction,Conductor*%
G36*
X114232965Y-82681483D02*
G01*
X114260102Y-82702102D01*
X114329595Y-82771595D01*
X114363621Y-82833907D01*
X114366500Y-82860690D01*
X114366500Y-83497547D01*
X114346498Y-83565668D01*
X114292842Y-83612161D01*
X114266698Y-83620794D01*
X114217712Y-83631206D01*
X114211682Y-83633891D01*
X114211681Y-83633891D01*
X114049278Y-83706197D01*
X114049276Y-83706198D01*
X114043248Y-83708882D01*
X114037907Y-83712762D01*
X114037906Y-83712763D01*
X114026361Y-83721151D01*
X113888747Y-83821134D01*
X113884326Y-83826044D01*
X113884325Y-83826045D01*
X113853136Y-83860684D01*
X113792690Y-83897924D01*
X113721706Y-83896572D01*
X113662722Y-83857059D01*
X113634464Y-83791928D01*
X113633500Y-83776374D01*
X113633500Y-83002453D01*
X113653502Y-82934332D01*
X113707158Y-82887839D01*
X113733302Y-82879206D01*
X113782288Y-82868794D01*
X113800490Y-82860690D01*
X113950722Y-82793803D01*
X113950724Y-82793802D01*
X113956752Y-82791118D01*
X113965697Y-82784619D01*
X114096946Y-82689261D01*
X114163814Y-82665402D01*
X114232965Y-82681483D01*
G37*
%TD.AperFunction*%
%TA.AperFunction,Conductor*%
G36*
X112741518Y-81266002D02*
G01*
X112788011Y-81319658D01*
X112798115Y-81389932D01*
X112768824Y-81452487D01*
X112769261Y-81452805D01*
X112767612Y-81455075D01*
X112767034Y-81456309D01*
X112765384Y-81458142D01*
X112765382Y-81458145D01*
X112760960Y-81463056D01*
X112757658Y-81468775D01*
X112757656Y-81468778D01*
X112678907Y-81605175D01*
X112665473Y-81628444D01*
X112606458Y-81810072D01*
X112605767Y-81816645D01*
X112605650Y-81817196D01*
X112571922Y-81879669D01*
X112514368Y-81911453D01*
X112514498Y-81911896D01*
X112512509Y-81912480D01*
X112509773Y-81913991D01*
X112505921Y-81914415D01*
X112481876Y-81921475D01*
X112480671Y-81922865D01*
X112479000Y-81930548D01*
X112479000Y-82094931D01*
X112458998Y-82163052D01*
X112456451Y-82166654D01*
X112455242Y-82168699D01*
X112450386Y-82174959D01*
X112447241Y-82182228D01*
X112447238Y-82182232D01*
X112432826Y-82215537D01*
X112427609Y-82226187D01*
X112406305Y-82264940D01*
X112404334Y-82272615D01*
X112404334Y-82272616D01*
X112401267Y-82284562D01*
X112394863Y-82303266D01*
X112386819Y-82321855D01*
X112385580Y-82329678D01*
X112385577Y-82329688D01*
X112379901Y-82365524D01*
X112377495Y-82377144D01*
X112371889Y-82398981D01*
X112366500Y-82419970D01*
X112366500Y-82440224D01*
X112364949Y-82459934D01*
X112361780Y-82479943D01*
X112365874Y-82523247D01*
X112365941Y-82523961D01*
X112366500Y-82535819D01*
X112366500Y-83003000D01*
X112346498Y-83071121D01*
X112292842Y-83117614D01*
X112240500Y-83129000D01*
X112097000Y-83129000D01*
X112028879Y-83108998D01*
X111982386Y-83055342D01*
X111971000Y-83003000D01*
X111971000Y-81935115D01*
X111966525Y-81919876D01*
X111965135Y-81918671D01*
X111957452Y-81917000D01*
X111929562Y-81917000D01*
X111923047Y-81917337D01*
X111830943Y-81926894D01*
X111817541Y-81929789D01*
X111686875Y-81973381D01*
X111615926Y-81975965D01*
X111554842Y-81939781D01*
X111523018Y-81876316D01*
X111521000Y-81853857D01*
X111521000Y-81372000D01*
X111541002Y-81303879D01*
X111594658Y-81257386D01*
X111647000Y-81246000D01*
X112673397Y-81246000D01*
X112741518Y-81266002D01*
G37*
%TD.AperFunction*%
%TA.AperFunction,Conductor*%
G36*
X107733132Y-76778982D02*
G01*
X107779625Y-76832638D01*
X107791011Y-76884980D01*
X107791011Y-79339885D01*
X107795486Y-79355124D01*
X107796876Y-79356329D01*
X107804559Y-79358000D01*
X107807449Y-79358000D01*
X107813964Y-79357663D01*
X107906068Y-79348106D01*
X107919467Y-79345212D01*
X108068118Y-79295619D01*
X108081297Y-79289445D01*
X108214184Y-79207212D01*
X108231322Y-79193629D01*
X108232852Y-79195559D01*
X108284891Y-79167097D01*
X108355710Y-79172113D01*
X108392629Y-79195799D01*
X108393384Y-79194844D01*
X108399130Y-79199382D01*
X108404309Y-79204552D01*
X108406681Y-79206014D01*
X108446666Y-79262412D01*
X108453511Y-79303376D01*
X108453511Y-81498394D01*
X108433509Y-81566515D01*
X108416606Y-81587489D01*
X108124500Y-81879595D01*
X108062188Y-81913621D01*
X108035405Y-81916500D01*
X107726268Y-81916500D01*
X107723022Y-81916837D01*
X107723018Y-81916837D01*
X107693730Y-81919876D01*
X107623981Y-81927113D01*
X107617440Y-81929295D01*
X107617441Y-81929295D01*
X107468676Y-81978927D01*
X107468674Y-81978928D01*
X107461732Y-81981244D01*
X107455508Y-81985096D01*
X107455507Y-81985096D01*
X107341398Y-82055709D01*
X107272946Y-82074547D01*
X107208979Y-82055825D01*
X107093331Y-81984538D01*
X107093329Y-81984537D01*
X107087101Y-81980698D01*
X106924757Y-81926851D01*
X106917920Y-81926151D01*
X106917918Y-81926150D01*
X106876599Y-81921917D01*
X106823732Y-81916500D01*
X106226268Y-81916500D01*
X106223022Y-81916837D01*
X106223018Y-81916837D01*
X106193730Y-81919876D01*
X106123981Y-81927113D01*
X106117440Y-81929295D01*
X106117441Y-81929295D01*
X105968676Y-81978927D01*
X105968674Y-81978928D01*
X105961732Y-81981244D01*
X105955508Y-81985096D01*
X105955507Y-81985096D01*
X105841398Y-82055709D01*
X105816287Y-82071248D01*
X105811114Y-82076430D01*
X105811109Y-82076434D01*
X105802986Y-82084571D01*
X105740704Y-82118650D01*
X105669884Y-82113647D01*
X105613011Y-82071149D01*
X105588143Y-82004650D01*
X105588110Y-82003746D01*
X105588504Y-82000000D01*
X105584189Y-81958947D01*
X105583499Y-81945777D01*
X105583499Y-81718366D01*
X105582985Y-81712763D01*
X105577364Y-81651592D01*
X105576753Y-81644938D01*
X105564257Y-81605062D01*
X105527744Y-81488550D01*
X105527743Y-81488548D01*
X105525472Y-81481301D01*
X105455202Y-81365270D01*
X105437023Y-81296642D01*
X105455202Y-81234729D01*
X105462582Y-81222544D01*
X105525472Y-81118699D01*
X105531175Y-81100503D01*
X105562337Y-81001064D01*
X105576753Y-80955062D01*
X105583500Y-80881635D01*
X105583499Y-80218366D01*
X105581182Y-80193140D01*
X105578723Y-80166379D01*
X105576753Y-80144938D01*
X105526330Y-79984039D01*
X105525045Y-79913056D01*
X105552927Y-79862052D01*
X105589040Y-79821944D01*
X105595895Y-79810072D01*
X105681223Y-79662279D01*
X105681224Y-79662278D01*
X105684527Y-79656556D01*
X105743542Y-79474928D01*
X105747056Y-79441500D01*
X105762814Y-79291565D01*
X105763504Y-79285000D01*
X105761547Y-79266379D01*
X105744232Y-79101635D01*
X105744232Y-79101633D01*
X105743542Y-79095072D01*
X105684527Y-78913444D01*
X105677358Y-78901026D01*
X105638462Y-78833658D01*
X105589040Y-78748056D01*
X105541213Y-78694938D01*
X105519153Y-78670438D01*
X106579011Y-78670438D01*
X106579348Y-78676953D01*
X106588905Y-78769057D01*
X106591799Y-78782456D01*
X106641392Y-78931107D01*
X106647566Y-78944286D01*
X106729799Y-79077173D01*
X106738835Y-79088574D01*
X106849440Y-79198986D01*
X106860851Y-79207998D01*
X106993891Y-79290004D01*
X107007072Y-79296151D01*
X107155825Y-79345491D01*
X107169201Y-79348358D01*
X107260108Y-79357672D01*
X107265137Y-79357929D01*
X107280135Y-79353525D01*
X107281340Y-79352135D01*
X107283011Y-79344452D01*
X107283011Y-78647115D01*
X107278536Y-78631876D01*
X107277146Y-78630671D01*
X107269463Y-78629000D01*
X106597126Y-78629000D01*
X106581887Y-78633475D01*
X106580682Y-78634865D01*
X106579011Y-78642548D01*
X106579011Y-78670438D01*
X105519153Y-78670438D01*
X105465675Y-78611045D01*
X105465674Y-78611044D01*
X105461253Y-78606134D01*
X105342823Y-78520089D01*
X105312094Y-78497763D01*
X105312093Y-78497762D01*
X105306752Y-78493882D01*
X105300724Y-78491198D01*
X105300722Y-78491197D01*
X105213772Y-78452485D01*
X105132288Y-78416206D01*
X105132574Y-78415563D01*
X105078042Y-78378278D01*
X105050402Y-78312882D01*
X105062505Y-78242925D01*
X105086485Y-78209419D01*
X105193019Y-78102885D01*
X106579011Y-78102885D01*
X106583486Y-78118124D01*
X106584876Y-78119329D01*
X106592559Y-78121000D01*
X107264896Y-78121000D01*
X107280135Y-78116525D01*
X107281340Y-78115135D01*
X107283011Y-78107452D01*
X107283011Y-77147115D01*
X107278536Y-77131876D01*
X107277146Y-77130671D01*
X107269463Y-77129000D01*
X106597126Y-77129000D01*
X106581887Y-77133475D01*
X106580682Y-77134865D01*
X106579011Y-77142548D01*
X106579011Y-77170438D01*
X106579348Y-77176953D01*
X106588905Y-77269057D01*
X106591799Y-77282456D01*
X106641392Y-77431107D01*
X106647566Y-77444285D01*
X106718307Y-77558602D01*
X106737145Y-77627054D01*
X106718423Y-77691021D01*
X106647007Y-77806880D01*
X106640860Y-77820061D01*
X106591520Y-77968814D01*
X106588653Y-77982190D01*
X106579339Y-78073097D01*
X106579011Y-78079514D01*
X106579011Y-78102885D01*
X105193019Y-78102885D01*
X105300499Y-77995405D01*
X105362811Y-77961379D01*
X105389594Y-77958500D01*
X105445487Y-77958500D01*
X105451939Y-77957128D01*
X105451944Y-77957128D01*
X105544152Y-77937528D01*
X105632288Y-77918794D01*
X105643096Y-77913982D01*
X105800722Y-77843803D01*
X105800724Y-77843802D01*
X105806752Y-77841118D01*
X105820771Y-77830933D01*
X105884882Y-77784353D01*
X105961253Y-77728866D01*
X105981664Y-77706197D01*
X106084621Y-77591852D01*
X106084622Y-77591851D01*
X106089040Y-77586944D01*
X106168354Y-77449568D01*
X106181223Y-77427279D01*
X106181224Y-77427278D01*
X106184527Y-77421556D01*
X106243542Y-77239928D01*
X106248776Y-77190135D01*
X106262814Y-77056565D01*
X106263504Y-77050000D01*
X106247544Y-76898150D01*
X106260316Y-76828312D01*
X106308818Y-76776465D01*
X106372854Y-76758980D01*
X107665011Y-76758980D01*
X107733132Y-76778982D01*
G37*
%TD.AperFunction*%
%TA.AperFunction,Conductor*%
G36*
X122450179Y-69028002D02*
G01*
X122496672Y-69081658D01*
X122506776Y-69151932D01*
X122477282Y-69216512D01*
X122446197Y-69242453D01*
X122312520Y-69321509D01*
X122312517Y-69321511D01*
X122305693Y-69325547D01*
X122188047Y-69443193D01*
X122187103Y-69444790D01*
X122131736Y-69484774D01*
X122089735Y-69491980D01*
X92966583Y-69491980D01*
X92947634Y-69490547D01*
X92947427Y-69490516D01*
X92926171Y-69487282D01*
X92918879Y-69487875D01*
X92918876Y-69487875D01*
X92873511Y-69491565D01*
X92863297Y-69491980D01*
X92855227Y-69491980D01*
X92851607Y-69492402D01*
X92851589Y-69492403D01*
X92826981Y-69495272D01*
X92822620Y-69495704D01*
X92797501Y-69497747D01*
X92757181Y-69501026D01*
X92757178Y-69501027D01*
X92749883Y-69501620D01*
X92742919Y-69503876D01*
X92736960Y-69505067D01*
X92731105Y-69506451D01*
X92723839Y-69507298D01*
X92655193Y-69532215D01*
X92651065Y-69533632D01*
X92588584Y-69553873D01*
X92588582Y-69553874D01*
X92581621Y-69556129D01*
X92575366Y-69559925D01*
X92569892Y-69562431D01*
X92564462Y-69565150D01*
X92557583Y-69567647D01*
X92496536Y-69607671D01*
X92492847Y-69609998D01*
X92472655Y-69622251D01*
X92435213Y-69644971D01*
X92435208Y-69644975D01*
X92430412Y-69647885D01*
X92422036Y-69655283D01*
X92422013Y-69655257D01*
X92419023Y-69657906D01*
X92415784Y-69660614D01*
X92409668Y-69664624D01*
X92404641Y-69669931D01*
X92404637Y-69669934D01*
X92356392Y-69720863D01*
X92354014Y-69723305D01*
X89660158Y-72417161D01*
X89597846Y-72451187D01*
X89525602Y-72445579D01*
X89466758Y-72422815D01*
X89466757Y-72422815D01*
X89462609Y-72421210D01*
X89458284Y-72420207D01*
X89458279Y-72420206D01*
X89352748Y-72395746D01*
X89199318Y-72360182D01*
X88930054Y-72336861D01*
X88925619Y-72337105D01*
X88925615Y-72337105D01*
X88664634Y-72351468D01*
X88664627Y-72351469D01*
X88660191Y-72351713D01*
X88558844Y-72371872D01*
X88399484Y-72403570D01*
X88399479Y-72403571D01*
X88395112Y-72404440D01*
X88390909Y-72405916D01*
X88144315Y-72492513D01*
X88144312Y-72492514D01*
X88140107Y-72493991D01*
X88136154Y-72496044D01*
X88136148Y-72496047D01*
X88092488Y-72518727D01*
X87900264Y-72618580D01*
X87896649Y-72621163D01*
X87896643Y-72621167D01*
X87683990Y-72773131D01*
X87683986Y-72773134D01*
X87680369Y-72775719D01*
X87642284Y-72812050D01*
X87488125Y-72959111D01*
X87484808Y-72962275D01*
X87366735Y-73112051D01*
X87322615Y-73168017D01*
X87317485Y-73174524D01*
X87315253Y-73178366D01*
X87315250Y-73178371D01*
X87183974Y-73404377D01*
X87183971Y-73404384D01*
X87181736Y-73408231D01*
X87179887Y-73412795D01*
X87179792Y-73412916D01*
X87178105Y-73416359D01*
X87177354Y-73415991D01*
X87135781Y-73468425D01*
X87063101Y-73491500D01*
X84534625Y-73491500D01*
X84466504Y-73471498D01*
X84423737Y-73425332D01*
X84418896Y-73416359D01*
X84315516Y-73224762D01*
X84154942Y-73007362D01*
X84132554Y-72984619D01*
X84029402Y-72879834D01*
X83965338Y-72814756D01*
X83851662Y-72728001D01*
X83754028Y-72653489D01*
X83754024Y-72653487D01*
X83750487Y-72650787D01*
X83514675Y-72518727D01*
X83262609Y-72421210D01*
X83258284Y-72420207D01*
X83258279Y-72420206D01*
X83152748Y-72395746D01*
X82999318Y-72360182D01*
X82730054Y-72336861D01*
X82725619Y-72337105D01*
X82725615Y-72337105D01*
X82464634Y-72351468D01*
X82464627Y-72351469D01*
X82460191Y-72351713D01*
X82358844Y-72371872D01*
X82199484Y-72403570D01*
X82199479Y-72403571D01*
X82195112Y-72404440D01*
X82190909Y-72405916D01*
X81944315Y-72492513D01*
X81944312Y-72492514D01*
X81940107Y-72493991D01*
X81936154Y-72496044D01*
X81936148Y-72496047D01*
X81892488Y-72518727D01*
X81700264Y-72618580D01*
X81696649Y-72621163D01*
X81696643Y-72621167D01*
X81483990Y-72773131D01*
X81483986Y-72773134D01*
X81480369Y-72775719D01*
X81442284Y-72812050D01*
X81288125Y-72959111D01*
X81284808Y-72962275D01*
X81166735Y-73112051D01*
X81122615Y-73168017D01*
X81117485Y-73174524D01*
X81115253Y-73178366D01*
X81115250Y-73178371D01*
X80983974Y-73404377D01*
X80983971Y-73404384D01*
X80981736Y-73408231D01*
X80980062Y-73412364D01*
X80894674Y-73623179D01*
X80880272Y-73658735D01*
X80879201Y-73663048D01*
X80879199Y-73663053D01*
X80818775Y-73906305D01*
X80815116Y-73921035D01*
X80814662Y-73925463D01*
X80814662Y-73925465D01*
X80796626Y-74101502D01*
X80787569Y-74189899D01*
X80798180Y-74459963D01*
X80846737Y-74725837D01*
X80932272Y-74982217D01*
X80955816Y-75029336D01*
X81026305Y-75170405D01*
X81053078Y-75223987D01*
X81055607Y-75227646D01*
X81196277Y-75431179D01*
X81206744Y-75446324D01*
X81285604Y-75531634D01*
X81375095Y-75628444D01*
X81390205Y-75644790D01*
X81393659Y-75647602D01*
X81393660Y-75647603D01*
X81414680Y-75664716D01*
X81599799Y-75815427D01*
X81603617Y-75817726D01*
X81603619Y-75817727D01*
X81772376Y-75919327D01*
X81831346Y-75954830D01*
X81835448Y-75956567D01*
X81989630Y-76021854D01*
X82044560Y-76066835D01*
X82066500Y-76137881D01*
X82066500Y-77563722D01*
X82046498Y-77631843D01*
X81992842Y-77678336D01*
X81922568Y-77688440D01*
X81889253Y-77678829D01*
X81829328Y-77652149D01*
X81788319Y-77633891D01*
X81788318Y-77633891D01*
X81782288Y-77631206D01*
X81688888Y-77611353D01*
X81601944Y-77592872D01*
X81601939Y-77592872D01*
X81595487Y-77591500D01*
X81404513Y-77591500D01*
X81398061Y-77592872D01*
X81398056Y-77592872D01*
X81311112Y-77611353D01*
X81217712Y-77631206D01*
X81211682Y-77633891D01*
X81211681Y-77633891D01*
X81201008Y-77638643D01*
X81095744Y-77685509D01*
X81025379Y-77694943D01*
X80961082Y-77664837D01*
X80955402Y-77659497D01*
X79695405Y-76399500D01*
X79661379Y-76337188D01*
X79658500Y-76310405D01*
X79658500Y-75001866D01*
X79651745Y-74939684D01*
X79600615Y-74803295D01*
X79513261Y-74686739D01*
X79396705Y-74599385D01*
X79260316Y-74548255D01*
X79198134Y-74541500D01*
X77401866Y-74541500D01*
X77339684Y-74548255D01*
X77292414Y-74565976D01*
X77211699Y-74596234D01*
X77211696Y-74596236D01*
X77203295Y-74599385D01*
X77196112Y-74604768D01*
X77194509Y-74605646D01*
X77125152Y-74620815D01*
X77058604Y-74596079D01*
X77015994Y-74539291D01*
X77008000Y-74495126D01*
X77008000Y-74052235D01*
X77028002Y-73984114D01*
X77081658Y-73937621D01*
X77151932Y-73927517D01*
X77202624Y-73946562D01*
X77220431Y-73958126D01*
X77228118Y-73962387D01*
X77474647Y-74077345D01*
X77482857Y-74080496D01*
X77742977Y-74160022D01*
X77751547Y-74162001D01*
X77928106Y-74189966D01*
X77941789Y-74188198D01*
X77945862Y-74174685D01*
X78454000Y-74174685D01*
X78457886Y-74187921D01*
X78472345Y-74189894D01*
X78648453Y-74162001D01*
X78657023Y-74160022D01*
X78917143Y-74080496D01*
X78925353Y-74077345D01*
X79171882Y-73962387D01*
X79179572Y-73958124D01*
X79407700Y-73809976D01*
X79414719Y-73804686D01*
X79620024Y-73626217D01*
X79626217Y-73620024D01*
X79804686Y-73414719D01*
X79809976Y-73407700D01*
X79958124Y-73179572D01*
X79962387Y-73171882D01*
X80077345Y-72925353D01*
X80080496Y-72917143D01*
X80160022Y-72657023D01*
X80162001Y-72648453D01*
X80204685Y-72378956D01*
X80205399Y-72371872D01*
X80207940Y-72313669D01*
X80208000Y-72310917D01*
X80208000Y-71472115D01*
X80203525Y-71456876D01*
X80202135Y-71455671D01*
X80194452Y-71454000D01*
X78472115Y-71454000D01*
X78456876Y-71458475D01*
X78455671Y-71459865D01*
X78454000Y-71467548D01*
X78454000Y-74174685D01*
X77945862Y-74174685D01*
X77946000Y-74174226D01*
X77946000Y-71072000D01*
X77966002Y-71003879D01*
X78019658Y-70957386D01*
X78072000Y-70946000D01*
X80189884Y-70946000D01*
X80205123Y-70941525D01*
X80206328Y-70940135D01*
X80207999Y-70932452D01*
X80207999Y-70089086D01*
X80207939Y-70086328D01*
X80205399Y-70028145D01*
X80204683Y-70021028D01*
X80162001Y-69751547D01*
X80160022Y-69742977D01*
X80080496Y-69482857D01*
X80077345Y-69474647D01*
X79962387Y-69228118D01*
X79958126Y-69220431D01*
X79946562Y-69202624D01*
X79926236Y-69134599D01*
X79945915Y-69066384D01*
X79999349Y-69019636D01*
X80052235Y-69008000D01*
X122382058Y-69008000D01*
X122450179Y-69028002D01*
G37*
%TD.AperFunction*%
%TA.AperFunction,Conductor*%
G36*
X123496121Y-71666002D02*
G01*
X123542614Y-71719658D01*
X123554000Y-71772000D01*
X123554000Y-72689884D01*
X123558475Y-72705123D01*
X123559865Y-72706328D01*
X123567548Y-72707999D01*
X123836733Y-72707999D01*
X123904854Y-72728001D01*
X123951347Y-72781657D01*
X123961451Y-72851931D01*
X123931957Y-72916511D01*
X123923705Y-72925169D01*
X123884808Y-72962275D01*
X123766735Y-73112051D01*
X123722615Y-73168017D01*
X123717485Y-73174524D01*
X123715253Y-73178366D01*
X123715250Y-73178371D01*
X123583974Y-73404377D01*
X123583971Y-73404384D01*
X123581736Y-73408231D01*
X123579887Y-73412795D01*
X123579792Y-73412916D01*
X123578105Y-73416359D01*
X123577354Y-73415991D01*
X123535781Y-73468425D01*
X123463101Y-73491500D01*
X121235371Y-73491500D01*
X121167250Y-73471498D01*
X121120757Y-73417842D01*
X121110653Y-73347568D01*
X121140147Y-73282988D01*
X121146276Y-73276405D01*
X121913911Y-72508770D01*
X121928323Y-72496384D01*
X121939918Y-72487851D01*
X121939923Y-72487846D01*
X121945818Y-72483508D01*
X121950557Y-72477930D01*
X121950560Y-72477927D01*
X121980035Y-72443232D01*
X121986965Y-72435716D01*
X121991002Y-72431679D01*
X122053314Y-72397653D01*
X122124129Y-72402718D01*
X122179654Y-72443544D01*
X122194054Y-72462107D01*
X122300396Y-72568449D01*
X122312822Y-72578089D01*
X122442279Y-72654648D01*
X122456710Y-72660893D01*
X122602565Y-72703269D01*
X122615167Y-72705570D01*
X122643584Y-72707807D01*
X122648514Y-72708000D01*
X123027885Y-72708000D01*
X123043124Y-72703525D01*
X123044329Y-72702135D01*
X123046000Y-72694452D01*
X123046000Y-71772000D01*
X123066002Y-71703879D01*
X123119658Y-71657386D01*
X123172000Y-71646000D01*
X123428000Y-71646000D01*
X123496121Y-71666002D01*
G37*
%TD.AperFunction*%
%TD*%
M02*
