%TF.GenerationSoftware,KiCad,Pcbnew,6.0.2-1.fc35*%
%TF.CreationDate,2022-05-07T18:41:24+02:00*%
%TF.ProjectId,LEDnode,4c45446e-6f64-4652-9e6b-696361645f70,rev?*%
%TF.SameCoordinates,Original*%
%TF.FileFunction,Paste,Top*%
%TF.FilePolarity,Positive*%
%FSLAX46Y46*%
G04 Gerber Fmt 4.6, Leading zero omitted, Abs format (unit mm)*
G04 Created by KiCad (PCBNEW 6.0.2-1.fc35) date 2022-05-07 18:41:24*
%MOMM*%
%LPD*%
G01*
G04 APERTURE LIST*
G04 Aperture macros list*
%AMRoundRect*
0 Rectangle with rounded corners*
0 $1 Rounding radius*
0 $2 $3 $4 $5 $6 $7 $8 $9 X,Y pos of 4 corners*
0 Add a 4 corners polygon primitive as box body*
4,1,4,$2,$3,$4,$5,$6,$7,$8,$9,$2,$3,0*
0 Add four circle primitives for the rounded corners*
1,1,$1+$1,$2,$3*
1,1,$1+$1,$4,$5*
1,1,$1+$1,$6,$7*
1,1,$1+$1,$8,$9*
0 Add four rect primitives between the rounded corners*
20,1,$1+$1,$2,$3,$4,$5,0*
20,1,$1+$1,$4,$5,$6,$7,0*
20,1,$1+$1,$6,$7,$8,$9,0*
20,1,$1+$1,$8,$9,$2,$3,0*%
G04 Aperture macros list end*
%ADD10RoundRect,0.250000X1.250000X0.550000X-1.250000X0.550000X-1.250000X-0.550000X1.250000X-0.550000X0*%
%ADD11R,2.500000X3.500000*%
%ADD12R,1.500000X2.000000*%
%ADD13R,2.000000X2.000000*%
%ADD14R,1.500000X2.500000*%
%ADD15RoundRect,0.218750X0.256250X-0.218750X0.256250X0.218750X-0.256250X0.218750X-0.256250X-0.218750X0*%
%ADD16R,0.350000X0.500000*%
G04 APERTURE END LIST*
D10*
%TO.C,C22*%
X102400000Y-101550000D03*
X98000000Y-101550000D03*
%TD*%
%TO.C,C21*%
X110300000Y-101550000D03*
X105900000Y-101550000D03*
%TD*%
D11*
%TO.C,SW1*%
X116250000Y-89000000D03*
X129750000Y-89000000D03*
D12*
X125500000Y-81000000D03*
X120500000Y-81000000D03*
X123000000Y-81000000D03*
D13*
X125500000Y-97000000D03*
X120500000Y-97000000D03*
%TD*%
D10*
%TO.C,C5*%
X126100000Y-101570000D03*
X121700000Y-101570000D03*
%TD*%
%TO.C,C2*%
X118200000Y-101570000D03*
X113800000Y-101570000D03*
%TD*%
D14*
%TO.C,U2*%
X92150000Y-90715000D03*
X94690000Y-90715000D03*
X97230000Y-90715000D03*
X99770000Y-90715000D03*
X102310000Y-90715000D03*
X104850000Y-90715000D03*
X104850000Y-79285000D03*
X102310000Y-79285000D03*
X99770000Y-79285000D03*
X97230000Y-79285000D03*
X94690000Y-79285000D03*
X92150000Y-79285000D03*
%TD*%
D15*
%TO.C,D3*%
X81100000Y-83475000D03*
X81100000Y-81900000D03*
%TD*%
D16*
%TO.C,U5*%
X107337011Y-76650000D03*
X107987011Y-76650000D03*
X108637011Y-76650000D03*
X109287011Y-76650000D03*
X109287011Y-78700000D03*
X108637011Y-78700000D03*
X107987011Y-78700000D03*
X107337011Y-78700000D03*
%TD*%
D15*
%TO.C,D2*%
X81100000Y-86575000D03*
X81100000Y-85000000D03*
%TD*%
M02*
