%TF.GenerationSoftware,KiCad,Pcbnew,6.0.2-1.fc35*%
%TF.CreationDate,2022-05-31T23:37:53+02:00*%
%TF.ProjectId,LEDnode,4c45446e-6f64-4652-9e6b-696361645f70,rev?*%
%TF.SameCoordinates,Original*%
%TF.FileFunction,Copper,L1,Top*%
%TF.FilePolarity,Positive*%
%FSLAX46Y46*%
G04 Gerber Fmt 4.6, Leading zero omitted, Abs format (unit mm)*
G04 Created by KiCad (PCBNEW 6.0.2-1.fc35) date 2022-05-31 23:37:53*
%MOMM*%
%LPD*%
G01*
G04 APERTURE LIST*
G04 Aperture macros list*
%AMRoundRect*
0 Rectangle with rounded corners*
0 $1 Rounding radius*
0 $2 $3 $4 $5 $6 $7 $8 $9 X,Y pos of 4 corners*
0 Add a 4 corners polygon primitive as box body*
4,1,4,$2,$3,$4,$5,$6,$7,$8,$9,$2,$3,0*
0 Add four circle primitives for the rounded corners*
1,1,$1+$1,$2,$3*
1,1,$1+$1,$4,$5*
1,1,$1+$1,$6,$7*
1,1,$1+$1,$8,$9*
0 Add four rect primitives between the rounded corners*
20,1,$1+$1,$2,$3,$4,$5,0*
20,1,$1+$1,$4,$5,$6,$7,0*
20,1,$1+$1,$6,$7,$8,$9,0*
20,1,$1+$1,$8,$9,$2,$3,0*%
G04 Aperture macros list end*
%TA.AperFunction,ComponentPad*%
%ADD10C,2.800000*%
%TD*%
%TA.AperFunction,WasherPad*%
%ADD11C,1.100000*%
%TD*%
%TA.AperFunction,SMDPad,CuDef*%
%ADD12R,2.500000X3.500000*%
%TD*%
%TA.AperFunction,WasherPad*%
%ADD13C,1.300000*%
%TD*%
%TA.AperFunction,SMDPad,CuDef*%
%ADD14R,1.500000X2.000000*%
%TD*%
%TA.AperFunction,SMDPad,CuDef*%
%ADD15R,2.000000X2.000000*%
%TD*%
%TA.AperFunction,ComponentPad*%
%ADD16RoundRect,1.500000X0.000000X-1.000000X0.000000X-1.000000X0.000000X1.000000X0.000000X1.000000X0*%
%TD*%
%TA.AperFunction,SMDPad,CuDef*%
%ADD17RoundRect,0.250000X1.250000X0.550000X-1.250000X0.550000X-1.250000X-0.550000X1.250000X-0.550000X0*%
%TD*%
%TA.AperFunction,ComponentPad*%
%ADD18C,1.524000*%
%TD*%
%TA.AperFunction,ComponentPad*%
%ADD19C,1.700000*%
%TD*%
%TA.AperFunction,ComponentPad*%
%ADD20C,2.000000*%
%TD*%
%TA.AperFunction,ComponentPad*%
%ADD21R,1.700000X1.700000*%
%TD*%
%TA.AperFunction,ComponentPad*%
%ADD22O,1.700000X1.700000*%
%TD*%
%TA.AperFunction,SMDPad,CuDef*%
%ADD23R,1.500000X2.500000*%
%TD*%
%TA.AperFunction,ComponentPad*%
%ADD24C,1.000000*%
%TD*%
%TA.AperFunction,ComponentPad*%
%ADD25R,1.000000X1.000000*%
%TD*%
%TA.AperFunction,ComponentPad*%
%ADD26O,1.000000X1.000000*%
%TD*%
%TA.AperFunction,SMDPad,CuDef*%
%ADD27RoundRect,0.218750X0.256250X-0.218750X0.256250X0.218750X-0.256250X0.218750X-0.256250X-0.218750X0*%
%TD*%
%TA.AperFunction,SMDPad,CuDef*%
%ADD28R,0.350000X0.500000*%
%TD*%
%TA.AperFunction,ViaPad*%
%ADD29C,0.800000*%
%TD*%
%TA.AperFunction,Conductor*%
%ADD30C,0.500000*%
%TD*%
%TA.AperFunction,Conductor*%
%ADD31C,0.250000*%
%TD*%
G04 APERTURE END LIST*
D10*
%TO.P,J1,1,Pin_1*%
%TO.N,/INPUT*%
X82700000Y-74250000D03*
X88900000Y-74250000D03*
%TO.P,J1,2,Pin_2*%
%TO.N,Net-(D1-Pad1)*%
X119100000Y-74250000D03*
X125300000Y-74250000D03*
%TD*%
D11*
%TO.P,SW1,*%
%TO.N,*%
X120500000Y-89000000D03*
D12*
X116250000Y-89000000D03*
D13*
X125000000Y-89000000D03*
D12*
X129750000Y-89000000D03*
D14*
%TO.P,SW1,A,A*%
%TO.N,Net-(R10-Pad2)*%
X125500000Y-81000000D03*
%TO.P,SW1,B,B*%
%TO.N,Net-(R11-Pad2)*%
X120500000Y-81000000D03*
%TO.P,SW1,C,C*%
%TO.N,Net-(Q6-Pad3)*%
X123000000Y-81000000D03*
D15*
%TO.P,SW1,S1,S1*%
%TO.N,Net-(R14-Pad1)*%
X125500000Y-97000000D03*
%TO.P,SW1,S2,S2*%
%TO.N,GND*%
X120500000Y-97000000D03*
%TD*%
D16*
%TO.P,H4,1,1*%
%TO.N,GND*%
X78200000Y-71200000D03*
%TD*%
D17*
%TO.P,C5,1*%
%TO.N,+3V3*%
X126100000Y-101570000D03*
%TO.P,C5,2*%
%TO.N,GND*%
X121700000Y-101570000D03*
%TD*%
D18*
%TO.P,C21,1*%
%TO.N,+3V3*%
X81382500Y-102000000D03*
%TO.P,C21,2*%
%TO.N,GND*%
X91882500Y-102000000D03*
%TD*%
D16*
%TO.P,H3,1,1*%
%TO.N,GND*%
X129800000Y-102300000D03*
%TD*%
D19*
%TO.P,SW2,1,A*%
%TO.N,GND*%
X104300000Y-95300000D03*
%TO.P,SW2,2,B*%
%TO.N,Net-(R2-Pad1)*%
X101100000Y-95300000D03*
%TO.P,SW2,3,C*%
%TO.N,unconnected-(SW2-Pad3)*%
X97900000Y-95300000D03*
%TD*%
D17*
%TO.P,C2,1*%
%TO.N,/INPUT*%
X118200000Y-101570000D03*
%TO.P,C2,2*%
%TO.N,GND*%
X113800000Y-101570000D03*
%TD*%
D20*
%TO.P,SW3,1,A*%
%TO.N,GND*%
X114900000Y-97100000D03*
X108400000Y-97100000D03*
%TO.P,SW3,2,B*%
%TO.N,Net-(R6-Pad1)*%
X114900000Y-92600000D03*
X108400000Y-92600000D03*
%TD*%
D16*
%TO.P,H1,1,1*%
%TO.N,GND*%
X129800000Y-71200000D03*
%TD*%
D21*
%TO.P,J4,1,Pin_1*%
%TO.N,/Tx*%
X78300000Y-75900000D03*
D22*
%TO.P,J4,2,Pin_2*%
%TO.N,/Rx*%
X78300000Y-78440000D03*
%TO.P,J4,3,Pin_3*%
%TO.N,/SDA*%
X78300000Y-80980000D03*
%TO.P,J4,4,Pin_4*%
%TO.N,/SCL*%
X78300000Y-83520000D03*
%TO.P,J4,5,Pin_5*%
%TO.N,/ADC*%
X78300000Y-86060000D03*
%TO.P,J4,6,Pin_6*%
%TO.N,/DISP_B*%
X78300000Y-88600000D03*
%TO.P,J4,7,Pin_7*%
%TO.N,+3V3*%
X78300000Y-91140000D03*
%TO.P,J4,8,Pin_8*%
%TO.N,GND*%
X78300000Y-93680000D03*
%TD*%
D23*
%TO.P,U2,1,e*%
%TO.N,Net-(R22-Pad2)*%
X92150000Y-90715000D03*
%TO.P,U2,2,d*%
%TO.N,Net-(R21-Pad2)*%
X94690000Y-90715000D03*
%TO.P,U2,3,DPX*%
%TO.N,Net-(R25-Pad2)*%
X97230000Y-90715000D03*
%TO.P,U2,4,c*%
%TO.N,Net-(R20-Pad2)*%
X99770000Y-90715000D03*
%TO.P,U2,5,g*%
%TO.N,Net-(R24-Pad2)*%
X102310000Y-90715000D03*
%TO.P,U2,6,CC4*%
%TO.N,Net-(Q4-Pad3)*%
X104850000Y-90715000D03*
%TO.P,U2,7,b*%
%TO.N,Net-(R19-Pad2)*%
X104850000Y-79285000D03*
%TO.P,U2,8,CC3*%
%TO.N,Net-(Q3-Pad3)*%
X102310000Y-79285000D03*
%TO.P,U2,9,CC2*%
%TO.N,Net-(Q2-Pad3)*%
X99770000Y-79285000D03*
%TO.P,U2,10,f*%
%TO.N,Net-(R23-Pad2)*%
X97230000Y-79285000D03*
%TO.P,U2,11,a*%
%TO.N,Net-(R18-Pad2)*%
X94690000Y-79285000D03*
%TO.P,U2,12,CC1*%
%TO.N,Net-(Q1-Pad3)*%
X92150000Y-79285000D03*
%TD*%
D24*
%TO.P,Y1,1,1*%
%TO.N,Net-(C9-Pad1)*%
X89350000Y-93700000D03*
%TO.P,Y1,2,2*%
%TO.N,Net-(C8-Pad1)*%
X89350000Y-95600000D03*
%TD*%
D25*
%TO.P,J2,1,Pin_1*%
%TO.N,+3V3*%
X83310000Y-91750000D03*
D26*
%TO.P,J2,2,Pin_2*%
%TO.N,/SYS_SWDCLK*%
X84580000Y-91750000D03*
%TO.P,J2,3,Pin_3*%
%TO.N,GND*%
X85850000Y-91750000D03*
%TO.P,J2,4,Pin_4*%
%TO.N,/SYS_SWDIO*%
X87120000Y-91750000D03*
%TO.P,J2,5,Pin_5*%
%TO.N,/SYS_RST*%
X88390000Y-91750000D03*
%TD*%
D27*
%TO.P,D3,1,K*%
%TO.N,Net-(D3-Pad1)*%
X81100000Y-83475000D03*
%TO.P,D3,2,A*%
%TO.N,/ADC*%
X81100000Y-81900000D03*
%TD*%
D28*
%TO.P,U5,1,GND*%
%TO.N,GND*%
X107337011Y-76650000D03*
%TO.P,U5,2,CSB*%
%TO.N,+3V3*%
X107987011Y-76650000D03*
%TO.P,U5,3,SDI*%
%TO.N,/SDA*%
X108637011Y-76650000D03*
%TO.P,U5,4,SCK*%
%TO.N,/SCL*%
X109287011Y-76650000D03*
%TO.P,U5,5,SDO*%
%TO.N,+3V3*%
X109287011Y-78700000D03*
%TO.P,U5,6,VDDIO*%
X108637011Y-78700000D03*
%TO.P,U5,7,GND*%
%TO.N,GND*%
X107987011Y-78700000D03*
%TO.P,U5,8,VDD*%
%TO.N,+3V3*%
X107337011Y-78700000D03*
%TD*%
D16*
%TO.P,H2,1,1*%
%TO.N,GND*%
X78200000Y-102300000D03*
%TD*%
D27*
%TO.P,D2,1,K*%
%TO.N,Net-(D2-Pad1)*%
X81100000Y-86575000D03*
%TO.P,D2,2,A*%
%TO.N,/LED2*%
X81100000Y-85000000D03*
%TD*%
D29*
%TO.N,/INPUT*%
X116900000Y-98950000D03*
%TO.N,GND*%
X80350000Y-96750000D03*
X96150000Y-100300000D03*
X79000000Y-96500000D03*
X101700000Y-103800000D03*
X84900000Y-89200000D03*
X95150000Y-101300000D03*
X100700000Y-101800000D03*
X91825000Y-94725000D03*
X107412011Y-77475000D03*
X85700000Y-72974500D03*
X113674500Y-86000000D03*
X119500000Y-86750000D03*
X102700000Y-101800000D03*
X79651000Y-87500000D03*
X100700000Y-103800000D03*
X94150000Y-99300000D03*
X96500000Y-97825500D03*
X96150000Y-99300000D03*
X81350000Y-96750000D03*
X119250000Y-71250000D03*
X95150000Y-99300000D03*
X86850000Y-96550000D03*
X112700000Y-97750000D03*
X102700000Y-103800000D03*
X96150000Y-101300000D03*
X82350000Y-96750000D03*
X95150000Y-102300000D03*
X103700000Y-103800000D03*
X113630000Y-101500000D03*
X95150000Y-100300000D03*
X114950000Y-100950000D03*
X79651000Y-84500000D03*
X125100000Y-99400000D03*
X101700000Y-101800000D03*
X81350000Y-99750000D03*
X124000000Y-103700000D03*
X81350000Y-98750000D03*
X106050000Y-101325500D03*
X123700000Y-100250000D03*
X82650000Y-81850000D03*
X117500000Y-82750000D03*
X124200000Y-99400000D03*
X81350000Y-97750000D03*
X103700000Y-101800000D03*
X118250000Y-71250000D03*
X82350000Y-99750000D03*
X119250000Y-69250000D03*
X96150000Y-102300000D03*
X112225000Y-82875000D03*
X123500000Y-72000000D03*
X87250000Y-95750000D03*
X82350000Y-98750000D03*
X123250000Y-99400000D03*
X112250000Y-99950000D03*
X125800000Y-103700000D03*
X86800000Y-75600000D03*
X124900000Y-103700000D03*
X111850000Y-97750000D03*
X94150000Y-100300000D03*
X118250000Y-69250000D03*
X108000000Y-81000000D03*
X82350000Y-97750000D03*
X85800000Y-89200000D03*
X126700000Y-103700000D03*
X80000000Y-79500000D03*
X123100000Y-103700000D03*
X80350000Y-99750000D03*
X116300000Y-103600000D03*
X80350000Y-97750000D03*
X94150000Y-101300000D03*
X122200000Y-103700000D03*
X115450000Y-103600000D03*
X112000000Y-86000000D03*
X94150000Y-102300000D03*
X114000000Y-83000000D03*
X120250000Y-69250000D03*
X80350000Y-98750000D03*
%TO.N,+3V3*%
X89662500Y-78350000D03*
X93375000Y-94000000D03*
X120400000Y-100100000D03*
X87800000Y-78700000D03*
X96300000Y-95825000D03*
X114125000Y-89500000D03*
X109087011Y-78375000D03*
X105398056Y-97348056D03*
X109087011Y-77500000D03*
X90500000Y-94350000D03*
X108500000Y-90425000D03*
X117900000Y-100200000D03*
X102850000Y-100225980D03*
X90000000Y-91000000D03*
X105975980Y-100200500D03*
X127770000Y-97740000D03*
%TO.N,Net-(C8-Pad1)*%
X93075000Y-97200000D03*
%TO.N,Net-(C9-Pad1)*%
X93075000Y-95600000D03*
%TO.N,/ENC2*%
X118565332Y-90065332D03*
X118500000Y-93000000D03*
X120400000Y-84400000D03*
X99900000Y-96300000D03*
%TO.N,/ENC1*%
X98000000Y-88500000D03*
X125625000Y-84400000D03*
%TO.N,/MODE*%
X102800000Y-95150000D03*
X103050000Y-93300000D03*
%TO.N,Net-(D2-Pad1)*%
X81100000Y-86575000D03*
%TO.N,/SDA*%
X110000000Y-79500000D03*
X88175489Y-93325489D03*
X96550000Y-86500000D03*
X90858222Y-92972747D03*
X96300000Y-94175000D03*
%TO.N,/LED2*%
X89000000Y-84500000D03*
%TO.N,/SCL*%
X114500000Y-84500000D03*
X110500000Y-78000000D03*
X81125500Y-80441172D03*
X80327289Y-82687500D03*
X99675000Y-93600000D03*
%TO.N,Net-(D3-Pad1)*%
X81100000Y-83475000D03*
%TO.N,/ADC*%
X94500000Y-86500000D03*
X77050000Y-79900000D03*
%TO.N,/SYS_SWDCLK*%
X104200000Y-93185579D03*
X109600000Y-95550000D03*
X106250000Y-95600000D03*
X85600000Y-94600000D03*
X113950000Y-100000000D03*
X97550000Y-102700500D03*
%TO.N,/SYS_SWDIO*%
X100000000Y-87500000D03*
X90000000Y-89000000D03*
%TO.N,/Tx*%
X90550000Y-85200000D03*
X88850000Y-86500000D03*
X87150000Y-81550000D03*
%TO.N,/Rx*%
X85050000Y-85950000D03*
X91850000Y-85050000D03*
%TO.N,/DISP_0*%
X91000000Y-83000000D03*
X90000000Y-80000000D03*
%TO.N,/BUTTON1*%
X101498758Y-92511079D03*
X123500000Y-94500000D03*
%TO.N,/BUTTON2*%
X97631385Y-86074020D03*
X113500000Y-82000000D03*
%TO.N,/DISP_D*%
X104675000Y-82000000D03*
X101600000Y-83550000D03*
%TO.N,/DISP_1*%
X97000000Y-81500000D03*
X99000000Y-76000000D03*
%TO.N,Net-(Q1-Pad3)*%
X92150000Y-79285000D03*
%TO.N,/DISP_2*%
X101000000Y-81500000D03*
X102250000Y-76362500D03*
%TO.N,Net-(Q2-Pad3)*%
X99770000Y-79285000D03*
%TO.N,Net-(Q3-Pad3)*%
X102310000Y-79285000D03*
%TO.N,/DISP_A*%
X86500000Y-78500000D03*
X93250000Y-73750000D03*
X93825000Y-75800000D03*
X90500000Y-82000000D03*
%TO.N,Net-(Q4-Pad3)*%
X104850000Y-90715000D03*
%TO.N,Net-(Q6-Pad3)*%
X118400000Y-78400000D03*
%TO.N,Net-(R10-Pad2)*%
X125541408Y-81041407D03*
%TO.N,Net-(R11-Pad2)*%
X120500000Y-81275000D03*
%TO.N,Net-(R14-Pad1)*%
X125408592Y-96908592D03*
%TO.N,/DISP_C*%
X108850000Y-86650000D03*
X102600000Y-84300000D03*
X104850000Y-84100000D03*
X110500000Y-85725000D03*
X107376944Y-85423056D03*
X103800000Y-83050000D03*
%TO.N,/DISP_E*%
X96700000Y-85050000D03*
X89448114Y-88004128D03*
%TO.N,/DISP_DP*%
X99750000Y-86300000D03*
X104000000Y-86900000D03*
%TO.N,/DISP_B*%
X84250000Y-83000000D03*
X88750000Y-82800000D03*
X95950000Y-80750000D03*
X84100000Y-84850000D03*
X92300000Y-83300000D03*
%TO.N,/DISP_F*%
X95750000Y-73625000D03*
X95750000Y-77550000D03*
%TO.N,/BACKUP*%
X81550000Y-76650000D03*
X86887500Y-77100000D03*
%TO.N,Net-(R18-Pad2)*%
X92175000Y-75800000D03*
%TO.N,Net-(R19-Pad2)*%
X104850000Y-79285000D03*
%TO.N,Net-(R20-Pad2)*%
X103800000Y-99400000D03*
%TO.N,Net-(R21-Pad2)*%
X103100000Y-81750000D03*
X96051944Y-88151944D03*
X96900000Y-83850000D03*
%TO.N,Net-(R22-Pad2)*%
X87125000Y-88850000D03*
%TO.N,Net-(R23-Pad2)*%
X96600000Y-75500000D03*
%TO.N,Net-(R24-Pad2)*%
X102310000Y-90715000D03*
%TO.N,Net-(R25-Pad2)*%
X103000000Y-87650000D03*
%TD*%
D30*
%TO.N,/INPUT*%
X116900000Y-98950000D02*
X116900000Y-100390000D01*
X116860000Y-100350000D02*
X118080000Y-101570000D01*
D31*
%TO.N,GND*%
X113680000Y-101570000D02*
X113680000Y-101550000D01*
X120625480Y-102644520D02*
X121700000Y-101570000D01*
X81987980Y-81187980D02*
X82650000Y-81850000D01*
X79000000Y-96500000D02*
X78200000Y-97300000D01*
X112250000Y-99950000D02*
X113250000Y-100950000D01*
X78200000Y-97300000D02*
X78200000Y-101300000D01*
X80382503Y-80652079D02*
X80918404Y-81187980D01*
X114774520Y-102644520D02*
X120625480Y-102644520D01*
X108000000Y-81000000D02*
X113453904Y-81000000D01*
X80000000Y-79500000D02*
X80382503Y-79882503D01*
X86800000Y-75600000D02*
X86800000Y-74074500D01*
X113630000Y-101500000D02*
X114774520Y-102644520D01*
X79651000Y-87500000D02*
X79651000Y-84500000D01*
X107337011Y-77400000D02*
X107412011Y-77475000D01*
X112350000Y-83000000D02*
X112225000Y-82875000D01*
X113453904Y-81000000D02*
X114174511Y-81720607D01*
X107412011Y-77475000D02*
X107987011Y-78050000D01*
X80918404Y-81187980D02*
X81987980Y-81187980D01*
X105900000Y-101550000D02*
X105900000Y-101475500D01*
X114174511Y-81720607D02*
X114174511Y-82825489D01*
X86800000Y-74074500D02*
X85700000Y-72974500D01*
X108400000Y-97100000D02*
X111250000Y-99950000D01*
X114174511Y-82825489D02*
X114000000Y-83000000D01*
X107337011Y-76650000D02*
X107337011Y-77400000D01*
X111250000Y-99950000D02*
X112250000Y-99950000D01*
X112000000Y-86000000D02*
X113674500Y-86000000D01*
X105900000Y-101475500D02*
X106050000Y-101325500D01*
X107987011Y-78050000D02*
X107987011Y-78700000D01*
X114000000Y-83000000D02*
X112350000Y-83000000D01*
X117250000Y-83000000D02*
X117500000Y-82750000D01*
X80382503Y-79882503D02*
X80382503Y-80652079D01*
X114000000Y-83000000D02*
X117250000Y-83000000D01*
X113250000Y-100950000D02*
X114950000Y-100950000D01*
%TO.N,+3V3*%
X108800000Y-90725000D02*
X108500000Y-90425000D01*
X105398056Y-97348056D02*
X105398056Y-99622576D01*
X83310000Y-91240000D02*
X83310000Y-91750000D01*
X107987011Y-76974022D02*
X108512989Y-77500000D01*
X112625000Y-91000000D02*
X109300000Y-91000000D01*
X90000000Y-93068430D02*
X90165785Y-93234215D01*
X96300000Y-96050000D02*
X98750011Y-98500011D01*
X94887500Y-94412500D02*
X96300000Y-95825000D01*
X87800000Y-78700000D02*
X89312500Y-78700000D01*
D30*
X120400000Y-100100000D02*
X118000000Y-100100000D01*
D31*
X107361522Y-79224511D02*
X108462500Y-79224511D01*
X94475000Y-94000000D02*
X94887500Y-94412500D01*
X88650000Y-91000000D02*
X87700000Y-90050000D01*
X98750011Y-98500011D02*
X99250011Y-98500011D01*
X109287011Y-78575000D02*
X109087011Y-78375000D01*
X107337011Y-79200000D02*
X107361522Y-79224511D01*
X96300000Y-95825000D02*
X96300000Y-96050000D01*
X90850000Y-94000000D02*
X90500000Y-94350000D01*
X90000000Y-91000000D02*
X90000000Y-93068430D01*
X108637011Y-79050000D02*
X108637011Y-78700000D01*
X107987011Y-76650000D02*
X107987011Y-76974022D01*
X112625000Y-91000000D02*
X114125000Y-89500000D01*
X109025000Y-90725000D02*
X108800000Y-90725000D01*
X90931571Y-94000000D02*
X90850000Y-94000000D01*
X91300000Y-94000000D02*
X94475000Y-94000000D01*
X90000000Y-91000000D02*
X88650000Y-91000000D01*
X109287011Y-78700000D02*
X108637011Y-78700000D01*
D30*
X118000000Y-100100000D02*
X117900000Y-100200000D01*
D31*
X105398056Y-99622576D02*
X105975980Y-100200500D01*
X108512989Y-77500000D02*
X109087011Y-77500000D01*
X108462500Y-79224511D02*
X108637011Y-79050000D01*
X87700000Y-90050000D02*
X84500000Y-90050000D01*
X101150000Y-100400000D02*
X102675980Y-100400000D01*
X126100000Y-99410000D02*
X127770000Y-97740000D01*
X107337011Y-78700000D02*
X107337011Y-79200000D01*
X109287011Y-78700000D02*
X109287011Y-78575000D01*
X84500000Y-90050000D02*
X83310000Y-91240000D01*
X126100000Y-101570000D02*
X126100000Y-99410000D01*
X91300000Y-94000000D02*
X90931571Y-94000000D01*
X109300000Y-91000000D02*
X109025000Y-90725000D01*
X90931571Y-94000000D02*
X90165785Y-93234215D01*
X99250011Y-98500011D02*
X101150000Y-100400000D01*
X89312500Y-78700000D02*
X89662500Y-78350000D01*
%TO.N,Net-(C8-Pad1)*%
X89350000Y-95600000D02*
X90950000Y-97200000D01*
X90950000Y-97200000D02*
X93075000Y-97200000D01*
%TO.N,Net-(C9-Pad1)*%
X89350000Y-93700000D02*
X89350000Y-94407106D01*
X89350000Y-94407106D02*
X90542894Y-95600000D01*
X90542894Y-95600000D02*
X93075000Y-95600000D01*
%TO.N,/ENC2*%
X118565332Y-86234668D02*
X120400000Y-84400000D01*
X99900000Y-96300000D02*
X100024511Y-96424511D01*
X100024511Y-96424511D02*
X107273057Y-96424511D01*
X118565332Y-90065332D02*
X118565332Y-86234668D01*
X107273057Y-96424511D02*
X109797568Y-93900000D01*
X117600000Y-93900000D02*
X118500000Y-93000000D01*
X109797568Y-93900000D02*
X117600000Y-93900000D01*
%TO.N,/ENC1*%
X98000000Y-88500000D02*
X98950000Y-88500000D01*
X110725489Y-83725489D02*
X124950489Y-83725489D01*
X107500978Y-86950000D02*
X110725489Y-83725489D01*
X107003904Y-86950000D02*
X107500978Y-86950000D01*
X99500000Y-89050000D02*
X100750000Y-89050000D01*
X105453904Y-88500000D02*
X107003904Y-86950000D01*
X101300000Y-88500000D02*
X105453904Y-88500000D01*
X100750000Y-89050000D02*
X101300000Y-88500000D01*
X124950489Y-83725489D02*
X125625000Y-84400000D01*
X98950000Y-88500000D02*
X99500000Y-89050000D01*
%TO.N,/MODE*%
X102800000Y-93550000D02*
X103050000Y-93300000D01*
X102800000Y-95150000D02*
X102800000Y-93550000D01*
%TO.N,/SDA*%
X95025000Y-92900000D02*
X90930969Y-92900000D01*
X104150000Y-84450000D02*
X104150000Y-83750000D01*
X78125189Y-90015489D02*
X80065489Y-90015489D01*
X78300000Y-80980000D02*
X77175489Y-82104511D01*
X107574511Y-80325489D02*
X109174511Y-80325489D01*
X90930969Y-92900000D02*
X90858222Y-92972747D01*
X108637011Y-76325978D02*
X108637011Y-76650000D01*
X109875969Y-79624031D02*
X107124031Y-79624031D01*
X106737500Y-79237500D02*
X106737500Y-76262500D01*
X97525750Y-85225750D02*
X103374250Y-85225750D01*
X106737500Y-76262500D02*
X107000000Y-76000000D01*
X77175489Y-82104511D02*
X77175489Y-89065789D01*
X96550000Y-86500000D02*
X96550000Y-86201501D01*
X103374250Y-85225750D02*
X104150000Y-84450000D01*
X107000000Y-76000000D02*
X108311033Y-76000000D01*
X107124031Y-79624031D02*
X106737500Y-79237500D01*
X109174511Y-80325489D02*
X110000000Y-79500000D01*
X77175489Y-89065789D02*
X78125189Y-90015489D01*
X80065489Y-90015489D02*
X83375489Y-93325489D01*
X96550000Y-86201501D02*
X97525750Y-85225750D01*
X95025000Y-92900000D02*
X96300000Y-94175000D01*
X83375489Y-93325489D02*
X88175489Y-93325489D01*
X108311033Y-76000000D02*
X108637011Y-76325978D01*
X104150000Y-83750000D02*
X107574511Y-80325489D01*
%TO.N,/LED2*%
X88574031Y-84074031D02*
X89000000Y-84500000D01*
X82925969Y-84074031D02*
X88574031Y-84074031D01*
X82000000Y-85000000D02*
X82925969Y-84074031D01*
X81100000Y-85000000D02*
X82000000Y-85000000D01*
%TO.N,/SCL*%
X113000000Y-88000000D02*
X113750000Y-87250000D01*
X105600000Y-89000000D02*
X105774511Y-89174511D01*
X110500000Y-78000000D02*
X110500000Y-77862989D01*
X111500000Y-88000000D02*
X113000000Y-88000000D01*
X101285489Y-91748533D02*
X101285489Y-89190489D01*
X99450000Y-93500000D02*
X99575000Y-93500000D01*
X86520607Y-76274511D02*
X89625489Y-76274511D01*
X99575000Y-93500000D02*
X99675000Y-93600000D01*
X80624511Y-72575489D02*
X84347085Y-72575489D01*
X84347085Y-72575489D02*
X86125489Y-74353893D01*
X110500000Y-77862989D02*
X109287011Y-76650000D01*
X86125489Y-75879393D02*
X86520607Y-76274511D01*
X89625489Y-76274511D02*
X93200000Y-72700000D01*
X77175489Y-74775489D02*
X78424511Y-74775489D01*
X101201467Y-91748533D02*
X99450000Y-93500000D01*
X76625020Y-76425020D02*
X76625020Y-75325958D01*
X108075489Y-89174511D02*
X108125000Y-89125000D01*
X78424511Y-74775489D02*
X80624511Y-72575489D01*
X108125000Y-89125000D02*
X110375000Y-89125000D01*
X77515489Y-77315489D02*
X76625020Y-76425020D01*
X86125489Y-74353893D02*
X86125489Y-75879393D01*
X76625020Y-75325958D02*
X77175489Y-74775489D01*
X80327289Y-82687500D02*
X79132500Y-82687500D01*
X81700000Y-79246096D02*
X79769393Y-77315489D01*
X93200000Y-72700000D02*
X105837011Y-72700000D01*
X105774511Y-89174511D02*
X108075489Y-89174511D01*
X109287011Y-76150000D02*
X109287011Y-76650000D01*
X114500000Y-87000000D02*
X114500000Y-84500000D01*
X113750000Y-87250000D02*
X114250000Y-87250000D01*
X81125500Y-80500000D02*
X81700000Y-79925500D01*
X101285489Y-89190489D02*
X101475978Y-89000000D01*
X101475978Y-89000000D02*
X105600000Y-89000000D01*
X114250000Y-87250000D02*
X114500000Y-87000000D01*
X79769393Y-77315489D02*
X77515489Y-77315489D01*
X79132500Y-82687500D02*
X78300000Y-83520000D01*
X81700000Y-79925500D02*
X81700000Y-79246096D01*
X105837011Y-72700000D02*
X109287011Y-76150000D01*
X101285489Y-91748533D02*
X101201467Y-91748533D01*
X110375000Y-89125000D02*
X111500000Y-88000000D01*
%TO.N,/ADC*%
X81100000Y-81900000D02*
X82874511Y-83674511D01*
X81100000Y-81900000D02*
X80100000Y-81900000D01*
X79475000Y-81275000D02*
X79475000Y-80275000D01*
X82874511Y-83674511D02*
X89848542Y-83674511D01*
X80100000Y-81900000D02*
X79475000Y-81275000D01*
X79055489Y-79855489D02*
X79475000Y-80275000D01*
X77050000Y-79900000D02*
X77094511Y-79855489D01*
X90300000Y-84125969D02*
X92125969Y-84125969D01*
X89848542Y-83674511D02*
X90300000Y-84125969D01*
X92125969Y-84125969D02*
X94500000Y-86500000D01*
X77094511Y-79855489D02*
X79055489Y-79855489D01*
%TO.N,/SYS_SWDCLK*%
X114114935Y-99902860D02*
X114017795Y-100000000D01*
X113487564Y-99275489D02*
X114114935Y-99902860D01*
X109600000Y-95550000D02*
X109600000Y-96453904D01*
X90900000Y-103750000D02*
X85600000Y-98450000D01*
X96500500Y-103750000D02*
X90900000Y-103750000D01*
X112421585Y-99275489D02*
X113487564Y-99275489D01*
X85600000Y-98450000D02*
X85600000Y-94600000D01*
X109600000Y-96453904D02*
X112421585Y-99275489D01*
X114017795Y-100000000D02*
X113950000Y-100000000D01*
X97550000Y-102700500D02*
X96500500Y-103750000D01*
X104200000Y-93185579D02*
X106250000Y-95235579D01*
X106250000Y-95235579D02*
X106250000Y-95600000D01*
%TO.N,/SYS_SWDIO*%
X94250000Y-89000000D02*
X95824031Y-87425969D01*
X99925969Y-87425969D02*
X100000000Y-87500000D01*
X95824031Y-87425969D02*
X99925969Y-87425969D01*
X90000000Y-89000000D02*
X94250000Y-89000000D01*
%TO.N,/Tx*%
X89250000Y-86500000D02*
X90550000Y-85200000D01*
X79400000Y-75900000D02*
X85875000Y-82375000D01*
X88850000Y-86500000D02*
X89250000Y-86500000D01*
X86325000Y-82375000D02*
X87150000Y-81550000D01*
X85875000Y-82375000D02*
X86325000Y-82375000D01*
X78300000Y-75900000D02*
X79400000Y-75900000D01*
%TO.N,/Rx*%
X85518848Y-85481152D02*
X89314944Y-85481152D01*
X85050000Y-85950000D02*
X85518848Y-85481152D01*
X90270607Y-84525489D02*
X91325489Y-84525489D01*
X91325489Y-84525489D02*
X91850000Y-85050000D01*
X89314944Y-85481152D02*
X90270607Y-84525489D01*
%TO.N,/DISP_0*%
X91174511Y-81174511D02*
X91174511Y-82825489D01*
X90000000Y-80000000D02*
X91174511Y-81174511D01*
%TO.N,/BUTTON1*%
X120325489Y-91325489D02*
X123500000Y-94500000D01*
X101498758Y-92511079D02*
X106212057Y-92511079D01*
X109049520Y-91399520D02*
X114298048Y-91399520D01*
X106212057Y-92511079D02*
X107397647Y-91325489D01*
X114372079Y-91325489D02*
X120325489Y-91325489D01*
X108975489Y-91325489D02*
X109049520Y-91399520D01*
X114298048Y-91399520D02*
X114372079Y-91325489D01*
X107397647Y-91325489D02*
X108975489Y-91325489D01*
%TO.N,/BUTTON2*%
X100125489Y-85625489D02*
X100550000Y-86050000D01*
X97631385Y-86074020D02*
X98079916Y-85625489D01*
X103400000Y-86500000D02*
X103850000Y-86050000D01*
X103850000Y-86050000D02*
X106900000Y-86050000D01*
X106900000Y-86050000D02*
X106947567Y-86097567D01*
X98079916Y-85625489D02*
X100125489Y-85625489D01*
X100550000Y-86500000D02*
X103400000Y-86500000D01*
X111885972Y-82000000D02*
X113500000Y-82000000D01*
X107788405Y-86097567D02*
X111885972Y-82000000D01*
X100550000Y-86050000D02*
X100550000Y-86500000D01*
X106947567Y-86097567D02*
X107788405Y-86097567D01*
%TO.N,/DISP_D*%
X103896096Y-82000000D02*
X104675000Y-82000000D01*
X101600000Y-83550000D02*
X102346096Y-83550000D01*
X102346096Y-83550000D02*
X103896096Y-82000000D01*
%TO.N,/DISP_1*%
X98500000Y-78000000D02*
X98500000Y-81000000D01*
X99000000Y-76000000D02*
X99000000Y-77500000D01*
X99000000Y-77500000D02*
X98500000Y-78000000D01*
X98000000Y-81500000D02*
X97000000Y-81500000D01*
X98500000Y-81000000D02*
X98000000Y-81500000D01*
%TO.N,/DISP_2*%
X101000000Y-81500000D02*
X101000000Y-77612500D01*
X101000000Y-77612500D02*
X102250000Y-76362500D01*
%TO.N,/DISP_A*%
X93250000Y-75225000D02*
X93825000Y-75800000D01*
X93250000Y-73750000D02*
X93250000Y-75225000D01*
X90000000Y-82000000D02*
X90500000Y-82000000D01*
X86500000Y-78500000D02*
X90000000Y-82000000D01*
%TO.N,Net-(Q6-Pad3)*%
X123000000Y-81000000D02*
X120400000Y-78400000D01*
X120400000Y-78400000D02*
X118400000Y-78400000D01*
%TO.N,Net-(R6-Pad1)*%
X108400000Y-92600000D02*
X114900000Y-92600000D01*
%TO.N,Net-(R11-Pad2)*%
X120500000Y-81000000D02*
X120500000Y-81275000D01*
%TO.N,/DISP_C*%
X102600000Y-84250000D02*
X102600000Y-84300000D01*
X103800000Y-83050000D02*
X102600000Y-84250000D01*
X109575000Y-86650000D02*
X110500000Y-85725000D01*
X104850000Y-84100000D02*
X106053888Y-84100000D01*
X108850000Y-86650000D02*
X109575000Y-86650000D01*
X106053888Y-84100000D02*
X107376944Y-85423056D01*
%TO.N,/DISP_E*%
X94825489Y-87174511D02*
X95250000Y-86750000D01*
X89448114Y-88004128D02*
X90452242Y-87000000D01*
X90452242Y-87000000D02*
X93350000Y-87000000D01*
X93524511Y-87174511D02*
X94825489Y-87174511D01*
X95250000Y-85750000D02*
X95950000Y-85050000D01*
X95950000Y-85050000D02*
X96700000Y-85050000D01*
X95250000Y-86750000D02*
X95250000Y-85750000D01*
X93350000Y-87000000D02*
X93524511Y-87174511D01*
%TO.N,/DISP_DP*%
X100350000Y-86900000D02*
X99750000Y-86300000D01*
X104000000Y-86900000D02*
X100350000Y-86900000D01*
%TO.N,/DISP_B*%
X80350000Y-88600000D02*
X78300000Y-88600000D01*
X95950000Y-80750000D02*
X93400000Y-83300000D01*
X84450000Y-82800000D02*
X84250000Y-83000000D01*
X88750000Y-82800000D02*
X84450000Y-82800000D01*
X84100000Y-84850000D02*
X80350000Y-88600000D01*
X93400000Y-83300000D02*
X92300000Y-83300000D01*
%TO.N,/DISP_F*%
X95750000Y-77550000D02*
X95750000Y-73625000D01*
%TO.N,/BACKUP*%
X85339244Y-76650000D02*
X85789244Y-77100000D01*
X85789244Y-77100000D02*
X86887500Y-77100000D01*
X85339244Y-76650000D02*
X81550000Y-76650000D01*
%TO.N,Net-(R18-Pad2)*%
X94690000Y-77940000D02*
X92550000Y-75800000D01*
X92550000Y-75800000D02*
X92175000Y-75800000D01*
X94690000Y-79285000D02*
X94690000Y-77940000D01*
%TO.N,Net-(R20-Pad2)*%
X98200000Y-92285000D02*
X99770000Y-90715000D01*
X99050000Y-94750000D02*
X98200000Y-93900000D01*
X102024511Y-97174511D02*
X99624511Y-97174511D01*
X99050000Y-96600000D02*
X99050000Y-94750000D01*
X102024511Y-97174511D02*
X103800000Y-98950000D01*
X99624511Y-97174511D02*
X99050000Y-96600000D01*
X98200000Y-93900000D02*
X98200000Y-92285000D01*
X103800000Y-98950000D02*
X103800000Y-99400000D01*
%TO.N,Net-(R21-Pad2)*%
X100474511Y-82174511D02*
X101279393Y-82174511D01*
X94690000Y-89513888D02*
X96051944Y-88151944D01*
X100350000Y-82050000D02*
X100474511Y-82174511D01*
X96900000Y-83850000D02*
X98700000Y-82050000D01*
X98700000Y-82050000D02*
X100350000Y-82050000D01*
X94690000Y-90715000D02*
X94690000Y-89513888D01*
X101703904Y-81750000D02*
X103100000Y-81750000D01*
X101279393Y-82174511D02*
X101703904Y-81750000D01*
%TO.N,Net-(R22-Pad2)*%
X92150000Y-90715000D02*
X90965000Y-90715000D01*
X90965000Y-90715000D02*
X90050000Y-89800000D01*
X88075000Y-89800000D02*
X87125000Y-88850000D01*
X90050000Y-89800000D02*
X88075000Y-89800000D01*
%TO.N,Net-(R23-Pad2)*%
X97230000Y-76130000D02*
X97230000Y-79285000D01*
X96600000Y-75500000D02*
X97230000Y-76130000D01*
%TO.N,Net-(R25-Pad2)*%
X100803904Y-87650000D02*
X103000000Y-87650000D01*
X97230000Y-90715000D02*
X97230000Y-88316096D01*
X98840495Y-87825489D02*
X99207503Y-88192497D01*
X97230000Y-88316096D02*
X97720607Y-87825489D01*
X97720607Y-87825489D02*
X98840495Y-87825489D01*
X99207503Y-88192497D02*
X100261407Y-88192497D01*
X100261407Y-88192497D02*
X100803904Y-87650000D01*
%TD*%
%TA.AperFunction,Conductor*%
%TO.N,GND*%
G36*
X128015886Y-69028002D02*
G01*
X128062379Y-69081658D01*
X128072483Y-69151932D01*
X128053438Y-69202624D01*
X128041874Y-69220431D01*
X128037613Y-69228118D01*
X127922655Y-69474647D01*
X127919504Y-69482857D01*
X127839978Y-69742977D01*
X127837999Y-69751547D01*
X127795315Y-70021044D01*
X127794601Y-70028128D01*
X127792060Y-70086331D01*
X127792000Y-70089083D01*
X127792000Y-70927885D01*
X127796475Y-70943124D01*
X127797865Y-70944329D01*
X127805548Y-70946000D01*
X129928000Y-70946000D01*
X129996121Y-70966002D01*
X130042614Y-71019658D01*
X130054000Y-71072000D01*
X130054000Y-74174685D01*
X130057886Y-74187921D01*
X130072345Y-74189894D01*
X130248453Y-74162001D01*
X130257023Y-74160022D01*
X130517143Y-74080496D01*
X130525353Y-74077345D01*
X130771882Y-73962387D01*
X130779569Y-73958126D01*
X130797376Y-73946562D01*
X130865401Y-73926236D01*
X130933616Y-73945915D01*
X130980364Y-73999349D01*
X130992000Y-74052235D01*
X130992000Y-86615500D01*
X130971998Y-86683621D01*
X130918342Y-86730114D01*
X130866000Y-86741500D01*
X128451866Y-86741500D01*
X128389684Y-86748255D01*
X128253295Y-86799385D01*
X128136739Y-86886739D01*
X128049385Y-87003295D01*
X127998255Y-87139684D01*
X127991500Y-87201866D01*
X127991500Y-90798134D01*
X127998255Y-90860316D01*
X128049385Y-90996705D01*
X128136739Y-91113261D01*
X128253295Y-91200615D01*
X128389684Y-91251745D01*
X128451866Y-91258500D01*
X130866000Y-91258500D01*
X130934121Y-91278502D01*
X130980614Y-91332158D01*
X130992000Y-91384500D01*
X130992000Y-99447765D01*
X130971998Y-99515886D01*
X130918342Y-99562379D01*
X130848068Y-99572483D01*
X130797376Y-99553438D01*
X130779569Y-99541874D01*
X130771882Y-99537613D01*
X130525353Y-99422655D01*
X130517143Y-99419504D01*
X130257023Y-99339978D01*
X130248453Y-99337999D01*
X130071894Y-99310034D01*
X130058211Y-99311802D01*
X130054000Y-99325774D01*
X130054000Y-102428000D01*
X130033998Y-102496121D01*
X129980342Y-102542614D01*
X129928000Y-102554000D01*
X129672000Y-102554000D01*
X129603879Y-102533998D01*
X129557386Y-102480342D01*
X129546000Y-102428000D01*
X129546000Y-99325315D01*
X129542114Y-99312079D01*
X129527655Y-99310106D01*
X129351547Y-99337999D01*
X129342977Y-99339978D01*
X129082857Y-99419504D01*
X129074647Y-99422655D01*
X128828118Y-99537613D01*
X128820428Y-99541876D01*
X128592300Y-99690024D01*
X128585281Y-99695314D01*
X128379976Y-99873783D01*
X128373783Y-99879976D01*
X128195314Y-100085281D01*
X128190024Y-100092300D01*
X128041876Y-100320428D01*
X128037611Y-100328122D01*
X128015319Y-100375928D01*
X127968403Y-100429213D01*
X127900126Y-100448675D01*
X127832166Y-100428134D01*
X127827111Y-100424496D01*
X127823303Y-100420695D01*
X127701844Y-100345826D01*
X127678968Y-100331725D01*
X127678966Y-100331724D01*
X127672738Y-100327885D01*
X127558301Y-100289928D01*
X127511389Y-100274368D01*
X127511387Y-100274368D01*
X127504861Y-100272203D01*
X127498025Y-100271503D01*
X127498022Y-100271502D01*
X127454969Y-100267091D01*
X127400400Y-100261500D01*
X126859500Y-100261500D01*
X126791379Y-100241498D01*
X126744886Y-100187842D01*
X126733500Y-100135500D01*
X126733500Y-99724594D01*
X126753502Y-99656473D01*
X126770405Y-99635499D01*
X127720499Y-98685405D01*
X127782811Y-98651379D01*
X127809594Y-98648500D01*
X127865487Y-98648500D01*
X127871939Y-98647128D01*
X127871944Y-98647128D01*
X127958888Y-98628647D01*
X128052288Y-98608794D01*
X128060621Y-98605084D01*
X128220722Y-98533803D01*
X128220724Y-98533802D01*
X128226752Y-98531118D01*
X128251837Y-98512893D01*
X128282157Y-98490864D01*
X128381253Y-98418866D01*
X128390904Y-98408148D01*
X128504621Y-98281852D01*
X128504622Y-98281851D01*
X128509040Y-98276944D01*
X128577203Y-98158882D01*
X128601223Y-98117279D01*
X128601224Y-98117278D01*
X128604527Y-98111556D01*
X128663542Y-97929928D01*
X128666813Y-97898812D01*
X128682814Y-97746565D01*
X128683504Y-97740000D01*
X128674429Y-97653658D01*
X128664232Y-97556635D01*
X128664232Y-97556633D01*
X128663542Y-97550072D01*
X128604527Y-97368444D01*
X128509040Y-97203056D01*
X128482992Y-97174126D01*
X128385675Y-97066045D01*
X128385674Y-97066044D01*
X128381253Y-97061134D01*
X128234600Y-96954584D01*
X128232094Y-96952763D01*
X128232093Y-96952762D01*
X128226752Y-96948882D01*
X128220724Y-96946198D01*
X128220722Y-96946197D01*
X128058319Y-96873891D01*
X128058318Y-96873891D01*
X128052288Y-96871206D01*
X127930251Y-96845266D01*
X127871944Y-96832872D01*
X127871939Y-96832872D01*
X127865487Y-96831500D01*
X127674513Y-96831500D01*
X127668061Y-96832872D01*
X127668056Y-96832872D01*
X127609749Y-96845266D01*
X127487712Y-96871206D01*
X127481682Y-96873891D01*
X127481681Y-96873891D01*
X127319278Y-96946197D01*
X127319276Y-96946198D01*
X127313248Y-96948882D01*
X127307907Y-96952762D01*
X127307906Y-96952763D01*
X127249538Y-96995170D01*
X127219995Y-97016635D01*
X127208561Y-97024942D01*
X127141694Y-97048800D01*
X127072542Y-97032720D01*
X127023062Y-96981806D01*
X127008500Y-96923006D01*
X127008500Y-95951866D01*
X127001745Y-95889684D01*
X126950615Y-95753295D01*
X126863261Y-95636739D01*
X126746705Y-95549385D01*
X126610316Y-95498255D01*
X126548134Y-95491500D01*
X124451866Y-95491500D01*
X124389684Y-95498255D01*
X124253295Y-95549385D01*
X124136739Y-95636739D01*
X124049385Y-95753295D01*
X123998255Y-95889684D01*
X123991500Y-95951866D01*
X123991500Y-98048134D01*
X123998255Y-98110316D01*
X124049385Y-98246705D01*
X124136739Y-98363261D01*
X124253295Y-98450615D01*
X124389684Y-98501745D01*
X124451866Y-98508500D01*
X125801405Y-98508500D01*
X125869526Y-98528502D01*
X125916019Y-98582158D01*
X125926123Y-98652432D01*
X125896629Y-98717012D01*
X125890500Y-98723595D01*
X125707747Y-98906348D01*
X125699461Y-98913888D01*
X125692982Y-98918000D01*
X125687557Y-98923777D01*
X125646357Y-98967651D01*
X125643602Y-98970493D01*
X125623865Y-98990230D01*
X125621385Y-98993427D01*
X125613682Y-99002447D01*
X125583414Y-99034679D01*
X125579595Y-99041625D01*
X125579593Y-99041628D01*
X125573652Y-99052434D01*
X125562801Y-99068953D01*
X125550386Y-99084959D01*
X125547241Y-99092228D01*
X125547238Y-99092232D01*
X125532826Y-99125537D01*
X125527609Y-99136187D01*
X125506305Y-99174940D01*
X125504334Y-99182615D01*
X125504334Y-99182616D01*
X125501267Y-99194562D01*
X125494863Y-99213266D01*
X125492953Y-99217681D01*
X125486819Y-99231855D01*
X125485580Y-99239678D01*
X125485577Y-99239688D01*
X125479901Y-99275524D01*
X125477495Y-99287144D01*
X125468769Y-99321134D01*
X125466500Y-99329970D01*
X125466500Y-99350224D01*
X125464949Y-99369934D01*
X125461780Y-99389943D01*
X125462526Y-99397835D01*
X125465941Y-99433961D01*
X125466500Y-99445819D01*
X125466500Y-100135500D01*
X125446498Y-100203621D01*
X125392842Y-100250114D01*
X125340500Y-100261500D01*
X124799600Y-100261500D01*
X124796354Y-100261837D01*
X124796350Y-100261837D01*
X124700692Y-100271762D01*
X124700688Y-100271763D01*
X124693834Y-100272474D01*
X124687298Y-100274655D01*
X124687296Y-100274655D01*
X124585851Y-100308500D01*
X124526054Y-100328450D01*
X124375652Y-100421522D01*
X124370479Y-100426704D01*
X124367974Y-100429213D01*
X124250695Y-100546697D01*
X124246855Y-100552927D01*
X124246854Y-100552928D01*
X124169225Y-100678866D01*
X124157885Y-100697262D01*
X124142370Y-100744038D01*
X124106712Y-100851546D01*
X124102203Y-100865139D01*
X124101503Y-100871975D01*
X124101502Y-100871978D01*
X124098723Y-100899102D01*
X124091500Y-100969600D01*
X124091500Y-102170400D01*
X124091837Y-102173646D01*
X124091837Y-102173650D01*
X124101752Y-102269206D01*
X124102474Y-102276166D01*
X124158450Y-102443946D01*
X124251522Y-102594348D01*
X124376697Y-102719305D01*
X124382927Y-102723145D01*
X124382928Y-102723146D01*
X124520288Y-102807816D01*
X124527262Y-102812115D01*
X124562124Y-102823678D01*
X124688611Y-102865632D01*
X124688613Y-102865632D01*
X124695139Y-102867797D01*
X124701975Y-102868497D01*
X124701978Y-102868498D01*
X124745031Y-102872909D01*
X124799600Y-102878500D01*
X127400400Y-102878500D01*
X127403646Y-102878163D01*
X127403650Y-102878163D01*
X127499308Y-102868238D01*
X127499312Y-102868237D01*
X127506166Y-102867526D01*
X127512708Y-102865343D01*
X127512710Y-102865343D01*
X127626124Y-102827505D01*
X127697074Y-102824920D01*
X127758158Y-102861103D01*
X127789983Y-102924567D01*
X127792001Y-102947028D01*
X127792001Y-103410915D01*
X127792061Y-103413672D01*
X127794601Y-103471855D01*
X127795317Y-103478972D01*
X127837999Y-103748453D01*
X127839978Y-103757023D01*
X127919504Y-104017143D01*
X127922655Y-104025353D01*
X128037613Y-104271882D01*
X128041874Y-104279569D01*
X128053438Y-104297376D01*
X128073764Y-104365401D01*
X128054085Y-104433616D01*
X128000651Y-104480364D01*
X127947765Y-104492000D01*
X96950921Y-104492000D01*
X96882800Y-104471998D01*
X96836307Y-104418342D01*
X96826203Y-104348068D01*
X96855697Y-104283488D01*
X96879146Y-104263918D01*
X96878773Y-104263437D01*
X96885034Y-104258580D01*
X96891862Y-104254542D01*
X96906183Y-104240221D01*
X96921217Y-104227380D01*
X96931194Y-104220131D01*
X96937607Y-104215472D01*
X96965798Y-104181395D01*
X96973788Y-104172616D01*
X97500499Y-103645905D01*
X97562811Y-103611879D01*
X97589594Y-103609000D01*
X97645487Y-103609000D01*
X97651939Y-103607628D01*
X97651944Y-103607628D01*
X97738887Y-103589147D01*
X97832288Y-103569294D01*
X97925122Y-103527962D01*
X98000722Y-103494303D01*
X98000724Y-103494302D01*
X98006752Y-103491618D01*
X98161253Y-103379366D01*
X98289040Y-103237444D01*
X98360529Y-103113621D01*
X98381223Y-103077779D01*
X98381224Y-103077778D01*
X98384527Y-103072056D01*
X98443542Y-102890428D01*
X98444849Y-102877999D01*
X98462814Y-102707065D01*
X98463504Y-102700500D01*
X98451550Y-102586760D01*
X98444232Y-102517135D01*
X98444232Y-102517133D01*
X98443542Y-102510572D01*
X98384527Y-102328944D01*
X98291083Y-102167095D01*
X111792001Y-102167095D01*
X111792338Y-102173614D01*
X111802257Y-102269206D01*
X111805149Y-102282600D01*
X111856588Y-102436784D01*
X111862761Y-102449962D01*
X111948063Y-102587807D01*
X111957099Y-102599208D01*
X112071829Y-102713739D01*
X112083240Y-102722751D01*
X112221243Y-102807816D01*
X112234424Y-102813963D01*
X112388710Y-102865138D01*
X112402086Y-102868005D01*
X112496438Y-102877672D01*
X112502854Y-102878000D01*
X113527885Y-102878000D01*
X113543124Y-102873525D01*
X113544329Y-102872135D01*
X113546000Y-102864452D01*
X113546000Y-102859884D01*
X114054000Y-102859884D01*
X114058475Y-102875123D01*
X114059865Y-102876328D01*
X114067548Y-102877999D01*
X115097095Y-102877999D01*
X115103614Y-102877662D01*
X115199206Y-102867743D01*
X115212600Y-102864851D01*
X115366784Y-102813412D01*
X115379962Y-102807239D01*
X115517807Y-102721937D01*
X115529208Y-102712901D01*
X115643739Y-102598171D01*
X115652751Y-102586760D01*
X115737816Y-102448757D01*
X115743963Y-102435576D01*
X115795138Y-102281290D01*
X115798005Y-102267914D01*
X115807672Y-102173562D01*
X115808000Y-102167146D01*
X115808000Y-101842115D01*
X115803525Y-101826876D01*
X115802135Y-101825671D01*
X115794452Y-101824000D01*
X114072115Y-101824000D01*
X114056876Y-101828475D01*
X114055671Y-101829865D01*
X114054000Y-101837548D01*
X114054000Y-102859884D01*
X113546000Y-102859884D01*
X113546000Y-101842115D01*
X113541525Y-101826876D01*
X113540135Y-101825671D01*
X113532452Y-101824000D01*
X111810116Y-101824000D01*
X111794877Y-101828475D01*
X111793672Y-101829865D01*
X111792001Y-101837548D01*
X111792001Y-102167095D01*
X98291083Y-102167095D01*
X98289040Y-102163556D01*
X98161253Y-102021634D01*
X98006752Y-101909382D01*
X98000724Y-101906698D01*
X98000722Y-101906697D01*
X97838319Y-101834391D01*
X97838318Y-101834391D01*
X97832288Y-101831706D01*
X97738888Y-101811853D01*
X97651944Y-101793372D01*
X97651939Y-101793372D01*
X97645487Y-101792000D01*
X97454513Y-101792000D01*
X97448061Y-101793372D01*
X97448056Y-101793372D01*
X97361112Y-101811853D01*
X97267712Y-101831706D01*
X97261682Y-101834391D01*
X97261681Y-101834391D01*
X97099278Y-101906697D01*
X97099276Y-101906698D01*
X97093248Y-101909382D01*
X96938747Y-102021634D01*
X96810960Y-102163556D01*
X96715473Y-102328944D01*
X96656458Y-102510572D01*
X96655768Y-102517133D01*
X96655768Y-102517135D01*
X96639093Y-102675792D01*
X96612080Y-102741449D01*
X96602878Y-102751718D01*
X96274999Y-103079596D01*
X96212687Y-103113621D01*
X96185904Y-103116500D01*
X92682597Y-103116500D01*
X92614476Y-103096498D01*
X92571066Y-103049124D01*
X92569572Y-103046282D01*
X91524422Y-102001132D01*
X92246908Y-102001132D01*
X92247039Y-102002965D01*
X92251290Y-102009580D01*
X92929503Y-102687793D01*
X92941277Y-102694223D01*
X92953293Y-102684926D01*
X92983397Y-102641932D01*
X92988877Y-102632441D01*
X93078145Y-102441007D01*
X93081891Y-102430715D01*
X93136559Y-102226691D01*
X93138462Y-102215896D01*
X93156872Y-102005475D01*
X93156872Y-101994525D01*
X93138462Y-101784104D01*
X93136559Y-101773309D01*
X93081891Y-101569285D01*
X93078145Y-101558993D01*
X92988877Y-101367559D01*
X92983397Y-101358068D01*
X92952706Y-101314235D01*
X92942229Y-101305860D01*
X92928782Y-101312928D01*
X92254522Y-101987188D01*
X92246908Y-102001132D01*
X91524422Y-102001132D01*
X90835497Y-101312207D01*
X90823723Y-101305777D01*
X90811707Y-101315074D01*
X90781603Y-101358068D01*
X90776123Y-101367559D01*
X90686855Y-101558993D01*
X90683109Y-101569285D01*
X90628441Y-101773309D01*
X90626538Y-101784104D01*
X90608128Y-101994525D01*
X90608128Y-102005475D01*
X90626538Y-102215896D01*
X90628442Y-102226694D01*
X90636983Y-102258572D01*
X90635293Y-102329548D01*
X90595498Y-102388344D01*
X90530233Y-102416291D01*
X90460220Y-102404517D01*
X90426181Y-102380277D01*
X88986176Y-100940271D01*
X91188360Y-100940271D01*
X91195428Y-100953718D01*
X91869688Y-101627978D01*
X91883632Y-101635592D01*
X91885465Y-101635461D01*
X91892080Y-101631210D01*
X92570293Y-100952997D01*
X92576723Y-100941223D01*
X92567426Y-100929207D01*
X92524431Y-100899102D01*
X92514945Y-100893624D01*
X92323507Y-100804355D01*
X92313215Y-100800609D01*
X92109191Y-100745941D01*
X92098396Y-100744038D01*
X91887975Y-100725628D01*
X91877025Y-100725628D01*
X91666604Y-100744038D01*
X91655809Y-100745941D01*
X91451785Y-100800609D01*
X91441493Y-100804355D01*
X91250059Y-100893623D01*
X91240568Y-100899103D01*
X91196735Y-100929794D01*
X91188360Y-100940271D01*
X88986176Y-100940271D01*
X88682849Y-100636944D01*
X86270405Y-98224500D01*
X86236379Y-98162188D01*
X86233500Y-98135405D01*
X86233500Y-95302524D01*
X86253502Y-95234403D01*
X86265858Y-95218221D01*
X86339040Y-95136944D01*
X86411528Y-95011392D01*
X86431223Y-94977279D01*
X86431224Y-94977278D01*
X86434527Y-94971556D01*
X86493542Y-94789928D01*
X86494856Y-94777432D01*
X86512814Y-94606565D01*
X86513504Y-94600000D01*
X86509191Y-94558965D01*
X86494232Y-94416635D01*
X86494232Y-94416633D01*
X86493542Y-94410072D01*
X86434527Y-94228444D01*
X86388076Y-94147988D01*
X86371338Y-94078994D01*
X86394558Y-94011902D01*
X86450365Y-93968015D01*
X86497195Y-93958989D01*
X87467289Y-93958989D01*
X87535410Y-93978991D01*
X87554636Y-93995332D01*
X87554909Y-93995029D01*
X87559821Y-93999452D01*
X87564236Y-94004355D01*
X87569575Y-94008234D01*
X87688892Y-94094923D01*
X87718737Y-94116607D01*
X87724765Y-94119291D01*
X87724767Y-94119292D01*
X87883181Y-94189822D01*
X87893201Y-94194283D01*
X87972121Y-94211058D01*
X88073545Y-94232617D01*
X88073550Y-94232617D01*
X88080002Y-94233989D01*
X88270976Y-94233989D01*
X88277428Y-94232617D01*
X88277433Y-94232617D01*
X88378859Y-94211058D01*
X88449650Y-94216460D01*
X88503802Y-94256041D01*
X88617206Y-94399123D01*
X88617211Y-94399128D01*
X88621035Y-94403953D01*
X88625728Y-94407947D01*
X88625729Y-94407948D01*
X88683056Y-94456737D01*
X88722389Y-94517535D01*
X88724977Y-94526442D01*
X88728987Y-94545806D01*
X88731526Y-94565903D01*
X88734445Y-94573274D01*
X88734445Y-94573276D01*
X88747804Y-94607018D01*
X88751649Y-94618248D01*
X88763982Y-94660699D01*
X88764411Y-94661424D01*
X88772721Y-94728754D01*
X88741944Y-94792733D01*
X88727350Y-94806520D01*
X88640975Y-94875968D01*
X88513846Y-95027474D01*
X88510879Y-95032872D01*
X88510875Y-95032877D01*
X88491141Y-95068774D01*
X88418567Y-95200787D01*
X88416706Y-95206654D01*
X88416705Y-95206656D01*
X88360627Y-95383436D01*
X88358765Y-95389306D01*
X88336719Y-95585851D01*
X88337235Y-95591995D01*
X88352500Y-95773782D01*
X88353268Y-95782934D01*
X88372415Y-95849707D01*
X88401709Y-95951866D01*
X88407783Y-95973050D01*
X88410602Y-95978535D01*
X88492014Y-96136944D01*
X88498187Y-96148956D01*
X88621035Y-96303953D01*
X88625728Y-96307947D01*
X88625729Y-96307948D01*
X88754849Y-96417837D01*
X88771650Y-96432136D01*
X88944294Y-96528624D01*
X89132392Y-96589740D01*
X89328777Y-96613158D01*
X89334912Y-96612686D01*
X89334914Y-96612686D01*
X89377090Y-96609440D01*
X89399578Y-96607710D01*
X89469033Y-96622427D01*
X89498340Y-96644244D01*
X90446343Y-97592247D01*
X90453887Y-97600537D01*
X90458000Y-97607018D01*
X90463777Y-97612443D01*
X90507667Y-97653658D01*
X90510509Y-97656413D01*
X90530231Y-97676135D01*
X90533373Y-97678572D01*
X90533433Y-97678619D01*
X90542445Y-97686317D01*
X90558319Y-97701223D01*
X90574679Y-97716586D01*
X90590594Y-97725335D01*
X90592431Y-97726345D01*
X90608953Y-97737198D01*
X90624959Y-97749614D01*
X90632237Y-97752764D01*
X90632238Y-97752764D01*
X90665537Y-97767174D01*
X90676187Y-97772391D01*
X90714940Y-97793695D01*
X90722615Y-97795666D01*
X90722616Y-97795666D01*
X90734562Y-97798733D01*
X90753266Y-97805137D01*
X90759908Y-97808011D01*
X90771855Y-97813181D01*
X90779678Y-97814420D01*
X90779688Y-97814423D01*
X90815524Y-97820099D01*
X90827144Y-97822505D01*
X90854803Y-97829606D01*
X90869970Y-97833500D01*
X90890224Y-97833500D01*
X90909934Y-97835051D01*
X90929943Y-97838220D01*
X90937835Y-97837474D01*
X90973961Y-97834059D01*
X90985819Y-97833500D01*
X92366800Y-97833500D01*
X92434921Y-97853502D01*
X92454147Y-97869843D01*
X92454420Y-97869540D01*
X92459332Y-97873963D01*
X92463747Y-97878866D01*
X92472190Y-97885000D01*
X92607660Y-97983425D01*
X92618248Y-97991118D01*
X92624276Y-97993802D01*
X92624278Y-97993803D01*
X92751802Y-98050580D01*
X92792712Y-98068794D01*
X92881036Y-98087568D01*
X92973056Y-98107128D01*
X92973061Y-98107128D01*
X92979513Y-98108500D01*
X93170487Y-98108500D01*
X93176939Y-98107128D01*
X93176944Y-98107128D01*
X93268964Y-98087568D01*
X93357288Y-98068794D01*
X93398198Y-98050580D01*
X93525722Y-97993803D01*
X93525724Y-97993802D01*
X93531752Y-97991118D01*
X93542341Y-97983425D01*
X93587799Y-97950397D01*
X93686253Y-97878866D01*
X93694650Y-97869540D01*
X93809621Y-97741852D01*
X93809622Y-97741851D01*
X93814040Y-97736944D01*
X93889053Y-97607018D01*
X93906223Y-97577279D01*
X93906224Y-97577278D01*
X93909527Y-97571556D01*
X93968542Y-97389928D01*
X93970140Y-97374729D01*
X93987814Y-97206565D01*
X93988504Y-97200000D01*
X93974425Y-97066045D01*
X93969232Y-97016635D01*
X93969232Y-97016633D01*
X93968542Y-97010072D01*
X93909527Y-96828444D01*
X93896241Y-96805431D01*
X93835662Y-96700507D01*
X93814040Y-96663056D01*
X93800106Y-96647580D01*
X93690675Y-96526045D01*
X93690674Y-96526044D01*
X93686253Y-96521134D01*
X93659829Y-96501935D01*
X93616475Y-96445714D01*
X93610399Y-96374978D01*
X93643531Y-96312186D01*
X93659829Y-96298064D01*
X93680909Y-96282749D01*
X93680911Y-96282747D01*
X93686253Y-96278866D01*
X93719848Y-96241555D01*
X93809621Y-96141852D01*
X93809622Y-96141851D01*
X93814040Y-96136944D01*
X93909527Y-95971556D01*
X93968542Y-95789928D01*
X93983851Y-95644276D01*
X93987814Y-95606565D01*
X93988504Y-95600000D01*
X93983184Y-95549385D01*
X93969232Y-95416635D01*
X93969232Y-95416633D01*
X93968542Y-95410072D01*
X93909527Y-95228444D01*
X93814040Y-95063056D01*
X93760367Y-95003446D01*
X93729649Y-94939439D01*
X93738414Y-94868985D01*
X93783877Y-94814454D01*
X93802753Y-94804030D01*
X93825717Y-94793805D01*
X93831752Y-94791118D01*
X93850496Y-94777500D01*
X93980914Y-94682745D01*
X93986253Y-94678866D01*
X93990668Y-94673963D01*
X93995580Y-94669540D01*
X93996705Y-94670789D01*
X94050014Y-94637949D01*
X94083200Y-94633500D01*
X94160405Y-94633500D01*
X94228526Y-94653502D01*
X94249500Y-94670404D01*
X94362460Y-94783365D01*
X94467729Y-94888634D01*
X94467744Y-94888648D01*
X95352878Y-95773782D01*
X95386904Y-95836094D01*
X95389092Y-95849703D01*
X95394120Y-95897540D01*
X95401434Y-95967123D01*
X95406458Y-96014928D01*
X95465473Y-96196556D01*
X95468776Y-96202278D01*
X95468777Y-96202279D01*
X95489932Y-96238920D01*
X95560960Y-96361944D01*
X95565378Y-96366851D01*
X95565379Y-96366852D01*
X95684325Y-96498955D01*
X95688747Y-96503866D01*
X95774955Y-96566500D01*
X95834770Y-96609958D01*
X95843248Y-96616118D01*
X95849276Y-96618802D01*
X95849278Y-96618803D01*
X95965983Y-96670763D01*
X96017712Y-96693794D01*
X96024168Y-96695166D01*
X96030452Y-96697208D01*
X96029652Y-96699670D01*
X96082429Y-96728333D01*
X97166826Y-97812731D01*
X98246359Y-98892264D01*
X98253899Y-98900550D01*
X98258011Y-98907029D01*
X98263788Y-98912454D01*
X98307662Y-98953654D01*
X98310504Y-98956409D01*
X98330241Y-98976146D01*
X98333438Y-98978626D01*
X98342458Y-98986329D01*
X98374690Y-99016597D01*
X98381636Y-99020416D01*
X98381639Y-99020418D01*
X98392445Y-99026359D01*
X98408964Y-99037210D01*
X98424970Y-99049625D01*
X98432239Y-99052770D01*
X98432243Y-99052773D01*
X98465548Y-99067185D01*
X98476198Y-99072402D01*
X98514951Y-99093706D01*
X98522626Y-99095677D01*
X98522627Y-99095677D01*
X98534573Y-99098744D01*
X98553278Y-99105148D01*
X98571866Y-99113192D01*
X98579689Y-99114431D01*
X98579699Y-99114434D01*
X98615535Y-99120110D01*
X98627155Y-99122516D01*
X98660158Y-99130989D01*
X98669981Y-99133511D01*
X98690235Y-99133511D01*
X98709945Y-99135062D01*
X98729954Y-99138231D01*
X98737846Y-99137485D01*
X98773972Y-99134070D01*
X98785830Y-99133511D01*
X98935417Y-99133511D01*
X99003538Y-99153513D01*
X99024512Y-99170416D01*
X100646343Y-100792247D01*
X100653887Y-100800537D01*
X100658000Y-100807018D01*
X100663777Y-100812443D01*
X100707667Y-100853658D01*
X100710509Y-100856413D01*
X100730230Y-100876134D01*
X100733425Y-100878612D01*
X100742447Y-100886318D01*
X100774679Y-100916586D01*
X100781628Y-100920406D01*
X100792432Y-100926346D01*
X100808956Y-100937199D01*
X100824959Y-100949613D01*
X100865543Y-100967176D01*
X100876173Y-100972383D01*
X100914940Y-100993695D01*
X100922617Y-100995666D01*
X100922622Y-100995668D01*
X100934558Y-100998732D01*
X100953266Y-101005137D01*
X100971855Y-101013181D01*
X100979683Y-101014421D01*
X100979690Y-101014423D01*
X101015524Y-101020099D01*
X101027144Y-101022505D01*
X101062289Y-101031528D01*
X101069970Y-101033500D01*
X101090224Y-101033500D01*
X101109934Y-101035051D01*
X101129943Y-101038220D01*
X101137835Y-101037474D01*
X101173961Y-101034059D01*
X101185819Y-101033500D01*
X102403305Y-101033500D01*
X102454554Y-101044393D01*
X102567712Y-101094774D01*
X102634640Y-101109000D01*
X102748056Y-101133108D01*
X102748061Y-101133108D01*
X102754513Y-101134480D01*
X102945487Y-101134480D01*
X102951939Y-101133108D01*
X102951944Y-101133108D01*
X103065360Y-101109000D01*
X103132288Y-101094774D01*
X103186436Y-101070666D01*
X103300722Y-101019783D01*
X103300724Y-101019782D01*
X103306752Y-101017098D01*
X103312144Y-101013181D01*
X103406326Y-100944753D01*
X103461253Y-100904846D01*
X103480699Y-100883249D01*
X103584621Y-100767832D01*
X103584622Y-100767831D01*
X103589040Y-100762924D01*
X103684527Y-100597536D01*
X103739219Y-100429213D01*
X103741501Y-100422190D01*
X103741501Y-100422189D01*
X103743542Y-100415908D01*
X103744232Y-100409344D01*
X103744454Y-100408299D01*
X103778185Y-100345826D01*
X103840335Y-100311507D01*
X103867700Y-100308500D01*
X103895487Y-100308500D01*
X103901939Y-100307128D01*
X103901944Y-100307128D01*
X103988888Y-100288647D01*
X104082288Y-100268794D01*
X104091086Y-100264877D01*
X104250722Y-100193803D01*
X104250724Y-100193802D01*
X104256752Y-100191118D01*
X104411253Y-100078866D01*
X104423976Y-100064736D01*
X104534621Y-99941852D01*
X104534622Y-99941851D01*
X104539040Y-99936944D01*
X104585471Y-99856523D01*
X104636853Y-99807530D01*
X104706567Y-99794094D01*
X104772478Y-99820480D01*
X104810016Y-99869208D01*
X104812038Y-99876169D01*
X104816075Y-99882995D01*
X104822349Y-99893604D01*
X104831044Y-99911352D01*
X104838504Y-99930193D01*
X104843166Y-99936609D01*
X104843166Y-99936610D01*
X104864492Y-99965963D01*
X104871008Y-99975883D01*
X104893514Y-100013938D01*
X104907835Y-100028259D01*
X104920675Y-100043292D01*
X104932584Y-100059683D01*
X104938692Y-100064736D01*
X104966654Y-100087868D01*
X104975434Y-100095858D01*
X105028858Y-100149282D01*
X105062884Y-100211594D01*
X105065073Y-100225207D01*
X105076155Y-100330644D01*
X105082438Y-100390428D01*
X105141453Y-100572056D01*
X105236940Y-100737444D01*
X105241358Y-100742351D01*
X105241359Y-100742352D01*
X105358172Y-100872086D01*
X105364727Y-100879366D01*
X105429389Y-100926346D01*
X105488827Y-100969530D01*
X105519228Y-100991618D01*
X105525256Y-100994302D01*
X105525258Y-100994303D01*
X105623898Y-101038220D01*
X105693692Y-101069294D01*
X105787092Y-101089147D01*
X105874036Y-101107628D01*
X105874041Y-101107628D01*
X105880493Y-101109000D01*
X106071467Y-101109000D01*
X106077919Y-101107628D01*
X106077924Y-101107628D01*
X106164867Y-101089147D01*
X106258268Y-101069294D01*
X106328062Y-101038220D01*
X106426702Y-100994303D01*
X106426704Y-100994302D01*
X106432732Y-100991618D01*
X106463134Y-100969530D01*
X106522571Y-100926346D01*
X106587233Y-100879366D01*
X106593788Y-100872086D01*
X106710601Y-100742352D01*
X106710602Y-100742351D01*
X106715020Y-100737444D01*
X106810507Y-100572056D01*
X106869522Y-100390428D01*
X106875806Y-100330644D01*
X106888794Y-100207065D01*
X106889484Y-100200500D01*
X106884101Y-100149282D01*
X106870212Y-100017135D01*
X106870212Y-100017133D01*
X106869522Y-100010572D01*
X106810507Y-99828944D01*
X106803401Y-99816635D01*
X106738082Y-99703501D01*
X106715020Y-99663556D01*
X106708643Y-99656473D01*
X106591655Y-99526545D01*
X106591654Y-99526544D01*
X106587233Y-99521634D01*
X106466562Y-99433961D01*
X106438074Y-99413263D01*
X106438073Y-99413262D01*
X106432732Y-99409382D01*
X106426704Y-99406698D01*
X106426702Y-99406697D01*
X106264299Y-99334391D01*
X106264298Y-99334391D01*
X106258268Y-99331706D01*
X106131357Y-99304730D01*
X106068886Y-99271003D01*
X106034564Y-99208853D01*
X106031556Y-99181484D01*
X106031556Y-98332670D01*
X107532160Y-98332670D01*
X107537887Y-98340320D01*
X107709042Y-98445205D01*
X107717837Y-98449687D01*
X107927988Y-98536734D01*
X107937373Y-98539783D01*
X108158554Y-98592885D01*
X108168301Y-98594428D01*
X108395070Y-98612275D01*
X108404930Y-98612275D01*
X108631699Y-98594428D01*
X108641446Y-98592885D01*
X108862627Y-98539783D01*
X108872012Y-98536734D01*
X109082163Y-98449687D01*
X109090958Y-98445205D01*
X109258445Y-98342568D01*
X109267907Y-98332110D01*
X109264124Y-98323334D01*
X108412812Y-97472022D01*
X108398868Y-97464408D01*
X108397035Y-97464539D01*
X108390420Y-97468790D01*
X107538920Y-98320290D01*
X107532160Y-98332670D01*
X106031556Y-98332670D01*
X106031556Y-98050580D01*
X106051558Y-97982459D01*
X106063914Y-97966277D01*
X106137096Y-97885000D01*
X106232583Y-97719612D01*
X106291598Y-97537984D01*
X106298871Y-97468790D01*
X106310870Y-97354621D01*
X106311560Y-97348056D01*
X106303683Y-97273106D01*
X106295703Y-97197181D01*
X106308475Y-97127343D01*
X106356977Y-97075496D01*
X106421013Y-97058011D01*
X106767559Y-97058011D01*
X106835680Y-97078013D01*
X106882173Y-97131669D01*
X106893171Y-97174126D01*
X106905572Y-97331698D01*
X106907115Y-97341446D01*
X106960217Y-97562627D01*
X106963266Y-97572012D01*
X107050313Y-97782163D01*
X107054795Y-97790958D01*
X107157432Y-97958445D01*
X107167890Y-97967907D01*
X107176666Y-97964124D01*
X108310905Y-96829885D01*
X108373217Y-96795859D01*
X108444032Y-96800924D01*
X108489095Y-96829885D01*
X109620290Y-97961080D01*
X109632670Y-97967840D01*
X109640320Y-97962113D01*
X109745205Y-97790958D01*
X109749687Y-97782163D01*
X109760315Y-97756504D01*
X109804863Y-97701223D01*
X109872226Y-97678802D01*
X109941018Y-97696360D01*
X109965818Y-97715626D01*
X110946174Y-98695983D01*
X111917933Y-99667742D01*
X111925473Y-99676028D01*
X111929585Y-99682507D01*
X111935362Y-99687932D01*
X111979236Y-99729132D01*
X111982078Y-99731887D01*
X112001815Y-99751624D01*
X112005012Y-99754104D01*
X112014032Y-99761807D01*
X112046264Y-99792075D01*
X112053210Y-99795894D01*
X112053213Y-99795896D01*
X112064019Y-99801837D01*
X112080538Y-99812688D01*
X112096544Y-99825103D01*
X112103813Y-99828248D01*
X112103817Y-99828251D01*
X112137122Y-99842663D01*
X112147772Y-99847880D01*
X112186525Y-99869184D01*
X112194200Y-99871155D01*
X112194201Y-99871155D01*
X112206147Y-99874222D01*
X112224851Y-99880626D01*
X112230326Y-99882995D01*
X112243440Y-99888670D01*
X112251263Y-99889909D01*
X112251273Y-99889912D01*
X112287109Y-99895588D01*
X112298729Y-99897994D01*
X112333874Y-99907017D01*
X112341555Y-99908989D01*
X112361809Y-99908989D01*
X112381519Y-99910540D01*
X112401528Y-99913709D01*
X112409420Y-99912963D01*
X112445546Y-99909548D01*
X112457404Y-99908989D01*
X112913479Y-99908989D01*
X112981600Y-99928991D01*
X113028093Y-99982647D01*
X113038789Y-100021818D01*
X113049406Y-100122830D01*
X113036634Y-100192669D01*
X112988132Y-100244515D01*
X112924096Y-100262001D01*
X112502905Y-100262001D01*
X112496386Y-100262338D01*
X112400794Y-100272257D01*
X112387400Y-100275149D01*
X112233216Y-100326588D01*
X112220038Y-100332761D01*
X112082193Y-100418063D01*
X112070792Y-100427099D01*
X111956261Y-100541829D01*
X111947249Y-100553240D01*
X111862184Y-100691243D01*
X111856037Y-100704424D01*
X111804862Y-100858710D01*
X111801995Y-100872086D01*
X111792328Y-100966438D01*
X111792000Y-100972855D01*
X111792000Y-101297885D01*
X111796475Y-101313124D01*
X111797865Y-101314329D01*
X111805548Y-101316000D01*
X115789884Y-101316000D01*
X115805123Y-101311525D01*
X115806328Y-101310135D01*
X115807999Y-101302452D01*
X115807999Y-100972905D01*
X115807662Y-100966386D01*
X115797743Y-100870794D01*
X115794851Y-100857400D01*
X115743412Y-100703216D01*
X115737239Y-100690038D01*
X115651937Y-100552193D01*
X115642901Y-100540792D01*
X115528171Y-100426261D01*
X115516760Y-100417249D01*
X115378757Y-100332184D01*
X115365576Y-100326037D01*
X115211290Y-100274862D01*
X115197914Y-100271995D01*
X115103562Y-100262328D01*
X115097145Y-100262000D01*
X114975904Y-100262000D01*
X114907783Y-100241998D01*
X114861290Y-100188342D01*
X114850594Y-100122829D01*
X114852994Y-100100000D01*
X114863504Y-100000000D01*
X114859927Y-99965963D01*
X114844232Y-99816635D01*
X114844232Y-99816633D01*
X114843542Y-99810072D01*
X114784527Y-99628444D01*
X114689040Y-99463056D01*
X114661237Y-99432177D01*
X114565675Y-99326045D01*
X114565674Y-99326044D01*
X114561253Y-99321134D01*
X114441174Y-99233891D01*
X114412094Y-99212763D01*
X114412093Y-99212762D01*
X114406752Y-99208882D01*
X114400723Y-99206198D01*
X114400720Y-99206196D01*
X114266056Y-99146241D01*
X114228208Y-99120229D01*
X114110429Y-99002449D01*
X114057980Y-98950000D01*
X115986496Y-98950000D01*
X115987186Y-98956565D01*
X116004473Y-99121038D01*
X116006458Y-99139928D01*
X116065473Y-99321556D01*
X116068776Y-99327278D01*
X116068777Y-99327279D01*
X116085252Y-99355814D01*
X116114630Y-99406697D01*
X116124619Y-99423999D01*
X116141500Y-99486999D01*
X116141500Y-100079148D01*
X116132368Y-100126242D01*
X116123402Y-100148489D01*
X116115490Y-100200500D01*
X116099060Y-100308500D01*
X116096801Y-100323349D01*
X116097394Y-100330641D01*
X116097394Y-100330644D01*
X116098629Y-100345826D01*
X116111140Y-100499637D01*
X116113394Y-100506596D01*
X116113395Y-100506599D01*
X116155621Y-100636944D01*
X116165649Y-100667899D01*
X116169445Y-100674155D01*
X116169448Y-100674161D01*
X116201381Y-100726785D01*
X116219620Y-100795399D01*
X116213256Y-100831814D01*
X116202203Y-100865139D01*
X116191500Y-100969600D01*
X116191500Y-102170400D01*
X116191837Y-102173646D01*
X116191837Y-102173650D01*
X116201752Y-102269206D01*
X116202474Y-102276166D01*
X116258450Y-102443946D01*
X116351522Y-102594348D01*
X116476697Y-102719305D01*
X116482927Y-102723145D01*
X116482928Y-102723146D01*
X116620288Y-102807816D01*
X116627262Y-102812115D01*
X116662124Y-102823678D01*
X116788611Y-102865632D01*
X116788613Y-102865632D01*
X116795139Y-102867797D01*
X116801975Y-102868497D01*
X116801978Y-102868498D01*
X116845031Y-102872909D01*
X116899600Y-102878500D01*
X119500400Y-102878500D01*
X119503646Y-102878163D01*
X119503650Y-102878163D01*
X119599308Y-102868238D01*
X119599312Y-102868237D01*
X119606166Y-102867526D01*
X119612702Y-102865345D01*
X119612704Y-102865345D01*
X119762796Y-102815270D01*
X119773946Y-102811550D01*
X119884105Y-102743381D01*
X119952554Y-102724544D01*
X120016522Y-102743266D01*
X120121243Y-102807816D01*
X120134424Y-102813963D01*
X120288710Y-102865138D01*
X120302086Y-102868005D01*
X120396438Y-102877672D01*
X120402854Y-102878000D01*
X121427885Y-102878000D01*
X121443124Y-102873525D01*
X121444329Y-102872135D01*
X121446000Y-102864452D01*
X121446000Y-102859884D01*
X121954000Y-102859884D01*
X121958475Y-102875123D01*
X121959865Y-102876328D01*
X121967548Y-102877999D01*
X122997095Y-102877999D01*
X123003614Y-102877662D01*
X123099206Y-102867743D01*
X123112600Y-102864851D01*
X123266784Y-102813412D01*
X123279962Y-102807239D01*
X123417807Y-102721937D01*
X123429208Y-102712901D01*
X123543739Y-102598171D01*
X123552751Y-102586760D01*
X123637816Y-102448757D01*
X123643963Y-102435576D01*
X123695138Y-102281290D01*
X123698005Y-102267914D01*
X123707672Y-102173562D01*
X123708000Y-102167146D01*
X123708000Y-101842115D01*
X123703525Y-101826876D01*
X123702135Y-101825671D01*
X123694452Y-101824000D01*
X121972115Y-101824000D01*
X121956876Y-101828475D01*
X121955671Y-101829865D01*
X121954000Y-101837548D01*
X121954000Y-102859884D01*
X121446000Y-102859884D01*
X121446000Y-101297885D01*
X121954000Y-101297885D01*
X121958475Y-101313124D01*
X121959865Y-101314329D01*
X121967548Y-101316000D01*
X123689884Y-101316000D01*
X123705123Y-101311525D01*
X123706328Y-101310135D01*
X123707999Y-101302452D01*
X123707999Y-100972905D01*
X123707662Y-100966386D01*
X123697743Y-100870794D01*
X123694851Y-100857400D01*
X123643412Y-100703216D01*
X123637239Y-100690038D01*
X123551937Y-100552193D01*
X123542901Y-100540792D01*
X123428171Y-100426261D01*
X123416760Y-100417249D01*
X123278757Y-100332184D01*
X123265576Y-100326037D01*
X123111290Y-100274862D01*
X123097914Y-100271995D01*
X123003562Y-100262328D01*
X122997145Y-100262000D01*
X121972115Y-100262000D01*
X121956876Y-100266475D01*
X121955671Y-100267865D01*
X121954000Y-100275548D01*
X121954000Y-101297885D01*
X121446000Y-101297885D01*
X121446000Y-100280116D01*
X121441525Y-100264877D01*
X121440135Y-100263672D01*
X121419217Y-100259122D01*
X121419661Y-100257082D01*
X121368293Y-100241999D01*
X121321800Y-100188343D01*
X121311105Y-100122828D01*
X121312814Y-100106571D01*
X121312814Y-100106565D01*
X121313504Y-100100000D01*
X121296882Y-99941852D01*
X121294232Y-99916635D01*
X121294232Y-99916633D01*
X121293542Y-99910072D01*
X121234527Y-99728444D01*
X121139040Y-99563056D01*
X121130963Y-99554085D01*
X121015675Y-99426045D01*
X121015674Y-99426044D01*
X121011253Y-99421134D01*
X120891862Y-99334391D01*
X120862094Y-99312763D01*
X120862093Y-99312762D01*
X120856752Y-99308882D01*
X120850724Y-99306198D01*
X120850722Y-99306197D01*
X120688319Y-99233891D01*
X120688318Y-99233891D01*
X120682288Y-99231206D01*
X120582861Y-99210072D01*
X120501944Y-99192872D01*
X120501939Y-99192872D01*
X120495487Y-99191500D01*
X120304513Y-99191500D01*
X120298061Y-99192872D01*
X120298056Y-99192872D01*
X120217139Y-99210072D01*
X120117712Y-99231206D01*
X120111682Y-99233891D01*
X120111681Y-99233891D01*
X119949278Y-99306197D01*
X119949276Y-99306198D01*
X119943248Y-99308882D01*
X119937909Y-99312761D01*
X119937902Y-99312765D01*
X119931472Y-99317437D01*
X119857413Y-99341500D01*
X118231693Y-99341500D01*
X118192756Y-99335333D01*
X118188319Y-99333891D01*
X118182288Y-99331206D01*
X118175836Y-99329834D01*
X118175831Y-99329833D01*
X118001944Y-99292872D01*
X118001939Y-99292872D01*
X117995487Y-99291500D01*
X117916216Y-99291500D01*
X117848095Y-99271498D01*
X117801602Y-99217842D01*
X117791498Y-99147568D01*
X117792029Y-99144584D01*
X117793542Y-99139928D01*
X117813504Y-98950000D01*
X117810748Y-98923777D01*
X117794232Y-98766635D01*
X117794232Y-98766633D01*
X117793542Y-98760072D01*
X117734527Y-98578444D01*
X117727033Y-98565463D01*
X117688359Y-98498479D01*
X117639040Y-98413056D01*
X117618199Y-98389909D01*
X117515675Y-98276045D01*
X117515674Y-98276044D01*
X117511253Y-98271134D01*
X117356752Y-98158882D01*
X117350724Y-98156198D01*
X117350722Y-98156197D01*
X117188319Y-98083891D01*
X117188318Y-98083891D01*
X117182288Y-98081206D01*
X117088887Y-98061353D01*
X117010398Y-98044669D01*
X118992001Y-98044669D01*
X118992371Y-98051490D01*
X118997895Y-98102352D01*
X119001521Y-98117604D01*
X119046676Y-98238054D01*
X119055214Y-98253649D01*
X119131715Y-98355724D01*
X119144276Y-98368285D01*
X119246351Y-98444786D01*
X119261946Y-98453324D01*
X119382394Y-98498478D01*
X119397649Y-98502105D01*
X119448514Y-98507631D01*
X119455328Y-98508000D01*
X120227885Y-98508000D01*
X120243124Y-98503525D01*
X120244329Y-98502135D01*
X120246000Y-98494452D01*
X120246000Y-98489884D01*
X120754000Y-98489884D01*
X120758475Y-98505123D01*
X120759865Y-98506328D01*
X120767548Y-98507999D01*
X121544669Y-98507999D01*
X121551490Y-98507629D01*
X121602352Y-98502105D01*
X121617604Y-98498479D01*
X121738054Y-98453324D01*
X121753649Y-98444786D01*
X121855724Y-98368285D01*
X121868285Y-98355724D01*
X121944786Y-98253649D01*
X121953324Y-98238054D01*
X121998478Y-98117606D01*
X122002105Y-98102351D01*
X122007631Y-98051486D01*
X122008000Y-98044672D01*
X122008000Y-97272115D01*
X122003525Y-97256876D01*
X122002135Y-97255671D01*
X121994452Y-97254000D01*
X120772115Y-97254000D01*
X120756876Y-97258475D01*
X120755671Y-97259865D01*
X120754000Y-97267548D01*
X120754000Y-98489884D01*
X120246000Y-98489884D01*
X120246000Y-97272115D01*
X120241525Y-97256876D01*
X120240135Y-97255671D01*
X120232452Y-97254000D01*
X119010116Y-97254000D01*
X118994877Y-97258475D01*
X118993672Y-97259865D01*
X118992001Y-97267548D01*
X118992001Y-98044669D01*
X117010398Y-98044669D01*
X117001944Y-98042872D01*
X117001939Y-98042872D01*
X116995487Y-98041500D01*
X116804513Y-98041500D01*
X116798061Y-98042872D01*
X116798056Y-98042872D01*
X116711113Y-98061353D01*
X116617712Y-98081206D01*
X116611682Y-98083891D01*
X116611681Y-98083891D01*
X116449278Y-98156197D01*
X116449276Y-98156198D01*
X116443248Y-98158882D01*
X116288747Y-98271134D01*
X116284326Y-98276044D01*
X116284325Y-98276045D01*
X116181802Y-98389909D01*
X116160960Y-98413056D01*
X116111641Y-98498479D01*
X116072968Y-98565463D01*
X116065473Y-98578444D01*
X116006458Y-98760072D01*
X116005768Y-98766633D01*
X116005768Y-98766635D01*
X115989252Y-98923777D01*
X115986496Y-98950000D01*
X114057980Y-98950000D01*
X113991211Y-98883231D01*
X113983677Y-98874952D01*
X113979564Y-98868471D01*
X113929912Y-98821845D01*
X113927071Y-98819091D01*
X113907334Y-98799354D01*
X113904137Y-98796874D01*
X113895115Y-98789169D01*
X113868664Y-98764330D01*
X113862885Y-98758903D01*
X113855939Y-98755084D01*
X113855936Y-98755082D01*
X113845130Y-98749141D01*
X113828611Y-98738290D01*
X113828147Y-98737930D01*
X113812605Y-98725875D01*
X113805336Y-98722730D01*
X113805332Y-98722727D01*
X113772027Y-98708315D01*
X113761377Y-98703098D01*
X113722624Y-98681794D01*
X113703001Y-98676756D01*
X113684298Y-98670352D01*
X113672984Y-98665456D01*
X113672983Y-98665456D01*
X113665709Y-98662308D01*
X113657886Y-98661069D01*
X113657876Y-98661066D01*
X113622040Y-98655390D01*
X113610420Y-98652984D01*
X113575275Y-98643961D01*
X113575274Y-98643961D01*
X113567594Y-98641989D01*
X113547340Y-98641989D01*
X113527629Y-98640438D01*
X113515450Y-98638509D01*
X113507621Y-98637269D01*
X113499729Y-98638015D01*
X113463603Y-98641430D01*
X113451745Y-98641989D01*
X112736179Y-98641989D01*
X112668058Y-98621987D01*
X112647084Y-98605084D01*
X112374670Y-98332670D01*
X114032160Y-98332670D01*
X114037887Y-98340320D01*
X114209042Y-98445205D01*
X114217837Y-98449687D01*
X114427988Y-98536734D01*
X114437373Y-98539783D01*
X114658554Y-98592885D01*
X114668301Y-98594428D01*
X114895070Y-98612275D01*
X114904930Y-98612275D01*
X115131699Y-98594428D01*
X115141446Y-98592885D01*
X115362627Y-98539783D01*
X115372012Y-98536734D01*
X115582163Y-98449687D01*
X115590958Y-98445205D01*
X115758445Y-98342568D01*
X115767907Y-98332110D01*
X115764124Y-98323334D01*
X114912812Y-97472022D01*
X114898868Y-97464408D01*
X114897035Y-97464539D01*
X114890420Y-97468790D01*
X114038920Y-98320290D01*
X114032160Y-98332670D01*
X112374670Y-98332670D01*
X111146931Y-97104930D01*
X113387725Y-97104930D01*
X113405572Y-97331699D01*
X113407115Y-97341446D01*
X113460217Y-97562627D01*
X113463266Y-97572012D01*
X113550313Y-97782163D01*
X113554795Y-97790958D01*
X113657432Y-97958445D01*
X113667890Y-97967907D01*
X113676666Y-97964124D01*
X114527978Y-97112812D01*
X114534356Y-97101132D01*
X115264408Y-97101132D01*
X115264539Y-97102965D01*
X115268790Y-97109580D01*
X116120290Y-97961080D01*
X116132670Y-97967840D01*
X116140320Y-97962113D01*
X116245205Y-97790958D01*
X116249687Y-97782163D01*
X116336734Y-97572012D01*
X116339783Y-97562627D01*
X116392885Y-97341446D01*
X116394428Y-97331699D01*
X116412275Y-97104930D01*
X116412275Y-97095070D01*
X116394428Y-96868301D01*
X116392885Y-96858554D01*
X116361513Y-96727885D01*
X118992000Y-96727885D01*
X118996475Y-96743124D01*
X118997865Y-96744329D01*
X119005548Y-96746000D01*
X120227885Y-96746000D01*
X120243124Y-96741525D01*
X120244329Y-96740135D01*
X120246000Y-96732452D01*
X120246000Y-96727885D01*
X120754000Y-96727885D01*
X120758475Y-96743124D01*
X120759865Y-96744329D01*
X120767548Y-96746000D01*
X121989884Y-96746000D01*
X122005123Y-96741525D01*
X122006328Y-96740135D01*
X122007999Y-96732452D01*
X122007999Y-95955331D01*
X122007629Y-95948510D01*
X122002105Y-95897648D01*
X121998479Y-95882396D01*
X121953324Y-95761946D01*
X121944786Y-95746351D01*
X121868285Y-95644276D01*
X121855724Y-95631715D01*
X121753649Y-95555214D01*
X121738054Y-95546676D01*
X121617606Y-95501522D01*
X121602351Y-95497895D01*
X121551486Y-95492369D01*
X121544672Y-95492000D01*
X120772115Y-95492000D01*
X120756876Y-95496475D01*
X120755671Y-95497865D01*
X120754000Y-95505548D01*
X120754000Y-96727885D01*
X120246000Y-96727885D01*
X120246000Y-95510116D01*
X120241525Y-95494877D01*
X120240135Y-95493672D01*
X120232452Y-95492001D01*
X119455331Y-95492001D01*
X119448510Y-95492371D01*
X119397648Y-95497895D01*
X119382396Y-95501521D01*
X119261946Y-95546676D01*
X119246351Y-95555214D01*
X119144276Y-95631715D01*
X119131715Y-95644276D01*
X119055214Y-95746351D01*
X119046676Y-95761946D01*
X119001522Y-95882394D01*
X118997895Y-95897649D01*
X118992369Y-95948514D01*
X118992000Y-95955328D01*
X118992000Y-96727885D01*
X116361513Y-96727885D01*
X116339783Y-96637373D01*
X116336734Y-96627988D01*
X116249687Y-96417837D01*
X116245205Y-96409042D01*
X116142568Y-96241555D01*
X116132110Y-96232093D01*
X116123334Y-96235876D01*
X115272022Y-97087188D01*
X115264408Y-97101132D01*
X114534356Y-97101132D01*
X114535592Y-97098868D01*
X114535461Y-97097035D01*
X114531210Y-97090420D01*
X113679710Y-96238920D01*
X113667330Y-96232160D01*
X113659680Y-96237887D01*
X113554795Y-96409042D01*
X113550313Y-96417837D01*
X113463266Y-96627988D01*
X113460217Y-96637373D01*
X113407115Y-96858554D01*
X113405572Y-96868301D01*
X113387725Y-97095070D01*
X113387725Y-97104930D01*
X111146931Y-97104930D01*
X110324046Y-96282045D01*
X110290020Y-96219733D01*
X110295085Y-96148917D01*
X110319502Y-96108643D01*
X110339040Y-96086944D01*
X110415055Y-95955283D01*
X110431223Y-95927279D01*
X110431224Y-95927278D01*
X110434527Y-95921556D01*
X110451964Y-95867890D01*
X114032093Y-95867890D01*
X114035876Y-95876666D01*
X114887188Y-96727978D01*
X114901132Y-96735592D01*
X114902965Y-96735461D01*
X114909580Y-96731210D01*
X115761080Y-95879710D01*
X115767840Y-95867330D01*
X115762113Y-95859680D01*
X115590958Y-95754795D01*
X115582163Y-95750313D01*
X115372012Y-95663266D01*
X115362627Y-95660217D01*
X115141446Y-95607115D01*
X115131699Y-95605572D01*
X114904930Y-95587725D01*
X114895070Y-95587725D01*
X114668301Y-95605572D01*
X114658554Y-95607115D01*
X114437373Y-95660217D01*
X114427988Y-95663266D01*
X114217837Y-95750313D01*
X114209042Y-95754795D01*
X114041555Y-95857432D01*
X114032093Y-95867890D01*
X110451964Y-95867890D01*
X110493542Y-95739928D01*
X110501600Y-95663266D01*
X110512814Y-95556565D01*
X110513504Y-95550000D01*
X110508357Y-95501029D01*
X110494232Y-95366635D01*
X110494232Y-95366633D01*
X110493542Y-95360072D01*
X110434527Y-95178444D01*
X110339040Y-95013056D01*
X110326443Y-94999065D01*
X110215675Y-94876045D01*
X110215674Y-94876044D01*
X110211253Y-94871134D01*
X110203184Y-94865271D01*
X110060267Y-94761436D01*
X110016913Y-94705214D01*
X110010838Y-94634477D01*
X110043969Y-94571686D01*
X110105790Y-94536774D01*
X110134328Y-94533500D01*
X117521233Y-94533500D01*
X117532416Y-94534027D01*
X117539909Y-94535702D01*
X117547835Y-94535453D01*
X117547836Y-94535453D01*
X117607986Y-94533562D01*
X117611945Y-94533500D01*
X117639856Y-94533500D01*
X117643791Y-94533003D01*
X117643856Y-94532995D01*
X117655693Y-94532062D01*
X117687951Y-94531048D01*
X117691970Y-94530922D01*
X117699889Y-94530673D01*
X117719343Y-94525021D01*
X117738700Y-94521013D01*
X117750930Y-94519468D01*
X117750931Y-94519468D01*
X117758797Y-94518474D01*
X117766168Y-94515555D01*
X117766170Y-94515555D01*
X117799912Y-94502196D01*
X117811142Y-94498351D01*
X117845983Y-94488229D01*
X117845984Y-94488229D01*
X117853593Y-94486018D01*
X117860412Y-94481985D01*
X117860417Y-94481983D01*
X117871028Y-94475707D01*
X117888776Y-94467012D01*
X117907617Y-94459552D01*
X117943387Y-94433564D01*
X117953307Y-94427048D01*
X117984535Y-94408580D01*
X117984538Y-94408578D01*
X117991362Y-94404542D01*
X118005683Y-94390221D01*
X118020717Y-94377380D01*
X118030694Y-94370131D01*
X118037107Y-94365472D01*
X118065298Y-94331395D01*
X118073288Y-94322616D01*
X118450499Y-93945405D01*
X118512811Y-93911379D01*
X118539594Y-93908500D01*
X118595487Y-93908500D01*
X118601939Y-93907128D01*
X118601944Y-93907128D01*
X118688887Y-93888647D01*
X118782288Y-93868794D01*
X118788319Y-93866109D01*
X118950722Y-93793803D01*
X118950724Y-93793802D01*
X118956752Y-93791118D01*
X118969458Y-93781887D01*
X119045662Y-93726521D01*
X119111253Y-93678866D01*
X119115675Y-93673955D01*
X119234621Y-93541852D01*
X119234622Y-93541851D01*
X119239040Y-93536944D01*
X119303094Y-93426000D01*
X119331223Y-93377279D01*
X119331224Y-93377278D01*
X119334527Y-93371556D01*
X119393542Y-93189928D01*
X119395976Y-93166775D01*
X119412814Y-93006565D01*
X119413504Y-93000000D01*
X119406535Y-92933695D01*
X119394232Y-92816635D01*
X119394232Y-92816633D01*
X119393542Y-92810072D01*
X119334527Y-92628444D01*
X119321353Y-92605625D01*
X119260947Y-92501000D01*
X119239040Y-92463056D01*
X119211174Y-92432107D01*
X119115675Y-92326045D01*
X119115674Y-92326044D01*
X119111253Y-92321134D01*
X118956752Y-92208882D01*
X118950726Y-92206199D01*
X118950719Y-92206195D01*
X118937019Y-92200096D01*
X118882923Y-92154116D01*
X118862273Y-92086189D01*
X118881625Y-92017881D01*
X118934835Y-91970879D01*
X118988267Y-91958989D01*
X120010895Y-91958989D01*
X120079016Y-91978991D01*
X120099990Y-91995894D01*
X122552878Y-94448782D01*
X122586904Y-94511094D01*
X122589092Y-94524703D01*
X122594198Y-94573276D01*
X122602630Y-94653502D01*
X122606458Y-94689928D01*
X122665473Y-94871556D01*
X122668776Y-94877278D01*
X122668777Y-94877279D01*
X122685520Y-94906279D01*
X122760960Y-95036944D01*
X122888747Y-95178866D01*
X123043248Y-95291118D01*
X123049276Y-95293802D01*
X123049278Y-95293803D01*
X123184021Y-95353794D01*
X123217712Y-95368794D01*
X123286597Y-95383436D01*
X123398056Y-95407128D01*
X123398061Y-95407128D01*
X123404513Y-95408500D01*
X123595487Y-95408500D01*
X123601939Y-95407128D01*
X123601944Y-95407128D01*
X123713403Y-95383436D01*
X123782288Y-95368794D01*
X123815979Y-95353794D01*
X123950722Y-95293803D01*
X123950724Y-95293802D01*
X123956752Y-95291118D01*
X124111253Y-95178866D01*
X124239040Y-95036944D01*
X124314480Y-94906279D01*
X124331223Y-94877279D01*
X124331224Y-94877278D01*
X124334527Y-94871556D01*
X124393542Y-94689928D01*
X124397371Y-94653502D01*
X124412814Y-94506565D01*
X124413504Y-94500000D01*
X124406521Y-94433564D01*
X124394232Y-94316635D01*
X124394232Y-94316633D01*
X124393542Y-94310072D01*
X124334527Y-94128444D01*
X124329955Y-94120524D01*
X124294585Y-94059263D01*
X124239040Y-93963056D01*
X124233603Y-93957017D01*
X124115675Y-93826045D01*
X124115674Y-93826044D01*
X124111253Y-93821134D01*
X123956752Y-93708882D01*
X123950724Y-93706198D01*
X123950722Y-93706197D01*
X123788319Y-93633891D01*
X123788318Y-93633891D01*
X123782288Y-93631206D01*
X123666362Y-93606565D01*
X123601944Y-93592872D01*
X123601939Y-93592872D01*
X123595487Y-93591500D01*
X123539594Y-93591500D01*
X123471473Y-93571498D01*
X123450499Y-93554595D01*
X122155147Y-92259242D01*
X120829141Y-90933236D01*
X120821601Y-90924950D01*
X120817489Y-90918471D01*
X120767837Y-90871845D01*
X120764996Y-90869091D01*
X120745259Y-90849354D01*
X120742062Y-90846874D01*
X120733040Y-90839169D01*
X120719605Y-90826553D01*
X120700810Y-90808903D01*
X120693864Y-90805084D01*
X120693861Y-90805082D01*
X120683055Y-90799141D01*
X120666536Y-90788290D01*
X120666072Y-90787930D01*
X120650530Y-90775875D01*
X120643261Y-90772730D01*
X120643257Y-90772727D01*
X120609952Y-90758315D01*
X120599302Y-90753098D01*
X120560549Y-90731794D01*
X120540926Y-90726756D01*
X120522223Y-90720352D01*
X120510909Y-90715456D01*
X120510908Y-90715456D01*
X120503634Y-90712308D01*
X120495811Y-90711069D01*
X120495801Y-90711066D01*
X120459965Y-90705390D01*
X120448345Y-90702984D01*
X120413200Y-90693961D01*
X120413199Y-90693961D01*
X120405519Y-90691989D01*
X120385265Y-90691989D01*
X120365554Y-90690438D01*
X120363023Y-90690037D01*
X120345546Y-90687269D01*
X120337654Y-90688015D01*
X120301528Y-90691430D01*
X120289670Y-90691989D01*
X119470814Y-90691989D01*
X119402693Y-90671987D01*
X119356200Y-90618331D01*
X119346096Y-90548057D01*
X119361693Y-90502993D01*
X119399859Y-90436888D01*
X119458874Y-90255260D01*
X119459740Y-90247026D01*
X119478146Y-90071897D01*
X119478836Y-90065332D01*
X119467643Y-89958840D01*
X119459564Y-89881967D01*
X119459564Y-89881965D01*
X119458874Y-89875404D01*
X119408309Y-89719782D01*
X119406281Y-89648816D01*
X119442944Y-89588018D01*
X119506656Y-89556693D01*
X119577190Y-89564785D01*
X119626886Y-89602581D01*
X119734894Y-89738854D01*
X119739581Y-89742843D01*
X119739584Y-89742846D01*
X119884161Y-89865890D01*
X119892976Y-89873392D01*
X120074180Y-89974664D01*
X120271603Y-90038810D01*
X120477725Y-90063389D01*
X120483860Y-90062917D01*
X120483862Y-90062917D01*
X120678555Y-90047936D01*
X120678560Y-90047935D01*
X120684696Y-90047463D01*
X120690626Y-90045807D01*
X120690628Y-90045807D01*
X120843336Y-90003170D01*
X120884632Y-89991640D01*
X120890132Y-89988862D01*
X121064416Y-89900825D01*
X121064418Y-89900824D01*
X121069917Y-89898046D01*
X121233495Y-89770245D01*
X121351460Y-89633580D01*
X121365109Y-89617768D01*
X121365109Y-89617767D01*
X121369133Y-89613106D01*
X121375112Y-89602582D01*
X121414507Y-89533234D01*
X121471667Y-89432614D01*
X121537190Y-89235644D01*
X121563207Y-89029698D01*
X121563622Y-89000000D01*
X121560636Y-88969544D01*
X123836936Y-88969544D01*
X123850861Y-89182006D01*
X123852282Y-89187602D01*
X123852283Y-89187607D01*
X123900452Y-89377269D01*
X123903272Y-89388372D01*
X123905689Y-89393615D01*
X123973828Y-89541420D01*
X123992411Y-89581731D01*
X124115296Y-89755609D01*
X124127529Y-89767526D01*
X124257615Y-89894250D01*
X124267809Y-89904181D01*
X124272605Y-89907386D01*
X124272608Y-89907388D01*
X124376144Y-89976568D01*
X124444843Y-90022471D01*
X124450146Y-90024749D01*
X124450149Y-90024751D01*
X124635163Y-90104239D01*
X124640470Y-90106519D01*
X124716316Y-90123681D01*
X124842501Y-90152234D01*
X124842506Y-90152235D01*
X124848138Y-90153509D01*
X124853909Y-90153736D01*
X124853911Y-90153736D01*
X124915252Y-90156146D01*
X125060891Y-90161869D01*
X125066600Y-90161041D01*
X125066604Y-90161041D01*
X125265890Y-90132145D01*
X125265894Y-90132144D01*
X125271605Y-90131316D01*
X125473223Y-90062876D01*
X125658993Y-89958840D01*
X125822693Y-89822693D01*
X125958840Y-89658993D01*
X126062876Y-89473223D01*
X126131316Y-89271605D01*
X126136531Y-89235644D01*
X126161337Y-89064561D01*
X126161337Y-89064559D01*
X126161869Y-89060891D01*
X126163463Y-89000000D01*
X126151487Y-88869669D01*
X126144510Y-88793730D01*
X126144509Y-88793727D01*
X126143981Y-88787976D01*
X126107908Y-88660072D01*
X126087754Y-88588611D01*
X126087753Y-88588609D01*
X126086186Y-88583052D01*
X126082511Y-88575598D01*
X125994570Y-88397273D01*
X125992015Y-88392092D01*
X125975070Y-88369399D01*
X125868074Y-88226114D01*
X125864622Y-88221491D01*
X125708271Y-88076963D01*
X125528201Y-87963347D01*
X125330441Y-87884449D01*
X125324781Y-87883323D01*
X125324777Y-87883322D01*
X125127282Y-87844038D01*
X125127280Y-87844038D01*
X125121615Y-87842911D01*
X125115840Y-87842835D01*
X125115836Y-87842835D01*
X125009161Y-87841439D01*
X124908716Y-87840124D01*
X124903019Y-87841103D01*
X124903018Y-87841103D01*
X124704564Y-87875203D01*
X124704561Y-87875204D01*
X124698874Y-87876181D01*
X124499116Y-87949875D01*
X124316134Y-88058739D01*
X124156054Y-88199125D01*
X124024238Y-88366333D01*
X124021549Y-88371444D01*
X124021547Y-88371447D01*
X124007004Y-88399089D01*
X123925100Y-88554762D01*
X123923386Y-88560283D01*
X123923384Y-88560287D01*
X123892400Y-88660072D01*
X123861961Y-88758102D01*
X123836936Y-88969544D01*
X121560636Y-88969544D01*
X121546565Y-88826045D01*
X121543966Y-88799534D01*
X121543965Y-88799531D01*
X121543365Y-88793408D01*
X121495752Y-88635702D01*
X121485152Y-88600593D01*
X121485151Y-88600590D01*
X121483368Y-88594685D01*
X121480472Y-88589238D01*
X121388809Y-88416847D01*
X121388808Y-88416845D01*
X121385913Y-88411401D01*
X121319194Y-88329595D01*
X121258610Y-88255311D01*
X121258607Y-88255308D01*
X121254715Y-88250536D01*
X121247770Y-88244790D01*
X121099518Y-88122145D01*
X121099519Y-88122145D01*
X121094770Y-88118217D01*
X121089353Y-88115288D01*
X121089350Y-88115286D01*
X120917590Y-88022416D01*
X120917585Y-88022414D01*
X120912170Y-88019486D01*
X120713871Y-87958102D01*
X120707746Y-87957458D01*
X120707745Y-87957458D01*
X120513554Y-87937048D01*
X120513552Y-87937048D01*
X120507425Y-87936404D01*
X120436355Y-87942872D01*
X120306836Y-87954659D01*
X120306833Y-87954660D01*
X120300697Y-87955218D01*
X120294791Y-87956956D01*
X120294787Y-87956957D01*
X120146932Y-88000473D01*
X120101560Y-88013827D01*
X119917600Y-88109999D01*
X119755823Y-88240071D01*
X119751865Y-88244788D01*
X119751863Y-88244790D01*
X119694581Y-88313056D01*
X119622391Y-88399089D01*
X119619427Y-88404481D01*
X119619424Y-88404485D01*
X119528069Y-88570659D01*
X119522387Y-88580995D01*
X119459621Y-88778861D01*
X119458935Y-88784978D01*
X119458934Y-88784982D01*
X119450047Y-88864215D01*
X119422576Y-88929682D01*
X119364072Y-88969904D01*
X119293110Y-88972111D01*
X119232219Y-88935603D01*
X119200732Y-88871971D01*
X119198832Y-88850170D01*
X119198832Y-86549262D01*
X119218834Y-86481141D01*
X119235737Y-86460167D01*
X120350499Y-85345405D01*
X120412811Y-85311379D01*
X120439594Y-85308500D01*
X120495487Y-85308500D01*
X120501939Y-85307128D01*
X120501944Y-85307128D01*
X120588887Y-85288647D01*
X120682288Y-85268794D01*
X120688319Y-85266109D01*
X120850722Y-85193803D01*
X120850724Y-85193802D01*
X120856752Y-85191118D01*
X121011253Y-85078866D01*
X121044585Y-85041847D01*
X121134621Y-84941852D01*
X121134622Y-84941851D01*
X121139040Y-84936944D01*
X121225751Y-84786756D01*
X121231223Y-84777279D01*
X121231224Y-84777278D01*
X121234527Y-84771556D01*
X121293542Y-84589928D01*
X121296566Y-84561156D01*
X121305956Y-84471818D01*
X121332969Y-84406161D01*
X121391191Y-84365532D01*
X121431266Y-84358989D01*
X124593734Y-84358989D01*
X124661855Y-84378991D01*
X124708348Y-84432647D01*
X124719044Y-84471818D01*
X124728434Y-84561156D01*
X124731458Y-84589928D01*
X124790473Y-84771556D01*
X124793776Y-84777278D01*
X124793777Y-84777279D01*
X124799249Y-84786756D01*
X124885960Y-84936944D01*
X124890378Y-84941851D01*
X124890379Y-84941852D01*
X124980415Y-85041847D01*
X125013747Y-85078866D01*
X125168248Y-85191118D01*
X125174276Y-85193802D01*
X125174278Y-85193803D01*
X125336681Y-85266109D01*
X125342712Y-85268794D01*
X125436113Y-85288647D01*
X125523056Y-85307128D01*
X125523061Y-85307128D01*
X125529513Y-85308500D01*
X125720487Y-85308500D01*
X125726939Y-85307128D01*
X125726944Y-85307128D01*
X125813887Y-85288647D01*
X125907288Y-85268794D01*
X125913319Y-85266109D01*
X126075722Y-85193803D01*
X126075724Y-85193802D01*
X126081752Y-85191118D01*
X126236253Y-85078866D01*
X126269585Y-85041847D01*
X126359621Y-84941852D01*
X126359622Y-84941851D01*
X126364040Y-84936944D01*
X126450751Y-84786756D01*
X126456223Y-84777279D01*
X126456224Y-84777278D01*
X126459527Y-84771556D01*
X126518542Y-84589928D01*
X126521711Y-84559782D01*
X126537814Y-84406565D01*
X126538504Y-84400000D01*
X126531533Y-84333678D01*
X126519232Y-84216635D01*
X126519232Y-84216633D01*
X126518542Y-84210072D01*
X126459527Y-84028444D01*
X126455698Y-84021811D01*
X126405982Y-83935702D01*
X126364040Y-83863056D01*
X126358196Y-83856565D01*
X126240675Y-83726045D01*
X126240674Y-83726044D01*
X126236253Y-83721134D01*
X126099038Y-83621441D01*
X126087094Y-83612763D01*
X126087093Y-83612762D01*
X126081752Y-83608882D01*
X126075724Y-83606198D01*
X126075722Y-83606197D01*
X125913319Y-83533891D01*
X125913318Y-83533891D01*
X125907288Y-83531206D01*
X125813887Y-83511353D01*
X125726944Y-83492872D01*
X125726939Y-83492872D01*
X125720487Y-83491500D01*
X125664595Y-83491500D01*
X125596474Y-83471498D01*
X125575500Y-83454595D01*
X125454141Y-83333236D01*
X125446601Y-83324950D01*
X125442489Y-83318471D01*
X125392837Y-83271845D01*
X125389996Y-83269091D01*
X125370259Y-83249354D01*
X125367062Y-83246874D01*
X125358040Y-83239169D01*
X125331589Y-83214330D01*
X125325810Y-83208903D01*
X125318864Y-83205084D01*
X125318861Y-83205082D01*
X125308055Y-83199141D01*
X125291536Y-83188290D01*
X125286945Y-83184729D01*
X125275530Y-83175875D01*
X125268261Y-83172730D01*
X125268257Y-83172727D01*
X125234952Y-83158315D01*
X125224302Y-83153098D01*
X125185549Y-83131794D01*
X125165926Y-83126756D01*
X125147223Y-83120352D01*
X125135909Y-83115456D01*
X125135908Y-83115456D01*
X125128634Y-83112308D01*
X125120811Y-83111069D01*
X125120801Y-83111066D01*
X125084965Y-83105390D01*
X125073345Y-83102984D01*
X125038200Y-83093961D01*
X125038199Y-83093961D01*
X125030519Y-83091989D01*
X125010265Y-83091989D01*
X124990554Y-83090438D01*
X124978375Y-83088509D01*
X124970546Y-83087269D01*
X124962654Y-83088015D01*
X124926528Y-83091430D01*
X124914670Y-83091989D01*
X113873768Y-83091989D01*
X113805647Y-83071987D01*
X113759154Y-83018331D01*
X113749050Y-82948057D01*
X113778544Y-82883477D01*
X113822519Y-82850882D01*
X113950722Y-82793803D01*
X113950724Y-82793802D01*
X113956752Y-82791118D01*
X113965801Y-82784544D01*
X114048961Y-82724124D01*
X114111253Y-82678866D01*
X114121196Y-82667823D01*
X114234621Y-82541852D01*
X114234622Y-82541851D01*
X114239040Y-82536944D01*
X114313581Y-82407835D01*
X114331223Y-82377279D01*
X114331224Y-82377278D01*
X114334527Y-82371556D01*
X114393542Y-82189928D01*
X114396005Y-82166500D01*
X114412814Y-82006565D01*
X114413504Y-82000000D01*
X114393542Y-81810072D01*
X114334527Y-81628444D01*
X114318808Y-81601217D01*
X114278567Y-81531518D01*
X114239040Y-81463056D01*
X114222882Y-81445110D01*
X114115675Y-81326045D01*
X114115674Y-81326044D01*
X114111253Y-81321134D01*
X113992783Y-81235060D01*
X113962094Y-81212763D01*
X113962093Y-81212762D01*
X113956752Y-81208882D01*
X113950724Y-81206198D01*
X113950722Y-81206197D01*
X113788319Y-81133891D01*
X113788318Y-81133891D01*
X113782288Y-81131206D01*
X113685143Y-81110557D01*
X113601944Y-81092872D01*
X113601939Y-81092872D01*
X113595487Y-81091500D01*
X113404513Y-81091500D01*
X113398061Y-81092872D01*
X113398056Y-81092872D01*
X113314857Y-81110557D01*
X113217712Y-81131206D01*
X113211682Y-81133891D01*
X113211681Y-81133891D01*
X113049278Y-81206197D01*
X113049276Y-81206198D01*
X113043248Y-81208882D01*
X113037907Y-81212762D01*
X113037906Y-81212763D01*
X112974824Y-81258595D01*
X112888747Y-81321134D01*
X112884332Y-81326037D01*
X112879420Y-81330460D01*
X112878295Y-81329211D01*
X112824986Y-81362051D01*
X112791800Y-81366500D01*
X111964739Y-81366500D01*
X111953556Y-81365973D01*
X111946063Y-81364298D01*
X111938137Y-81364547D01*
X111938136Y-81364547D01*
X111877973Y-81366438D01*
X111874015Y-81366500D01*
X111846116Y-81366500D01*
X111842126Y-81367004D01*
X111830292Y-81367936D01*
X111786083Y-81369326D01*
X111778469Y-81371538D01*
X111778464Y-81371539D01*
X111766631Y-81374977D01*
X111747268Y-81378988D01*
X111727175Y-81381526D01*
X111719808Y-81384443D01*
X111719803Y-81384444D01*
X111686064Y-81397802D01*
X111674837Y-81401646D01*
X111632379Y-81413982D01*
X111625553Y-81418019D01*
X111614944Y-81424293D01*
X111597196Y-81432988D01*
X111578355Y-81440448D01*
X111571939Y-81445110D01*
X111571938Y-81445110D01*
X111542585Y-81466436D01*
X111532665Y-81472952D01*
X111501437Y-81491420D01*
X111501434Y-81491422D01*
X111494610Y-81495458D01*
X111480289Y-81509779D01*
X111465256Y-81522619D01*
X111448865Y-81534528D01*
X111422891Y-81565925D01*
X111420674Y-81568605D01*
X111412684Y-81577384D01*
X108204172Y-84785895D01*
X108141860Y-84819921D01*
X108071044Y-84814856D01*
X108021441Y-84781111D01*
X107992612Y-84749093D01*
X107992610Y-84749092D01*
X107988197Y-84744190D01*
X107922153Y-84696206D01*
X107839038Y-84635819D01*
X107839037Y-84635818D01*
X107833696Y-84631938D01*
X107827668Y-84629254D01*
X107827666Y-84629253D01*
X107665263Y-84556947D01*
X107665262Y-84556947D01*
X107659232Y-84554262D01*
X107560887Y-84533358D01*
X107478888Y-84515928D01*
X107478883Y-84515928D01*
X107472431Y-84514556D01*
X107416539Y-84514556D01*
X107348418Y-84494554D01*
X107327443Y-84477651D01*
X106557535Y-83707742D01*
X106550001Y-83699463D01*
X106545888Y-83692982D01*
X106496236Y-83646356D01*
X106493395Y-83643602D01*
X106473658Y-83623865D01*
X106470461Y-83621385D01*
X106461439Y-83613680D01*
X106429209Y-83583414D01*
X106422263Y-83579595D01*
X106422260Y-83579593D01*
X106411454Y-83573652D01*
X106394935Y-83562801D01*
X106386895Y-83556565D01*
X106378929Y-83550386D01*
X106371660Y-83547241D01*
X106371656Y-83547238D01*
X106338351Y-83532826D01*
X106327701Y-83527609D01*
X106288948Y-83506305D01*
X106269325Y-83501267D01*
X106250622Y-83494863D01*
X106239308Y-83489967D01*
X106239307Y-83489967D01*
X106232033Y-83486819D01*
X106224210Y-83485580D01*
X106224200Y-83485577D01*
X106188364Y-83479901D01*
X106176744Y-83477495D01*
X106141599Y-83468472D01*
X106141598Y-83468472D01*
X106133918Y-83466500D01*
X106113664Y-83466500D01*
X106093953Y-83464949D01*
X106081774Y-83463020D01*
X106073945Y-83461780D01*
X106066053Y-83462526D01*
X106029927Y-83465941D01*
X106018069Y-83466500D01*
X105633594Y-83466500D01*
X105565473Y-83446498D01*
X105518980Y-83392842D01*
X105508876Y-83322568D01*
X105538370Y-83257988D01*
X105544499Y-83251405D01*
X106629405Y-82166500D01*
X107800011Y-80995894D01*
X107862323Y-80961868D01*
X107889106Y-80958989D01*
X109095744Y-80958989D01*
X109106927Y-80959516D01*
X109114420Y-80961191D01*
X109122346Y-80960942D01*
X109122347Y-80960942D01*
X109182497Y-80959051D01*
X109186456Y-80958989D01*
X109214367Y-80958989D01*
X109218302Y-80958492D01*
X109218367Y-80958484D01*
X109230204Y-80957551D01*
X109262462Y-80956537D01*
X109266481Y-80956411D01*
X109274400Y-80956162D01*
X109293854Y-80950510D01*
X109313211Y-80946502D01*
X109325441Y-80944957D01*
X109325442Y-80944957D01*
X109333308Y-80943963D01*
X109340679Y-80941044D01*
X109340681Y-80941044D01*
X109374423Y-80927685D01*
X109385653Y-80923840D01*
X109420494Y-80913718D01*
X109420495Y-80913718D01*
X109428104Y-80911507D01*
X109434923Y-80907474D01*
X109434928Y-80907472D01*
X109445539Y-80901196D01*
X109463287Y-80892501D01*
X109482128Y-80885041D01*
X109517898Y-80859053D01*
X109527818Y-80852537D01*
X109559046Y-80834069D01*
X109559049Y-80834067D01*
X109565873Y-80830031D01*
X109580194Y-80815710D01*
X109595228Y-80802869D01*
X109605205Y-80795620D01*
X109611618Y-80790961D01*
X109616669Y-80784856D01*
X109616674Y-80784851D01*
X109639805Y-80756891D01*
X109647792Y-80748113D01*
X109795037Y-80600868D01*
X109950499Y-80445405D01*
X110012812Y-80411380D01*
X110039595Y-80408500D01*
X110095487Y-80408500D01*
X110101939Y-80407128D01*
X110101944Y-80407128D01*
X110188887Y-80388647D01*
X110282288Y-80368794D01*
X110328813Y-80348080D01*
X110450722Y-80293803D01*
X110450724Y-80293802D01*
X110456752Y-80291118D01*
X110467831Y-80283069D01*
X110568452Y-80209963D01*
X110611253Y-80178866D01*
X110640722Y-80146137D01*
X110734621Y-80041852D01*
X110734622Y-80041851D01*
X110739040Y-80036944D01*
X110812230Y-79910175D01*
X110831223Y-79877279D01*
X110831224Y-79877278D01*
X110834527Y-79871556D01*
X110893542Y-79689928D01*
X110908314Y-79549385D01*
X110912814Y-79506565D01*
X110913504Y-79500000D01*
X110904965Y-79418753D01*
X110894232Y-79316635D01*
X110894232Y-79316633D01*
X110893542Y-79310072D01*
X110834527Y-79128444D01*
X110774559Y-79024576D01*
X110757821Y-78955582D01*
X110781041Y-78888490D01*
X110832429Y-78846470D01*
X110950722Y-78793803D01*
X110950724Y-78793802D01*
X110956752Y-78791118D01*
X111111253Y-78678866D01*
X111191333Y-78589928D01*
X111234621Y-78541852D01*
X111234622Y-78541851D01*
X111239040Y-78536944D01*
X111318105Y-78400000D01*
X117486496Y-78400000D01*
X117506458Y-78589928D01*
X117565473Y-78771556D01*
X117660960Y-78936944D01*
X117665378Y-78941851D01*
X117665379Y-78941852D01*
X117780350Y-79069540D01*
X117788747Y-79078866D01*
X117826973Y-79106639D01*
X117926385Y-79178866D01*
X117943248Y-79191118D01*
X117949276Y-79193802D01*
X117949278Y-79193803D01*
X118111681Y-79266109D01*
X118117712Y-79268794D01*
X118204479Y-79287237D01*
X118298056Y-79307128D01*
X118298061Y-79307128D01*
X118304513Y-79308500D01*
X118495487Y-79308500D01*
X118501939Y-79307128D01*
X118501944Y-79307128D01*
X118595521Y-79287237D01*
X118682288Y-79268794D01*
X118688319Y-79266109D01*
X118850722Y-79193803D01*
X118850724Y-79193802D01*
X118856752Y-79191118D01*
X118873616Y-79178866D01*
X118989671Y-79094546D01*
X119011253Y-79078866D01*
X119015668Y-79073963D01*
X119020580Y-79069540D01*
X119021705Y-79070789D01*
X119075014Y-79037949D01*
X119108200Y-79033500D01*
X120085406Y-79033500D01*
X120153527Y-79053502D01*
X120174501Y-79070405D01*
X120380501Y-79276405D01*
X120414527Y-79338717D01*
X120409462Y-79409532D01*
X120366915Y-79466368D01*
X120300395Y-79491179D01*
X120291406Y-79491500D01*
X119701866Y-79491500D01*
X119639684Y-79498255D01*
X119503295Y-79549385D01*
X119386739Y-79636739D01*
X119299385Y-79753295D01*
X119248255Y-79889684D01*
X119241500Y-79951866D01*
X119241500Y-82048134D01*
X119248255Y-82110316D01*
X119299385Y-82246705D01*
X119386739Y-82363261D01*
X119503295Y-82450615D01*
X119639684Y-82501745D01*
X119701866Y-82508500D01*
X121298134Y-82508500D01*
X121360316Y-82501745D01*
X121496705Y-82450615D01*
X121613261Y-82363261D01*
X121649176Y-82315340D01*
X121706033Y-82272827D01*
X121776851Y-82267801D01*
X121839145Y-82301861D01*
X121850817Y-82315330D01*
X121886739Y-82363261D01*
X122003295Y-82450615D01*
X122139684Y-82501745D01*
X122201866Y-82508500D01*
X123798134Y-82508500D01*
X123860316Y-82501745D01*
X123996705Y-82450615D01*
X124113261Y-82363261D01*
X124149176Y-82315340D01*
X124206033Y-82272827D01*
X124276851Y-82267801D01*
X124339145Y-82301861D01*
X124350817Y-82315330D01*
X124386739Y-82363261D01*
X124503295Y-82450615D01*
X124639684Y-82501745D01*
X124701866Y-82508500D01*
X126298134Y-82508500D01*
X126360316Y-82501745D01*
X126496705Y-82450615D01*
X126613261Y-82363261D01*
X126700615Y-82246705D01*
X126751745Y-82110316D01*
X126758500Y-82048134D01*
X126758500Y-79951866D01*
X126751745Y-79889684D01*
X126700615Y-79753295D01*
X126613261Y-79636739D01*
X126496705Y-79549385D01*
X126360316Y-79498255D01*
X126298134Y-79491500D01*
X124701866Y-79491500D01*
X124639684Y-79498255D01*
X124503295Y-79549385D01*
X124386739Y-79636739D01*
X124350824Y-79684660D01*
X124293967Y-79727173D01*
X124223149Y-79732199D01*
X124160855Y-79698139D01*
X124149183Y-79684670D01*
X124113261Y-79636739D01*
X123996705Y-79549385D01*
X123860316Y-79498255D01*
X123798134Y-79491500D01*
X122439595Y-79491500D01*
X122371474Y-79471498D01*
X122350500Y-79454595D01*
X120903652Y-78007747D01*
X120896112Y-77999461D01*
X120892000Y-77992982D01*
X120876519Y-77978444D01*
X120842349Y-77946357D01*
X120839507Y-77943602D01*
X120819770Y-77923865D01*
X120816573Y-77921385D01*
X120807551Y-77913680D01*
X120775321Y-77883414D01*
X120768375Y-77879595D01*
X120768372Y-77879593D01*
X120757566Y-77873652D01*
X120741047Y-77862801D01*
X120740583Y-77862441D01*
X120725041Y-77850386D01*
X120717772Y-77847241D01*
X120717768Y-77847238D01*
X120684463Y-77832826D01*
X120673813Y-77827609D01*
X120635060Y-77806305D01*
X120625281Y-77803794D01*
X120615438Y-77801267D01*
X120596734Y-77794863D01*
X120585420Y-77789967D01*
X120585419Y-77789967D01*
X120578145Y-77786819D01*
X120570322Y-77785580D01*
X120570312Y-77785577D01*
X120534476Y-77779901D01*
X120522856Y-77777495D01*
X120487711Y-77768472D01*
X120487710Y-77768472D01*
X120480030Y-77766500D01*
X120459776Y-77766500D01*
X120440065Y-77764949D01*
X120427886Y-77763020D01*
X120420057Y-77761780D01*
X120412165Y-77762526D01*
X120376039Y-77765941D01*
X120364181Y-77766500D01*
X119108200Y-77766500D01*
X119040079Y-77746498D01*
X119020853Y-77730157D01*
X119020580Y-77730460D01*
X119015668Y-77726037D01*
X119011253Y-77721134D01*
X118935861Y-77666358D01*
X118862094Y-77612763D01*
X118862093Y-77612762D01*
X118856752Y-77608882D01*
X118850724Y-77606198D01*
X118850722Y-77606197D01*
X118688319Y-77533891D01*
X118688318Y-77533891D01*
X118682288Y-77531206D01*
X118573113Y-77508000D01*
X118501944Y-77492872D01*
X118501939Y-77492872D01*
X118495487Y-77491500D01*
X118304513Y-77491500D01*
X118298061Y-77492872D01*
X118298056Y-77492872D01*
X118226887Y-77508000D01*
X118117712Y-77531206D01*
X118111682Y-77533891D01*
X118111681Y-77533891D01*
X117949278Y-77606197D01*
X117949276Y-77606198D01*
X117943248Y-77608882D01*
X117937907Y-77612762D01*
X117937906Y-77612763D01*
X117887843Y-77649136D01*
X117788747Y-77721134D01*
X117784326Y-77726044D01*
X117784325Y-77726045D01*
X117675203Y-77847238D01*
X117660960Y-77863056D01*
X117615457Y-77941869D01*
X117573203Y-78015056D01*
X117565473Y-78028444D01*
X117506458Y-78210072D01*
X117505768Y-78216633D01*
X117505768Y-78216635D01*
X117496439Y-78305398D01*
X117486496Y-78400000D01*
X111318105Y-78400000D01*
X111334527Y-78371556D01*
X111393542Y-78189928D01*
X111404388Y-78086739D01*
X111412814Y-78006565D01*
X111413504Y-78000000D01*
X111408463Y-77952034D01*
X111394232Y-77816635D01*
X111394232Y-77816633D01*
X111393542Y-77810072D01*
X111334527Y-77628444D01*
X111324548Y-77611159D01*
X111291331Y-77553627D01*
X111239040Y-77463056D01*
X111182715Y-77400500D01*
X111115675Y-77326045D01*
X111115674Y-77326044D01*
X111111253Y-77321134D01*
X110956752Y-77208882D01*
X110950724Y-77206198D01*
X110950722Y-77206197D01*
X110788319Y-77133891D01*
X110788318Y-77133891D01*
X110782288Y-77131206D01*
X110668730Y-77107068D01*
X110605833Y-77072917D01*
X110007416Y-76474500D01*
X109973390Y-76412188D01*
X109970511Y-76385405D01*
X109970511Y-76351866D01*
X109963756Y-76289684D01*
X109928989Y-76196943D01*
X109921034Y-76156673D01*
X109920573Y-76141997D01*
X109920511Y-76138041D01*
X109920511Y-76110144D01*
X109920007Y-76106153D01*
X109919074Y-76094311D01*
X109919008Y-76092188D01*
X109917685Y-76050111D01*
X109915472Y-76042495D01*
X109915471Y-76042487D01*
X109912034Y-76030659D01*
X109908023Y-76011295D01*
X109906478Y-75999064D01*
X109905485Y-75991203D01*
X109902568Y-75983836D01*
X109902567Y-75983831D01*
X109889209Y-75950092D01*
X109885365Y-75938865D01*
X109880306Y-75921453D01*
X109873029Y-75896407D01*
X109867571Y-75887179D01*
X109862718Y-75878972D01*
X109854023Y-75861224D01*
X109846563Y-75842383D01*
X109830412Y-75820152D01*
X109820575Y-75806613D01*
X109814059Y-75796693D01*
X109795591Y-75765465D01*
X109795589Y-75765462D01*
X109791553Y-75758638D01*
X109777232Y-75744317D01*
X109764391Y-75729283D01*
X109757142Y-75719306D01*
X109752483Y-75712893D01*
X109718406Y-75684702D01*
X109709627Y-75676712D01*
X108222814Y-74189899D01*
X117187569Y-74189899D01*
X117187744Y-74194351D01*
X117197643Y-74446287D01*
X117198180Y-74459963D01*
X117246737Y-74725837D01*
X117248146Y-74730060D01*
X117316505Y-74934956D01*
X117332272Y-74982217D01*
X117344254Y-75006197D01*
X117447470Y-75212763D01*
X117453078Y-75223987D01*
X117455607Y-75227646D01*
X117593160Y-75426669D01*
X117606744Y-75446324D01*
X117693926Y-75540636D01*
X117786712Y-75641011D01*
X117790205Y-75644790D01*
X117999799Y-75815427D01*
X118003617Y-75817726D01*
X118003619Y-75817727D01*
X118134306Y-75896407D01*
X118231346Y-75954830D01*
X118235441Y-75956564D01*
X118235443Y-75956565D01*
X118476124Y-76058480D01*
X118476131Y-76058482D01*
X118480225Y-76060216D01*
X118501157Y-76065766D01*
X118737172Y-76128345D01*
X118737177Y-76128346D01*
X118741469Y-76129484D01*
X118745878Y-76130006D01*
X118745884Y-76130007D01*
X118895210Y-76147680D01*
X119009868Y-76161251D01*
X119280064Y-76154883D01*
X119284459Y-76154151D01*
X119284464Y-76154151D01*
X119542267Y-76111241D01*
X119542271Y-76111240D01*
X119546669Y-76110508D01*
X119729390Y-76052721D01*
X119800114Y-76030354D01*
X119800116Y-76030353D01*
X119804360Y-76029011D01*
X119808371Y-76027085D01*
X119808376Y-76027083D01*
X120043979Y-75913948D01*
X120043980Y-75913947D01*
X120047998Y-75912018D01*
X120185485Y-75820152D01*
X120269013Y-75764341D01*
X120269017Y-75764338D01*
X120272721Y-75761863D01*
X120276038Y-75758892D01*
X120276042Y-75758889D01*
X120470729Y-75584512D01*
X120474045Y-75581542D01*
X120647953Y-75374654D01*
X120651431Y-75369078D01*
X120788614Y-75149111D01*
X120788615Y-75149109D01*
X120790975Y-75145325D01*
X120795660Y-75134729D01*
X120855900Y-74998469D01*
X120900258Y-74898133D01*
X120973620Y-74638008D01*
X120981578Y-74578763D01*
X121009172Y-74373324D01*
X121009173Y-74373316D01*
X121009599Y-74370142D01*
X121010423Y-74343935D01*
X121013274Y-74253222D01*
X121013274Y-74253217D01*
X121013375Y-74250000D01*
X121012895Y-74243213D01*
X121009120Y-74189899D01*
X123387569Y-74189899D01*
X123387744Y-74194351D01*
X123397643Y-74446287D01*
X123398180Y-74459963D01*
X123446737Y-74725837D01*
X123448146Y-74730060D01*
X123516505Y-74934956D01*
X123532272Y-74982217D01*
X123544254Y-75006197D01*
X123647470Y-75212763D01*
X123653078Y-75223987D01*
X123655607Y-75227646D01*
X123793160Y-75426669D01*
X123806744Y-75446324D01*
X123893926Y-75540636D01*
X123986712Y-75641011D01*
X123990205Y-75644790D01*
X124199799Y-75815427D01*
X124203617Y-75817726D01*
X124203619Y-75817727D01*
X124334306Y-75896407D01*
X124431346Y-75954830D01*
X124435441Y-75956564D01*
X124435443Y-75956565D01*
X124676124Y-76058480D01*
X124676131Y-76058482D01*
X124680225Y-76060216D01*
X124701157Y-76065766D01*
X124937172Y-76128345D01*
X124937177Y-76128346D01*
X124941469Y-76129484D01*
X124945878Y-76130006D01*
X124945884Y-76130007D01*
X125095210Y-76147680D01*
X125209868Y-76161251D01*
X125480064Y-76154883D01*
X125484459Y-76154151D01*
X125484464Y-76154151D01*
X125742267Y-76111241D01*
X125742271Y-76111240D01*
X125746669Y-76110508D01*
X125929390Y-76052721D01*
X126000114Y-76030354D01*
X126000116Y-76030353D01*
X126004360Y-76029011D01*
X126008371Y-76027085D01*
X126008376Y-76027083D01*
X126243979Y-75913948D01*
X126243980Y-75913947D01*
X126247998Y-75912018D01*
X126385485Y-75820152D01*
X126469013Y-75764341D01*
X126469017Y-75764338D01*
X126472721Y-75761863D01*
X126476038Y-75758892D01*
X126476042Y-75758889D01*
X126670729Y-75584512D01*
X126674045Y-75581542D01*
X126847953Y-75374654D01*
X126851431Y-75369078D01*
X126988614Y-75149111D01*
X126988615Y-75149109D01*
X126990975Y-75145325D01*
X126995660Y-75134729D01*
X127055900Y-74998469D01*
X127100258Y-74898133D01*
X127173620Y-74638008D01*
X127181578Y-74578763D01*
X127209172Y-74373324D01*
X127209173Y-74373316D01*
X127209599Y-74370142D01*
X127210423Y-74343935D01*
X127213274Y-74253222D01*
X127213274Y-74253217D01*
X127213375Y-74250000D01*
X127212895Y-74243213D01*
X127194602Y-73984852D01*
X127194287Y-73980403D01*
X127137402Y-73716185D01*
X127117801Y-73663053D01*
X127045397Y-73466796D01*
X127043856Y-73462619D01*
X127014510Y-73408231D01*
X126917629Y-73228678D01*
X126917629Y-73228677D01*
X126915516Y-73224762D01*
X126754942Y-73007362D01*
X126565338Y-72814756D01*
X126488556Y-72756158D01*
X126354028Y-72653489D01*
X126354024Y-72653487D01*
X126350487Y-72650787D01*
X126114675Y-72518727D01*
X125862609Y-72421210D01*
X125858284Y-72420207D01*
X125858279Y-72420206D01*
X125752748Y-72395746D01*
X125599318Y-72360182D01*
X125330054Y-72336861D01*
X125325619Y-72337105D01*
X125325615Y-72337105D01*
X125064634Y-72351468D01*
X125064627Y-72351469D01*
X125060191Y-72351713D01*
X124928622Y-72377883D01*
X124799484Y-72403570D01*
X124799479Y-72403571D01*
X124795112Y-72404440D01*
X124790909Y-72405916D01*
X124544315Y-72492513D01*
X124544312Y-72492514D01*
X124540107Y-72493991D01*
X124536154Y-72496044D01*
X124536148Y-72496047D01*
X124492488Y-72518727D01*
X124300264Y-72618580D01*
X124296649Y-72621163D01*
X124296643Y-72621167D01*
X124083990Y-72773131D01*
X124083986Y-72773134D01*
X124080369Y-72775719D01*
X124077149Y-72778791D01*
X123932119Y-72917143D01*
X123884808Y-72962275D01*
X123717485Y-73174524D01*
X123715253Y-73178366D01*
X123715250Y-73178371D01*
X123583974Y-73404377D01*
X123583971Y-73404384D01*
X123581736Y-73408231D01*
X123480272Y-73658735D01*
X123479201Y-73663048D01*
X123479199Y-73663053D01*
X123416189Y-73916714D01*
X123415116Y-73921035D01*
X123414662Y-73925463D01*
X123414662Y-73925465D01*
X123391249Y-74153981D01*
X123387569Y-74189899D01*
X121009120Y-74189899D01*
X120994602Y-73984852D01*
X120994287Y-73980403D01*
X120937402Y-73716185D01*
X120917801Y-73663053D01*
X120845397Y-73466796D01*
X120843856Y-73462619D01*
X120814510Y-73408231D01*
X120717629Y-73228678D01*
X120717629Y-73228677D01*
X120715516Y-73224762D01*
X120554942Y-73007362D01*
X120365338Y-72814756D01*
X120288556Y-72756158D01*
X120154028Y-72653489D01*
X120154024Y-72653487D01*
X120150487Y-72650787D01*
X119914675Y-72518727D01*
X119662609Y-72421210D01*
X119658284Y-72420207D01*
X119658279Y-72420206D01*
X119552748Y-72395746D01*
X119399318Y-72360182D01*
X119130054Y-72336861D01*
X119125619Y-72337105D01*
X119125615Y-72337105D01*
X118864634Y-72351468D01*
X118864627Y-72351469D01*
X118860191Y-72351713D01*
X118728622Y-72377883D01*
X118599484Y-72403570D01*
X118599479Y-72403571D01*
X118595112Y-72404440D01*
X118590909Y-72405916D01*
X118344315Y-72492513D01*
X118344312Y-72492514D01*
X118340107Y-72493991D01*
X118336154Y-72496044D01*
X118336148Y-72496047D01*
X118292488Y-72518727D01*
X118100264Y-72618580D01*
X118096649Y-72621163D01*
X118096643Y-72621167D01*
X117883990Y-72773131D01*
X117883986Y-72773134D01*
X117880369Y-72775719D01*
X117877149Y-72778791D01*
X117732119Y-72917143D01*
X117684808Y-72962275D01*
X117517485Y-73174524D01*
X117515253Y-73178366D01*
X117515250Y-73178371D01*
X117383974Y-73404377D01*
X117383971Y-73404384D01*
X117381736Y-73408231D01*
X117280272Y-73658735D01*
X117279201Y-73663048D01*
X117279199Y-73663053D01*
X117216189Y-73916714D01*
X117215116Y-73921035D01*
X117214662Y-73925463D01*
X117214662Y-73925465D01*
X117191249Y-74153981D01*
X117187569Y-74189899D01*
X108222814Y-74189899D01*
X106343831Y-72310915D01*
X127792001Y-72310915D01*
X127792061Y-72313672D01*
X127794601Y-72371855D01*
X127795317Y-72378972D01*
X127837999Y-72648453D01*
X127839978Y-72657023D01*
X127919504Y-72917143D01*
X127922655Y-72925353D01*
X128037613Y-73171882D01*
X128041876Y-73179572D01*
X128190024Y-73407700D01*
X128195314Y-73414719D01*
X128373783Y-73620024D01*
X128379976Y-73626217D01*
X128585281Y-73804686D01*
X128592300Y-73809976D01*
X128820428Y-73958124D01*
X128828118Y-73962387D01*
X129074647Y-74077345D01*
X129082857Y-74080496D01*
X129342977Y-74160022D01*
X129351547Y-74162001D01*
X129528106Y-74189966D01*
X129541789Y-74188198D01*
X129546000Y-74174226D01*
X129546000Y-71472115D01*
X129541525Y-71456876D01*
X129540135Y-71455671D01*
X129532452Y-71454000D01*
X127810116Y-71454000D01*
X127794877Y-71458475D01*
X127793672Y-71459865D01*
X127792001Y-71467548D01*
X127792001Y-72310915D01*
X106343831Y-72310915D01*
X106340663Y-72307747D01*
X106333123Y-72299461D01*
X106329011Y-72292982D01*
X106279359Y-72246356D01*
X106276518Y-72243602D01*
X106256781Y-72223865D01*
X106253584Y-72221385D01*
X106244562Y-72213680D01*
X106231133Y-72201069D01*
X106212332Y-72183414D01*
X106205386Y-72179595D01*
X106205383Y-72179593D01*
X106194577Y-72173652D01*
X106178058Y-72162801D01*
X106177594Y-72162441D01*
X106162052Y-72150386D01*
X106154783Y-72147241D01*
X106154779Y-72147238D01*
X106121474Y-72132826D01*
X106110824Y-72127609D01*
X106072071Y-72106305D01*
X106052448Y-72101267D01*
X106033745Y-72094863D01*
X106022431Y-72089967D01*
X106022430Y-72089967D01*
X106015156Y-72086819D01*
X106007333Y-72085580D01*
X106007323Y-72085577D01*
X105971487Y-72079901D01*
X105959867Y-72077495D01*
X105924722Y-72068472D01*
X105924721Y-72068472D01*
X105917041Y-72066500D01*
X105896787Y-72066500D01*
X105877076Y-72064949D01*
X105864897Y-72063020D01*
X105857068Y-72061780D01*
X105827797Y-72064547D01*
X105813050Y-72065941D01*
X105801192Y-72066500D01*
X93278767Y-72066500D01*
X93267584Y-72065973D01*
X93260091Y-72064298D01*
X93252165Y-72064547D01*
X93252164Y-72064547D01*
X93192001Y-72066438D01*
X93188043Y-72066500D01*
X93160144Y-72066500D01*
X93156154Y-72067004D01*
X93144320Y-72067936D01*
X93100111Y-72069326D01*
X93092497Y-72071538D01*
X93092492Y-72071539D01*
X93080659Y-72074977D01*
X93061296Y-72078988D01*
X93041203Y-72081526D01*
X93033836Y-72084443D01*
X93033831Y-72084444D01*
X93000092Y-72097802D01*
X92988865Y-72101646D01*
X92946407Y-72113982D01*
X92939581Y-72118019D01*
X92928972Y-72124293D01*
X92911224Y-72132988D01*
X92892383Y-72140448D01*
X92885967Y-72145110D01*
X92885966Y-72145110D01*
X92856613Y-72166436D01*
X92846693Y-72172952D01*
X92815465Y-72191420D01*
X92815462Y-72191422D01*
X92808638Y-72195458D01*
X92794317Y-72209779D01*
X92779284Y-72222619D01*
X92762893Y-72234528D01*
X92754217Y-72245016D01*
X92734702Y-72268605D01*
X92726712Y-72277384D01*
X90998508Y-74005587D01*
X90936198Y-74039612D01*
X90865383Y-74034547D01*
X90808547Y-73992000D01*
X90786237Y-73943011D01*
X90738339Y-73720537D01*
X90737402Y-73716185D01*
X90717801Y-73663053D01*
X90645397Y-73466796D01*
X90643856Y-73462619D01*
X90614510Y-73408231D01*
X90517629Y-73228678D01*
X90517629Y-73228677D01*
X90515516Y-73224762D01*
X90354942Y-73007362D01*
X90165338Y-72814756D01*
X90088556Y-72756158D01*
X89954028Y-72653489D01*
X89954024Y-72653487D01*
X89950487Y-72650787D01*
X89714675Y-72518727D01*
X89462609Y-72421210D01*
X89458284Y-72420207D01*
X89458279Y-72420206D01*
X89352748Y-72395746D01*
X89199318Y-72360182D01*
X88930054Y-72336861D01*
X88925619Y-72337105D01*
X88925615Y-72337105D01*
X88664634Y-72351468D01*
X88664627Y-72351469D01*
X88660191Y-72351713D01*
X88528622Y-72377883D01*
X88399484Y-72403570D01*
X88399479Y-72403571D01*
X88395112Y-72404440D01*
X88390909Y-72405916D01*
X88144315Y-72492513D01*
X88144312Y-72492514D01*
X88140107Y-72493991D01*
X88136154Y-72496044D01*
X88136148Y-72496047D01*
X88092488Y-72518727D01*
X87900264Y-72618580D01*
X87896649Y-72621163D01*
X87896643Y-72621167D01*
X87683990Y-72773131D01*
X87683986Y-72773134D01*
X87680369Y-72775719D01*
X87677149Y-72778791D01*
X87532119Y-72917143D01*
X87484808Y-72962275D01*
X87317485Y-73174524D01*
X87315253Y-73178366D01*
X87315250Y-73178371D01*
X87183974Y-73404377D01*
X87183971Y-73404384D01*
X87181736Y-73408231D01*
X87080272Y-73658735D01*
X87079201Y-73663048D01*
X87079199Y-73663053D01*
X87016189Y-73916714D01*
X87015116Y-73921035D01*
X87014662Y-73925463D01*
X87014662Y-73925465D01*
X86989328Y-74172729D01*
X86962487Y-74238457D01*
X86904372Y-74279239D01*
X86833434Y-74282127D01*
X86772196Y-74246206D01*
X86744055Y-74195059D01*
X86743963Y-74195095D01*
X86743677Y-74194372D01*
X86743675Y-74194368D01*
X86741047Y-74187730D01*
X86741045Y-74187724D01*
X86727685Y-74153981D01*
X86723840Y-74142751D01*
X86713718Y-74107910D01*
X86713718Y-74107909D01*
X86711507Y-74100300D01*
X86707474Y-74093481D01*
X86707472Y-74093476D01*
X86701196Y-74082865D01*
X86692501Y-74065117D01*
X86685041Y-74046276D01*
X86680200Y-74039612D01*
X86659053Y-74010506D01*
X86652537Y-74000586D01*
X86634069Y-73969358D01*
X86634067Y-73969355D01*
X86630031Y-73962531D01*
X86615710Y-73948210D01*
X86602869Y-73933176D01*
X86597321Y-73925540D01*
X86590961Y-73916786D01*
X86556884Y-73888595D01*
X86548105Y-73880605D01*
X84850737Y-72183236D01*
X84843197Y-72174950D01*
X84839085Y-72168471D01*
X84789433Y-72121845D01*
X84786592Y-72119091D01*
X84766855Y-72099354D01*
X84763658Y-72096874D01*
X84754636Y-72089169D01*
X84722406Y-72058903D01*
X84715460Y-72055084D01*
X84715457Y-72055082D01*
X84704651Y-72049141D01*
X84688132Y-72038290D01*
X84687668Y-72037930D01*
X84672126Y-72025875D01*
X84664857Y-72022730D01*
X84664853Y-72022727D01*
X84631548Y-72008315D01*
X84620898Y-72003098D01*
X84582145Y-71981794D01*
X84562522Y-71976756D01*
X84543819Y-71970352D01*
X84532505Y-71965456D01*
X84532504Y-71965456D01*
X84525230Y-71962308D01*
X84517407Y-71961069D01*
X84517397Y-71961066D01*
X84481561Y-71955390D01*
X84469941Y-71952984D01*
X84434796Y-71943961D01*
X84434795Y-71943961D01*
X84427115Y-71941989D01*
X84406861Y-71941989D01*
X84387150Y-71940438D01*
X84374971Y-71938509D01*
X84367142Y-71937269D01*
X84337871Y-71940036D01*
X84323124Y-71941430D01*
X84311266Y-71941989D01*
X80703278Y-71941989D01*
X80692095Y-71941462D01*
X80684602Y-71939787D01*
X80676676Y-71940036D01*
X80676675Y-71940036D01*
X80616512Y-71941927D01*
X80612554Y-71941989D01*
X80584655Y-71941989D01*
X80580665Y-71942493D01*
X80568831Y-71943425D01*
X80524622Y-71944815D01*
X80517008Y-71947027D01*
X80517003Y-71947028D01*
X80505170Y-71950466D01*
X80485807Y-71954477D01*
X80465714Y-71957015D01*
X80458347Y-71959932D01*
X80458342Y-71959933D01*
X80424603Y-71973291D01*
X80413376Y-71977135D01*
X80397341Y-71981794D01*
X80370918Y-71989471D01*
X80370083Y-71986597D01*
X80313584Y-71993573D01*
X80249604Y-71962797D01*
X80212420Y-71902317D01*
X80208000Y-71869238D01*
X80208000Y-71472115D01*
X80203525Y-71456876D01*
X80202135Y-71455671D01*
X80194452Y-71454000D01*
X78072000Y-71454000D01*
X78003879Y-71433998D01*
X77957386Y-71380342D01*
X77946000Y-71328000D01*
X77946000Y-71072000D01*
X77966002Y-71003879D01*
X78019658Y-70957386D01*
X78072000Y-70946000D01*
X80189884Y-70946000D01*
X80205123Y-70941525D01*
X80206328Y-70940135D01*
X80207999Y-70932452D01*
X80207999Y-70089086D01*
X80207939Y-70086328D01*
X80205399Y-70028145D01*
X80204683Y-70021028D01*
X80162001Y-69751547D01*
X80160022Y-69742977D01*
X80080496Y-69482857D01*
X80077345Y-69474647D01*
X79962387Y-69228118D01*
X79958126Y-69220431D01*
X79946562Y-69202624D01*
X79926236Y-69134599D01*
X79945915Y-69066384D01*
X79999349Y-69019636D01*
X80052235Y-69008000D01*
X127947765Y-69008000D01*
X128015886Y-69028002D01*
G37*
%TD.AperFunction*%
%TA.AperFunction,Conductor*%
G36*
X79819016Y-90668991D02*
G01*
X79839990Y-90685894D01*
X81360211Y-92206116D01*
X82871837Y-93717742D01*
X82879377Y-93726028D01*
X82883489Y-93732507D01*
X82889266Y-93737932D01*
X82933140Y-93779132D01*
X82935982Y-93781887D01*
X82955719Y-93801624D01*
X82958916Y-93804104D01*
X82967936Y-93811807D01*
X83000168Y-93842075D01*
X83007114Y-93845894D01*
X83007117Y-93845896D01*
X83017923Y-93851837D01*
X83034442Y-93862688D01*
X83050448Y-93875103D01*
X83057717Y-93878248D01*
X83057721Y-93878251D01*
X83091026Y-93892663D01*
X83101676Y-93897880D01*
X83140429Y-93919184D01*
X83148104Y-93921155D01*
X83148105Y-93921155D01*
X83160051Y-93924222D01*
X83178756Y-93930626D01*
X83197344Y-93938670D01*
X83205167Y-93939909D01*
X83205177Y-93939912D01*
X83241013Y-93945588D01*
X83252633Y-93947994D01*
X83287778Y-93957017D01*
X83295459Y-93958989D01*
X83315713Y-93958989D01*
X83335423Y-93960540D01*
X83355432Y-93963709D01*
X83363324Y-93962963D01*
X83399450Y-93959548D01*
X83411308Y-93958989D01*
X84702805Y-93958989D01*
X84770926Y-93978991D01*
X84817419Y-94032647D01*
X84827523Y-94102921D01*
X84811924Y-94147988D01*
X84765473Y-94228444D01*
X84706458Y-94410072D01*
X84705768Y-94416633D01*
X84705768Y-94416635D01*
X84690809Y-94558965D01*
X84686496Y-94600000D01*
X84687186Y-94606565D01*
X84705145Y-94777432D01*
X84706458Y-94789928D01*
X84765473Y-94971556D01*
X84768776Y-94977278D01*
X84768777Y-94977279D01*
X84788472Y-95011392D01*
X84860960Y-95136944D01*
X84934137Y-95218215D01*
X84964853Y-95282221D01*
X84966500Y-95302524D01*
X84966500Y-98371233D01*
X84965973Y-98382416D01*
X84964298Y-98389909D01*
X84964547Y-98397835D01*
X84964547Y-98397836D01*
X84966438Y-98457986D01*
X84966500Y-98461945D01*
X84966500Y-98489856D01*
X84966997Y-98493790D01*
X84966997Y-98493791D01*
X84967005Y-98493856D01*
X84967938Y-98505693D01*
X84969327Y-98549889D01*
X84971869Y-98558638D01*
X84974978Y-98569339D01*
X84978987Y-98588700D01*
X84981526Y-98608797D01*
X84984445Y-98616168D01*
X84984445Y-98616170D01*
X84997804Y-98649912D01*
X85001649Y-98661142D01*
X85008899Y-98686096D01*
X85013982Y-98703593D01*
X85018015Y-98710412D01*
X85018017Y-98710417D01*
X85024293Y-98721028D01*
X85032988Y-98738776D01*
X85040448Y-98757617D01*
X85045110Y-98764033D01*
X85045110Y-98764034D01*
X85066436Y-98793387D01*
X85072952Y-98803307D01*
X85095458Y-98841362D01*
X85109779Y-98855683D01*
X85122619Y-98870716D01*
X85134528Y-98887107D01*
X85157786Y-98906348D01*
X85168605Y-98915298D01*
X85177384Y-98923288D01*
X90396348Y-104142253D01*
X90403888Y-104150539D01*
X90408000Y-104157018D01*
X90413777Y-104162443D01*
X90457651Y-104203643D01*
X90460493Y-104206398D01*
X90480230Y-104226135D01*
X90483427Y-104228615D01*
X90492447Y-104236318D01*
X90524679Y-104266586D01*
X90524964Y-104266743D01*
X90566253Y-104320291D01*
X90572325Y-104391028D01*
X90539191Y-104453818D01*
X90477369Y-104488727D01*
X90448836Y-104492000D01*
X80052235Y-104492000D01*
X79984114Y-104471998D01*
X79937621Y-104418342D01*
X79927517Y-104348068D01*
X79946562Y-104297376D01*
X79958126Y-104279569D01*
X79962387Y-104271882D01*
X80077345Y-104025353D01*
X80080496Y-104017143D01*
X80160022Y-103757023D01*
X80162001Y-103748453D01*
X80204685Y-103478956D01*
X80205399Y-103471872D01*
X80207940Y-103413669D01*
X80208000Y-103410917D01*
X80208000Y-102926448D01*
X80228002Y-102858327D01*
X80281658Y-102811834D01*
X80351932Y-102801730D01*
X80416512Y-102831224D01*
X80423095Y-102837353D01*
X80562719Y-102976977D01*
X80567227Y-102980134D01*
X80567230Y-102980136D01*
X80642995Y-103033187D01*
X80744823Y-103104488D01*
X80749805Y-103106811D01*
X80749810Y-103106814D01*
X80941322Y-103196117D01*
X80946304Y-103198440D01*
X80951612Y-103199862D01*
X80951614Y-103199863D01*
X81017449Y-103217503D01*
X81161037Y-103255978D01*
X81382500Y-103275353D01*
X81603963Y-103255978D01*
X81747551Y-103217503D01*
X81813386Y-103199863D01*
X81813388Y-103199862D01*
X81818696Y-103198440D01*
X81823678Y-103196117D01*
X82015190Y-103106814D01*
X82015195Y-103106811D01*
X82020177Y-103104488D01*
X82122005Y-103033187D01*
X82197770Y-102980136D01*
X82197773Y-102980134D01*
X82202281Y-102976977D01*
X82359477Y-102819781D01*
X82363618Y-102813868D01*
X82483831Y-102642185D01*
X82483832Y-102642183D01*
X82486988Y-102637676D01*
X82489311Y-102632694D01*
X82489314Y-102632689D01*
X82578617Y-102441178D01*
X82578618Y-102441177D01*
X82580940Y-102436196D01*
X82589429Y-102404517D01*
X82626031Y-102267914D01*
X82638478Y-102221463D01*
X82657853Y-102000000D01*
X82638478Y-101778537D01*
X82580940Y-101563804D01*
X82578617Y-101558822D01*
X82489314Y-101367311D01*
X82489311Y-101367306D01*
X82486988Y-101362324D01*
X82454552Y-101316000D01*
X82362636Y-101184730D01*
X82362634Y-101184727D01*
X82359477Y-101180219D01*
X82202281Y-101023023D01*
X82197773Y-101019866D01*
X82197770Y-101019864D01*
X82122005Y-100966813D01*
X82020177Y-100895512D01*
X82015195Y-100893189D01*
X82015190Y-100893186D01*
X81823678Y-100803883D01*
X81823677Y-100803882D01*
X81818696Y-100801560D01*
X81813388Y-100800138D01*
X81813386Y-100800137D01*
X81747551Y-100782497D01*
X81603963Y-100744022D01*
X81382500Y-100724647D01*
X81161037Y-100744022D01*
X81017449Y-100782497D01*
X80951614Y-100800137D01*
X80951612Y-100800138D01*
X80946304Y-100801560D01*
X80941323Y-100803882D01*
X80941322Y-100803883D01*
X80749811Y-100893186D01*
X80749806Y-100893189D01*
X80744824Y-100895512D01*
X80740317Y-100898668D01*
X80740315Y-100898669D01*
X80567230Y-101019864D01*
X80567227Y-101019866D01*
X80562719Y-101023023D01*
X80415096Y-101170646D01*
X80352784Y-101204672D01*
X80281969Y-101199607D01*
X80225133Y-101157060D01*
X80201552Y-101101262D01*
X80162001Y-100851546D01*
X80160022Y-100842977D01*
X80080496Y-100582857D01*
X80077345Y-100574647D01*
X79962387Y-100328118D01*
X79958124Y-100320428D01*
X79809976Y-100092300D01*
X79804686Y-100085281D01*
X79626217Y-99879976D01*
X79620024Y-99873783D01*
X79414719Y-99695314D01*
X79407700Y-99690024D01*
X79179572Y-99541876D01*
X79171882Y-99537613D01*
X78925353Y-99422655D01*
X78917143Y-99419504D01*
X78657023Y-99339978D01*
X78648453Y-99337999D01*
X78471894Y-99310034D01*
X78458211Y-99311802D01*
X78454000Y-99325774D01*
X78454000Y-102428000D01*
X78433998Y-102496121D01*
X78380342Y-102542614D01*
X78328000Y-102554000D01*
X78072000Y-102554000D01*
X78003879Y-102533998D01*
X77957386Y-102480342D01*
X77946000Y-102428000D01*
X77946000Y-99325315D01*
X77942114Y-99312079D01*
X77927655Y-99310106D01*
X77751547Y-99337999D01*
X77742977Y-99339978D01*
X77482857Y-99419504D01*
X77474647Y-99422655D01*
X77228118Y-99537613D01*
X77220431Y-99541874D01*
X77202624Y-99553438D01*
X77134599Y-99573764D01*
X77066384Y-99554085D01*
X77019636Y-99500651D01*
X77008000Y-99447765D01*
X77008000Y-94600588D01*
X77028002Y-94532467D01*
X77081658Y-94485974D01*
X77151932Y-94475870D01*
X77216512Y-94505364D01*
X77229237Y-94518090D01*
X77343218Y-94649673D01*
X77350580Y-94656883D01*
X77514434Y-94792916D01*
X77522881Y-94798831D01*
X77706756Y-94906279D01*
X77716042Y-94910729D01*
X77915001Y-94986703D01*
X77924899Y-94989579D01*
X78028250Y-95010606D01*
X78042299Y-95009410D01*
X78046000Y-94999065D01*
X78046000Y-94998517D01*
X78554000Y-94998517D01*
X78558064Y-95012359D01*
X78571478Y-95014393D01*
X78578184Y-95013534D01*
X78588262Y-95011392D01*
X78792255Y-94950191D01*
X78801842Y-94946433D01*
X78993095Y-94852739D01*
X79001945Y-94847464D01*
X79175328Y-94723792D01*
X79183200Y-94717139D01*
X79334052Y-94566812D01*
X79340730Y-94558965D01*
X79465003Y-94386020D01*
X79470313Y-94377183D01*
X79564670Y-94186267D01*
X79568469Y-94176672D01*
X79630377Y-93972910D01*
X79632555Y-93962837D01*
X79633986Y-93951962D01*
X79631775Y-93937778D01*
X79618617Y-93934000D01*
X78572115Y-93934000D01*
X78556876Y-93938475D01*
X78555671Y-93939865D01*
X78554000Y-93947548D01*
X78554000Y-94998517D01*
X78046000Y-94998517D01*
X78046000Y-93552000D01*
X78066002Y-93483879D01*
X78119658Y-93437386D01*
X78172000Y-93426000D01*
X79618344Y-93426000D01*
X79631875Y-93422027D01*
X79633180Y-93412947D01*
X79591214Y-93245875D01*
X79587894Y-93236124D01*
X79502972Y-93040814D01*
X79498105Y-93031739D01*
X79382426Y-92852926D01*
X79376136Y-92844757D01*
X79232806Y-92687240D01*
X79225273Y-92680215D01*
X79058139Y-92548222D01*
X79049556Y-92542520D01*
X79012602Y-92522120D01*
X78962631Y-92471687D01*
X78947859Y-92402245D01*
X78972975Y-92335839D01*
X79000327Y-92309232D01*
X79060235Y-92266500D01*
X79179860Y-92181173D01*
X79198921Y-92162179D01*
X79269847Y-92091500D01*
X79338096Y-92023489D01*
X79468453Y-91842077D01*
X79540718Y-91695860D01*
X79565136Y-91646453D01*
X79565137Y-91646451D01*
X79567430Y-91641811D01*
X79632370Y-91428069D01*
X79661529Y-91206590D01*
X79661611Y-91203240D01*
X79663074Y-91143365D01*
X79663074Y-91143361D01*
X79663156Y-91140000D01*
X79644852Y-90917361D01*
X79642971Y-90909870D01*
X79616801Y-90805684D01*
X79619605Y-90734743D01*
X79660318Y-90676580D01*
X79726013Y-90649661D01*
X79739005Y-90648989D01*
X79750895Y-90648989D01*
X79819016Y-90668991D01*
G37*
%TD.AperFunction*%
%TA.AperFunction,Conductor*%
G36*
X92539974Y-94653502D02*
G01*
X92586467Y-94707158D01*
X92596571Y-94777432D01*
X92567077Y-94842012D01*
X92545914Y-94861436D01*
X92463747Y-94921134D01*
X92459332Y-94926037D01*
X92454420Y-94930460D01*
X92453295Y-94929211D01*
X92399986Y-94962051D01*
X92366800Y-94966500D01*
X91411347Y-94966500D01*
X91343226Y-94946498D01*
X91296733Y-94892842D01*
X91286629Y-94822568D01*
X91302228Y-94777500D01*
X91331223Y-94727279D01*
X91331224Y-94727278D01*
X91334527Y-94721556D01*
X91336569Y-94715272D01*
X91339253Y-94709243D01*
X91341818Y-94710385D01*
X91374894Y-94661981D01*
X91440283Y-94634326D01*
X91454682Y-94633500D01*
X92471853Y-94633500D01*
X92539974Y-94653502D01*
G37*
%TD.AperFunction*%
%TA.AperFunction,Conductor*%
G36*
X84059950Y-85890122D02*
G01*
X84116785Y-85932669D01*
X84141226Y-85995006D01*
X84156458Y-86139928D01*
X84215473Y-86321556D01*
X84218776Y-86327278D01*
X84218777Y-86327279D01*
X84238696Y-86361780D01*
X84310960Y-86486944D01*
X84315378Y-86491851D01*
X84315379Y-86491852D01*
X84428060Y-86616997D01*
X84438747Y-86628866D01*
X84593248Y-86741118D01*
X84599276Y-86743802D01*
X84599278Y-86743803D01*
X84761681Y-86816109D01*
X84767712Y-86818794D01*
X84861113Y-86838647D01*
X84948056Y-86857128D01*
X84948061Y-86857128D01*
X84954513Y-86858500D01*
X85145487Y-86858500D01*
X85151939Y-86857128D01*
X85151944Y-86857128D01*
X85238887Y-86838647D01*
X85332288Y-86818794D01*
X85338319Y-86816109D01*
X85500722Y-86743803D01*
X85500724Y-86743802D01*
X85506752Y-86741118D01*
X85661253Y-86628866D01*
X85671940Y-86616997D01*
X85784621Y-86491852D01*
X85784622Y-86491851D01*
X85789040Y-86486944D01*
X85861304Y-86361780D01*
X85881223Y-86327279D01*
X85881224Y-86327278D01*
X85884527Y-86321556D01*
X85923466Y-86201715D01*
X85963540Y-86143110D01*
X86028937Y-86115473D01*
X86043299Y-86114652D01*
X87846530Y-86114652D01*
X87914651Y-86134654D01*
X87961144Y-86188310D01*
X87971248Y-86258584D01*
X87966364Y-86279585D01*
X87956458Y-86310072D01*
X87955768Y-86316633D01*
X87955768Y-86316635D01*
X87950561Y-86366179D01*
X87936496Y-86500000D01*
X87937186Y-86506565D01*
X87949632Y-86624978D01*
X87956458Y-86689928D01*
X88015473Y-86871556D01*
X88018776Y-86877278D01*
X88018777Y-86877279D01*
X88031895Y-86900000D01*
X88110960Y-87036944D01*
X88115378Y-87041851D01*
X88115379Y-87041852D01*
X88220481Y-87158580D01*
X88238747Y-87178866D01*
X88291242Y-87217006D01*
X88385794Y-87285702D01*
X88393248Y-87291118D01*
X88399276Y-87293802D01*
X88399278Y-87293803D01*
X88558173Y-87364547D01*
X88567712Y-87368794D01*
X88574170Y-87370167D01*
X88574180Y-87370170D01*
X88574589Y-87370257D01*
X88574803Y-87370372D01*
X88580452Y-87372208D01*
X88580116Y-87373241D01*
X88637061Y-87403987D01*
X88671380Y-87466138D01*
X88666649Y-87536977D01*
X88657506Y-87556502D01*
X88640257Y-87586379D01*
X88613587Y-87632572D01*
X88554572Y-87814200D01*
X88553882Y-87820761D01*
X88553882Y-87820763D01*
X88542444Y-87929595D01*
X88534610Y-88004128D01*
X88554572Y-88194056D01*
X88613587Y-88375684D01*
X88616890Y-88381406D01*
X88616891Y-88381407D01*
X88640683Y-88422616D01*
X88709074Y-88541072D01*
X88713492Y-88545979D01*
X88713493Y-88545980D01*
X88792800Y-88634059D01*
X88836861Y-88682994D01*
X88932636Y-88752579D01*
X88981356Y-88787976D01*
X88991362Y-88795246D01*
X88997391Y-88797930D01*
X88997394Y-88797932D01*
X89019173Y-88807629D01*
X89073268Y-88853610D01*
X89093916Y-88921538D01*
X89093232Y-88935904D01*
X89089778Y-88968774D01*
X89086496Y-89000000D01*
X89087186Y-89006565D01*
X89087186Y-89006568D01*
X89089368Y-89027331D01*
X89076595Y-89097169D01*
X89028092Y-89149015D01*
X88964058Y-89166500D01*
X88389594Y-89166500D01*
X88321473Y-89146498D01*
X88300499Y-89129595D01*
X88072122Y-88901218D01*
X88038096Y-88838906D01*
X88035907Y-88825293D01*
X88019232Y-88666635D01*
X88019232Y-88666633D01*
X88018542Y-88660072D01*
X87959527Y-88478444D01*
X87954728Y-88470131D01*
X87910987Y-88394371D01*
X87864040Y-88313056D01*
X87794850Y-88236212D01*
X87740675Y-88176045D01*
X87740674Y-88176044D01*
X87736253Y-88171134D01*
X87602395Y-88073880D01*
X87587094Y-88062763D01*
X87587093Y-88062762D01*
X87581752Y-88058882D01*
X87575724Y-88056198D01*
X87575722Y-88056197D01*
X87413319Y-87983891D01*
X87413318Y-87983891D01*
X87407288Y-87981206D01*
X87298593Y-87958102D01*
X87226944Y-87942872D01*
X87226939Y-87942872D01*
X87220487Y-87941500D01*
X87029513Y-87941500D01*
X87023061Y-87942872D01*
X87023056Y-87942872D01*
X86951407Y-87958102D01*
X86842712Y-87981206D01*
X86836682Y-87983891D01*
X86836681Y-87983891D01*
X86674278Y-88056197D01*
X86674276Y-88056198D01*
X86668248Y-88058882D01*
X86662907Y-88062762D01*
X86662906Y-88062763D01*
X86647605Y-88073880D01*
X86513747Y-88171134D01*
X86509326Y-88176044D01*
X86509325Y-88176045D01*
X86455151Y-88236212D01*
X86385960Y-88313056D01*
X86339013Y-88394371D01*
X86295273Y-88470131D01*
X86290473Y-88478444D01*
X86231458Y-88660072D01*
X86230768Y-88666633D01*
X86230768Y-88666635D01*
X86216800Y-88799534D01*
X86211496Y-88850000D01*
X86212186Y-88856565D01*
X86227632Y-89003522D01*
X86231458Y-89039928D01*
X86290473Y-89221556D01*
X86293776Y-89227278D01*
X86293777Y-89227279D01*
X86293903Y-89227497D01*
X86293937Y-89227639D01*
X86296461Y-89233307D01*
X86295425Y-89233768D01*
X86310643Y-89296492D01*
X86287425Y-89363584D01*
X86231619Y-89407473D01*
X86184786Y-89416500D01*
X84578767Y-89416500D01*
X84567584Y-89415973D01*
X84560091Y-89414298D01*
X84552165Y-89414547D01*
X84552164Y-89414547D01*
X84492014Y-89416438D01*
X84488055Y-89416500D01*
X84460144Y-89416500D01*
X84456210Y-89416997D01*
X84456209Y-89416997D01*
X84456144Y-89417005D01*
X84444307Y-89417938D01*
X84412490Y-89418938D01*
X84408029Y-89419078D01*
X84400110Y-89419327D01*
X84382454Y-89424456D01*
X84380658Y-89424978D01*
X84361306Y-89428986D01*
X84354235Y-89429880D01*
X84341203Y-89431526D01*
X84333834Y-89434443D01*
X84333832Y-89434444D01*
X84300097Y-89447800D01*
X84288869Y-89451645D01*
X84246407Y-89463982D01*
X84239584Y-89468017D01*
X84239582Y-89468018D01*
X84228972Y-89474293D01*
X84211224Y-89482988D01*
X84192383Y-89490448D01*
X84185967Y-89495110D01*
X84185966Y-89495110D01*
X84156613Y-89516436D01*
X84146693Y-89522952D01*
X84115465Y-89541420D01*
X84115462Y-89541422D01*
X84108638Y-89545458D01*
X84094317Y-89559779D01*
X84079284Y-89572619D01*
X84062893Y-89584528D01*
X84036037Y-89616991D01*
X84034702Y-89618605D01*
X84026712Y-89627384D01*
X82949500Y-90704595D01*
X82887188Y-90738621D01*
X82860405Y-90741500D01*
X82761866Y-90741500D01*
X82699684Y-90748255D01*
X82563295Y-90799385D01*
X82446739Y-90886739D01*
X82359385Y-91003295D01*
X82356233Y-91011703D01*
X82316237Y-91118391D01*
X82273595Y-91175155D01*
X82207034Y-91199855D01*
X82137685Y-91184647D01*
X82109160Y-91163256D01*
X81412585Y-90466680D01*
X80569141Y-89623236D01*
X80561601Y-89614950D01*
X80557489Y-89608471D01*
X80507837Y-89561845D01*
X80504996Y-89559091D01*
X80485259Y-89539354D01*
X80482062Y-89536874D01*
X80473040Y-89529169D01*
X80440810Y-89498903D01*
X80433864Y-89495084D01*
X80433861Y-89495082D01*
X80423055Y-89489141D01*
X80406536Y-89478290D01*
X80396793Y-89470733D01*
X80396794Y-89470733D01*
X80390530Y-89465875D01*
X80386322Y-89464054D01*
X80338883Y-89413249D01*
X80326175Y-89343399D01*
X80353249Y-89277768D01*
X80411509Y-89237192D01*
X80434286Y-89233114D01*
X80434135Y-89232163D01*
X80441969Y-89230922D01*
X80449889Y-89230673D01*
X80469343Y-89225021D01*
X80488700Y-89221013D01*
X80500930Y-89219468D01*
X80500931Y-89219468D01*
X80508797Y-89218474D01*
X80516168Y-89215555D01*
X80516170Y-89215555D01*
X80549912Y-89202196D01*
X80561142Y-89198351D01*
X80595983Y-89188229D01*
X80595984Y-89188229D01*
X80603593Y-89186018D01*
X80610412Y-89181985D01*
X80610417Y-89181983D01*
X80621028Y-89175707D01*
X80638776Y-89167012D01*
X80657617Y-89159552D01*
X80693387Y-89133564D01*
X80703307Y-89127048D01*
X80734535Y-89108580D01*
X80734538Y-89108578D01*
X80741362Y-89104542D01*
X80755683Y-89090221D01*
X80770717Y-89077380D01*
X80780694Y-89070131D01*
X80787107Y-89065472D01*
X80815298Y-89031395D01*
X80823288Y-89022616D01*
X83926822Y-85919083D01*
X83989134Y-85885057D01*
X84059950Y-85890122D01*
G37*
%TD.AperFunction*%
%TA.AperFunction,Conductor*%
G36*
X113529500Y-84378991D02*
G01*
X113575993Y-84432647D01*
X113584845Y-84486829D01*
X113587186Y-84486829D01*
X113587186Y-84493435D01*
X113586496Y-84500000D01*
X113587186Y-84506565D01*
X113596608Y-84596206D01*
X113606458Y-84689928D01*
X113665473Y-84871556D01*
X113760960Y-85036944D01*
X113834137Y-85118215D01*
X113864853Y-85182221D01*
X113866500Y-85202524D01*
X113866500Y-86490423D01*
X113846498Y-86558544D01*
X113792842Y-86605037D01*
X113744466Y-86616361D01*
X113742008Y-86616438D01*
X113738055Y-86616500D01*
X113710144Y-86616500D01*
X113706210Y-86616997D01*
X113706209Y-86616997D01*
X113706144Y-86617005D01*
X113694307Y-86617938D01*
X113662490Y-86618938D01*
X113658029Y-86619078D01*
X113650110Y-86619327D01*
X113632454Y-86624456D01*
X113630658Y-86624978D01*
X113611306Y-86628986D01*
X113604235Y-86629880D01*
X113591203Y-86631526D01*
X113583834Y-86634443D01*
X113583832Y-86634444D01*
X113550097Y-86647800D01*
X113538869Y-86651645D01*
X113496407Y-86663982D01*
X113489585Y-86668016D01*
X113489579Y-86668019D01*
X113478968Y-86674294D01*
X113461218Y-86682990D01*
X113449756Y-86687528D01*
X113449751Y-86687531D01*
X113442383Y-86690448D01*
X113435968Y-86695109D01*
X113406625Y-86716427D01*
X113396707Y-86722943D01*
X113384582Y-86730114D01*
X113358637Y-86745458D01*
X113344313Y-86759782D01*
X113329281Y-86772621D01*
X113312893Y-86784528D01*
X113286767Y-86816109D01*
X113284712Y-86818593D01*
X113276722Y-86827373D01*
X112774500Y-87329595D01*
X112712188Y-87363621D01*
X112685405Y-87366500D01*
X111578767Y-87366500D01*
X111567584Y-87365973D01*
X111560091Y-87364298D01*
X111552165Y-87364547D01*
X111552164Y-87364547D01*
X111492014Y-87366438D01*
X111488055Y-87366500D01*
X111460144Y-87366500D01*
X111456210Y-87366997D01*
X111456209Y-87366997D01*
X111456144Y-87367005D01*
X111444307Y-87367938D01*
X111412490Y-87368938D01*
X111408029Y-87369078D01*
X111400110Y-87369327D01*
X111382454Y-87374456D01*
X111380658Y-87374978D01*
X111361306Y-87378986D01*
X111354235Y-87379880D01*
X111341203Y-87381526D01*
X111333834Y-87384443D01*
X111333832Y-87384444D01*
X111300097Y-87397800D01*
X111288869Y-87401645D01*
X111246407Y-87413982D01*
X111239585Y-87418016D01*
X111239579Y-87418019D01*
X111228968Y-87424294D01*
X111211218Y-87432990D01*
X111199756Y-87437528D01*
X111199751Y-87437531D01*
X111192383Y-87440448D01*
X111185968Y-87445109D01*
X111156625Y-87466427D01*
X111146707Y-87472943D01*
X111128749Y-87483564D01*
X111108637Y-87495458D01*
X111094313Y-87509782D01*
X111079281Y-87522621D01*
X111062893Y-87534528D01*
X111048277Y-87552196D01*
X111034712Y-87568593D01*
X111026722Y-87577373D01*
X110149500Y-88454595D01*
X110087188Y-88488621D01*
X110060405Y-88491500D01*
X108203767Y-88491500D01*
X108192584Y-88490973D01*
X108185091Y-88489298D01*
X108177165Y-88489547D01*
X108177164Y-88489547D01*
X108117014Y-88491438D01*
X108113055Y-88491500D01*
X108085144Y-88491500D01*
X108081210Y-88491997D01*
X108081209Y-88491997D01*
X108081144Y-88492005D01*
X108069307Y-88492938D01*
X108037490Y-88493938D01*
X108033029Y-88494078D01*
X108025110Y-88494327D01*
X108009262Y-88498931D01*
X108005658Y-88499978D01*
X107986306Y-88503986D01*
X107981906Y-88504542D01*
X107966203Y-88506526D01*
X107958834Y-88509443D01*
X107958832Y-88509444D01*
X107925097Y-88522800D01*
X107913869Y-88526645D01*
X107881643Y-88536008D01*
X107846489Y-88541011D01*
X106612988Y-88541011D01*
X106544867Y-88521009D01*
X106498374Y-88467353D01*
X106488270Y-88397079D01*
X106517764Y-88332499D01*
X106523893Y-88325915D01*
X106790927Y-88058882D01*
X107229405Y-87620404D01*
X107291717Y-87586379D01*
X107318500Y-87583500D01*
X107422211Y-87583500D01*
X107433394Y-87584027D01*
X107440887Y-87585702D01*
X107448813Y-87585453D01*
X107448814Y-87585453D01*
X107508964Y-87583562D01*
X107512923Y-87583500D01*
X107540834Y-87583500D01*
X107544769Y-87583003D01*
X107544834Y-87582995D01*
X107556671Y-87582062D01*
X107588929Y-87581048D01*
X107592948Y-87580922D01*
X107600867Y-87580673D01*
X107620321Y-87575021D01*
X107639678Y-87571013D01*
X107651908Y-87569468D01*
X107651909Y-87569468D01*
X107659775Y-87568474D01*
X107667146Y-87565555D01*
X107667148Y-87565555D01*
X107700890Y-87552196D01*
X107712120Y-87548351D01*
X107746961Y-87538229D01*
X107746962Y-87538229D01*
X107754571Y-87536018D01*
X107761390Y-87531985D01*
X107761395Y-87531983D01*
X107772006Y-87525707D01*
X107789754Y-87517012D01*
X107808595Y-87509552D01*
X107844365Y-87483564D01*
X107854285Y-87477048D01*
X107885513Y-87458580D01*
X107885516Y-87458578D01*
X107892340Y-87454542D01*
X107906661Y-87440221D01*
X107921695Y-87427380D01*
X107938085Y-87415472D01*
X107966276Y-87381395D01*
X107974266Y-87372616D01*
X108040278Y-87306604D01*
X108102590Y-87272578D01*
X108173405Y-87277643D01*
X108223008Y-87311387D01*
X108230350Y-87319540D01*
X108238747Y-87328866D01*
X108244089Y-87332747D01*
X108244091Y-87332749D01*
X108357949Y-87415472D01*
X108393248Y-87441118D01*
X108399276Y-87443802D01*
X108399278Y-87443803D01*
X108561681Y-87516109D01*
X108567712Y-87518794D01*
X108648744Y-87536018D01*
X108748056Y-87557128D01*
X108748061Y-87557128D01*
X108754513Y-87558500D01*
X108945487Y-87558500D01*
X108951939Y-87557128D01*
X108951944Y-87557128D01*
X109051256Y-87536018D01*
X109132288Y-87518794D01*
X109138319Y-87516109D01*
X109300722Y-87443803D01*
X109300724Y-87443802D01*
X109306752Y-87441118D01*
X109344102Y-87413982D01*
X109439671Y-87344546D01*
X109461253Y-87328866D01*
X109465668Y-87323963D01*
X109470580Y-87319540D01*
X109471946Y-87321057D01*
X109524162Y-87288883D01*
X109553403Y-87284492D01*
X109582986Y-87283562D01*
X109586945Y-87283500D01*
X109614856Y-87283500D01*
X109618791Y-87283003D01*
X109618856Y-87282995D01*
X109630693Y-87282062D01*
X109662951Y-87281048D01*
X109666970Y-87280922D01*
X109674889Y-87280673D01*
X109694343Y-87275021D01*
X109713700Y-87271013D01*
X109725930Y-87269468D01*
X109725931Y-87269468D01*
X109733797Y-87268474D01*
X109741168Y-87265555D01*
X109741170Y-87265555D01*
X109774912Y-87252196D01*
X109786142Y-87248351D01*
X109820983Y-87238229D01*
X109820984Y-87238229D01*
X109828593Y-87236018D01*
X109835412Y-87231985D01*
X109835417Y-87231983D01*
X109846028Y-87225707D01*
X109863776Y-87217012D01*
X109882617Y-87209552D01*
X109918387Y-87183564D01*
X109928307Y-87177048D01*
X109959535Y-87158580D01*
X109959538Y-87158578D01*
X109966362Y-87154542D01*
X109980683Y-87140221D01*
X109995717Y-87127380D01*
X110005694Y-87120131D01*
X110012107Y-87115472D01*
X110040298Y-87081395D01*
X110048288Y-87072616D01*
X110450499Y-86670405D01*
X110512811Y-86636379D01*
X110539594Y-86633500D01*
X110595487Y-86633500D01*
X110601939Y-86632128D01*
X110601944Y-86632128D01*
X110701510Y-86610964D01*
X110782288Y-86593794D01*
X110788319Y-86591109D01*
X110950722Y-86518803D01*
X110950724Y-86518802D01*
X110956752Y-86516118D01*
X110978937Y-86500000D01*
X111062495Y-86439291D01*
X111111253Y-86403866D01*
X111143770Y-86367752D01*
X111234621Y-86266852D01*
X111234622Y-86266851D01*
X111239040Y-86261944D01*
X111315271Y-86129908D01*
X111331223Y-86102279D01*
X111331224Y-86102278D01*
X111334527Y-86096556D01*
X111393542Y-85914928D01*
X111395782Y-85893621D01*
X111412814Y-85731565D01*
X111413504Y-85725000D01*
X111404397Y-85638354D01*
X111394232Y-85541635D01*
X111394232Y-85541633D01*
X111393542Y-85535072D01*
X111334527Y-85353444D01*
X111319506Y-85327426D01*
X111277307Y-85254337D01*
X111239040Y-85188056D01*
X111111253Y-85046134D01*
X111004804Y-84968794D01*
X110962094Y-84937763D01*
X110962093Y-84937762D01*
X110956752Y-84933882D01*
X110950724Y-84931198D01*
X110950722Y-84931197D01*
X110788319Y-84858891D01*
X110788318Y-84858891D01*
X110782288Y-84856206D01*
X110775827Y-84854833D01*
X110775822Y-84854831D01*
X110768786Y-84853335D01*
X110706312Y-84819607D01*
X110671991Y-84757457D01*
X110676719Y-84686618D01*
X110705888Y-84640994D01*
X110950988Y-84395894D01*
X111013300Y-84361868D01*
X111040083Y-84358989D01*
X113461379Y-84358989D01*
X113529500Y-84378991D01*
G37*
%TD.AperFunction*%
%TA.AperFunction,Conductor*%
G36*
X79861929Y-83472364D02*
G01*
X79863902Y-83473798D01*
X79870537Y-83478618D01*
X79876565Y-83481302D01*
X79876567Y-83481303D01*
X79926661Y-83503606D01*
X80031732Y-83550386D01*
X80041749Y-83554846D01*
X80095844Y-83600826D01*
X80116500Y-83669953D01*
X80116500Y-83742072D01*
X80127022Y-83843482D01*
X80180692Y-84004349D01*
X80269929Y-84148555D01*
X80275108Y-84153725D01*
X80279545Y-84159323D01*
X80306184Y-84225132D01*
X80293014Y-84294897D01*
X80277868Y-84315750D01*
X80278845Y-84316521D01*
X80274307Y-84322267D01*
X80269136Y-84327447D01*
X80180151Y-84471808D01*
X80177846Y-84478756D01*
X80177846Y-84478757D01*
X80138890Y-84596206D01*
X80126762Y-84632769D01*
X80116500Y-84732928D01*
X80116500Y-85267072D01*
X80127022Y-85368482D01*
X80180692Y-85529349D01*
X80269929Y-85673555D01*
X80294805Y-85698387D01*
X80328884Y-85760668D01*
X80323882Y-85831488D01*
X80294960Y-85876578D01*
X80269136Y-85902447D01*
X80265296Y-85908677D01*
X80265295Y-85908678D01*
X80258881Y-85919083D01*
X80180151Y-86046808D01*
X80177846Y-86053756D01*
X80177846Y-86053757D01*
X80145458Y-86151404D01*
X80126762Y-86207769D01*
X80116500Y-86307928D01*
X80116500Y-86842072D01*
X80116837Y-86845318D01*
X80116837Y-86845322D01*
X80118907Y-86865271D01*
X80127022Y-86943482D01*
X80180692Y-87104349D01*
X80269929Y-87248555D01*
X80389947Y-87368364D01*
X80396177Y-87372204D01*
X80396178Y-87372205D01*
X80437243Y-87397518D01*
X80484737Y-87450291D01*
X80496159Y-87520362D01*
X80467885Y-87585486D01*
X80460222Y-87593873D01*
X80124500Y-87929595D01*
X80062188Y-87963621D01*
X80035405Y-87966500D01*
X79576805Y-87966500D01*
X79508684Y-87946498D01*
X79471013Y-87908940D01*
X79382822Y-87772617D01*
X79382820Y-87772614D01*
X79380014Y-87768277D01*
X79229670Y-87603051D01*
X79225619Y-87599852D01*
X79225615Y-87599848D01*
X79058414Y-87467800D01*
X79058410Y-87467798D01*
X79054359Y-87464598D01*
X79013053Y-87441796D01*
X78963084Y-87391364D01*
X78948312Y-87321921D01*
X78973428Y-87255516D01*
X79000780Y-87228909D01*
X79065494Y-87182749D01*
X79179860Y-87101173D01*
X79184845Y-87096206D01*
X79334435Y-86947137D01*
X79338096Y-86943489D01*
X79364629Y-86906565D01*
X79465435Y-86766277D01*
X79468453Y-86762077D01*
X79472996Y-86752886D01*
X79565136Y-86566453D01*
X79565137Y-86566451D01*
X79567430Y-86561811D01*
X79616484Y-86400356D01*
X79630865Y-86353023D01*
X79630865Y-86353021D01*
X79632370Y-86348069D01*
X79661529Y-86126590D01*
X79662263Y-86096556D01*
X79663074Y-86063365D01*
X79663074Y-86063361D01*
X79663156Y-86060000D01*
X79644852Y-85837361D01*
X79590431Y-85620702D01*
X79501354Y-85415840D01*
X79451075Y-85338120D01*
X79382822Y-85232617D01*
X79382820Y-85232614D01*
X79380014Y-85228277D01*
X79229670Y-85063051D01*
X79225619Y-85059852D01*
X79225615Y-85059848D01*
X79058414Y-84927800D01*
X79058410Y-84927798D01*
X79054359Y-84924598D01*
X79013053Y-84901796D01*
X78963084Y-84851364D01*
X78948312Y-84781921D01*
X78973428Y-84715516D01*
X79000780Y-84688909D01*
X79069889Y-84639614D01*
X79179860Y-84561173D01*
X79190005Y-84551064D01*
X79293629Y-84447801D01*
X79338096Y-84403489D01*
X79345321Y-84393435D01*
X79465435Y-84226277D01*
X79468453Y-84222077D01*
X79535240Y-84086944D01*
X79565136Y-84026453D01*
X79565137Y-84026451D01*
X79567430Y-84021811D01*
X79632370Y-83808069D01*
X79661529Y-83586590D01*
X79661905Y-83571217D01*
X79683567Y-83503606D01*
X79738344Y-83458439D01*
X79808844Y-83450057D01*
X79861929Y-83472364D01*
G37*
%TD.AperFunction*%
%TA.AperFunction,Conductor*%
G36*
X112859921Y-82653502D02*
G01*
X112879147Y-82669843D01*
X112879420Y-82669540D01*
X112884332Y-82673963D01*
X112888747Y-82678866D01*
X112895125Y-82683500D01*
X113034200Y-82784544D01*
X113043248Y-82791118D01*
X113049276Y-82793802D01*
X113049278Y-82793803D01*
X113177481Y-82850882D01*
X113231576Y-82896862D01*
X113252226Y-82964789D01*
X113232874Y-83033097D01*
X113179663Y-83080099D01*
X113126232Y-83091989D01*
X111994078Y-83091989D01*
X111925957Y-83071987D01*
X111879464Y-83018331D01*
X111869360Y-82948057D01*
X111898854Y-82883477D01*
X111904983Y-82876894D01*
X112111472Y-82670405D01*
X112173784Y-82636379D01*
X112200567Y-82633500D01*
X112791800Y-82633500D01*
X112859921Y-82653502D01*
G37*
%TD.AperFunction*%
%TA.AperFunction,Conductor*%
G36*
X82545448Y-79941353D02*
G01*
X84489320Y-81885225D01*
X84523346Y-81947537D01*
X84518281Y-82018352D01*
X84475734Y-82075188D01*
X84409214Y-82099999D01*
X84374026Y-82097566D01*
X84351948Y-82092873D01*
X84351945Y-82092873D01*
X84345487Y-82091500D01*
X84154513Y-82091500D01*
X84148061Y-82092872D01*
X84148056Y-82092872D01*
X84067849Y-82109921D01*
X83967712Y-82131206D01*
X83961682Y-82133891D01*
X83961681Y-82133891D01*
X83799278Y-82206197D01*
X83799276Y-82206198D01*
X83793248Y-82208882D01*
X83638747Y-82321134D01*
X83634326Y-82326044D01*
X83634325Y-82326045D01*
X83516271Y-82457158D01*
X83510960Y-82463056D01*
X83415473Y-82628444D01*
X83356458Y-82810072D01*
X83355768Y-82816633D01*
X83355768Y-82816635D01*
X83344044Y-82928182D01*
X83317031Y-82993839D01*
X83258809Y-83034468D01*
X83218734Y-83041011D01*
X83189105Y-83041011D01*
X83120984Y-83021009D01*
X83100010Y-83004106D01*
X82120405Y-82024500D01*
X82086379Y-81962188D01*
X82083500Y-81935405D01*
X82083500Y-81632928D01*
X82072978Y-81531518D01*
X82019308Y-81370651D01*
X81930071Y-81226445D01*
X81862501Y-81158992D01*
X81828422Y-81096711D01*
X81833425Y-81025891D01*
X81857885Y-80985507D01*
X81860121Y-80983024D01*
X81860122Y-80983023D01*
X81864540Y-80978116D01*
X81960027Y-80812728D01*
X82001889Y-80683891D01*
X82017002Y-80637379D01*
X82017002Y-80637377D01*
X82019042Y-80631100D01*
X82029498Y-80531616D01*
X82056511Y-80465959D01*
X82065713Y-80455691D01*
X82092247Y-80429157D01*
X82100537Y-80421613D01*
X82107018Y-80417500D01*
X82115470Y-80408500D01*
X82153658Y-80367833D01*
X82156413Y-80364991D01*
X82176135Y-80345269D01*
X82178619Y-80342067D01*
X82186317Y-80333055D01*
X82211161Y-80306598D01*
X82216586Y-80300821D01*
X82226347Y-80283066D01*
X82237198Y-80266547D01*
X82249614Y-80250541D01*
X82252764Y-80243262D01*
X82267174Y-80209963D01*
X82272391Y-80199313D01*
X82293695Y-80160560D01*
X82298733Y-80140937D01*
X82305137Y-80122234D01*
X82310033Y-80110920D01*
X82310033Y-80110919D01*
X82313181Y-80103645D01*
X82314420Y-80095822D01*
X82314423Y-80095812D01*
X82320099Y-80059976D01*
X82322505Y-80048356D01*
X82333500Y-80005531D01*
X82335141Y-80005952D01*
X82359735Y-79949572D01*
X82418797Y-79910175D01*
X82489783Y-79908964D01*
X82545448Y-79941353D01*
G37*
%TD.AperFunction*%
%TA.AperFunction,Conductor*%
G36*
X79861306Y-78305398D02*
G01*
X79875968Y-78317968D01*
X80915945Y-79357945D01*
X80949971Y-79420257D01*
X80944906Y-79491072D01*
X80902359Y-79547908D01*
X80853053Y-79570285D01*
X80849678Y-79571003D01*
X80849673Y-79571005D01*
X80843212Y-79572378D01*
X80837182Y-79575063D01*
X80837181Y-79575063D01*
X80674778Y-79647369D01*
X80674776Y-79647370D01*
X80668748Y-79650054D01*
X80663407Y-79653934D01*
X80663406Y-79653935D01*
X80622196Y-79683876D01*
X80514247Y-79762306D01*
X80509826Y-79767216D01*
X80509825Y-79767217D01*
X80406218Y-79882285D01*
X80386460Y-79904228D01*
X80303248Y-80048356D01*
X80295016Y-80062614D01*
X80243634Y-80111607D01*
X80173920Y-80125043D01*
X80108009Y-80098657D01*
X80064901Y-80034769D01*
X80063231Y-80029023D01*
X80063230Y-80029021D01*
X80061018Y-80021407D01*
X80050707Y-80003972D01*
X80042012Y-79986224D01*
X80034552Y-79967383D01*
X80023279Y-79951866D01*
X80008564Y-79931613D01*
X80002048Y-79921693D01*
X79988816Y-79899320D01*
X79979542Y-79883638D01*
X79973936Y-79878031D01*
X79965220Y-79869315D01*
X79952379Y-79854281D01*
X79945131Y-79844305D01*
X79945130Y-79844304D01*
X79940472Y-79837893D01*
X79906407Y-79809712D01*
X79897626Y-79801722D01*
X79559135Y-79463230D01*
X79551602Y-79454952D01*
X79547489Y-79448471D01*
X79541590Y-79442931D01*
X79497854Y-79401862D01*
X79495008Y-79399104D01*
X79478060Y-79382155D01*
X79475259Y-79379354D01*
X79472062Y-79376874D01*
X79463040Y-79369169D01*
X79460050Y-79366361D01*
X79449388Y-79356349D01*
X79413423Y-79295137D01*
X79416260Y-79224197D01*
X79433318Y-79190973D01*
X79465435Y-79146277D01*
X79468453Y-79142077D01*
X79477504Y-79123765D01*
X79565136Y-78946453D01*
X79565137Y-78946451D01*
X79567430Y-78941811D01*
X79632370Y-78728069D01*
X79661529Y-78506590D01*
X79661690Y-78500000D01*
X79663074Y-78443365D01*
X79663074Y-78443361D01*
X79663156Y-78440000D01*
X79661297Y-78417387D01*
X79675650Y-78347856D01*
X79725316Y-78297123D01*
X79794526Y-78281296D01*
X79861306Y-78305398D01*
G37*
%TD.AperFunction*%
%TA.AperFunction,Conductor*%
G36*
X107579512Y-77462881D02*
G01*
X107586095Y-77469010D01*
X107844455Y-77727370D01*
X107878481Y-77789682D01*
X107873416Y-77860497D01*
X107830869Y-77917333D01*
X107763886Y-77941659D01*
X107763923Y-77942001D01*
X107762525Y-77942153D01*
X107762172Y-77942281D01*
X107760523Y-77942370D01*
X107709662Y-77947895D01*
X107692247Y-77952035D01*
X107633953Y-77952034D01*
X107629727Y-77951029D01*
X107622327Y-77948255D01*
X107560145Y-77941500D01*
X107497000Y-77941500D01*
X107428879Y-77921498D01*
X107382386Y-77867842D01*
X107371000Y-77815500D01*
X107371000Y-77558105D01*
X107391002Y-77489984D01*
X107444658Y-77443491D01*
X107514932Y-77433387D01*
X107579512Y-77462881D01*
G37*
%TD.AperFunction*%
%TA.AperFunction,Conductor*%
G36*
X86967501Y-74446287D02*
G01*
X87005885Y-74506013D01*
X87008939Y-74518874D01*
X87046737Y-74725837D01*
X87048146Y-74730060D01*
X87116505Y-74934956D01*
X87132272Y-74982217D01*
X87144254Y-75006197D01*
X87247470Y-75212763D01*
X87253078Y-75223987D01*
X87404211Y-75442658D01*
X87404704Y-75443372D01*
X87426980Y-75510784D01*
X87409275Y-75579537D01*
X87357209Y-75627804D01*
X87301051Y-75641011D01*
X86884989Y-75641011D01*
X86816868Y-75621009D01*
X86770375Y-75567353D01*
X86758989Y-75515011D01*
X86758989Y-74541511D01*
X86778991Y-74473390D01*
X86832647Y-74426897D01*
X86902921Y-74416793D01*
X86967501Y-74446287D01*
G37*
%TD.AperFunction*%
%TD*%
M02*
