%TF.GenerationSoftware,KiCad,Pcbnew,6.0.2-1.fc35*%
%TF.CreationDate,2022-05-08T19:10:55+02:00*%
%TF.ProjectId,LEDnode,4c45446e-6f64-4652-9e6b-696361645f70,rev?*%
%TF.SameCoordinates,Original*%
%TF.FileFunction,Soldermask,Bot*%
%TF.FilePolarity,Negative*%
%FSLAX46Y46*%
G04 Gerber Fmt 4.6, Leading zero omitted, Abs format (unit mm)*
G04 Created by KiCad (PCBNEW 6.0.2-1.fc35) date 2022-05-08 19:10:55*
%MOMM*%
%LPD*%
G01*
G04 APERTURE LIST*
G04 Aperture macros list*
%AMRoundRect*
0 Rectangle with rounded corners*
0 $1 Rounding radius*
0 $2 $3 $4 $5 $6 $7 $8 $9 X,Y pos of 4 corners*
0 Add a 4 corners polygon primitive as box body*
4,1,4,$2,$3,$4,$5,$6,$7,$8,$9,$2,$3,0*
0 Add four circle primitives for the rounded corners*
1,1,$1+$1,$2,$3*
1,1,$1+$1,$4,$5*
1,1,$1+$1,$6,$7*
1,1,$1+$1,$8,$9*
0 Add four rect primitives between the rounded corners*
20,1,$1+$1,$2,$3,$4,$5,0*
20,1,$1+$1,$4,$5,$6,$7,0*
20,1,$1+$1,$6,$7,$8,$9,0*
20,1,$1+$1,$8,$9,$2,$3,0*%
%AMOutline5P*
0 Free polygon, 5 corners , with rotation*
0 The origin of the aperture is its center*
0 number of corners: always 5*
0 $1 to $10 corner X, Y*
0 $11 Rotation angle, in degrees counterclockwise*
0 create outline with 5 corners*
4,1,5,$1,$2,$3,$4,$5,$6,$7,$8,$9,$10,$1,$2,$11*%
%AMOutline6P*
0 Free polygon, 6 corners , with rotation*
0 The origin of the aperture is its center*
0 number of corners: always 6*
0 $1 to $12 corner X, Y*
0 $13 Rotation angle, in degrees counterclockwise*
0 create outline with 6 corners*
4,1,6,$1,$2,$3,$4,$5,$6,$7,$8,$9,$10,$11,$12,$1,$2,$13*%
%AMOutline7P*
0 Free polygon, 7 corners , with rotation*
0 The origin of the aperture is its center*
0 number of corners: always 7*
0 $1 to $14 corner X, Y*
0 $15 Rotation angle, in degrees counterclockwise*
0 create outline with 7 corners*
4,1,7,$1,$2,$3,$4,$5,$6,$7,$8,$9,$10,$11,$12,$13,$14,$1,$2,$15*%
%AMOutline8P*
0 Free polygon, 8 corners , with rotation*
0 The origin of the aperture is its center*
0 number of corners: always 8*
0 $1 to $16 corner X, Y*
0 $17 Rotation angle, in degrees counterclockwise*
0 create outline with 8 corners*
4,1,8,$1,$2,$3,$4,$5,$6,$7,$8,$9,$10,$11,$12,$13,$14,$15,$16,$1,$2,$17*%
G04 Aperture macros list end*
%ADD10C,1.000000*%
%ADD11C,2.800000*%
%ADD12C,1.100000*%
%ADD13C,1.300000*%
%ADD14RoundRect,1.500000X0.000000X-1.000000X0.000000X-1.000000X0.000000X1.000000X0.000000X1.000000X0*%
%ADD15C,1.524000*%
%ADD16C,1.700000*%
%ADD17C,2.000000*%
%ADD18R,1.700000X1.700000*%
%ADD19O,1.700000X1.700000*%
%ADD20R,1.000000X1.000000*%
%ADD21O,1.000000X1.000000*%
%ADD22RoundRect,0.200000X0.275000X-0.200000X0.275000X0.200000X-0.275000X0.200000X-0.275000X-0.200000X0*%
%ADD23RoundRect,0.225000X0.225000X0.250000X-0.225000X0.250000X-0.225000X-0.250000X0.225000X-0.250000X0*%
%ADD24RoundRect,0.150000X0.587500X0.150000X-0.587500X0.150000X-0.587500X-0.150000X0.587500X-0.150000X0*%
%ADD25RoundRect,0.150000X-0.587500X-0.150000X0.587500X-0.150000X0.587500X0.150000X-0.587500X0.150000X0*%
%ADD26RoundRect,0.225000X-0.225000X-0.250000X0.225000X-0.250000X0.225000X0.250000X-0.225000X0.250000X0*%
%ADD27RoundRect,0.150000X-0.150000X0.587500X-0.150000X-0.587500X0.150000X-0.587500X0.150000X0.587500X0*%
%ADD28RoundRect,0.200000X0.200000X0.275000X-0.200000X0.275000X-0.200000X-0.275000X0.200000X-0.275000X0*%
%ADD29RoundRect,0.225000X0.250000X-0.225000X0.250000X0.225000X-0.250000X0.225000X-0.250000X-0.225000X0*%
%ADD30RoundRect,0.200000X-0.200000X-0.275000X0.200000X-0.275000X0.200000X0.275000X-0.200000X0.275000X0*%
%ADD31RoundRect,0.225000X-0.250000X0.225000X-0.250000X-0.225000X0.250000X-0.225000X0.250000X0.225000X0*%
%ADD32RoundRect,0.200000X-0.275000X0.200000X-0.275000X-0.200000X0.275000X-0.200000X0.275000X0.200000X0*%
%ADD33RoundRect,0.150000X0.512500X0.150000X-0.512500X0.150000X-0.512500X-0.150000X0.512500X-0.150000X0*%
%ADD34R,0.375000X0.350000*%
%ADD35R,0.350000X0.375000*%
%ADD36R,0.900000X1.200000*%
%ADD37Outline5P,-1.500000X2.000000X1.500000X2.000000X1.500000X-2.000000X-0.900000X-2.000000X-1.500000X-1.400000X180.000000*%
%ADD38R,1.000000X2.750000*%
%ADD39RoundRect,0.125000X-0.353553X-0.530330X0.530330X0.353553X0.353553X0.530330X-0.530330X-0.353553X0*%
%ADD40RoundRect,0.125000X0.353553X-0.530330X0.530330X-0.353553X-0.353553X0.530330X-0.530330X0.353553X0*%
G04 APERTURE END LIST*
D10*
%TO.C,Y1*%
X89350000Y-93700000D03*
X89350000Y-95600000D03*
%TD*%
D11*
%TO.C,J1*%
X82700000Y-74250000D03*
X88900000Y-74250000D03*
X119100000Y-74250000D03*
X125300000Y-74250000D03*
%TD*%
D12*
%TO.C,SW1*%
X120500000Y-89000000D03*
D13*
X125000000Y-89000000D03*
%TD*%
D14*
%TO.C,H4*%
X78200000Y-71200000D03*
%TD*%
D15*
%TO.C,C21*%
X81382500Y-102000000D03*
X91882500Y-102000000D03*
%TD*%
D14*
%TO.C,H3*%
X129800000Y-102300000D03*
%TD*%
D16*
%TO.C,SW2*%
X104300000Y-95300000D03*
X101100000Y-95300000D03*
X97900000Y-95300000D03*
%TD*%
D17*
%TO.C,SW3*%
X114900000Y-97100000D03*
X108400000Y-97100000D03*
X114900000Y-92600000D03*
X108400000Y-92600000D03*
%TD*%
D14*
%TO.C,H1*%
X129800000Y-71200000D03*
%TD*%
D18*
%TO.C,J4*%
X78300000Y-75900000D03*
D19*
X78300000Y-78440000D03*
X78300000Y-80980000D03*
X78300000Y-83520000D03*
X78300000Y-86060000D03*
X78300000Y-88600000D03*
X78300000Y-91140000D03*
X78300000Y-93680000D03*
%TD*%
D20*
%TO.C,J2*%
X83310000Y-91750000D03*
D21*
X84580000Y-91750000D03*
X85850000Y-91750000D03*
X87120000Y-91750000D03*
X88390000Y-91750000D03*
%TD*%
D14*
%TO.C,H2*%
X78200000Y-102300000D03*
%TD*%
D22*
%TO.C,R10*%
X125500000Y-82925000D03*
X125500000Y-81275000D03*
%TD*%
D23*
%TO.C,C7*%
X93375000Y-94000000D03*
X91825000Y-94000000D03*
%TD*%
%TO.C,C8*%
X93075000Y-97200000D03*
X91525000Y-97200000D03*
%TD*%
D24*
%TO.C,Q5*%
X123300000Y-70000000D03*
X123300000Y-71900000D03*
X121425000Y-70950000D03*
%TD*%
D23*
%TO.C,C6*%
X93375000Y-92500000D03*
X91825000Y-92500000D03*
%TD*%
D25*
%TO.C,Q1*%
X89662500Y-80250000D03*
X89662500Y-78350000D03*
X91537500Y-79300000D03*
%TD*%
D26*
%TO.C,C17*%
X127025000Y-82800000D03*
X128575000Y-82800000D03*
%TD*%
D27*
%TO.C,Q2*%
X98750000Y-76362500D03*
X100650000Y-76362500D03*
X99700000Y-78237500D03*
%TD*%
D28*
%TO.C,R18*%
X93825000Y-75800000D03*
X92175000Y-75800000D03*
%TD*%
D23*
%TO.C,C15*%
X120975000Y-86700000D03*
X119425000Y-86700000D03*
%TD*%
D29*
%TO.C,C3*%
X122100000Y-102175000D03*
X122100000Y-100625000D03*
%TD*%
D30*
%TO.C,R17*%
X81075000Y-83500000D03*
X82725000Y-83500000D03*
%TD*%
D31*
%TO.C,C14*%
X108025000Y-82875000D03*
X108025000Y-84425000D03*
%TD*%
D22*
%TO.C,R11*%
X120500000Y-82925000D03*
X120500000Y-81275000D03*
%TD*%
D26*
%TO.C,C19*%
X112525000Y-88000000D03*
X114075000Y-88000000D03*
%TD*%
D28*
%TO.C,R1*%
X122050000Y-84400000D03*
X120400000Y-84400000D03*
%TD*%
D22*
%TO.C,R15*%
X127000000Y-96725000D03*
X127000000Y-95075000D03*
%TD*%
D24*
%TO.C,Q4*%
X107237500Y-89350000D03*
X107237500Y-91250000D03*
X105362500Y-90300000D03*
%TD*%
D31*
%TO.C,C13*%
X106525000Y-82875000D03*
X106525000Y-84425000D03*
%TD*%
D26*
%TO.C,C16*%
X117450000Y-82800000D03*
X119000000Y-82800000D03*
%TD*%
D28*
%TO.C,R6*%
X114125000Y-91100000D03*
X112475000Y-91100000D03*
%TD*%
D23*
%TO.C,C1*%
X116100000Y-94700000D03*
X114550000Y-94700000D03*
%TD*%
D32*
%TO.C,R27*%
X83150000Y-77775000D03*
X83150000Y-79425000D03*
%TD*%
D33*
%TO.C,U4*%
X120175000Y-100200000D03*
X120175000Y-101150000D03*
X120175000Y-102100000D03*
X117900000Y-102100000D03*
X117900000Y-101150000D03*
X117900000Y-100200000D03*
%TD*%
D30*
%TO.C,R7*%
X123975000Y-84400000D03*
X125625000Y-84400000D03*
%TD*%
D28*
%TO.C,R21*%
X104675000Y-82050000D03*
X103025000Y-82050000D03*
%TD*%
D23*
%TO.C,C9*%
X93075000Y-95600000D03*
X91525000Y-95600000D03*
%TD*%
%TO.C,C11*%
X109087011Y-76875000D03*
X107537011Y-76875000D03*
%TD*%
D30*
%TO.C,R16*%
X81075000Y-86600000D03*
X82725000Y-86600000D03*
%TD*%
D32*
%TO.C,R25*%
X103950000Y-86275000D03*
X103950000Y-87925000D03*
%TD*%
D25*
%TO.C,Q6*%
X116525000Y-79350000D03*
X116525000Y-77450000D03*
X118400000Y-78400000D03*
%TD*%
D34*
%TO.C,U6*%
X110887500Y-82900000D03*
X110887500Y-83400000D03*
X110887500Y-83900000D03*
X110887500Y-84400000D03*
D35*
X110375000Y-84412500D03*
X109875000Y-84412500D03*
D34*
X109362500Y-84400000D03*
X109362500Y-83900000D03*
X109362500Y-83400000D03*
X109362500Y-82900000D03*
D35*
X109875000Y-82887500D03*
X110375000Y-82887500D03*
%TD*%
D23*
%TO.C,C20*%
X126975000Y-93600000D03*
X125425000Y-93600000D03*
%TD*%
D26*
%TO.C,C4*%
X120250000Y-98600000D03*
X121800000Y-98600000D03*
%TD*%
D23*
%TO.C,C18*%
X99075000Y-97500000D03*
X97525000Y-97500000D03*
%TD*%
D32*
%TO.C,R20*%
X110500000Y-85725000D03*
X110500000Y-87375000D03*
%TD*%
D28*
%TO.C,R5*%
X101325000Y-93600000D03*
X99675000Y-93600000D03*
%TD*%
D36*
%TO.C,D1*%
X123750000Y-77300000D03*
X120450000Y-77300000D03*
%TD*%
D25*
%TO.C,Q7*%
X85012500Y-78050000D03*
X85012500Y-76150000D03*
X86887500Y-77100000D03*
%TD*%
D28*
%TO.C,R22*%
X88775000Y-88850000D03*
X87125000Y-88850000D03*
%TD*%
D22*
%TO.C,R3*%
X96300000Y-95825000D03*
X96300000Y-94175000D03*
%TD*%
D23*
%TO.C,C10*%
X109087011Y-78375000D03*
X107537011Y-78375000D03*
%TD*%
D22*
%TO.C,R14*%
X125400000Y-96725000D03*
X125400000Y-95075000D03*
%TD*%
D27*
%TO.C,Q3*%
X102250000Y-76362500D03*
X104150000Y-76362500D03*
X103200000Y-78237500D03*
%TD*%
D29*
%TO.C,C12*%
X112225000Y-84425000D03*
X112225000Y-82875000D03*
%TD*%
D30*
%TO.C,R4*%
X90250000Y-91000000D03*
X91900000Y-91000000D03*
%TD*%
%TO.C,R19*%
X103025000Y-80550000D03*
X104675000Y-80550000D03*
%TD*%
D28*
%TO.C,R12*%
X114125000Y-89500000D03*
X112475000Y-89500000D03*
%TD*%
D22*
%TO.C,R13*%
X114600000Y-79025000D03*
X114600000Y-77375000D03*
%TD*%
D28*
%TO.C,R9*%
X105425000Y-97500000D03*
X103775000Y-97500000D03*
%TD*%
D32*
%TO.C,R23*%
X95750000Y-73625000D03*
X95750000Y-75275000D03*
%TD*%
D30*
%TO.C,R2*%
X100700000Y-97500000D03*
X102350000Y-97500000D03*
%TD*%
D37*
%TO.C,H5*%
X111700000Y-72650000D03*
%TD*%
D38*
%TO.C,L1*%
X119000000Y-95900000D03*
X121300000Y-95900000D03*
%TD*%
D28*
%TO.C,R26*%
X86025000Y-81600000D03*
X84375000Y-81600000D03*
%TD*%
D39*
%TO.C,U1*%
X96127728Y-92232070D03*
X95562043Y-91666384D03*
X94996357Y-91100699D03*
X94430672Y-90535014D03*
X93864986Y-89969328D03*
X93299301Y-89403643D03*
X92733616Y-88837957D03*
X92167930Y-88272272D03*
D40*
X92167930Y-86327728D03*
X92733616Y-85762043D03*
X93299301Y-85196357D03*
X93864986Y-84630672D03*
X94430672Y-84064986D03*
X94996357Y-83499301D03*
X95562043Y-82933616D03*
X96127728Y-82367930D03*
D39*
X98072272Y-82367930D03*
X98637957Y-82933616D03*
X99203643Y-83499301D03*
X99769328Y-84064986D03*
X100335014Y-84630672D03*
X100900699Y-85196357D03*
X101466384Y-85762043D03*
X102032070Y-86327728D03*
D40*
X102032070Y-88272272D03*
X101466384Y-88837957D03*
X100900699Y-89403643D03*
X100335014Y-89969328D03*
X99769328Y-90535014D03*
X99203643Y-91100699D03*
X98637957Y-91666384D03*
X98072272Y-92232070D03*
%TD*%
D32*
%TO.C,R24*%
X103500000Y-89875000D03*
X103500000Y-91525000D03*
%TD*%
D30*
%TO.C,R8*%
X114850000Y-81000000D03*
X116500000Y-81000000D03*
%TD*%
M02*
