M48
; DRILL file {KiCad 6.0.2-1.fc35} date Tue 31 May 2022 23:37:51 CEST
; FORMAT={-:-/ absolute / inch / decimal}
; #@! TF.CreationDate,2022-05-31T23:37:51+02:00
; #@! TF.GenerationSoftware,Kicad,Pcbnew,6.0.2-1.fc35
; #@! TF.FileFunction,Plated,1,2,PTH
FMAT,2
INCH
; #@! TA.AperFunction,Plated,PTH,ViaDrill
T1C0.0157
; #@! TA.AperFunction,Plated,PTH,ComponentDrill
T2C0.0197
; #@! TA.AperFunction,Plated,PTH,ComponentDrill
T3C0.0256
; #@! TA.AperFunction,Plated,PTH,ComponentDrill
T4C0.0394
; #@! TA.AperFunction,Plated,PTH,ComponentDrill
T5C0.0433
; #@! TA.AperFunction,Plated,PTH,ComponentDrill
T6C0.0709
; #@! TA.AperFunction,Plated,PTH,ComponentDrill
T7C0.0984
%
G90
G05
T1
X3.0335Y-3.1457
X3.1102Y-3.7992
X3.1359Y-3.3268
X3.1359Y-3.4449
X3.1496Y-3.1299
X3.1625Y-3.2554
X3.1634Y-3.8091
X3.1634Y-3.8484
X3.1634Y-3.8878
X3.1634Y-3.9272
X3.1929Y-3.2864
X3.1929Y-3.4085
X3.1939Y-3.167
X3.2028Y-3.8091
X3.2028Y-3.8484
X3.2028Y-3.8878
X3.2028Y-3.9272
X3.2106Y-3.0177
X3.2421Y-3.8091
X3.2421Y-3.8484
X3.2421Y-3.8878
X3.2421Y-3.9272
X3.2539Y-3.2224
X3.311Y-3.3406
X3.3169Y-3.2677
X3.3425Y-3.5118
X3.3484Y-3.3839
X3.3701Y-3.7244
X3.374Y-2.873
X3.378Y-3.5118
X3.4055Y-3.0906
X3.4173Y-2.9764
X3.4193Y-3.8012
X3.4208Y-3.0354
X3.4301Y-3.498
X3.4311Y-3.2106
X3.435Y-3.7697
X3.4567Y-3.0984
X3.4715Y-3.6742
X3.4941Y-3.2598
X3.498Y-3.4055
X3.5039Y-3.3268
X3.5216Y-3.4647
X3.53Y-3.0846
X3.5433Y-3.1496
X3.5433Y-3.5039
X3.5433Y-3.5827
X3.563Y-3.2283
X3.563Y-3.7146
X3.565Y-3.3543
X3.5771Y-3.6603
X3.5827Y-3.2677
X3.6152Y-3.7293
X3.6161Y-3.3484
X3.628Y-3.1215
X3.6289Y-2.9843
X3.6339Y-3.2795
X3.6644Y-3.7638
X3.6644Y-3.8268
X3.6713Y-2.9035
X3.6762Y-3.7008
X3.6939Y-2.9843
X3.7067Y-3.9094
X3.7067Y-3.9488
X3.7067Y-3.9882
X3.7067Y-4.0276
X3.7205Y-3.4055
X3.7461Y-3.9094
X3.7461Y-3.9488
X3.7461Y-3.9882
X3.7461Y-4.0276
X3.7697Y-2.8986
X3.7697Y-3.0531
X3.7776Y-3.1791
X3.7816Y-3.4705
X3.7854Y-3.9094
X3.7854Y-3.9488
X3.7854Y-3.9882
X3.7854Y-4.0276
X3.7913Y-3.7077
X3.7913Y-3.7726
X3.7992Y-3.8514
X3.8012Y-3.4055
X3.8031Y-2.9724
X3.8071Y-3.3484
X3.815Y-3.3012
X3.8189Y-3.2087
X3.8406Y-4.0433
X3.8438Y-3.3887
X3.8583Y-3.4843
X3.8976Y-2.9921
X3.9242Y-3.685
X3.9272Y-3.3976
X3.928Y-3.1215
X3.9331Y-3.7913
X3.937Y-3.4449
X3.9646Y-4.0079
X3.9646Y-4.0866
X3.9764Y-3.2087
X3.996Y-3.6422
X4.0Y-3.2894
X4.0039Y-4.0079
X4.0039Y-4.0866
X4.0256Y-3.0064
X4.028Y-3.1215
X4.028Y-3.5715
X4.0394Y-3.3189
X4.0433Y-4.0079
X4.0433Y-4.0866
X4.0472Y-3.7461
X4.0492Y-3.9459
X4.0551Y-3.4508
X4.0571Y-3.6732
X4.0591Y-3.2185
X4.0827Y-4.0079
X4.0827Y-4.0866
X4.0866Y-3.2697
X4.0866Y-3.9134
X4.0945Y-3.4213
X4.1024Y-3.6687
X4.1211Y-3.2283
X4.128Y-3.1215
X4.128Y-3.311
X4.128Y-3.5715
X4.1495Y-3.8326
X4.1723Y-3.9449
X4.1752Y-3.9892
X4.1831Y-3.7638
X4.2274Y-3.3631
X4.2288Y-3.0502
X4.252Y-3.189
X4.2717Y-3.56
X4.2854Y-3.4114
X4.2948Y-3.0512
X4.2948Y-3.0856
X4.315Y-3.7618
X4.3307Y-3.1299
X4.3504Y-3.0709
X4.3504Y-3.375
X4.4035Y-3.8484
X4.4094Y-3.3858
X4.4183Y-3.2628
X4.4193Y-3.935
X4.437Y-3.8484
X4.4685Y-3.2283
X4.4736Y-3.9961
X4.4754Y-3.3858
X4.4862Y-3.937
X4.4882Y-3.2677
X4.4931Y-3.5236
X4.5079Y-3.3268
X4.5256Y-3.9744
X4.5453Y-4.0787
X4.5787Y-4.0787
X4.6024Y-3.8957
X4.626Y-3.2579
X4.6417Y-3.9449
X4.6555Y-2.7264
X4.6555Y-2.8051
X4.6614Y-3.0866
X4.6654Y-3.6614
X4.6679Y-3.5459
X4.6949Y-2.7264
X4.6949Y-2.8051
X4.7047Y-3.4154
X4.7343Y-2.7264
X4.7402Y-3.3228
X4.7402Y-3.9409
X4.7441Y-3.1998
X4.811Y-4.0827
X4.8465Y-4.0827
X4.8524Y-3.9134
X4.8622Y-2.8346
X4.8622Y-3.7205
X4.8701Y-3.9469
X4.8819Y-4.0827
X4.8898Y-3.9134
X4.9173Y-4.0827
X4.9252Y-3.9134
X4.9373Y-3.8153
X4.9426Y-3.1906
X4.9459Y-3.3228
X4.9528Y-4.0827
X4.9882Y-4.0827
X5.0303Y-3.848
T2
X3.5177Y-3.689
X3.5177Y-3.7638
T3
X3.2799Y-3.6122
X3.3299Y-3.6122
X3.3799Y-3.6122
X3.4299Y-3.6122
X3.4799Y-3.6122
T4
X3.0827Y-2.9882
X3.0827Y-3.0882
X3.0827Y-3.1882
X3.0827Y-3.2882
X3.0827Y-3.3882
X3.0827Y-3.4882
X3.0827Y-3.5882
X3.0827Y-3.6882
X3.204Y-4.0157
X3.6174Y-4.0157
X3.8543Y-3.752
X3.9803Y-3.752
X4.1063Y-3.752
T5
X4.2677Y-3.6457
X4.2677Y-3.8228
X4.5236Y-3.6457
X4.5236Y-3.8228
T6
X3.2559Y-2.9232
X3.5Y-2.9232
X4.689Y-2.9232
X4.9331Y-2.9232
T7
X3.0787Y-2.8031
X3.0787Y-4.0276
X5.1102Y-2.8031
X5.1102Y-4.0276
T0
M30
