%TF.GenerationSoftware,KiCad,Pcbnew,6.0.2-1.fc35*%
%TF.CreationDate,2022-05-08T19:10:55+02:00*%
%TF.ProjectId,LEDnode,4c45446e-6f64-4652-9e6b-696361645f70,rev?*%
%TF.SameCoordinates,Original*%
%TF.FileFunction,Soldermask,Top*%
%TF.FilePolarity,Negative*%
%FSLAX46Y46*%
G04 Gerber Fmt 4.6, Leading zero omitted, Abs format (unit mm)*
G04 Created by KiCad (PCBNEW 6.0.2-1.fc35) date 2022-05-08 19:10:55*
%MOMM*%
%LPD*%
G01*
G04 APERTURE LIST*
G04 Aperture macros list*
%AMRoundRect*
0 Rectangle with rounded corners*
0 $1 Rounding radius*
0 $2 $3 $4 $5 $6 $7 $8 $9 X,Y pos of 4 corners*
0 Add a 4 corners polygon primitive as box body*
4,1,4,$2,$3,$4,$5,$6,$7,$8,$9,$2,$3,0*
0 Add four circle primitives for the rounded corners*
1,1,$1+$1,$2,$3*
1,1,$1+$1,$4,$5*
1,1,$1+$1,$6,$7*
1,1,$1+$1,$8,$9*
0 Add four rect primitives between the rounded corners*
20,1,$1+$1,$2,$3,$4,$5,0*
20,1,$1+$1,$4,$5,$6,$7,0*
20,1,$1+$1,$6,$7,$8,$9,0*
20,1,$1+$1,$8,$9,$2,$3,0*%
G04 Aperture macros list end*
%ADD10C,1.000000*%
%ADD11C,2.800000*%
%ADD12C,1.100000*%
%ADD13R,2.500000X3.500000*%
%ADD14C,1.300000*%
%ADD15R,1.500000X2.000000*%
%ADD16R,2.000000X2.000000*%
%ADD17RoundRect,1.500000X0.000000X-1.000000X0.000000X-1.000000X0.000000X1.000000X0.000000X1.000000X0*%
%ADD18RoundRect,0.250000X1.250000X0.550000X-1.250000X0.550000X-1.250000X-0.550000X1.250000X-0.550000X0*%
%ADD19C,1.524000*%
%ADD20C,1.700000*%
%ADD21C,2.000000*%
%ADD22R,1.700000X1.700000*%
%ADD23O,1.700000X1.700000*%
%ADD24R,1.500000X2.500000*%
%ADD25R,1.000000X1.000000*%
%ADD26O,1.000000X1.000000*%
%ADD27RoundRect,0.218750X0.256250X-0.218750X0.256250X0.218750X-0.256250X0.218750X-0.256250X-0.218750X0*%
%ADD28R,0.350000X0.500000*%
G04 APERTURE END LIST*
D10*
%TO.C,Y1*%
X89350000Y-93700000D03*
X89350000Y-95600000D03*
%TD*%
D11*
%TO.C,J1*%
X82700000Y-74250000D03*
X88900000Y-74250000D03*
X119100000Y-74250000D03*
X125300000Y-74250000D03*
%TD*%
D12*
%TO.C,SW1*%
X120500000Y-89000000D03*
D13*
X116250000Y-89000000D03*
D14*
X125000000Y-89000000D03*
D13*
X129750000Y-89000000D03*
D15*
X125500000Y-81000000D03*
X120500000Y-81000000D03*
X123000000Y-81000000D03*
D16*
X125500000Y-97000000D03*
X120500000Y-97000000D03*
%TD*%
D17*
%TO.C,H4*%
X78200000Y-71200000D03*
%TD*%
D18*
%TO.C,C5*%
X126100000Y-101570000D03*
X121700000Y-101570000D03*
%TD*%
D19*
%TO.C,C21*%
X81382500Y-102000000D03*
X91882500Y-102000000D03*
%TD*%
D17*
%TO.C,H3*%
X129800000Y-102300000D03*
%TD*%
D20*
%TO.C,SW2*%
X104300000Y-95300000D03*
X101100000Y-95300000D03*
X97900000Y-95300000D03*
%TD*%
D18*
%TO.C,C2*%
X118200000Y-101570000D03*
X113800000Y-101570000D03*
%TD*%
D21*
%TO.C,SW3*%
X114900000Y-97100000D03*
X108400000Y-97100000D03*
X114900000Y-92600000D03*
X108400000Y-92600000D03*
%TD*%
D17*
%TO.C,H1*%
X129800000Y-71200000D03*
%TD*%
D22*
%TO.C,J4*%
X78300000Y-75900000D03*
D23*
X78300000Y-78440000D03*
X78300000Y-80980000D03*
X78300000Y-83520000D03*
X78300000Y-86060000D03*
X78300000Y-88600000D03*
X78300000Y-91140000D03*
X78300000Y-93680000D03*
%TD*%
D24*
%TO.C,U2*%
X92150000Y-90715000D03*
X94690000Y-90715000D03*
X97230000Y-90715000D03*
X99770000Y-90715000D03*
X102310000Y-90715000D03*
X104850000Y-90715000D03*
X104850000Y-79285000D03*
X102310000Y-79285000D03*
X99770000Y-79285000D03*
X97230000Y-79285000D03*
X94690000Y-79285000D03*
X92150000Y-79285000D03*
%TD*%
D25*
%TO.C,J2*%
X83310000Y-91750000D03*
D26*
X84580000Y-91750000D03*
X85850000Y-91750000D03*
X87120000Y-91750000D03*
X88390000Y-91750000D03*
%TD*%
D27*
%TO.C,D3*%
X81100000Y-83475000D03*
X81100000Y-81900000D03*
%TD*%
D28*
%TO.C,U5*%
X107337011Y-76650000D03*
X107987011Y-76650000D03*
X108637011Y-76650000D03*
X109287011Y-76650000D03*
X109287011Y-78700000D03*
X108637011Y-78700000D03*
X107987011Y-78700000D03*
X107337011Y-78700000D03*
%TD*%
D17*
%TO.C,H2*%
X78200000Y-102300000D03*
%TD*%
D27*
%TO.C,D2*%
X81100000Y-86575000D03*
X81100000Y-85000000D03*
%TD*%
M02*
