%TF.GenerationSoftware,KiCad,Pcbnew,6.0.2-1.fc35*%
%TF.CreationDate,2022-05-07T18:41:25+02:00*%
%TF.ProjectId,LEDnode,4c45446e-6f64-4652-9e6b-696361645f70,rev?*%
%TF.SameCoordinates,Original*%
%TF.FileFunction,Legend,Top*%
%TF.FilePolarity,Positive*%
%FSLAX46Y46*%
G04 Gerber Fmt 4.6, Leading zero omitted, Abs format (unit mm)*
G04 Created by KiCad (PCBNEW 6.0.2-1.fc35) date 2022-05-07 18:41:25*
%MOMM*%
%LPD*%
G01*
G04 APERTURE LIST*
%ADD10C,0.150000*%
%ADD11C,0.120000*%
%ADD12C,0.500000*%
%ADD13C,0.100000*%
G04 APERTURE END LIST*
D10*
X81785714Y-99952380D02*
X81309523Y-99952380D01*
X81309523Y-98952380D01*
X82119047Y-99428571D02*
X82452380Y-99428571D01*
X82595238Y-99952380D02*
X82119047Y-99952380D01*
X82119047Y-98952380D01*
X82595238Y-98952380D01*
X83023809Y-99952380D02*
X83023809Y-98952380D01*
X83261904Y-98952380D01*
X83404761Y-99000000D01*
X83500000Y-99095238D01*
X83547619Y-99190476D01*
X83595238Y-99380952D01*
X83595238Y-99523809D01*
X83547619Y-99714285D01*
X83500000Y-99809523D01*
X83404761Y-99904761D01*
X83261904Y-99952380D01*
X83023809Y-99952380D01*
X84023809Y-99285714D02*
X84023809Y-99952380D01*
X84023809Y-99380952D02*
X84071428Y-99333333D01*
X84166666Y-99285714D01*
X84309523Y-99285714D01*
X84404761Y-99333333D01*
X84452380Y-99428571D01*
X84452380Y-99952380D01*
X85071428Y-99952380D02*
X84976190Y-99904761D01*
X84928571Y-99857142D01*
X84880952Y-99761904D01*
X84880952Y-99476190D01*
X84928571Y-99380952D01*
X84976190Y-99333333D01*
X85071428Y-99285714D01*
X85214285Y-99285714D01*
X85309523Y-99333333D01*
X85357142Y-99380952D01*
X85404761Y-99476190D01*
X85404761Y-99761904D01*
X85357142Y-99857142D01*
X85309523Y-99904761D01*
X85214285Y-99952380D01*
X85071428Y-99952380D01*
X86261904Y-99952380D02*
X86261904Y-98952380D01*
X86261904Y-99904761D02*
X86166666Y-99952380D01*
X85976190Y-99952380D01*
X85880952Y-99904761D01*
X85833333Y-99857142D01*
X85785714Y-99761904D01*
X85785714Y-99476190D01*
X85833333Y-99380952D01*
X85880952Y-99333333D01*
X85976190Y-99285714D01*
X86166666Y-99285714D01*
X86261904Y-99333333D01*
X87119047Y-99904761D02*
X87023809Y-99952380D01*
X86833333Y-99952380D01*
X86738095Y-99904761D01*
X86690476Y-99809523D01*
X86690476Y-99428571D01*
X86738095Y-99333333D01*
X86833333Y-99285714D01*
X87023809Y-99285714D01*
X87119047Y-99333333D01*
X87166666Y-99428571D01*
X87166666Y-99523809D01*
X86690476Y-99619047D01*
X88357142Y-99952380D02*
X88357142Y-98952380D01*
X88690476Y-99666666D01*
X89023809Y-98952380D01*
X89023809Y-99952380D01*
X89500000Y-99952380D02*
X89500000Y-98952380D01*
X89595238Y-99571428D02*
X89880952Y-99952380D01*
X89880952Y-99285714D02*
X89500000Y-99666666D01*
X90833333Y-99952380D02*
X90261904Y-99952380D01*
X90547619Y-99952380D02*
X90547619Y-98952380D01*
X90452380Y-99095238D01*
X90357142Y-99190476D01*
X90261904Y-99238095D01*
X91928571Y-99285714D02*
X92166666Y-99952380D01*
X92404761Y-99285714D01*
X92738095Y-99047619D02*
X92785714Y-99000000D01*
X92880952Y-98952380D01*
X93119047Y-98952380D01*
X93214285Y-99000000D01*
X93261904Y-99047619D01*
X93309523Y-99142857D01*
X93309523Y-99238095D01*
X93261904Y-99380952D01*
X92690476Y-99952380D01*
X93309523Y-99952380D01*
X93738095Y-99857142D02*
X93785714Y-99904761D01*
X93738095Y-99952380D01*
X93690476Y-99904761D01*
X93738095Y-99857142D01*
X93738095Y-99952380D01*
X94404761Y-98952380D02*
X94500000Y-98952380D01*
X94595238Y-99000000D01*
X94642857Y-99047619D01*
X94690476Y-99142857D01*
X94738095Y-99333333D01*
X94738095Y-99571428D01*
X94690476Y-99761904D01*
X94642857Y-99857142D01*
X94595238Y-99904761D01*
X94500000Y-99952380D01*
X94404761Y-99952380D01*
X94309523Y-99904761D01*
X94261904Y-99857142D01*
X94214285Y-99761904D01*
X94166666Y-99571428D01*
X94166666Y-99333333D01*
X94214285Y-99142857D01*
X94261904Y-99047619D01*
X94309523Y-99000000D01*
X94404761Y-98952380D01*
%TO.C,SW3*%
X110316666Y-96204761D02*
X110459523Y-96252380D01*
X110697619Y-96252380D01*
X110792857Y-96204761D01*
X110840476Y-96157142D01*
X110888095Y-96061904D01*
X110888095Y-95966666D01*
X110840476Y-95871428D01*
X110792857Y-95823809D01*
X110697619Y-95776190D01*
X110507142Y-95728571D01*
X110411904Y-95680952D01*
X110364285Y-95633333D01*
X110316666Y-95538095D01*
X110316666Y-95442857D01*
X110364285Y-95347619D01*
X110411904Y-95300000D01*
X110507142Y-95252380D01*
X110745238Y-95252380D01*
X110888095Y-95300000D01*
X111221428Y-95252380D02*
X111459523Y-96252380D01*
X111650000Y-95538095D01*
X111840476Y-96252380D01*
X112078571Y-95252380D01*
X112364285Y-95252380D02*
X112983333Y-95252380D01*
X112650000Y-95633333D01*
X112792857Y-95633333D01*
X112888095Y-95680952D01*
X112935714Y-95728571D01*
X112983333Y-95823809D01*
X112983333Y-96061904D01*
X112935714Y-96157142D01*
X112888095Y-96204761D01*
X112792857Y-96252380D01*
X112507142Y-96252380D01*
X112411904Y-96204761D01*
X112364285Y-96157142D01*
%TO.C,C22*%
X99157142Y-100257142D02*
X99109523Y-100304761D01*
X98966666Y-100352380D01*
X98871428Y-100352380D01*
X98728571Y-100304761D01*
X98633333Y-100209523D01*
X98585714Y-100114285D01*
X98538095Y-99923809D01*
X98538095Y-99780952D01*
X98585714Y-99590476D01*
X98633333Y-99495238D01*
X98728571Y-99400000D01*
X98871428Y-99352380D01*
X98966666Y-99352380D01*
X99109523Y-99400000D01*
X99157142Y-99447619D01*
X99538095Y-99447619D02*
X99585714Y-99400000D01*
X99680952Y-99352380D01*
X99919047Y-99352380D01*
X100014285Y-99400000D01*
X100061904Y-99447619D01*
X100109523Y-99542857D01*
X100109523Y-99638095D01*
X100061904Y-99780952D01*
X99490476Y-100352380D01*
X100109523Y-100352380D01*
X100490476Y-99447619D02*
X100538095Y-99400000D01*
X100633333Y-99352380D01*
X100871428Y-99352380D01*
X100966666Y-99400000D01*
X101014285Y-99447619D01*
X101061904Y-99542857D01*
X101061904Y-99638095D01*
X101014285Y-99780952D01*
X100442857Y-100352380D01*
X101061904Y-100352380D01*
%TO.C,C21*%
X107557142Y-100107142D02*
X107509523Y-100154761D01*
X107366666Y-100202380D01*
X107271428Y-100202380D01*
X107128571Y-100154761D01*
X107033333Y-100059523D01*
X106985714Y-99964285D01*
X106938095Y-99773809D01*
X106938095Y-99630952D01*
X106985714Y-99440476D01*
X107033333Y-99345238D01*
X107128571Y-99250000D01*
X107271428Y-99202380D01*
X107366666Y-99202380D01*
X107509523Y-99250000D01*
X107557142Y-99297619D01*
X107938095Y-99297619D02*
X107985714Y-99250000D01*
X108080952Y-99202380D01*
X108319047Y-99202380D01*
X108414285Y-99250000D01*
X108461904Y-99297619D01*
X108509523Y-99392857D01*
X108509523Y-99488095D01*
X108461904Y-99630952D01*
X107890476Y-100202380D01*
X108509523Y-100202380D01*
X109461904Y-100202380D02*
X108890476Y-100202380D01*
X109176190Y-100202380D02*
X109176190Y-99202380D01*
X109080952Y-99345238D01*
X108985714Y-99440476D01*
X108890476Y-99488095D01*
%TO.C,J1*%
X85416666Y-71952380D02*
X85416666Y-72666666D01*
X85369047Y-72809523D01*
X85273809Y-72904761D01*
X85130952Y-72952380D01*
X85035714Y-72952380D01*
X86416666Y-72952380D02*
X85845238Y-72952380D01*
X86130952Y-72952380D02*
X86130952Y-71952380D01*
X86035714Y-72095238D01*
X85940476Y-72190476D01*
X85845238Y-72238095D01*
X98750000Y-74202380D02*
X98273809Y-74202380D01*
X98273809Y-73202380D01*
X99654761Y-74202380D02*
X99321428Y-73726190D01*
X99083333Y-74202380D02*
X99083333Y-73202380D01*
X99464285Y-73202380D01*
X99559523Y-73250000D01*
X99607142Y-73297619D01*
X99654761Y-73392857D01*
X99654761Y-73535714D01*
X99607142Y-73630952D01*
X99559523Y-73678571D01*
X99464285Y-73726190D01*
X99083333Y-73726190D01*
X100273809Y-73202380D02*
X100369047Y-73202380D01*
X100464285Y-73250000D01*
X100511904Y-73297619D01*
X100559523Y-73392857D01*
X100607142Y-73583333D01*
X100607142Y-73821428D01*
X100559523Y-74011904D01*
X100511904Y-74107142D01*
X100464285Y-74154761D01*
X100369047Y-74202380D01*
X100273809Y-74202380D01*
X100178571Y-74154761D01*
X100130952Y-74107142D01*
X100083333Y-74011904D01*
X100035714Y-73821428D01*
X100035714Y-73583333D01*
X100083333Y-73392857D01*
X100130952Y-73297619D01*
X100178571Y-73250000D01*
X100273809Y-73202380D01*
X100940476Y-73202380D02*
X101559523Y-73202380D01*
X101226190Y-73583333D01*
X101369047Y-73583333D01*
X101464285Y-73630952D01*
X101511904Y-73678571D01*
X101559523Y-73773809D01*
X101559523Y-74011904D01*
X101511904Y-74107142D01*
X101464285Y-74154761D01*
X101369047Y-74202380D01*
X101083333Y-74202380D01*
X100988095Y-74154761D01*
X100940476Y-74107142D01*
X103273809Y-74202380D02*
X102702380Y-74202380D01*
X102988095Y-74202380D02*
X102988095Y-73202380D01*
X102892857Y-73345238D01*
X102797619Y-73440476D01*
X102702380Y-73488095D01*
X103750000Y-74154761D02*
X103750000Y-74202380D01*
X103702380Y-74297619D01*
X103654761Y-74345238D01*
X104130952Y-73297619D02*
X104178571Y-73250000D01*
X104273809Y-73202380D01*
X104511904Y-73202380D01*
X104607142Y-73250000D01*
X104654761Y-73297619D01*
X104702380Y-73392857D01*
X104702380Y-73488095D01*
X104654761Y-73630952D01*
X104083333Y-74202380D01*
X104702380Y-74202380D01*
X104988095Y-73202380D02*
X105321428Y-74202380D01*
X105654761Y-73202380D01*
X106750000Y-74202380D02*
X106750000Y-73202380D01*
X107321428Y-74202380D01*
X107321428Y-73202380D01*
X107797619Y-74202380D02*
X107797619Y-73535714D01*
X107797619Y-73202380D02*
X107750000Y-73250000D01*
X107797619Y-73297619D01*
X107845238Y-73250000D01*
X107797619Y-73202380D01*
X107797619Y-73297619D01*
X108273809Y-73821428D02*
X109035714Y-73821428D01*
X109511904Y-74202380D02*
X109511904Y-73202380D01*
X109845238Y-73916666D01*
X110178571Y-73202380D01*
X110178571Y-74202380D01*
X110654761Y-74202380D02*
X110654761Y-73202380D01*
X110654761Y-73678571D02*
X111226190Y-73678571D01*
X111226190Y-74202380D02*
X111226190Y-73202380D01*
%TO.C,SW1*%
X121466666Y-89204761D02*
X121609523Y-89252380D01*
X121847619Y-89252380D01*
X121942857Y-89204761D01*
X121990476Y-89157142D01*
X122038095Y-89061904D01*
X122038095Y-88966666D01*
X121990476Y-88871428D01*
X121942857Y-88823809D01*
X121847619Y-88776190D01*
X121657142Y-88728571D01*
X121561904Y-88680952D01*
X121514285Y-88633333D01*
X121466666Y-88538095D01*
X121466666Y-88442857D01*
X121514285Y-88347619D01*
X121561904Y-88300000D01*
X121657142Y-88252380D01*
X121895238Y-88252380D01*
X122038095Y-88300000D01*
X122371428Y-88252380D02*
X122609523Y-89252380D01*
X122800000Y-88538095D01*
X122990476Y-89252380D01*
X123228571Y-88252380D01*
X124133333Y-89252380D02*
X123561904Y-89252380D01*
X123847619Y-89252380D02*
X123847619Y-88252380D01*
X123752380Y-88395238D01*
X123657142Y-88490476D01*
X123561904Y-88538095D01*
%TO.C,H4*%
X80438095Y-69952380D02*
X80438095Y-68952380D01*
X80438095Y-69428571D02*
X81009523Y-69428571D01*
X81009523Y-69952380D02*
X81009523Y-68952380D01*
X81914285Y-69285714D02*
X81914285Y-69952380D01*
X81676190Y-68904761D02*
X81438095Y-69619047D01*
X82057142Y-69619047D01*
%TO.C,C5*%
X123343333Y-103757142D02*
X123295714Y-103804761D01*
X123152857Y-103852380D01*
X123057619Y-103852380D01*
X122914761Y-103804761D01*
X122819523Y-103709523D01*
X122771904Y-103614285D01*
X122724285Y-103423809D01*
X122724285Y-103280952D01*
X122771904Y-103090476D01*
X122819523Y-102995238D01*
X122914761Y-102900000D01*
X123057619Y-102852380D01*
X123152857Y-102852380D01*
X123295714Y-102900000D01*
X123343333Y-102947619D01*
X124248095Y-102852380D02*
X123771904Y-102852380D01*
X123724285Y-103328571D01*
X123771904Y-103280952D01*
X123867142Y-103233333D01*
X124105238Y-103233333D01*
X124200476Y-103280952D01*
X124248095Y-103328571D01*
X124295714Y-103423809D01*
X124295714Y-103661904D01*
X124248095Y-103757142D01*
X124200476Y-103804761D01*
X124105238Y-103852380D01*
X123867142Y-103852380D01*
X123771904Y-103804761D01*
X123724285Y-103757142D01*
%TO.C,J3*%
X80916666Y-103652380D02*
X80916666Y-104366666D01*
X80869047Y-104509523D01*
X80773809Y-104604761D01*
X80630952Y-104652380D01*
X80535714Y-104652380D01*
X81297619Y-103652380D02*
X81916666Y-103652380D01*
X81583333Y-104033333D01*
X81726190Y-104033333D01*
X81821428Y-104080952D01*
X81869047Y-104128571D01*
X81916666Y-104223809D01*
X81916666Y-104461904D01*
X81869047Y-104557142D01*
X81821428Y-104604761D01*
X81726190Y-104652380D01*
X81440476Y-104652380D01*
X81345238Y-104604761D01*
X81297619Y-104557142D01*
%TO.C,H3*%
X129038095Y-98152380D02*
X129038095Y-97152380D01*
X129038095Y-97628571D02*
X129609523Y-97628571D01*
X129609523Y-98152380D02*
X129609523Y-97152380D01*
X129990476Y-97152380D02*
X130609523Y-97152380D01*
X130276190Y-97533333D01*
X130419047Y-97533333D01*
X130514285Y-97580952D01*
X130561904Y-97628571D01*
X130609523Y-97723809D01*
X130609523Y-97961904D01*
X130561904Y-98057142D01*
X130514285Y-98104761D01*
X130419047Y-98152380D01*
X130133333Y-98152380D01*
X130038095Y-98104761D01*
X129990476Y-98057142D01*
%TO.C,SW2*%
X98308630Y-93766190D02*
X98451487Y-93813809D01*
X98689583Y-93813809D01*
X98784821Y-93766190D01*
X98832440Y-93718571D01*
X98880059Y-93623333D01*
X98880059Y-93528095D01*
X98832440Y-93432857D01*
X98784821Y-93385238D01*
X98689583Y-93337619D01*
X98499106Y-93290000D01*
X98403868Y-93242381D01*
X98356249Y-93194762D01*
X98308630Y-93099524D01*
X98308630Y-93004286D01*
X98356249Y-92909048D01*
X98403868Y-92861429D01*
X98499106Y-92813809D01*
X98737202Y-92813809D01*
X98880059Y-92861429D01*
X99213392Y-92813809D02*
X99451487Y-93813809D01*
X99641964Y-93099524D01*
X99832440Y-93813809D01*
X100070535Y-92813809D01*
X100403868Y-92909048D02*
X100451487Y-92861429D01*
X100546725Y-92813809D01*
X100784821Y-92813809D01*
X100880059Y-92861429D01*
X100927678Y-92909048D01*
X100975297Y-93004286D01*
X100975297Y-93099524D01*
X100927678Y-93242381D01*
X100356249Y-93813809D01*
X100975297Y-93813809D01*
%TO.C,C2*%
X115733333Y-103707142D02*
X115685714Y-103754761D01*
X115542857Y-103802380D01*
X115447619Y-103802380D01*
X115304761Y-103754761D01*
X115209523Y-103659523D01*
X115161904Y-103564285D01*
X115114285Y-103373809D01*
X115114285Y-103230952D01*
X115161904Y-103040476D01*
X115209523Y-102945238D01*
X115304761Y-102850000D01*
X115447619Y-102802380D01*
X115542857Y-102802380D01*
X115685714Y-102850000D01*
X115733333Y-102897619D01*
X116114285Y-102897619D02*
X116161904Y-102850000D01*
X116257142Y-102802380D01*
X116495238Y-102802380D01*
X116590476Y-102850000D01*
X116638095Y-102897619D01*
X116685714Y-102992857D01*
X116685714Y-103088095D01*
X116638095Y-103230952D01*
X116066666Y-103802380D01*
X116685714Y-103802380D01*
%TO.C,H1*%
X126138095Y-69952380D02*
X126138095Y-68952380D01*
X126138095Y-69428571D02*
X126709523Y-69428571D01*
X126709523Y-69952380D02*
X126709523Y-68952380D01*
X127709523Y-69952380D02*
X127138095Y-69952380D01*
X127423809Y-69952380D02*
X127423809Y-68952380D01*
X127328571Y-69095238D01*
X127233333Y-69190476D01*
X127138095Y-69238095D01*
%TO.C,J4*%
X80466666Y-93852380D02*
X80466666Y-94566666D01*
X80419047Y-94709523D01*
X80323809Y-94804761D01*
X80180952Y-94852380D01*
X80085714Y-94852380D01*
X81371428Y-94185714D02*
X81371428Y-94852380D01*
X81133333Y-93804761D02*
X80895238Y-94519047D01*
X81514285Y-94519047D01*
%TO.C,U2*%
X97638095Y-84552380D02*
X97638095Y-85361904D01*
X97685714Y-85457142D01*
X97733333Y-85504761D01*
X97828571Y-85552380D01*
X98019047Y-85552380D01*
X98114285Y-85504761D01*
X98161904Y-85457142D01*
X98209523Y-85361904D01*
X98209523Y-84552380D01*
X98638095Y-84647619D02*
X98685714Y-84600000D01*
X98780952Y-84552380D01*
X99019047Y-84552380D01*
X99114285Y-84600000D01*
X99161904Y-84647619D01*
X99209523Y-84742857D01*
X99209523Y-84838095D01*
X99161904Y-84980952D01*
X98590476Y-85552380D01*
X99209523Y-85552380D01*
%TO.C,Y1*%
X87123809Y-96476190D02*
X87123809Y-96952380D01*
X86790476Y-95952380D02*
X87123809Y-96476190D01*
X87457142Y-95952380D01*
X88314285Y-96952380D02*
X87742857Y-96952380D01*
X88028571Y-96952380D02*
X88028571Y-95952380D01*
X87933333Y-96095238D01*
X87838095Y-96190476D01*
X87742857Y-96238095D01*
%TO.C,J2*%
X90166666Y-92452380D02*
X90166666Y-93166666D01*
X90119047Y-93309523D01*
X90023809Y-93404761D01*
X89880952Y-93452380D01*
X89785714Y-93452380D01*
X90595238Y-92547619D02*
X90642857Y-92500000D01*
X90738095Y-92452380D01*
X90976190Y-92452380D01*
X91071428Y-92500000D01*
X91119047Y-92547619D01*
X91166666Y-92642857D01*
X91166666Y-92738095D01*
X91119047Y-92880952D01*
X90547619Y-93452380D01*
X91166666Y-93452380D01*
%TO.C,D3*%
X83261904Y-81952380D02*
X83261904Y-80952380D01*
X83500000Y-80952380D01*
X83642857Y-81000000D01*
X83738095Y-81095238D01*
X83785714Y-81190476D01*
X83833333Y-81380952D01*
X83833333Y-81523809D01*
X83785714Y-81714285D01*
X83738095Y-81809523D01*
X83642857Y-81904761D01*
X83500000Y-81952380D01*
X83261904Y-81952380D01*
X84166666Y-80952380D02*
X84785714Y-80952380D01*
X84452380Y-81333333D01*
X84595238Y-81333333D01*
X84690476Y-81380952D01*
X84738095Y-81428571D01*
X84785714Y-81523809D01*
X84785714Y-81761904D01*
X84738095Y-81857142D01*
X84690476Y-81904761D01*
X84595238Y-81952380D01*
X84309523Y-81952380D01*
X84214285Y-81904761D01*
X84166666Y-81857142D01*
%TO.C,U5*%
X107565106Y-74662380D02*
X107565106Y-75471904D01*
X107612725Y-75567142D01*
X107660344Y-75614761D01*
X107755582Y-75662380D01*
X107946058Y-75662380D01*
X108041296Y-75614761D01*
X108088915Y-75567142D01*
X108136534Y-75471904D01*
X108136534Y-74662380D01*
X109088915Y-74662380D02*
X108612725Y-74662380D01*
X108565106Y-75138571D01*
X108612725Y-75090952D01*
X108707963Y-75043333D01*
X108946058Y-75043333D01*
X109041296Y-75090952D01*
X109088915Y-75138571D01*
X109136534Y-75233809D01*
X109136534Y-75471904D01*
X109088915Y-75567142D01*
X109041296Y-75614761D01*
X108946058Y-75662380D01*
X108707963Y-75662380D01*
X108612725Y-75614761D01*
X108565106Y-75567142D01*
%TO.C,H2*%
X77338095Y-98352380D02*
X77338095Y-97352380D01*
X77338095Y-97828571D02*
X77909523Y-97828571D01*
X77909523Y-98352380D02*
X77909523Y-97352380D01*
X78338095Y-97447619D02*
X78385714Y-97400000D01*
X78480952Y-97352380D01*
X78719047Y-97352380D01*
X78814285Y-97400000D01*
X78861904Y-97447619D01*
X78909523Y-97542857D01*
X78909523Y-97638095D01*
X78861904Y-97780952D01*
X78290476Y-98352380D01*
X78909523Y-98352380D01*
%TO.C,D2*%
X83011904Y-88952380D02*
X83011904Y-87952380D01*
X83250000Y-87952380D01*
X83392857Y-88000000D01*
X83488095Y-88095238D01*
X83535714Y-88190476D01*
X83583333Y-88380952D01*
X83583333Y-88523809D01*
X83535714Y-88714285D01*
X83488095Y-88809523D01*
X83392857Y-88904761D01*
X83250000Y-88952380D01*
X83011904Y-88952380D01*
X83964285Y-88047619D02*
X84011904Y-88000000D01*
X84107142Y-87952380D01*
X84345238Y-87952380D01*
X84440476Y-88000000D01*
X84488095Y-88047619D01*
X84535714Y-88142857D01*
X84535714Y-88238095D01*
X84488095Y-88380952D01*
X83916666Y-88952380D01*
X84535714Y-88952380D01*
D11*
%TO.C,SW3*%
X113900000Y-91600000D02*
X109400000Y-91600000D01*
X109400000Y-98100000D02*
X113900000Y-98100000D01*
X108150000Y-94100000D02*
X108150000Y-95600000D01*
X115150000Y-95600000D02*
X115150000Y-94100000D01*
%TO.C,C22*%
X102960000Y-99854437D02*
X102960000Y-100490000D01*
X102960000Y-103245563D02*
X102960000Y-102610000D01*
X101895563Y-98790000D02*
X97440000Y-98790000D01*
X102960000Y-103245563D02*
X101895563Y-104310000D01*
X103825000Y-103235000D02*
X103200000Y-103235000D01*
X101895563Y-104310000D02*
X97440000Y-104310000D01*
X97440000Y-104310000D02*
X97440000Y-102610000D01*
X102960000Y-99854437D02*
X101895563Y-98790000D01*
X97440000Y-98790000D02*
X97440000Y-100490000D01*
X103512500Y-103547500D02*
X103512500Y-102922500D01*
%TO.C,C21*%
X110860000Y-99854437D02*
X110860000Y-100490000D01*
X110860000Y-103245563D02*
X110860000Y-102610000D01*
X109795563Y-98790000D02*
X105340000Y-98790000D01*
X110860000Y-103245563D02*
X109795563Y-104310000D01*
X111725000Y-103235000D02*
X111100000Y-103235000D01*
X109795563Y-104310000D02*
X105340000Y-104310000D01*
X105340000Y-104310000D02*
X105340000Y-102610000D01*
X110860000Y-99854437D02*
X109795563Y-98790000D01*
X105340000Y-98790000D02*
X105340000Y-100490000D01*
X111412500Y-103547500D02*
X111412500Y-102922500D01*
%TO.C,J1*%
X82500000Y-70450000D02*
X82500000Y-71050000D01*
X82100000Y-76250000D02*
X81100000Y-77250000D01*
X91700000Y-73250000D02*
X91700000Y-75250000D01*
X81100000Y-71250000D02*
X82100000Y-72250000D01*
X125900000Y-76250000D02*
X126900000Y-75250000D01*
X125300000Y-76155000D02*
X125300000Y-78250000D01*
X82700000Y-76155000D02*
X82700000Y-78250000D01*
X82700000Y-72345000D02*
X82700000Y-70250000D01*
X81900000Y-70450000D02*
X82500000Y-70450000D01*
X126900000Y-77250000D02*
X125900000Y-76250000D01*
X125300000Y-70250000D02*
X127700000Y-70250000D01*
X127700000Y-70250000D02*
X127700000Y-78250000D01*
X125300000Y-72345000D02*
X125300000Y-70250000D01*
X82100000Y-72250000D02*
X81100000Y-73250000D01*
X125900000Y-72250000D02*
X126900000Y-71250000D01*
X126900000Y-73250000D02*
X125900000Y-72250000D01*
X81100000Y-75250000D02*
X82100000Y-76250000D01*
X127700000Y-78250000D02*
X125300000Y-78250000D01*
X82700000Y-70250000D02*
X80300000Y-70250000D01*
X80300000Y-70250000D02*
X80300000Y-78250000D01*
X90700000Y-74250000D02*
X92700000Y-74250000D01*
X80300000Y-78250000D02*
X82700000Y-78250000D01*
X115100000Y-74250000D02*
X117100000Y-74250000D01*
%TO.C,SW1*%
X128850000Y-83000000D02*
X128850000Y-87000000D01*
X117050000Y-83000000D02*
X117050000Y-87000000D01*
X117050000Y-91000000D02*
X117050000Y-95000000D01*
X117050000Y-95000000D02*
X128850000Y-95000000D01*
X128850000Y-91000000D02*
X128850000Y-95000000D01*
X117050000Y-83000000D02*
X128850000Y-83000000D01*
X126500000Y-89000000D02*
G75*
G03*
X126500000Y-89000000I-3500000J0D01*
G01*
%TO.C,C5*%
X126660000Y-103265563D02*
X125595563Y-104330000D01*
X126660000Y-99874437D02*
X126660000Y-100510000D01*
X121140000Y-98810000D02*
X121140000Y-100510000D01*
X125595563Y-104330000D02*
X121140000Y-104330000D01*
X126660000Y-103265563D02*
X126660000Y-102630000D01*
X126660000Y-99874437D02*
X125595563Y-98810000D01*
X127212500Y-103567500D02*
X127212500Y-102942500D01*
X127525000Y-103255000D02*
X126900000Y-103255000D01*
X121140000Y-104330000D02*
X121140000Y-102630000D01*
X125595563Y-98810000D02*
X121140000Y-98810000D01*
%TO.C,J3*%
X80420000Y-102980000D02*
X80420000Y-101650000D01*
X83020000Y-102980000D02*
X83020000Y-100320000D01*
X81750000Y-102980000D02*
X80420000Y-102980000D01*
X95780000Y-102980000D02*
X95780000Y-100320000D01*
X83020000Y-100320000D02*
X95780000Y-100320000D01*
X83020000Y-102980000D02*
X95780000Y-102980000D01*
%TO.C,SW2*%
X95600000Y-92500000D02*
X95600000Y-98100000D01*
X95600000Y-98100000D02*
X106600000Y-98100000D01*
X106100000Y-97800000D02*
X105100000Y-97800000D01*
X106600000Y-98100000D02*
X106600000Y-92500000D01*
X95600000Y-92500000D02*
X106600000Y-92500000D01*
X106100000Y-96800000D02*
X106100000Y-97800000D01*
%TO.C,C2*%
X118760000Y-99874437D02*
X118760000Y-100510000D01*
X117695563Y-98810000D02*
X113240000Y-98810000D01*
X118760000Y-103265563D02*
X117695563Y-104330000D01*
X113240000Y-98810000D02*
X113240000Y-100510000D01*
X118760000Y-99874437D02*
X117695563Y-98810000D01*
X113240000Y-104330000D02*
X113240000Y-102630000D01*
X119625000Y-103255000D02*
X119000000Y-103255000D01*
X117695563Y-104330000D02*
X113240000Y-104330000D01*
X119312500Y-103567500D02*
X119312500Y-102942500D01*
X118760000Y-103265563D02*
X118760000Y-102630000D01*
%TO.C,J4*%
X76970000Y-75900000D02*
X76970000Y-74570000D01*
X76970000Y-74570000D02*
X78300000Y-74570000D01*
X76970000Y-95010000D02*
X79630000Y-95010000D01*
X76970000Y-77170000D02*
X79630000Y-77170000D01*
X79630000Y-77170000D02*
X79630000Y-95010000D01*
X76970000Y-77170000D02*
X76970000Y-95010000D01*
D12*
%TO.C,U2*%
X84500000Y-83000000D02*
X84500000Y-84500000D01*
D11*
X106120000Y-90000000D02*
X114550000Y-90000000D01*
D12*
X109000000Y-85000000D02*
X112000000Y-85000000D01*
X85000000Y-85000000D02*
X88000000Y-85000000D01*
X101000000Y-85000000D02*
X104000000Y-85000000D01*
X100500000Y-85500000D02*
X100500000Y-87000000D01*
D11*
X114550000Y-80000000D02*
X114550000Y-90000000D01*
D12*
X112500000Y-85500000D02*
X112500000Y-87000000D01*
X108500000Y-83000000D02*
X108500000Y-84500000D01*
D11*
X82450000Y-90000000D02*
X82450000Y-80000000D01*
D12*
X93000000Y-85000000D02*
X96000000Y-85000000D01*
X109000000Y-82500000D02*
X112000000Y-82500000D01*
X93000000Y-82500000D02*
X96000000Y-82500000D01*
X112500000Y-83000000D02*
X112500000Y-84500000D01*
X92500000Y-85500000D02*
X92500000Y-87000000D01*
X108500000Y-85500000D02*
X108500000Y-87000000D01*
D11*
X106120000Y-80000000D02*
X114550000Y-80000000D01*
D12*
X88500000Y-85500000D02*
X88500000Y-87000000D01*
X96500000Y-83000000D02*
X96500000Y-84500000D01*
X92500000Y-83000000D02*
X92500000Y-84500000D01*
X93000000Y-87500000D02*
X96000000Y-87500000D01*
X104500000Y-85500000D02*
X104500000Y-87000000D01*
X101000000Y-87500000D02*
X104000000Y-87500000D01*
D11*
X90880000Y-80000000D02*
X82450000Y-80000000D01*
D12*
X96500000Y-85500000D02*
X96500000Y-87000000D01*
X109000000Y-87500000D02*
X112000000Y-87500000D01*
X104500000Y-83000000D02*
X104500000Y-84500000D01*
X101000000Y-82500000D02*
X104000000Y-82500000D01*
X88500000Y-83000000D02*
X88500000Y-84500000D01*
X84500000Y-85500000D02*
X84500000Y-87000000D01*
X85000000Y-82500000D02*
X88000000Y-82500000D01*
X100500000Y-83000000D02*
X100500000Y-84500000D01*
D11*
X90880000Y-90000000D02*
X82450000Y-90000000D01*
D12*
X85000000Y-87500000D02*
X88000000Y-87500000D01*
D11*
%TO.C,Y1*%
X92600000Y-97730000D02*
X92600000Y-95270000D01*
X93500000Y-97450000D02*
X93700000Y-97450000D01*
X85700000Y-95270000D02*
X85700000Y-97730000D01*
X85700000Y-97730000D02*
X92600000Y-97730000D01*
X93500000Y-95550000D02*
X93700000Y-95550000D01*
X92600000Y-95270000D02*
X85700000Y-95270000D01*
X92600000Y-96850000D02*
X93500000Y-97450000D01*
X92600000Y-96150000D02*
X93500000Y-95550000D01*
%TO.C,J2*%
X84110000Y-90790000D02*
X89125000Y-90790000D01*
X83350000Y-93010000D02*
X82590000Y-93010000D01*
X84110000Y-91336529D02*
X84110000Y-90790000D01*
X84110000Y-93010000D02*
X89125000Y-93010000D01*
X84110000Y-93010000D02*
X84110000Y-92463471D01*
X82590000Y-93010000D02*
X82590000Y-91900000D01*
X89125000Y-93010000D02*
X89125000Y-92207530D01*
X89125000Y-91592470D02*
X89125000Y-90790000D01*
%TO.C,D3*%
X80365000Y-84172500D02*
X81835000Y-84172500D01*
X81835000Y-84172500D02*
X81835000Y-81887500D01*
X80365000Y-81887500D02*
X80365000Y-84172500D01*
D13*
%TO.C,U5*%
X106962011Y-79035000D02*
X107112011Y-79035000D01*
X106962011Y-76475000D02*
X106962011Y-76225000D01*
X109662011Y-76325000D02*
X109662011Y-76475000D01*
X106962011Y-79025000D02*
X106962011Y-78875000D01*
X109662011Y-79025000D02*
X109512011Y-79025000D01*
X109662011Y-79025000D02*
X109662011Y-78875000D01*
X109512011Y-76325000D02*
X109662011Y-76325000D01*
D11*
%TO.C,D2*%
X81835000Y-87272500D02*
X81835000Y-84987500D01*
X80365000Y-84987500D02*
X80365000Y-87272500D01*
X80365000Y-87272500D02*
X81835000Y-87272500D01*
%TD*%
M02*
