%TF.GenerationSoftware,KiCad,Pcbnew,6.0.2-1.fc35*%
%TF.CreationDate,2022-04-20T21:26:54+02:00*%
%TF.ProjectId,LEDnode,4c45446e-6f64-4652-9e6b-696361645f70,rev?*%
%TF.SameCoordinates,Original*%
%TF.FileFunction,Legend,Top*%
%TF.FilePolarity,Positive*%
%FSLAX46Y46*%
G04 Gerber Fmt 4.6, Leading zero omitted, Abs format (unit mm)*
G04 Created by KiCad (PCBNEW 6.0.2-1.fc35) date 2022-04-20 21:26:54*
%MOMM*%
%LPD*%
G01*
G04 APERTURE LIST*
%ADD10C,0.150000*%
%ADD11C,0.120000*%
%ADD12C,0.500000*%
%ADD13C,0.100000*%
G04 APERTURE END LIST*
D10*
X83738095Y-99952380D02*
X83261904Y-99952380D01*
X83261904Y-98952380D01*
X84071428Y-99428571D02*
X84404761Y-99428571D01*
X84547619Y-99952380D02*
X84071428Y-99952380D01*
X84071428Y-98952380D01*
X84547619Y-98952380D01*
X84976190Y-99952380D02*
X84976190Y-98952380D01*
X85214285Y-98952380D01*
X85357142Y-99000000D01*
X85452380Y-99095238D01*
X85500000Y-99190476D01*
X85547619Y-99380952D01*
X85547619Y-99523809D01*
X85500000Y-99714285D01*
X85452380Y-99809523D01*
X85357142Y-99904761D01*
X85214285Y-99952380D01*
X84976190Y-99952380D01*
X85976190Y-99285714D02*
X85976190Y-99952380D01*
X85976190Y-99380952D02*
X86023809Y-99333333D01*
X86119047Y-99285714D01*
X86261904Y-99285714D01*
X86357142Y-99333333D01*
X86404761Y-99428571D01*
X86404761Y-99952380D01*
X87023809Y-99952380D02*
X86928571Y-99904761D01*
X86880952Y-99857142D01*
X86833333Y-99761904D01*
X86833333Y-99476190D01*
X86880952Y-99380952D01*
X86928571Y-99333333D01*
X87023809Y-99285714D01*
X87166666Y-99285714D01*
X87261904Y-99333333D01*
X87309523Y-99380952D01*
X87357142Y-99476190D01*
X87357142Y-99761904D01*
X87309523Y-99857142D01*
X87261904Y-99904761D01*
X87166666Y-99952380D01*
X87023809Y-99952380D01*
X88214285Y-99952380D02*
X88214285Y-98952380D01*
X88214285Y-99904761D02*
X88119047Y-99952380D01*
X87928571Y-99952380D01*
X87833333Y-99904761D01*
X87785714Y-99857142D01*
X87738095Y-99761904D01*
X87738095Y-99476190D01*
X87785714Y-99380952D01*
X87833333Y-99333333D01*
X87928571Y-99285714D01*
X88119047Y-99285714D01*
X88214285Y-99333333D01*
X89071428Y-99904761D02*
X88976190Y-99952380D01*
X88785714Y-99952380D01*
X88690476Y-99904761D01*
X88642857Y-99809523D01*
X88642857Y-99428571D01*
X88690476Y-99333333D01*
X88785714Y-99285714D01*
X88976190Y-99285714D01*
X89071428Y-99333333D01*
X89119047Y-99428571D01*
X89119047Y-99523809D01*
X88642857Y-99619047D01*
X90309523Y-99952380D02*
X90309523Y-98952380D01*
X90642857Y-99666666D01*
X90976190Y-98952380D01*
X90976190Y-99952380D01*
X91452380Y-99952380D02*
X91452380Y-98952380D01*
X91547619Y-99571428D02*
X91833333Y-99952380D01*
X91833333Y-99285714D02*
X91452380Y-99666666D01*
X92785714Y-99952380D02*
X92214285Y-99952380D01*
X92500000Y-99952380D02*
X92500000Y-98952380D01*
X92404761Y-99095238D01*
X92309523Y-99190476D01*
X92214285Y-99238095D01*
%TO.C,C5*%
X123343333Y-103757142D02*
X123295714Y-103804761D01*
X123152857Y-103852380D01*
X123057619Y-103852380D01*
X122914761Y-103804761D01*
X122819523Y-103709523D01*
X122771904Y-103614285D01*
X122724285Y-103423809D01*
X122724285Y-103280952D01*
X122771904Y-103090476D01*
X122819523Y-102995238D01*
X122914761Y-102900000D01*
X123057619Y-102852380D01*
X123152857Y-102852380D01*
X123295714Y-102900000D01*
X123343333Y-102947619D01*
X124248095Y-102852380D02*
X123771904Y-102852380D01*
X123724285Y-103328571D01*
X123771904Y-103280952D01*
X123867142Y-103233333D01*
X124105238Y-103233333D01*
X124200476Y-103280952D01*
X124248095Y-103328571D01*
X124295714Y-103423809D01*
X124295714Y-103661904D01*
X124248095Y-103757142D01*
X124200476Y-103804761D01*
X124105238Y-103852380D01*
X123867142Y-103852380D01*
X123771904Y-103804761D01*
X123724285Y-103757142D01*
%TO.C,C2*%
X115613333Y-103707142D02*
X115565714Y-103754761D01*
X115422857Y-103802380D01*
X115327619Y-103802380D01*
X115184761Y-103754761D01*
X115089523Y-103659523D01*
X115041904Y-103564285D01*
X114994285Y-103373809D01*
X114994285Y-103230952D01*
X115041904Y-103040476D01*
X115089523Y-102945238D01*
X115184761Y-102850000D01*
X115327619Y-102802380D01*
X115422857Y-102802380D01*
X115565714Y-102850000D01*
X115613333Y-102897619D01*
X115994285Y-102897619D02*
X116041904Y-102850000D01*
X116137142Y-102802380D01*
X116375238Y-102802380D01*
X116470476Y-102850000D01*
X116518095Y-102897619D01*
X116565714Y-102992857D01*
X116565714Y-103088095D01*
X116518095Y-103230952D01*
X115946666Y-103802380D01*
X116565714Y-103802380D01*
%TO.C,J1*%
X85416666Y-71952380D02*
X85416666Y-72666666D01*
X85369047Y-72809523D01*
X85273809Y-72904761D01*
X85130952Y-72952380D01*
X85035714Y-72952380D01*
X86416666Y-72952380D02*
X85845238Y-72952380D01*
X86130952Y-72952380D02*
X86130952Y-71952380D01*
X86035714Y-72095238D01*
X85940476Y-72190476D01*
X85845238Y-72238095D01*
X98750000Y-74202380D02*
X98273809Y-74202380D01*
X98273809Y-73202380D01*
X99654761Y-74202380D02*
X99321428Y-73726190D01*
X99083333Y-74202380D02*
X99083333Y-73202380D01*
X99464285Y-73202380D01*
X99559523Y-73250000D01*
X99607142Y-73297619D01*
X99654761Y-73392857D01*
X99654761Y-73535714D01*
X99607142Y-73630952D01*
X99559523Y-73678571D01*
X99464285Y-73726190D01*
X99083333Y-73726190D01*
X100273809Y-73202380D02*
X100369047Y-73202380D01*
X100464285Y-73250000D01*
X100511904Y-73297619D01*
X100559523Y-73392857D01*
X100607142Y-73583333D01*
X100607142Y-73821428D01*
X100559523Y-74011904D01*
X100511904Y-74107142D01*
X100464285Y-74154761D01*
X100369047Y-74202380D01*
X100273809Y-74202380D01*
X100178571Y-74154761D01*
X100130952Y-74107142D01*
X100083333Y-74011904D01*
X100035714Y-73821428D01*
X100035714Y-73583333D01*
X100083333Y-73392857D01*
X100130952Y-73297619D01*
X100178571Y-73250000D01*
X100273809Y-73202380D01*
X100940476Y-73202380D02*
X101559523Y-73202380D01*
X101226190Y-73583333D01*
X101369047Y-73583333D01*
X101464285Y-73630952D01*
X101511904Y-73678571D01*
X101559523Y-73773809D01*
X101559523Y-74011904D01*
X101511904Y-74107142D01*
X101464285Y-74154761D01*
X101369047Y-74202380D01*
X101083333Y-74202380D01*
X100988095Y-74154761D01*
X100940476Y-74107142D01*
X103273809Y-74202380D02*
X102702380Y-74202380D01*
X102988095Y-74202380D02*
X102988095Y-73202380D01*
X102892857Y-73345238D01*
X102797619Y-73440476D01*
X102702380Y-73488095D01*
X103750000Y-74154761D02*
X103750000Y-74202380D01*
X103702380Y-74297619D01*
X103654761Y-74345238D01*
X104130952Y-73297619D02*
X104178571Y-73250000D01*
X104273809Y-73202380D01*
X104511904Y-73202380D01*
X104607142Y-73250000D01*
X104654761Y-73297619D01*
X104702380Y-73392857D01*
X104702380Y-73488095D01*
X104654761Y-73630952D01*
X104083333Y-74202380D01*
X104702380Y-74202380D01*
X104988095Y-73202380D02*
X105321428Y-74202380D01*
X105654761Y-73202380D01*
X106750000Y-74202380D02*
X106750000Y-73202380D01*
X107321428Y-74202380D01*
X107321428Y-73202380D01*
X107797619Y-74202380D02*
X107797619Y-73535714D01*
X107797619Y-73202380D02*
X107750000Y-73250000D01*
X107797619Y-73297619D01*
X107845238Y-73250000D01*
X107797619Y-73202380D01*
X107797619Y-73297619D01*
X108273809Y-73821428D02*
X109035714Y-73821428D01*
X109511904Y-74202380D02*
X109511904Y-73202380D01*
X109845238Y-73916666D01*
X110178571Y-73202380D01*
X110178571Y-74202380D01*
X110654761Y-74202380D02*
X110654761Y-73202380D01*
X110654761Y-73678571D02*
X111226190Y-73678571D01*
X111226190Y-74202380D02*
X111226190Y-73202380D01*
%TO.C,SW1*%
X121466666Y-89204761D02*
X121609523Y-89252380D01*
X121847619Y-89252380D01*
X121942857Y-89204761D01*
X121990476Y-89157142D01*
X122038095Y-89061904D01*
X122038095Y-88966666D01*
X121990476Y-88871428D01*
X121942857Y-88823809D01*
X121847619Y-88776190D01*
X121657142Y-88728571D01*
X121561904Y-88680952D01*
X121514285Y-88633333D01*
X121466666Y-88538095D01*
X121466666Y-88442857D01*
X121514285Y-88347619D01*
X121561904Y-88300000D01*
X121657142Y-88252380D01*
X121895238Y-88252380D01*
X122038095Y-88300000D01*
X122371428Y-88252380D02*
X122609523Y-89252380D01*
X122800000Y-88538095D01*
X122990476Y-89252380D01*
X123228571Y-88252380D01*
X124133333Y-89252380D02*
X123561904Y-89252380D01*
X123847619Y-89252380D02*
X123847619Y-88252380D01*
X123752380Y-88395238D01*
X123657142Y-88490476D01*
X123561904Y-88538095D01*
%TO.C,H4*%
X80438095Y-69952380D02*
X80438095Y-68952380D01*
X80438095Y-69428571D02*
X81009523Y-69428571D01*
X81009523Y-69952380D02*
X81009523Y-68952380D01*
X81914285Y-69285714D02*
X81914285Y-69952380D01*
X81676190Y-68904761D02*
X81438095Y-69619047D01*
X82057142Y-69619047D01*
%TO.C,J3*%
X97266666Y-101552380D02*
X97266666Y-102266666D01*
X97219047Y-102409523D01*
X97123809Y-102504761D01*
X96980952Y-102552380D01*
X96885714Y-102552380D01*
X97647619Y-101552380D02*
X98266666Y-101552380D01*
X97933333Y-101933333D01*
X98076190Y-101933333D01*
X98171428Y-101980952D01*
X98219047Y-102028571D01*
X98266666Y-102123809D01*
X98266666Y-102361904D01*
X98219047Y-102457142D01*
X98171428Y-102504761D01*
X98076190Y-102552380D01*
X97790476Y-102552380D01*
X97695238Y-102504761D01*
X97647619Y-102457142D01*
%TO.C,H3*%
X129038095Y-98152380D02*
X129038095Y-97152380D01*
X129038095Y-97628571D02*
X129609523Y-97628571D01*
X129609523Y-98152380D02*
X129609523Y-97152380D01*
X129990476Y-97152380D02*
X130609523Y-97152380D01*
X130276190Y-97533333D01*
X130419047Y-97533333D01*
X130514285Y-97580952D01*
X130561904Y-97628571D01*
X130609523Y-97723809D01*
X130609523Y-97961904D01*
X130561904Y-98057142D01*
X130514285Y-98104761D01*
X130419047Y-98152380D01*
X130133333Y-98152380D01*
X130038095Y-98104761D01*
X129990476Y-98057142D01*
%TO.C,SW2*%
X98550594Y-93827619D02*
X98693451Y-93875238D01*
X98931547Y-93875238D01*
X99026785Y-93827619D01*
X99074404Y-93780000D01*
X99122023Y-93684762D01*
X99122023Y-93589524D01*
X99074404Y-93494286D01*
X99026785Y-93446667D01*
X98931547Y-93399048D01*
X98741070Y-93351429D01*
X98645832Y-93303810D01*
X98598213Y-93256191D01*
X98550594Y-93160953D01*
X98550594Y-93065715D01*
X98598213Y-92970477D01*
X98645832Y-92922858D01*
X98741070Y-92875238D01*
X98979166Y-92875238D01*
X99122023Y-92922858D01*
X99455356Y-92875238D02*
X99693451Y-93875238D01*
X99883928Y-93160953D01*
X100074404Y-93875238D01*
X100312499Y-92875238D01*
X100645832Y-92970477D02*
X100693451Y-92922858D01*
X100788689Y-92875238D01*
X101026785Y-92875238D01*
X101122023Y-92922858D01*
X101169642Y-92970477D01*
X101217261Y-93065715D01*
X101217261Y-93160953D01*
X101169642Y-93303810D01*
X100598213Y-93875238D01*
X101217261Y-93875238D01*
%TO.C,SW3*%
X110416666Y-95104761D02*
X110559523Y-95152380D01*
X110797619Y-95152380D01*
X110892857Y-95104761D01*
X110940476Y-95057142D01*
X110988095Y-94961904D01*
X110988095Y-94866666D01*
X110940476Y-94771428D01*
X110892857Y-94723809D01*
X110797619Y-94676190D01*
X110607142Y-94628571D01*
X110511904Y-94580952D01*
X110464285Y-94533333D01*
X110416666Y-94438095D01*
X110416666Y-94342857D01*
X110464285Y-94247619D01*
X110511904Y-94200000D01*
X110607142Y-94152380D01*
X110845238Y-94152380D01*
X110988095Y-94200000D01*
X111321428Y-94152380D02*
X111559523Y-95152380D01*
X111750000Y-94438095D01*
X111940476Y-95152380D01*
X112178571Y-94152380D01*
X112464285Y-94152380D02*
X113083333Y-94152380D01*
X112750000Y-94533333D01*
X112892857Y-94533333D01*
X112988095Y-94580952D01*
X113035714Y-94628571D01*
X113083333Y-94723809D01*
X113083333Y-94961904D01*
X113035714Y-95057142D01*
X112988095Y-95104761D01*
X112892857Y-95152380D01*
X112607142Y-95152380D01*
X112511904Y-95104761D01*
X112464285Y-95057142D01*
%TO.C,H1*%
X126138095Y-69952380D02*
X126138095Y-68952380D01*
X126138095Y-69428571D02*
X126709523Y-69428571D01*
X126709523Y-69952380D02*
X126709523Y-68952380D01*
X127709523Y-69952380D02*
X127138095Y-69952380D01*
X127423809Y-69952380D02*
X127423809Y-68952380D01*
X127328571Y-69095238D01*
X127233333Y-69190476D01*
X127138095Y-69238095D01*
%TO.C,J4*%
X80466666Y-93852380D02*
X80466666Y-94566666D01*
X80419047Y-94709523D01*
X80323809Y-94804761D01*
X80180952Y-94852380D01*
X80085714Y-94852380D01*
X81371428Y-94185714D02*
X81371428Y-94852380D01*
X81133333Y-93804761D02*
X80895238Y-94519047D01*
X81514285Y-94519047D01*
%TO.C,U2*%
X97638095Y-84552380D02*
X97638095Y-85361904D01*
X97685714Y-85457142D01*
X97733333Y-85504761D01*
X97828571Y-85552380D01*
X98019047Y-85552380D01*
X98114285Y-85504761D01*
X98161904Y-85457142D01*
X98209523Y-85361904D01*
X98209523Y-84552380D01*
X98638095Y-84647619D02*
X98685714Y-84600000D01*
X98780952Y-84552380D01*
X99019047Y-84552380D01*
X99114285Y-84600000D01*
X99161904Y-84647619D01*
X99209523Y-84742857D01*
X99209523Y-84838095D01*
X99161904Y-84980952D01*
X98590476Y-85552380D01*
X99209523Y-85552380D01*
%TO.C,Y1*%
X87273809Y-96476190D02*
X87273809Y-96952380D01*
X86940476Y-95952380D02*
X87273809Y-96476190D01*
X87607142Y-95952380D01*
X88464285Y-96952380D02*
X87892857Y-96952380D01*
X88178571Y-96952380D02*
X88178571Y-95952380D01*
X88083333Y-96095238D01*
X87988095Y-96190476D01*
X87892857Y-96238095D01*
%TO.C,J2*%
X90166666Y-92452380D02*
X90166666Y-93166666D01*
X90119047Y-93309523D01*
X90023809Y-93404761D01*
X89880952Y-93452380D01*
X89785714Y-93452380D01*
X90595238Y-92547619D02*
X90642857Y-92500000D01*
X90738095Y-92452380D01*
X90976190Y-92452380D01*
X91071428Y-92500000D01*
X91119047Y-92547619D01*
X91166666Y-92642857D01*
X91166666Y-92738095D01*
X91119047Y-92880952D01*
X90547619Y-93452380D01*
X91166666Y-93452380D01*
%TO.C,D3*%
X83261904Y-81952380D02*
X83261904Y-80952380D01*
X83500000Y-80952380D01*
X83642857Y-81000000D01*
X83738095Y-81095238D01*
X83785714Y-81190476D01*
X83833333Y-81380952D01*
X83833333Y-81523809D01*
X83785714Y-81714285D01*
X83738095Y-81809523D01*
X83642857Y-81904761D01*
X83500000Y-81952380D01*
X83261904Y-81952380D01*
X84166666Y-80952380D02*
X84785714Y-80952380D01*
X84452380Y-81333333D01*
X84595238Y-81333333D01*
X84690476Y-81380952D01*
X84738095Y-81428571D01*
X84785714Y-81523809D01*
X84785714Y-81761904D01*
X84738095Y-81857142D01*
X84690476Y-81904761D01*
X84595238Y-81952380D01*
X84309523Y-81952380D01*
X84214285Y-81904761D01*
X84166666Y-81857142D01*
%TO.C,U5*%
X107565106Y-74662380D02*
X107565106Y-75471904D01*
X107612725Y-75567142D01*
X107660344Y-75614761D01*
X107755582Y-75662380D01*
X107946058Y-75662380D01*
X108041296Y-75614761D01*
X108088915Y-75567142D01*
X108136534Y-75471904D01*
X108136534Y-74662380D01*
X109088915Y-74662380D02*
X108612725Y-74662380D01*
X108565106Y-75138571D01*
X108612725Y-75090952D01*
X108707963Y-75043333D01*
X108946058Y-75043333D01*
X109041296Y-75090952D01*
X109088915Y-75138571D01*
X109136534Y-75233809D01*
X109136534Y-75471904D01*
X109088915Y-75567142D01*
X109041296Y-75614761D01*
X108946058Y-75662380D01*
X108707963Y-75662380D01*
X108612725Y-75614761D01*
X108565106Y-75567142D01*
%TO.C,H2*%
X77338095Y-98352380D02*
X77338095Y-97352380D01*
X77338095Y-97828571D02*
X77909523Y-97828571D01*
X77909523Y-98352380D02*
X77909523Y-97352380D01*
X78338095Y-97447619D02*
X78385714Y-97400000D01*
X78480952Y-97352380D01*
X78719047Y-97352380D01*
X78814285Y-97400000D01*
X78861904Y-97447619D01*
X78909523Y-97542857D01*
X78909523Y-97638095D01*
X78861904Y-97780952D01*
X78290476Y-98352380D01*
X78909523Y-98352380D01*
%TO.C,D2*%
X83011904Y-88952380D02*
X83011904Y-87952380D01*
X83250000Y-87952380D01*
X83392857Y-88000000D01*
X83488095Y-88095238D01*
X83535714Y-88190476D01*
X83583333Y-88380952D01*
X83583333Y-88523809D01*
X83535714Y-88714285D01*
X83488095Y-88809523D01*
X83392857Y-88904761D01*
X83250000Y-88952380D01*
X83011904Y-88952380D01*
X83964285Y-88047619D02*
X84011904Y-88000000D01*
X84107142Y-87952380D01*
X84345238Y-87952380D01*
X84440476Y-88000000D01*
X84488095Y-88047619D01*
X84535714Y-88142857D01*
X84535714Y-88238095D01*
X84488095Y-88380952D01*
X83916666Y-88952380D01*
X84535714Y-88952380D01*
D11*
%TO.C,C5*%
X126660000Y-99874437D02*
X126660000Y-100510000D01*
X126660000Y-103265563D02*
X126660000Y-102630000D01*
X125595563Y-98810000D02*
X121140000Y-98810000D01*
X126660000Y-103265563D02*
X125595563Y-104330000D01*
X127525000Y-103255000D02*
X126900000Y-103255000D01*
X125595563Y-104330000D02*
X121140000Y-104330000D01*
X121140000Y-104330000D02*
X121140000Y-102630000D01*
X126660000Y-99874437D02*
X125595563Y-98810000D01*
X121140000Y-98810000D02*
X121140000Y-100510000D01*
X127212500Y-103567500D02*
X127212500Y-102942500D01*
%TO.C,C2*%
X118640000Y-99874437D02*
X118640000Y-100510000D01*
X118640000Y-103265563D02*
X118640000Y-102630000D01*
X117575563Y-98810000D02*
X113120000Y-98810000D01*
X118640000Y-103265563D02*
X117575563Y-104330000D01*
X119505000Y-103255000D02*
X118880000Y-103255000D01*
X117575563Y-104330000D02*
X113120000Y-104330000D01*
X113120000Y-104330000D02*
X113120000Y-102630000D01*
X118640000Y-99874437D02*
X117575563Y-98810000D01*
X113120000Y-98810000D02*
X113120000Y-100510000D01*
X119192500Y-103567500D02*
X119192500Y-102942500D01*
%TO.C,J1*%
X82500000Y-70450000D02*
X82500000Y-71050000D01*
X82100000Y-76250000D02*
X81100000Y-77250000D01*
X91700000Y-73250000D02*
X91700000Y-75250000D01*
X81100000Y-71250000D02*
X82100000Y-72250000D01*
X125900000Y-76250000D02*
X126900000Y-75250000D01*
X125300000Y-76155000D02*
X125300000Y-78250000D01*
X82700000Y-76155000D02*
X82700000Y-78250000D01*
X82700000Y-72345000D02*
X82700000Y-70250000D01*
X81900000Y-70450000D02*
X82500000Y-70450000D01*
X126900000Y-77250000D02*
X125900000Y-76250000D01*
X125300000Y-70250000D02*
X127700000Y-70250000D01*
X127700000Y-70250000D02*
X127700000Y-78250000D01*
X125300000Y-72345000D02*
X125300000Y-70250000D01*
X82100000Y-72250000D02*
X81100000Y-73250000D01*
X125900000Y-72250000D02*
X126900000Y-71250000D01*
X126900000Y-73250000D02*
X125900000Y-72250000D01*
X81100000Y-75250000D02*
X82100000Y-76250000D01*
X127700000Y-78250000D02*
X125300000Y-78250000D01*
X82700000Y-70250000D02*
X80300000Y-70250000D01*
X80300000Y-70250000D02*
X80300000Y-78250000D01*
X90700000Y-74250000D02*
X92700000Y-74250000D01*
X80300000Y-78250000D02*
X82700000Y-78250000D01*
X115100000Y-74250000D02*
X117100000Y-74250000D01*
%TO.C,SW1*%
X128850000Y-83000000D02*
X128850000Y-87000000D01*
X117050000Y-83000000D02*
X117050000Y-87000000D01*
X117050000Y-91000000D02*
X117050000Y-95000000D01*
X117050000Y-95000000D02*
X128850000Y-95000000D01*
X128850000Y-91000000D02*
X128850000Y-95000000D01*
X117050000Y-83000000D02*
X128850000Y-83000000D01*
X126500000Y-89000000D02*
G75*
G03*
X126500000Y-89000000I-3500000J0D01*
G01*
%TO.C,J3*%
X80970000Y-103230000D02*
X80970000Y-101900000D01*
X83570000Y-103230000D02*
X83570000Y-100570000D01*
X82300000Y-103230000D02*
X80970000Y-103230000D01*
X96330000Y-103230000D02*
X96330000Y-100570000D01*
X83570000Y-100570000D02*
X96330000Y-100570000D01*
X83570000Y-103230000D02*
X96330000Y-103230000D01*
%TO.C,SW2*%
X106341964Y-96861429D02*
X106341964Y-97861429D01*
X95841964Y-92561429D02*
X106841964Y-92561429D01*
X106841964Y-98161429D02*
X106841964Y-92561429D01*
X106341964Y-97861429D02*
X105341964Y-97861429D01*
X95841964Y-98161429D02*
X106841964Y-98161429D01*
X95841964Y-92561429D02*
X95841964Y-98161429D01*
%TO.C,SW3*%
X115000000Y-91350000D02*
X115000000Y-92000000D01*
X108500000Y-91350000D02*
X115000000Y-91350000D01*
X115000000Y-96000000D02*
X115000000Y-93500000D01*
X108500000Y-92000000D02*
X108500000Y-91350000D01*
X108500000Y-96000000D02*
X108500000Y-93500000D01*
X108500000Y-98150000D02*
X115000000Y-98150000D01*
X108500000Y-97500000D02*
X108500000Y-98150000D01*
X115000000Y-98150000D02*
X115000000Y-97500000D01*
%TO.C,J4*%
X76970000Y-75900000D02*
X76970000Y-74570000D01*
X76970000Y-74570000D02*
X78300000Y-74570000D01*
X76970000Y-95010000D02*
X79630000Y-95010000D01*
X76970000Y-77170000D02*
X79630000Y-77170000D01*
X79630000Y-77170000D02*
X79630000Y-95010000D01*
X76970000Y-77170000D02*
X76970000Y-95010000D01*
D12*
%TO.C,U2*%
X84500000Y-83000000D02*
X84500000Y-84500000D01*
D11*
X106120000Y-90000000D02*
X114550000Y-90000000D01*
D12*
X109000000Y-85000000D02*
X112000000Y-85000000D01*
X85000000Y-85000000D02*
X88000000Y-85000000D01*
X101000000Y-85000000D02*
X104000000Y-85000000D01*
X100500000Y-85500000D02*
X100500000Y-87000000D01*
D11*
X114550000Y-80000000D02*
X114550000Y-90000000D01*
D12*
X112500000Y-85500000D02*
X112500000Y-87000000D01*
X108500000Y-83000000D02*
X108500000Y-84500000D01*
D11*
X82450000Y-90000000D02*
X82450000Y-80000000D01*
D12*
X93000000Y-85000000D02*
X96000000Y-85000000D01*
X109000000Y-82500000D02*
X112000000Y-82500000D01*
X93000000Y-82500000D02*
X96000000Y-82500000D01*
X112500000Y-83000000D02*
X112500000Y-84500000D01*
X92500000Y-85500000D02*
X92500000Y-87000000D01*
X108500000Y-85500000D02*
X108500000Y-87000000D01*
D11*
X106120000Y-80000000D02*
X114550000Y-80000000D01*
D12*
X88500000Y-85500000D02*
X88500000Y-87000000D01*
X96500000Y-83000000D02*
X96500000Y-84500000D01*
X92500000Y-83000000D02*
X92500000Y-84500000D01*
X93000000Y-87500000D02*
X96000000Y-87500000D01*
X104500000Y-85500000D02*
X104500000Y-87000000D01*
X101000000Y-87500000D02*
X104000000Y-87500000D01*
D11*
X90880000Y-80000000D02*
X82450000Y-80000000D01*
D12*
X96500000Y-85500000D02*
X96500000Y-87000000D01*
X109000000Y-87500000D02*
X112000000Y-87500000D01*
X104500000Y-83000000D02*
X104500000Y-84500000D01*
X101000000Y-82500000D02*
X104000000Y-82500000D01*
X88500000Y-83000000D02*
X88500000Y-84500000D01*
X84500000Y-85500000D02*
X84500000Y-87000000D01*
X85000000Y-82500000D02*
X88000000Y-82500000D01*
X100500000Y-83000000D02*
X100500000Y-84500000D01*
D11*
X90880000Y-90000000D02*
X82450000Y-90000000D01*
D12*
X85000000Y-87500000D02*
X88000000Y-87500000D01*
D11*
%TO.C,Y1*%
X92750000Y-97730000D02*
X92750000Y-95270000D01*
X93650000Y-97450000D02*
X93850000Y-97450000D01*
X85850000Y-95270000D02*
X85850000Y-97730000D01*
X85850000Y-97730000D02*
X92750000Y-97730000D01*
X93650000Y-95550000D02*
X93850000Y-95550000D01*
X92750000Y-95270000D02*
X85850000Y-95270000D01*
X92750000Y-96850000D02*
X93650000Y-97450000D01*
X92750000Y-96150000D02*
X93650000Y-95550000D01*
%TO.C,J2*%
X84110000Y-90790000D02*
X89125000Y-90790000D01*
X83350000Y-93010000D02*
X82590000Y-93010000D01*
X84110000Y-91336529D02*
X84110000Y-90790000D01*
X84110000Y-93010000D02*
X89125000Y-93010000D01*
X84110000Y-93010000D02*
X84110000Y-92463471D01*
X82590000Y-93010000D02*
X82590000Y-91900000D01*
X89125000Y-93010000D02*
X89125000Y-92207530D01*
X89125000Y-91592470D02*
X89125000Y-90790000D01*
%TO.C,D3*%
X80365000Y-84172500D02*
X81835000Y-84172500D01*
X81835000Y-84172500D02*
X81835000Y-81887500D01*
X80365000Y-81887500D02*
X80365000Y-84172500D01*
D13*
%TO.C,U5*%
X106962011Y-79035000D02*
X107112011Y-79035000D01*
X106962011Y-76475000D02*
X106962011Y-76225000D01*
X109662011Y-76325000D02*
X109662011Y-76475000D01*
X106962011Y-79025000D02*
X106962011Y-78875000D01*
X109662011Y-79025000D02*
X109512011Y-79025000D01*
X109662011Y-79025000D02*
X109662011Y-78875000D01*
X109512011Y-76325000D02*
X109662011Y-76325000D01*
D11*
%TO.C,D2*%
X81835000Y-87272500D02*
X81835000Y-84987500D01*
X80365000Y-84987500D02*
X80365000Y-87272500D01*
X80365000Y-87272500D02*
X81835000Y-87272500D01*
%TD*%
M02*
