%TF.GenerationSoftware,KiCad,Pcbnew,6.0.2-1.fc35*%
%TF.CreationDate,2022-04-20T21:26:54+02:00*%
%TF.ProjectId,LEDnode,4c45446e-6f64-4652-9e6b-696361645f70,rev?*%
%TF.SameCoordinates,Original*%
%TF.FileFunction,Legend,Bot*%
%TF.FilePolarity,Positive*%
%FSLAX46Y46*%
G04 Gerber Fmt 4.6, Leading zero omitted, Abs format (unit mm)*
G04 Created by KiCad (PCBNEW 6.0.2-1.fc35) date 2022-04-20 21:26:54*
%MOMM*%
%LPD*%
G01*
G04 APERTURE LIST*
%ADD10C,0.150000*%
%ADD11C,0.120000*%
G04 APERTURE END LIST*
D10*
X115158452Y-73647380D02*
X115033452Y-72647380D01*
X114795357Y-72647380D01*
X114658452Y-72695000D01*
X114575119Y-72790238D01*
X114539404Y-72885476D01*
X114515595Y-73075952D01*
X114533452Y-73218809D01*
X114604880Y-73409285D01*
X114664404Y-73504523D01*
X114771547Y-73599761D01*
X114920357Y-73647380D01*
X115158452Y-73647380D01*
X113771547Y-73599761D02*
X113872738Y-73647380D01*
X114063214Y-73647380D01*
X114152500Y-73599761D01*
X114188214Y-73504523D01*
X114140595Y-73123571D01*
X114081071Y-73028333D01*
X113979880Y-72980714D01*
X113789404Y-72980714D01*
X113700119Y-73028333D01*
X113664404Y-73123571D01*
X113676309Y-73218809D01*
X114164404Y-73314047D01*
X113342976Y-73599761D02*
X113253690Y-73647380D01*
X113063214Y-73647380D01*
X112962023Y-73599761D01*
X112902500Y-73504523D01*
X112896547Y-73456904D01*
X112932261Y-73361666D01*
X113021547Y-73314047D01*
X113164404Y-73314047D01*
X113253690Y-73266428D01*
X113289404Y-73171190D01*
X113283452Y-73123571D01*
X113223928Y-73028333D01*
X113122738Y-72980714D01*
X112979880Y-72980714D01*
X112890595Y-73028333D01*
X112491785Y-73647380D02*
X112408452Y-72980714D01*
X112366785Y-72647380D02*
X112420357Y-72695000D01*
X112378690Y-72742619D01*
X112325119Y-72695000D01*
X112366785Y-72647380D01*
X112378690Y-72742619D01*
X111503690Y-72980714D02*
X111604880Y-73790238D01*
X111664404Y-73885476D01*
X111717976Y-73933095D01*
X111819166Y-73980714D01*
X111962023Y-73980714D01*
X112051309Y-73933095D01*
X111581071Y-73599761D02*
X111682261Y-73647380D01*
X111872738Y-73647380D01*
X111962023Y-73599761D01*
X112003690Y-73552142D01*
X112039404Y-73456904D01*
X112003690Y-73171190D01*
X111944166Y-73075952D01*
X111890595Y-73028333D01*
X111789404Y-72980714D01*
X111598928Y-72980714D01*
X111509642Y-73028333D01*
X111027500Y-72980714D02*
X111110833Y-73647380D01*
X111039404Y-73075952D02*
X110985833Y-73028333D01*
X110884642Y-72980714D01*
X110741785Y-72980714D01*
X110652500Y-73028333D01*
X110616785Y-73123571D01*
X110682261Y-73647380D01*
X109819166Y-73599761D02*
X109920357Y-73647380D01*
X110110833Y-73647380D01*
X110200119Y-73599761D01*
X110235833Y-73504523D01*
X110188214Y-73123571D01*
X110128690Y-73028333D01*
X110027500Y-72980714D01*
X109837023Y-72980714D01*
X109747738Y-73028333D01*
X109712023Y-73123571D01*
X109723928Y-73218809D01*
X110212023Y-73314047D01*
X108920357Y-73647380D02*
X108795357Y-72647380D01*
X108914404Y-73599761D02*
X109015595Y-73647380D01*
X109206071Y-73647380D01*
X109295357Y-73599761D01*
X109337023Y-73552142D01*
X109372738Y-73456904D01*
X109337023Y-73171190D01*
X109277500Y-73075952D01*
X109223928Y-73028333D01*
X109122738Y-72980714D01*
X108932261Y-72980714D01*
X108842976Y-73028333D01*
X115158452Y-75257380D02*
X115033452Y-74257380D01*
X115081071Y-74638333D02*
X114979880Y-74590714D01*
X114789404Y-74590714D01*
X114700119Y-74638333D01*
X114658452Y-74685952D01*
X114622738Y-74781190D01*
X114658452Y-75066904D01*
X114717976Y-75162142D01*
X114771547Y-75209761D01*
X114872738Y-75257380D01*
X115063214Y-75257380D01*
X115152500Y-75209761D01*
X114265595Y-74590714D02*
X114110833Y-75257380D01*
X113789404Y-74590714D02*
X114110833Y-75257380D01*
X114235833Y-75495476D01*
X114289404Y-75543095D01*
X114390595Y-75590714D01*
X112331071Y-74733571D02*
X112194166Y-74781190D01*
X112152500Y-74828809D01*
X112116785Y-74924047D01*
X112134642Y-75066904D01*
X112194166Y-75162142D01*
X112247738Y-75209761D01*
X112348928Y-75257380D01*
X112729880Y-75257380D01*
X112604880Y-74257380D01*
X112271547Y-74257380D01*
X112182261Y-74305000D01*
X112140595Y-74352619D01*
X112104880Y-74447857D01*
X112116785Y-74543095D01*
X112176309Y-74638333D01*
X112229880Y-74685952D01*
X112331071Y-74733571D01*
X112664404Y-74733571D01*
X111301309Y-75257380D02*
X111235833Y-74733571D01*
X111271547Y-74638333D01*
X111360833Y-74590714D01*
X111551309Y-74590714D01*
X111652500Y-74638333D01*
X111295357Y-75209761D02*
X111396547Y-75257380D01*
X111634642Y-75257380D01*
X111723928Y-75209761D01*
X111759642Y-75114523D01*
X111747738Y-75019285D01*
X111688214Y-74924047D01*
X111587023Y-74876428D01*
X111348928Y-74876428D01*
X111247738Y-74828809D01*
X110825119Y-75257380D02*
X110741785Y-74590714D01*
X110765595Y-74781190D02*
X110706071Y-74685952D01*
X110652500Y-74638333D01*
X110551309Y-74590714D01*
X110456071Y-74590714D01*
X110265595Y-74590714D02*
X109884642Y-74590714D01*
X110081071Y-74257380D02*
X110188214Y-75114523D01*
X110152500Y-75209761D01*
X110063214Y-75257380D01*
X109967976Y-75257380D01*
%TO.C,R10*%
X128442857Y-81852380D02*
X128776190Y-81376190D01*
X129014285Y-81852380D02*
X129014285Y-80852380D01*
X128633333Y-80852380D01*
X128538095Y-80900000D01*
X128490476Y-80947619D01*
X128442857Y-81042857D01*
X128442857Y-81185714D01*
X128490476Y-81280952D01*
X128538095Y-81328571D01*
X128633333Y-81376190D01*
X129014285Y-81376190D01*
X127490476Y-81852380D02*
X128061904Y-81852380D01*
X127776190Y-81852380D02*
X127776190Y-80852380D01*
X127871428Y-80995238D01*
X127966666Y-81090476D01*
X128061904Y-81138095D01*
X126871428Y-80852380D02*
X126776190Y-80852380D01*
X126680952Y-80900000D01*
X126633333Y-80947619D01*
X126585714Y-81042857D01*
X126538095Y-81233333D01*
X126538095Y-81471428D01*
X126585714Y-81661904D01*
X126633333Y-81757142D01*
X126680952Y-81804761D01*
X126776190Y-81852380D01*
X126871428Y-81852380D01*
X126966666Y-81804761D01*
X127014285Y-81757142D01*
X127061904Y-81661904D01*
X127109523Y-81471428D01*
X127109523Y-81233333D01*
X127061904Y-81042857D01*
X127014285Y-80947619D01*
X126966666Y-80900000D01*
X126871428Y-80852380D01*
%TO.C,C7*%
X90416666Y-94357142D02*
X90464285Y-94404761D01*
X90607142Y-94452380D01*
X90702380Y-94452380D01*
X90845238Y-94404761D01*
X90940476Y-94309523D01*
X90988095Y-94214285D01*
X91035714Y-94023809D01*
X91035714Y-93880952D01*
X90988095Y-93690476D01*
X90940476Y-93595238D01*
X90845238Y-93500000D01*
X90702380Y-93452380D01*
X90607142Y-93452380D01*
X90464285Y-93500000D01*
X90416666Y-93547619D01*
X90083333Y-93452380D02*
X89416666Y-93452380D01*
X89845238Y-94452380D01*
%TO.C,C8*%
X90166666Y-97607142D02*
X90214285Y-97654761D01*
X90357142Y-97702380D01*
X90452380Y-97702380D01*
X90595238Y-97654761D01*
X90690476Y-97559523D01*
X90738095Y-97464285D01*
X90785714Y-97273809D01*
X90785714Y-97130952D01*
X90738095Y-96940476D01*
X90690476Y-96845238D01*
X90595238Y-96750000D01*
X90452380Y-96702380D01*
X90357142Y-96702380D01*
X90214285Y-96750000D01*
X90166666Y-96797619D01*
X89595238Y-97130952D02*
X89690476Y-97083333D01*
X89738095Y-97035714D01*
X89785714Y-96940476D01*
X89785714Y-96892857D01*
X89738095Y-96797619D01*
X89690476Y-96750000D01*
X89595238Y-96702380D01*
X89404761Y-96702380D01*
X89309523Y-96750000D01*
X89261904Y-96797619D01*
X89214285Y-96892857D01*
X89214285Y-96940476D01*
X89261904Y-97035714D01*
X89309523Y-97083333D01*
X89404761Y-97130952D01*
X89595238Y-97130952D01*
X89690476Y-97178571D01*
X89738095Y-97226190D01*
X89785714Y-97321428D01*
X89785714Y-97511904D01*
X89738095Y-97607142D01*
X89690476Y-97654761D01*
X89595238Y-97702380D01*
X89404761Y-97702380D01*
X89309523Y-97654761D01*
X89261904Y-97607142D01*
X89214285Y-97511904D01*
X89214285Y-97321428D01*
X89261904Y-97226190D01*
X89309523Y-97178571D01*
X89404761Y-97130952D01*
%TO.C,Q5*%
X120345238Y-70297619D02*
X120440476Y-70250000D01*
X120535714Y-70154761D01*
X120678571Y-70011904D01*
X120773809Y-69964285D01*
X120869047Y-69964285D01*
X120821428Y-70202380D02*
X120916666Y-70154761D01*
X121011904Y-70059523D01*
X121059523Y-69869047D01*
X121059523Y-69535714D01*
X121011904Y-69345238D01*
X120916666Y-69250000D01*
X120821428Y-69202380D01*
X120630952Y-69202380D01*
X120535714Y-69250000D01*
X120440476Y-69345238D01*
X120392857Y-69535714D01*
X120392857Y-69869047D01*
X120440476Y-70059523D01*
X120535714Y-70154761D01*
X120630952Y-70202380D01*
X120821428Y-70202380D01*
X119488095Y-69202380D02*
X119964285Y-69202380D01*
X120011904Y-69678571D01*
X119964285Y-69630952D01*
X119869047Y-69583333D01*
X119630952Y-69583333D01*
X119535714Y-69630952D01*
X119488095Y-69678571D01*
X119440476Y-69773809D01*
X119440476Y-70011904D01*
X119488095Y-70107142D01*
X119535714Y-70154761D01*
X119630952Y-70202380D01*
X119869047Y-70202380D01*
X119964285Y-70154761D01*
X120011904Y-70107142D01*
%TO.C,C6*%
X90416666Y-92857142D02*
X90464285Y-92904761D01*
X90607142Y-92952380D01*
X90702380Y-92952380D01*
X90845238Y-92904761D01*
X90940476Y-92809523D01*
X90988095Y-92714285D01*
X91035714Y-92523809D01*
X91035714Y-92380952D01*
X90988095Y-92190476D01*
X90940476Y-92095238D01*
X90845238Y-92000000D01*
X90702380Y-91952380D01*
X90607142Y-91952380D01*
X90464285Y-92000000D01*
X90416666Y-92047619D01*
X89559523Y-91952380D02*
X89750000Y-91952380D01*
X89845238Y-92000000D01*
X89892857Y-92047619D01*
X89988095Y-92190476D01*
X90035714Y-92380952D01*
X90035714Y-92761904D01*
X89988095Y-92857142D01*
X89940476Y-92904761D01*
X89845238Y-92952380D01*
X89654761Y-92952380D01*
X89559523Y-92904761D01*
X89511904Y-92857142D01*
X89464285Y-92761904D01*
X89464285Y-92523809D01*
X89511904Y-92428571D01*
X89559523Y-92380952D01*
X89654761Y-92333333D01*
X89845238Y-92333333D01*
X89940476Y-92380952D01*
X89988095Y-92428571D01*
X90035714Y-92523809D01*
%TO.C,Q1*%
X90695238Y-82247619D02*
X90790476Y-82200000D01*
X90885714Y-82104761D01*
X91028571Y-81961904D01*
X91123809Y-81914285D01*
X91219047Y-81914285D01*
X91171428Y-82152380D02*
X91266666Y-82104761D01*
X91361904Y-82009523D01*
X91409523Y-81819047D01*
X91409523Y-81485714D01*
X91361904Y-81295238D01*
X91266666Y-81200000D01*
X91171428Y-81152380D01*
X90980952Y-81152380D01*
X90885714Y-81200000D01*
X90790476Y-81295238D01*
X90742857Y-81485714D01*
X90742857Y-81819047D01*
X90790476Y-82009523D01*
X90885714Y-82104761D01*
X90980952Y-82152380D01*
X91171428Y-82152380D01*
X89790476Y-82152380D02*
X90361904Y-82152380D01*
X90076190Y-82152380D02*
X90076190Y-81152380D01*
X90171428Y-81295238D01*
X90266666Y-81390476D01*
X90361904Y-81438095D01*
%TO.C,C17*%
X128442857Y-84587142D02*
X128490476Y-84634761D01*
X128633333Y-84682380D01*
X128728571Y-84682380D01*
X128871428Y-84634761D01*
X128966666Y-84539523D01*
X129014285Y-84444285D01*
X129061904Y-84253809D01*
X129061904Y-84110952D01*
X129014285Y-83920476D01*
X128966666Y-83825238D01*
X128871428Y-83730000D01*
X128728571Y-83682380D01*
X128633333Y-83682380D01*
X128490476Y-83730000D01*
X128442857Y-83777619D01*
X127490476Y-84682380D02*
X128061904Y-84682380D01*
X127776190Y-84682380D02*
X127776190Y-83682380D01*
X127871428Y-83825238D01*
X127966666Y-83920476D01*
X128061904Y-83968095D01*
X127157142Y-83682380D02*
X126490476Y-83682380D01*
X126919047Y-84682380D01*
%TO.C,Q2*%
X97847619Y-77204761D02*
X97800000Y-77109523D01*
X97704761Y-77014285D01*
X97561904Y-76871428D01*
X97514285Y-76776190D01*
X97514285Y-76680952D01*
X97752380Y-76728571D02*
X97704761Y-76633333D01*
X97609523Y-76538095D01*
X97419047Y-76490476D01*
X97085714Y-76490476D01*
X96895238Y-76538095D01*
X96800000Y-76633333D01*
X96752380Y-76728571D01*
X96752380Y-76919047D01*
X96800000Y-77014285D01*
X96895238Y-77109523D01*
X97085714Y-77157142D01*
X97419047Y-77157142D01*
X97609523Y-77109523D01*
X97704761Y-77014285D01*
X97752380Y-76919047D01*
X97752380Y-76728571D01*
X96847619Y-77538095D02*
X96800000Y-77585714D01*
X96752380Y-77680952D01*
X96752380Y-77919047D01*
X96800000Y-78014285D01*
X96847619Y-78061904D01*
X96942857Y-78109523D01*
X97038095Y-78109523D01*
X97180952Y-78061904D01*
X97752380Y-77490476D01*
X97752380Y-78109523D01*
%TO.C,C15*%
X123742857Y-87057142D02*
X123790476Y-87104761D01*
X123933333Y-87152380D01*
X124028571Y-87152380D01*
X124171428Y-87104761D01*
X124266666Y-87009523D01*
X124314285Y-86914285D01*
X124361904Y-86723809D01*
X124361904Y-86580952D01*
X124314285Y-86390476D01*
X124266666Y-86295238D01*
X124171428Y-86200000D01*
X124028571Y-86152380D01*
X123933333Y-86152380D01*
X123790476Y-86200000D01*
X123742857Y-86247619D01*
X122790476Y-87152380D02*
X123361904Y-87152380D01*
X123076190Y-87152380D02*
X123076190Y-86152380D01*
X123171428Y-86295238D01*
X123266666Y-86390476D01*
X123361904Y-86438095D01*
X121885714Y-86152380D02*
X122361904Y-86152380D01*
X122409523Y-86628571D01*
X122361904Y-86580952D01*
X122266666Y-86533333D01*
X122028571Y-86533333D01*
X121933333Y-86580952D01*
X121885714Y-86628571D01*
X121838095Y-86723809D01*
X121838095Y-86961904D01*
X121885714Y-87057142D01*
X121933333Y-87104761D01*
X122028571Y-87152380D01*
X122266666Y-87152380D01*
X122361904Y-87104761D01*
X122409523Y-87057142D01*
%TO.C,C3*%
X123887142Y-101233333D02*
X123934761Y-101185714D01*
X123982380Y-101042857D01*
X123982380Y-100947619D01*
X123934761Y-100804761D01*
X123839523Y-100709523D01*
X123744285Y-100661904D01*
X123553809Y-100614285D01*
X123410952Y-100614285D01*
X123220476Y-100661904D01*
X123125238Y-100709523D01*
X123030000Y-100804761D01*
X122982380Y-100947619D01*
X122982380Y-101042857D01*
X123030000Y-101185714D01*
X123077619Y-101233333D01*
X122982380Y-101566666D02*
X122982380Y-102185714D01*
X123363333Y-101852380D01*
X123363333Y-101995238D01*
X123410952Y-102090476D01*
X123458571Y-102138095D01*
X123553809Y-102185714D01*
X123791904Y-102185714D01*
X123887142Y-102138095D01*
X123934761Y-102090476D01*
X123982380Y-101995238D01*
X123982380Y-101709523D01*
X123934761Y-101614285D01*
X123887142Y-101566666D01*
%TO.C,R17*%
X82542857Y-85382380D02*
X82876190Y-84906190D01*
X83114285Y-85382380D02*
X83114285Y-84382380D01*
X82733333Y-84382380D01*
X82638095Y-84430000D01*
X82590476Y-84477619D01*
X82542857Y-84572857D01*
X82542857Y-84715714D01*
X82590476Y-84810952D01*
X82638095Y-84858571D01*
X82733333Y-84906190D01*
X83114285Y-84906190D01*
X81590476Y-85382380D02*
X82161904Y-85382380D01*
X81876190Y-85382380D02*
X81876190Y-84382380D01*
X81971428Y-84525238D01*
X82066666Y-84620476D01*
X82161904Y-84668095D01*
X81257142Y-84382380D02*
X80590476Y-84382380D01*
X81019047Y-85382380D01*
%TO.C,C105*%
X108382142Y-85930952D02*
X108429761Y-85883333D01*
X108477380Y-85740476D01*
X108477380Y-85645238D01*
X108429761Y-85502380D01*
X108334523Y-85407142D01*
X108239285Y-85359523D01*
X108048809Y-85311904D01*
X107905952Y-85311904D01*
X107715476Y-85359523D01*
X107620238Y-85407142D01*
X107525000Y-85502380D01*
X107477380Y-85645238D01*
X107477380Y-85740476D01*
X107525000Y-85883333D01*
X107572619Y-85930952D01*
X108477380Y-86883333D02*
X108477380Y-86311904D01*
X108477380Y-86597619D02*
X107477380Y-86597619D01*
X107620238Y-86502380D01*
X107715476Y-86407142D01*
X107763095Y-86311904D01*
X107477380Y-87502380D02*
X107477380Y-87597619D01*
X107525000Y-87692857D01*
X107572619Y-87740476D01*
X107667857Y-87788095D01*
X107858333Y-87835714D01*
X108096428Y-87835714D01*
X108286904Y-87788095D01*
X108382142Y-87740476D01*
X108429761Y-87692857D01*
X108477380Y-87597619D01*
X108477380Y-87502380D01*
X108429761Y-87407142D01*
X108382142Y-87359523D01*
X108286904Y-87311904D01*
X108096428Y-87264285D01*
X107858333Y-87264285D01*
X107667857Y-87311904D01*
X107572619Y-87359523D01*
X107525000Y-87407142D01*
X107477380Y-87502380D01*
X107477380Y-88740476D02*
X107477380Y-88264285D01*
X107953571Y-88216666D01*
X107905952Y-88264285D01*
X107858333Y-88359523D01*
X107858333Y-88597619D01*
X107905952Y-88692857D01*
X107953571Y-88740476D01*
X108048809Y-88788095D01*
X108286904Y-88788095D01*
X108382142Y-88740476D01*
X108429761Y-88692857D01*
X108477380Y-88597619D01*
X108477380Y-88359523D01*
X108429761Y-88264285D01*
X108382142Y-88216666D01*
%TO.C,R11*%
X118842857Y-81652380D02*
X119176190Y-81176190D01*
X119414285Y-81652380D02*
X119414285Y-80652380D01*
X119033333Y-80652380D01*
X118938095Y-80700000D01*
X118890476Y-80747619D01*
X118842857Y-80842857D01*
X118842857Y-80985714D01*
X118890476Y-81080952D01*
X118938095Y-81128571D01*
X119033333Y-81176190D01*
X119414285Y-81176190D01*
X117890476Y-81652380D02*
X118461904Y-81652380D01*
X118176190Y-81652380D02*
X118176190Y-80652380D01*
X118271428Y-80795238D01*
X118366666Y-80890476D01*
X118461904Y-80938095D01*
X116938095Y-81652380D02*
X117509523Y-81652380D01*
X117223809Y-81652380D02*
X117223809Y-80652380D01*
X117319047Y-80795238D01*
X117414285Y-80890476D01*
X117509523Y-80938095D01*
%TO.C,C19*%
X111142857Y-88357142D02*
X111190476Y-88404761D01*
X111333333Y-88452380D01*
X111428571Y-88452380D01*
X111571428Y-88404761D01*
X111666666Y-88309523D01*
X111714285Y-88214285D01*
X111761904Y-88023809D01*
X111761904Y-87880952D01*
X111714285Y-87690476D01*
X111666666Y-87595238D01*
X111571428Y-87500000D01*
X111428571Y-87452380D01*
X111333333Y-87452380D01*
X111190476Y-87500000D01*
X111142857Y-87547619D01*
X110190476Y-88452380D02*
X110761904Y-88452380D01*
X110476190Y-88452380D02*
X110476190Y-87452380D01*
X110571428Y-87595238D01*
X110666666Y-87690476D01*
X110761904Y-87738095D01*
X109714285Y-88452380D02*
X109523809Y-88452380D01*
X109428571Y-88404761D01*
X109380952Y-88357142D01*
X109285714Y-88214285D01*
X109238095Y-88023809D01*
X109238095Y-87642857D01*
X109285714Y-87547619D01*
X109333333Y-87500000D01*
X109428571Y-87452380D01*
X109619047Y-87452380D01*
X109714285Y-87500000D01*
X109761904Y-87547619D01*
X109809523Y-87642857D01*
X109809523Y-87880952D01*
X109761904Y-87976190D01*
X109714285Y-88023809D01*
X109619047Y-88071428D01*
X109428571Y-88071428D01*
X109333333Y-88023809D01*
X109285714Y-87976190D01*
X109238095Y-87880952D01*
%TO.C,R1*%
X122266666Y-83452380D02*
X122600000Y-82976190D01*
X122838095Y-83452380D02*
X122838095Y-82452380D01*
X122457142Y-82452380D01*
X122361904Y-82500000D01*
X122314285Y-82547619D01*
X122266666Y-82642857D01*
X122266666Y-82785714D01*
X122314285Y-82880952D01*
X122361904Y-82928571D01*
X122457142Y-82976190D01*
X122838095Y-82976190D01*
X121314285Y-83452380D02*
X121885714Y-83452380D01*
X121600000Y-83452380D02*
X121600000Y-82452380D01*
X121695238Y-82595238D01*
X121790476Y-82690476D01*
X121885714Y-82738095D01*
%TO.C,R15*%
X128882380Y-95257142D02*
X128406190Y-94923809D01*
X128882380Y-94685714D02*
X127882380Y-94685714D01*
X127882380Y-95066666D01*
X127930000Y-95161904D01*
X127977619Y-95209523D01*
X128072857Y-95257142D01*
X128215714Y-95257142D01*
X128310952Y-95209523D01*
X128358571Y-95161904D01*
X128406190Y-95066666D01*
X128406190Y-94685714D01*
X128882380Y-96209523D02*
X128882380Y-95638095D01*
X128882380Y-95923809D02*
X127882380Y-95923809D01*
X128025238Y-95828571D01*
X128120476Y-95733333D01*
X128168095Y-95638095D01*
X127882380Y-97114285D02*
X127882380Y-96638095D01*
X128358571Y-96590476D01*
X128310952Y-96638095D01*
X128263333Y-96733333D01*
X128263333Y-96971428D01*
X128310952Y-97066666D01*
X128358571Y-97114285D01*
X128453809Y-97161904D01*
X128691904Y-97161904D01*
X128787142Y-97114285D01*
X128834761Y-97066666D01*
X128882380Y-96971428D01*
X128882380Y-96733333D01*
X128834761Y-96638095D01*
X128787142Y-96590476D01*
%TO.C,Q4*%
X109345238Y-92047619D02*
X109440476Y-92000000D01*
X109535714Y-91904761D01*
X109678571Y-91761904D01*
X109773809Y-91714285D01*
X109869047Y-91714285D01*
X109821428Y-91952380D02*
X109916666Y-91904761D01*
X110011904Y-91809523D01*
X110059523Y-91619047D01*
X110059523Y-91285714D01*
X110011904Y-91095238D01*
X109916666Y-91000000D01*
X109821428Y-90952380D01*
X109630952Y-90952380D01*
X109535714Y-91000000D01*
X109440476Y-91095238D01*
X109392857Y-91285714D01*
X109392857Y-91619047D01*
X109440476Y-91809523D01*
X109535714Y-91904761D01*
X109630952Y-91952380D01*
X109821428Y-91952380D01*
X108535714Y-91285714D02*
X108535714Y-91952380D01*
X108773809Y-90904761D02*
X109011904Y-91619047D01*
X108392857Y-91619047D01*
%TO.C,C13*%
X106882142Y-85907142D02*
X106929761Y-85859523D01*
X106977380Y-85716666D01*
X106977380Y-85621428D01*
X106929761Y-85478571D01*
X106834523Y-85383333D01*
X106739285Y-85335714D01*
X106548809Y-85288095D01*
X106405952Y-85288095D01*
X106215476Y-85335714D01*
X106120238Y-85383333D01*
X106025000Y-85478571D01*
X105977380Y-85621428D01*
X105977380Y-85716666D01*
X106025000Y-85859523D01*
X106072619Y-85907142D01*
X106977380Y-86859523D02*
X106977380Y-86288095D01*
X106977380Y-86573809D02*
X105977380Y-86573809D01*
X106120238Y-86478571D01*
X106215476Y-86383333D01*
X106263095Y-86288095D01*
X105977380Y-87192857D02*
X105977380Y-87811904D01*
X106358333Y-87478571D01*
X106358333Y-87621428D01*
X106405952Y-87716666D01*
X106453571Y-87764285D01*
X106548809Y-87811904D01*
X106786904Y-87811904D01*
X106882142Y-87764285D01*
X106929761Y-87716666D01*
X106977380Y-87621428D01*
X106977380Y-87335714D01*
X106929761Y-87240476D01*
X106882142Y-87192857D01*
%TO.C,C16*%
X118867857Y-84587142D02*
X118915476Y-84634761D01*
X119058333Y-84682380D01*
X119153571Y-84682380D01*
X119296428Y-84634761D01*
X119391666Y-84539523D01*
X119439285Y-84444285D01*
X119486904Y-84253809D01*
X119486904Y-84110952D01*
X119439285Y-83920476D01*
X119391666Y-83825238D01*
X119296428Y-83730000D01*
X119153571Y-83682380D01*
X119058333Y-83682380D01*
X118915476Y-83730000D01*
X118867857Y-83777619D01*
X117915476Y-84682380D02*
X118486904Y-84682380D01*
X118201190Y-84682380D02*
X118201190Y-83682380D01*
X118296428Y-83825238D01*
X118391666Y-83920476D01*
X118486904Y-83968095D01*
X117058333Y-83682380D02*
X117248809Y-83682380D01*
X117344047Y-83730000D01*
X117391666Y-83777619D01*
X117486904Y-83920476D01*
X117534523Y-84110952D01*
X117534523Y-84491904D01*
X117486904Y-84587142D01*
X117439285Y-84634761D01*
X117344047Y-84682380D01*
X117153571Y-84682380D01*
X117058333Y-84634761D01*
X117010714Y-84587142D01*
X116963095Y-84491904D01*
X116963095Y-84253809D01*
X117010714Y-84158571D01*
X117058333Y-84110952D01*
X117153571Y-84063333D01*
X117344047Y-84063333D01*
X117439285Y-84110952D01*
X117486904Y-84158571D01*
X117534523Y-84253809D01*
%TO.C,R6*%
X112416666Y-92952380D02*
X112750000Y-92476190D01*
X112988095Y-92952380D02*
X112988095Y-91952380D01*
X112607142Y-91952380D01*
X112511904Y-92000000D01*
X112464285Y-92047619D01*
X112416666Y-92142857D01*
X112416666Y-92285714D01*
X112464285Y-92380952D01*
X112511904Y-92428571D01*
X112607142Y-92476190D01*
X112988095Y-92476190D01*
X111559523Y-91952380D02*
X111750000Y-91952380D01*
X111845238Y-92000000D01*
X111892857Y-92047619D01*
X111988095Y-92190476D01*
X112035714Y-92380952D01*
X112035714Y-92761904D01*
X111988095Y-92857142D01*
X111940476Y-92904761D01*
X111845238Y-92952380D01*
X111654761Y-92952380D01*
X111559523Y-92904761D01*
X111511904Y-92857142D01*
X111464285Y-92761904D01*
X111464285Y-92523809D01*
X111511904Y-92428571D01*
X111559523Y-92380952D01*
X111654761Y-92333333D01*
X111845238Y-92333333D01*
X111940476Y-92380952D01*
X111988095Y-92428571D01*
X112035714Y-92523809D01*
%TO.C,C1*%
X115491666Y-93627142D02*
X115539285Y-93674761D01*
X115682142Y-93722380D01*
X115777380Y-93722380D01*
X115920238Y-93674761D01*
X116015476Y-93579523D01*
X116063095Y-93484285D01*
X116110714Y-93293809D01*
X116110714Y-93150952D01*
X116063095Y-92960476D01*
X116015476Y-92865238D01*
X115920238Y-92770000D01*
X115777380Y-92722380D01*
X115682142Y-92722380D01*
X115539285Y-92770000D01*
X115491666Y-92817619D01*
X114539285Y-93722380D02*
X115110714Y-93722380D01*
X114825000Y-93722380D02*
X114825000Y-92722380D01*
X114920238Y-92865238D01*
X115015476Y-92960476D01*
X115110714Y-93008095D01*
%TO.C,U4*%
X117761904Y-102702380D02*
X117761904Y-103511904D01*
X117714285Y-103607142D01*
X117666666Y-103654761D01*
X117571428Y-103702380D01*
X117380952Y-103702380D01*
X117285714Y-103654761D01*
X117238095Y-103607142D01*
X117190476Y-103511904D01*
X117190476Y-102702380D01*
X116285714Y-103035714D02*
X116285714Y-103702380D01*
X116523809Y-102654761D02*
X116761904Y-103369047D01*
X116142857Y-103369047D01*
%TO.C,R7*%
X124066666Y-83452380D02*
X124400000Y-82976190D01*
X124638095Y-83452380D02*
X124638095Y-82452380D01*
X124257142Y-82452380D01*
X124161904Y-82500000D01*
X124114285Y-82547619D01*
X124066666Y-82642857D01*
X124066666Y-82785714D01*
X124114285Y-82880952D01*
X124161904Y-82928571D01*
X124257142Y-82976190D01*
X124638095Y-82976190D01*
X123733333Y-82452380D02*
X123066666Y-82452380D01*
X123495238Y-83452380D01*
%TO.C,C9*%
X90166666Y-96107142D02*
X90214285Y-96154761D01*
X90357142Y-96202380D01*
X90452380Y-96202380D01*
X90595238Y-96154761D01*
X90690476Y-96059523D01*
X90738095Y-95964285D01*
X90785714Y-95773809D01*
X90785714Y-95630952D01*
X90738095Y-95440476D01*
X90690476Y-95345238D01*
X90595238Y-95250000D01*
X90452380Y-95202380D01*
X90357142Y-95202380D01*
X90214285Y-95250000D01*
X90166666Y-95297619D01*
X89690476Y-96202380D02*
X89500000Y-96202380D01*
X89404761Y-96154761D01*
X89357142Y-96107142D01*
X89261904Y-95964285D01*
X89214285Y-95773809D01*
X89214285Y-95392857D01*
X89261904Y-95297619D01*
X89309523Y-95250000D01*
X89404761Y-95202380D01*
X89595238Y-95202380D01*
X89690476Y-95250000D01*
X89738095Y-95297619D01*
X89785714Y-95392857D01*
X89785714Y-95630952D01*
X89738095Y-95726190D01*
X89690476Y-95773809D01*
X89595238Y-95821428D01*
X89404761Y-95821428D01*
X89309523Y-95773809D01*
X89261904Y-95726190D01*
X89214285Y-95630952D01*
%TO.C,C11*%
X111854868Y-77332142D02*
X111902487Y-77379761D01*
X112045344Y-77427380D01*
X112140582Y-77427380D01*
X112283439Y-77379761D01*
X112378677Y-77284523D01*
X112426296Y-77189285D01*
X112473915Y-76998809D01*
X112473915Y-76855952D01*
X112426296Y-76665476D01*
X112378677Y-76570238D01*
X112283439Y-76475000D01*
X112140582Y-76427380D01*
X112045344Y-76427380D01*
X111902487Y-76475000D01*
X111854868Y-76522619D01*
X110902487Y-77427380D02*
X111473915Y-77427380D01*
X111188201Y-77427380D02*
X111188201Y-76427380D01*
X111283439Y-76570238D01*
X111378677Y-76665476D01*
X111473915Y-76713095D01*
X109950106Y-77427380D02*
X110521534Y-77427380D01*
X110235820Y-77427380D02*
X110235820Y-76427380D01*
X110331058Y-76570238D01*
X110426296Y-76665476D01*
X110521534Y-76713095D01*
%TO.C,R16*%
X82542857Y-88482380D02*
X82876190Y-88006190D01*
X83114285Y-88482380D02*
X83114285Y-87482380D01*
X82733333Y-87482380D01*
X82638095Y-87530000D01*
X82590476Y-87577619D01*
X82542857Y-87672857D01*
X82542857Y-87815714D01*
X82590476Y-87910952D01*
X82638095Y-87958571D01*
X82733333Y-88006190D01*
X83114285Y-88006190D01*
X81590476Y-88482380D02*
X82161904Y-88482380D01*
X81876190Y-88482380D02*
X81876190Y-87482380D01*
X81971428Y-87625238D01*
X82066666Y-87720476D01*
X82161904Y-87768095D01*
X80733333Y-87482380D02*
X80923809Y-87482380D01*
X81019047Y-87530000D01*
X81066666Y-87577619D01*
X81161904Y-87720476D01*
X81209523Y-87910952D01*
X81209523Y-88291904D01*
X81161904Y-88387142D01*
X81114285Y-88434761D01*
X81019047Y-88482380D01*
X80828571Y-88482380D01*
X80733333Y-88434761D01*
X80685714Y-88387142D01*
X80638095Y-88291904D01*
X80638095Y-88053809D01*
X80685714Y-87958571D01*
X80733333Y-87910952D01*
X80828571Y-87863333D01*
X81019047Y-87863333D01*
X81114285Y-87910952D01*
X81161904Y-87958571D01*
X81209523Y-88053809D01*
%TO.C,Q6*%
X116595238Y-76547619D02*
X116690476Y-76500000D01*
X116785714Y-76404761D01*
X116928571Y-76261904D01*
X117023809Y-76214285D01*
X117119047Y-76214285D01*
X117071428Y-76452380D02*
X117166666Y-76404761D01*
X117261904Y-76309523D01*
X117309523Y-76119047D01*
X117309523Y-75785714D01*
X117261904Y-75595238D01*
X117166666Y-75500000D01*
X117071428Y-75452380D01*
X116880952Y-75452380D01*
X116785714Y-75500000D01*
X116690476Y-75595238D01*
X116642857Y-75785714D01*
X116642857Y-76119047D01*
X116690476Y-76309523D01*
X116785714Y-76404761D01*
X116880952Y-76452380D01*
X117071428Y-76452380D01*
X115785714Y-75452380D02*
X115976190Y-75452380D01*
X116071428Y-75500000D01*
X116119047Y-75547619D01*
X116214285Y-75690476D01*
X116261904Y-75880952D01*
X116261904Y-76261904D01*
X116214285Y-76357142D01*
X116166666Y-76404761D01*
X116071428Y-76452380D01*
X115880952Y-76452380D01*
X115785714Y-76404761D01*
X115738095Y-76357142D01*
X115690476Y-76261904D01*
X115690476Y-76023809D01*
X115738095Y-75928571D01*
X115785714Y-75880952D01*
X115880952Y-75833333D01*
X116071428Y-75833333D01*
X116166666Y-75880952D01*
X116214285Y-75928571D01*
X116261904Y-76023809D01*
%TO.C,U6*%
X110886904Y-81252380D02*
X110886904Y-82061904D01*
X110839285Y-82157142D01*
X110791666Y-82204761D01*
X110696428Y-82252380D01*
X110505952Y-82252380D01*
X110410714Y-82204761D01*
X110363095Y-82157142D01*
X110315476Y-82061904D01*
X110315476Y-81252380D01*
X109410714Y-81252380D02*
X109601190Y-81252380D01*
X109696428Y-81300000D01*
X109744047Y-81347619D01*
X109839285Y-81490476D01*
X109886904Y-81680952D01*
X109886904Y-82061904D01*
X109839285Y-82157142D01*
X109791666Y-82204761D01*
X109696428Y-82252380D01*
X109505952Y-82252380D01*
X109410714Y-82204761D01*
X109363095Y-82157142D01*
X109315476Y-82061904D01*
X109315476Y-81823809D01*
X109363095Y-81728571D01*
X109410714Y-81680952D01*
X109505952Y-81633333D01*
X109696428Y-81633333D01*
X109791666Y-81680952D01*
X109839285Y-81728571D01*
X109886904Y-81823809D01*
%TO.C,C20*%
X126842857Y-92527142D02*
X126890476Y-92574761D01*
X127033333Y-92622380D01*
X127128571Y-92622380D01*
X127271428Y-92574761D01*
X127366666Y-92479523D01*
X127414285Y-92384285D01*
X127461904Y-92193809D01*
X127461904Y-92050952D01*
X127414285Y-91860476D01*
X127366666Y-91765238D01*
X127271428Y-91670000D01*
X127128571Y-91622380D01*
X127033333Y-91622380D01*
X126890476Y-91670000D01*
X126842857Y-91717619D01*
X126461904Y-91717619D02*
X126414285Y-91670000D01*
X126319047Y-91622380D01*
X126080952Y-91622380D01*
X125985714Y-91670000D01*
X125938095Y-91717619D01*
X125890476Y-91812857D01*
X125890476Y-91908095D01*
X125938095Y-92050952D01*
X126509523Y-92622380D01*
X125890476Y-92622380D01*
X125271428Y-91622380D02*
X125176190Y-91622380D01*
X125080952Y-91670000D01*
X125033333Y-91717619D01*
X124985714Y-91812857D01*
X124938095Y-92003333D01*
X124938095Y-92241428D01*
X124985714Y-92431904D01*
X125033333Y-92527142D01*
X125080952Y-92574761D01*
X125176190Y-92622380D01*
X125271428Y-92622380D01*
X125366666Y-92574761D01*
X125414285Y-92527142D01*
X125461904Y-92431904D01*
X125509523Y-92241428D01*
X125509523Y-92003333D01*
X125461904Y-91812857D01*
X125414285Y-91717619D01*
X125366666Y-91670000D01*
X125271428Y-91622380D01*
%TO.C,C4*%
X123666666Y-99107142D02*
X123714285Y-99154761D01*
X123857142Y-99202380D01*
X123952380Y-99202380D01*
X124095238Y-99154761D01*
X124190476Y-99059523D01*
X124238095Y-98964285D01*
X124285714Y-98773809D01*
X124285714Y-98630952D01*
X124238095Y-98440476D01*
X124190476Y-98345238D01*
X124095238Y-98250000D01*
X123952380Y-98202380D01*
X123857142Y-98202380D01*
X123714285Y-98250000D01*
X123666666Y-98297619D01*
X122809523Y-98535714D02*
X122809523Y-99202380D01*
X123047619Y-98154761D02*
X123285714Y-98869047D01*
X122666666Y-98869047D01*
%TO.C,C18*%
X98892857Y-99357142D02*
X98940476Y-99404761D01*
X99083333Y-99452380D01*
X99178571Y-99452380D01*
X99321428Y-99404761D01*
X99416666Y-99309523D01*
X99464285Y-99214285D01*
X99511904Y-99023809D01*
X99511904Y-98880952D01*
X99464285Y-98690476D01*
X99416666Y-98595238D01*
X99321428Y-98500000D01*
X99178571Y-98452380D01*
X99083333Y-98452380D01*
X98940476Y-98500000D01*
X98892857Y-98547619D01*
X97940476Y-99452380D02*
X98511904Y-99452380D01*
X98226190Y-99452380D02*
X98226190Y-98452380D01*
X98321428Y-98595238D01*
X98416666Y-98690476D01*
X98511904Y-98738095D01*
X97369047Y-98880952D02*
X97464285Y-98833333D01*
X97511904Y-98785714D01*
X97559523Y-98690476D01*
X97559523Y-98642857D01*
X97511904Y-98547619D01*
X97464285Y-98500000D01*
X97369047Y-98452380D01*
X97178571Y-98452380D01*
X97083333Y-98500000D01*
X97035714Y-98547619D01*
X96988095Y-98642857D01*
X96988095Y-98690476D01*
X97035714Y-98785714D01*
X97083333Y-98833333D01*
X97178571Y-98880952D01*
X97369047Y-98880952D01*
X97464285Y-98928571D01*
X97511904Y-98976190D01*
X97559523Y-99071428D01*
X97559523Y-99261904D01*
X97511904Y-99357142D01*
X97464285Y-99404761D01*
X97369047Y-99452380D01*
X97178571Y-99452380D01*
X97083333Y-99404761D01*
X97035714Y-99357142D01*
X96988095Y-99261904D01*
X96988095Y-99071428D01*
X97035714Y-98976190D01*
X97083333Y-98928571D01*
X97178571Y-98880952D01*
%TO.C,R5*%
X102916666Y-94202380D02*
X103250000Y-93726190D01*
X103488095Y-94202380D02*
X103488095Y-93202380D01*
X103107142Y-93202380D01*
X103011904Y-93250000D01*
X102964285Y-93297619D01*
X102916666Y-93392857D01*
X102916666Y-93535714D01*
X102964285Y-93630952D01*
X103011904Y-93678571D01*
X103107142Y-93726190D01*
X103488095Y-93726190D01*
X102011904Y-93202380D02*
X102488095Y-93202380D01*
X102535714Y-93678571D01*
X102488095Y-93630952D01*
X102392857Y-93583333D01*
X102154761Y-93583333D01*
X102059523Y-93630952D01*
X102011904Y-93678571D01*
X101964285Y-93773809D01*
X101964285Y-94011904D01*
X102011904Y-94107142D01*
X102059523Y-94154761D01*
X102154761Y-94202380D01*
X102392857Y-94202380D01*
X102488095Y-94154761D01*
X102535714Y-94107142D01*
%TO.C,D1*%
X122838095Y-75752380D02*
X122838095Y-74752380D01*
X122600000Y-74752380D01*
X122457142Y-74800000D01*
X122361904Y-74895238D01*
X122314285Y-74990476D01*
X122266666Y-75180952D01*
X122266666Y-75323809D01*
X122314285Y-75514285D01*
X122361904Y-75609523D01*
X122457142Y-75704761D01*
X122600000Y-75752380D01*
X122838095Y-75752380D01*
X121314285Y-75752380D02*
X121885714Y-75752380D01*
X121600000Y-75752380D02*
X121600000Y-74752380D01*
X121695238Y-74895238D01*
X121790476Y-74990476D01*
X121885714Y-75038095D01*
%TO.C,R3*%
X96702380Y-97333333D02*
X96226190Y-97000000D01*
X96702380Y-96761904D02*
X95702380Y-96761904D01*
X95702380Y-97142857D01*
X95750000Y-97238095D01*
X95797619Y-97285714D01*
X95892857Y-97333333D01*
X96035714Y-97333333D01*
X96130952Y-97285714D01*
X96178571Y-97238095D01*
X96226190Y-97142857D01*
X96226190Y-96761904D01*
X95702380Y-97666666D02*
X95702380Y-98285714D01*
X96083333Y-97952380D01*
X96083333Y-98095238D01*
X96130952Y-98190476D01*
X96178571Y-98238095D01*
X96273809Y-98285714D01*
X96511904Y-98285714D01*
X96607142Y-98238095D01*
X96654761Y-98190476D01*
X96702380Y-98095238D01*
X96702380Y-97809523D01*
X96654761Y-97714285D01*
X96607142Y-97666666D01*
%TO.C,C10*%
X111854868Y-78832142D02*
X111902487Y-78879761D01*
X112045344Y-78927380D01*
X112140582Y-78927380D01*
X112283439Y-78879761D01*
X112378677Y-78784523D01*
X112426296Y-78689285D01*
X112473915Y-78498809D01*
X112473915Y-78355952D01*
X112426296Y-78165476D01*
X112378677Y-78070238D01*
X112283439Y-77975000D01*
X112140582Y-77927380D01*
X112045344Y-77927380D01*
X111902487Y-77975000D01*
X111854868Y-78022619D01*
X110902487Y-78927380D02*
X111473915Y-78927380D01*
X111188201Y-78927380D02*
X111188201Y-77927380D01*
X111283439Y-78070238D01*
X111378677Y-78165476D01*
X111473915Y-78213095D01*
X110283439Y-77927380D02*
X110188201Y-77927380D01*
X110092963Y-77975000D01*
X110045344Y-78022619D01*
X109997725Y-78117857D01*
X109950106Y-78308333D01*
X109950106Y-78546428D01*
X109997725Y-78736904D01*
X110045344Y-78832142D01*
X110092963Y-78879761D01*
X110188201Y-78927380D01*
X110283439Y-78927380D01*
X110378677Y-78879761D01*
X110426296Y-78832142D01*
X110473915Y-78736904D01*
X110521534Y-78546428D01*
X110521534Y-78308333D01*
X110473915Y-78117857D01*
X110426296Y-78022619D01*
X110378677Y-77975000D01*
X110283439Y-77927380D01*
%TO.C,R14*%
X124352380Y-95157142D02*
X123876190Y-94823809D01*
X124352380Y-94585714D02*
X123352380Y-94585714D01*
X123352380Y-94966666D01*
X123400000Y-95061904D01*
X123447619Y-95109523D01*
X123542857Y-95157142D01*
X123685714Y-95157142D01*
X123780952Y-95109523D01*
X123828571Y-95061904D01*
X123876190Y-94966666D01*
X123876190Y-94585714D01*
X124352380Y-96109523D02*
X124352380Y-95538095D01*
X124352380Y-95823809D02*
X123352380Y-95823809D01*
X123495238Y-95728571D01*
X123590476Y-95633333D01*
X123638095Y-95538095D01*
X123685714Y-96966666D02*
X124352380Y-96966666D01*
X123304761Y-96728571D02*
X124019047Y-96490476D01*
X124019047Y-97109523D01*
%TO.C,Q3*%
X100297619Y-74654761D02*
X100250000Y-74559523D01*
X100154761Y-74464285D01*
X100011904Y-74321428D01*
X99964285Y-74226190D01*
X99964285Y-74130952D01*
X100202380Y-74178571D02*
X100154761Y-74083333D01*
X100059523Y-73988095D01*
X99869047Y-73940476D01*
X99535714Y-73940476D01*
X99345238Y-73988095D01*
X99250000Y-74083333D01*
X99202380Y-74178571D01*
X99202380Y-74369047D01*
X99250000Y-74464285D01*
X99345238Y-74559523D01*
X99535714Y-74607142D01*
X99869047Y-74607142D01*
X100059523Y-74559523D01*
X100154761Y-74464285D01*
X100202380Y-74369047D01*
X100202380Y-74178571D01*
X99202380Y-74940476D02*
X99202380Y-75559523D01*
X99583333Y-75226190D01*
X99583333Y-75369047D01*
X99630952Y-75464285D01*
X99678571Y-75511904D01*
X99773809Y-75559523D01*
X100011904Y-75559523D01*
X100107142Y-75511904D01*
X100154761Y-75464285D01*
X100202380Y-75369047D01*
X100202380Y-75083333D01*
X100154761Y-74988095D01*
X100107142Y-74940476D01*
%TO.C,C12*%
X114012142Y-83007142D02*
X114059761Y-82959523D01*
X114107380Y-82816666D01*
X114107380Y-82721428D01*
X114059761Y-82578571D01*
X113964523Y-82483333D01*
X113869285Y-82435714D01*
X113678809Y-82388095D01*
X113535952Y-82388095D01*
X113345476Y-82435714D01*
X113250238Y-82483333D01*
X113155000Y-82578571D01*
X113107380Y-82721428D01*
X113107380Y-82816666D01*
X113155000Y-82959523D01*
X113202619Y-83007142D01*
X114107380Y-83959523D02*
X114107380Y-83388095D01*
X114107380Y-83673809D02*
X113107380Y-83673809D01*
X113250238Y-83578571D01*
X113345476Y-83483333D01*
X113393095Y-83388095D01*
X113202619Y-84340476D02*
X113155000Y-84388095D01*
X113107380Y-84483333D01*
X113107380Y-84721428D01*
X113155000Y-84816666D01*
X113202619Y-84864285D01*
X113297857Y-84911904D01*
X113393095Y-84911904D01*
X113535952Y-84864285D01*
X114107380Y-84292857D01*
X114107380Y-84911904D01*
%TO.C,R4*%
X91241666Y-90202380D02*
X91575000Y-89726190D01*
X91813095Y-90202380D02*
X91813095Y-89202380D01*
X91432142Y-89202380D01*
X91336904Y-89250000D01*
X91289285Y-89297619D01*
X91241666Y-89392857D01*
X91241666Y-89535714D01*
X91289285Y-89630952D01*
X91336904Y-89678571D01*
X91432142Y-89726190D01*
X91813095Y-89726190D01*
X90384523Y-89535714D02*
X90384523Y-90202380D01*
X90622619Y-89154761D02*
X90860714Y-89869047D01*
X90241666Y-89869047D01*
%TO.C,R12*%
X111142857Y-89952380D02*
X111476190Y-89476190D01*
X111714285Y-89952380D02*
X111714285Y-88952380D01*
X111333333Y-88952380D01*
X111238095Y-89000000D01*
X111190476Y-89047619D01*
X111142857Y-89142857D01*
X111142857Y-89285714D01*
X111190476Y-89380952D01*
X111238095Y-89428571D01*
X111333333Y-89476190D01*
X111714285Y-89476190D01*
X110190476Y-89952380D02*
X110761904Y-89952380D01*
X110476190Y-89952380D02*
X110476190Y-88952380D01*
X110571428Y-89095238D01*
X110666666Y-89190476D01*
X110761904Y-89238095D01*
X109809523Y-89047619D02*
X109761904Y-89000000D01*
X109666666Y-88952380D01*
X109428571Y-88952380D01*
X109333333Y-89000000D01*
X109285714Y-89047619D01*
X109238095Y-89142857D01*
X109238095Y-89238095D01*
X109285714Y-89380952D01*
X109857142Y-89952380D01*
X109238095Y-89952380D01*
%TO.C,R13*%
X113652380Y-77457142D02*
X113176190Y-77123809D01*
X113652380Y-76885714D02*
X112652380Y-76885714D01*
X112652380Y-77266666D01*
X112700000Y-77361904D01*
X112747619Y-77409523D01*
X112842857Y-77457142D01*
X112985714Y-77457142D01*
X113080952Y-77409523D01*
X113128571Y-77361904D01*
X113176190Y-77266666D01*
X113176190Y-76885714D01*
X113652380Y-78409523D02*
X113652380Y-77838095D01*
X113652380Y-78123809D02*
X112652380Y-78123809D01*
X112795238Y-78028571D01*
X112890476Y-77933333D01*
X112938095Y-77838095D01*
X112652380Y-78742857D02*
X112652380Y-79361904D01*
X113033333Y-79028571D01*
X113033333Y-79171428D01*
X113080952Y-79266666D01*
X113128571Y-79314285D01*
X113223809Y-79361904D01*
X113461904Y-79361904D01*
X113557142Y-79314285D01*
X113604761Y-79266666D01*
X113652380Y-79171428D01*
X113652380Y-78885714D01*
X113604761Y-78790476D01*
X113557142Y-78742857D01*
%TO.C,R9*%
X104666666Y-99452380D02*
X105000000Y-98976190D01*
X105238095Y-99452380D02*
X105238095Y-98452380D01*
X104857142Y-98452380D01*
X104761904Y-98500000D01*
X104714285Y-98547619D01*
X104666666Y-98642857D01*
X104666666Y-98785714D01*
X104714285Y-98880952D01*
X104761904Y-98928571D01*
X104857142Y-98976190D01*
X105238095Y-98976190D01*
X104190476Y-99452380D02*
X104000000Y-99452380D01*
X103904761Y-99404761D01*
X103857142Y-99357142D01*
X103761904Y-99214285D01*
X103714285Y-99023809D01*
X103714285Y-98642857D01*
X103761904Y-98547619D01*
X103809523Y-98500000D01*
X103904761Y-98452380D01*
X104095238Y-98452380D01*
X104190476Y-98500000D01*
X104238095Y-98547619D01*
X104285714Y-98642857D01*
X104285714Y-98880952D01*
X104238095Y-98976190D01*
X104190476Y-99023809D01*
X104095238Y-99071428D01*
X103904761Y-99071428D01*
X103809523Y-99023809D01*
X103761904Y-98976190D01*
X103714285Y-98880952D01*
%TO.C,R2*%
X101691666Y-99382380D02*
X102025000Y-98906190D01*
X102263095Y-99382380D02*
X102263095Y-98382380D01*
X101882142Y-98382380D01*
X101786904Y-98430000D01*
X101739285Y-98477619D01*
X101691666Y-98572857D01*
X101691666Y-98715714D01*
X101739285Y-98810952D01*
X101786904Y-98858571D01*
X101882142Y-98906190D01*
X102263095Y-98906190D01*
X101310714Y-98477619D02*
X101263095Y-98430000D01*
X101167857Y-98382380D01*
X100929761Y-98382380D01*
X100834523Y-98430000D01*
X100786904Y-98477619D01*
X100739285Y-98572857D01*
X100739285Y-98668095D01*
X100786904Y-98810952D01*
X101358333Y-99382380D01*
X100739285Y-99382380D01*
%TO.C,L1*%
X117566666Y-95352380D02*
X118042857Y-95352380D01*
X118042857Y-94352380D01*
X116709523Y-95352380D02*
X117280952Y-95352380D01*
X116995238Y-95352380D02*
X116995238Y-94352380D01*
X117090476Y-94495238D01*
X117185714Y-94590476D01*
X117280952Y-94638095D01*
%TO.C,U1*%
X103401522Y-85824026D02*
X103973942Y-86396446D01*
X104007614Y-86497461D01*
X104007614Y-86564805D01*
X103973942Y-86665820D01*
X103839255Y-86800507D01*
X103738240Y-86834179D01*
X103670896Y-86834179D01*
X103569881Y-86800507D01*
X102997461Y-86228087D01*
X102997461Y-87642301D02*
X103401522Y-87238240D01*
X103199492Y-87440270D02*
X102492385Y-86733164D01*
X102660744Y-86766835D01*
X102795431Y-86766835D01*
X102896446Y-86733164D01*
%TO.C,R8*%
X115841666Y-82882380D02*
X116175000Y-82406190D01*
X116413095Y-82882380D02*
X116413095Y-81882380D01*
X116032142Y-81882380D01*
X115936904Y-81930000D01*
X115889285Y-81977619D01*
X115841666Y-82072857D01*
X115841666Y-82215714D01*
X115889285Y-82310952D01*
X115936904Y-82358571D01*
X116032142Y-82406190D01*
X116413095Y-82406190D01*
X115270238Y-82310952D02*
X115365476Y-82263333D01*
X115413095Y-82215714D01*
X115460714Y-82120476D01*
X115460714Y-82072857D01*
X115413095Y-81977619D01*
X115365476Y-81930000D01*
X115270238Y-81882380D01*
X115079761Y-81882380D01*
X114984523Y-81930000D01*
X114936904Y-81977619D01*
X114889285Y-82072857D01*
X114889285Y-82120476D01*
X114936904Y-82215714D01*
X114984523Y-82263333D01*
X115079761Y-82310952D01*
X115270238Y-82310952D01*
X115365476Y-82358571D01*
X115413095Y-82406190D01*
X115460714Y-82501428D01*
X115460714Y-82691904D01*
X115413095Y-82787142D01*
X115365476Y-82834761D01*
X115270238Y-82882380D01*
X115079761Y-82882380D01*
X114984523Y-82834761D01*
X114936904Y-82787142D01*
X114889285Y-82691904D01*
X114889285Y-82501428D01*
X114936904Y-82406190D01*
X114984523Y-82358571D01*
X115079761Y-82310952D01*
D11*
%TO.C,R10*%
X124977500Y-82337258D02*
X124977500Y-81862742D01*
X126022500Y-82337258D02*
X126022500Y-81862742D01*
%TO.C,C7*%
X92740580Y-93490000D02*
X92459420Y-93490000D01*
X92740580Y-94510000D02*
X92459420Y-94510000D01*
%TO.C,C8*%
X92440580Y-97710000D02*
X92159420Y-97710000D01*
X92440580Y-96690000D02*
X92159420Y-96690000D01*
%TO.C,Q5*%
X122362500Y-69390000D02*
X121712500Y-69390000D01*
X122362500Y-72510000D02*
X123012500Y-72510000D01*
X122362500Y-69390000D02*
X124037500Y-69390000D01*
X122362500Y-72510000D02*
X121712500Y-72510000D01*
%TO.C,C6*%
X92740580Y-91990000D02*
X92459420Y-91990000D01*
X92740580Y-93010000D02*
X92459420Y-93010000D01*
%TO.C,Q1*%
X90600000Y-80860000D02*
X91250000Y-80860000D01*
X90600000Y-80860000D02*
X88925000Y-80860000D01*
X90600000Y-77740000D02*
X89950000Y-77740000D01*
X90600000Y-77740000D02*
X91250000Y-77740000D01*
%TO.C,C17*%
X127659420Y-82290000D02*
X127940580Y-82290000D01*
X127659420Y-83310000D02*
X127940580Y-83310000D01*
%TO.C,Q2*%
X101260000Y-77300000D02*
X101260000Y-76650000D01*
X98140000Y-77300000D02*
X98140000Y-75625000D01*
X101260000Y-77300000D02*
X101260000Y-77950000D01*
X98140000Y-77300000D02*
X98140000Y-77950000D01*
%TO.C,C15*%
X120340580Y-87210000D02*
X120059420Y-87210000D01*
X120340580Y-86190000D02*
X120059420Y-86190000D01*
%TO.C,C3*%
X122610000Y-101540580D02*
X122610000Y-101259420D01*
X121590000Y-101540580D02*
X121590000Y-101259420D01*
%TO.C,R17*%
X81662742Y-84022500D02*
X82137258Y-84022500D01*
X81662742Y-82977500D02*
X82137258Y-82977500D01*
%TO.C,C105*%
X108535000Y-83509420D02*
X108535000Y-83790580D01*
X107515000Y-83509420D02*
X107515000Y-83790580D01*
%TO.C,R11*%
X121022500Y-82337258D02*
X121022500Y-81862742D01*
X119977500Y-82337258D02*
X119977500Y-81862742D01*
%TO.C,C19*%
X113159420Y-88510000D02*
X113440580Y-88510000D01*
X113159420Y-87490000D02*
X113440580Y-87490000D01*
%TO.C,R1*%
X121462258Y-83877500D02*
X120987742Y-83877500D01*
X121462258Y-84922500D02*
X120987742Y-84922500D01*
%TO.C,R15*%
X126477500Y-96137258D02*
X126477500Y-95662742D01*
X127522500Y-96137258D02*
X127522500Y-95662742D01*
%TO.C,Q4*%
X106437500Y-89040000D02*
X105787500Y-89040000D01*
X106437500Y-92160000D02*
X105787500Y-92160000D01*
X106437500Y-92160000D02*
X107087500Y-92160000D01*
X106437500Y-89040000D02*
X108112500Y-89040000D01*
%TO.C,C13*%
X107035000Y-83509420D02*
X107035000Y-83790580D01*
X106015000Y-83509420D02*
X106015000Y-83790580D01*
%TO.C,C16*%
X118084420Y-83310000D02*
X118365580Y-83310000D01*
X118084420Y-82290000D02*
X118365580Y-82290000D01*
%TO.C,R6*%
X113537258Y-91622500D02*
X113062742Y-91622500D01*
X113537258Y-90577500D02*
X113062742Y-90577500D01*
%TO.C,C1*%
X115465580Y-95210000D02*
X115184420Y-95210000D01*
X115465580Y-94190000D02*
X115184420Y-94190000D01*
%TO.C,U4*%
X119037500Y-102710000D02*
X118237500Y-102710000D01*
X119037500Y-99590000D02*
X118237500Y-99590000D01*
X119037500Y-102710000D02*
X119837500Y-102710000D01*
X119037500Y-99590000D02*
X120837500Y-99590000D01*
%TO.C,R7*%
X124562742Y-84922500D02*
X125037258Y-84922500D01*
X124562742Y-83877500D02*
X125037258Y-83877500D01*
%TO.C,C9*%
X92440580Y-95090000D02*
X92159420Y-95090000D01*
X92440580Y-96110000D02*
X92159420Y-96110000D01*
%TO.C,C11*%
X108452591Y-76365000D02*
X108171431Y-76365000D01*
X108452591Y-77385000D02*
X108171431Y-77385000D01*
%TO.C,R16*%
X81662742Y-87122500D02*
X82137258Y-87122500D01*
X81662742Y-86077500D02*
X82137258Y-86077500D01*
%TO.C,Q6*%
X117462500Y-79960000D02*
X115787500Y-79960000D01*
X117462500Y-76840000D02*
X116812500Y-76840000D01*
X117462500Y-76840000D02*
X118112500Y-76840000D01*
X117462500Y-79960000D02*
X118112500Y-79960000D01*
%TO.C,U6*%
X110725000Y-84750000D02*
X111225000Y-84750000D01*
X111225000Y-84750000D02*
X111225000Y-84250000D01*
X109025000Y-84750000D02*
X109525000Y-84750000D01*
X111225000Y-82550000D02*
X111225000Y-82550000D01*
X109025000Y-84250000D02*
X109025000Y-84750000D01*
X109025000Y-82550000D02*
X109025000Y-83050000D01*
X109025000Y-83050000D02*
X109025000Y-83050000D01*
X109525000Y-84750000D02*
X109525000Y-84750000D01*
X110725000Y-82550000D02*
X111225000Y-82550000D01*
X109525000Y-82550000D02*
X109025000Y-82550000D01*
X111225000Y-84250000D02*
X111225000Y-84250000D01*
%TO.C,C20*%
X126340580Y-94110000D02*
X126059420Y-94110000D01*
X126340580Y-93090000D02*
X126059420Y-93090000D01*
%TO.C,C4*%
X120884420Y-99110000D02*
X121165580Y-99110000D01*
X120884420Y-98090000D02*
X121165580Y-98090000D01*
%TO.C,C18*%
X98440580Y-96990000D02*
X98159420Y-96990000D01*
X98440580Y-98010000D02*
X98159420Y-98010000D01*
%TO.C,R5*%
X100737258Y-93077500D02*
X100262742Y-93077500D01*
X100737258Y-94122500D02*
X100262742Y-94122500D01*
%TO.C,D1*%
X124350000Y-76300000D02*
X120450000Y-76300000D01*
X124350000Y-76300000D02*
X124350000Y-78300000D01*
X124350000Y-78300000D02*
X120450000Y-78300000D01*
%TO.C,R3*%
X95777500Y-95237258D02*
X95777500Y-94762742D01*
X96822500Y-95237258D02*
X96822500Y-94762742D01*
%TO.C,C10*%
X108452591Y-77865000D02*
X108171431Y-77865000D01*
X108452591Y-78885000D02*
X108171431Y-78885000D01*
%TO.C,R14*%
X124877500Y-96137258D02*
X124877500Y-95662742D01*
X125922500Y-96137258D02*
X125922500Y-95662742D01*
%TO.C,Q3*%
X104760000Y-77300000D02*
X104760000Y-77950000D01*
X101640000Y-77300000D02*
X101640000Y-75625000D01*
X101640000Y-77300000D02*
X101640000Y-77950000D01*
X104760000Y-77300000D02*
X104760000Y-76650000D01*
%TO.C,C12*%
X111715000Y-83790580D02*
X111715000Y-83509420D01*
X112735000Y-83790580D02*
X112735000Y-83509420D01*
%TO.C,R4*%
X90837742Y-91522500D02*
X91312258Y-91522500D01*
X90837742Y-90477500D02*
X91312258Y-90477500D01*
%TO.C,R12*%
X113537258Y-90022500D02*
X113062742Y-90022500D01*
X113537258Y-88977500D02*
X113062742Y-88977500D01*
%TO.C,R13*%
X114077500Y-78437258D02*
X114077500Y-77962742D01*
X115122500Y-78437258D02*
X115122500Y-77962742D01*
%TO.C,R9*%
X104837258Y-96977500D02*
X104362742Y-96977500D01*
X104837258Y-98022500D02*
X104362742Y-98022500D01*
%TO.C,R2*%
X101287742Y-98022500D02*
X101762258Y-98022500D01*
X101287742Y-96977500D02*
X101762258Y-96977500D01*
%TO.C,L1*%
X116600000Y-95900000D02*
X118200000Y-95900000D01*
X116600000Y-99100000D02*
X118200000Y-99100000D01*
%TO.C,U1*%
X97100000Y-92405311D02*
X96887868Y-92193179D01*
X92206821Y-87087868D02*
X91994689Y-87300000D01*
X91994689Y-87300000D02*
X92206821Y-87512132D01*
X96887868Y-82406821D02*
X97100000Y-82194689D01*
X97312132Y-92193179D02*
X97100000Y-92405311D01*
X102205311Y-87300000D02*
X101993179Y-87087868D01*
X97100000Y-82194689D02*
X97312132Y-82406821D01*
X101993179Y-87512132D02*
X102205311Y-87300000D01*
X96887868Y-92193179D02*
X95958023Y-93123024D01*
%TO.C,R8*%
X115437742Y-80477500D02*
X115912258Y-80477500D01*
X115437742Y-81522500D02*
X115912258Y-81522500D01*
%TD*%
M02*
