%TF.GenerationSoftware,KiCad,Pcbnew,6.0.2-1.fc35*%
%TF.CreationDate,2022-04-20T21:27:15+02:00*%
%TF.ProjectId,mask,6d61736b-2e6b-4696-9361-645f70636258,rev?*%
%TF.SameCoordinates,Original*%
%TF.FileFunction,Legend,Top*%
%TF.FilePolarity,Positive*%
%FSLAX46Y46*%
G04 Gerber Fmt 4.6, Leading zero omitted, Abs format (unit mm)*
G04 Created by KiCad (PCBNEW 6.0.2-1.fc35) date 2022-04-20 21:27:15*
%MOMM*%
%LPD*%
G01*
G04 APERTURE LIST*
%ADD10C,0.120000*%
%ADD11C,0.100000*%
%ADD12C,0.150000*%
%ADD13C,0.300000*%
G04 APERTURE END LIST*
D10*
X80264987Y-95545007D02*
G75*
G03*
X81666643Y-98643706I6999998J1299998D01*
G01*
X87289987Y-94270007D02*
X89189987Y-92370007D01*
X87289987Y-94270007D02*
X85389987Y-96170007D01*
X80739987Y-100820007D02*
X84239987Y-96470007D01*
D11*
X89189987Y-92370007D02*
X87289987Y-94270007D01*
X87289987Y-94270007D02*
X87289987Y-83270007D01*
X87289987Y-83270007D02*
X89189987Y-92370007D01*
G36*
X89189987Y-92370007D02*
G01*
X87289987Y-94270007D01*
X87289987Y-83270007D01*
X89189987Y-92370007D01*
G37*
X89189987Y-92370007D02*
X87289987Y-94270007D01*
X87289987Y-83270007D01*
X89189987Y-92370007D01*
D10*
X88414987Y-102520007D02*
G75*
G03*
X92710761Y-100590080I-1125007J8250013D01*
G01*
D11*
X84239987Y-96470007D02*
X84989987Y-96570007D01*
X84989987Y-96570007D02*
X85089987Y-97370007D01*
X85089987Y-97370007D02*
X80739987Y-100820007D01*
X80739987Y-100820007D02*
X84239987Y-96470007D01*
G36*
X84989987Y-96570007D02*
G01*
X85089987Y-97370007D01*
X80739987Y-100820007D01*
X84239987Y-96470007D01*
X84989987Y-96570007D01*
G37*
X84989987Y-96570007D02*
X85089987Y-97370007D01*
X80739987Y-100820007D01*
X84239987Y-96470007D01*
X84989987Y-96570007D01*
X89189987Y-96170007D02*
X87289987Y-94270007D01*
X87289987Y-94270007D02*
X98289987Y-94270007D01*
X98289987Y-94270007D02*
X89189987Y-96170007D01*
G36*
X89189987Y-96170007D02*
G01*
X87289987Y-94270007D01*
X98289987Y-94270007D01*
X89189987Y-96170007D01*
G37*
X89189987Y-96170007D02*
X87289987Y-94270007D01*
X98289987Y-94270007D01*
X89189987Y-96170007D01*
D10*
X89589987Y-96570007D02*
X89489987Y-97320007D01*
X84989987Y-91970007D02*
X85089987Y-91220007D01*
X84989987Y-96570007D02*
X85089987Y-97370007D01*
D11*
X85389987Y-96170007D02*
X87289987Y-94270007D01*
X87289987Y-94270007D02*
X87289987Y-105270007D01*
X87289987Y-105270007D02*
X85389987Y-96170007D01*
G36*
X87289987Y-105270007D02*
G01*
X85389987Y-96170007D01*
X87289987Y-94270007D01*
X87289987Y-105270007D01*
G37*
X87289987Y-105270007D02*
X85389987Y-96170007D01*
X87289987Y-94270007D01*
X87289987Y-105270007D01*
D10*
X90389987Y-96470007D02*
X93839987Y-100820007D01*
X92864987Y-98670007D02*
G75*
G03*
X94258812Y-95668750I-5600004J4425003D01*
G01*
X87289987Y-94270007D02*
X85389987Y-92370007D01*
X81664987Y-89820007D02*
G75*
G03*
X80271162Y-92821264I5600004J-4425003D01*
G01*
X82839987Y-99845007D02*
G75*
G03*
X85841244Y-101238832I4425003J5600004D01*
G01*
D11*
X89489987Y-97320007D02*
X89589987Y-96570007D01*
X89589987Y-96570007D02*
X90389987Y-96470007D01*
X90389987Y-96470007D02*
X93839987Y-100820007D01*
X93839987Y-100820007D02*
X89489987Y-97320007D01*
G36*
X93839987Y-100820007D02*
G01*
X89489987Y-97320007D01*
X89589987Y-96570007D01*
X90389987Y-96470007D01*
X93839987Y-100820007D01*
G37*
X93839987Y-100820007D02*
X89489987Y-97320007D01*
X89589987Y-96570007D01*
X90389987Y-96470007D01*
X93839987Y-100820007D01*
D10*
X80739987Y-87720007D02*
X85089987Y-91220007D01*
X92689987Y-87945007D02*
G75*
G03*
X88459635Y-86030269I-5399994J-6299988D01*
G01*
X89489987Y-91170007D02*
X93839987Y-87720007D01*
X87289987Y-94270007D02*
X89189987Y-92370007D01*
X84189987Y-92070007D02*
X80739987Y-87720007D01*
X84989987Y-91970007D02*
X84189987Y-92070007D01*
X89589987Y-91970007D02*
X89489987Y-91170007D01*
X84989987Y-96570007D02*
X84239987Y-96470007D01*
X81889987Y-100545007D02*
G75*
G03*
X86120339Y-102459745I5399994J6299988D01*
G01*
X98289987Y-94270007D02*
X89189987Y-96170007D01*
D11*
X90339987Y-92070007D02*
X89589987Y-91970007D01*
X89589987Y-91970007D02*
X89489987Y-91170007D01*
X89489987Y-91170007D02*
X93839987Y-87720007D01*
X93839987Y-87720007D02*
X90339987Y-92070007D01*
G36*
X90339987Y-92070007D02*
G01*
X89589987Y-91970007D01*
X89489987Y-91170007D01*
X93839987Y-87720007D01*
X90339987Y-92070007D01*
G37*
X90339987Y-92070007D02*
X89589987Y-91970007D01*
X89489987Y-91170007D01*
X93839987Y-87720007D01*
X90339987Y-92070007D01*
D10*
X94264987Y-92945007D02*
G75*
G03*
X92863331Y-89846308I-6999998J-1299998D01*
G01*
X76289987Y-94270007D02*
X85389987Y-92370007D01*
X88564987Y-101245007D02*
G75*
G03*
X91663686Y-99843351I-1299998J6999998D01*
G01*
X85389987Y-92370007D02*
X87289987Y-83270007D01*
X93839987Y-100820007D02*
X89489987Y-97320007D01*
D11*
X85089987Y-91220007D02*
X84989987Y-91970007D01*
X84989987Y-91970007D02*
X84189987Y-92070007D01*
X84189987Y-92070007D02*
X80739987Y-87720007D01*
X80739987Y-87720007D02*
X85089987Y-91220007D01*
G36*
X85089987Y-91220007D02*
G01*
X84989987Y-91970007D01*
X84189987Y-92070007D01*
X80739987Y-87720007D01*
X85089987Y-91220007D01*
G37*
X85089987Y-91220007D02*
X84989987Y-91970007D01*
X84189987Y-92070007D01*
X80739987Y-87720007D01*
X85089987Y-91220007D01*
D10*
X79039987Y-95395007D02*
G75*
G03*
X80969914Y-99690781I8250013J1125007D01*
G01*
X87289987Y-105270007D02*
X85389987Y-96170007D01*
X89589987Y-96570007D02*
X90389987Y-96470007D01*
X87289987Y-94270007D02*
X89189987Y-96170007D01*
X87289987Y-94270007D02*
X89189987Y-96170007D01*
X87289987Y-94270007D02*
X85389987Y-92370007D01*
X85964987Y-87245007D02*
G75*
G03*
X82866288Y-88646663I1299998J-6999998D01*
G01*
X87289987Y-94270007D02*
X85389987Y-96170007D01*
X91689987Y-88645007D02*
G75*
G03*
X88688730Y-87251182I-4425003J-5600004D01*
G01*
X95539987Y-93145007D02*
G75*
G03*
X93610060Y-88849233I-8250013J-1125007D01*
G01*
X85089987Y-97370007D02*
X80739987Y-100820007D01*
X86164987Y-86020007D02*
G75*
G03*
X81869213Y-87949934I1125007J-8250013D01*
G01*
X89189987Y-92370007D02*
X98289987Y-94270007D01*
D11*
X85389987Y-92370007D02*
X87289987Y-94270007D01*
X87289987Y-94270007D02*
X76289987Y-94270007D01*
X76289987Y-94270007D02*
X85389987Y-92370007D01*
G36*
X87289987Y-94270007D02*
G01*
X76289987Y-94270007D01*
X85389987Y-92370007D01*
X87289987Y-94270007D01*
G37*
X87289987Y-94270007D02*
X76289987Y-94270007D01*
X85389987Y-92370007D01*
X87289987Y-94270007D01*
D10*
X93589987Y-99645007D02*
G75*
G03*
X95504725Y-95414655I-6299988J5399994D01*
G01*
X80989987Y-88845007D02*
G75*
G03*
X79075249Y-93075359I6299988J-5399994D01*
G01*
X87289987Y-83270007D02*
X89189987Y-92370007D01*
X89189987Y-96170007D02*
X87289987Y-105270007D01*
X85389987Y-96170007D02*
X76289987Y-94270007D01*
X89589987Y-91970007D02*
X90339987Y-92070007D01*
X93839987Y-87720007D02*
X90339987Y-92070007D01*
D12*
X94285418Y-85885869D02*
X93578311Y-86592976D01*
X94184403Y-85986884D02*
X94285418Y-85986884D01*
X94436941Y-86037392D01*
X94588464Y-86188915D01*
X94638971Y-86340438D01*
X94588464Y-86491961D01*
X94032880Y-87047545D01*
X94992525Y-87906174D02*
X94841002Y-87855667D01*
X94638971Y-87653636D01*
X94588464Y-87502113D01*
X94638971Y-87350590D01*
X95043032Y-86946529D01*
X95194555Y-86896022D01*
X95346078Y-86946529D01*
X95548109Y-87148560D01*
X95598616Y-87300083D01*
X95548109Y-87451606D01*
X95447093Y-87552621D01*
X94841002Y-87148560D01*
D13*
X86565701Y-108271911D02*
X86922844Y-108390959D01*
X87518082Y-108390959D01*
X87756177Y-108271911D01*
X87875225Y-108152864D01*
X87994272Y-107914768D01*
X87994272Y-107676673D01*
X87875225Y-107438578D01*
X87756177Y-107319530D01*
X87518082Y-107200483D01*
X87041891Y-107081435D01*
X86803796Y-106962387D01*
X86684748Y-106843340D01*
X86565701Y-106605245D01*
X86565701Y-106367149D01*
X86684748Y-106129054D01*
X86803796Y-106010007D01*
X87041891Y-105890959D01*
X87637129Y-105890959D01*
X87994272Y-106010007D01*
D12*
X78804834Y-87375590D02*
X79511941Y-88082697D01*
X78905849Y-87476606D02*
X78905849Y-87375590D01*
X78956357Y-87224068D01*
X79107880Y-87072545D01*
X79259403Y-87022037D01*
X79410925Y-87072545D01*
X79966509Y-87628129D01*
X79663464Y-86516961D02*
X80572601Y-87022037D01*
X80269555Y-86314930D01*
X80976662Y-86617976D01*
X80471586Y-85708839D01*
D13*
X86575701Y-82400959D02*
X86575701Y-79900959D01*
X88004272Y-82400959D01*
X88004272Y-79900959D01*
X73228558Y-92890959D02*
X73823796Y-95390959D01*
X74299987Y-93605245D01*
X74776177Y-95390959D01*
X75371415Y-92890959D01*
D12*
X94512448Y-102831174D02*
X94663971Y-102780667D01*
X94866002Y-102578636D01*
X94916509Y-102427113D01*
X94866002Y-102275590D01*
X94815494Y-102225083D01*
X94663971Y-102174575D01*
X94512448Y-102225083D01*
X94360925Y-102376606D01*
X94209403Y-102427113D01*
X94057880Y-102376606D01*
X94007372Y-102326098D01*
X93956864Y-102174575D01*
X94007372Y-102023052D01*
X94158895Y-101871529D01*
X94310418Y-101821022D01*
X95825647Y-101517976D02*
X95775139Y-101669499D01*
X95573109Y-101871529D01*
X95421586Y-101922037D01*
X95270063Y-101871529D01*
X94866002Y-101467468D01*
X94815494Y-101315945D01*
X94866002Y-101164423D01*
X95068032Y-100962392D01*
X95219555Y-100911884D01*
X95371078Y-100962392D01*
X95472093Y-101063407D01*
X95068032Y-101669499D01*
D13*
X99744272Y-94101435D02*
X100577606Y-94101435D01*
X100934748Y-95410959D02*
X99744272Y-95410959D01*
X99744272Y-92910959D01*
X100934748Y-92910959D01*
D12*
X65881785Y-81737380D02*
X65405595Y-81737380D01*
X65405595Y-80737380D01*
X66215119Y-81213571D02*
X66548452Y-81213571D01*
X66691309Y-81737380D02*
X66215119Y-81737380D01*
X66215119Y-80737380D01*
X66691309Y-80737380D01*
X67119880Y-81737380D02*
X67119880Y-80737380D01*
X67357976Y-80737380D01*
X67500833Y-80785000D01*
X67596071Y-80880238D01*
X67643690Y-80975476D01*
X67691309Y-81165952D01*
X67691309Y-81308809D01*
X67643690Y-81499285D01*
X67596071Y-81594523D01*
X67500833Y-81689761D01*
X67357976Y-81737380D01*
X67119880Y-81737380D01*
X68119880Y-81070714D02*
X68119880Y-81737380D01*
X68119880Y-81165952D02*
X68167500Y-81118333D01*
X68262738Y-81070714D01*
X68405595Y-81070714D01*
X68500833Y-81118333D01*
X68548452Y-81213571D01*
X68548452Y-81737380D01*
X69167500Y-81737380D02*
X69072261Y-81689761D01*
X69024642Y-81642142D01*
X68977023Y-81546904D01*
X68977023Y-81261190D01*
X69024642Y-81165952D01*
X69072261Y-81118333D01*
X69167500Y-81070714D01*
X69310357Y-81070714D01*
X69405595Y-81118333D01*
X69453214Y-81165952D01*
X69500833Y-81261190D01*
X69500833Y-81546904D01*
X69453214Y-81642142D01*
X69405595Y-81689761D01*
X69310357Y-81737380D01*
X69167500Y-81737380D01*
X70357976Y-81737380D02*
X70357976Y-80737380D01*
X70357976Y-81689761D02*
X70262738Y-81737380D01*
X70072261Y-81737380D01*
X69977023Y-81689761D01*
X69929404Y-81642142D01*
X69881785Y-81546904D01*
X69881785Y-81261190D01*
X69929404Y-81165952D01*
X69977023Y-81118333D01*
X70072261Y-81070714D01*
X70262738Y-81070714D01*
X70357976Y-81118333D01*
X71215119Y-81689761D02*
X71119880Y-81737380D01*
X70929404Y-81737380D01*
X70834166Y-81689761D01*
X70786547Y-81594523D01*
X70786547Y-81213571D01*
X70834166Y-81118333D01*
X70929404Y-81070714D01*
X71119880Y-81070714D01*
X71215119Y-81118333D01*
X71262738Y-81213571D01*
X71262738Y-81308809D01*
X70786547Y-81404047D01*
X72453214Y-81737380D02*
X72453214Y-80737380D01*
X72786547Y-81451666D01*
X73119880Y-80737380D01*
X73119880Y-81737380D01*
X73596071Y-81737380D02*
X73596071Y-80737380D01*
X73691309Y-81356428D02*
X73977023Y-81737380D01*
X73977023Y-81070714D02*
X73596071Y-81451666D01*
X74929404Y-81737380D02*
X74357976Y-81737380D01*
X74643690Y-81737380D02*
X74643690Y-80737380D01*
X74548452Y-80880238D01*
X74453214Y-80975476D01*
X74357976Y-81023095D01*
X65405595Y-83347380D02*
X65405595Y-82347380D01*
X65643690Y-82347380D01*
X65786547Y-82395000D01*
X65881785Y-82490238D01*
X65929404Y-82585476D01*
X65977023Y-82775952D01*
X65977023Y-82918809D01*
X65929404Y-83109285D01*
X65881785Y-83204523D01*
X65786547Y-83299761D01*
X65643690Y-83347380D01*
X65405595Y-83347380D01*
X66786547Y-83299761D02*
X66691309Y-83347380D01*
X66500833Y-83347380D01*
X66405595Y-83299761D01*
X66357976Y-83204523D01*
X66357976Y-82823571D01*
X66405595Y-82728333D01*
X66500833Y-82680714D01*
X66691309Y-82680714D01*
X66786547Y-82728333D01*
X66834166Y-82823571D01*
X66834166Y-82918809D01*
X66357976Y-83014047D01*
X67215119Y-83299761D02*
X67310357Y-83347380D01*
X67500833Y-83347380D01*
X67596071Y-83299761D01*
X67643690Y-83204523D01*
X67643690Y-83156904D01*
X67596071Y-83061666D01*
X67500833Y-83014047D01*
X67357976Y-83014047D01*
X67262738Y-82966428D01*
X67215119Y-82871190D01*
X67215119Y-82823571D01*
X67262738Y-82728333D01*
X67357976Y-82680714D01*
X67500833Y-82680714D01*
X67596071Y-82728333D01*
X68072261Y-83347380D02*
X68072261Y-82680714D01*
X68072261Y-82347380D02*
X68024642Y-82395000D01*
X68072261Y-82442619D01*
X68119880Y-82395000D01*
X68072261Y-82347380D01*
X68072261Y-82442619D01*
X68977023Y-82680714D02*
X68977023Y-83490238D01*
X68929404Y-83585476D01*
X68881785Y-83633095D01*
X68786547Y-83680714D01*
X68643690Y-83680714D01*
X68548452Y-83633095D01*
X68977023Y-83299761D02*
X68881785Y-83347380D01*
X68691309Y-83347380D01*
X68596071Y-83299761D01*
X68548452Y-83252142D01*
X68500833Y-83156904D01*
X68500833Y-82871190D01*
X68548452Y-82775952D01*
X68596071Y-82728333D01*
X68691309Y-82680714D01*
X68881785Y-82680714D01*
X68977023Y-82728333D01*
X69453214Y-82680714D02*
X69453214Y-83347380D01*
X69453214Y-82775952D02*
X69500833Y-82728333D01*
X69596071Y-82680714D01*
X69738928Y-82680714D01*
X69834166Y-82728333D01*
X69881785Y-82823571D01*
X69881785Y-83347380D01*
X70738928Y-83299761D02*
X70643690Y-83347380D01*
X70453214Y-83347380D01*
X70357976Y-83299761D01*
X70310357Y-83204523D01*
X70310357Y-82823571D01*
X70357976Y-82728333D01*
X70453214Y-82680714D01*
X70643690Y-82680714D01*
X70738928Y-82728333D01*
X70786547Y-82823571D01*
X70786547Y-82918809D01*
X70310357Y-83014047D01*
X71643690Y-83347380D02*
X71643690Y-82347380D01*
X71643690Y-83299761D02*
X71548452Y-83347380D01*
X71357976Y-83347380D01*
X71262738Y-83299761D01*
X71215119Y-83252142D01*
X71167500Y-83156904D01*
X71167500Y-82871190D01*
X71215119Y-82775952D01*
X71262738Y-82728333D01*
X71357976Y-82680714D01*
X71548452Y-82680714D01*
X71643690Y-82728333D01*
X72881785Y-83347380D02*
X72881785Y-82347380D01*
X72881785Y-82728333D02*
X72977023Y-82680714D01*
X73167500Y-82680714D01*
X73262738Y-82728333D01*
X73310357Y-82775952D01*
X73357976Y-82871190D01*
X73357976Y-83156904D01*
X73310357Y-83252142D01*
X73262738Y-83299761D01*
X73167500Y-83347380D01*
X72977023Y-83347380D01*
X72881785Y-83299761D01*
X73691309Y-82680714D02*
X73929404Y-83347380D01*
X74167500Y-82680714D02*
X73929404Y-83347380D01*
X73834166Y-83585476D01*
X73786547Y-83633095D01*
X73691309Y-83680714D01*
X75643690Y-82823571D02*
X75786547Y-82871190D01*
X75834166Y-82918809D01*
X75881785Y-83014047D01*
X75881785Y-83156904D01*
X75834166Y-83252142D01*
X75786547Y-83299761D01*
X75691309Y-83347380D01*
X75310357Y-83347380D01*
X75310357Y-82347380D01*
X75643690Y-82347380D01*
X75738928Y-82395000D01*
X75786547Y-82442619D01*
X75834166Y-82537857D01*
X75834166Y-82633095D01*
X75786547Y-82728333D01*
X75738928Y-82775952D01*
X75643690Y-82823571D01*
X75310357Y-82823571D01*
X76738928Y-83347380D02*
X76738928Y-82823571D01*
X76691309Y-82728333D01*
X76596071Y-82680714D01*
X76405595Y-82680714D01*
X76310357Y-82728333D01*
X76738928Y-83299761D02*
X76643690Y-83347380D01*
X76405595Y-83347380D01*
X76310357Y-83299761D01*
X76262738Y-83204523D01*
X76262738Y-83109285D01*
X76310357Y-83014047D01*
X76405595Y-82966428D01*
X76643690Y-82966428D01*
X76738928Y-82918809D01*
X77215119Y-83347380D02*
X77215119Y-82680714D01*
X77215119Y-82871190D02*
X77262738Y-82775952D01*
X77310357Y-82728333D01*
X77405595Y-82680714D01*
X77500833Y-82680714D01*
X77691309Y-82680714D02*
X78072261Y-82680714D01*
X77834166Y-82347380D02*
X77834166Y-83204523D01*
X77881785Y-83299761D01*
X77977023Y-83347380D01*
X78072261Y-83347380D01*
X78627803Y-101391453D02*
X78678311Y-101542976D01*
X78880342Y-101745007D01*
X79031864Y-101795514D01*
X79183387Y-101745007D01*
X79233895Y-101694499D01*
X79284403Y-101542976D01*
X79233895Y-101391453D01*
X79082372Y-101239930D01*
X79031864Y-101088407D01*
X79082372Y-100936884D01*
X79132880Y-100886377D01*
X79284403Y-100835869D01*
X79435925Y-100886377D01*
X79587448Y-101037900D01*
X79637956Y-101189423D01*
X80092525Y-101542976D02*
X79587448Y-102452113D01*
X80294555Y-102149068D01*
X79991509Y-102856174D01*
X80900647Y-102351098D01*
M02*
