%TF.GenerationSoftware,KiCad,Pcbnew,6.0.2-1.fc35*%
%TF.CreationDate,2022-04-20T21:27:13+02:00*%
%TF.ProjectId,mask,6d61736b-2e6b-4696-9361-645f70636258,rev?*%
%TF.SameCoordinates,Original*%
%TF.FileFunction,Copper,L1,Top*%
%TF.FilePolarity,Positive*%
%FSLAX46Y46*%
G04 Gerber Fmt 4.6, Leading zero omitted, Abs format (unit mm)*
G04 Created by KiCad (PCBNEW 6.0.2-1.fc35) date 2022-04-20 21:27:13*
%MOMM*%
%LPD*%
G01*
G04 APERTURE LIST*
G04 APERTURE END LIST*
%TA.AperFunction,NonConductor*%
G36*
X113260057Y-76379500D02*
G01*
X113274858Y-76381805D01*
X113274861Y-76381805D01*
X113283730Y-76383186D01*
X113296378Y-76381532D01*
X113323692Y-76380948D01*
X113402682Y-76387859D01*
X113451281Y-76392111D01*
X113472904Y-76395923D01*
X113585888Y-76426197D01*
X113618636Y-76434972D01*
X113639275Y-76442484D01*
X113776010Y-76506245D01*
X113795030Y-76517227D01*
X113918618Y-76603764D01*
X113935443Y-76617882D01*
X114042118Y-76724557D01*
X114056236Y-76741382D01*
X114142773Y-76864970D01*
X114153755Y-76883990D01*
X114217516Y-77020725D01*
X114225028Y-77041364D01*
X114264076Y-77187092D01*
X114267890Y-77208722D01*
X114278449Y-77329419D01*
X114277896Y-77345879D01*
X114278305Y-77345884D01*
X114278195Y-77354858D01*
X114276814Y-77363730D01*
X114277978Y-77372632D01*
X114277978Y-77372635D01*
X114280936Y-77395251D01*
X114282000Y-77411589D01*
X114282000Y-110820672D01*
X114280500Y-110840056D01*
X114276814Y-110863730D01*
X114278454Y-110876270D01*
X114278468Y-110876375D01*
X114279052Y-110903692D01*
X114267890Y-111031278D01*
X114264076Y-111052908D01*
X114225028Y-111198636D01*
X114217516Y-111219275D01*
X114153755Y-111356010D01*
X114142773Y-111375030D01*
X114056236Y-111498618D01*
X114042118Y-111515443D01*
X113935443Y-111622118D01*
X113918618Y-111636236D01*
X113795030Y-111722773D01*
X113776010Y-111733755D01*
X113639275Y-111797516D01*
X113618635Y-111805028D01*
X113472904Y-111844077D01*
X113451281Y-111847889D01*
X113407391Y-111851729D01*
X113330581Y-111858449D01*
X113314121Y-111857896D01*
X113314116Y-111858305D01*
X113305142Y-111858195D01*
X113296270Y-111856814D01*
X113287368Y-111857978D01*
X113287365Y-111857978D01*
X113264749Y-111860936D01*
X113248411Y-111862000D01*
X61339328Y-111862000D01*
X61319943Y-111860500D01*
X61305142Y-111858195D01*
X61305139Y-111858195D01*
X61296270Y-111856814D01*
X61283622Y-111858468D01*
X61256308Y-111859052D01*
X61177318Y-111852141D01*
X61128719Y-111847889D01*
X61107096Y-111844077D01*
X60961365Y-111805028D01*
X60940725Y-111797516D01*
X60803990Y-111733755D01*
X60784970Y-111722773D01*
X60661382Y-111636236D01*
X60644557Y-111622118D01*
X60537882Y-111515443D01*
X60523764Y-111498618D01*
X60437227Y-111375030D01*
X60426245Y-111356010D01*
X60362484Y-111219275D01*
X60354972Y-111198636D01*
X60315924Y-111052908D01*
X60312110Y-111031278D01*
X60301551Y-110910581D01*
X60302104Y-110894121D01*
X60301695Y-110894116D01*
X60301805Y-110885142D01*
X60303186Y-110876270D01*
X60301547Y-110863730D01*
X60299064Y-110844749D01*
X60298000Y-110828411D01*
X60298000Y-77419328D01*
X60299500Y-77399943D01*
X60301805Y-77385142D01*
X60301805Y-77385139D01*
X60303186Y-77376270D01*
X60301532Y-77363622D01*
X60300948Y-77336308D01*
X60312110Y-77208722D01*
X60315924Y-77187092D01*
X60354972Y-77041364D01*
X60362484Y-77020725D01*
X60426245Y-76883990D01*
X60437227Y-76864970D01*
X60523764Y-76741382D01*
X60537882Y-76724557D01*
X60644557Y-76617882D01*
X60661382Y-76603764D01*
X60784970Y-76517227D01*
X60803990Y-76506245D01*
X60940725Y-76442484D01*
X60961364Y-76434972D01*
X60994112Y-76426197D01*
X61107096Y-76395923D01*
X61128719Y-76392111D01*
X61172609Y-76388271D01*
X61249419Y-76381551D01*
X61265879Y-76382104D01*
X61265884Y-76381695D01*
X61274858Y-76381805D01*
X61283730Y-76383186D01*
X61292632Y-76382022D01*
X61292635Y-76382022D01*
X61315251Y-76379064D01*
X61331589Y-76378000D01*
X113240672Y-76378000D01*
X113260057Y-76379500D01*
G37*
%TD.AperFunction*%
M02*
